<?xml version="1.0" encoding="UTF-8"?>
<!DOCTYPE svg PUBLIC "-//W3C//DTD SVG 1.0//EN" "http://www.w3.org/TR/2001/REC-SVG-20010904/DTD/svg10.dtd">
<svg xmlns="http://www.w3.org/2000/svg" xml:space="preserve" width="100%" height="100%" version="1.0"
    style="shape-rendering:geometricPrecision; text-rendering:geometricPrecision; image-rendering:optimizeQuality; fill-rule:evenodd; clip-rule:evenodd"
    viewBox="0 0 1968 1455" xmlns:xlink="http://www.w3.org/1999/xlink">
    <defs>
        <style type="text/css">
            <![CDATA[
            .str0 {
                stroke: #373435;
                stroke-width: 6.94488
            }

            .fil0 {
                fill: none
            }

            .fil2 {
                fill: white
            }

            .fil1 {
                fill: black
            }

            .fil3 {
                fill: black;
                fill-rule: nonzero
            }
            ]]>
        </style>
    </defs>
    <g id="Layer_x0020_1">
        <rect class="fil0 str0" x="236" y="16" width="1496" height="1102" />
        <rect class="fil1 str0" x="393" y="173" width="1181" height="787" />
        <g id="_2028373896944">
            <rect class="fil2 str0" x="545" y="476" width="319" height="319" />
            <rect class="fil2 str0" x="1104" y="486" width="319" height="319" />
            <rect class="fil1 str0" x="1189" y="607" width="149" height="149" />
            <rect class="fil1 str0" x="630" y="596" width="149" height="149" />
        </g>
        <g id="_2028373897648">
            <g>
                <g>
                    <path class="fil3" d="M250 246l0 28 -28 0 0 -28 28 0zm144 17l-158 0 0 -7 158 0 0 7z" />
                </g>
                <g>
                    <path class="fil3" d="M250 299l0 27 -28 0 0 -27 28 0zm144 17l-158 0 0 -7 158 0 0 7z" />
                </g>
                <g>
                    <path class="fil3" d="M250 351l0 28 -28 0 0 -28 28 0zm144 18l-158 0 0 -7 158 0 0 7z" />
                </g>
                <g>
                    <path class="fil3" d="M250 404l0 28 -28 0 0 -28 28 0zm144 17l-158 0 0 -7 158 0 0 7z" />
                </g>
            </g>
            <g>
                <g>
                    <path class="fil3" d="M250 708l0 27 -28 0 0 -27 28 0zm144 17l-158 0 0 -7 158 0 0 7z" />
                </g>
                <g>
                    <path class="fil3" d="M250 760l0 28 -28 0 0 -28 28 0zm144 18l-158 0 0 -7 158 0 0 7z" />
                </g>
                <g>
                    <path class="fil3" d="M250 813l0 28 -28 0 0 -28 28 0zm144 17l-158 0 0 -7 158 0 0 7z" />
                </g>
                <g>
                    <path class="fil3" d="M250 866l0 27 -28 0 0 -27 28 0zm144 17l-158 0 0 -7 158 0 0 7z" />
                </g>
            </g>
        </g>
        <g>
            <g>
                <g>
                    <path class="fil3" d="M1718 274l0 -28 27 0 0 28 -27 0zm-144 -18l157 0 0 7 -157 0 0 -7z" />
                </g>
                <g>
                    <path class="fil3" d="M1718 326l0 -27 27 0 0 27 -27 0zm-144 -17l157 0 0 7 -157 0 0 -7z" />
                </g>
                <g>
                    <path class="fil3" d="M1718 379l0 -28 27 0 0 28 -27 0zm-144 -17l157 0 0 7 -157 0 0 -7z" />
                </g>
                <g>
                    <path class="fil3" d="M1718 432l0 -28 27 0 0 28 -27 0zm-144 -18l157 0 0 7 -157 0 0 -7z" />
                </g>
            </g>
            <g>
                <g>
                    <path class="fil3" d="M1718 735l0 -27 27 0 0 27 -27 0zm-144 -17l157 0 0 7 -157 0 0 -7z" />
                </g>
                <g>
                    <path class="fil3" d="M1718 788l0 -28 27 0 0 28 -27 0zm-144 -17l157 0 0 7 -157 0 0 -7z" />
                </g>
                <g>
                    <path class="fil3" d="M1718 841l0 -28 27 0 0 28 -27 0zm-144 -18l157 0 0 7 -157 0 0 -7z" />
                </g>
                <g>
                    <path class="fil3" d="M1718 893l0 -27 27 0 0 27 -27 0zm-144 -17l157 0 0 7 -157 0 0 -7z" />
                </g>
            </g>
        </g>
        <g>
            <g>
                <g>
                    <path class="fil3" d="M505 28l-28 0 0 -28 28 0 0 28zm-18 141l0 -155 7 0 0 155 -7 0z" />
                </g>
                <g>
                    <path class="fil3" d="M557 28l-28 0 0 -28 28 0 0 28zm-17 141l0 -155 7 0 0 155 -7 0z" />
                </g>
                <g>
                    <path class="fil3" d="M610 28l-28 0 0 -28 28 0 0 28zm-18 141l0 -155 7 0 0 155 -7 0z" />
                </g>
                <g>
                    <path class="fil3" d="M663 28l-28 0 0 -28 28 0 0 28zm-18 141l0 -155 7 0 0 155 -7 0z" />
                </g>
            </g>
            <g>
                <g>
                    <path class="fil3" d="M919 28l-28 0 0 -28 28 0 0 28zm-18 141l0 -155 7 0 0 155 -7 0z" />
                </g>
                <g>
                    <path class="fil3" d="M971 28l-27 0 0 -28 27 0 0 28zm-17 141l0 -155 7 0 0 155 -7 0z" />
                </g>
                <g>
                    <path class="fil3" d="M1024 28l-28 0 0 -28 28 0 0 28zm-17 141l0 -155 7 0 0 155 -7 0z" />
                </g>
                <g>
                    <path class="fil3" d="M1077 28l-28 0 0 -28 28 0 0 28zm-18 141l0 -155 7 0 0 155 -7 0z" />
                </g>
            </g>
            <g>
                <g>
                    <path class="fil3" d="M1333 31l-28 0 0 -28 28 0 0 28zm-17 140l0 -154 7 0 0 154 -7 0z" />
                </g>
                <g>
                    <path class="fil3" d="M1386 31l-28 0 0 -28 28 0 0 28zm-18 140l0 -154 7 0 0 154 -7 0z" />
                </g>
                <g>
                    <path class="fil3" d="M1438 31l-27 0 0 -28 27 0 0 28zm-17 140l0 -154 7 0 0 154 -7 0z" />
                </g>
                <g>
                    <path class="fil3" d="M1491 31l-28 0 0 -28 28 0 0 28zm-17 140l0 -154 7 0 0 154 -7 0z" />
                </g>
            </g>
        </g>
        <g>
            <g>
                <g>
                    <path class="fil3" d="M477 1104l28 0 0 27 -28 0 0 -27zm17 -141l0 154 -7 0 0 -154 7 0z" />
                </g>
                <g>
                    <path class="fil3" d="M529 1104l28 0 0 27 -28 0 0 -27zm18 -141l0 154 -7 0 0 -154 7 0z" />
                </g>
                <g>
                    <path class="fil3" d="M582 1104l28 0 0 27 -28 0 0 -27zm17 -141l0 154 -7 0 0 -154 7 0z" />
                </g>
                <g>
                    <path class="fil3" d="M635 1104l28 0 0 27 -28 0 0 -27zm17 -141l0 154 -7 0 0 -154 7 0z" />
                </g>
            </g>
            <g>
                <g>
                    <path class="fil3" d="M891 1104l28 0 0 27 -28 0 0 -27zm17 -141l0 154 -7 0 0 -154 7 0z" />
                </g>
                <g>
                    <path class="fil3" d="M944 1104l27 0 0 27 -27 0 0 -27zm17 -141l0 154 -7 0 0 -154 7 0z" />
                </g>
                <g>
                    <path class="fil3" d="M996 1104l28 0 0 27 -28 0 0 -27zm18 -141l0 154 -7 0 0 -154 7 0z" />
                </g>
                <g>
                    <path class="fil3" d="M1049 1104l28 0 0 27 -28 0 0 -27zm17 -141l0 154 -7 0 0 -154 7 0z" />
                </g>
            </g>
            <g>
                <g>
                    <path class="fil3" d="M1305 1101l28 0 0 28 -28 0 0 -28zm18 -141l0 155 -7 0 0 -155 7 0z" />
                </g>
                <g>
                    <path class="fil3" d="M1358 1101l28 0 0 28 -28 0 0 -28zm17 -141l0 155 -7 0 0 -155 7 0z" />
                </g>
                <g>
                    <path class="fil3" d="M1411 1101l27 0 0 28 -27 0 0 -28zm17 -141l0 155 -7 0 0 -155 7 0z" />
                </g>
                <g>
                    <path class="fil3" d="M1463 1101l28 0 0 28 -28 0 0 -28zm18 -141l0 155 -7 0 0 -155 7 0z" />
                </g>
            </g>
        </g>
        <path class="fil3"
            d="M118 1265c-1,1 -2,2 -3,3 -2,1 -3,1 -5,1 -1,0 -3,0 -5,-2 -1,-1 -4,-2 -6,-4 -2,-2 -5,-3 -9,-4 -3,-2 -7,-2 -11,-2 -5,0 -9,0 -13,2 -3,1 -6,3 -8,5 -3,2 -5,5 -6,8 -1,3 -2,7 -2,11 0,3 1,7 3,9 2,3 5,5 8,7 3,2 7,3 11,5 4,1 8,3 12,5 5,1 9,3 13,5 4,3 7,5 11,8 3,4 5,7 7,12 2,4 3,10 3,16 0,9 -1,17 -4,25 -3,8 -8,15 -13,21 -6,5 -13,10 -21,14 -8,3 -17,5 -28,5 -5,0 -10,-1 -15,-2 -5,-1 -10,-3 -14,-5 -5,-2 -9,-4 -13,-7 -4,-3 -7,-6 -10,-10l12 -16c0,-1 2,-2 3,-2 1,-1 3,-2 4,-2 2,0 3,1 4,2 2,1 3,2 4,3 2,1 4,2 5,4 2,1 4,3 7,4 2,1 5,2 8,3 2,1 6,1 10,1 9,0 16,-3 22,-8 5,-5 8,-13 8,-22 0,-4 -1,-8 -3,-10 -2,-3 -5,-5 -8,-7 -3,-2 -6,-4 -10,-5 -4,-1 -9,-3 -13,-4 -4,-2 -8,-4 -12,-6 -4,-2 -8,-4 -11,-8 -3,-3 -6,-7 -7,-11 -2,-5 -3,-11 -3,-18 0,-7 1,-15 4,-22 3,-7 7,-13 12,-19 6,-5 12,-10 20,-13 7,-3 16,-5 26,-5 4,0 9,1 14,2 4,1 8,2 12,4 4,2 8,4 11,6 4,3 6,6 9,9l-10 14z" />
        <path id="1" class="fil3"
            d="M126 1455l21 -171 16 0c2,0 5,1 7,2 2,1 3,3 3,6 0,0 0,0 0,1 0,0 0,1 0,2 0,1 0,4 0,6 -1,3 -1,8 -1,13 6,-10 13,-17 21,-23 8,-6 16,-8 25,-8 5,0 10,1 14,3 5,1 8,4 11,8 3,4 6,9 8,15 1,6 2,13 2,21 0,8 -1,15 -2,22 -2,7 -4,13 -7,20 -2,6 -6,12 -9,17 -4,5 -8,10 -13,14 -5,3 -10,6 -15,9 -5,2 -11,3 -16,3 -6,0 -11,-1 -16,-3 -5,-2 -9,-5 -12,-9l-7 52 -30 0zm80 -148c-4,0 -7,1 -11,3 -3,3 -7,6 -10,10 -3,4 -6,9 -9,14 -3,6 -5,12 -7,18l-4 31c3,3 6,5 10,6 3,2 7,2 11,2 5,0 10,-2 15,-5 4,-3 8,-8 11,-13 3,-6 6,-12 8,-19 1,-7 2,-14 2,-21 0,-9 -1,-15 -4,-20 -3,-4 -7,-6 -12,-6z" />
        <path id="2" class="fil3"
            d="M304 1448c-2,5 -6,7 -10,7l-23 0 28 -52 -32 -119 26 0c2,0 4,1 5,2 1,1 2,3 2,4l16 67c1,2 1,4 1,6 1,2 1,4 1,7 1,-3 2,-5 3,-7 1,-2 2,-4 3,-6l31 -67c1,-2 2,-3 4,-4 1,-1 3,-2 5,-2l25 0 -85 164z" />
        <path id="3" class="fil3"
            d="M551 1310c0,15 -3,29 -7,42 -5,12 -12,23 -21,32 -8,9 -18,16 -30,21 -12,5 -25,8 -39,8l-64 0 23 -181 63 0c12,0 22,2 31,6 10,4 17,9 24,16 6,7 11,15 15,25 3,9 5,20 5,31zm-33 1c0,-8 -1,-16 -3,-22 -2,-7 -5,-12 -9,-17 -4,-5 -8,-8 -14,-11 -5,-2 -12,-3 -19,-3l-31 0 -16 129 31 0c9,0 18,-2 25,-5 7,-4 14,-9 19,-16 5,-6 9,-14 12,-23 3,-10 5,-20 5,-32z" />
        <path id="4" class="fil3"
            d="M560 1413l16 -129 15 0c3,0 6,1 8,2 1,2 2,4 2,7 0,0 0,0 0,0 0,1 0,1 0,3 0,1 0,4 0,7 0,3 0,8 0,14 5,-11 11,-19 17,-25 6,-6 13,-8 19,-8 4,0 7,0 11,2l-6 31c-4,-3 -8,-4 -12,-4 -7,0 -14,3 -19,10 -6,8 -11,19 -14,34l-7 56 -30 0z" />
        <path id="5" class="fil3"
            d="M692 1232c2,0 3,0 4,0 1,0 2,0 2,1 1,0 2,1 2,1 1,1 2,2 2,3l71 124c0,-3 0,-5 0,-7 0,-3 1,-5 1,-7l14 -115 29 0 -23 181 -16 0c-3,0 -5,-1 -7,-1 -1,-1 -3,-3 -4,-5l-70 -123c0,2 0,4 -1,6 0,1 0,3 0,5l-14 118 -29 0 22 -181 17 0z" />
        <path id="6" class="fil3"
            d="M933 1314c0,6 -1,11 -3,16 -3,5 -7,9 -13,13 -6,4 -14,7 -24,10 -10,2 -23,5 -38,6l0 2c0,20 8,30 25,30 4,0 7,-1 10,-1 3,-1 5,-2 7,-3 2,-1 4,-2 6,-3 2,-1 3,-3 5,-4 1,-1 3,-1 4,-2 2,-1 3,-1 5,-1 1,0 2,0 3,1 1,0 2,1 2,2l8 9c-4,5 -9,8 -13,12 -4,3 -8,6 -13,8 -4,2 -9,3 -14,4 -5,1 -10,2 -16,2 -7,0 -14,-1 -20,-4 -6,-3 -12,-6 -16,-11 -4,-4 -8,-10 -10,-17 -2,-6 -4,-13 -4,-21 0,-7 1,-14 3,-20 1,-7 3,-13 6,-19 3,-6 6,-11 10,-16 4,-5 9,-9 14,-13 5,-3 10,-6 16,-8 6,-2 13,-3 20,-3 6,0 12,1 17,3 5,2 10,4 13,7 3,3 6,7 8,10 1,4 2,8 2,11zm-42 -10c-4,0 -8,1 -12,3 -3,2 -7,4 -9,7 -3,3 -6,7 -8,11 -2,5 -4,10 -5,15 10,-2 19,-3 25,-5 6,-2 11,-4 15,-6 3,-2 5,-4 6,-6 2,-2 2,-5 2,-7 0,-2 0,-3 -1,-4 0,-2 -1,-3 -2,-4 -1,-1 -3,-2 -5,-3 -1,0 -4,-1 -6,-1z" />
        <path id="7" class="fil3"
            d="M955 1387c0,-1 0,-2 0,-2 0,-1 0,-2 0,-4 0,-1 0,-4 1,-6 0,-3 0,-6 1,-10l7 -57 -12 0c-2,0 -3,-1 -4,-2 0,-1 -1,-2 -1,-4 0,0 0,0 0,0 0,0 0,-1 0,-2 0,-1 1,-2 1,-4 0,-2 0,-4 1,-7l19 -4 10 -35c1,-1 2,-3 3,-3 1,-1 3,-2 4,-2l17 0 -5 41 31 0 -3 22 -31 0 -7 55c0,4 0,7 -1,9 0,2 0,3 0,4 0,1 0,2 0,3 0,0 0,0 0,1 0,3 0,5 2,7 1,2 4,3 6,3 2,0 4,0 5,-1 1,0 2,-1 3,-1 1,-1 2,-1 3,-2 0,0 1,0 2,0 1,0 1,0 2,0 0,1 1,1 1,2l7 15c-5,4 -10,7 -15,9 -6,2 -12,3 -17,3 -9,0 -16,-3 -22,-8 -5,-4 -8,-11 -8,-20z" />
        <path id="8" class="fil3" d="M1040 1325l60 0 -3 25 -60 0 3 -25z" />
        <path id="9" class="fil3"
            d="M1158 1349l-8 64 -32 0 22 -181 55 0c10,0 19,1 26,4 8,2 14,6 19,10 4,4 8,10 10,16 2,6 4,12 4,20 0,9 -2,18 -5,26 -3,9 -8,16 -14,22 -6,6 -13,10 -23,14 -9,3 -19,5 -31,5l-23 0zm11 -92l-8 67 23 0c6,0 12,-1 16,-3 5,-2 9,-5 12,-8 3,-4 5,-8 7,-13 1,-4 2,-10 2,-15 0,-5 -1,-8 -2,-12 -1,-3 -3,-6 -5,-8 -3,-3 -6,-5 -9,-6 -4,-1 -8,-2 -13,-2l-23 0z" />
        <path id="10" class="fil3"
            d="M1260 1413l23 -186 30 0 -9 79c6,-8 13,-14 20,-18 7,-4 15,-6 22,-6 5,0 10,1 14,3 3,2 7,4 10,7 2,4 4,8 6,13 1,4 2,10 2,16 0,2 0,3 0,5 0,2 0,3 0,5l-10 82 -31 0 10 -82c0,-1 0,-3 0,-4 0,-2 0,-3 0,-4 0,-5 -1,-9 -3,-12 -2,-2 -5,-3 -9,-3 -4,0 -7,0 -10,2 -4,2 -7,5 -10,8 -3,3 -6,7 -9,12 -3,5 -5,10 -7,15l-8 68 -31 0z" />
        <path id="11" class="fil3"
            d="M1428 1448c-2,5 -5,7 -10,7l-23 0 29 -52 -33 -119 26 0c3,0 4,1 5,2 1,1 2,3 3,4l15 67c1,2 1,4 2,6 0,2 0,4 0,7 1,-3 2,-5 3,-7 1,-2 2,-4 3,-6l32 -67c0,-2 2,-3 3,-4 2,-1 3,-2 5,-2l25 0 -85 164z" />
        <path id="12" class="fil3"
            d="M1598 1309c-1,1 -2,2 -3,2 -1,1 -2,1 -3,1 -2,0 -3,0 -5,-1 -1,-1 -3,-2 -5,-3 -2,-1 -4,-2 -7,-3 -2,-1 -5,-1 -9,-1 -6,0 -11,2 -15,5 -3,2 -5,6 -5,11 0,2 1,4 2,6 2,2 3,4 6,5 2,1 5,2 8,4 3,1 6,2 9,3 3,1 6,3 9,5 3,1 6,3 8,5 3,3 5,6 6,9 1,3 2,7 2,12 0,6 -1,12 -4,17 -2,6 -6,11 -10,15 -5,4 -10,8 -17,10 -6,3 -13,4 -21,4 -5,0 -8,-1 -12,-1 -4,-1 -8,-2 -11,-4 -3,-1 -6,-3 -9,-5 -3,-1 -5,-3 -7,-6l8 -12c0,-1 2,-2 3,-3 1,-1 3,-1 4,-1 2,0 4,0 5,2 2,1 3,2 5,3 2,1 4,3 7,4 3,1 6,1 11,1 3,0 6,0 9,-1 2,-1 4,-2 6,-4 2,-1 3,-3 4,-5 1,-2 2,-5 2,-7 0,-3 -1,-5 -2,-7 -2,-2 -4,-4 -6,-5 -3,-1 -5,-3 -8,-4 -3,-1 -6,-2 -9,-3 -4,-1 -7,-2 -10,-4 -2,-1 -5,-3 -8,-6 -2,-2 -4,-5 -5,-8 -2,-3 -2,-7 -2,-12 0,-6 1,-11 3,-17 2,-5 5,-10 9,-14 5,-4 10,-7 16,-10 6,-2 13,-4 21,-4 8,0 15,2 22,5 6,2 11,6 16,10l-8 12z" />
        <path id="13" class="fil3"
            d="M1659 1285l-15 128 -31 0 16 -128 30 0zm8 -38c0,3 -1,5 -2,8 -1,2 -2,4 -4,6 -2,2 -4,3 -6,4 -3,1 -5,2 -7,2 -3,0 -5,-1 -8,-2 -2,-1 -4,-2 -6,-4 -1,-2 -3,-4 -4,-6 -1,-3 -1,-5 -1,-8 0,-3 0,-5 1,-8 1,-2 3,-4 5,-6 1,-2 3,-3 6,-4 2,-1 4,-2 7,-2 2,0 5,1 7,2 2,1 4,2 6,4 2,2 3,4 4,6 1,3 2,5 2,8z" />
        <path id="14" class="fil3"
            d="M1773 1390c-4,5 -8,9 -12,12 -4,3 -8,6 -12,8 -4,1 -8,3 -12,4 -5,0 -10,1 -15,1 -7,0 -14,-1 -20,-4 -6,-3 -11,-6 -15,-11 -4,-4 -7,-10 -9,-17 -2,-6 -3,-14 -3,-22 0,-10 1,-20 5,-30 3,-9 8,-17 14,-25 6,-7 13,-12 21,-17 8,-4 17,-6 27,-6 9,0 16,1 22,4 6,3 11,8 16,14l-10 12c-1,0 -2,1 -3,2 -1,0 -2,1 -3,1 -1,0 -3,-1 -4,-2 -1,-1 -2,-2 -4,-3 -1,-1 -3,-2 -6,-2 -2,-1 -5,-2 -8,-2 -5,0 -10,2 -14,4 -4,3 -8,6 -12,11 -3,5 -5,11 -7,17 -2,7 -3,14 -3,22 0,10 2,17 6,22 4,5 10,8 17,8 5,0 8,-1 12,-2 3,-2 5,-3 8,-5 2,-1 4,-3 5,-4 2,-2 4,-2 6,-2 1,0 2,0 3,1 1,0 2,1 2,2l8 9z" />
        <path id="15" class="fil3"
            d="M1885 1413l-17 0c-3,0 -6,-1 -7,-3 -2,-1 -3,-4 -3,-6l1 -18c-5,9 -12,16 -19,21 -7,5 -15,8 -23,8 -5,0 -10,-1 -14,-3 -4,-2 -8,-5 -11,-9 -3,-3 -5,-8 -7,-14 -2,-6 -3,-12 -3,-20 0,-8 1,-15 3,-22 2,-8 5,-15 8,-21 4,-6 8,-12 13,-18 5,-5 11,-9 17,-13 6,-4 13,-7 20,-9 7,-2 15,-3 23,-3 6,0 11,0 17,1 6,1 12,2 17,4l-15 125zm-56 -23c3,0 7,-2 10,-4 3,-2 6,-6 9,-10 3,-4 6,-9 8,-14 3,-6 5,-12 7,-18l5 -39c-2,0 -5,0 -6,0 -7,0 -14,1 -20,4 -6,3 -11,8 -15,13 -4,6 -8,12 -10,19 -3,7 -4,15 -4,23 0,9 1,15 4,19 3,4 7,7 12,7z" />
        <path id="16" class="fil3" d="M1915 1413l22 -186 31 0 -23 186 -30 0z" />
    </g>
</svg>