<svg xmlns="http://www.w3.org/2000/svg" xmlns:xlink="http://www.w3.org/1999/xlink" xmlns:s="https://github.com/nturley/netlistsvg" width="677" height="209.5">
  <style>svg {
    stroke:#000;
    fill:none;
  }
  text {
    fill:#000;
    stroke:none;
    font-size:10px;
    font-weight: bold;
    font-family: "Courier New", monospace;
  }
  .nodelabel {
    text-anchor: middle;
  }
  .inputPortLabel {
    text-anchor: end;
  }
  .splitjoinBody {
    fill:#000;
  }</style>
  <g s:type="generic" transform="translate(156,46.5)" s:width="30" s:height="40" id="cell_inst_1_0">
    <text x="15" y="-4" class="nodelabel cell_inst_1_0" s:attribute="ref">module1</text>
    <rect width="30" height="60" s:generic="body" class="cell_inst_1_0"/>
    <g transform="translate(0,10)" s:x="0" s:y="10" s:pid="in0" id="port_inst_1_0~bus_in_ft_in">
      <text x="-3" y="-4" class="inputPortLabel cell_inst_1_0">bus_in_ft_in</text>
    </g>
    <g transform="translate(0,30)" s:x="0" s:y="10" s:pid="in0" id="port_inst_1_0~in0">
      <text x="-3" y="-4" class="inputPortLabel cell_inst_1_0">in0</text>
    </g>
    <g transform="translate(0,50)" s:x="0" s:y="10" s:pid="in0" id="port_inst_1_0~in1">
      <text x="-3" y="-4" class="inputPortLabel cell_inst_1_0">in1</text>
    </g>
    <g transform="translate(30,10)" s:x="30" s:y="10" s:pid="out0" id="port_inst_1_0~bus_in_ft_out">
      <text x="5" y="-4" style="fill:#000; stroke:none" class="cell_inst_1_0">bus_in_ft_out</text>
    </g>
    <g transform="translate(30,30)" s:x="30" s:y="10" s:pid="out0" id="port_inst_1_0~out">
      <text x="5" y="-4" style="fill:#000; stroke:none" class="cell_inst_1_0">out</text>
    </g>
  </g>
  <g s:type="generic" transform="translate(478,99.5)" s:width="30" s:height="40" id="cell_inst_1_1">
    <text x="15" y="-4" class="nodelabel cell_inst_1_1" s:attribute="ref">module1</text>
    <rect width="30" height="60" s:generic="body" class="cell_inst_1_1"/>
    <g transform="translate(0,10)" s:x="0" s:y="10" s:pid="in0" id="port_inst_1_1~bus_in_ft_in">
      <text x="-3" y="-4" class="inputPortLabel cell_inst_1_1">bus_in_ft_in</text>
    </g>
    <g transform="translate(0,30)" s:x="0" s:y="10" s:pid="in0" id="port_inst_1_1~in0">
      <text x="-3" y="-4" class="inputPortLabel cell_inst_1_1">in0</text>
    </g>
    <g transform="translate(0,50)" s:x="0" s:y="10" s:pid="in0" id="port_inst_1_1~in1">
      <text x="-3" y="-4" class="inputPortLabel cell_inst_1_1">in1</text>
    </g>
    <g transform="translate(30,10)" s:x="30" s:y="10" s:pid="out0" id="port_inst_1_1~bus_in_ft_out">
      <text x="5" y="-4" style="fill:#000; stroke:none" class="cell_inst_1_1">bus_in_ft_out</text>
    </g>
    <g transform="translate(30,30)" s:x="30" s:y="10" s:pid="out0" id="port_inst_1_1~out">
      <text x="5" y="-4" style="fill:#000; stroke:none" class="cell_inst_1_1">out</text>
    </g>
  </g>
  <g s:type="generic" transform="translate(320,26.5)" s:width="30" s:height="40" id="cell_inst_2_0">
    <text x="15" y="-4" class="nodelabel cell_inst_2_0" s:attribute="ref">module2</text>
    <rect width="30" height="40" s:generic="body" class="cell_inst_2_0"/>
    <g transform="translate(0,10)" s:x="0" s:y="10" s:pid="in0" id="port_inst_2_0~in0">
      <text x="-3" y="-4" class="inputPortLabel cell_inst_2_0">in0</text>
    </g>
    <g transform="translate(0,30)" s:x="0" s:y="10" s:pid="in0" id="port_inst_2_0~in1">
      <text x="-3" y="-4" class="inputPortLabel cell_inst_2_0">in1</text>
    </g>
    <g transform="translate(30,10)" s:x="30" s:y="10" s:pid="out0" id="port_inst_2_0~out">
      <text x="5" y="-4" style="fill:#000; stroke:none" class="cell_inst_2_0">out</text>
    </g>
  </g>
  <g s:type="generic" transform="translate(480.33333333333337,26.5)" s:width="30" s:height="40" id="cell_inst_2_1">
    <text x="15" y="-4" class="nodelabel cell_inst_2_1" s:attribute="ref">module2</text>
    <rect width="30" height="40" s:generic="body" class="cell_inst_2_1"/>
    <g transform="translate(0,10)" s:x="0" s:y="10" s:pid="in0" id="port_inst_2_1~in0">
      <text x="-3" y="-4" class="inputPortLabel cell_inst_2_1">in0</text>
    </g>
    <g transform="translate(0,30)" s:x="0" s:y="10" s:pid="in0" id="port_inst_2_1~in1">
      <text x="-3" y="-4" class="inputPortLabel cell_inst_2_1">in1</text>
    </g>
    <g transform="translate(30,10)" s:x="30" s:y="10" s:pid="out0" id="port_inst_2_1~out">
      <text x="5" y="-4" style="fill:#000; stroke:none" class="cell_inst_2_1">out</text>
    </g>
  </g>
  <g s:type="inputExt" transform="translate(12,167)" s:width="30" s:height="20" id="cell_in0">
    <text x="15" y="-4" class="nodelabel cell_in0" s:attribute="ref">in0</text>
    <s:alias val="$_inputExt_"/>
    <path d="M0,0 L0,20 L15,20 L30,10 L15,0 Z" class="cell_in0"/>
    <g s:x="28" s:y="10" s:pid="Y"/>
  </g>
  <g s:type="inputExt" transform="translate(12,87)" s:width="30" s:height="20" id="cell_in1">
    <text x="15" y="-4" class="nodelabel cell_in1" s:attribute="ref">in1</text>
    <s:alias val="$_inputExt_"/>
    <path d="M0,0 L0,20 L15,20 L30,10 L15,0 Z" class="cell_in1"/>
    <g s:x="28" s:y="10" s:pid="Y"/>
  </g>
  <g s:type="inputExt" transform="translate(12,22)" s:width="30" s:height="20" id="cell_bus_in">
    <text x="15" y="-4" class="nodelabel cell_bus_in" s:attribute="ref">bus_in</text>
    <s:alias val="$_inputExt_"/>
    <path d="M0,0 L0,20 L15,20 L30,10 L15,0 Z" class="cell_bus_in"/>
    <g s:x="28" s:y="10" s:pid="Y"/>
  </g>
  <g s:type="outputExt" transform="translate(623,120)" s:width="30" s:height="20" id="cell_out0">
    <text x="15" y="-4" class="nodelabel cell_out0" s:attribute="ref">out0</text>
    <s:alias val="$_outputExt_"/>
    <path d="M30,0 L30,20 L15,20 L0,10 L15,0 Z" class="cell_out0"/>
    <g s:x="0" s:y="10" s:pid="A"/>
  </g>
  <g s:type="outputExt" transform="translate(623,27)" s:width="30" s:height="20" id="cell_bus_out">
    <text x="15" y="-4" class="nodelabel cell_bus_out" s:attribute="ref">bus_out</text>
    <s:alias val="$_outputExt_"/>
    <path d="M30,0 L30,20 L15,20 L0,10 L15,0 Z" class="cell_bus_out"/>
    <g s:x="0" s:y="10" s:pid="A"/>
  </g>
  <g s:type="join" transform="translate(167,146.5)" s:width="4" s:height="40" id="cell_$join$,3,2,">
    <rect width="5" height="40" class="splitjoinBody" s:generic="body"/>
    <s:alias val="$_join_"/>
    <g s:x="5" s:y="20" s:pid="out"/>
    <g transform="translate(0,10)" s:x="0" s:y="10" s:pid="in0">
      <text x="-3" y="-4" class="inputPortLabel">0</text>
    </g>
    <g transform="translate(0,30)" s:x="0" s:y="10" s:pid="in0">
      <text x="-3" y="-4" class="inputPortLabel">1</text>
    </g>
  </g>
  <line x1="40" x2="58" y1="32" y2="32" class="net_4,5"/>
  <line x1="58" x2="58" y1="32" y2="57" class="net_4,5"/>
  <line x1="58" x2="156" y1="57" y2="57" class="net_4,5"/>
  <line x1="40" x2="58" y1="177" y2="177" class="net_2"/>
  <line x1="58" x2="58" y1="177" y2="77" class="net_2"/>
  <circle cx="58" cy="177" r="2" style="fill:#000" class="net_2"/>
  <line x1="58" x2="156" y1="77" y2="77" class="net_2"/>
  <line x1="40" x2="58" y1="177" y2="177" class="net_2"/>
  <line x1="58" x2="58" y1="177" y2="196.5" class="net_2"/>
  <line x1="58" x2="380" y1="196.5" y2="196.5" class="net_2"/>
  <line x1="380" x2="380" y1="196.5" y2="150" class="net_2"/>
  <line x1="380" x2="478" y1="150" y2="150" class="net_2"/>
  <line x1="40" x2="167" y1="177" y2="177" class="net_2"/>
  <line x1="40" x2="156" y1="97" y2="97" class="net_3"/>
  <line x1="40" x2="68" y1="97" y2="97" class="net_3"/>
  <line x1="68" x2="68" y1="97" y2="157" class="net_3"/>
  <circle cx="68" cy="97" r="2" style="fill:#000" class="net_3"/>
  <line x1="68" x2="167" y1="157" y2="157" class="net_3"/>
  <line x1="509" x2="598" y1="110" y2="110" class="net_"/>
  <line x1="598" x2="598" y1="110" y2="79.5" class="net_"/>
  <line x1="598" x2="380" y1="79.5" y2="79.5" class="net_"/>
  <line x1="380" x2="380" y1="79.5" y2="110" class="net_"/>
  <line x1="380" x2="478" y1="110" y2="110" class="net_"/>
  <line x1="187" x2="286" y1="77" y2="77" class="net_11"/>
  <line x1="286" x2="286" y1="77" y2="130" class="net_11"/>
  <line x1="286" x2="478" y1="130" y2="130" class="net_11"/>
  <line x1="173" x2="276" y1="167" y2="167" class="net_3,2"/>
  <line x1="276" x2="276" y1="167" y2="37" class="net_3,2"/>
  <line x1="276" x2="320" y1="37" y2="37" class="net_3,2"/>
  <line x1="187" x2="320" y1="57" y2="57" class="net_9,10"/>
  <line x1="351" x2="480.33333333333337" y1="37" y2="37" class="net_12,13"/>
  <line x1="351" x2="380" y1="37" y2="37" class="net_12,13"/>
  <line x1="380" x2="380" y1="37" y2="57" class="net_12,13"/>
  <circle cx="380" cy="37" r="2" style="fill:#000" class="net_12,13"/>
  <line x1="380" x2="480.33333333333337" y1="57" y2="57" class="net_12,13"/>
  <line x1="509" x2="623" y1="130" y2="130" class="net_6"/>
  <line x1="511.33333333333337" x2="623" y1="37" y2="37" class="net_7,8"/>
</svg>
