<?xml version="1.0" encoding="utf-8" ?>
<svg xmlns="http://www.w3.org/2000/svg" xmlns:ev="http://www.w3.org/2001/xml-events" xmlns:xlink="http://www.w3.org/1999/xlink" baseProfile="full" height="100%" version="1.1" viewBox="-50,-1440,1440,1440" width="100%">
    <defs>
        <symbol id="fpga_top">
            <rect class="module_boundary fpga_top" fill="#f4f0e6" height="1339" width="1339" x="1" y="1"/>
        </symbol>
        <symbol id="grid_clb">
            <rect class="module_boundary grid_clb" fill="#ddd0b1" height="199" width="199" x="1" y="1"/>
        </symbol>
        <symbol id="sb_0__0_">
            <path class="module_boundary sb_0__0_" d="M 0 0 v 0 h 0 v 104 h 0  v 24 h 104 v -24 h 24 v -104  h -24 v 0 Z Z" fill="#ceefe4"/>
        </symbol>
        <symbol id="sb_0__1_">
            <path class="module_boundary sb_0__1_" d="M 0 0 v 24 h 0 v 104 h 0  v 24 h 104 v -24 h 24 v -104  h -24 v -24 Z Z" fill="#ceefe4"/>
        </symbol>
        <symbol id="sb_0__4_">
            <path class="module_boundary sb_0__4_" d="M 0 0 v 24 h 0 v 104 h 0  v 0 h 104 v 0 h 24 v -104  h -24 v -24 Z Z" fill="#ceefe4"/>
        </symbol>
        <symbol id="sb_1__0_">
            <path class="module_boundary sb_1__0_" d="M 24 0 v 0 h -24 v 104 h 24  v 24 h 104 v -24 h 24 v -104  h -24 v 0 Z Z" fill="#ceefe4"/>
        </symbol>
        <symbol id="sb_1__1_">
            <path class="module_boundary sb_1__1_" d="M 24 0 v 24 h -24 v 104 h 24  v 24 h 104 v -24 h 24 v -104  h -24 v -24 Z Z" fill="#ceefe4"/>
        </symbol>
        <symbol id="sb_1__4_">
            <path class="module_boundary sb_1__4_" d="M 24 0 v 24 h -24 v 104 h 24  v 0 h 104 v 0 h 24 v -104  h -24 v -24 Z Z" fill="#ceefe4"/>
        </symbol>
        <symbol id="sb_4__0_">
            <path class="module_boundary sb_4__0_" d="M 24 0 v 0 h -24 v 104 h 24  v 24 h 104 v -24 h 0 v -104  h 0 v 0 Z Z" fill="#ceefe4"/>
        </symbol>
        <symbol id="sb_4__1_">
            <path class="module_boundary sb_4__1_" d="M 24 0 v 24 h -24 v 104 h 24  v 24 h 104 v -24 h 0 v -104  h 0 v -24 Z Z" fill="#ceefe4"/>
        </symbol>
        <symbol id="sb_4__4_">
            <path class="module_boundary sb_4__4_" d="M 24 0 v 24 h -24 v 104 h 24  v 0 h 104 v 0 h 0 v -104  h 0 v -24 Z Z" fill="#ceefe4"/>
        </symbol>
        <symbol id="cbx_1__1_">
            <rect class="module_boundary cbx_1__1_" fill="#d9d9f3" height="103" width="151" x="1" y="1"/>
        </symbol>
        <symbol id="cby_1__1_">
            <rect class="module_boundary cby_1__1_" fill="#a8d0db" height="151" width="103" x="1" y="1"/>
        </symbol>
        <symbol id="cby_0__1_">
            <rect class="module_boundary cby_0__1_" fill="#a8d0db" height="151" width="103" x="1" y="1"/>
        </symbol>
        <symbol id="cbx_1__4_">
            <rect class="module_boundary cbx_1__4_" fill="#d9d9f3" height="103" width="151" x="1" y="1"/>
        </symbol>
        <symbol id="cby_4__1_">
            <rect class="module_boundary cby_4__1_" fill="#a8d0db" height="151" width="103" x="1" y="1"/>
        </symbol>
        <symbol id="cbx_1__0_">
            <rect class="module_boundary cbx_1__0_" fill="#d9d9f3" height="103" width="151" x="1" y="1"/>
        </symbol>
        <style type="text/css"><![CDATA[
            .origin{fill:black}
            text{font-family: Verdana; font-size: 5px;}
            .module_boundary{stroke:grey; stroke-width:1;opacity: 0.8}
            .left_pin{
                fill:blue;
                text-anchor: start;
                transform: translate(5px, 00px) scale(1,-1);}
            .right_pin{
                fill:blue;
                text-anchor: end;
                transform: translate(-5px, 00px) scale(1,-1);}
            .bottom_pin{
                fill:blue;
                transform-box: fill-box;
                transform-origin: start;
                text-anchor: start;
                transform: translate(0px, 10px) rotate(90deg) scale(1,-1);}
            .top_pin{
                fill:blue;
                transform-box: fill-box;
                transform-origin: bottom left;
                text-anchor: start;
                transform: translate(0px, -3px) rotate(-90deg) scale(1,-1);}
            .in_pin{fill: red;}
            .out_pin{fill: blue;}
        ]]></style>
    </defs>
    <g id="bg">
        <rect fill="#FFF" height="1390" id="background" stroke-width="0" width="1390" x="-25" y="-25"/>
    </g>
    <g id="mainframe">
        <g id="mainShapes" transform="scale(1,-1)">
            <use class="topModule" x="0" xlink:href="#fpga_top" y="0"/>
            <use class="grid_clb_1__1_" x="114" xlink:href="#grid_clb" y="114"/>
            <use class="grid_clb_1__2_" x="114" xlink:href="#grid_clb" y="418"/>
            <use class="grid_clb_1__3_" x="114" xlink:href="#grid_clb" y="722"/>
            <use class="grid_clb_1__4_" x="114" xlink:href="#grid_clb" y="1026"/>
            <use class="grid_clb_2__1_" x="418" xlink:href="#grid_clb" y="114"/>
            <use class="grid_clb_2__2_" x="418" xlink:href="#grid_clb" y="418"/>
            <use class="grid_clb_2__3_" x="418" xlink:href="#grid_clb" y="722"/>
            <use class="grid_clb_2__4_" x="418" xlink:href="#grid_clb" y="1026"/>
            <use class="grid_clb_3__1_" x="722" xlink:href="#grid_clb" y="114"/>
            <use class="grid_clb_3__2_" x="722" xlink:href="#grid_clb" y="418"/>
            <use class="grid_clb_3__3_" x="722" xlink:href="#grid_clb" y="722"/>
            <use class="grid_clb_3__4_" x="722" xlink:href="#grid_clb" y="1026"/>
            <use class="grid_clb_4__1_" x="1026" xlink:href="#grid_clb" y="114"/>
            <use class="grid_clb_4__2_" x="1026" xlink:href="#grid_clb" y="418"/>
            <use class="grid_clb_4__3_" x="1026" xlink:href="#grid_clb" y="722"/>
            <use class="grid_clb_4__4_" x="1026" xlink:href="#grid_clb" y="1026"/>
            <use class="sb_0__0_" x="10" xlink:href="#sb_0__0_" y="10"/>
            <use class="sb_0__1_" x="10" xlink:href="#sb_0__1_" y="290"/>
            <use class="sb_0__2_" x="10" xlink:href="#sb_0__1_" y="594"/>
            <use class="sb_0__3_" x="10" xlink:href="#sb_0__1_" y="898"/>
            <use class="sb_0__4_" x="10" xlink:href="#sb_0__4_" y="1202"/>
            <use class="sb_1__0_" x="290" xlink:href="#sb_1__0_" y="10"/>
            <use class="sb_2__0_" x="594" xlink:href="#sb_1__0_" y="10"/>
            <use class="sb_3__0_" x="898" xlink:href="#sb_1__0_" y="10"/>
            <use class="sb_1__1_" x="290" xlink:href="#sb_1__1_" y="290"/>
            <use class="sb_1__2_" x="290" xlink:href="#sb_1__1_" y="594"/>
            <use class="sb_1__3_" x="290" xlink:href="#sb_1__1_" y="898"/>
            <use class="sb_2__1_" x="594" xlink:href="#sb_1__1_" y="290"/>
            <use class="sb_2__2_" x="594" xlink:href="#sb_1__1_" y="594"/>
            <use class="sb_2__3_" x="594" xlink:href="#sb_1__1_" y="898"/>
            <use class="sb_3__1_" x="898" xlink:href="#sb_1__1_" y="290"/>
            <use class="sb_3__2_" x="898" xlink:href="#sb_1__1_" y="594"/>
            <use class="sb_3__3_" x="898" xlink:href="#sb_1__1_" y="898"/>
            <use class="sb_1__4_" x="290" xlink:href="#sb_1__4_" y="1202"/>
            <use class="sb_2__4_" x="594" xlink:href="#sb_1__4_" y="1202"/>
            <use class="sb_3__4_" x="898" xlink:href="#sb_1__4_" y="1202"/>
            <use class="sb_4__0_" x="1202" xlink:href="#sb_4__0_" y="10"/>
            <use class="sb_4__1_" x="1202" xlink:href="#sb_4__1_" y="290"/>
            <use class="sb_4__2_" x="1202" xlink:href="#sb_4__1_" y="594"/>
            <use class="sb_4__3_" x="1202" xlink:href="#sb_4__1_" y="898"/>
            <use class="sb_4__4_" x="1202" xlink:href="#sb_4__4_" y="1202"/>
            <use class="cbx_1__1_" x="138" xlink:href="#cbx_1__1_" y="314"/>
            <use class="cbx_1__2_" x="138" xlink:href="#cbx_1__1_" y="618"/>
            <use class="cbx_1__3_" x="138" xlink:href="#cbx_1__1_" y="922"/>
            <use class="cbx_2__1_" x="442" xlink:href="#cbx_1__1_" y="314"/>
            <use class="cbx_2__2_" x="442" xlink:href="#cbx_1__1_" y="618"/>
            <use class="cbx_2__3_" x="442" xlink:href="#cbx_1__1_" y="922"/>
            <use class="cbx_3__1_" x="746" xlink:href="#cbx_1__1_" y="314"/>
            <use class="cbx_3__2_" x="746" xlink:href="#cbx_1__1_" y="618"/>
            <use class="cbx_3__3_" x="746" xlink:href="#cbx_1__1_" y="922"/>
            <use class="cbx_4__1_" x="1050" xlink:href="#cbx_1__1_" y="314"/>
            <use class="cbx_4__2_" x="1050" xlink:href="#cbx_1__1_" y="618"/>
            <use class="cbx_4__3_" x="1050" xlink:href="#cbx_1__1_" y="922"/>
            <use class="cby_1__1_" x="314" xlink:href="#cby_1__1_" y="138"/>
            <use class="cby_1__2_" x="314" xlink:href="#cby_1__1_" y="442"/>
            <use class="cby_1__3_" x="314" xlink:href="#cby_1__1_" y="746"/>
            <use class="cby_1__4_" x="314" xlink:href="#cby_1__1_" y="1050"/>
            <use class="cby_2__1_" x="618" xlink:href="#cby_1__1_" y="138"/>
            <use class="cby_2__2_" x="618" xlink:href="#cby_1__1_" y="442"/>
            <use class="cby_2__3_" x="618" xlink:href="#cby_1__1_" y="746"/>
            <use class="cby_2__4_" x="618" xlink:href="#cby_1__1_" y="1050"/>
            <use class="cby_3__1_" x="922" xlink:href="#cby_1__1_" y="138"/>
            <use class="cby_3__2_" x="922" xlink:href="#cby_1__1_" y="442"/>
            <use class="cby_3__3_" x="922" xlink:href="#cby_1__1_" y="746"/>
            <use class="cby_3__4_" x="922" xlink:href="#cby_1__1_" y="1050"/>
            <use class="cby_0__1_" x="10" xlink:href="#cby_0__1_" y="138"/>
            <use class="cby_0__2_" x="10" xlink:href="#cby_0__1_" y="442"/>
            <use class="cby_0__3_" x="10" xlink:href="#cby_0__1_" y="746"/>
            <use class="cby_0__4_" x="10" xlink:href="#cby_0__1_" y="1050"/>
            <use class="cbx_1__4_" x="138" xlink:href="#cbx_1__4_" y="1226"/>
            <use class="cbx_2__4_" x="442" xlink:href="#cbx_1__4_" y="1226"/>
            <use class="cbx_3__4_" x="746" xlink:href="#cbx_1__4_" y="1226"/>
            <use class="cbx_4__4_" x="1050" xlink:href="#cbx_1__4_" y="1226"/>
            <use class="cby_4__4_" x="1226" xlink:href="#cby_4__1_" y="1050"/>
            <use class="cby_4__3_" x="1226" xlink:href="#cby_4__1_" y="746"/>
            <use class="cby_4__2_" x="1226" xlink:href="#cby_4__1_" y="442"/>
            <use class="cby_4__1_" x="1226" xlink:href="#cby_4__1_" y="138"/>
            <use class="cbx_4__0_" x="1050" xlink:href="#cbx_1__0_" y="10"/>
            <use class="cbx_3__0_" x="746" xlink:href="#cbx_1__0_" y="10"/>
            <use class="cbx_2__0_" x="442" xlink:href="#cbx_1__0_" y="10"/>
            <use class="cbx_1__0_" x="138" xlink:href="#cbx_1__0_" y="10"/>
        </g>
        <g id="mainText" transform="scale(1,-1)">
            <text alignment-baseline="middle" fill="black" text-anchor="middle" transform="scale(1,-1)" x="670.0" y="-134.0">fpga_top</text>
            <text alignment-baseline="middle" fill="black" text-anchor="middle" transform="scale(1,-1)" x="214.0" y="-214.0">
                grid_clb_1__1_
                <tspan dy="1.2em" x="214.0" y="-214.0">[grid_clb]</tspan>
            </text>
            <text alignment-baseline="middle" fill="black" text-anchor="middle" transform="scale(1,-1)" x="214.0" y="-518.0">
                grid_clb_1__2_
                <tspan dy="1.2em" x="214.0" y="-518.0">[grid_clb]</tspan>
            </text>
            <text alignment-baseline="middle" fill="black" text-anchor="middle" transform="scale(1,-1)" x="214.0" y="-822.0">
                grid_clb_1__3_
                <tspan dy="1.2em" x="214.0" y="-822.0">[grid_clb]</tspan>
            </text>
            <text alignment-baseline="middle" fill="black" text-anchor="middle" transform="scale(1,-1)" x="214.0" y="-1126.0">
                grid_clb_1__4_
                <tspan dy="1.2em" x="214.0" y="-1126.0">[grid_clb]</tspan>
            </text>
            <text alignment-baseline="middle" fill="black" text-anchor="middle" transform="scale(1,-1)" x="518.0" y="-214.0">
                grid_clb_2__1_
                <tspan dy="1.2em" x="518.0" y="-214.0">[grid_clb]</tspan>
            </text>
            <text alignment-baseline="middle" fill="black" text-anchor="middle" transform="scale(1,-1)" x="518.0" y="-518.0">
                grid_clb_2__2_
                <tspan dy="1.2em" x="518.0" y="-518.0">[grid_clb]</tspan>
            </text>
            <text alignment-baseline="middle" fill="black" text-anchor="middle" transform="scale(1,-1)" x="518.0" y="-822.0">
                grid_clb_2__3_
                <tspan dy="1.2em" x="518.0" y="-822.0">[grid_clb]</tspan>
            </text>
            <text alignment-baseline="middle" fill="black" text-anchor="middle" transform="scale(1,-1)" x="518.0" y="-1126.0">
                grid_clb_2__4_
                <tspan dy="1.2em" x="518.0" y="-1126.0">[grid_clb]</tspan>
            </text>
            <text alignment-baseline="middle" fill="black" text-anchor="middle" transform="scale(1,-1)" x="822.0" y="-214.0">
                grid_clb_3__1_
                <tspan dy="1.2em" x="822.0" y="-214.0">[grid_clb]</tspan>
            </text>
            <text alignment-baseline="middle" fill="black" text-anchor="middle" transform="scale(1,-1)" x="822.0" y="-518.0">
                grid_clb_3__2_
                <tspan dy="1.2em" x="822.0" y="-518.0">[grid_clb]</tspan>
            </text>
            <text alignment-baseline="middle" fill="black" text-anchor="middle" transform="scale(1,-1)" x="822.0" y="-822.0">
                grid_clb_3__3_
                <tspan dy="1.2em" x="822.0" y="-822.0">[grid_clb]</tspan>
            </text>
            <text alignment-baseline="middle" fill="black" text-anchor="middle" transform="scale(1,-1)" x="822.0" y="-1126.0">
                grid_clb_3__4_
                <tspan dy="1.2em" x="822.0" y="-1126.0">[grid_clb]</tspan>
            </text>
            <text alignment-baseline="middle" fill="black" text-anchor="middle" transform="scale(1,-1)" x="1126.0" y="-214.0">
                grid_clb_4__1_
                <tspan dy="1.2em" x="1126.0" y="-214.0">[grid_clb]</tspan>
            </text>
            <text alignment-baseline="middle" fill="black" text-anchor="middle" transform="scale(1,-1)" x="1126.0" y="-518.0">
                grid_clb_4__2_
                <tspan dy="1.2em" x="1126.0" y="-518.0">[grid_clb]</tspan>
            </text>
            <text alignment-baseline="middle" fill="black" text-anchor="middle" transform="scale(1,-1)" x="1126.0" y="-822.0">
                grid_clb_4__3_
                <tspan dy="1.2em" x="1126.0" y="-822.0">[grid_clb]</tspan>
            </text>
            <text alignment-baseline="middle" fill="black" text-anchor="middle" transform="scale(1,-1)" x="1126.0" y="-1126.0">
                grid_clb_4__4_
                <tspan dy="1.2em" x="1126.0" y="-1126.0">[grid_clb]</tspan>
            </text>
            <text alignment-baseline="middle" fill="black" text-anchor="middle" transform="scale(1,-1)" x="74.0" y="-74.0">
                sb_0__0_
                <tspan dy="1.2em" x="74.0" y="-74.0">[sb_0__0_]</tspan>
            </text>
            <text alignment-baseline="middle" fill="black" text-anchor="middle" transform="scale(1,-1)" x="74.0" y="-366.0">
                sb_0__1_
                <tspan dy="1.2em" x="74.0" y="-366.0">[sb_0__1_]</tspan>
            </text>
            <text alignment-baseline="middle" fill="black" text-anchor="middle" transform="scale(1,-1)" x="74.0" y="-670.0">
                sb_0__2_
                <tspan dy="1.2em" x="74.0" y="-670.0">[sb_0__1_]</tspan>
            </text>
            <text alignment-baseline="middle" fill="black" text-anchor="middle" transform="scale(1,-1)" x="74.0" y="-974.0">
                sb_0__3_
                <tspan dy="1.2em" x="74.0" y="-974.0">[sb_0__1_]</tspan>
            </text>
            <text alignment-baseline="middle" fill="black" text-anchor="middle" transform="scale(1,-1)" x="74.0" y="-1266.0">
                sb_0__4_
                <tspan dy="1.2em" x="74.0" y="-1266.0">[sb_0__4_]</tspan>
            </text>
            <text alignment-baseline="middle" fill="black" text-anchor="middle" transform="scale(1,-1)" x="366.0" y="-74.0">
                sb_1__0_
                <tspan dy="1.2em" x="366.0" y="-74.0">[sb_1__0_]</tspan>
            </text>
            <text alignment-baseline="middle" fill="black" text-anchor="middle" transform="scale(1,-1)" x="670.0" y="-74.0">
                sb_2__0_
                <tspan dy="1.2em" x="670.0" y="-74.0">[sb_1__0_]</tspan>
            </text>
            <text alignment-baseline="middle" fill="black" text-anchor="middle" transform="scale(1,-1)" x="974.0" y="-74.0">
                sb_3__0_
                <tspan dy="1.2em" x="974.0" y="-74.0">[sb_1__0_]</tspan>
            </text>
            <text alignment-baseline="middle" fill="black" text-anchor="middle" transform="scale(1,-1)" x="366.0" y="-366.0">
                sb_1__1_
                <tspan dy="1.2em" x="366.0" y="-366.0">[sb_1__1_]</tspan>
            </text>
            <text alignment-baseline="middle" fill="black" text-anchor="middle" transform="scale(1,-1)" x="366.0" y="-670.0">
                sb_1__2_
                <tspan dy="1.2em" x="366.0" y="-670.0">[sb_1__1_]</tspan>
            </text>
            <text alignment-baseline="middle" fill="black" text-anchor="middle" transform="scale(1,-1)" x="366.0" y="-974.0">
                sb_1__3_
                <tspan dy="1.2em" x="366.0" y="-974.0">[sb_1__1_]</tspan>
            </text>
            <text alignment-baseline="middle" fill="black" text-anchor="middle" transform="scale(1,-1)" x="670.0" y="-366.0">
                sb_2__1_
                <tspan dy="1.2em" x="670.0" y="-366.0">[sb_1__1_]</tspan>
            </text>
            <text alignment-baseline="middle" fill="black" text-anchor="middle" transform="scale(1,-1)" x="670.0" y="-670.0">
                sb_2__2_
                <tspan dy="1.2em" x="670.0" y="-670.0">[sb_1__1_]</tspan>
            </text>
            <text alignment-baseline="middle" fill="black" text-anchor="middle" transform="scale(1,-1)" x="670.0" y="-974.0">
                sb_2__3_
                <tspan dy="1.2em" x="670.0" y="-974.0">[sb_1__1_]</tspan>
            </text>
            <text alignment-baseline="middle" fill="black" text-anchor="middle" transform="scale(1,-1)" x="974.0" y="-366.0">
                sb_3__1_
                <tspan dy="1.2em" x="974.0" y="-366.0">[sb_1__1_]</tspan>
            </text>
            <text alignment-baseline="middle" fill="black" text-anchor="middle" transform="scale(1,-1)" x="974.0" y="-670.0">
                sb_3__2_
                <tspan dy="1.2em" x="974.0" y="-670.0">[sb_1__1_]</tspan>
            </text>
            <text alignment-baseline="middle" fill="black" text-anchor="middle" transform="scale(1,-1)" x="974.0" y="-974.0">
                sb_3__3_
                <tspan dy="1.2em" x="974.0" y="-974.0">[sb_1__1_]</tspan>
            </text>
            <text alignment-baseline="middle" fill="black" text-anchor="middle" transform="scale(1,-1)" x="366.0" y="-1266.0">
                sb_1__4_
                <tspan dy="1.2em" x="366.0" y="-1266.0">[sb_1__4_]</tspan>
            </text>
            <text alignment-baseline="middle" fill="black" text-anchor="middle" transform="scale(1,-1)" x="670.0" y="-1266.0">
                sb_2__4_
                <tspan dy="1.2em" x="670.0" y="-1266.0">[sb_1__4_]</tspan>
            </text>
            <text alignment-baseline="middle" fill="black" text-anchor="middle" transform="scale(1,-1)" x="974.0" y="-1266.0">
                sb_3__4_
                <tspan dy="1.2em" x="974.0" y="-1266.0">[sb_1__4_]</tspan>
            </text>
            <text alignment-baseline="middle" fill="black" text-anchor="middle" transform="scale(1,-1)" x="1266.0" y="-74.0">
                sb_4__0_
                <tspan dy="1.2em" x="1266.0" y="-74.0">[sb_4__0_]</tspan>
            </text>
            <text alignment-baseline="middle" fill="black" text-anchor="middle" transform="scale(1,-1)" x="1266.0" y="-366.0">
                sb_4__1_
                <tspan dy="1.2em" x="1266.0" y="-366.0">[sb_4__1_]</tspan>
            </text>
            <text alignment-baseline="middle" fill="black" text-anchor="middle" transform="scale(1,-1)" x="1266.0" y="-670.0">
                sb_4__2_
                <tspan dy="1.2em" x="1266.0" y="-670.0">[sb_4__1_]</tspan>
            </text>
            <text alignment-baseline="middle" fill="black" text-anchor="middle" transform="scale(1,-1)" x="1266.0" y="-974.0">
                sb_4__3_
                <tspan dy="1.2em" x="1266.0" y="-974.0">[sb_4__1_]</tspan>
            </text>
            <text alignment-baseline="middle" fill="black" text-anchor="middle" transform="scale(1,-1)" x="1266.0" y="-1266.0">
                sb_4__4_
                <tspan dy="1.2em" x="1266.0" y="-1266.0">[sb_4__4_]</tspan>
            </text>
            <text alignment-baseline="middle" fill="black" text-anchor="middle" transform="scale(1,-1)" x="214.0" y="-366.0">
                cbx_1__1_
                <tspan dy="1.2em" x="214.0" y="-366.0">[cbx_1__1_]</tspan>
            </text>
            <text alignment-baseline="middle" fill="black" text-anchor="middle" transform="scale(1,-1)" x="214.0" y="-670.0">
                cbx_1__2_
                <tspan dy="1.2em" x="214.0" y="-670.0">[cbx_1__1_]</tspan>
            </text>
            <text alignment-baseline="middle" fill="black" text-anchor="middle" transform="scale(1,-1)" x="214.0" y="-974.0">
                cbx_1__3_
                <tspan dy="1.2em" x="214.0" y="-974.0">[cbx_1__1_]</tspan>
            </text>
            <text alignment-baseline="middle" fill="black" text-anchor="middle" transform="scale(1,-1)" x="518.0" y="-366.0">
                cbx_2__1_
                <tspan dy="1.2em" x="518.0" y="-366.0">[cbx_1__1_]</tspan>
            </text>
            <text alignment-baseline="middle" fill="black" text-anchor="middle" transform="scale(1,-1)" x="518.0" y="-670.0">
                cbx_2__2_
                <tspan dy="1.2em" x="518.0" y="-670.0">[cbx_1__1_]</tspan>
            </text>
            <text alignment-baseline="middle" fill="black" text-anchor="middle" transform="scale(1,-1)" x="518.0" y="-974.0">
                cbx_2__3_
                <tspan dy="1.2em" x="518.0" y="-974.0">[cbx_1__1_]</tspan>
            </text>
            <text alignment-baseline="middle" fill="black" text-anchor="middle" transform="scale(1,-1)" x="822.0" y="-366.0">
                cbx_3__1_
                <tspan dy="1.2em" x="822.0" y="-366.0">[cbx_1__1_]</tspan>
            </text>
            <text alignment-baseline="middle" fill="black" text-anchor="middle" transform="scale(1,-1)" x="822.0" y="-670.0">
                cbx_3__2_
                <tspan dy="1.2em" x="822.0" y="-670.0">[cbx_1__1_]</tspan>
            </text>
            <text alignment-baseline="middle" fill="black" text-anchor="middle" transform="scale(1,-1)" x="822.0" y="-974.0">
                cbx_3__3_
                <tspan dy="1.2em" x="822.0" y="-974.0">[cbx_1__1_]</tspan>
            </text>
            <text alignment-baseline="middle" fill="black" text-anchor="middle" transform="scale(1,-1)" x="1126.0" y="-366.0">
                cbx_4__1_
                <tspan dy="1.2em" x="1126.0" y="-366.0">[cbx_1__1_]</tspan>
            </text>
            <text alignment-baseline="middle" fill="black" text-anchor="middle" transform="scale(1,-1)" x="1126.0" y="-670.0">
                cbx_4__2_
                <tspan dy="1.2em" x="1126.0" y="-670.0">[cbx_1__1_]</tspan>
            </text>
            <text alignment-baseline="middle" fill="black" text-anchor="middle" transform="scale(1,-1)" x="1126.0" y="-974.0">
                cbx_4__3_
                <tspan dy="1.2em" x="1126.0" y="-974.0">[cbx_1__1_]</tspan>
            </text>
            <text alignment-baseline="middle" fill="black" text-anchor="middle" transform="scale(1,-1)" x="366.0" y="-214.0">
                cby_1__1_
                <tspan dy="1.2em" x="366.0" y="-214.0">[cby_1__1_]</tspan>
            </text>
            <text alignment-baseline="middle" fill="black" text-anchor="middle" transform="scale(1,-1)" x="366.0" y="-518.0">
                cby_1__2_
                <tspan dy="1.2em" x="366.0" y="-518.0">[cby_1__1_]</tspan>
            </text>
            <text alignment-baseline="middle" fill="black" text-anchor="middle" transform="scale(1,-1)" x="366.0" y="-822.0">
                cby_1__3_
                <tspan dy="1.2em" x="366.0" y="-822.0">[cby_1__1_]</tspan>
            </text>
            <text alignment-baseline="middle" fill="black" text-anchor="middle" transform="scale(1,-1)" x="366.0" y="-1126.0">
                cby_1__4_
                <tspan dy="1.2em" x="366.0" y="-1126.0">[cby_1__1_]</tspan>
            </text>
            <text alignment-baseline="middle" fill="black" text-anchor="middle" transform="scale(1,-1)" x="670.0" y="-214.0">
                cby_2__1_
                <tspan dy="1.2em" x="670.0" y="-214.0">[cby_1__1_]</tspan>
            </text>
            <text alignment-baseline="middle" fill="black" text-anchor="middle" transform="scale(1,-1)" x="670.0" y="-518.0">
                cby_2__2_
                <tspan dy="1.2em" x="670.0" y="-518.0">[cby_1__1_]</tspan>
            </text>
            <text alignment-baseline="middle" fill="black" text-anchor="middle" transform="scale(1,-1)" x="670.0" y="-822.0">
                cby_2__3_
                <tspan dy="1.2em" x="670.0" y="-822.0">[cby_1__1_]</tspan>
            </text>
            <text alignment-baseline="middle" fill="black" text-anchor="middle" transform="scale(1,-1)" x="670.0" y="-1126.0">
                cby_2__4_
                <tspan dy="1.2em" x="670.0" y="-1126.0">[cby_1__1_]</tspan>
            </text>
            <text alignment-baseline="middle" fill="black" text-anchor="middle" transform="scale(1,-1)" x="974.0" y="-214.0">
                cby_3__1_
                <tspan dy="1.2em" x="974.0" y="-214.0">[cby_1__1_]</tspan>
            </text>
            <text alignment-baseline="middle" fill="black" text-anchor="middle" transform="scale(1,-1)" x="974.0" y="-518.0">
                cby_3__2_
                <tspan dy="1.2em" x="974.0" y="-518.0">[cby_1__1_]</tspan>
            </text>
            <text alignment-baseline="middle" fill="black" text-anchor="middle" transform="scale(1,-1)" x="974.0" y="-822.0">
                cby_3__3_
                <tspan dy="1.2em" x="974.0" y="-822.0">[cby_1__1_]</tspan>
            </text>
            <text alignment-baseline="middle" fill="black" text-anchor="middle" transform="scale(1,-1)" x="974.0" y="-1126.0">
                cby_3__4_
                <tspan dy="1.2em" x="974.0" y="-1126.0">[cby_1__1_]</tspan>
            </text>
            <text alignment-baseline="middle" fill="black" text-anchor="middle" transform="scale(1,-1)" x="62.0" y="-214.0">
                cby_0__1_
                <tspan dy="1.2em" x="62.0" y="-214.0">[cby_0__1_]</tspan>
            </text>
            <text alignment-baseline="middle" fill="black" text-anchor="middle" transform="scale(1,-1)" x="62.0" y="-518.0">
                cby_0__2_
                <tspan dy="1.2em" x="62.0" y="-518.0">[cby_0__1_]</tspan>
            </text>
            <text alignment-baseline="middle" fill="black" text-anchor="middle" transform="scale(1,-1)" x="62.0" y="-822.0">
                cby_0__3_
                <tspan dy="1.2em" x="62.0" y="-822.0">[cby_0__1_]</tspan>
            </text>
            <text alignment-baseline="middle" fill="black" text-anchor="middle" transform="scale(1,-1)" x="62.0" y="-1126.0">
                cby_0__4_
                <tspan dy="1.2em" x="62.0" y="-1126.0">[cby_0__1_]</tspan>
            </text>
            <text alignment-baseline="middle" fill="black" text-anchor="middle" transform="scale(1,-1)" x="214.0" y="-1278.0">
                cbx_1__4_
                <tspan dy="1.2em" x="214.0" y="-1278.0">[cbx_1__4_]</tspan>
            </text>
            <text alignment-baseline="middle" fill="black" text-anchor="middle" transform="scale(1,-1)" x="518.0" y="-1278.0">
                cbx_2__4_
                <tspan dy="1.2em" x="518.0" y="-1278.0">[cbx_1__4_]</tspan>
            </text>
            <text alignment-baseline="middle" fill="black" text-anchor="middle" transform="scale(1,-1)" x="822.0" y="-1278.0">
                cbx_3__4_
                <tspan dy="1.2em" x="822.0" y="-1278.0">[cbx_1__4_]</tspan>
            </text>
            <text alignment-baseline="middle" fill="black" text-anchor="middle" transform="scale(1,-1)" x="1126.0" y="-1278.0">
                cbx_4__4_
                <tspan dy="1.2em" x="1126.0" y="-1278.0">[cbx_1__4_]</tspan>
            </text>
            <text alignment-baseline="middle" fill="black" text-anchor="middle" transform="scale(1,-1)" x="1278.0" y="-1126.0">
                cby_4__4_
                <tspan dy="1.2em" x="1278.0" y="-1126.0">[cby_4__1_]</tspan>
            </text>
            <text alignment-baseline="middle" fill="black" text-anchor="middle" transform="scale(1,-1)" x="1278.0" y="-822.0">
                cby_4__3_
                <tspan dy="1.2em" x="1278.0" y="-822.0">[cby_4__1_]</tspan>
            </text>
            <text alignment-baseline="middle" fill="black" text-anchor="middle" transform="scale(1,-1)" x="1278.0" y="-518.0">
                cby_4__2_
                <tspan dy="1.2em" x="1278.0" y="-518.0">[cby_4__1_]</tspan>
            </text>
            <text alignment-baseline="middle" fill="black" text-anchor="middle" transform="scale(1,-1)" x="1278.0" y="-214.0">
                cby_4__1_
                <tspan dy="1.2em" x="1278.0" y="-214.0">[cby_4__1_]</tspan>
            </text>
            <text alignment-baseline="middle" fill="black" text-anchor="middle" transform="scale(1,-1)" x="1126.0" y="-62.0">
                cbx_4__0_
                <tspan dy="1.2em" x="1126.0" y="-62.0">[cbx_1__0_]</tspan>
            </text>
            <text alignment-baseline="middle" fill="black" text-anchor="middle" transform="scale(1,-1)" x="822.0" y="-62.0">
                cbx_3__0_
                <tspan dy="1.2em" x="822.0" y="-62.0">[cbx_1__0_]</tspan>
            </text>
            <text alignment-baseline="middle" fill="black" text-anchor="middle" transform="scale(1,-1)" x="518.0" y="-62.0">
                cbx_2__0_
                <tspan dy="1.2em" x="518.0" y="-62.0">[cbx_1__0_]</tspan>
            </text>
            <text alignment-baseline="middle" fill="black" text-anchor="middle" transform="scale(1,-1)" x="214.0" y="-62.0">
                cbx_1__0_
                <tspan dy="1.2em" x="214.0" y="-62.0">[cbx_1__0_]</tspan>
            </text>
        </g>
        <g id="edges" transform="scale(1,-1)"/>
    </g>
    <rect class="origin" height="10" width="10" x="0" y="0"/>
    <g id="mainShapes" transform="scale(1,-1)">
        <line stroke="red" stroke-width="1" x1="10" x2="1330" y1="10" y2="10"/>
        <line stroke="red" stroke-width="1" x1="10" x2="1330" y1="114" y2="114"/>
        <line stroke="red" stroke-width="1" x1="10" x2="1330" y1="314" y2="314"/>
        <line stroke="red" stroke-width="1" x1="10" x2="1330" y1="418" y2="418"/>
        <line stroke="red" stroke-width="1" x1="10" x2="1330" y1="618" y2="618"/>
        <line stroke="red" stroke-width="1" x1="10" x2="1330" y1="722" y2="722"/>
        <line stroke="red" stroke-width="1" x1="10" x2="1330" y1="922" y2="922"/>
        <line stroke="red" stroke-width="1" x1="10" x2="1330" y1="1026" y2="1026"/>
        <line stroke="red" stroke-width="1" x1="10" x2="1330" y1="1226" y2="1226"/>
        <line stroke="red" stroke-width="1" x1="10" x2="1330" y1="1330" y2="1330"/>
        <line stroke="red" stroke-width="1" x1="10" x2="10" y1="10" y2="1330"/>
        <line stroke="red" stroke-width="1" x1="114" x2="114" y1="10" y2="1330"/>
        <line stroke="red" stroke-width="1" x1="314" x2="314" y1="10" y2="1330"/>
        <line stroke="red" stroke-width="1" x1="418" x2="418" y1="10" y2="1330"/>
        <line stroke="red" stroke-width="1" x1="618" x2="618" y1="10" y2="1330"/>
        <line stroke="red" stroke-width="1" x1="722" x2="722" y1="10" y2="1330"/>
        <line stroke="red" stroke-width="1" x1="922" x2="922" y1="10" y2="1330"/>
        <line stroke="red" stroke-width="1" x1="1026" x2="1026" y1="10" y2="1330"/>
        <line stroke="red" stroke-width="1" x1="1226" x2="1226" y1="10" y2="1330"/>
        <line stroke="red" stroke-width="1" x1="1330" x2="1330" y1="10" y2="1330"/>
    </g>
</svg>
