<?xml version="1.0" encoding="utf-8" ?>
<svg xmlns="http://www.w3.org/2000/svg" xmlns:ev="http://www.w3.org/2001/xml-events" xmlns:xlink="http://www.w3.org/1999/xlink" baseProfile="full" height="100%" version="1.1" viewBox="-50,-2100,2100,2100" width="100%">
    <defs>
        <style type="text/css"><![CDATA[
            text{font-family: Verdana; font-size: 5px;}
            .module_boundary{stroke:grey; stroke-width:1;opacity: 0.8}
            .left_pin{
                fill:blue;
                text-anchor: start;
                transform: translate(5px, 00px) scale(1,-1);}
            .right_pin{
                fill:blue;
                text-anchor: end;
                transform: translate(-5px, 00px) scale(1,-1);}
            .bottom_pin{
                fill:blue;
                transform-box: fill-box;
                transform-origin: start;
                text-anchor: start;
                transform: translate(0px, 10px) rotate(90deg) scale(1,-1);}
            .top_pin{
                fill:blue;
                transform-box: fill-box;
                transform-origin: bottom left;
                text-anchor: start;
                transform: translate(0px, -3px) rotate(-90deg) scale(1,-1);}
            .in_pin{fill: red;}
            .out_pin{fill: blue;}
        ]]></style>
        <symbol id="fpga_top">
            <rect class="module_boundary fpga_top" fill="#f4f0e6" height="1999" width="1999" x="1" y="1"/>
        </symbol>
        <symbol id="grid_clb">
            <rect class="module_boundary grid_clb" fill="#ddd0b1" height="199" width="199" x="1" y="1"/>
        </symbol>
        <symbol id="sb_0__0_">
            <path class="module_boundary sb_0__0_" d="M 0 0 v 0 h 0 v 104 h 0  v 24 h 104 v -24 h 24 v -104  h -24 v 0 Z Z" fill="#ceefe4"/>
        </symbol>
        <symbol id="sb_0__1_">
            <path class="module_boundary sb_0__1_" d="M 0 0 v 24 h 0 v 104 h 0  v 24 h 104 v -24 h 24 v -104  h -24 v -24 Z Z" fill="#ceefe4"/>
        </symbol>
        <symbol id="sb_0__4_">
            <path class="module_boundary sb_0__4_" d="M 0 0 v 24 h 0 v 104 h 0  v 0 h 104 v 0 h 24 v -104  h -24 v -24 Z Z" fill="#ceefe4"/>
        </symbol>
        <symbol id="sb_1__0_">
            <path class="module_boundary sb_1__0_" d="M 24 0 v 0 h -24 v 104 h 24  v 24 h 104 v -24 h 24 v -104  h -24 v 0 Z Z" fill="#ceefe4"/>
        </symbol>
        <symbol id="sb_1__1_">
            <path class="module_boundary sb_1__1_" d="M 24 0 v 24 h -24 v 104 h 24  v 24 h 104 v -24 h 24 v -104  h -24 v -24 Z Z" fill="#ceefe4"/>
        </symbol>
        <symbol id="sb_1__4_">
            <path class="module_boundary sb_1__4_" d="M 24 0 v 24 h -24 v 104 h 24  v 0 h 104 v 0 h 24 v -104  h -24 v -24 Z Z" fill="#ceefe4"/>
        </symbol>
        <symbol id="sb_4__0_">
            <path class="module_boundary sb_4__0_" d="M 24 0 v 0 h -24 v 104 h 24  v 24 h 104 v -24 h 0 v -104  h 0 v 0 Z Z" fill="#ceefe4"/>
        </symbol>
        <symbol id="sb_4__1_">
            <path class="module_boundary sb_4__1_" d="M 24 0 v 24 h -24 v 104 h 24  v 24 h 104 v -24 h 0 v -104  h 0 v -24 Z Z" fill="#ceefe4"/>
        </symbol>
        <symbol id="sb_4__4_">
            <path class="module_boundary sb_4__4_" d="M 24 0 v 24 h -24 v 104 h 24  v 0 h 104 v 0 h 0 v -104  h 0 v -24 Z Z" fill="#ceefe4"/>
        </symbol>
        <symbol id="cbx_1__1_">
            <rect class="module_boundary cbx_1__1_" fill="#d9d9f3" height="103" width="151" x="1" y="1"/>
        </symbol>
        <symbol id="cby_1__1_">
            <rect class="module_boundary cby_1__1_" fill="#a8d0db" height="151" width="103" x="1" y="1"/>
        </symbol>
        <symbol id="cby_0__1_">
            <rect class="module_boundary cby_0__1_" fill="#a8d0db" height="151" width="103" x="1" y="1"/>
        </symbol>
        <symbol id="cbx_1__4_">
            <rect class="module_boundary cbx_1__4_" fill="#d9d9f3" height="103" width="151" x="1" y="1"/>
        </symbol>
        <symbol id="cby_4__1_">
            <rect class="module_boundary cby_4__1_" fill="#a8d0db" height="151" width="103" x="1" y="1"/>
        </symbol>
        <symbol id="cbx_1__0_">
            <rect class="module_boundary cbx_1__0_" fill="#d9d9f3" height="103" width="151" x="1" y="1"/>
        </symbol>
    </defs>
    <g id="bg">
        <rect fill="#FFF" height="2050" id="background" stroke-width="0" width="2050" x="-25" y="-25"/>
    </g>
    <g id="mainframe">
        <g id="mainShapes" transform="scale(1,-1)">
            <use class="topModule" x="0" xlink:href="#fpga_top" y="0"/>
            <use class="grid_clb_1__1_" x="104" xlink:href="#grid_clb" y="104"/>
            <use class="grid_clb_1__2_" x="104" xlink:href="#grid_clb" y="408"/>
            <use class="grid_clb_1__3_" x="104" xlink:href="#grid_clb" y="712"/>
            <use class="grid_clb_1__4_" x="104" xlink:href="#grid_clb" y="1016"/>
            <use class="grid_clb_2__1_" x="408" xlink:href="#grid_clb" y="104"/>
            <use class="grid_clb_2__2_" x="408" xlink:href="#grid_clb" y="408"/>
            <use class="grid_clb_2__3_" x="408" xlink:href="#grid_clb" y="712"/>
            <use class="grid_clb_2__4_" x="408" xlink:href="#grid_clb" y="1016"/>
            <use class="grid_clb_3__1_" x="712" xlink:href="#grid_clb" y="104"/>
            <use class="grid_clb_3__2_" x="712" xlink:href="#grid_clb" y="408"/>
            <use class="grid_clb_3__3_" x="712" xlink:href="#grid_clb" y="712"/>
            <use class="grid_clb_3__4_" x="712" xlink:href="#grid_clb" y="1016"/>
            <use class="grid_clb_4__1_" x="1016" xlink:href="#grid_clb" y="104"/>
            <use class="grid_clb_4__2_" x="1016" xlink:href="#grid_clb" y="408"/>
            <use class="grid_clb_4__3_" x="1016" xlink:href="#grid_clb" y="712"/>
            <use class="grid_clb_4__4_" x="1016" xlink:href="#grid_clb" y="1016"/>
            <use class="sb_0__0_" x="0" xlink:href="#sb_0__0_" y="0"/>
            <use class="sb_0__1_" x="0" xlink:href="#sb_0__1_" y="280"/>
            <use class="sb_0__2_" x="0" xlink:href="#sb_0__1_" y="584"/>
            <use class="sb_0__3_" x="0" xlink:href="#sb_0__1_" y="888"/>
            <use class="sb_0__4_" x="0" xlink:href="#sb_0__4_" y="1192"/>
            <use class="sb_1__0_" x="280" xlink:href="#sb_1__0_" y="0"/>
            <use class="sb_2__0_" x="584" xlink:href="#sb_1__0_" y="0"/>
            <use class="sb_3__0_" x="888" xlink:href="#sb_1__0_" y="0"/>
            <use class="sb_1__1_" x="280" xlink:href="#sb_1__1_" y="280"/>
            <use class="sb_1__2_" x="280" xlink:href="#sb_1__1_" y="584"/>
            <use class="sb_1__3_" x="280" xlink:href="#sb_1__1_" y="888"/>
            <use class="sb_2__1_" x="584" xlink:href="#sb_1__1_" y="280"/>
            <use class="sb_2__2_" x="584" xlink:href="#sb_1__1_" y="584"/>
            <use class="sb_2__3_" x="584" xlink:href="#sb_1__1_" y="888"/>
            <use class="sb_3__1_" x="888" xlink:href="#sb_1__1_" y="280"/>
            <use class="sb_3__2_" x="888" xlink:href="#sb_1__1_" y="584"/>
            <use class="sb_3__3_" x="888" xlink:href="#sb_1__1_" y="888"/>
            <use class="sb_1__4_" x="280" xlink:href="#sb_1__4_" y="1192"/>
            <use class="sb_2__4_" x="584" xlink:href="#sb_1__4_" y="1192"/>
            <use class="sb_3__4_" x="888" xlink:href="#sb_1__4_" y="1192"/>
            <use class="sb_4__0_" x="1192" xlink:href="#sb_4__0_" y="0"/>
            <use class="sb_4__1_" x="1192" xlink:href="#sb_4__1_" y="280"/>
            <use class="sb_4__2_" x="1192" xlink:href="#sb_4__1_" y="584"/>
            <use class="sb_4__3_" x="1192" xlink:href="#sb_4__1_" y="888"/>
            <use class="sb_4__4_" x="1192" xlink:href="#sb_4__4_" y="1192"/>
            <use class="cbx_1__1_" x="128" xlink:href="#cbx_1__1_" y="304"/>
            <use class="cbx_1__2_" x="128" xlink:href="#cbx_1__1_" y="608"/>
            <use class="cbx_1__3_" x="128" xlink:href="#cbx_1__1_" y="912"/>
            <use class="cbx_2__1_" x="432" xlink:href="#cbx_1__1_" y="304"/>
            <use class="cbx_2__2_" x="432" xlink:href="#cbx_1__1_" y="608"/>
            <use class="cbx_2__3_" x="432" xlink:href="#cbx_1__1_" y="912"/>
            <use class="cbx_3__1_" x="736" xlink:href="#cbx_1__1_" y="304"/>
            <use class="cbx_3__2_" x="736" xlink:href="#cbx_1__1_" y="608"/>
            <use class="cbx_3__3_" x="736" xlink:href="#cbx_1__1_" y="912"/>
            <use class="cbx_4__1_" x="1040" xlink:href="#cbx_1__1_" y="304"/>
            <use class="cbx_4__2_" x="1040" xlink:href="#cbx_1__1_" y="608"/>
            <use class="cbx_4__3_" x="1040" xlink:href="#cbx_1__1_" y="912"/>
            <use class="cby_1__1_" x="304" xlink:href="#cby_1__1_" y="128"/>
            <use class="cby_1__2_" x="304" xlink:href="#cby_1__1_" y="432"/>
            <use class="cby_1__3_" x="304" xlink:href="#cby_1__1_" y="736"/>
            <use class="cby_1__4_" x="304" xlink:href="#cby_1__1_" y="1040"/>
            <use class="cby_2__1_" x="608" xlink:href="#cby_1__1_" y="128"/>
            <use class="cby_2__2_" x="608" xlink:href="#cby_1__1_" y="432"/>
            <use class="cby_2__3_" x="608" xlink:href="#cby_1__1_" y="736"/>
            <use class="cby_2__4_" x="608" xlink:href="#cby_1__1_" y="1040"/>
            <use class="cby_3__1_" x="912" xlink:href="#cby_1__1_" y="128"/>
            <use class="cby_3__2_" x="912" xlink:href="#cby_1__1_" y="432"/>
            <use class="cby_3__3_" x="912" xlink:href="#cby_1__1_" y="736"/>
            <use class="cby_3__4_" x="912" xlink:href="#cby_1__1_" y="1040"/>
            <use class="cby_0__1_" x="0" xlink:href="#cby_0__1_" y="128"/>
            <use class="cby_0__2_" x="0" xlink:href="#cby_0__1_" y="432"/>
            <use class="cby_0__3_" x="0" xlink:href="#cby_0__1_" y="736"/>
            <use class="cby_0__4_" x="0" xlink:href="#cby_0__1_" y="1040"/>
            <use class="cbx_1__4_" x="128" xlink:href="#cbx_1__4_" y="1216"/>
            <use class="cbx_2__4_" x="432" xlink:href="#cbx_1__4_" y="1216"/>
            <use class="cbx_3__4_" x="736" xlink:href="#cbx_1__4_" y="1216"/>
            <use class="cbx_4__4_" x="1040" xlink:href="#cbx_1__4_" y="1216"/>
            <use class="cby_4__4_" x="1216" xlink:href="#cby_4__1_" y="1040"/>
            <use class="cby_4__3_" x="1216" xlink:href="#cby_4__1_" y="736"/>
            <use class="cby_4__2_" x="1216" xlink:href="#cby_4__1_" y="432"/>
            <use class="cby_4__1_" x="1216" xlink:href="#cby_4__1_" y="128"/>
            <use class="cbx_4__0_" x="1040" xlink:href="#cbx_1__0_" y="0"/>
            <use class="cbx_3__0_" x="736" xlink:href="#cbx_1__0_" y="0"/>
            <use class="cbx_2__0_" x="432" xlink:href="#cbx_1__0_" y="0"/>
            <use class="cbx_1__0_" x="128" xlink:href="#cbx_1__0_" y="0"/>
        </g>
        <g id="mainText" transform="scale(1,-1)">
            <text alignment-baseline="middle" fill="black" text-anchor="middle" transform="scale(1,-1)" x="1000.0" y="-200.0">fpga_top</text>
            <text alignment-baseline="middle" fill="black" text-anchor="middle" transform="scale(1,-1)" x="204.0" y="-204.0">
                grid_clb_1__1_
                <tspan dy="1.2em" x="204.0" y="-204.0">[grid_clb]</tspan>
            </text>
            <text alignment-baseline="middle" fill="black" text-anchor="middle" transform="scale(1,-1)" x="204.0" y="-508.0">
                grid_clb_1__2_
                <tspan dy="1.2em" x="204.0" y="-508.0">[grid_clb]</tspan>
            </text>
            <text alignment-baseline="middle" fill="black" text-anchor="middle" transform="scale(1,-1)" x="204.0" y="-812.0">
                grid_clb_1__3_
                <tspan dy="1.2em" x="204.0" y="-812.0">[grid_clb]</tspan>
            </text>
            <text alignment-baseline="middle" fill="black" text-anchor="middle" transform="scale(1,-1)" x="204.0" y="-1116.0">
                grid_clb_1__4_
                <tspan dy="1.2em" x="204.0" y="-1116.0">[grid_clb]</tspan>
            </text>
            <text alignment-baseline="middle" fill="black" text-anchor="middle" transform="scale(1,-1)" x="508.0" y="-204.0">
                grid_clb_2__1_
                <tspan dy="1.2em" x="508.0" y="-204.0">[grid_clb]</tspan>
            </text>
            <text alignment-baseline="middle" fill="black" text-anchor="middle" transform="scale(1,-1)" x="508.0" y="-508.0">
                grid_clb_2__2_
                <tspan dy="1.2em" x="508.0" y="-508.0">[grid_clb]</tspan>
            </text>
            <text alignment-baseline="middle" fill="black" text-anchor="middle" transform="scale(1,-1)" x="508.0" y="-812.0">
                grid_clb_2__3_
                <tspan dy="1.2em" x="508.0" y="-812.0">[grid_clb]</tspan>
            </text>
            <text alignment-baseline="middle" fill="black" text-anchor="middle" transform="scale(1,-1)" x="508.0" y="-1116.0">
                grid_clb_2__4_
                <tspan dy="1.2em" x="508.0" y="-1116.0">[grid_clb]</tspan>
            </text>
            <text alignment-baseline="middle" fill="black" text-anchor="middle" transform="scale(1,-1)" x="812.0" y="-204.0">
                grid_clb_3__1_
                <tspan dy="1.2em" x="812.0" y="-204.0">[grid_clb]</tspan>
            </text>
            <text alignment-baseline="middle" fill="black" text-anchor="middle" transform="scale(1,-1)" x="812.0" y="-508.0">
                grid_clb_3__2_
                <tspan dy="1.2em" x="812.0" y="-508.0">[grid_clb]</tspan>
            </text>
            <text alignment-baseline="middle" fill="black" text-anchor="middle" transform="scale(1,-1)" x="812.0" y="-812.0">
                grid_clb_3__3_
                <tspan dy="1.2em" x="812.0" y="-812.0">[grid_clb]</tspan>
            </text>
            <text alignment-baseline="middle" fill="black" text-anchor="middle" transform="scale(1,-1)" x="812.0" y="-1116.0">
                grid_clb_3__4_
                <tspan dy="1.2em" x="812.0" y="-1116.0">[grid_clb]</tspan>
            </text>
            <text alignment-baseline="middle" fill="black" text-anchor="middle" transform="scale(1,-1)" x="1116.0" y="-204.0">
                grid_clb_4__1_
                <tspan dy="1.2em" x="1116.0" y="-204.0">[grid_clb]</tspan>
            </text>
            <text alignment-baseline="middle" fill="black" text-anchor="middle" transform="scale(1,-1)" x="1116.0" y="-508.0">
                grid_clb_4__2_
                <tspan dy="1.2em" x="1116.0" y="-508.0">[grid_clb]</tspan>
            </text>
            <text alignment-baseline="middle" fill="black" text-anchor="middle" transform="scale(1,-1)" x="1116.0" y="-812.0">
                grid_clb_4__3_
                <tspan dy="1.2em" x="1116.0" y="-812.0">[grid_clb]</tspan>
            </text>
            <text alignment-baseline="middle" fill="black" text-anchor="middle" transform="scale(1,-1)" x="1116.0" y="-1116.0">
                grid_clb_4__4_
                <tspan dy="1.2em" x="1116.0" y="-1116.0">[grid_clb]</tspan>
            </text>
            <text alignment-baseline="middle" fill="black" text-anchor="middle" transform="scale(1,-1)" x="64.0" y="-64.0">
                sb_0__0_
                <tspan dy="1.2em" x="64.0" y="-64.0">[sb_0__0_]</tspan>
            </text>
            <text alignment-baseline="middle" fill="black" text-anchor="middle" transform="scale(1,-1)" x="64.0" y="-356.0">
                sb_0__1_
                <tspan dy="1.2em" x="64.0" y="-356.0">[sb_0__1_]</tspan>
            </text>
            <text alignment-baseline="middle" fill="black" text-anchor="middle" transform="scale(1,-1)" x="64.0" y="-660.0">
                sb_0__2_
                <tspan dy="1.2em" x="64.0" y="-660.0">[sb_0__1_]</tspan>
            </text>
            <text alignment-baseline="middle" fill="black" text-anchor="middle" transform="scale(1,-1)" x="64.0" y="-964.0">
                sb_0__3_
                <tspan dy="1.2em" x="64.0" y="-964.0">[sb_0__1_]</tspan>
            </text>
            <text alignment-baseline="middle" fill="black" text-anchor="middle" transform="scale(1,-1)" x="64.0" y="-1256.0">
                sb_0__4_
                <tspan dy="1.2em" x="64.0" y="-1256.0">[sb_0__4_]</tspan>
            </text>
            <text alignment-baseline="middle" fill="black" text-anchor="middle" transform="scale(1,-1)" x="356.0" y="-64.0">
                sb_1__0_
                <tspan dy="1.2em" x="356.0" y="-64.0">[sb_1__0_]</tspan>
            </text>
            <text alignment-baseline="middle" fill="black" text-anchor="middle" transform="scale(1,-1)" x="660.0" y="-64.0">
                sb_2__0_
                <tspan dy="1.2em" x="660.0" y="-64.0">[sb_1__0_]</tspan>
            </text>
            <text alignment-baseline="middle" fill="black" text-anchor="middle" transform="scale(1,-1)" x="964.0" y="-64.0">
                sb_3__0_
                <tspan dy="1.2em" x="964.0" y="-64.0">[sb_1__0_]</tspan>
            </text>
            <text alignment-baseline="middle" fill="black" text-anchor="middle" transform="scale(1,-1)" x="356.0" y="-356.0">
                sb_1__1_
                <tspan dy="1.2em" x="356.0" y="-356.0">[sb_1__1_]</tspan>
            </text>
            <text alignment-baseline="middle" fill="black" text-anchor="middle" transform="scale(1,-1)" x="356.0" y="-660.0">
                sb_1__2_
                <tspan dy="1.2em" x="356.0" y="-660.0">[sb_1__1_]</tspan>
            </text>
            <text alignment-baseline="middle" fill="black" text-anchor="middle" transform="scale(1,-1)" x="356.0" y="-964.0">
                sb_1__3_
                <tspan dy="1.2em" x="356.0" y="-964.0">[sb_1__1_]</tspan>
            </text>
            <text alignment-baseline="middle" fill="black" text-anchor="middle" transform="scale(1,-1)" x="660.0" y="-356.0">
                sb_2__1_
                <tspan dy="1.2em" x="660.0" y="-356.0">[sb_1__1_]</tspan>
            </text>
            <text alignment-baseline="middle" fill="black" text-anchor="middle" transform="scale(1,-1)" x="660.0" y="-660.0">
                sb_2__2_
                <tspan dy="1.2em" x="660.0" y="-660.0">[sb_1__1_]</tspan>
            </text>
            <text alignment-baseline="middle" fill="black" text-anchor="middle" transform="scale(1,-1)" x="660.0" y="-964.0">
                sb_2__3_
                <tspan dy="1.2em" x="660.0" y="-964.0">[sb_1__1_]</tspan>
            </text>
            <text alignment-baseline="middle" fill="black" text-anchor="middle" transform="scale(1,-1)" x="964.0" y="-356.0">
                sb_3__1_
                <tspan dy="1.2em" x="964.0" y="-356.0">[sb_1__1_]</tspan>
            </text>
            <text alignment-baseline="middle" fill="black" text-anchor="middle" transform="scale(1,-1)" x="964.0" y="-660.0">
                sb_3__2_
                <tspan dy="1.2em" x="964.0" y="-660.0">[sb_1__1_]</tspan>
            </text>
            <text alignment-baseline="middle" fill="black" text-anchor="middle" transform="scale(1,-1)" x="964.0" y="-964.0">
                sb_3__3_
                <tspan dy="1.2em" x="964.0" y="-964.0">[sb_1__1_]</tspan>
            </text>
            <text alignment-baseline="middle" fill="black" text-anchor="middle" transform="scale(1,-1)" x="356.0" y="-1256.0">
                sb_1__4_
                <tspan dy="1.2em" x="356.0" y="-1256.0">[sb_1__4_]</tspan>
            </text>
            <text alignment-baseline="middle" fill="black" text-anchor="middle" transform="scale(1,-1)" x="660.0" y="-1256.0">
                sb_2__4_
                <tspan dy="1.2em" x="660.0" y="-1256.0">[sb_1__4_]</tspan>
            </text>
            <text alignment-baseline="middle" fill="black" text-anchor="middle" transform="scale(1,-1)" x="964.0" y="-1256.0">
                sb_3__4_
                <tspan dy="1.2em" x="964.0" y="-1256.0">[sb_1__4_]</tspan>
            </text>
            <text alignment-baseline="middle" fill="black" text-anchor="middle" transform="scale(1,-1)" x="1256.0" y="-64.0">
                sb_4__0_
                <tspan dy="1.2em" x="1256.0" y="-64.0">[sb_4__0_]</tspan>
            </text>
            <text alignment-baseline="middle" fill="black" text-anchor="middle" transform="scale(1,-1)" x="1256.0" y="-356.0">
                sb_4__1_
                <tspan dy="1.2em" x="1256.0" y="-356.0">[sb_4__1_]</tspan>
            </text>
            <text alignment-baseline="middle" fill="black" text-anchor="middle" transform="scale(1,-1)" x="1256.0" y="-660.0">
                sb_4__2_
                <tspan dy="1.2em" x="1256.0" y="-660.0">[sb_4__1_]</tspan>
            </text>
            <text alignment-baseline="middle" fill="black" text-anchor="middle" transform="scale(1,-1)" x="1256.0" y="-964.0">
                sb_4__3_
                <tspan dy="1.2em" x="1256.0" y="-964.0">[sb_4__1_]</tspan>
            </text>
            <text alignment-baseline="middle" fill="black" text-anchor="middle" transform="scale(1,-1)" x="1256.0" y="-1256.0">
                sb_4__4_
                <tspan dy="1.2em" x="1256.0" y="-1256.0">[sb_4__4_]</tspan>
            </text>
            <text alignment-baseline="middle" fill="black" text-anchor="middle" transform="scale(1,-1)" x="204.0" y="-356.0">
                cbx_1__1_
                <tspan dy="1.2em" x="204.0" y="-356.0">[cbx_1__1_]</tspan>
            </text>
            <text alignment-baseline="middle" fill="black" text-anchor="middle" transform="scale(1,-1)" x="204.0" y="-660.0">
                cbx_1__2_
                <tspan dy="1.2em" x="204.0" y="-660.0">[cbx_1__1_]</tspan>
            </text>
            <text alignment-baseline="middle" fill="black" text-anchor="middle" transform="scale(1,-1)" x="204.0" y="-964.0">
                cbx_1__3_
                <tspan dy="1.2em" x="204.0" y="-964.0">[cbx_1__1_]</tspan>
            </text>
            <text alignment-baseline="middle" fill="black" text-anchor="middle" transform="scale(1,-1)" x="508.0" y="-356.0">
                cbx_2__1_
                <tspan dy="1.2em" x="508.0" y="-356.0">[cbx_1__1_]</tspan>
            </text>
            <text alignment-baseline="middle" fill="black" text-anchor="middle" transform="scale(1,-1)" x="508.0" y="-660.0">
                cbx_2__2_
                <tspan dy="1.2em" x="508.0" y="-660.0">[cbx_1__1_]</tspan>
            </text>
            <text alignment-baseline="middle" fill="black" text-anchor="middle" transform="scale(1,-1)" x="508.0" y="-964.0">
                cbx_2__3_
                <tspan dy="1.2em" x="508.0" y="-964.0">[cbx_1__1_]</tspan>
            </text>
            <text alignment-baseline="middle" fill="black" text-anchor="middle" transform="scale(1,-1)" x="812.0" y="-356.0">
                cbx_3__1_
                <tspan dy="1.2em" x="812.0" y="-356.0">[cbx_1__1_]</tspan>
            </text>
            <text alignment-baseline="middle" fill="black" text-anchor="middle" transform="scale(1,-1)" x="812.0" y="-660.0">
                cbx_3__2_
                <tspan dy="1.2em" x="812.0" y="-660.0">[cbx_1__1_]</tspan>
            </text>
            <text alignment-baseline="middle" fill="black" text-anchor="middle" transform="scale(1,-1)" x="812.0" y="-964.0">
                cbx_3__3_
                <tspan dy="1.2em" x="812.0" y="-964.0">[cbx_1__1_]</tspan>
            </text>
            <text alignment-baseline="middle" fill="black" text-anchor="middle" transform="scale(1,-1)" x="1116.0" y="-356.0">
                cbx_4__1_
                <tspan dy="1.2em" x="1116.0" y="-356.0">[cbx_1__1_]</tspan>
            </text>
            <text alignment-baseline="middle" fill="black" text-anchor="middle" transform="scale(1,-1)" x="1116.0" y="-660.0">
                cbx_4__2_
                <tspan dy="1.2em" x="1116.0" y="-660.0">[cbx_1__1_]</tspan>
            </text>
            <text alignment-baseline="middle" fill="black" text-anchor="middle" transform="scale(1,-1)" x="1116.0" y="-964.0">
                cbx_4__3_
                <tspan dy="1.2em" x="1116.0" y="-964.0">[cbx_1__1_]</tspan>
            </text>
            <text alignment-baseline="middle" fill="black" text-anchor="middle" transform="scale(1,-1)" x="356.0" y="-204.0">
                cby_1__1_
                <tspan dy="1.2em" x="356.0" y="-204.0">[cby_1__1_]</tspan>
            </text>
            <text alignment-baseline="middle" fill="black" text-anchor="middle" transform="scale(1,-1)" x="356.0" y="-508.0">
                cby_1__2_
                <tspan dy="1.2em" x="356.0" y="-508.0">[cby_1__1_]</tspan>
            </text>
            <text alignment-baseline="middle" fill="black" text-anchor="middle" transform="scale(1,-1)" x="356.0" y="-812.0">
                cby_1__3_
                <tspan dy="1.2em" x="356.0" y="-812.0">[cby_1__1_]</tspan>
            </text>
            <text alignment-baseline="middle" fill="black" text-anchor="middle" transform="scale(1,-1)" x="356.0" y="-1116.0">
                cby_1__4_
                <tspan dy="1.2em" x="356.0" y="-1116.0">[cby_1__1_]</tspan>
            </text>
            <text alignment-baseline="middle" fill="black" text-anchor="middle" transform="scale(1,-1)" x="660.0" y="-204.0">
                cby_2__1_
                <tspan dy="1.2em" x="660.0" y="-204.0">[cby_1__1_]</tspan>
            </text>
            <text alignment-baseline="middle" fill="black" text-anchor="middle" transform="scale(1,-1)" x="660.0" y="-508.0">
                cby_2__2_
                <tspan dy="1.2em" x="660.0" y="-508.0">[cby_1__1_]</tspan>
            </text>
            <text alignment-baseline="middle" fill="black" text-anchor="middle" transform="scale(1,-1)" x="660.0" y="-812.0">
                cby_2__3_
                <tspan dy="1.2em" x="660.0" y="-812.0">[cby_1__1_]</tspan>
            </text>
            <text alignment-baseline="middle" fill="black" text-anchor="middle" transform="scale(1,-1)" x="660.0" y="-1116.0">
                cby_2__4_
                <tspan dy="1.2em" x="660.0" y="-1116.0">[cby_1__1_]</tspan>
            </text>
            <text alignment-baseline="middle" fill="black" text-anchor="middle" transform="scale(1,-1)" x="964.0" y="-204.0">
                cby_3__1_
                <tspan dy="1.2em" x="964.0" y="-204.0">[cby_1__1_]</tspan>
            </text>
            <text alignment-baseline="middle" fill="black" text-anchor="middle" transform="scale(1,-1)" x="964.0" y="-508.0">
                cby_3__2_
                <tspan dy="1.2em" x="964.0" y="-508.0">[cby_1__1_]</tspan>
            </text>
            <text alignment-baseline="middle" fill="black" text-anchor="middle" transform="scale(1,-1)" x="964.0" y="-812.0">
                cby_3__3_
                <tspan dy="1.2em" x="964.0" y="-812.0">[cby_1__1_]</tspan>
            </text>
            <text alignment-baseline="middle" fill="black" text-anchor="middle" transform="scale(1,-1)" x="964.0" y="-1116.0">
                cby_3__4_
                <tspan dy="1.2em" x="964.0" y="-1116.0">[cby_1__1_]</tspan>
            </text>
            <text alignment-baseline="middle" fill="black" text-anchor="middle" transform="scale(1,-1)" x="52.0" y="-204.0">
                cby_0__1_
                <tspan dy="1.2em" x="52.0" y="-204.0">[cby_0__1_]</tspan>
            </text>
            <text alignment-baseline="middle" fill="black" text-anchor="middle" transform="scale(1,-1)" x="52.0" y="-508.0">
                cby_0__2_
                <tspan dy="1.2em" x="52.0" y="-508.0">[cby_0__1_]</tspan>
            </text>
            <text alignment-baseline="middle" fill="black" text-anchor="middle" transform="scale(1,-1)" x="52.0" y="-812.0">
                cby_0__3_
                <tspan dy="1.2em" x="52.0" y="-812.0">[cby_0__1_]</tspan>
            </text>
            <text alignment-baseline="middle" fill="black" text-anchor="middle" transform="scale(1,-1)" x="52.0" y="-1116.0">
                cby_0__4_
                <tspan dy="1.2em" x="52.0" y="-1116.0">[cby_0__1_]</tspan>
            </text>
            <text alignment-baseline="middle" fill="black" text-anchor="middle" transform="scale(1,-1)" x="204.0" y="-1268.0">
                cbx_1__4_
                <tspan dy="1.2em" x="204.0" y="-1268.0">[cbx_1__4_]</tspan>
            </text>
            <text alignment-baseline="middle" fill="black" text-anchor="middle" transform="scale(1,-1)" x="508.0" y="-1268.0">
                cbx_2__4_
                <tspan dy="1.2em" x="508.0" y="-1268.0">[cbx_1__4_]</tspan>
            </text>
            <text alignment-baseline="middle" fill="black" text-anchor="middle" transform="scale(1,-1)" x="812.0" y="-1268.0">
                cbx_3__4_
                <tspan dy="1.2em" x="812.0" y="-1268.0">[cbx_1__4_]</tspan>
            </text>
            <text alignment-baseline="middle" fill="black" text-anchor="middle" transform="scale(1,-1)" x="1116.0" y="-1268.0">
                cbx_4__4_
                <tspan dy="1.2em" x="1116.0" y="-1268.0">[cbx_1__4_]</tspan>
            </text>
            <text alignment-baseline="middle" fill="black" text-anchor="middle" transform="scale(1,-1)" x="1268.0" y="-1116.0">
                cby_4__4_
                <tspan dy="1.2em" x="1268.0" y="-1116.0">[cby_4__1_]</tspan>
            </text>
            <text alignment-baseline="middle" fill="black" text-anchor="middle" transform="scale(1,-1)" x="1268.0" y="-812.0">
                cby_4__3_
                <tspan dy="1.2em" x="1268.0" y="-812.0">[cby_4__1_]</tspan>
            </text>
            <text alignment-baseline="middle" fill="black" text-anchor="middle" transform="scale(1,-1)" x="1268.0" y="-508.0">
                cby_4__2_
                <tspan dy="1.2em" x="1268.0" y="-508.0">[cby_4__1_]</tspan>
            </text>
            <text alignment-baseline="middle" fill="black" text-anchor="middle" transform="scale(1,-1)" x="1268.0" y="-204.0">
                cby_4__1_
                <tspan dy="1.2em" x="1268.0" y="-204.0">[cby_4__1_]</tspan>
            </text>
            <text alignment-baseline="middle" fill="black" text-anchor="middle" transform="scale(1,-1)" x="1116.0" y="-52.0">
                cbx_4__0_
                <tspan dy="1.2em" x="1116.0" y="-52.0">[cbx_1__0_]</tspan>
            </text>
            <text alignment-baseline="middle" fill="black" text-anchor="middle" transform="scale(1,-1)" x="812.0" y="-52.0">
                cbx_3__0_
                <tspan dy="1.2em" x="812.0" y="-52.0">[cbx_1__0_]</tspan>
            </text>
            <text alignment-baseline="middle" fill="black" text-anchor="middle" transform="scale(1,-1)" x="508.0" y="-52.0">
                cbx_2__0_
                <tspan dy="1.2em" x="508.0" y="-52.0">[cbx_1__0_]</tspan>
            </text>
            <text alignment-baseline="middle" fill="black" text-anchor="middle" transform="scale(1,-1)" x="204.0" y="-52.0">
                cbx_1__0_
                <tspan dy="1.2em" x="204.0" y="-52.0">[cbx_1__0_]</tspan>
            </text>
        </g>
        <g id="edges" transform="scale(1,-1)"/>
    </g>
    <g id="mainShapes" transform="scale(1,-1)">
        <line stroke="red" stroke-width="1" x1="0" x2="1320" y1="0" y2="0"/>
        <line stroke="red" stroke-width="1" x1="0" x2="1320" y1="104" y2="104"/>
        <line stroke="red" stroke-width="1" x1="0" x2="1320" y1="304" y2="304"/>
        <line stroke="red" stroke-width="1" x1="0" x2="1320" y1="408" y2="408"/>
        <line stroke="red" stroke-width="1" x1="0" x2="1320" y1="608" y2="608"/>
        <line stroke="red" stroke-width="1" x1="0" x2="1320" y1="712" y2="712"/>
        <line stroke="red" stroke-width="1" x1="0" x2="1320" y1="912" y2="912"/>
        <line stroke="red" stroke-width="1" x1="0" x2="1320" y1="1016" y2="1016"/>
        <line stroke="red" stroke-width="1" x1="0" x2="1320" y1="1216" y2="1216"/>
        <line stroke="red" stroke-width="1" x1="0" x2="1320" y1="1320" y2="1320"/>
        <line stroke="red" stroke-width="1" x1="0" x2="0" y1="0" y2="1320"/>
        <line stroke="red" stroke-width="1" x1="104" x2="104" y1="0" y2="1320"/>
        <line stroke="red" stroke-width="1" x1="304" x2="304" y1="0" y2="1320"/>
        <line stroke="red" stroke-width="1" x1="408" x2="408" y1="0" y2="1320"/>
        <line stroke="red" stroke-width="1" x1="608" x2="608" y1="0" y2="1320"/>
        <line stroke="red" stroke-width="1" x1="712" x2="712" y1="0" y2="1320"/>
        <line stroke="red" stroke-width="1" x1="912" x2="912" y1="0" y2="1320"/>
        <line stroke="red" stroke-width="1" x1="1016" x2="1016" y1="0" y2="1320"/>
        <line stroke="red" stroke-width="1" x1="1216" x2="1216" y1="0" y2="1320"/>
        <line stroke="red" stroke-width="1" x1="1320" x2="1320" y1="0" y2="1320"/>
    </g>
</svg>
