<?xml version="1.0" encoding="UTF-8" standalone="no"?>
<!DOCTYPE svg PUBLIC "-//W3C//DTD SVG 1.1//EN"
 "http://www.w3.org/Graphics/SVG/1.1/DTD/svg11.dtd">
<!-- Generated by graphviz version 2.43.0 (0)
 -->
<!-- Title: %3 Pages: 1 -->
<svg width="287pt" height="337pt"
 viewBox="0.00 0.00 287.00 337.00" xmlns="http://www.w3.org/2000/svg" xmlns:xlink="http://www.w3.org/1999/xlink">
<g id="graph0" class="graph" transform="scale(1 1) rotate(0) translate(4 333)">
<title>%3</title>
<polygon fill="white" stroke="transparent" points="-4,4 -4,-333 283,-333 283,4 -4,4"/>
<g id="clust1" class="cluster">
<title>cluster_part1</title>
<polygon fill="none" stroke="black" points="8,-95 8,-321 100,-321 100,-95 8,-95"/>
</g>
<g id="clust2" class="cluster">
<title>cluster_part2</title>
<polygon fill="none" stroke="black" points="108,-8 108,-234 271,-234 271,-8 108,-8"/>
</g>
<!-- 0 -->
<g id="node1" class="node">
<title>0</title>
<ellipse fill="none" stroke="red" cx="154" cy="-208" rx="38.19" ry="18"/>
<text text-anchor="middle" x="154" y="-204.3" font-family="Times,serif" font-size="14.00">0 [10]</text>
</g>
<!-- 1 -->
<g id="node2" class="node">
<title>1</title>
<ellipse fill="none" stroke="green" cx="54" cy="-295" rx="38.19" ry="18"/>
<text text-anchor="middle" x="54" y="-291.3" font-family="Times,serif" font-size="14.00">1 [10]</text>
</g>
<!-- 0&#45;&#45;1 -->
<g id="edge1" class="edge">
<title>0&#45;&#45;1</title>
<path fill="none" stroke="black" d="M136.28,-224.06C118.13,-239.49 90.08,-263.33 71.88,-278.8"/>
<text text-anchor="middle" x="114" y="-247.8" font-family="Times,serif" font-size="14.00">1</text>
</g>
<!-- 4 -->
<g id="node4" class="node">
<title>4</title>
<ellipse fill="none" stroke="red" cx="148" cy="-121" rx="32.49" ry="18"/>
<text text-anchor="middle" x="148" y="-117.3" font-family="Times,serif" font-size="14.00">4 [1]</text>
</g>
<!-- 0&#45;&#45;4 -->
<g id="edge2" class="edge">
<title>0&#45;&#45;4</title>
<path fill="none" stroke="black" d="M152.79,-189.8C151.74,-175.05 150.25,-153.92 149.21,-139.18"/>
<text text-anchor="middle" x="156" y="-160.8" font-family="Times,serif" font-size="14.00">1</text>
</g>
<!-- 5 -->
<g id="node6" class="node">
<title>5</title>
<ellipse fill="none" stroke="red" cx="231" cy="-121" rx="32.49" ry="18"/>
<text text-anchor="middle" x="231" y="-117.3" font-family="Times,serif" font-size="14.00">5 [1]</text>
</g>
<!-- 0&#45;&#45;5 -->
<g id="edge3" class="edge">
<title>0&#45;&#45;5</title>
<path fill="none" stroke="black" d="M168.48,-191.01C182.42,-175.62 203.36,-152.51 217.1,-137.34"/>
<text text-anchor="middle" x="202" y="-160.8" font-family="Times,serif" font-size="14.00">1</text>
</g>
<!-- 2 -->
<g id="node3" class="node">
<title>2</title>
<ellipse fill="none" stroke="green" cx="54" cy="-208" rx="32.49" ry="18"/>
<text text-anchor="middle" x="54" y="-204.3" font-family="Times,serif" font-size="14.00">2 [1]</text>
</g>
<!-- 1&#45;&#45;2 -->
<g id="edge4" class="edge">
<title>1&#45;&#45;2</title>
<path fill="none" stroke="black" d="M54,-276.8C54,-262.05 54,-240.92 54,-226.18"/>
<text text-anchor="middle" x="59" y="-247.8" font-family="Times,serif" font-size="14.00">1</text>
</g>
<!-- 1&#45;&#45;5 -->
<g id="edge5" class="edge">
<title>1&#45;&#45;5</title>
<path fill="none" stroke="black" d="M90.11,-288.59C123.58,-281.68 172.38,-266.46 201,-234 224.69,-207.12 229.94,-163.47 230.94,-139.37"/>
<text text-anchor="middle" x="227" y="-204.3" font-family="Times,serif" font-size="14.00">1</text>
</g>
<!-- 2&#45;&#45;4 -->
<g id="edge7" class="edge">
<title>2&#45;&#45;4</title>
<path fill="none" stroke="black" d="M67.7,-191.52C77,-181.32 89.78,-167.89 102,-157 110.39,-149.52 120.24,-141.89 128.67,-135.66"/>
<text text-anchor="middle" x="107" y="-160.8" font-family="Times,serif" font-size="14.00">1</text>
</g>
<!-- 3 -->
<g id="node5" class="node">
<title>3</title>
<ellipse fill="none" stroke="green" cx="54" cy="-121" rx="38.19" ry="18"/>
<text text-anchor="middle" x="54" y="-117.3" font-family="Times,serif" font-size="14.00">3 [50]</text>
</g>
<!-- 2&#45;&#45;3 -->
<g id="edge6" class="edge">
<title>2&#45;&#45;3</title>
<path fill="none" stroke="black" d="M54,-189.8C54,-175.05 54,-153.92 54,-139.18"/>
<text text-anchor="middle" x="59" y="-160.8" font-family="Times,serif" font-size="14.00">1</text>
</g>
<!-- 6 -->
<g id="node7" class="node">
<title>6</title>
<ellipse fill="none" stroke="red" cx="180" cy="-34" rx="38.19" ry="18"/>
<text text-anchor="middle" x="180" y="-30.3" font-family="Times,serif" font-size="14.00">6 [50]</text>
</g>
<!-- 4&#45;&#45;6 -->
<g id="edge9" class="edge">
<title>4&#45;&#45;6</title>
<path fill="none" stroke="black" d="M154.32,-103.21C159.93,-88.31 168.08,-66.65 173.69,-51.76"/>
<text text-anchor="middle" x="170" y="-73.8" font-family="Times,serif" font-size="14.00">1</text>
</g>
<!-- 3&#45;&#45;5 -->
<g id="edge8" class="edge">
<title>3&#45;&#45;5</title>
<path fill="none" stroke="black" d="M69.93,-137.38C81.55,-148.1 98.31,-161.15 116,-167 151.12,-178.6 190.96,-153.85 213.32,-136.36"/>
<text text-anchor="middle" x="121" y="-160.8" font-family="Times,serif" font-size="14.00">1</text>
</g>
<!-- 5&#45;&#45;6 -->
<g id="edge10" class="edge">
<title>5&#45;&#45;6</title>
<path fill="none" stroke="black" d="M221.17,-103.61C212.19,-88.66 198.99,-66.66 189.98,-51.63"/>
<text text-anchor="middle" x="213" y="-73.8" font-family="Times,serif" font-size="14.00">1</text>
</g>
</g>
</svg>
