<?xml version="1.0" encoding="utf-8" ?>
<svg xmlns="http://www.w3.org/2000/svg" xmlns:ev="http://www.w3.org/2001/xml-events" xmlns:xlink="http://www.w3.org/1999/xlink" baseProfile="full" height="100%" version="1.1" viewBox="-20,-160,180,180" width="100%">
    <defs id="id6">
        <style type="text/css"><![CDATA[
                text{font-family: Verdana;}
                line{stroke: black; stroke-linecap:round}
                span{text-anchor: "middle"; alignment_baseline: "middle"}
                .gridLabels{fill: grey;font-style: italic;font-weight: 900}
                #core_boundary{stroke:grey; stroke_width:0.5;}
                .marker{stroke:red; stroke_width:0.5;}
                ]]></style>
    </defs>
    <g id="markers" transform="scale(1,-1)">
        <line class="marker" x1="10.0" x2="10.0" y1="10.0" y2="130.0"/>
        <line class="marker" x1="30.0" x2="30.0" y1="10.0" y2="130.0"/>
        <line class="marker" x1="50.0" x2="50.0" y1="10.0" y2="130.0"/>
        <line class="marker" x1="70.0" x2="70.0" y1="10.0" y2="130.0"/>
        <line class="marker" x1="90.0" x2="90.0" y1="10.0" y2="130.0"/>
        <line class="marker" x1="110.0" x2="110.0" y1="10.0" y2="130.0"/>
        <line class="marker" x1="130.0" x2="130.0" y1="10.0" y2="130.0"/>
        <line class="marker" x1="10.0" x2="130.0" y1="10.0" y2="10.0"/>
        <line class="marker" x1="10.0" x2="130.0" y1="30.0" y2="30.0"/>
        <line class="marker" x1="10.0" x2="130.0" y1="50.0" y2="50.0"/>
        <line class="marker" x1="10.0" x2="130.0" y1="70.0" y2="70.0"/>
        <line class="marker" x1="10.0" x2="130.0" y1="90.0" y2="90.0"/>
        <line class="marker" x1="10.0" x2="130.0" y1="110.0" y2="110.0"/>
        <line class="marker" x1="10.0" x2="130.0" y1="130.0" y2="130.0"/>
    </g>
    <g id="main" transform="scale(1,-1)">
        <line class="connection" x1="60" x2="60" y1="0" y2="20"/>
        <line class="connection" x1="60" x2="100" y1="20" y2="20"/>
        <line class="connection" x1="60" x2="20" y1="20" y2="20"/>
        <line class="connection" x1="60" x2="60" y1="20" y2="60"/>
        <line class="connection" x1="60" x2="100" y1="60" y2="60"/>
        <line class="connection" x1="60" x2="20" y1="60" y2="60"/>
        <line class="connection" x1="60" x2="60" y1="60" y2="100"/>
        <line class="connection" x1="60" x2="100" y1="100" y2="100"/>
        <line class="connection" x1="60" x2="20" y1="100" y2="100"/>
        <g id="text">
            <text alignment-baseline="middle" class="moduleLabel" fill="black" font-size="12.0" text-anchor="middle" transform="scale(1,-1)" x="70.0" y="10.0">Scale and Merge</text>
        </g>
    </g>
</svg>
