<?xml version="1.0" encoding="utf-8" ?>
<svg xmlns="http://www.w3.org/2000/svg" xmlns:ev="http://www.w3.org/2001/xml-events" xmlns:xlink="http://www.w3.org/1999/xlink" baseProfile="full" height="100%" version="1.1" viewBox="-50,-2100,2100,2100" width="100%">
    <defs>
        <style type="text/css"><![CDATA[
            text{font-family: Verdana; font-size: 5px;}
            .module_boundary{stroke:grey; stroke-width:1;opacity: 0.8}
            .left_pin{
                fill:blue;
                text-anchor: start;
                transform: translate(5px, 00px) scale(1,-1);}
            .right_pin{
                fill:blue;
                text-anchor: end;
                transform: translate(-5px, 00px) scale(1,-1);}
            .bottom_pin{
                fill:blue;
                transform-box: fill-box;
                transform-origin: start;
                text-anchor: start;
                transform: translate(0px, 10px) rotate(90deg) scale(1,-1);}
            .top_pin{
                fill:blue;
                transform-box: fill-box;
                transform-origin: bottom left;
                text-anchor: start;
                transform: translate(0px, -3px) rotate(-90deg) scale(1,-1);}
            .in_pin{fill: red;}
            .out_pin{fill: blue;}
        ]]></style>
        <symbol id="fpga_top">
            <rect class="module_boundary fpga_top" fill="#f4f0e6" height="1999" width="1999" x="1" y="1"/>
        </symbol>
        <symbol id="grid_clb">
            <rect class="module_boundary grid_clb" fill="#f4f0e6" height="199" width="199" x="1" y="1"/>
        </symbol>
        <symbol id="sb_0__0_">
            <path class="module_boundary sb_0__0_" d="M 0 0 v 0 h 0 v 104 h 0  v 24 h 104 v -24 h 24 v -104  h -24 v 0 Z Z" fill="#f4f0e6"/>
        </symbol>
        <symbol id="sb_0__1_">
            <path class="module_boundary sb_0__1_" d="M 0 0 v 24 h 0 v 104 h 0  v 24 h 104 v -24 h 24 v -104  h -24 v -24 Z Z" fill="#f4f0e6"/>
        </symbol>
        <symbol id="sb_0__4_">
            <path class="module_boundary sb_0__4_" d="M 0 0 v 24 h 0 v 104 h 0  v 0 h 104 v 0 h 24 v -104  h -24 v -24 Z Z" fill="#f4f0e6"/>
        </symbol>
        <symbol id="sb_1__0_">
            <path class="module_boundary sb_1__0_" d="M 24 0 v 0 h -24 v 104 h 24  v 24 h 104 v -24 h 24 v -104  h -24 v 0 Z Z" fill="#f4f0e6"/>
        </symbol>
        <symbol id="sb_1__1_">
            <path class="module_boundary sb_1__1_" d="M 24 0 v 24 h -24 v 104 h 24  v 24 h 104 v -24 h 24 v -104  h -24 v -24 Z Z" fill="#f4f0e6"/>
        </symbol>
        <symbol id="sb_1__4_">
            <path class="module_boundary sb_1__4_" d="M 24 0 v 24 h -24 v 104 h 24  v 0 h 104 v 0 h 24 v -104  h -24 v -24 Z Z" fill="#f4f0e6"/>
        </symbol>
        <symbol id="sb_4__0_">
            <path class="module_boundary sb_4__0_" d="M 24 0 v 0 h -24 v 104 h 24  v 24 h 104 v -24 h 0 v -104  h 0 v 0 Z Z" fill="#f4f0e6"/>
        </symbol>
        <symbol id="sb_4__1_">
            <path class="module_boundary sb_4__1_" d="M 24 0 v 24 h -24 v 104 h 24  v 24 h 104 v -24 h 0 v -104  h 0 v -24 Z Z" fill="#f4f0e6"/>
        </symbol>
        <symbol id="sb_4__4_">
            <path class="module_boundary sb_4__4_" d="M 24 0 v 24 h -24 v 104 h 24  v 0 h 104 v 0 h 0 v -104  h 0 v -24 Z Z" fill="#f4f0e6"/>
        </symbol>
        <symbol id="cbx_1__1_">
            <rect class="module_boundary cbx_1__1_" fill="#f4f0e6" height="103" width="151" x="1" y="1"/>
        </symbol>
        <symbol id="cby_1__1_">
            <rect class="module_boundary cby_1__1_" fill="#f4f0e6" height="151" width="103" x="1" y="1"/>
        </symbol>
        <symbol id="cby_0__1_">
            <rect class="module_boundary cby_0__1_" fill="#f4f0e6" height="151" width="103" x="1" y="1"/>
        </symbol>
        <symbol id="cbx_1__4_">
            <rect class="module_boundary cbx_1__4_" fill="#f4f0e6" height="103" width="151" x="1" y="1"/>
        </symbol>
        <symbol id="cby_4__1_">
            <rect class="module_boundary cby_4__1_" fill="#f4f0e6" height="151" width="103" x="1" y="1"/>
        </symbol>
        <symbol id="cbx_1__0_">
            <rect class="module_boundary cbx_1__0_" fill="#f4f0e6" height="103" width="151" x="1" y="1"/>
        </symbol>
    </defs>
    <g id="bg">
        <rect fill="#FFF" height="2050" id="background" stroke-width="0" width="2050" x="-25" y="-25"/>
    </g>
    <g id="mainframe">
        <g id="mainShapes" transform="scale(1,-1)">
            <use class="topModule" x="0" xlink:href="#fpga_top" y="0"/>
            <use class="grid_clb_1__1_" x="200" xlink:href="#grid_clb" y="200"/>
            <use class="grid_clb_1__2_" x="200" xlink:href="#grid_clb" y="504"/>
            <use class="grid_clb_1__3_" x="200" xlink:href="#grid_clb" y="808"/>
            <use class="grid_clb_1__4_" x="200" xlink:href="#grid_clb" y="1112"/>
            <use class="grid_clb_2__1_" x="504" xlink:href="#grid_clb" y="200"/>
            <use class="grid_clb_2__2_" x="504" xlink:href="#grid_clb" y="504"/>
            <use class="grid_clb_2__3_" x="504" xlink:href="#grid_clb" y="808"/>
            <use class="grid_clb_2__4_" x="504" xlink:href="#grid_clb" y="1112"/>
            <use class="grid_clb_3__1_" x="808" xlink:href="#grid_clb" y="200"/>
            <use class="grid_clb_3__2_" x="808" xlink:href="#grid_clb" y="504"/>
            <use class="grid_clb_3__3_" x="808" xlink:href="#grid_clb" y="808"/>
            <use class="grid_clb_3__4_" x="808" xlink:href="#grid_clb" y="1112"/>
            <use class="grid_clb_4__1_" x="1112" xlink:href="#grid_clb" y="200"/>
            <use class="grid_clb_4__2_" x="1112" xlink:href="#grid_clb" y="504"/>
            <use class="grid_clb_4__3_" x="1112" xlink:href="#grid_clb" y="808"/>
            <use class="grid_clb_4__4_" x="1112" xlink:href="#grid_clb" y="1112"/>
            <use class="sb_0__0_" x="96" xlink:href="#sb_0__0_" y="96"/>
            <use class="sb_0__1_" x="96" xlink:href="#sb_0__1_" y="376"/>
            <use class="sb_0__2_" x="96" xlink:href="#sb_0__1_" y="680"/>
            <use class="sb_0__3_" x="96" xlink:href="#sb_0__1_" y="984"/>
            <use class="sb_0__4_" x="96" xlink:href="#sb_0__4_" y="1288"/>
            <use class="sb_1__0_" x="376" xlink:href="#sb_1__0_" y="96"/>
            <use class="sb_2__0_" x="680" xlink:href="#sb_1__0_" y="96"/>
            <use class="sb_3__0_" x="984" xlink:href="#sb_1__0_" y="96"/>
            <use class="sb_1__1_" x="376" xlink:href="#sb_1__1_" y="376"/>
            <use class="sb_1__2_" x="376" xlink:href="#sb_1__1_" y="680"/>
            <use class="sb_1__3_" x="376" xlink:href="#sb_1__1_" y="984"/>
            <use class="sb_2__1_" x="680" xlink:href="#sb_1__1_" y="376"/>
            <use class="sb_2__2_" x="680" xlink:href="#sb_1__1_" y="680"/>
            <use class="sb_2__3_" x="680" xlink:href="#sb_1__1_" y="984"/>
            <use class="sb_3__1_" x="984" xlink:href="#sb_1__1_" y="376"/>
            <use class="sb_3__2_" x="984" xlink:href="#sb_1__1_" y="680"/>
            <use class="sb_3__3_" x="984" xlink:href="#sb_1__1_" y="984"/>
            <use class="sb_1__4_" x="376" xlink:href="#sb_1__4_" y="1288"/>
            <use class="sb_2__4_" x="680" xlink:href="#sb_1__4_" y="1288"/>
            <use class="sb_3__4_" x="984" xlink:href="#sb_1__4_" y="1288"/>
            <use class="sb_4__0_" x="1288" xlink:href="#sb_4__0_" y="96"/>
            <use class="sb_4__1_" x="1288" xlink:href="#sb_4__1_" y="376"/>
            <use class="sb_4__2_" x="1288" xlink:href="#sb_4__1_" y="680"/>
            <use class="sb_4__3_" x="1288" xlink:href="#sb_4__1_" y="984"/>
            <use class="sb_4__4_" x="1288" xlink:href="#sb_4__4_" y="1288"/>
            <use class="cbx_1__1_" x="224" xlink:href="#cbx_1__1_" y="400"/>
            <use class="cbx_1__2_" x="224" xlink:href="#cbx_1__1_" y="704"/>
            <use class="cbx_1__3_" x="224" xlink:href="#cbx_1__1_" y="1008"/>
            <use class="cbx_2__1_" x="528" xlink:href="#cbx_1__1_" y="400"/>
            <use class="cbx_2__2_" x="528" xlink:href="#cbx_1__1_" y="704"/>
            <use class="cbx_2__3_" x="528" xlink:href="#cbx_1__1_" y="1008"/>
            <use class="cbx_3__1_" x="832" xlink:href="#cbx_1__1_" y="400"/>
            <use class="cbx_3__2_" x="832" xlink:href="#cbx_1__1_" y="704"/>
            <use class="cbx_3__3_" x="832" xlink:href="#cbx_1__1_" y="1008"/>
            <use class="cbx_4__1_" x="1136" xlink:href="#cbx_1__1_" y="400"/>
            <use class="cbx_4__2_" x="1136" xlink:href="#cbx_1__1_" y="704"/>
            <use class="cbx_4__3_" x="1136" xlink:href="#cbx_1__1_" y="1008"/>
            <use class="cby_1__1_" x="400" xlink:href="#cby_1__1_" y="224"/>
            <use class="cby_1__2_" x="400" xlink:href="#cby_1__1_" y="528"/>
            <use class="cby_1__3_" x="400" xlink:href="#cby_1__1_" y="832"/>
            <use class="cby_1__4_" x="400" xlink:href="#cby_1__1_" y="1136"/>
            <use class="cby_2__1_" x="704" xlink:href="#cby_1__1_" y="224"/>
            <use class="cby_2__2_" x="704" xlink:href="#cby_1__1_" y="528"/>
            <use class="cby_2__3_" x="704" xlink:href="#cby_1__1_" y="832"/>
            <use class="cby_2__4_" x="704" xlink:href="#cby_1__1_" y="1136"/>
            <use class="cby_3__1_" x="1008" xlink:href="#cby_1__1_" y="224"/>
            <use class="cby_3__2_" x="1008" xlink:href="#cby_1__1_" y="528"/>
            <use class="cby_3__3_" x="1008" xlink:href="#cby_1__1_" y="832"/>
            <use class="cby_3__4_" x="1008" xlink:href="#cby_1__1_" y="1136"/>
            <use class="cby_0__1_" x="96" xlink:href="#cby_0__1_" y="224"/>
            <use class="cby_0__2_" x="96" xlink:href="#cby_0__1_" y="528"/>
            <use class="cby_0__3_" x="96" xlink:href="#cby_0__1_" y="832"/>
            <use class="cby_0__4_" x="96" xlink:href="#cby_0__1_" y="1136"/>
            <use class="cbx_1__4_" x="224" xlink:href="#cbx_1__4_" y="1312"/>
            <use class="cbx_2__4_" x="528" xlink:href="#cbx_1__4_" y="1312"/>
            <use class="cbx_3__4_" x="832" xlink:href="#cbx_1__4_" y="1312"/>
            <use class="cbx_4__4_" x="1136" xlink:href="#cbx_1__4_" y="1312"/>
            <use class="cby_4__4_" x="1312" xlink:href="#cby_4__1_" y="1136"/>
            <use class="cby_4__3_" x="1312" xlink:href="#cby_4__1_" y="832"/>
            <use class="cby_4__2_" x="1312" xlink:href="#cby_4__1_" y="528"/>
            <use class="cby_4__1_" x="1312" xlink:href="#cby_4__1_" y="224"/>
            <use class="cbx_4__0_" x="1136" xlink:href="#cbx_1__0_" y="96"/>
            <use class="cbx_3__0_" x="832" xlink:href="#cbx_1__0_" y="96"/>
            <use class="cbx_2__0_" x="528" xlink:href="#cbx_1__0_" y="96"/>
            <use class="cbx_1__0_" x="224" xlink:href="#cbx_1__0_" y="96"/>
        </g>
        <g id="mainText" transform="scale(1,-1)">
            <text alignment-baseline="middle" fill="black" text-anchor="middle" transform="scale(1,-1)" x="1000.0" y="-200.0">fpga_top</text>
            <text alignment-baseline="middle" fill="black" text-anchor="middle" transform="scale(1,-1)" x="300.0" y="-300.0">
                grid_clb_1__1_
                <tspan dy="1.2em" x="300.0" y="-300.0">[grid_clb]</tspan>
            </text>
            <text alignment-baseline="middle" fill="black" text-anchor="middle" transform="scale(1,-1)" x="300.0" y="-604.0">
                grid_clb_1__2_
                <tspan dy="1.2em" x="300.0" y="-604.0">[grid_clb]</tspan>
            </text>
            <text alignment-baseline="middle" fill="black" text-anchor="middle" transform="scale(1,-1)" x="300.0" y="-908.0">
                grid_clb_1__3_
                <tspan dy="1.2em" x="300.0" y="-908.0">[grid_clb]</tspan>
            </text>
            <text alignment-baseline="middle" fill="black" text-anchor="middle" transform="scale(1,-1)" x="300.0" y="-1212.0">
                grid_clb_1__4_
                <tspan dy="1.2em" x="300.0" y="-1212.0">[grid_clb]</tspan>
            </text>
            <text alignment-baseline="middle" fill="black" text-anchor="middle" transform="scale(1,-1)" x="604.0" y="-300.0">
                grid_clb_2__1_
                <tspan dy="1.2em" x="604.0" y="-300.0">[grid_clb]</tspan>
            </text>
            <text alignment-baseline="middle" fill="black" text-anchor="middle" transform="scale(1,-1)" x="604.0" y="-604.0">
                grid_clb_2__2_
                <tspan dy="1.2em" x="604.0" y="-604.0">[grid_clb]</tspan>
            </text>
            <text alignment-baseline="middle" fill="black" text-anchor="middle" transform="scale(1,-1)" x="604.0" y="-908.0">
                grid_clb_2__3_
                <tspan dy="1.2em" x="604.0" y="-908.0">[grid_clb]</tspan>
            </text>
            <text alignment-baseline="middle" fill="black" text-anchor="middle" transform="scale(1,-1)" x="604.0" y="-1212.0">
                grid_clb_2__4_
                <tspan dy="1.2em" x="604.0" y="-1212.0">[grid_clb]</tspan>
            </text>
            <text alignment-baseline="middle" fill="black" text-anchor="middle" transform="scale(1,-1)" x="908.0" y="-300.0">
                grid_clb_3__1_
                <tspan dy="1.2em" x="908.0" y="-300.0">[grid_clb]</tspan>
            </text>
            <text alignment-baseline="middle" fill="black" text-anchor="middle" transform="scale(1,-1)" x="908.0" y="-604.0">
                grid_clb_3__2_
                <tspan dy="1.2em" x="908.0" y="-604.0">[grid_clb]</tspan>
            </text>
            <text alignment-baseline="middle" fill="black" text-anchor="middle" transform="scale(1,-1)" x="908.0" y="-908.0">
                grid_clb_3__3_
                <tspan dy="1.2em" x="908.0" y="-908.0">[grid_clb]</tspan>
            </text>
            <text alignment-baseline="middle" fill="black" text-anchor="middle" transform="scale(1,-1)" x="908.0" y="-1212.0">
                grid_clb_3__4_
                <tspan dy="1.2em" x="908.0" y="-1212.0">[grid_clb]</tspan>
            </text>
            <text alignment-baseline="middle" fill="black" text-anchor="middle" transform="scale(1,-1)" x="1212.0" y="-300.0">
                grid_clb_4__1_
                <tspan dy="1.2em" x="1212.0" y="-300.0">[grid_clb]</tspan>
            </text>
            <text alignment-baseline="middle" fill="black" text-anchor="middle" transform="scale(1,-1)" x="1212.0" y="-604.0">
                grid_clb_4__2_
                <tspan dy="1.2em" x="1212.0" y="-604.0">[grid_clb]</tspan>
            </text>
            <text alignment-baseline="middle" fill="black" text-anchor="middle" transform="scale(1,-1)" x="1212.0" y="-908.0">
                grid_clb_4__3_
                <tspan dy="1.2em" x="1212.0" y="-908.0">[grid_clb]</tspan>
            </text>
            <text alignment-baseline="middle" fill="black" text-anchor="middle" transform="scale(1,-1)" x="1212.0" y="-1212.0">
                grid_clb_4__4_
                <tspan dy="1.2em" x="1212.0" y="-1212.0">[grid_clb]</tspan>
            </text>
            <text alignment-baseline="middle" fill="black" text-anchor="middle" transform="scale(1,-1)" x="160.0" y="-160.0">
                sb_0__0_
                <tspan dy="1.2em" x="160.0" y="-160.0">[sb_0__0_]</tspan>
            </text>
            <text alignment-baseline="middle" fill="black" text-anchor="middle" transform="scale(1,-1)" x="160.0" y="-452.0">
                sb_0__1_
                <tspan dy="1.2em" x="160.0" y="-452.0">[sb_0__1_]</tspan>
            </text>
            <text alignment-baseline="middle" fill="black" text-anchor="middle" transform="scale(1,-1)" x="160.0" y="-756.0">
                sb_0__2_
                <tspan dy="1.2em" x="160.0" y="-756.0">[sb_0__1_]</tspan>
            </text>
            <text alignment-baseline="middle" fill="black" text-anchor="middle" transform="scale(1,-1)" x="160.0" y="-1060.0">
                sb_0__3_
                <tspan dy="1.2em" x="160.0" y="-1060.0">[sb_0__1_]</tspan>
            </text>
            <text alignment-baseline="middle" fill="black" text-anchor="middle" transform="scale(1,-1)" x="160.0" y="-1352.0">
                sb_0__4_
                <tspan dy="1.2em" x="160.0" y="-1352.0">[sb_0__4_]</tspan>
            </text>
            <text alignment-baseline="middle" fill="black" text-anchor="middle" transform="scale(1,-1)" x="452.0" y="-160.0">
                sb_1__0_
                <tspan dy="1.2em" x="452.0" y="-160.0">[sb_1__0_]</tspan>
            </text>
            <text alignment-baseline="middle" fill="black" text-anchor="middle" transform="scale(1,-1)" x="756.0" y="-160.0">
                sb_2__0_
                <tspan dy="1.2em" x="756.0" y="-160.0">[sb_1__0_]</tspan>
            </text>
            <text alignment-baseline="middle" fill="black" text-anchor="middle" transform="scale(1,-1)" x="1060.0" y="-160.0">
                sb_3__0_
                <tspan dy="1.2em" x="1060.0" y="-160.0">[sb_1__0_]</tspan>
            </text>
            <text alignment-baseline="middle" fill="black" text-anchor="middle" transform="scale(1,-1)" x="452.0" y="-452.0">
                sb_1__1_
                <tspan dy="1.2em" x="452.0" y="-452.0">[sb_1__1_]</tspan>
            </text>
            <text alignment-baseline="middle" fill="black" text-anchor="middle" transform="scale(1,-1)" x="452.0" y="-756.0">
                sb_1__2_
                <tspan dy="1.2em" x="452.0" y="-756.0">[sb_1__1_]</tspan>
            </text>
            <text alignment-baseline="middle" fill="black" text-anchor="middle" transform="scale(1,-1)" x="452.0" y="-1060.0">
                sb_1__3_
                <tspan dy="1.2em" x="452.0" y="-1060.0">[sb_1__1_]</tspan>
            </text>
            <text alignment-baseline="middle" fill="black" text-anchor="middle" transform="scale(1,-1)" x="756.0" y="-452.0">
                sb_2__1_
                <tspan dy="1.2em" x="756.0" y="-452.0">[sb_1__1_]</tspan>
            </text>
            <text alignment-baseline="middle" fill="black" text-anchor="middle" transform="scale(1,-1)" x="756.0" y="-756.0">
                sb_2__2_
                <tspan dy="1.2em" x="756.0" y="-756.0">[sb_1__1_]</tspan>
            </text>
            <text alignment-baseline="middle" fill="black" text-anchor="middle" transform="scale(1,-1)" x="756.0" y="-1060.0">
                sb_2__3_
                <tspan dy="1.2em" x="756.0" y="-1060.0">[sb_1__1_]</tspan>
            </text>
            <text alignment-baseline="middle" fill="black" text-anchor="middle" transform="scale(1,-1)" x="1060.0" y="-452.0">
                sb_3__1_
                <tspan dy="1.2em" x="1060.0" y="-452.0">[sb_1__1_]</tspan>
            </text>
            <text alignment-baseline="middle" fill="black" text-anchor="middle" transform="scale(1,-1)" x="1060.0" y="-756.0">
                sb_3__2_
                <tspan dy="1.2em" x="1060.0" y="-756.0">[sb_1__1_]</tspan>
            </text>
            <text alignment-baseline="middle" fill="black" text-anchor="middle" transform="scale(1,-1)" x="1060.0" y="-1060.0">
                sb_3__3_
                <tspan dy="1.2em" x="1060.0" y="-1060.0">[sb_1__1_]</tspan>
            </text>
            <text alignment-baseline="middle" fill="black" text-anchor="middle" transform="scale(1,-1)" x="452.0" y="-1352.0">
                sb_1__4_
                <tspan dy="1.2em" x="452.0" y="-1352.0">[sb_1__4_]</tspan>
            </text>
            <text alignment-baseline="middle" fill="black" text-anchor="middle" transform="scale(1,-1)" x="756.0" y="-1352.0">
                sb_2__4_
                <tspan dy="1.2em" x="756.0" y="-1352.0">[sb_1__4_]</tspan>
            </text>
            <text alignment-baseline="middle" fill="black" text-anchor="middle" transform="scale(1,-1)" x="1060.0" y="-1352.0">
                sb_3__4_
                <tspan dy="1.2em" x="1060.0" y="-1352.0">[sb_1__4_]</tspan>
            </text>
            <text alignment-baseline="middle" fill="black" text-anchor="middle" transform="scale(1,-1)" x="1352.0" y="-160.0">
                sb_4__0_
                <tspan dy="1.2em" x="1352.0" y="-160.0">[sb_4__0_]</tspan>
            </text>
            <text alignment-baseline="middle" fill="black" text-anchor="middle" transform="scale(1,-1)" x="1352.0" y="-452.0">
                sb_4__1_
                <tspan dy="1.2em" x="1352.0" y="-452.0">[sb_4__1_]</tspan>
            </text>
            <text alignment-baseline="middle" fill="black" text-anchor="middle" transform="scale(1,-1)" x="1352.0" y="-756.0">
                sb_4__2_
                <tspan dy="1.2em" x="1352.0" y="-756.0">[sb_4__1_]</tspan>
            </text>
            <text alignment-baseline="middle" fill="black" text-anchor="middle" transform="scale(1,-1)" x="1352.0" y="-1060.0">
                sb_4__3_
                <tspan dy="1.2em" x="1352.0" y="-1060.0">[sb_4__1_]</tspan>
            </text>
            <text alignment-baseline="middle" fill="black" text-anchor="middle" transform="scale(1,-1)" x="1352.0" y="-1352.0">
                sb_4__4_
                <tspan dy="1.2em" x="1352.0" y="-1352.0">[sb_4__4_]</tspan>
            </text>
            <text alignment-baseline="middle" fill="black" text-anchor="middle" transform="scale(1,-1)" x="300.0" y="-452.0">
                cbx_1__1_
                <tspan dy="1.2em" x="300.0" y="-452.0">[cbx_1__1_]</tspan>
            </text>
            <text alignment-baseline="middle" fill="black" text-anchor="middle" transform="scale(1,-1)" x="300.0" y="-756.0">
                cbx_1__2_
                <tspan dy="1.2em" x="300.0" y="-756.0">[cbx_1__1_]</tspan>
            </text>
            <text alignment-baseline="middle" fill="black" text-anchor="middle" transform="scale(1,-1)" x="300.0" y="-1060.0">
                cbx_1__3_
                <tspan dy="1.2em" x="300.0" y="-1060.0">[cbx_1__1_]</tspan>
            </text>
            <text alignment-baseline="middle" fill="black" text-anchor="middle" transform="scale(1,-1)" x="604.0" y="-452.0">
                cbx_2__1_
                <tspan dy="1.2em" x="604.0" y="-452.0">[cbx_1__1_]</tspan>
            </text>
            <text alignment-baseline="middle" fill="black" text-anchor="middle" transform="scale(1,-1)" x="604.0" y="-756.0">
                cbx_2__2_
                <tspan dy="1.2em" x="604.0" y="-756.0">[cbx_1__1_]</tspan>
            </text>
            <text alignment-baseline="middle" fill="black" text-anchor="middle" transform="scale(1,-1)" x="604.0" y="-1060.0">
                cbx_2__3_
                <tspan dy="1.2em" x="604.0" y="-1060.0">[cbx_1__1_]</tspan>
            </text>
            <text alignment-baseline="middle" fill="black" text-anchor="middle" transform="scale(1,-1)" x="908.0" y="-452.0">
                cbx_3__1_
                <tspan dy="1.2em" x="908.0" y="-452.0">[cbx_1__1_]</tspan>
            </text>
            <text alignment-baseline="middle" fill="black" text-anchor="middle" transform="scale(1,-1)" x="908.0" y="-756.0">
                cbx_3__2_
                <tspan dy="1.2em" x="908.0" y="-756.0">[cbx_1__1_]</tspan>
            </text>
            <text alignment-baseline="middle" fill="black" text-anchor="middle" transform="scale(1,-1)" x="908.0" y="-1060.0">
                cbx_3__3_
                <tspan dy="1.2em" x="908.0" y="-1060.0">[cbx_1__1_]</tspan>
            </text>
            <text alignment-baseline="middle" fill="black" text-anchor="middle" transform="scale(1,-1)" x="1212.0" y="-452.0">
                cbx_4__1_
                <tspan dy="1.2em" x="1212.0" y="-452.0">[cbx_1__1_]</tspan>
            </text>
            <text alignment-baseline="middle" fill="black" text-anchor="middle" transform="scale(1,-1)" x="1212.0" y="-756.0">
                cbx_4__2_
                <tspan dy="1.2em" x="1212.0" y="-756.0">[cbx_1__1_]</tspan>
            </text>
            <text alignment-baseline="middle" fill="black" text-anchor="middle" transform="scale(1,-1)" x="1212.0" y="-1060.0">
                cbx_4__3_
                <tspan dy="1.2em" x="1212.0" y="-1060.0">[cbx_1__1_]</tspan>
            </text>
            <text alignment-baseline="middle" fill="black" text-anchor="middle" transform="scale(1,-1)" x="452.0" y="-300.0">
                cby_1__1_
                <tspan dy="1.2em" x="452.0" y="-300.0">[cby_1__1_]</tspan>
            </text>
            <text alignment-baseline="middle" fill="black" text-anchor="middle" transform="scale(1,-1)" x="452.0" y="-604.0">
                cby_1__2_
                <tspan dy="1.2em" x="452.0" y="-604.0">[cby_1__1_]</tspan>
            </text>
            <text alignment-baseline="middle" fill="black" text-anchor="middle" transform="scale(1,-1)" x="452.0" y="-908.0">
                cby_1__3_
                <tspan dy="1.2em" x="452.0" y="-908.0">[cby_1__1_]</tspan>
            </text>
            <text alignment-baseline="middle" fill="black" text-anchor="middle" transform="scale(1,-1)" x="452.0" y="-1212.0">
                cby_1__4_
                <tspan dy="1.2em" x="452.0" y="-1212.0">[cby_1__1_]</tspan>
            </text>
            <text alignment-baseline="middle" fill="black" text-anchor="middle" transform="scale(1,-1)" x="756.0" y="-300.0">
                cby_2__1_
                <tspan dy="1.2em" x="756.0" y="-300.0">[cby_1__1_]</tspan>
            </text>
            <text alignment-baseline="middle" fill="black" text-anchor="middle" transform="scale(1,-1)" x="756.0" y="-604.0">
                cby_2__2_
                <tspan dy="1.2em" x="756.0" y="-604.0">[cby_1__1_]</tspan>
            </text>
            <text alignment-baseline="middle" fill="black" text-anchor="middle" transform="scale(1,-1)" x="756.0" y="-908.0">
                cby_2__3_
                <tspan dy="1.2em" x="756.0" y="-908.0">[cby_1__1_]</tspan>
            </text>
            <text alignment-baseline="middle" fill="black" text-anchor="middle" transform="scale(1,-1)" x="756.0" y="-1212.0">
                cby_2__4_
                <tspan dy="1.2em" x="756.0" y="-1212.0">[cby_1__1_]</tspan>
            </text>
            <text alignment-baseline="middle" fill="black" text-anchor="middle" transform="scale(1,-1)" x="1060.0" y="-300.0">
                cby_3__1_
                <tspan dy="1.2em" x="1060.0" y="-300.0">[cby_1__1_]</tspan>
            </text>
            <text alignment-baseline="middle" fill="black" text-anchor="middle" transform="scale(1,-1)" x="1060.0" y="-604.0">
                cby_3__2_
                <tspan dy="1.2em" x="1060.0" y="-604.0">[cby_1__1_]</tspan>
            </text>
            <text alignment-baseline="middle" fill="black" text-anchor="middle" transform="scale(1,-1)" x="1060.0" y="-908.0">
                cby_3__3_
                <tspan dy="1.2em" x="1060.0" y="-908.0">[cby_1__1_]</tspan>
            </text>
            <text alignment-baseline="middle" fill="black" text-anchor="middle" transform="scale(1,-1)" x="1060.0" y="-1212.0">
                cby_3__4_
                <tspan dy="1.2em" x="1060.0" y="-1212.0">[cby_1__1_]</tspan>
            </text>
            <text alignment-baseline="middle" fill="black" text-anchor="middle" transform="scale(1,-1)" x="148.0" y="-300.0">
                cby_0__1_
                <tspan dy="1.2em" x="148.0" y="-300.0">[cby_0__1_]</tspan>
            </text>
            <text alignment-baseline="middle" fill="black" text-anchor="middle" transform="scale(1,-1)" x="148.0" y="-604.0">
                cby_0__2_
                <tspan dy="1.2em" x="148.0" y="-604.0">[cby_0__1_]</tspan>
            </text>
            <text alignment-baseline="middle" fill="black" text-anchor="middle" transform="scale(1,-1)" x="148.0" y="-908.0">
                cby_0__3_
                <tspan dy="1.2em" x="148.0" y="-908.0">[cby_0__1_]</tspan>
            </text>
            <text alignment-baseline="middle" fill="black" text-anchor="middle" transform="scale(1,-1)" x="148.0" y="-1212.0">
                cby_0__4_
                <tspan dy="1.2em" x="148.0" y="-1212.0">[cby_0__1_]</tspan>
            </text>
            <text alignment-baseline="middle" fill="black" text-anchor="middle" transform="scale(1,-1)" x="300.0" y="-1364.0">
                cbx_1__4_
                <tspan dy="1.2em" x="300.0" y="-1364.0">[cbx_1__4_]</tspan>
            </text>
            <text alignment-baseline="middle" fill="black" text-anchor="middle" transform="scale(1,-1)" x="604.0" y="-1364.0">
                cbx_2__4_
                <tspan dy="1.2em" x="604.0" y="-1364.0">[cbx_1__4_]</tspan>
            </text>
            <text alignment-baseline="middle" fill="black" text-anchor="middle" transform="scale(1,-1)" x="908.0" y="-1364.0">
                cbx_3__4_
                <tspan dy="1.2em" x="908.0" y="-1364.0">[cbx_1__4_]</tspan>
            </text>
            <text alignment-baseline="middle" fill="black" text-anchor="middle" transform="scale(1,-1)" x="1212.0" y="-1364.0">
                cbx_4__4_
                <tspan dy="1.2em" x="1212.0" y="-1364.0">[cbx_1__4_]</tspan>
            </text>
            <text alignment-baseline="middle" fill="black" text-anchor="middle" transform="scale(1,-1)" x="1364.0" y="-1212.0">
                cby_4__4_
                <tspan dy="1.2em" x="1364.0" y="-1212.0">[cby_4__1_]</tspan>
            </text>
            <text alignment-baseline="middle" fill="black" text-anchor="middle" transform="scale(1,-1)" x="1364.0" y="-908.0">
                cby_4__3_
                <tspan dy="1.2em" x="1364.0" y="-908.0">[cby_4__1_]</tspan>
            </text>
            <text alignment-baseline="middle" fill="black" text-anchor="middle" transform="scale(1,-1)" x="1364.0" y="-604.0">
                cby_4__2_
                <tspan dy="1.2em" x="1364.0" y="-604.0">[cby_4__1_]</tspan>
            </text>
            <text alignment-baseline="middle" fill="black" text-anchor="middle" transform="scale(1,-1)" x="1364.0" y="-300.0">
                cby_4__1_
                <tspan dy="1.2em" x="1364.0" y="-300.0">[cby_4__1_]</tspan>
            </text>
            <text alignment-baseline="middle" fill="black" text-anchor="middle" transform="scale(1,-1)" x="1212.0" y="-148.0">
                cbx_4__0_
                <tspan dy="1.2em" x="1212.0" y="-148.0">[cbx_1__0_]</tspan>
            </text>
            <text alignment-baseline="middle" fill="black" text-anchor="middle" transform="scale(1,-1)" x="908.0" y="-148.0">
                cbx_3__0_
                <tspan dy="1.2em" x="908.0" y="-148.0">[cbx_1__0_]</tspan>
            </text>
            <text alignment-baseline="middle" fill="black" text-anchor="middle" transform="scale(1,-1)" x="604.0" y="-148.0">
                cbx_2__0_
                <tspan dy="1.2em" x="604.0" y="-148.0">[cbx_1__0_]</tspan>
            </text>
            <text alignment-baseline="middle" fill="black" text-anchor="middle" transform="scale(1,-1)" x="300.0" y="-148.0">
                cbx_1__0_
                <tspan dy="1.2em" x="300.0" y="-148.0">[cbx_1__0_]</tspan>
            </text>
        </g>
        <g id="edges" transform="scale(1,-1)"/>
    </g>
</svg>
