<?xml version="1.0" encoding="utf-8" ?>
<svg xmlns="http://www.w3.org/2000/svg" xmlns:ev="http://www.w3.org/2001/xml-events" xmlns:xlink="http://www.w3.org/1999/xlink" baseProfile="full" height="100%" version="1.1" viewBox="-50,-1320,1320,1320" width="100%">
    <defs>
        <symbol id="fpga_top">
            <rect class="module_boundary fpga_top" fill="url(#id1)" height="1219" width="1219" x="1" y="1"/>
        </symbol>
        <symbol id="grid_clb">
            <rect class="module_boundary grid_clb" fill="#ddd0b1" height="199" width="199" x="1" y="1"/>
        </symbol>
        <symbol id="sb_0__0_">
            <path class="module_boundary sb_0__0_" d="M 0 0 v 0 h 0 v 100 h 0  v 20 h 80 v -20 h 30 v -100  h -30 v 0 Z Z" fill="#ceefe4"/>
        </symbol>
        <symbol id="sb_0__1_">
            <path class="module_boundary sb_0__1_" d="M 0 0 v 20 h 0 v 60 h 0  v 20 h 80 v -20 h 40 v -60  h -40 v -20 Z Z" fill="#ceefe4"/>
        </symbol>
        <symbol id="sb_0__4_">
            <path class="module_boundary sb_0__4_" d="M 0 0 v 20 h 0 v 100 h 0  v 0 h 80 v 0 h 30 v -100  h -30 v -20 Z Z" fill="#ceefe4"/>
        </symbol>
        <symbol id="sb_1__0_">
            <path class="module_boundary sb_1__0_" d="M 30 0 v 0 h -30 v 100 h 30  v 40 h 60 v -40 h 30 v -100  h -30 v 0 Z Z" fill="#ceefe4"/>
        </symbol>
        <symbol id="sb_1__1_">
            <path class="module_boundary sb_1__1_" d="M 40 0 v 40 h -40 v 60 h 40  v 40 h 60 v -40 h 40 v -60  h -40 v -40 Z Z" fill="#ceefe4"/>
        </symbol>
        <symbol id="sb_1__4_">
            <path class="module_boundary sb_1__4_" d="M 30 0 v 40 h -30 v 100 h 30  v 0 h 60 v 0 h 30 v -100  h -30 v -40 Z Z" fill="#ceefe4"/>
        </symbol>
        <symbol id="sb_4__0_">
            <path class="module_boundary sb_4__0_" d="M 30 0 v 0 h -30 v 100 h 30  v 20 h 80 v -20 h 0 v -100  h 0 v 0 Z Z" fill="#ceefe4"/>
        </symbol>
        <symbol id="sb_4__1_">
            <path class="module_boundary sb_4__1_" d="M 40 0 v 20 h -40 v 60 h 40  v 20 h 80 v -20 h 0 v -60  h 0 v -20 Z Z" fill="#ceefe4"/>
        </symbol>
        <symbol id="sb_4__4_">
            <path class="module_boundary sb_4__4_" d="M 30 0 v 20 h -30 v 100 h 30  v 0 h 80 v 0 h 0 v -100  h 0 v -20 Z Z" fill="#ceefe4"/>
        </symbol>
        <symbol id="cbx_1__1_">
            <rect class="module_boundary cbx_1__1_" fill="#d9d9f3" height="59" width="119" x="1" y="1"/>
        </symbol>
        <symbol id="cby_1__1_">
            <rect class="module_boundary cby_1__1_" fill="#a8d0db" height="119" width="59" x="1" y="1"/>
        </symbol>
        <symbol id="cby_0__1_">
            <rect class="module_boundary cby_0__1_" fill="#a8d0db" height="159" width="79" x="1" y="1"/>
        </symbol>
        <symbol id="cbx_1__4_">
            <rect class="module_boundary cbx_1__4_" fill="#d9d9f3" height="99" width="139" x="1" y="1"/>
        </symbol>
        <symbol id="cby_4__1_">
            <rect class="module_boundary cby_4__1_" fill="#a8d0db" height="159" width="79" x="1" y="1"/>
        </symbol>
        <symbol id="cbx_1__0_">
            <rect class="module_boundary cbx_1__0_" fill="#d9d9f3" height="99" width="139" x="1" y="1"/>
        </symbol>
        <style type="text/css"><![CDATA[
            .origin{fill:black}
            text{font-family: Verdana; font-size: 5px;}
            .module_boundary{stroke:grey; stroke-width:1;opacity: 0.8}
            .left_pin{
                fill:blue;
                text-anchor: start;
                transform: translate(5px, 00px) scale(1,-1);}
            .right_pin{
                fill:blue;
                text-anchor: end;
                transform: translate(-5px, 00px) scale(1,-1);}
            .bottom_pin{
                fill:blue;
                transform-box: fill-box;
                transform-origin: start;
                text-anchor: start;
                transform: translate(0px, 10px) rotate(90deg) scale(1,-1);}
            .top_pin{
                fill:blue;
                transform-box: fill-box;
                transform-origin: bottom left;
                text-anchor: start;
                transform: translate(0px, -3px) rotate(-90deg) scale(1,-1);}
            .in_pin{fill: red;}
            .out_pin{fill: blue;}
        ]]></style>
        <style type="text/css"><![CDATA[
    .over_util {fill:#b22222 !important}
    text{font-family: Lato; font-size: 8px}
]]></style>
        <pattern height="20" id="id1" patternUnits="userSpaceOnUse" width="8">
            <circle cx="2" cy="2" fill="black" r="1"/>
            <circle cx="2" cy="12" fill="red" r="1"/>
        </pattern>
    </defs>
    <g id="bg">
        <rect fill="#FFF" height="1270" id="background" stroke-width="0" width="1270" x="-25" y="-25"/>
    </g>
    <g id="mainframe">
        <g id="mainShapes" transform="scale(1,-1)">
            <use class="topModule" x="0" xlink:href="#fpga_top" y="0"/>
            <use class="grid_clb_1__1_" x="120" xlink:href="#grid_clb" y="120"/>
            <use class="grid_clb_1__2_" x="120" xlink:href="#grid_clb" y="380"/>
            <use class="grid_clb_1__3_" x="120" xlink:href="#grid_clb" y="640"/>
            <use class="grid_clb_1__4_" x="120" xlink:href="#grid_clb" y="900"/>
            <use class="grid_clb_2__1_" x="380" xlink:href="#grid_clb" y="120"/>
            <use class="grid_clb_2__2_" x="380" xlink:href="#grid_clb" y="380"/>
            <use class="grid_clb_2__3_" x="380" xlink:href="#grid_clb" y="640"/>
            <use class="grid_clb_2__4_" x="380" xlink:href="#grid_clb" y="900"/>
            <use class="grid_clb_3__1_" x="640" xlink:href="#grid_clb" y="120"/>
            <use class="grid_clb_3__2_" x="640" xlink:href="#grid_clb" y="380"/>
            <use class="grid_clb_3__3_" x="640" xlink:href="#grid_clb" y="640"/>
            <use class="grid_clb_3__4_" x="640" xlink:href="#grid_clb" y="900"/>
            <use class="grid_clb_4__1_" x="900" xlink:href="#grid_clb" y="120"/>
            <use class="grid_clb_4__2_" x="900" xlink:href="#grid_clb" y="380"/>
            <use class="grid_clb_4__3_" x="900" xlink:href="#grid_clb" y="640"/>
            <use class="grid_clb_4__4_" x="900" xlink:href="#grid_clb" y="900"/>
            <use class="sb_0__0_" x="40" xlink:href="#sb_0__0_" y="20"/>
            <use class="sb_0__1_" x="40" xlink:href="#sb_0__1_" y="300"/>
            <use class="sb_0__2_" x="40" xlink:href="#sb_0__1_" y="560"/>
            <use class="sb_0__3_" x="40" xlink:href="#sb_0__1_" y="820"/>
            <use class="sb_0__4_" x="40" xlink:href="#sb_0__4_" y="1080"/>
            <use class="sb_1__0_" x="290" xlink:href="#sb_1__0_" y="20"/>
            <use class="sb_2__0_" x="550" xlink:href="#sb_1__0_" y="20"/>
            <use class="sb_3__0_" x="810" xlink:href="#sb_1__0_" y="20"/>
            <use class="sb_1__1_" x="280" xlink:href="#sb_1__1_" y="280"/>
            <use class="sb_1__2_" x="280" xlink:href="#sb_1__1_" y="540"/>
            <use class="sb_1__3_" x="280" xlink:href="#sb_1__1_" y="800"/>
            <use class="sb_2__1_" x="540" xlink:href="#sb_1__1_" y="280"/>
            <use class="sb_2__2_" x="540" xlink:href="#sb_1__1_" y="540"/>
            <use class="sb_2__3_" x="540" xlink:href="#sb_1__1_" y="800"/>
            <use class="sb_3__1_" x="800" xlink:href="#sb_1__1_" y="280"/>
            <use class="sb_3__2_" x="800" xlink:href="#sb_1__1_" y="540"/>
            <use class="sb_3__3_" x="800" xlink:href="#sb_1__1_" y="800"/>
            <use class="sb_1__4_" x="290" xlink:href="#sb_1__4_" y="1060"/>
            <use class="sb_2__4_" x="550" xlink:href="#sb_1__4_" y="1060"/>
            <use class="sb_3__4_" x="810" xlink:href="#sb_1__4_" y="1060"/>
            <use class="sb_4__0_" x="1070" xlink:href="#sb_4__0_" y="20"/>
            <use class="sb_4__1_" x="1060" xlink:href="#sb_4__1_" y="300"/>
            <use class="sb_4__2_" x="1060" xlink:href="#sb_4__1_" y="560"/>
            <use class="sb_4__3_" x="1060" xlink:href="#sb_4__1_" y="820"/>
            <use class="sb_4__4_" x="1070" xlink:href="#sb_4__4_" y="1080"/>
            <use class="cbx_1__1_" x="160" xlink:href="#cbx_1__1_" y="320"/>
            <use class="cbx_1__2_" x="160" xlink:href="#cbx_1__1_" y="580"/>
            <use class="cbx_1__3_" x="160" xlink:href="#cbx_1__1_" y="840"/>
            <use class="cbx_2__1_" x="420" xlink:href="#cbx_1__1_" y="320"/>
            <use class="cbx_2__2_" x="420" xlink:href="#cbx_1__1_" y="580"/>
            <use class="cbx_2__3_" x="420" xlink:href="#cbx_1__1_" y="840"/>
            <use class="cbx_3__1_" x="680" xlink:href="#cbx_1__1_" y="320"/>
            <use class="cbx_3__2_" x="680" xlink:href="#cbx_1__1_" y="580"/>
            <use class="cbx_3__3_" x="680" xlink:href="#cbx_1__1_" y="840"/>
            <use class="cbx_4__1_" x="940" xlink:href="#cbx_1__1_" y="320"/>
            <use class="cbx_4__2_" x="940" xlink:href="#cbx_1__1_" y="580"/>
            <use class="cbx_4__3_" x="940" xlink:href="#cbx_1__1_" y="840"/>
            <use class="cby_1__1_" x="320" xlink:href="#cby_1__1_" y="160"/>
            <use class="cby_1__2_" x="320" xlink:href="#cby_1__1_" y="420"/>
            <use class="cby_1__3_" x="320" xlink:href="#cby_1__1_" y="680"/>
            <use class="cby_1__4_" x="320" xlink:href="#cby_1__1_" y="940"/>
            <use class="cby_2__1_" x="580" xlink:href="#cby_1__1_" y="160"/>
            <use class="cby_2__2_" x="580" xlink:href="#cby_1__1_" y="420"/>
            <use class="cby_2__3_" x="580" xlink:href="#cby_1__1_" y="680"/>
            <use class="cby_2__4_" x="580" xlink:href="#cby_1__1_" y="940"/>
            <use class="cby_3__1_" x="840" xlink:href="#cby_1__1_" y="160"/>
            <use class="cby_3__2_" x="840" xlink:href="#cby_1__1_" y="420"/>
            <use class="cby_3__3_" x="840" xlink:href="#cby_1__1_" y="680"/>
            <use class="cby_3__4_" x="840" xlink:href="#cby_1__1_" y="940"/>
            <use class="cby_0__1_" x="40" xlink:href="#cby_0__1_" y="140"/>
            <use class="cby_0__2_" x="40" xlink:href="#cby_0__1_" y="400"/>
            <use class="cby_0__3_" x="40" xlink:href="#cby_0__1_" y="660"/>
            <use class="cby_0__4_" x="40" xlink:href="#cby_0__1_" y="920"/>
            <use class="cbx_1__4_" x="150" xlink:href="#cbx_1__4_" y="1100"/>
            <use class="cbx_2__4_" x="410" xlink:href="#cbx_1__4_" y="1100"/>
            <use class="cbx_3__4_" x="670" xlink:href="#cbx_1__4_" y="1100"/>
            <use class="cbx_4__4_" x="930" xlink:href="#cbx_1__4_" y="1100"/>
            <use class="cby_4__4_" x="1100" xlink:href="#cby_4__1_" y="920"/>
            <use class="cby_4__3_" x="1100" xlink:href="#cby_4__1_" y="660"/>
            <use class="cby_4__2_" x="1100" xlink:href="#cby_4__1_" y="400"/>
            <use class="cby_4__1_" x="1100" xlink:href="#cby_4__1_" y="140"/>
            <use class="cbx_4__0_" x="930" xlink:href="#cbx_1__0_" y="20"/>
            <use class="cbx_3__0_" x="670" xlink:href="#cbx_1__0_" y="20"/>
            <use class="cbx_2__0_" x="410" xlink:href="#cbx_1__0_" y="20"/>
            <use class="cbx_1__0_" x="150" xlink:href="#cbx_1__0_" y="20"/>
        </g>
        <g id="mainText" transform="scale(1,-1)">
            <text alignment-baseline="middle" fill="black" text-anchor="middle" transform="scale(1,-1)" x="610.0" y="-122.0">fpga_top</text>
            <text alignment-baseline="middle" fill="black" text-anchor="middle" transform="scale(1,-1)" x="220.0" y="-220.0">
                grid_clb_1__1_
                <tspan dy="1.2em" x="220.0" y="-220.0">[grid_clb]</tspan>
                <tspan dy="2.4em" x="220.0" y="-220.0">[4929.12%] </tspan>
            </text>
            <text alignment-baseline="middle" fill="black" text-anchor="middle" transform="scale(1,-1)" x="220.0" y="-480.0">
                grid_clb_1__2_
                <tspan dy="1.2em" x="220.0" y="-480.0">[grid_clb]</tspan>
                <tspan dy="2.4em" x="220.0" y="-480.0">[4929.12%] </tspan>
            </text>
            <text alignment-baseline="middle" fill="black" text-anchor="middle" transform="scale(1,-1)" x="220.0" y="-740.0">
                grid_clb_1__3_
                <tspan dy="1.2em" x="220.0" y="-740.0">[grid_clb]</tspan>
                <tspan dy="2.4em" x="220.0" y="-740.0">[4929.12%] </tspan>
            </text>
            <text alignment-baseline="middle" fill="black" text-anchor="middle" transform="scale(1,-1)" x="220.0" y="-1000.0">
                grid_clb_1__4_
                <tspan dy="1.2em" x="220.0" y="-1000.0">[grid_clb]</tspan>
                <tspan dy="2.4em" x="220.0" y="-1000.0">[4929.12%] </tspan>
            </text>
            <text alignment-baseline="middle" fill="black" text-anchor="middle" transform="scale(1,-1)" x="480.0" y="-220.0">
                grid_clb_2__1_
                <tspan dy="1.2em" x="480.0" y="-220.0">[grid_clb]</tspan>
                <tspan dy="2.4em" x="480.0" y="-220.0">[4929.12%] </tspan>
            </text>
            <text alignment-baseline="middle" fill="black" text-anchor="middle" transform="scale(1,-1)" x="480.0" y="-480.0">
                grid_clb_2__2_
                <tspan dy="1.2em" x="480.0" y="-480.0">[grid_clb]</tspan>
                <tspan dy="2.4em" x="480.0" y="-480.0">[4929.12%] </tspan>
            </text>
            <text alignment-baseline="middle" fill="black" text-anchor="middle" transform="scale(1,-1)" x="480.0" y="-740.0">
                grid_clb_2__3_
                <tspan dy="1.2em" x="480.0" y="-740.0">[grid_clb]</tspan>
                <tspan dy="2.4em" x="480.0" y="-740.0">[4929.12%] </tspan>
            </text>
            <text alignment-baseline="middle" fill="black" text-anchor="middle" transform="scale(1,-1)" x="480.0" y="-1000.0">
                grid_clb_2__4_
                <tspan dy="1.2em" x="480.0" y="-1000.0">[grid_clb]</tspan>
                <tspan dy="2.4em" x="480.0" y="-1000.0">[4929.12%] </tspan>
            </text>
            <text alignment-baseline="middle" fill="black" text-anchor="middle" transform="scale(1,-1)" x="740.0" y="-220.0">
                grid_clb_3__1_
                <tspan dy="1.2em" x="740.0" y="-220.0">[grid_clb]</tspan>
                <tspan dy="2.4em" x="740.0" y="-220.0">[4929.12%] </tspan>
            </text>
            <text alignment-baseline="middle" fill="black" text-anchor="middle" transform="scale(1,-1)" x="740.0" y="-480.0">
                grid_clb_3__2_
                <tspan dy="1.2em" x="740.0" y="-480.0">[grid_clb]</tspan>
                <tspan dy="2.4em" x="740.0" y="-480.0">[4929.12%] </tspan>
            </text>
            <text alignment-baseline="middle" fill="black" text-anchor="middle" transform="scale(1,-1)" x="740.0" y="-740.0">
                grid_clb_3__3_
                <tspan dy="1.2em" x="740.0" y="-740.0">[grid_clb]</tspan>
                <tspan dy="2.4em" x="740.0" y="-740.0">[4929.12%] </tspan>
            </text>
            <text alignment-baseline="middle" fill="black" text-anchor="middle" transform="scale(1,-1)" x="740.0" y="-1000.0">
                grid_clb_3__4_
                <tspan dy="1.2em" x="740.0" y="-1000.0">[grid_clb]</tspan>
                <tspan dy="2.4em" x="740.0" y="-1000.0">[4929.12%] </tspan>
            </text>
            <text alignment-baseline="middle" fill="black" text-anchor="middle" transform="scale(1,-1)" x="1000.0" y="-220.0">
                grid_clb_4__1_
                <tspan dy="1.2em" x="1000.0" y="-220.0">[grid_clb]</tspan>
                <tspan dy="2.4em" x="1000.0" y="-220.0">[4929.12%] </tspan>
            </text>
            <text alignment-baseline="middle" fill="black" text-anchor="middle" transform="scale(1,-1)" x="1000.0" y="-480.0">
                grid_clb_4__2_
                <tspan dy="1.2em" x="1000.0" y="-480.0">[grid_clb]</tspan>
                <tspan dy="2.4em" x="1000.0" y="-480.0">[4929.12%] </tspan>
            </text>
            <text alignment-baseline="middle" fill="black" text-anchor="middle" transform="scale(1,-1)" x="1000.0" y="-740.0">
                grid_clb_4__3_
                <tspan dy="1.2em" x="1000.0" y="-740.0">[grid_clb]</tspan>
                <tspan dy="2.4em" x="1000.0" y="-740.0">[4929.12%] </tspan>
            </text>
            <text alignment-baseline="middle" fill="black" text-anchor="middle" transform="scale(1,-1)" x="1000.0" y="-1000.0">
                grid_clb_4__4_
                <tspan dy="1.2em" x="1000.0" y="-1000.0">[grid_clb]</tspan>
                <tspan dy="2.4em" x="1000.0" y="-1000.0">[4929.12%] </tspan>
            </text>
            <text alignment-baseline="middle" fill="black" text-anchor="middle" transform="scale(1,-1)" x="95.0" y="-80.0">
                sb_0__0_
                <tspan dy="1.2em" x="95.0" y="-80.0">[sb_0__0_]</tspan>
                <tspan dy="2.4em" x="95.0" y="-80.0">[4418.00%] </tspan>
            </text>
            <text alignment-baseline="middle" fill="black" text-anchor="middle" transform="scale(1,-1)" x="100.0" y="-350.0">
                sb_0__1_
                <tspan dy="1.2em" x="100.0" y="-350.0">[sb_0__1_]</tspan>
                <tspan dy="2.4em" x="100.0" y="-350.0">[5922.00%] </tspan>
            </text>
            <text alignment-baseline="middle" fill="black" text-anchor="middle" transform="scale(1,-1)" x="100.0" y="-610.0">
                sb_0__2_
                <tspan dy="1.2em" x="100.0" y="-610.0">[sb_0__1_]</tspan>
                <tspan dy="2.4em" x="100.0" y="-610.0">[5922.00%] </tspan>
            </text>
            <text alignment-baseline="middle" fill="black" text-anchor="middle" transform="scale(1,-1)" x="100.0" y="-870.0">
                sb_0__3_
                <tspan dy="1.2em" x="100.0" y="-870.0">[sb_0__1_]</tspan>
                <tspan dy="2.4em" x="100.0" y="-870.0">[5922.00%] </tspan>
            </text>
            <text alignment-baseline="middle" fill="black" text-anchor="middle" transform="scale(1,-1)" x="95.0" y="-1140.0">
                sb_0__4_
                <tspan dy="1.2em" x="95.0" y="-1140.0">[sb_0__4_]</tspan>
                <tspan dy="2.4em" x="95.0" y="-1140.0">[4852.00%] </tspan>
            </text>
            <text alignment-baseline="middle" fill="black" text-anchor="middle" transform="scale(1,-1)" x="350.0" y="-90.0">
                sb_1__0_
                <tspan dy="1.2em" x="350.0" y="-90.0">[sb_1__0_]</tspan>
                <tspan dy="2.4em" x="350.0" y="-90.0">[3500.88%] </tspan>
            </text>
            <text alignment-baseline="middle" fill="black" text-anchor="middle" transform="scale(1,-1)" x="610.0" y="-90.0">
                sb_2__0_
                <tspan dy="1.2em" x="610.0" y="-90.0">[sb_1__0_]</tspan>
                <tspan dy="2.4em" x="610.0" y="-90.0">[3500.88%] </tspan>
            </text>
            <text alignment-baseline="middle" fill="black" text-anchor="middle" transform="scale(1,-1)" x="870.0" y="-90.0">
                sb_3__0_
                <tspan dy="1.2em" x="870.0" y="-90.0">[sb_1__0_]</tspan>
                <tspan dy="2.4em" x="870.0" y="-90.0">[3500.88%] </tspan>
            </text>
            <text alignment-baseline="middle" fill="black" text-anchor="middle" transform="scale(1,-1)" x="350.0" y="-350.0">
                sb_1__1_
                <tspan dy="1.2em" x="350.0" y="-350.0">[sb_1__1_]</tspan>
                <tspan dy="2.4em" x="350.0" y="-350.0">[5513.45%] </tspan>
            </text>
            <text alignment-baseline="middle" fill="black" text-anchor="middle" transform="scale(1,-1)" x="350.0" y="-610.0">
                sb_1__2_
                <tspan dy="1.2em" x="350.0" y="-610.0">[sb_1__1_]</tspan>
                <tspan dy="2.4em" x="350.0" y="-610.0">[5513.45%] </tspan>
            </text>
            <text alignment-baseline="middle" fill="black" text-anchor="middle" transform="scale(1,-1)" x="350.0" y="-870.0">
                sb_1__3_
                <tspan dy="1.2em" x="350.0" y="-870.0">[sb_1__1_]</tspan>
                <tspan dy="2.4em" x="350.0" y="-870.0">[5513.45%] </tspan>
            </text>
            <text alignment-baseline="middle" fill="black" text-anchor="middle" transform="scale(1,-1)" x="610.0" y="-350.0">
                sb_2__1_
                <tspan dy="1.2em" x="610.0" y="-350.0">[sb_1__1_]</tspan>
                <tspan dy="2.4em" x="610.0" y="-350.0">[5513.45%] </tspan>
            </text>
            <text alignment-baseline="middle" fill="black" text-anchor="middle" transform="scale(1,-1)" x="610.0" y="-610.0">
                sb_2__2_
                <tspan dy="1.2em" x="610.0" y="-610.0">[sb_1__1_]</tspan>
                <tspan dy="2.4em" x="610.0" y="-610.0">[5513.45%] </tspan>
            </text>
            <text alignment-baseline="middle" fill="black" text-anchor="middle" transform="scale(1,-1)" x="610.0" y="-870.0">
                sb_2__3_
                <tspan dy="1.2em" x="610.0" y="-870.0">[sb_1__1_]</tspan>
                <tspan dy="2.4em" x="610.0" y="-870.0">[5513.45%] </tspan>
            </text>
            <text alignment-baseline="middle" fill="black" text-anchor="middle" transform="scale(1,-1)" x="870.0" y="-350.0">
                sb_3__1_
                <tspan dy="1.2em" x="870.0" y="-350.0">[sb_1__1_]</tspan>
                <tspan dy="2.4em" x="870.0" y="-350.0">[5513.45%] </tspan>
            </text>
            <text alignment-baseline="middle" fill="black" text-anchor="middle" transform="scale(1,-1)" x="870.0" y="-610.0">
                sb_3__2_
                <tspan dy="1.2em" x="870.0" y="-610.0">[sb_1__1_]</tspan>
                <tspan dy="2.4em" x="870.0" y="-610.0">[5513.45%] </tspan>
            </text>
            <text alignment-baseline="middle" fill="black" text-anchor="middle" transform="scale(1,-1)" x="870.0" y="-870.0">
                sb_3__3_
                <tspan dy="1.2em" x="870.0" y="-870.0">[sb_1__1_]</tspan>
                <tspan dy="2.4em" x="870.0" y="-870.0">[5513.45%] </tspan>
            </text>
            <text alignment-baseline="middle" fill="black" text-anchor="middle" transform="scale(1,-1)" x="350.0" y="-1130.0">
                sb_1__4_
                <tspan dy="1.2em" x="350.0" y="-1130.0">[sb_1__4_]</tspan>
                <tspan dy="2.4em" x="350.0" y="-1130.0">[3799.25%] </tspan>
            </text>
            <text alignment-baseline="middle" fill="black" text-anchor="middle" transform="scale(1,-1)" x="610.0" y="-1130.0">
                sb_2__4_
                <tspan dy="1.2em" x="610.0" y="-1130.0">[sb_1__4_]</tspan>
                <tspan dy="2.4em" x="610.0" y="-1130.0">[3799.25%] </tspan>
            </text>
            <text alignment-baseline="middle" fill="black" text-anchor="middle" transform="scale(1,-1)" x="870.0" y="-1130.0">
                sb_3__4_
                <tspan dy="1.2em" x="870.0" y="-1130.0">[sb_1__4_]</tspan>
                <tspan dy="2.4em" x="870.0" y="-1130.0">[3799.25%] </tspan>
            </text>
            <text alignment-baseline="middle" fill="black" text-anchor="middle" transform="scale(1,-1)" x="1125.0" y="-80.0">
                sb_4__0_
                <tspan dy="1.2em" x="1125.0" y="-80.0">[sb_4__0_]</tspan>
                <tspan dy="2.4em" x="1125.0" y="-80.0">[4418.00%] </tspan>
            </text>
            <text alignment-baseline="middle" fill="black" text-anchor="middle" transform="scale(1,-1)" x="1120.0" y="-350.0">
                sb_4__1_
                <tspan dy="1.2em" x="1120.0" y="-350.0">[sb_4__1_]</tspan>
                <tspan dy="2.4em" x="1120.0" y="-350.0">[5991.06%] </tspan>
            </text>
            <text alignment-baseline="middle" fill="black" text-anchor="middle" transform="scale(1,-1)" x="1120.0" y="-610.0">
                sb_4__2_
                <tspan dy="1.2em" x="1120.0" y="-610.0">[sb_4__1_]</tspan>
                <tspan dy="2.4em" x="1120.0" y="-610.0">[5991.06%] </tspan>
            </text>
            <text alignment-baseline="middle" fill="black" text-anchor="middle" transform="scale(1,-1)" x="1120.0" y="-870.0">
                sb_4__3_
                <tspan dy="1.2em" x="1120.0" y="-870.0">[sb_4__1_]</tspan>
                <tspan dy="2.4em" x="1120.0" y="-870.0">[5991.06%] </tspan>
            </text>
            <text alignment-baseline="middle" fill="black" text-anchor="middle" transform="scale(1,-1)" x="1125.0" y="-1140.0">
                sb_4__4_
                <tspan dy="1.2em" x="1125.0" y="-1140.0">[sb_4__4_]</tspan>
                <tspan dy="2.4em" x="1125.0" y="-1140.0">[4852.00%] </tspan>
            </text>
            <text alignment-baseline="middle" fill="black" text-anchor="middle" transform="scale(1,-1)" x="220.0" y="-350.0">
                cbx_1__1_
                <tspan dy="1.2em" x="220.0" y="-350.0">[cbx_1__1_]</tspan>
                <tspan dy="2.4em" x="220.0" y="-350.0">[3253.25%] </tspan>
            </text>
            <text alignment-baseline="middle" fill="black" text-anchor="middle" transform="scale(1,-1)" x="220.0" y="-610.0">
                cbx_1__2_
                <tspan dy="1.2em" x="220.0" y="-610.0">[cbx_1__1_]</tspan>
                <tspan dy="2.4em" x="220.0" y="-610.0">[3253.25%] </tspan>
            </text>
            <text alignment-baseline="middle" fill="black" text-anchor="middle" transform="scale(1,-1)" x="220.0" y="-870.0">
                cbx_1__3_
                <tspan dy="1.2em" x="220.0" y="-870.0">[cbx_1__1_]</tspan>
                <tspan dy="2.4em" x="220.0" y="-870.0">[3253.25%] </tspan>
            </text>
            <text alignment-baseline="middle" fill="black" text-anchor="middle" transform="scale(1,-1)" x="480.0" y="-350.0">
                cbx_2__1_
                <tspan dy="1.2em" x="480.0" y="-350.0">[cbx_1__1_]</tspan>
                <tspan dy="2.4em" x="480.0" y="-350.0">[3253.25%] </tspan>
            </text>
            <text alignment-baseline="middle" fill="black" text-anchor="middle" transform="scale(1,-1)" x="480.0" y="-610.0">
                cbx_2__2_
                <tspan dy="1.2em" x="480.0" y="-610.0">[cbx_1__1_]</tspan>
                <tspan dy="2.4em" x="480.0" y="-610.0">[3253.25%] </tspan>
            </text>
            <text alignment-baseline="middle" fill="black" text-anchor="middle" transform="scale(1,-1)" x="480.0" y="-870.0">
                cbx_2__3_
                <tspan dy="1.2em" x="480.0" y="-870.0">[cbx_1__1_]</tspan>
                <tspan dy="2.4em" x="480.0" y="-870.0">[3253.25%] </tspan>
            </text>
            <text alignment-baseline="middle" fill="black" text-anchor="middle" transform="scale(1,-1)" x="740.0" y="-350.0">
                cbx_3__1_
                <tspan dy="1.2em" x="740.0" y="-350.0">[cbx_1__1_]</tspan>
                <tspan dy="2.4em" x="740.0" y="-350.0">[3253.25%] </tspan>
            </text>
            <text alignment-baseline="middle" fill="black" text-anchor="middle" transform="scale(1,-1)" x="740.0" y="-610.0">
                cbx_3__2_
                <tspan dy="1.2em" x="740.0" y="-610.0">[cbx_1__1_]</tspan>
                <tspan dy="2.4em" x="740.0" y="-610.0">[3253.25%] </tspan>
            </text>
            <text alignment-baseline="middle" fill="black" text-anchor="middle" transform="scale(1,-1)" x="740.0" y="-870.0">
                cbx_3__3_
                <tspan dy="1.2em" x="740.0" y="-870.0">[cbx_1__1_]</tspan>
                <tspan dy="2.4em" x="740.0" y="-870.0">[3253.25%] </tspan>
            </text>
            <text alignment-baseline="middle" fill="black" text-anchor="middle" transform="scale(1,-1)" x="1000.0" y="-350.0">
                cbx_4__1_
                <tspan dy="1.2em" x="1000.0" y="-350.0">[cbx_1__1_]</tspan>
                <tspan dy="2.4em" x="1000.0" y="-350.0">[3253.25%] </tspan>
            </text>
            <text alignment-baseline="middle" fill="black" text-anchor="middle" transform="scale(1,-1)" x="1000.0" y="-610.0">
                cbx_4__2_
                <tspan dy="1.2em" x="1000.0" y="-610.0">[cbx_1__1_]</tspan>
                <tspan dy="2.4em" x="1000.0" y="-610.0">[3253.25%] </tspan>
            </text>
            <text alignment-baseline="middle" fill="black" text-anchor="middle" transform="scale(1,-1)" x="1000.0" y="-870.0">
                cbx_4__3_
                <tspan dy="1.2em" x="1000.0" y="-870.0">[cbx_1__1_]</tspan>
                <tspan dy="2.4em" x="1000.0" y="-870.0">[3253.25%] </tspan>
            </text>
            <text alignment-baseline="middle" fill="black" text-anchor="middle" transform="scale(1,-1)" x="350.0" y="-220.0">
                cby_1__1_
                <tspan dy="1.2em" x="350.0" y="-220.0">[cby_1__1_]</tspan>
                <tspan dy="2.4em" x="350.0" y="-220.0">[3503.50%] </tspan>
            </text>
            <text alignment-baseline="middle" fill="black" text-anchor="middle" transform="scale(1,-1)" x="350.0" y="-480.0">
                cby_1__2_
                <tspan dy="1.2em" x="350.0" y="-480.0">[cby_1__1_]</tspan>
                <tspan dy="2.4em" x="350.0" y="-480.0">[3503.50%] </tspan>
            </text>
            <text alignment-baseline="middle" fill="black" text-anchor="middle" transform="scale(1,-1)" x="350.0" y="-740.0">
                cby_1__3_
                <tspan dy="1.2em" x="350.0" y="-740.0">[cby_1__1_]</tspan>
                <tspan dy="2.4em" x="350.0" y="-740.0">[3503.50%] </tspan>
            </text>
            <text alignment-baseline="middle" fill="black" text-anchor="middle" transform="scale(1,-1)" x="350.0" y="-1000.0">
                cby_1__4_
                <tspan dy="1.2em" x="350.0" y="-1000.0">[cby_1__1_]</tspan>
                <tspan dy="2.4em" x="350.0" y="-1000.0">[3503.50%] </tspan>
            </text>
            <text alignment-baseline="middle" fill="black" text-anchor="middle" transform="scale(1,-1)" x="610.0" y="-220.0">
                cby_2__1_
                <tspan dy="1.2em" x="610.0" y="-220.0">[cby_1__1_]</tspan>
                <tspan dy="2.4em" x="610.0" y="-220.0">[3503.50%] </tspan>
            </text>
            <text alignment-baseline="middle" fill="black" text-anchor="middle" transform="scale(1,-1)" x="610.0" y="-480.0">
                cby_2__2_
                <tspan dy="1.2em" x="610.0" y="-480.0">[cby_1__1_]</tspan>
                <tspan dy="2.4em" x="610.0" y="-480.0">[3503.50%] </tspan>
            </text>
            <text alignment-baseline="middle" fill="black" text-anchor="middle" transform="scale(1,-1)" x="610.0" y="-740.0">
                cby_2__3_
                <tspan dy="1.2em" x="610.0" y="-740.0">[cby_1__1_]</tspan>
                <tspan dy="2.4em" x="610.0" y="-740.0">[3503.50%] </tspan>
            </text>
            <text alignment-baseline="middle" fill="black" text-anchor="middle" transform="scale(1,-1)" x="610.0" y="-1000.0">
                cby_2__4_
                <tspan dy="1.2em" x="610.0" y="-1000.0">[cby_1__1_]</tspan>
                <tspan dy="2.4em" x="610.0" y="-1000.0">[3503.50%] </tspan>
            </text>
            <text alignment-baseline="middle" fill="black" text-anchor="middle" transform="scale(1,-1)" x="870.0" y="-220.0">
                cby_3__1_
                <tspan dy="1.2em" x="870.0" y="-220.0">[cby_1__1_]</tspan>
                <tspan dy="2.4em" x="870.0" y="-220.0">[3503.50%] </tspan>
            </text>
            <text alignment-baseline="middle" fill="black" text-anchor="middle" transform="scale(1,-1)" x="870.0" y="-480.0">
                cby_3__2_
                <tspan dy="1.2em" x="870.0" y="-480.0">[cby_1__1_]</tspan>
                <tspan dy="2.4em" x="870.0" y="-480.0">[3503.50%] </tspan>
            </text>
            <text alignment-baseline="middle" fill="black" text-anchor="middle" transform="scale(1,-1)" x="870.0" y="-740.0">
                cby_3__3_
                <tspan dy="1.2em" x="870.0" y="-740.0">[cby_1__1_]</tspan>
                <tspan dy="2.4em" x="870.0" y="-740.0">[3503.50%] </tspan>
            </text>
            <text alignment-baseline="middle" fill="black" text-anchor="middle" transform="scale(1,-1)" x="870.0" y="-1000.0">
                cby_3__4_
                <tspan dy="1.2em" x="870.0" y="-1000.0">[cby_1__1_]</tspan>
                <tspan dy="2.4em" x="870.0" y="-1000.0">[3503.50%] </tspan>
            </text>
            <text alignment-baseline="middle" fill="black" text-anchor="middle" transform="scale(1,-1)" x="80.0" y="-220.0">
                cby_0__1_
                <tspan dy="1.2em" x="80.0" y="-220.0">[cby_0__1_]</tspan>
                <tspan dy="2.4em" x="80.0" y="-220.0">[6376.78%] </tspan>
            </text>
            <text alignment-baseline="middle" fill="black" text-anchor="middle" transform="scale(1,-1)" x="80.0" y="-480.0">
                cby_0__2_
                <tspan dy="1.2em" x="80.0" y="-480.0">[cby_0__1_]</tspan>
                <tspan dy="2.4em" x="80.0" y="-480.0">[6376.78%] </tspan>
            </text>
            <text alignment-baseline="middle" fill="black" text-anchor="middle" transform="scale(1,-1)" x="80.0" y="-740.0">
                cby_0__3_
                <tspan dy="1.2em" x="80.0" y="-740.0">[cby_0__1_]</tspan>
                <tspan dy="2.4em" x="80.0" y="-740.0">[6376.78%] </tspan>
            </text>
            <text alignment-baseline="middle" fill="black" text-anchor="middle" transform="scale(1,-1)" x="80.0" y="-1000.0">
                cby_0__4_
                <tspan dy="1.2em" x="80.0" y="-1000.0">[cby_0__1_]</tspan>
                <tspan dy="2.4em" x="80.0" y="-1000.0">[6376.78%] </tspan>
            </text>
            <text alignment-baseline="middle" fill="black" text-anchor="middle" transform="scale(1,-1)" x="220.0" y="-1150.0">
                cbx_1__4_
                <tspan dy="1.2em" x="220.0" y="-1150.0">[cbx_1__4_]</tspan>
                <tspan dy="2.4em" x="220.0" y="-1150.0">[7245.90%] </tspan>
            </text>
            <text alignment-baseline="middle" fill="black" text-anchor="middle" transform="scale(1,-1)" x="480.0" y="-1150.0">
                cbx_2__4_
                <tspan dy="1.2em" x="480.0" y="-1150.0">[cbx_1__4_]</tspan>
                <tspan dy="2.4em" x="480.0" y="-1150.0">[7245.90%] </tspan>
            </text>
            <text alignment-baseline="middle" fill="black" text-anchor="middle" transform="scale(1,-1)" x="740.0" y="-1150.0">
                cbx_3__4_
                <tspan dy="1.2em" x="740.0" y="-1150.0">[cbx_1__4_]</tspan>
                <tspan dy="2.4em" x="740.0" y="-1150.0">[7245.90%] </tspan>
            </text>
            <text alignment-baseline="middle" fill="black" text-anchor="middle" transform="scale(1,-1)" x="1000.0" y="-1150.0">
                cbx_4__4_
                <tspan dy="1.2em" x="1000.0" y="-1150.0">[cbx_1__4_]</tspan>
                <tspan dy="2.4em" x="1000.0" y="-1150.0">[7245.90%] </tspan>
            </text>
            <text alignment-baseline="middle" fill="black" text-anchor="middle" transform="scale(1,-1)" x="1140.0" y="-1000.0">
                cby_4__4_
                <tspan dy="1.2em" x="1140.0" y="-1000.0">[cby_4__1_]</tspan>
                <tspan dy="2.4em" x="1140.0" y="-1000.0">[7784.44%] </tspan>
            </text>
            <text alignment-baseline="middle" fill="black" text-anchor="middle" transform="scale(1,-1)" x="1140.0" y="-740.0">
                cby_4__3_
                <tspan dy="1.2em" x="1140.0" y="-740.0">[cby_4__1_]</tspan>
                <tspan dy="2.4em" x="1140.0" y="-740.0">[7784.44%] </tspan>
            </text>
            <text alignment-baseline="middle" fill="black" text-anchor="middle" transform="scale(1,-1)" x="1140.0" y="-480.0">
                cby_4__2_
                <tspan dy="1.2em" x="1140.0" y="-480.0">[cby_4__1_]</tspan>
                <tspan dy="2.4em" x="1140.0" y="-480.0">[7784.44%] </tspan>
            </text>
            <text alignment-baseline="middle" fill="black" text-anchor="middle" transform="scale(1,-1)" x="1140.0" y="-220.0">
                cby_4__1_
                <tspan dy="1.2em" x="1140.0" y="-220.0">[cby_4__1_]</tspan>
                <tspan dy="2.4em" x="1140.0" y="-220.0">[7784.44%] </tspan>
            </text>
            <text alignment-baseline="middle" fill="black" text-anchor="middle" transform="scale(1,-1)" x="1000.0" y="-70.0">
                cbx_4__0_
                <tspan dy="1.2em" x="1000.0" y="-70.0">[cbx_1__0_]</tspan>
                <tspan dy="2.4em" x="1000.0" y="-70.0">[5572.80%] </tspan>
            </text>
            <text alignment-baseline="middle" fill="black" text-anchor="middle" transform="scale(1,-1)" x="740.0" y="-70.0">
                cbx_3__0_
                <tspan dy="1.2em" x="740.0" y="-70.0">[cbx_1__0_]</tspan>
                <tspan dy="2.4em" x="740.0" y="-70.0">[5572.80%] </tspan>
            </text>
            <text alignment-baseline="middle" fill="black" text-anchor="middle" transform="scale(1,-1)" x="480.0" y="-70.0">
                cbx_2__0_
                <tspan dy="1.2em" x="480.0" y="-70.0">[cbx_1__0_]</tspan>
                <tspan dy="2.4em" x="480.0" y="-70.0">[5572.80%] </tspan>
            </text>
            <text alignment-baseline="middle" fill="black" text-anchor="middle" transform="scale(1,-1)" x="220.0" y="-70.0">
                cbx_1__0_
                <tspan dy="1.2em" x="220.0" y="-70.0">[cbx_1__0_]</tspan>
                <tspan dy="2.4em" x="220.0" y="-70.0">[5572.80%] </tspan>
            </text>
        </g>
        <g id="edges" transform="scale(1,-1)"/>
    </g>
    <rect class="origin" height="10" width="10" x="0" y="0"/>
    <g id="mainShapes" transform="scale(1,-1)">
        <line stroke="red" stroke-width="1" x1="40" x2="1180" y1="20" y2="20"/>
        <line stroke="red" stroke-width="1" x1="40" x2="1180" y1="120" y2="120"/>
        <line stroke="red" stroke-width="1" x1="40" x2="1180" y1="320" y2="320"/>
        <line stroke="red" stroke-width="1" x1="40" x2="1180" y1="380" y2="380"/>
        <line stroke="red" stroke-width="1" x1="40" x2="1180" y1="580" y2="580"/>
        <line stroke="red" stroke-width="1" x1="40" x2="1180" y1="640" y2="640"/>
        <line stroke="red" stroke-width="1" x1="40" x2="1180" y1="840" y2="840"/>
        <line stroke="red" stroke-width="1" x1="40" x2="1180" y1="900" y2="900"/>
        <line stroke="red" stroke-width="1" x1="40" x2="1180" y1="1100" y2="1100"/>
        <line stroke="red" stroke-width="1" x1="40" x2="1180" y1="1200" y2="1200"/>
        <line stroke="red" stroke-width="1" x1="40" x2="40" y1="20" y2="1200"/>
        <line stroke="red" stroke-width="1" x1="120" x2="120" y1="20" y2="1200"/>
        <line stroke="red" stroke-width="1" x1="320" x2="320" y1="20" y2="1200"/>
        <line stroke="red" stroke-width="1" x1="380" x2="380" y1="20" y2="1200"/>
        <line stroke="red" stroke-width="1" x1="580" x2="580" y1="20" y2="1200"/>
        <line stroke="red" stroke-width="1" x1="640" x2="640" y1="20" y2="1200"/>
        <line stroke="red" stroke-width="1" x1="840" x2="840" y1="20" y2="1200"/>
        <line stroke="red" stroke-width="1" x1="900" x2="900" y1="20" y2="1200"/>
        <line stroke="red" stroke-width="1" x1="1100" x2="1100" y1="20" y2="1200"/>
        <line stroke="red" stroke-width="1" x1="1180" x2="1180" y1="20" y2="1200"/>
    </g>
</svg>
