<?xml version="1.0" encoding="UTF-8" standalone="no"?>
<!DOCTYPE svg PUBLIC "-//W3C//DTD SVG 1.1//EN"
 "http://www.w3.org/Graphics/SVG/1.1/DTD/svg11.dtd">
<!-- Generated by graphviz version 2.43.0 (0)
 -->
<!-- Title: %3 Pages: 1 -->
<svg width="365pt" height="305pt"
 viewBox="0.00 0.00 364.75 305.00" xmlns="http://www.w3.org/2000/svg" xmlns:xlink="http://www.w3.org/1999/xlink">
<g id="graph0" class="graph" transform="scale(1 1) rotate(0) translate(4 301)">
<title>%3</title>
<polygon fill="white" stroke="transparent" points="-4,4 -4,-301 360.75,-301 360.75,4 -4,4"/>
<!-- 0 -->
<g id="node1" class="node">
<title>0</title>
<polygon fill="none" stroke="black" points="76.75,-297 22.75,-297 22.75,-261 76.75,-261 76.75,-297"/>
<text text-anchor="middle" x="49.75" y="-275.3" font-family="Times,serif" font-size="14.00">in0</text>
</g>
<!-- 7 -->
<g id="node8" class="node">
<title>7</title>
<ellipse fill="none" stroke="black" cx="103.75" cy="-192" rx="48.99" ry="18"/>
<text text-anchor="middle" x="103.75" y="-188.3" font-family="Times,serif" font-size="14.00">inst_1_0</text>
</g>
<!-- 0&#45;&gt;7 -->
<g id="edge1" class="edge">
<title>0&#45;&gt;7</title>
<path fill="none" stroke="black" d="M46.28,-260.77C45.13,-250.63 45.3,-237.89 50.75,-228 54.14,-221.84 59.14,-216.57 64.73,-212.14"/>
<polygon fill="black" stroke="black" points="67.01,-214.81 73.22,-206.23 63.01,-209.07 67.01,-214.81"/>
<text text-anchor="middle" x="60.75" y="-231.8" font-family="Times,serif" font-size="14.00">[1]</text>
</g>
<!-- 8 -->
<g id="node9" class="node">
<title>8</title>
<ellipse fill="none" stroke="black" cx="48.75" cy="-105" rx="48.99" ry="18"/>
<text text-anchor="middle" x="48.75" y="-101.3" font-family="Times,serif" font-size="14.00">inst_1_1</text>
</g>
<!-- 0&#45;&gt;8 -->
<g id="edge3" class="edge">
<title>0&#45;&gt;8</title>
<path fill="none" stroke="black" d="M41.85,-260.83C36.1,-247.33 28.81,-227.89 25.75,-210 23.04,-194.23 23.15,-189.79 25.75,-174 28.05,-159.97 32.87,-144.95 37.5,-132.6"/>
<polygon fill="black" stroke="black" points="40.9,-133.52 41.29,-122.93 34.38,-130.96 40.9,-133.52"/>
<text text-anchor="middle" x="35.75" y="-188.3" font-family="Times,serif" font-size="14.00">[1]</text>
</g>
<!-- 9 -->
<g id="node10" class="node">
<title>9</title>
<ellipse fill="none" stroke="black" cx="219.75" cy="-192" rx="48.99" ry="18"/>
<text text-anchor="middle" x="219.75" y="-188.3" font-family="Times,serif" font-size="14.00">inst_2_0</text>
</g>
<!-- 0&#45;&gt;9 -->
<g id="edge2" class="edge">
<title>0&#45;&gt;9</title>
<path fill="none" stroke="black" d="M61.21,-260.81C69.35,-249.9 81.21,-236.3 94.75,-228 121.03,-211.88 132.06,-218.34 161.75,-210 165.5,-208.94 169.39,-207.84 173.3,-206.72"/>
<polygon fill="black" stroke="black" points="174.33,-210.06 182.96,-203.92 172.38,-203.34 174.33,-210.06"/>
<text text-anchor="middle" x="104.75" y="-231.8" font-family="Times,serif" font-size="14.00">[1]</text>
</g>
<!-- 1 -->
<g id="node2" class="node">
<title>1</title>
<polygon fill="none" stroke="black" points="163.75,-297 109.75,-297 109.75,-261 163.75,-261 163.75,-297"/>
<text text-anchor="middle" x="136.75" y="-275.3" font-family="Times,serif" font-size="14.00">in1</text>
</g>
<!-- 1&#45;&gt;7 -->
<g id="edge4" class="edge">
<title>1&#45;&gt;7</title>
<path fill="none" stroke="black" d="M130.07,-260.8C125.48,-248.97 119.29,-233.03 114.06,-219.58"/>
<polygon fill="black" stroke="black" points="117.18,-217.94 110.3,-209.89 110.66,-220.47 117.18,-217.94"/>
<text text-anchor="middle" x="132.75" y="-231.8" font-family="Times,serif" font-size="14.00">[1]</text>
</g>
<!-- 1&#45;&gt;9 -->
<g id="edge5" class="edge">
<title>1&#45;&gt;9</title>
<path fill="none" stroke="black" d="M153.54,-260.8C165.93,-248.11 182.94,-230.69 196.62,-216.69"/>
<polygon fill="black" stroke="black" points="199.34,-218.91 203.82,-209.31 194.33,-214.02 199.34,-218.91"/>
<text text-anchor="middle" x="193.75" y="-231.8" font-family="Times,serif" font-size="14.00">[1]</text>
</g>
<!-- 2 -->
<g id="node3" class="node">
<title>2</title>
<polygon fill="none" stroke="black" points="356.75,-297 278.75,-297 278.75,-261 356.75,-261 356.75,-297"/>
<text text-anchor="middle" x="317.75" y="-275.3" font-family="Times,serif" font-size="14.00">bus_in_1</text>
</g>
<!-- 2&#45;&gt;9 -->
<g id="edge6" class="edge">
<title>2&#45;&gt;9</title>
<path fill="none" stroke="black" d="M297.91,-260.8C282.82,-247.71 261.93,-229.58 245.53,-215.37"/>
<polygon fill="black" stroke="black" points="247.74,-212.65 237.9,-208.74 243.16,-217.94 247.74,-212.65"/>
<text text-anchor="middle" x="283.75" y="-231.8" font-family="Times,serif" font-size="14.00">[1]</text>
</g>
<!-- 3 -->
<g id="node4" class="node">
<title>3</title>
<polygon fill="none" stroke="black" points="260.75,-297 182.75,-297 182.75,-261 260.75,-261 260.75,-297"/>
<text text-anchor="middle" x="221.75" y="-275.3" font-family="Times,serif" font-size="14.00">bus_in_0</text>
</g>
<!-- 3&#45;&gt;9 -->
<g id="edge7" class="edge">
<title>3&#45;&gt;9</title>
<path fill="none" stroke="black" d="M221.34,-260.8C221.07,-249.16 220.7,-233.55 220.39,-220.24"/>
<polygon fill="black" stroke="black" points="223.88,-220.09 220.15,-210.18 216.89,-220.26 223.88,-220.09"/>
<text text-anchor="middle" x="231.75" y="-231.8" font-family="Times,serif" font-size="14.00">[1]</text>
</g>
<!-- 4 -->
<g id="node5" class="node">
<title>4</title>
<polygon fill="none" stroke="black" points="75.75,-36 21.75,-36 21.75,0 75.75,0 75.75,-36"/>
<text text-anchor="middle" x="48.75" y="-14.3" font-family="Times,serif" font-size="14.00">out0</text>
</g>
<!-- 5 -->
<g id="node6" class="node">
<title>5</title>
<polygon fill="none" stroke="black" points="290.75,-36 202.75,-36 202.75,0 290.75,0 290.75,-36"/>
<text text-anchor="middle" x="246.75" y="-14.3" font-family="Times,serif" font-size="14.00">bus_out_1</text>
</g>
<!-- 6 -->
<g id="node7" class="node">
<title>6</title>
<polygon fill="none" stroke="black" points="184.75,-36 96.75,-36 96.75,0 184.75,0 184.75,-36"/>
<text text-anchor="middle" x="140.75" y="-14.3" font-family="Times,serif" font-size="14.00">bus_out_0</text>
</g>
<!-- 7&#45;&gt;8 -->
<g id="edge8" class="edge">
<title>7&#45;&gt;8</title>
<path fill="none" stroke="black" d="M92.88,-174.21C84.97,-161.98 74.12,-145.21 65.16,-131.36"/>
<polygon fill="black" stroke="black" points="67.96,-129.25 59.59,-122.76 62.08,-133.06 67.96,-129.25"/>
<text text-anchor="middle" x="89.75" y="-144.8" font-family="Times,serif" font-size="14.00">[1]</text>
</g>
<!-- 8&#45;&gt;4 -->
<g id="edge9" class="edge">
<title>8&#45;&gt;4</title>
<path fill="none" stroke="black" d="M48.75,-86.8C48.75,-75.16 48.75,-59.55 48.75,-46.24"/>
<polygon fill="black" stroke="black" points="52.25,-46.18 48.75,-36.18 45.25,-46.18 52.25,-46.18"/>
<text text-anchor="middle" x="58.75" y="-57.8" font-family="Times,serif" font-size="14.00">[1]</text>
</g>
<!-- 10 -->
<g id="node11" class="node">
<title>10</title>
<ellipse fill="none" stroke="black" cx="219.75" cy="-105" rx="48.99" ry="18"/>
<text text-anchor="middle" x="219.75" y="-101.3" font-family="Times,serif" font-size="14.00">inst_2_1</text>
</g>
<!-- 9&#45;&gt;10 -->
<g id="edge10" class="edge">
<title>9&#45;&gt;10</title>
<path fill="none" stroke="black" d="M219.75,-173.8C219.75,-162.16 219.75,-146.55 219.75,-133.24"/>
<polygon fill="black" stroke="black" points="223.25,-133.18 219.75,-123.18 216.25,-133.18 223.25,-133.18"/>
<text text-anchor="middle" x="229.75" y="-144.8" font-family="Times,serif" font-size="14.00">[4]</text>
</g>
<!-- 10&#45;&gt;5 -->
<g id="edge11" class="edge">
<title>10&#45;&gt;5</title>
<path fill="none" stroke="black" d="M225.21,-86.8C228.94,-75.05 233.96,-59.24 238.22,-45.84"/>
<polygon fill="black" stroke="black" points="241.6,-46.77 241.29,-36.18 234.93,-44.65 241.6,-46.77"/>
<text text-anchor="middle" x="245.75" y="-57.8" font-family="Times,serif" font-size="14.00">[1]</text>
</g>
<!-- 10&#45;&gt;6 -->
<g id="edge12" class="edge">
<title>10&#45;&gt;6</title>
<path fill="none" stroke="black" d="M204.51,-87.61C192.94,-75.16 176.82,-57.81 163.69,-43.68"/>
<polygon fill="black" stroke="black" points="166.12,-41.16 156.74,-36.21 160.99,-45.92 166.12,-41.16"/>
<text text-anchor="middle" x="195.75" y="-57.8" font-family="Times,serif" font-size="14.00">[1]</text>
</g>
</g>
</svg>
