<?xml version="1.0" encoding="UTF-8" standalone="no"?>
<!DOCTYPE svg PUBLIC "-//W3C//DTD SVG 1.1//EN"
 "http://www.w3.org/Graphics/SVG/1.1/DTD/svg11.dtd">
<!-- Generated by graphviz version 2.43.0 (0)
 -->
<!-- Title: %3 Pages: 1 -->
<svg width="263pt" height="305pt"
 viewBox="0.00 0.00 263.49 305.00" xmlns="http://www.w3.org/2000/svg" xmlns:xlink="http://www.w3.org/1999/xlink">
<g id="graph0" class="graph" transform="scale(1 1) rotate(0) translate(4 301)">
<title>%3</title>
<polygon fill="white" stroke="transparent" points="-4,4 -4,-301 259.49,-301 259.49,4 -4,4"/>
<!-- 0 -->
<g id="node1" class="node">
<title>0</title>
<polygon fill="none" stroke="black" points="63.75,-297 9.75,-297 9.75,-261 63.75,-261 63.75,-297"/>
<text text-anchor="middle" x="36.75" y="-275.3" font-family="Times,serif" font-size="14.00">in0</text>
</g>
<!-- 5 -->
<g id="node6" class="node">
<title>5</title>
<ellipse fill="none" stroke="black" cx="90.75" cy="-192" rx="48.99" ry="18"/>
<text text-anchor="middle" x="90.75" y="-188.3" font-family="Times,serif" font-size="14.00">inst_1_0</text>
</g>
<!-- 0&#45;&gt;5 -->
<g id="edge3" class="edge">
<title>0&#45;&gt;5</title>
<path fill="none" stroke="black" d="M33.28,-260.77C32.13,-250.63 32.3,-237.89 37.75,-228 41.14,-221.84 46.14,-216.57 51.73,-212.14"/>
<polygon fill="black" stroke="black" points="54.01,-214.81 60.22,-206.23 50.01,-209.07 54.01,-214.81"/>
<text text-anchor="middle" x="47.75" y="-231.8" font-family="Times,serif" font-size="14.00">[1]</text>
</g>
<!-- 6 -->
<g id="node7" class="node">
<title>6</title>
<ellipse fill="none" stroke="black" cx="48.75" cy="-105" rx="48.99" ry="18"/>
<text text-anchor="middle" x="48.75" y="-101.3" font-family="Times,serif" font-size="14.00">inst_1_1</text>
</g>
<!-- 0&#45;&gt;6 -->
<g id="edge2" class="edge">
<title>0&#45;&gt;6</title>
<path fill="none" stroke="black" d="M27.7,-260.66C18.07,-239.98 5.2,-204.39 12.75,-174 16.47,-159.02 24.16,-143.71 31.49,-131.42"/>
<polygon fill="black" stroke="black" points="34.62,-133 36.94,-122.66 28.68,-129.3 34.62,-133"/>
<text text-anchor="middle" x="22.75" y="-188.3" font-family="Times,serif" font-size="14.00">[1]</text>
</g>
<!-- 7 -->
<g id="node8" class="node">
<title>7</title>
<ellipse fill="none" stroke="black" cx="206.75" cy="-192" rx="48.99" ry="18"/>
<text text-anchor="middle" x="206.75" y="-188.3" font-family="Times,serif" font-size="14.00">inst_2_0</text>
</g>
<!-- 0&#45;&gt;7 -->
<g id="edge1" class="edge">
<title>0&#45;&gt;7</title>
<path fill="none" stroke="black" d="M48.9,-260.86C57.48,-249.96 69.88,-236.38 83.75,-228 109.41,-212.51 119.92,-218.22 148.75,-210 152.5,-208.93 156.38,-207.81 160.29,-206.68"/>
<polygon fill="black" stroke="black" points="161.33,-210.03 169.95,-203.87 159.37,-203.31 161.33,-210.03"/>
<text text-anchor="middle" x="93.75" y="-231.8" font-family="Times,serif" font-size="14.00">[1]</text>
</g>
<!-- 1 -->
<g id="node2" class="node">
<title>1</title>
<polygon fill="none" stroke="black" points="154.75,-297 100.75,-297 100.75,-261 154.75,-261 154.75,-297"/>
<text text-anchor="middle" x="127.75" y="-275.3" font-family="Times,serif" font-size="14.00">in1</text>
</g>
<!-- 1&#45;&gt;5 -->
<g id="edge4" class="edge">
<title>1&#45;&gt;5</title>
<path fill="none" stroke="black" d="M120.26,-260.8C115.06,-248.85 108.03,-232.72 102.14,-219.18"/>
<polygon fill="black" stroke="black" points="105.3,-217.66 98.1,-209.89 98.88,-220.45 105.3,-217.66"/>
<text text-anchor="middle" x="121.75" y="-231.8" font-family="Times,serif" font-size="14.00">[1]</text>
</g>
<!-- 1&#45;&gt;7 -->
<g id="edge5" class="edge">
<title>1&#45;&gt;7</title>
<path fill="none" stroke="black" d="M143.73,-260.8C155.53,-248.11 171.71,-230.69 184.73,-216.69"/>
<polygon fill="black" stroke="black" points="187.34,-219.02 191.59,-209.31 182.22,-214.25 187.34,-219.02"/>
<text text-anchor="middle" x="182.75" y="-231.8" font-family="Times,serif" font-size="14.00">[1]</text>
</g>
<!-- 2 -->
<g id="node3" class="node">
<title>2</title>
<polygon fill="none" stroke="black" points="239.75,-297 177.75,-297 177.75,-261 239.75,-261 239.75,-297"/>
<text text-anchor="middle" x="208.75" y="-275.3" font-family="Times,serif" font-size="14.00">bus_in</text>
</g>
<!-- 2&#45;&gt;7 -->
<g id="edge6" class="edge">
<title>2&#45;&gt;7</title>
<path fill="none" stroke="black" d="M208.34,-260.8C208.07,-249.16 207.7,-233.55 207.39,-220.24"/>
<polygon fill="black" stroke="black" points="210.88,-220.09 207.15,-210.18 203.89,-220.26 210.88,-220.09"/>
<text text-anchor="middle" x="218.75" y="-231.8" font-family="Times,serif" font-size="14.00">[2]</text>
</g>
<!-- 3 -->
<g id="node4" class="node">
<title>3</title>
<polygon fill="none" stroke="black" points="75.75,-36 21.75,-36 21.75,0 75.75,0 75.75,-36"/>
<text text-anchor="middle" x="48.75" y="-14.3" font-family="Times,serif" font-size="14.00">out0</text>
</g>
<!-- 4 -->
<g id="node5" class="node">
<title>4</title>
<polygon fill="none" stroke="black" points="242.75,-36 170.75,-36 170.75,0 242.75,0 242.75,-36"/>
<text text-anchor="middle" x="206.75" y="-14.3" font-family="Times,serif" font-size="14.00">bus_out</text>
</g>
<!-- 5&#45;&gt;6 -->
<g id="edge7" class="edge">
<title>5&#45;&gt;6</title>
<path fill="none" stroke="black" d="M82.45,-174.21C76.47,-162.1 68.28,-145.53 61.47,-131.76"/>
<polygon fill="black" stroke="black" points="64.59,-130.17 57.03,-122.76 58.32,-133.27 64.59,-130.17"/>
<text text-anchor="middle" x="82.75" y="-144.8" font-family="Times,serif" font-size="14.00">[1]</text>
</g>
<!-- 6&#45;&gt;3 -->
<g id="edge8" class="edge">
<title>6&#45;&gt;3</title>
<path fill="none" stroke="black" d="M48.75,-86.8C48.75,-75.16 48.75,-59.55 48.75,-46.24"/>
<polygon fill="black" stroke="black" points="52.25,-46.18 48.75,-36.18 45.25,-46.18 52.25,-46.18"/>
<text text-anchor="middle" x="58.75" y="-57.8" font-family="Times,serif" font-size="14.00">[1]</text>
</g>
<!-- 8 -->
<g id="node9" class="node">
<title>8</title>
<ellipse fill="none" stroke="black" cx="206.75" cy="-105" rx="48.99" ry="18"/>
<text text-anchor="middle" x="206.75" y="-101.3" font-family="Times,serif" font-size="14.00">inst_2_1</text>
</g>
<!-- 7&#45;&gt;8 -->
<g id="edge9" class="edge">
<title>7&#45;&gt;8</title>
<path fill="none" stroke="black" d="M206.75,-173.8C206.75,-162.16 206.75,-146.55 206.75,-133.24"/>
<polygon fill="black" stroke="black" points="210.25,-133.18 206.75,-123.18 203.25,-133.18 210.25,-133.18"/>
<text text-anchor="middle" x="216.75" y="-144.8" font-family="Times,serif" font-size="14.00">[4]</text>
</g>
<!-- 8&#45;&gt;4 -->
<g id="edge10" class="edge">
<title>8&#45;&gt;4</title>
<path fill="none" stroke="black" d="M206.75,-86.8C206.75,-75.16 206.75,-59.55 206.75,-46.24"/>
<polygon fill="black" stroke="black" points="210.25,-46.18 206.75,-36.18 203.25,-46.18 210.25,-46.18"/>
<text text-anchor="middle" x="216.75" y="-57.8" font-family="Times,serif" font-size="14.00">[2]</text>
</g>
</g>
</svg>
