<?xml version="1.0" encoding="utf-8" ?>
<svg xmlns="http://www.w3.org/2000/svg" xmlns:ev="http://www.w3.org/2001/xml-events" xmlns:xlink="http://www.w3.org/1999/xlink" baseProfile="full" height="82" version="1.1" viewBox="0,-82,82,82" width="82">
    <defs>
        <style type="text/css"><![CDATA[
.boundary{stroke:grey; fill:none; stroke-width:0.2}
text{font-family: Lato; font-size:1.2px;}
symbol * { stroke-width:0.1; stroke:black;}
.marker{stroke: red;opacity: 0.1;stroke-width: 0.1px;}
symbol[id="cbx"] * { fill:#d9d9f3;}
symbol[id="cby"] * { fill:#a8d0db;}
symbol[id*="sb"] * { fill:#ceefe4;}
rect[class="lb"] { fill:#f4f0e6; }
symbol[id*="io_"] * { fill:#f8b155;}
symbol[id='mcu'] * { fill:#ECCCB2;}
symbol[id='new_mcu_module'] * { fill:#a8dd00; opacity: 0.5}
]]></style>
        <symbol id="cbx">
            <rect class="routing" height="4" width="10" x="0.0" y="0"/>
        </symbol>
        <symbol id="cby">
            <rect class="routing" height="10" width="4" x="0" y="0.0"/>
        </symbol>
        <symbol id="io_top">
            <rect class="lb" height="10" width="10" x="0" y="0"/>
        </symbol>
        <symbol id="io_right">
            <rect class="lb" height="10" width="10" x="0" y="0"/>
        </symbol>
        <symbol id="io_bottom">
            <rect class="lb" height="10" width="10" x="0" y="0"/>
        </symbol>
        <symbol id="io_left">
            <rect class="lb" height="10" width="10" x="0" y="0"/>
        </symbol>
        <symbol id="clb">
            <rect class="lb" height="10" width="10" x="0" y="0"/>
        </symbol>
        <symbol id="mcu">
            <rect class="lb" height="24" width="24" x="0" y="0"/>
        </symbol>
        <symbol id="dsp">
            <rect class="lb" height="24" width="10" x="0" y="0"/>
        </symbol>
        <symbol id="ram9k">
            <rect class="lb" height="10" width="24" x="0" y="0"/>
        </symbol>
        <symbol id="sb" x="-0.0" y="-0.0">
            <path d="M 0.0 0 v 0.0 h -0.0 v 4 h 0.0 v 0.0 h 4 v -0.0 h 0.0 v -4 h -0.0 v -0.0 z"/>
        </symbol>
        <symbol id="sb00" x="-0.0" y="-0.0">
            <path d="M 0.0 0 v 0.0 h -0.0 v 4 h 0.0 v 0.0 h 4 v -0.0 h 0.0 v -4 h -0.0 v -0.0 z"/>
        </symbol>
        <symbol id="sb01" x="-0.0" y="-0.0">
            <path d="M 0.0 0 v 0.0 h -0.0 v 4 h 0.0 v 0.0 h 4 v -0.0 h 0.0 v -4 h -0.0 v -0.0 z"/>
        </symbol>
        <symbol id="sb02" x="-0.0" y="-0.0">
            <path d="M 0.0 0 v 0.0 h -0.0 v 4 h 0.0 v 0.0 h 4 v -0.0 h 0.0 v -4 h -0.0 v -0.0 z"/>
        </symbol>
        <symbol id="sb03" x="-0.0" y="-0.0">
            <path d="M 0.0 0 v 0.0 h -0.0 v 4 h 0.0 v 0.0 h 4 v -0.0 h 0.0 v -4 h -0.0 v -0.0 z"/>
        </symbol>
        <symbol id="sb04" x="-0.0" y="-0.0">
            <path d="M 0.0 0 v 0.0 h -0.0 v 4 h 0.0 v 0.0 h 4 v -0.0 h 0.0 v -4 h -0.0 v -0.0 z"/>
        </symbol>
        <symbol id="sb05" x="-0.0" y="-0.0">
            <path d="M 0.0 0 v 0.0 h -0.0 v 4 h 0.0 v 0.0 h 4 v -0.0 h 0.0 v -4 h -0.0 v -0.0 z"/>
        </symbol>
        <symbol id="sb06" x="-0.0" y="-0.0">
            <path d="M 0.0 0 v 0.0 h -0.0 v 4 h 0.0 v 0.0 h 4 v -0.0 h 0.0 v -4 h -0.0 v -0.0 z"/>
        </symbol>
        <symbol id="sb07" x="-0.0" y="-0.0">
            <path d="M 0.0 0 v 0.0 h -0.0 v 4 h 0.0 v 0.0 h 4 v -0.0 h 0.0 v -4 h -0.0 v -0.0 z"/>
        </symbol>
        <symbol id="sb08" x="-0.0" y="-0.0">
            <path d="M 0.0 0 v 0.0 h -0.0 v 4 h 0.0 v 0.0 h 4 v -0.0 h 0.0 v -4 h -0.0 v -0.0 z"/>
        </symbol>
        <symbol id="sb09" x="-0.0" y="-0.0">
            <path d="M 0.0 0 v 0.0 h -0.0 v 4 h 0.0 v 0.0 h 4 v -0.0 h 0.0 v -4 h -0.0 v -0.0 z"/>
        </symbol>
        <symbol id="sb10" x="-0.0" y="-0.0">
            <path d="M 0.0 0 v 0.0 h -0.0 v 4 h 0.0 v 0.0 h 4 v -0.0 h 0.0 v -4 h -0.0 v -0.0 z"/>
        </symbol>
        <symbol height="32.0" id="new_mcu_module" viewBox="0.0 0.0 24.0 32.0" width="24.0" x="0.0" y="0.0">
            <path d="M 0 0 h 24 v 32 h -24 v -32  z"/>
        </symbol>
    </defs>
    <g id="main" transform="scale(1,-1)">
        <rect class="boundary" height="82" id="core_boundary" width="82" x="0" y="0"/>
        <g id="main_shapes">
            <use id="sb_0__0_" x="10" xlink:href="#sb01" y="10"/>
            <use id="cby_0__1_" x="10" xlink:href="#cby" y="14.0"/>
            <use id="sb_0__1_" x="10" xlink:href="#sb09" y="24"/>
            <use id="cby_0__2_" x="10" xlink:href="#cby" y="28.0"/>
            <use id="sb_0__2_" x="10" xlink:href="#sb02" y="38"/>
            <use id="cby_0__3_" x="10" xlink:href="#cby" y="42.0"/>
            <use id="sb_0__3_" x="10" xlink:href="#sb02" y="52"/>
            <use id="cby_0__4_" x="10" xlink:href="#cby" y="56.0"/>
            <use id="sb_0__4_" x="10" xlink:href="#sb03" y="66"/>
            <use id="cbx_1__0_" x="14.0" xlink:href="#cbx" y="10"/>
            <use id="mcu_1__1_" x="14.0" xlink:href="#mcu" y="14.0"/>
            <use id="cbx_1__2_" x="14.0" xlink:href="#cbx" y="38"/>
            <use id="clb_1__3_" x="14.0" xlink:href="#clb" y="42.0"/>
            <use id="cbx_1__3_" x="14.0" xlink:href="#cbx" y="52"/>
            <use id="clb_1__4_" x="14.0" xlink:href="#clb" y="56.0"/>
            <use id="cbx_1__4_" x="14.0" xlink:href="#cbx" y="66"/>
            <use id="sb_1__0_" x="24" xlink:href="#sb10" y="10"/>
            <use id="sb_1__2_" x="24" xlink:href="#sb08" y="38"/>
            <use id="cby_1__3_" x="24" xlink:href="#cby" y="42.0"/>
            <use id="sb_1__3_" x="24" xlink:href="#sb00" y="52"/>
            <use id="cby_1__4_" x="24" xlink:href="#cby" y="56.0"/>
            <use id="sb_1__4_" x="24" xlink:href="#sb04" y="66"/>
            <use id="cbx_2__0_" x="28.0" xlink:href="#cbx" y="10"/>
            <use id="cbx_2__2_" x="28.0" xlink:href="#cbx" y="38"/>
            <use id="clb_2__3_" x="28.0" xlink:href="#clb" y="42.0"/>
            <use id="cbx_2__3_" x="28.0" xlink:href="#cbx" y="52"/>
            <use id="clb_2__4_" x="28.0" xlink:href="#clb" y="56.0"/>
            <use id="cbx_2__4_" x="28.0" xlink:href="#cbx" y="66"/>
            <use id="sb_2__0_" x="38" xlink:href="#sb08" y="10"/>
            <use id="cby_2__1_" x="38" xlink:href="#cby" y="14.0"/>
            <use id="sb_2__1_" x="38" xlink:href="#sb02" y="24"/>
            <use id="cby_2__2_" x="38" xlink:href="#cby" y="28.0"/>
            <use id="sb_2__2_" x="38" xlink:href="#sb00" y="38"/>
            <use id="cby_2__3_" x="38" xlink:href="#cby" y="42.0"/>
            <use id="sb_2__3_" x="38" xlink:href="#sb00" y="52"/>
            <use id="cby_2__4_" x="38" xlink:href="#cby" y="56.0"/>
            <use id="sb_2__4_" x="38" xlink:href="#sb04" y="66"/>
            <use id="cbx_3__0_" x="42.0" xlink:href="#cbx" y="10"/>
            <use id="clb_3__1_" x="42.0" xlink:href="#clb" y="14.0"/>
            <use id="cbx_3__1_" x="42.0" xlink:href="#cbx" y="24"/>
            <use id="clb_3__2_" x="42.0" xlink:href="#clb" y="28.0"/>
            <use id="cbx_3__2_" x="42.0" xlink:href="#cbx" y="38"/>
            <use id="clb_3__3_" x="42.0" xlink:href="#clb" y="42.0"/>
            <use id="cbx_3__3_" x="42.0" xlink:href="#cbx" y="52"/>
            <use id="clb_3__4_" x="42.0" xlink:href="#clb" y="56.0"/>
            <use id="cbx_3__4_" x="42.0" xlink:href="#cbx" y="66"/>
            <use id="sb_3__0_" x="52" xlink:href="#sb08" y="10"/>
            <use id="cby_3__1_" x="52" xlink:href="#cby" y="14.0"/>
            <use id="sb_3__1_" x="52" xlink:href="#sb00" y="24"/>
            <use id="cby_3__2_" x="52" xlink:href="#cby" y="28.0"/>
            <use id="sb_3__2_" x="52" xlink:href="#sb00" y="38"/>
            <use id="cby_3__3_" x="52" xlink:href="#cby" y="42.0"/>
            <use id="sb_3__3_" x="52" xlink:href="#sb00" y="52"/>
            <use id="cby_3__4_" x="52" xlink:href="#cby" y="56.0"/>
            <use id="sb_3__4_" x="52" xlink:href="#sb04" y="66"/>
            <use id="cbx_4__0_" x="56.0" xlink:href="#cbx" y="10"/>
            <use id="clb_4__1_" x="56.0" xlink:href="#clb" y="14.0"/>
            <use id="cbx_4__1_" x="56.0" xlink:href="#cbx" y="24"/>
            <use id="clb_4__2_" x="56.0" xlink:href="#clb" y="28.0"/>
            <use id="cbx_4__2_" x="56.0" xlink:href="#cbx" y="38"/>
            <use id="clb_4__3_" x="56.0" xlink:href="#clb" y="42.0"/>
            <use id="cbx_4__3_" x="56.0" xlink:href="#cbx" y="52"/>
            <use id="clb_4__4_" x="56.0" xlink:href="#clb" y="56.0"/>
            <use id="cbx_4__4_" x="56.0" xlink:href="#cbx" y="66"/>
            <use id="sb_4__0_" x="66" xlink:href="#sb07" y="10"/>
            <use id="cby_4__1_" x="66" xlink:href="#cby" y="14.0"/>
            <use id="sb_4__1_" x="66" xlink:href="#sb06" y="24"/>
            <use id="cby_4__2_" x="66" xlink:href="#cby" y="28.0"/>
            <use id="sb_4__2_" x="66" xlink:href="#sb06" y="38"/>
            <use id="cby_4__3_" x="66" xlink:href="#cby" y="42.0"/>
            <use id="sb_4__3_" x="66" xlink:href="#sb06" y="52"/>
            <use id="cby_4__4_" x="66" xlink:href="#cby" y="56.0"/>
            <use id="sb_4__4_" x="66" xlink:href="#sb05" y="66"/>
            <use x="14.0" xlink:href="#new_mcu_module" y="10"/>
        </g>
        <g id="main_text">
            <text alignment-baseline="middle" text-anchor="middle" transform="scale(1,-1)" x="12.0" y="-12.0">sb_0__0_</text>
            <text alignment-baseline="middle" text-anchor="middle" transform="scale(1,-1)" x="12.0" y="-19.0">cby_0__1_</text>
            <text alignment-baseline="middle" text-anchor="middle" transform="scale(1,-1)" x="12.0" y="-26.0">sb_0__1_</text>
            <text alignment-baseline="middle" text-anchor="middle" transform="scale(1,-1)" x="12.0" y="-33.0">cby_0__2_</text>
            <text alignment-baseline="middle" text-anchor="middle" transform="scale(1,-1)" x="12.0" y="-40.0">sb_0__2_</text>
            <text alignment-baseline="middle" text-anchor="middle" transform="scale(1,-1)" x="12.0" y="-47.0">cby_0__3_</text>
            <text alignment-baseline="middle" text-anchor="middle" transform="scale(1,-1)" x="12.0" y="-54.0">sb_0__3_</text>
            <text alignment-baseline="middle" text-anchor="middle" transform="scale(1,-1)" x="12.0" y="-61.0">cby_0__4_</text>
            <text alignment-baseline="middle" text-anchor="middle" transform="scale(1,-1)" x="12.0" y="-68.0">sb_0__4_</text>
            <text alignment-baseline="middle" text-anchor="middle" transform="scale(1,-1)" x="19.0" y="-12.0">cbx_1__0_</text>
            <text alignment-baseline="middle" text-anchor="middle" transform="scale(1,-1)" x="26.0" y="-26.0">mcu_1__1_</text>
            <text alignment-baseline="middle" text-anchor="middle" transform="scale(1,-1)" x="19.0" y="-40.0">cbx_1__2_</text>
            <text alignment-baseline="middle" text-anchor="middle" transform="scale(1,-1)" x="19.0" y="-47.0">clb_1__3_</text>
            <text alignment-baseline="middle" text-anchor="middle" transform="scale(1,-1)" x="19.0" y="-54.0">cbx_1__3_</text>
            <text alignment-baseline="middle" text-anchor="middle" transform="scale(1,-1)" x="19.0" y="-61.0">clb_1__4_</text>
            <text alignment-baseline="middle" text-anchor="middle" transform="scale(1,-1)" x="19.0" y="-68.0">cbx_1__4_</text>
            <text alignment-baseline="middle" text-anchor="middle" transform="scale(1,-1)" x="26.0" y="-12.0">sb_1__0_</text>
            <text alignment-baseline="middle" text-anchor="middle" transform="scale(1,-1)" x="26.0" y="-40.0">sb_1__2_</text>
            <text alignment-baseline="middle" text-anchor="middle" transform="scale(1,-1)" x="26.0" y="-47.0">cby_1__3_</text>
            <text alignment-baseline="middle" text-anchor="middle" transform="scale(1,-1)" x="26.0" y="-54.0">sb_1__3_</text>
            <text alignment-baseline="middle" text-anchor="middle" transform="scale(1,-1)" x="26.0" y="-61.0">cby_1__4_</text>
            <text alignment-baseline="middle" text-anchor="middle" transform="scale(1,-1)" x="26.0" y="-68.0">sb_1__4_</text>
            <text alignment-baseline="middle" text-anchor="middle" transform="scale(1,-1)" x="33.0" y="-12.0">cbx_2__0_</text>
            <text alignment-baseline="middle" text-anchor="middle" transform="scale(1,-1)" x="33.0" y="-40.0">cbx_2__2_</text>
            <text alignment-baseline="middle" text-anchor="middle" transform="scale(1,-1)" x="33.0" y="-47.0">clb_2__3_</text>
            <text alignment-baseline="middle" text-anchor="middle" transform="scale(1,-1)" x="33.0" y="-54.0">cbx_2__3_</text>
            <text alignment-baseline="middle" text-anchor="middle" transform="scale(1,-1)" x="33.0" y="-61.0">clb_2__4_</text>
            <text alignment-baseline="middle" text-anchor="middle" transform="scale(1,-1)" x="33.0" y="-68.0">cbx_2__4_</text>
            <text alignment-baseline="middle" text-anchor="middle" transform="scale(1,-1)" x="40.0" y="-12.0">sb_2__0_</text>
            <text alignment-baseline="middle" text-anchor="middle" transform="scale(1,-1)" x="40.0" y="-19.0">cby_2__1_</text>
            <text alignment-baseline="middle" text-anchor="middle" transform="scale(1,-1)" x="40.0" y="-26.0">sb_2__1_</text>
            <text alignment-baseline="middle" text-anchor="middle" transform="scale(1,-1)" x="40.0" y="-33.0">cby_2__2_</text>
            <text alignment-baseline="middle" text-anchor="middle" transform="scale(1,-1)" x="40.0" y="-40.0">sb_2__2_</text>
            <text alignment-baseline="middle" text-anchor="middle" transform="scale(1,-1)" x="40.0" y="-47.0">cby_2__3_</text>
            <text alignment-baseline="middle" text-anchor="middle" transform="scale(1,-1)" x="40.0" y="-54.0">sb_2__3_</text>
            <text alignment-baseline="middle" text-anchor="middle" transform="scale(1,-1)" x="40.0" y="-61.0">cby_2__4_</text>
            <text alignment-baseline="middle" text-anchor="middle" transform="scale(1,-1)" x="40.0" y="-68.0">sb_2__4_</text>
            <text alignment-baseline="middle" text-anchor="middle" transform="scale(1,-1)" x="47.0" y="-12.0">cbx_3__0_</text>
            <text alignment-baseline="middle" text-anchor="middle" transform="scale(1,-1)" x="47.0" y="-19.0">clb_3__1_</text>
            <text alignment-baseline="middle" text-anchor="middle" transform="scale(1,-1)" x="47.0" y="-26.0">cbx_3__1_</text>
            <text alignment-baseline="middle" text-anchor="middle" transform="scale(1,-1)" x="47.0" y="-33.0">clb_3__2_</text>
            <text alignment-baseline="middle" text-anchor="middle" transform="scale(1,-1)" x="47.0" y="-40.0">cbx_3__2_</text>
            <text alignment-baseline="middle" text-anchor="middle" transform="scale(1,-1)" x="47.0" y="-47.0">clb_3__3_</text>
            <text alignment-baseline="middle" text-anchor="middle" transform="scale(1,-1)" x="47.0" y="-54.0">cbx_3__3_</text>
            <text alignment-baseline="middle" text-anchor="middle" transform="scale(1,-1)" x="47.0" y="-61.0">clb_3__4_</text>
            <text alignment-baseline="middle" text-anchor="middle" transform="scale(1,-1)" x="47.0" y="-68.0">cbx_3__4_</text>
            <text alignment-baseline="middle" text-anchor="middle" transform="scale(1,-1)" x="54.0" y="-12.0">sb_3__0_</text>
            <text alignment-baseline="middle" text-anchor="middle" transform="scale(1,-1)" x="54.0" y="-19.0">cby_3__1_</text>
            <text alignment-baseline="middle" text-anchor="middle" transform="scale(1,-1)" x="54.0" y="-26.0">sb_3__1_</text>
            <text alignment-baseline="middle" text-anchor="middle" transform="scale(1,-1)" x="54.0" y="-33.0">cby_3__2_</text>
            <text alignment-baseline="middle" text-anchor="middle" transform="scale(1,-1)" x="54.0" y="-40.0">sb_3__2_</text>
            <text alignment-baseline="middle" text-anchor="middle" transform="scale(1,-1)" x="54.0" y="-47.0">cby_3__3_</text>
            <text alignment-baseline="middle" text-anchor="middle" transform="scale(1,-1)" x="54.0" y="-54.0">sb_3__3_</text>
            <text alignment-baseline="middle" text-anchor="middle" transform="scale(1,-1)" x="54.0" y="-61.0">cby_3__4_</text>
            <text alignment-baseline="middle" text-anchor="middle" transform="scale(1,-1)" x="54.0" y="-68.0">sb_3__4_</text>
            <text alignment-baseline="middle" text-anchor="middle" transform="scale(1,-1)" x="61.0" y="-12.0">cbx_4__0_</text>
            <text alignment-baseline="middle" text-anchor="middle" transform="scale(1,-1)" x="61.0" y="-19.0">clb_4__1_</text>
            <text alignment-baseline="middle" text-anchor="middle" transform="scale(1,-1)" x="61.0" y="-26.0">cbx_4__1_</text>
            <text alignment-baseline="middle" text-anchor="middle" transform="scale(1,-1)" x="61.0" y="-33.0">clb_4__2_</text>
            <text alignment-baseline="middle" text-anchor="middle" transform="scale(1,-1)" x="61.0" y="-40.0">cbx_4__2_</text>
            <text alignment-baseline="middle" text-anchor="middle" transform="scale(1,-1)" x="61.0" y="-47.0">clb_4__3_</text>
            <text alignment-baseline="middle" text-anchor="middle" transform="scale(1,-1)" x="61.0" y="-54.0">cbx_4__3_</text>
            <text alignment-baseline="middle" text-anchor="middle" transform="scale(1,-1)" x="61.0" y="-61.0">clb_4__4_</text>
            <text alignment-baseline="middle" text-anchor="middle" transform="scale(1,-1)" x="61.0" y="-68.0">cbx_4__4_</text>
            <text alignment-baseline="middle" text-anchor="middle" transform="scale(1,-1)" x="68.0" y="-12.0">sb_4__0_</text>
            <text alignment-baseline="middle" text-anchor="middle" transform="scale(1,-1)" x="68.0" y="-19.0">cby_4__1_</text>
            <text alignment-baseline="middle" text-anchor="middle" transform="scale(1,-1)" x="68.0" y="-26.0">sb_4__1_</text>
            <text alignment-baseline="middle" text-anchor="middle" transform="scale(1,-1)" x="68.0" y="-33.0">cby_4__2_</text>
            <text alignment-baseline="middle" text-anchor="middle" transform="scale(1,-1)" x="68.0" y="-40.0">sb_4__2_</text>
            <text alignment-baseline="middle" text-anchor="middle" transform="scale(1,-1)" x="68.0" y="-47.0">cby_4__3_</text>
            <text alignment-baseline="middle" text-anchor="middle" transform="scale(1,-1)" x="68.0" y="-54.0">sb_4__3_</text>
            <text alignment-baseline="middle" text-anchor="middle" transform="scale(1,-1)" x="68.0" y="-61.0">cby_4__4_</text>
            <text alignment-baseline="middle" text-anchor="middle" transform="scale(1,-1)" x="68.0" y="-68.0">sb_4__4_</text>
        </g>
    </g>
</svg>
