<?xml version="1.0" encoding="UTF-8"?>
<!DOCTYPE svg PUBLIC "-//W3C//DTD SVG 1.1//EN" "http://www.w3.org/Graphics/SVG/1.1/DTD/svg11.dtd">
<!-- Creator: CorelDRAW X8 -->
<svg xmlns="http://www.w3.org/2000/svg" xml:space="preserve" width="1.24199in" height="1.20496in" version="1.1" style="shape-rendering:geometricPrecision; text-rendering:geometricPrecision; image-rendering:optimizeQuality; fill-rule:evenodd; clip-rule:evenodd"
viewBox="0 0 1217 1181"
 xmlns:xlink="http://www.w3.org/1999/xlink">
 <defs>
  <style type="text/css">
   <![CDATA[
    .str0 {stroke:red;stroke-width:2.71997;stroke-opacity:0.701961}
    .str1 {stroke:#FF4C4C;stroke-width:6.80571}
    .fil1 {fill:none}
    .fil0 {fill:none}
    .fil2 {fill:#373435}
    .fil3 {fill:#006184;fill-rule:nonzero}
    .fnt0 {font-style:italic;font-weight:bold;font-size:54.4264px;font-family:'Lato'}
   ]]>
  </style>
 </defs>
 <g id="Layer_x0020_1">
  <metadata id="CorelCorpID_0Corel-Layer"/>
  <g id="markers">
   <line class="fil0 str0" x1="100" y1="1097" x2="100" y2= "77" />
   <line class="fil0 str0" x1="304" y1="1097" x2="304" y2= "77" />
   <line class="fil0 str0" x1="508" y1="1097" x2="508" y2= "77" />
   <line class="fil0 str0" x1="712" y1="1097" x2="712" y2= "77" />
   <line class="fil0 str0" x1="917" y1="1097" x2="917" y2= "77" />
   <line class="fil0 str0" x1="1121" y1="1097" x2="1121" y2= "77" />
   <line class="fil0 str0" x1="100" y1="1097" x2="1121" y2= "1097" />
   <line class="fil0 str0" x1="100" y1="893" x2="1121" y2= "893" />
   <line class="fil0 str0" x1="100" y1="689" x2="1121" y2= "689" />
   <line class="fil0 str0" x1="100" y1="485" x2="1121" y2= "485" />
   <line class="fil0 str0" x1="100" y1="281" x2="1121" y2= "281" />
   <line class="fil0 str0" x1="100" y1="77" x2="1121" y2= "77" />
  </g>
  <g id="highlights">
   <rect class="fil1 str1" x="917" y="893" width="204" height="204"/>
   <rect class="fil1 str1" x="100" y="894" width="204" height="204"/>
   <rect class="fil1 str1" x="917" y="77" width="204" height="204"/>
   <rect class="fil1 str1" x="100" y="78" width="204" height="204"/>
  </g>
  <g id="Labels">
   <g transform="matrix(1 0 0 1 -462.858 423.609)">
    <text x="621" y="589"  class="fil2 fnt0">1, 1</text>
   </g>
   <g transform="matrix(1 0 0 1 355.915 423.609)">
    <text x="621" y="589"  class="fil2 fnt0">5, 1</text>
   </g>
   <g transform="matrix(1 0 0 1 -463.876 -392.802)">
    <text x="621" y="589"  class="fil2 fnt0">1, 5</text>
   </g>
   <g transform="matrix(1 0 0 1 354.892 -392.802)">
    <text x="621" y="589"  class="fil2 fnt0">5, 5</text>
   </g>
   <g transform="matrix(1 0 0 1 27.9327 563.825)">
    <text x="621" y="589"  class="fil2 fnt0">-, 0</text>
   </g>
   <g transform="matrix(1 0 0 1 -622.9 22.1417)">
    <text x="621" y="589"  class="fil2 fnt0">0, -</text>
   </g>
   <g transform="matrix(1 0 0 1 525.487 22.1417)">
    <text x="621" y="589"  class="fil2 fnt0">6, -</text>
   </g>
   <g transform="matrix(1 0 0 1 -53.3268 -549.731)">
    <text x="621" y="589"  class="fil2 fnt0">-, 6</text>
   </g>
   <g transform="matrix(1 0 0 1 -62.702 22.1417)">
    <text x="621" y="589"  class="fil2 fnt0">3, 3</text>
   </g>
   <g transform="matrix(1 0 0 1 -63.111 423.609)">
    <text x="621" y="589"  class="fil2 fnt0">3</text>
    <text x="653" y="589"  class="fil2 fnt0">, 1</text>
   </g>
   <g transform="matrix(1 0 0 1 -260.739 423.609)">
    <text x="621" y="589"  class="fil2 fnt0">2</text>
    <text x="653" y="589"  class="fil2 fnt0">, 1</text>
   </g>
   <g transform="matrix(1 0 0 1 139.413 423.609)">
    <text x="621" y="589"  class="fil2 fnt0">4</text>
    <text x="653" y="589"  class="fil2 fnt0">, 1</text>
   </g>
  </g>
  <g>
   <path class="fil3" d="M604 1065l0 116 -14 0 0 -116 14 0zm-2 -1l-9 -6 9 0 27 42 -9 6 -27 -42 9 0zm0 -6l-9 0 4 -7 5 7zm-32 45l-4 -3 27 -42 9 6 -28 42 -4 -3z"/>
  </g>
  <g>
   <path class="fil3" d="M604 832l0 116 -14 0 0 -116 14 0zm-2 -1l-9 -6 9 0 27 42 -9 6 -27 -42 9 0zm0 -6l-9 0 4 -6 5 6zm-32 45l-4 -3 27 -42 9 6 -28 42 -4 -3z"/>
  </g>
  <g>
   <path class="fil3" d="M604 660l0 117 -14 0 0 -117 14 0zm-2 -1l-9 -5 9 0 27 42 -9 5 -27 -42 9 0zm0 -5l-9 0 4 -7 5 7zm-32 44l-4 -2 27 -42 9 5 -28 42 -4 -3z"/>
  </g>
 </g>
</svg>
