<?xml version="1.0" encoding="UTF-8" standalone="no"?>
<!DOCTYPE svg PUBLIC "-//W3C//DTD SVG 1.1//EN"
 "http://www.w3.org/Graphics/SVG/1.1/DTD/svg11.dtd">
<!-- Generated by graphviz version 2.43.0 (0)
 -->
<!-- Title: example Pages: 1 -->
<svg width="1051pt" height="116pt"
 viewBox="0.00 0.00 1050.50 116.00" xmlns="http://www.w3.org/2000/svg" xmlns:xlink="http://www.w3.org/1999/xlink">
<g id="graph0" class="graph" transform="scale(1 1) rotate(0) translate(4 112)">
<title>example</title>
<polygon fill="white" stroke="transparent" points="-4,4 -4,-112 1046.5,-112 1046.5,4 -4,4"/>
<!-- OpeFPGA -->
<g id="node1" class="node">
<title>OpeFPGA</title>
<g id="a_node1"><a xlink:href="reference/openfpga/base.html" xlink:title="OpenFPGA" target="_top">
<polygon fill="none" stroke="black" points="227,-108 132,-108 132,-72 227,-72 227,-108"/>
<text text-anchor="middle" x="179.5" y="-86.3" font-family="Times,serif" font-size="14.00">OpenFPGA</text>
</a>
</g>
</g>
<!-- grid_matrics -->
<g id="node2" class="node">
<title>grid_matrics</title>
<polygon fill="none" stroke="black" points="107,-36 0,-36 0,0 107,0 107,-36"/>
<text text-anchor="middle" x="53.5" y="-14.3" font-family="Times,serif" font-size="14.00">grid_matrics</text>
</g>
<!-- OpeFPGA&#45;&gt;grid_matrics -->
<g id="edge1" class="edge">
<title>OpeFPGA&#45;&gt;grid_matrics</title>
<path fill="none" stroke="black" d="M148.68,-71.88C132.05,-62.64 111.34,-51.13 93.48,-41.21"/>
<polygon fill="black" stroke="black" points="94.88,-37.99 84.44,-36.19 91.48,-44.11 94.88,-37.99"/>
</g>
<!-- fpga_matrics -->
<g id="node3" class="node">
<title>fpga_matrics</title>
<polygon fill="none" stroke="black" points="234,-36 125,-36 125,0 234,0 234,-36"/>
<text text-anchor="middle" x="179.5" y="-14.3" font-family="Times,serif" font-size="14.00">fpga_matrics</text>
</g>
<!-- OpeFPGA&#45;&gt;fpga_matrics -->
<g id="edge2" class="edge">
<title>OpeFPGA&#45;&gt;fpga_matrics</title>
<path fill="none" stroke="black" d="M179.5,-71.7C179.5,-63.98 179.5,-54.71 179.5,-46.11"/>
<polygon fill="black" stroke="black" points="183,-46.1 179.5,-36.1 176,-46.1 183,-46.1"/>
</g>
<!-- fpga_grid_dimension_matrics -->
<g id="node4" class="node">
<title>fpga_grid_dimension_matrics</title>
<polygon fill="none" stroke="black" points="1042.5,-36 252.5,-36 252.5,0 1042.5,0 1042.5,-36"/>
<text text-anchor="middle" x="647.5" y="-14.3" font-family="Times,serif" font-size="14.00">fpga_grid_dimension_matrics &#45; This class contains the cordinates of the origins in each grid box in the FPGA</text>
</g>
<!-- OpeFPGA&#45;&gt;fpga_grid_dimension_matrics -->
<g id="edge3" class="edge">
<title>OpeFPGA&#45;&gt;fpga_grid_dimension_matrics</title>
<path fill="none" stroke="black" d="M227.38,-81.84C296.53,-71.5 426.69,-52.03 523.89,-37.49"/>
<polygon fill="black" stroke="black" points="524.41,-40.95 533.78,-36.01 523.37,-34.03 524.41,-40.95"/>
</g>
</g>
</svg>
