<svg xmlns="http://www.w3.org/2000/svg" xmlns:xlink="http://www.w3.org/1999/xlink" xmlns:s="https://github.com/nturley/netlistsvg" width="654" height="175">
  <style>svg {
    stroke:#000;
    fill:none;
  }
  text {
    fill:#000;
    stroke:none;
    font-size:10px;
    font-weight: bold;
    font-family: "Courier New", monospace;
  }
  .nodelabel {
    text-anchor: middle;
  }
  .inputPortLabel {
    text-anchor: end;
  }
  .splitjoinBody {
    fill:#000;
  }</style>
  <g s:type="generic" transform="translate(143,32)" s:width="30" s:height="40" id="cell_inst_1_11">
    <text x="15" y="-4" class="nodelabel cell_inst_1_11" s:attribute="ref">module1</text>
    <rect width="30" height="40" s:generic="body" class="cell_inst_1_11"/>
    <g transform="translate(0,10)" s:x="0" s:y="10" s:pid="in0" id="port_inst_1_11~in0">
      <text x="-3" y="-4" class="inputPortLabel cell_inst_1_11">in0</text>
    </g>
    <g transform="translate(0,30)" s:x="0" s:y="10" s:pid="in0" id="port_inst_1_11~in1">
      <text x="-3" y="-4" class="inputPortLabel cell_inst_1_11">in1</text>
    </g>
    <g transform="translate(30,10)" s:x="30" s:y="10" s:pid="out0" id="port_inst_1_11~out0">
      <text x="5" y="-4" style="fill:#000; stroke:none" class="cell_inst_1_11">out0</text>
    </g>
    <g transform="translate(30,30)" s:x="30" s:y="10" s:pid="out0" id="port_inst_1_11~out1">
      <text x="5" y="-4" style="fill:#000; stroke:none" class="cell_inst_1_11">out1</text>
    </g>
  </g>
  <g s:type="generic" transform="translate(143,120)" s:width="30" s:height="40" id="cell_inst_1_12">
    <text x="15" y="-4" class="nodelabel cell_inst_1_12" s:attribute="ref">module1</text>
    <rect width="30" height="40" s:generic="body" class="cell_inst_1_12"/>
    <g transform="translate(0,10)" s:x="0" s:y="10" s:pid="in0" id="port_inst_1_12~in0">
      <text x="-3" y="-4" class="inputPortLabel cell_inst_1_12">in0</text>
    </g>
    <g transform="translate(0,30)" s:x="0" s:y="10" s:pid="in0" id="port_inst_1_12~in1">
      <text x="-3" y="-4" class="inputPortLabel cell_inst_1_12">in1</text>
    </g>
    <g transform="translate(30,10)" s:x="30" s:y="10" s:pid="out0" id="port_inst_1_12~out0">
      <text x="5" y="-4" style="fill:#000; stroke:none" class="cell_inst_1_12">out0</text>
    </g>
    <g transform="translate(30,30)" s:x="30" s:y="10" s:pid="out0" id="port_inst_1_12~out1">
      <text x="5" y="-4" style="fill:#000; stroke:none" class="cell_inst_1_12">out1</text>
    </g>
  </g>
  <g s:type="generic" transform="translate(363,32)" s:width="30" s:height="40" id="cell_inst_1_21">
    <text x="15" y="-4" class="nodelabel cell_inst_1_21" s:attribute="ref">module1</text>
    <rect width="30" height="40" s:generic="body" class="cell_inst_1_21"/>
    <g transform="translate(0,10)" s:x="0" s:y="10" s:pid="in0" id="port_inst_1_21~in0">
      <text x="-3" y="-4" class="inputPortLabel cell_inst_1_21">in0</text>
    </g>
    <g transform="translate(0,30)" s:x="0" s:y="10" s:pid="in0" id="port_inst_1_21~in1">
      <text x="-3" y="-4" class="inputPortLabel cell_inst_1_21">in1</text>
    </g>
    <g transform="translate(30,10)" s:x="30" s:y="10" s:pid="out0" id="port_inst_1_21~out0">
      <text x="5" y="-4" style="fill:#000; stroke:none" class="cell_inst_1_21">out0</text>
    </g>
    <g transform="translate(30,30)" s:x="30" s:y="10" s:pid="out0" id="port_inst_1_21~out1">
      <text x="5" y="-4" style="fill:#000; stroke:none" class="cell_inst_1_21">out1</text>
    </g>
  </g>
  <g s:type="generic" transform="translate(363,120)" s:width="30" s:height="40" id="cell_inst_1_22">
    <text x="15" y="-4" class="nodelabel cell_inst_1_22" s:attribute="ref">module1</text>
    <rect width="30" height="40" s:generic="body" class="cell_inst_1_22"/>
    <g transform="translate(0,10)" s:x="0" s:y="10" s:pid="in0" id="port_inst_1_22~in0">
      <text x="-3" y="-4" class="inputPortLabel cell_inst_1_22">in0</text>
    </g>
    <g transform="translate(0,30)" s:x="0" s:y="10" s:pid="in0" id="port_inst_1_22~in1">
      <text x="-3" y="-4" class="inputPortLabel cell_inst_1_22">in1</text>
    </g>
    <g transform="translate(30,10)" s:x="30" s:y="10" s:pid="out0" id="port_inst_1_22~out0">
      <text x="5" y="-4" style="fill:#000; stroke:none" class="cell_inst_1_22">out0</text>
    </g>
    <g transform="translate(30,30)" s:x="30" s:y="10" s:pid="out0" id="port_inst_1_22~out1">
      <text x="5" y="-4" style="fill:#000; stroke:none" class="cell_inst_1_22">out1</text>
    </g>
  </g>
  <g s:type="generic" transform="translate(253,32)" s:width="30" s:height="40" id="cell_inst_2_11">
    <text x="15" y="-4" class="nodelabel cell_inst_2_11" s:attribute="ref">module2</text>
    <rect width="30" height="40" s:generic="body" class="cell_inst_2_11"/>
    <g transform="translate(0,10)" s:x="0" s:y="10" s:pid="in0" id="port_inst_2_11~in0">
      <text x="-3" y="-4" class="inputPortLabel cell_inst_2_11">in0</text>
    </g>
    <g transform="translate(0,30)" s:x="0" s:y="10" s:pid="in0" id="port_inst_2_11~in1">
      <text x="-3" y="-4" class="inputPortLabel cell_inst_2_11">in1</text>
    </g>
    <g transform="translate(30,10)" s:x="30" s:y="10" s:pid="out0" id="port_inst_2_11~out0">
      <text x="5" y="-4" style="fill:#000; stroke:none" class="cell_inst_2_11">out0</text>
    </g>
    <g transform="translate(30,30)" s:x="30" s:y="10" s:pid="out0" id="port_inst_2_11~out1">
      <text x="5" y="-4" style="fill:#000; stroke:none" class="cell_inst_2_11">out1</text>
    </g>
  </g>
  <g s:type="generic" transform="translate(253,120)" s:width="30" s:height="40" id="cell_inst_2_12">
    <text x="15" y="-4" class="nodelabel cell_inst_2_12" s:attribute="ref">module2</text>
    <rect width="30" height="40" s:generic="body" class="cell_inst_2_12"/>
    <g transform="translate(0,10)" s:x="0" s:y="10" s:pid="in0" id="port_inst_2_12~in0">
      <text x="-3" y="-4" class="inputPortLabel cell_inst_2_12">in0</text>
    </g>
    <g transform="translate(0,30)" s:x="0" s:y="10" s:pid="in0" id="port_inst_2_12~in1">
      <text x="-3" y="-4" class="inputPortLabel cell_inst_2_12">in1</text>
    </g>
    <g transform="translate(30,10)" s:x="30" s:y="10" s:pid="out0" id="port_inst_2_12~out0">
      <text x="5" y="-4" style="fill:#000; stroke:none" class="cell_inst_2_12">out0</text>
    </g>
    <g transform="translate(30,30)" s:x="30" s:y="10" s:pid="out0" id="port_inst_2_12~out1">
      <text x="5" y="-4" style="fill:#000; stroke:none" class="cell_inst_2_12">out1</text>
    </g>
  </g>
  <g s:type="generic" transform="translate(473,32)" s:width="30" s:height="40" id="cell_inst_2_21">
    <text x="15" y="-4" class="nodelabel cell_inst_2_21" s:attribute="ref">module2</text>
    <rect width="30" height="40" s:generic="body" class="cell_inst_2_21"/>
    <g transform="translate(0,10)" s:x="0" s:y="10" s:pid="in0" id="port_inst_2_21~in0">
      <text x="-3" y="-4" class="inputPortLabel cell_inst_2_21">in0</text>
    </g>
    <g transform="translate(0,30)" s:x="0" s:y="10" s:pid="in0" id="port_inst_2_21~in1">
      <text x="-3" y="-4" class="inputPortLabel cell_inst_2_21">in1</text>
    </g>
    <g transform="translate(30,10)" s:x="30" s:y="10" s:pid="out0" id="port_inst_2_21~out0">
      <text x="5" y="-4" style="fill:#000; stroke:none" class="cell_inst_2_21">out0</text>
    </g>
    <g transform="translate(30,30)" s:x="30" s:y="10" s:pid="out0" id="port_inst_2_21~out1">
      <text x="5" y="-4" style="fill:#000; stroke:none" class="cell_inst_2_21">out1</text>
    </g>
  </g>
  <g s:type="generic" transform="translate(473,120)" s:width="30" s:height="40" id="cell_inst_2_22">
    <text x="15" y="-4" class="nodelabel cell_inst_2_22" s:attribute="ref">module2</text>
    <rect width="30" height="40" s:generic="body" class="cell_inst_2_22"/>
    <g transform="translate(0,10)" s:x="0" s:y="10" s:pid="in0" id="port_inst_2_22~in0">
      <text x="-3" y="-4" class="inputPortLabel cell_inst_2_22">in0</text>
    </g>
    <g transform="translate(0,30)" s:x="0" s:y="10" s:pid="in0" id="port_inst_2_22~in1">
      <text x="-3" y="-4" class="inputPortLabel cell_inst_2_22">in1</text>
    </g>
    <g transform="translate(30,10)" s:x="30" s:y="10" s:pid="out0" id="port_inst_2_22~out0">
      <text x="5" y="-4" style="fill:#000; stroke:none" class="cell_inst_2_22">out0</text>
    </g>
    <g transform="translate(30,30)" s:x="30" s:y="10" s:pid="out0" id="port_inst_2_22~out1">
      <text x="5" y="-4" style="fill:#000; stroke:none" class="cell_inst_2_22">out1</text>
    </g>
  </g>
  <g s:type="inputExt" transform="translate(12,42.5)" s:width="30" s:height="20" id="cell_in">
    <text x="15" y="-4" class="nodelabel cell_in" s:attribute="ref">in</text>
    <s:alias val="$_inputExt_"/>
    <path d="M0,0 L0,20 L15,20 L30,10 L15,0 Z" class="cell_in"/>
    <g s:x="28" s:y="10" s:pid="Y"/>
  </g>
  <g s:type="outputExt" transform="translate(612,22.5)" s:width="30" s:height="20" id="cell_out">
    <text x="15" y="-4" class="nodelabel cell_out" s:attribute="ref">out</text>
    <s:alias val="$_outputExt_"/>
    <path d="M30,0 L30,20 L15,20 L0,10 L15,0 Z" class="cell_out"/>
    <g s:x="0" s:y="10" s:pid="A"/>
  </g>
  <g s:type="join" transform="translate(571,12)" s:width="4" s:height="40" id="cell_$join$,6,7,8,9,">
    <rect width="5" height="80" class="splitjoinBody" s:generic="body"/>
    <s:alias val="$_join_"/>
    <g s:x="5" s:y="20" s:pid="out"/>
    <g transform="translate(0,10)" s:x="0" s:y="10" s:pid="in0">
      <text x="-3" y="-4" class="inputPortLabel">0</text>
    </g>
    <g transform="translate(0,30)" s:x="0" s:y="10" s:pid="in0">
      <text x="-3" y="-4" class="inputPortLabel">1</text>
    </g>
    <g transform="translate(0,50)" s:x="0" s:y="10" s:pid="in0">
      <text x="-3" y="-4" class="inputPortLabel">2</text>
    </g>
    <g transform="translate(0,70)" s:x="0" s:y="10" s:pid="in0">
      <text x="-3" y="-4" class="inputPortLabel">3</text>
    </g>
  </g>
  <g s:type="split" transform="translate(77,32)" s:width="5" s:height="40" id="cell_$split$,2,3,4,5,">
    <rect width="5" height="80" class="splitjoinBody" s:generic="body"/>
    <s:alias val="$_split_"/>
    <g s:x="0" s:y="20" s:pid="in"/>
    <g transform="translate(4,10)" s:x="4" s:y="10" s:pid="out0">
      <text x="5" y="-4">1</text>
    </g>
    <g transform="translate(4,30)" s:x="4" s:y="10" s:pid="out0">
      <text x="5" y="-4">0</text>
    </g>
    <g transform="translate(4,50)" s:x="4" s:y="10" s:pid="out0">
      <text x="5" y="-4">3</text>
    </g>
    <g transform="translate(4,70)" s:x="4" s:y="10" s:pid="out0">
      <text x="5" y="-4">2</text>
    </g>
  </g>
  <line x1="82" x2="143" y1="42.5" y2="42.5" class="net_3"/>
  <line x1="82" x2="143" y1="62.5" y2="62.5" class="net_2"/>
  <line x1="82" x2="109" y1="82.5" y2="82.5" class="net_5"/>
  <line x1="109" x2="109" y1="82.5" y2="130.5" class="net_5"/>
  <line x1="109" x2="143" y1="130.5" y2="130.5" class="net_5"/>
  <line x1="82" x2="99" y1="102.5" y2="102.5" class="net_4"/>
  <line x1="99" x2="99" y1="102.5" y2="150.5" class="net_4"/>
  <line x1="99" x2="143" y1="150.5" y2="150.5" class="net_4"/>
  <line x1="284" x2="363" y1="42.5" y2="42.5" class="net_14"/>
  <line x1="284" x2="363" y1="62.5" y2="62.5" class="net_15"/>
  <line x1="284" x2="363" y1="130.5" y2="130.5" class="net_18"/>
  <line x1="284" x2="363" y1="150.5" y2="150.5" class="net_19"/>
  <line x1="174" x2="253" y1="42.5" y2="42.5" class="net_10"/>
  <line x1="174" x2="253" y1="62.5" y2="62.5" class="net_11"/>
  <line x1="174" x2="253" y1="130.5" y2="130.5" class="net_12"/>
  <line x1="174" x2="253" y1="150.5" y2="150.5" class="net_13"/>
  <line x1="394" x2="473" y1="42.5" y2="42.5" class="net_16"/>
  <line x1="394" x2="473" y1="62.5" y2="62.5" class="net_17"/>
  <line x1="394" x2="473" y1="130.5" y2="130.5" class="net_20"/>
  <line x1="394" x2="473" y1="150.5" y2="150.5" class="net_21"/>
  <line x1="577" x2="612" y1="32.5" y2="32.5" class="net_6,7,8,9"/>
  <line x1="504" x2="539" y1="62.5" y2="62.5" class="net_6"/>
  <line x1="539" x2="539" y1="62.5" y2="22.5" class="net_6"/>
  <line x1="539" x2="571" y1="22.5" y2="22.5" class="net_6"/>
  <line x1="504" x2="571" y1="42.5" y2="42.5" class="net_7"/>
  <line x1="504" x2="549" y1="150.5" y2="150.5" class="net_8"/>
  <line x1="549" x2="549" y1="150.5" y2="62.5" class="net_8"/>
  <line x1="549" x2="571" y1="62.5" y2="62.5" class="net_8"/>
  <line x1="504" x2="571.5" y1="130.5" y2="130.5" class="net_9"/>
  <line x1="571.5" x2="571.5" y1="130.5" y2="83" class="net_9"/>
  <line x1="40" x2="77" y1="52.5" y2="52.5" class="net_2,3,4,5"/>
</svg>
