<svg xmlns="http://www.w3.org/2000/svg" xmlns:xlink="http://www.w3.org/1999/xlink" xmlns:s="https://github.com/nturley/netlistsvg" width="329" height="129.5">
  <style>svg {
    stroke:#000;
    fill:none;
  }
  text {
    fill:#000;
    stroke:none;
    font-size:10px;
    font-weight: bold;
    font-family: "Courier New", monospace;
  }
  .nodelabel {
    text-anchor: middle;
  }
  .inputPortLabel {
    text-anchor: end;
  }
  .splitjoinBody {
    fill:#000;
  }</style>
  <g s:type="generic" transform="translate(108,32)" s:width="30" s:height="40" id="cell_merged_module_instance_0">
    <text x="15" y="-4" class="nodelabel cell_merged_module_instance_0" s:attribute="ref">merged_module</text>
    <rect width="30" height="80" s:generic="body" class="cell_merged_module_instance_0"/>
    <g transform="translate(0,10)" s:x="0" s:y="10" s:pid="in0" id="port_merged_module_instance_0~in0">
      <text x="-3" y="-4" class="inputPortLabel cell_merged_module_instance_0">in0</text>
    </g>
    <g transform="translate(0,30)" s:x="0" s:y="10" s:pid="in0" id="port_merged_module_instance_0~in0_0">
      <text x="-3" y="-4" class="inputPortLabel cell_merged_module_instance_0">in0_0</text>
    </g>
    <g transform="translate(0,50)" s:x="0" s:y="10" s:pid="in0" id="port_merged_module_instance_0~in1">
      <text x="-3" y="-4" class="inputPortLabel cell_merged_module_instance_0">in1</text>
    </g>
    <g transform="translate(0,70)" s:x="0" s:y="10" s:pid="in0" id="port_merged_module_instance_0~in1_0">
      <text x="-3" y="-4" class="inputPortLabel cell_merged_module_instance_0">in1_0</text>
    </g>
    <g transform="translate(30,10)" s:x="30" s:y="10" s:pid="out0" id="port_merged_module_instance_0~out">
      <text x="5" y="-4" style="fill:#000; stroke:none" class="cell_merged_module_instance_0">out</text>
    </g>
    <g transform="translate(30,30)" s:x="30" s:y="10" s:pid="out0" id="port_merged_module_instance_0~out_0">
      <text x="5" y="-4" style="fill:#000; stroke:none" class="cell_merged_module_instance_0">out_0</text>
    </g>
  </g>
  <g s:type="inputExt" transform="translate(12,32.5)" s:width="30" s:height="20" id="cell_in0">
    <text x="15" y="-4" class="nodelabel cell_in0" s:attribute="ref">in0</text>
    <s:alias val="$_inputExt_"/>
    <path d="M0,0 L0,20 L15,20 L30,10 L15,0 Z" class="cell_in0"/>
    <g s:x="28" s:y="10" s:pid="Y"/>
  </g>
  <g s:type="inputExt" transform="translate(12,97.5)" s:width="30" s:height="20" id="cell_in1">
    <text x="15" y="-4" class="nodelabel cell_in1" s:attribute="ref">in1</text>
    <s:alias val="$_inputExt_"/>
    <path d="M0,0 L0,20 L15,20 L30,10 L15,0 Z" class="cell_in1"/>
    <g s:x="28" s:y="10" s:pid="Y"/>
  </g>
  <g s:type="outputExt" transform="translate(287,52.5)" s:width="30" s:height="20" id="cell_out0">
    <text x="15" y="-4" class="nodelabel cell_out0" s:attribute="ref">out0</text>
    <s:alias val="$_outputExt_"/>
    <path d="M30,0 L30,20 L15,20 L0,10 L15,0 Z" class="cell_out0"/>
    <g s:x="0" s:y="10" s:pid="A"/>
  </g>
  <line x1="40" x2="108" y1="42.5" y2="42.5" class="net_2"/>
  <line x1="40" x2="52" y1="42.5" y2="42.5" class="net_2"/>
  <line x1="52" x2="52" y1="42.5" y2="102.5" class="net_2"/>
  <circle cx="52" cy="42.5" r="2" style="fill:#000" class="net_2"/>
  <line x1="52" x2="108" y1="102.5" y2="102.5" class="net_2"/>
  <line x1="139" x2="262" y1="42.5" y2="42.5" class="net_5"/>
  <line x1="262" x2="262" y1="42.5" y2="12" class="net_5"/>
  <line x1="262" x2="62" y1="12" y2="12" class="net_5"/>
  <line x1="62" x2="62" y1="12" y2="62.5" class="net_5"/>
  <line x1="62" x2="108" y1="62.5" y2="62.5" class="net_5"/>
  <line x1="40" x2="62" y1="107.5" y2="107.5" class="net_3"/>
  <line x1="62" x2="62" y1="107.5" y2="82.5" class="net_3"/>
  <line x1="62" x2="108" y1="82.5" y2="82.5" class="net_3"/>
  <line x1="139" x2="287" y1="62.5" y2="62.5" class="net_4"/>
</svg>
