<?xml version="1.0" encoding="UTF-8"?>
<!DOCTYPE svg PUBLIC "-//W3C//DTD SVG 1.1//EN" "http://www.w3.org/Graphics/SVG/1.1/DTD/svg11.dtd">
<!-- Creator: CorelDRAW X8 -->
<svg xmlns="http://www.w3.org/2000/svg" xml:space="preserve" width="5.20683in" height="1.57858in" version="1.1"
    style="shape-rendering:geometricPrecision; text-rendering:geometricPrecision; image-rendering:optimizeQuality; fill-rule:evenodd; clip-rule:evenodd"
    viewBox="0 0 12827 3889" xmlns:xlink="http://www.w3.org/1999/xlink">
    <defs>
        <style type="text/css">
            <![CDATA[
            .str4 {
                stroke: #373435;
                stroke-width: 41.0536
            }

            .str0 {
                stroke: #373435;
                stroke-width: 68.3742
            }

            .str1 {
                stroke: #373435;
                stroke-width: 51.2758
            }

            .str8 {
                stroke: #373435;
                stroke-width: 34.1871
            }

            .str5 {
                stroke: #373435;
                stroke-width: 41.0536;
                stroke-linejoin: round
            }

            .str3 {
                stroke: #373435;
                stroke-width: 34.2065;
                stroke-linejoin: round
            }

            .str6 {
                stroke: #373435;
                stroke-width: 51.2758;
                stroke-linecap: round
            }

            .str2 {
                stroke: #373435;
                stroke-width: 51.2758;
                stroke-linecap: round;
                stroke-linejoin: round
            }

            .str7 {
                stroke: #373435;
                stroke-width: 51.2758;
                stroke-dasharray: 256.330447 51.266089
            }

            .fil3 {
                fill: none
            }

            .fil0 {
                fill: none;
                fill-rule: nonzero
            }

            .fil2 {
                fill: #373435
            }

            .fil5 {
                fill: #CAD7DF
            }

            .fil1 {
                fill: #E2E8D8
            }

            .fil4 {
                fill: #373435;
                fill-rule: nonzero
            }

            .fil6 {
                fill: #F58634;
                fill-rule: nonzero
            }

            .fnt3 {
                font-style: italic;
                font-weight: normal;
                font-size: 239.319px;
                font-family: 'Lato'
            }

            .fnt2 {
                font-style: italic;
                font-weight: normal;
                font-size: 273.71px;
                font-family: 'Lato'
            }

            .fnt6 {
                font-style: italic;
                font-weight: normal;
                font-size: 341.91px;
                font-family: 'Lato'
            }

            .fnt4 {
                font-style: italic;
                font-weight: bold;
                font-size: 384.67px;
                font-family: 'Lato'
            }

            .fnt7 {
                font-style: italic;
                font-weight: normal;
                font-size: 410.274px;
                font-family: 'Lato'
            }

            .fnt0 {
                font-style: italic;
                font-weight: bold;
                font-size: 410.284px;
                font-family: 'Lato'
            }

            .fnt1 {
                font-style: italic;
                font-weight: bold;
                font-size: 478.668px;
                font-family: 'Lato'
            }

            .fnt5 {
                font-style: italic;
                font-weight: bold;
                font-size: 547.052px;
                font-family: 'Lato'
            }
            ]]>
        </style>
    </defs>
    <g id="Layer_x0020_1">
        <metadata id="CorelCorpID_0Corel-Layer" />
        <path class="fil0 str0"
            d="M8717 847l3499 0c35,0 70,22 70,45l0 1952c0,22 -35,45 -70,45l-3499 0c-46,0 -70,-23 -70,-45l0 -1952c0,-23 24,-45 70,-45z" />
        <path class="fil1 str1"
            d="M8903 1189l1238 0c0,0 25,0 25,0l0 1404c0,33 -25,33 -25,33l-1238 0c0,0 -24,0 -24,-33l0 -1404c0,0 24,0 24,0z" />
        <g id="_2751383435152">
            <g transform="matrix(1 0 0 1 6448.07 6962.87)">
                <text x="2603" y="-4908" class="fil2 fnt0">LUT4</text>
            </g>
        </g>
        <g id="_2808201129696">
            <path class="fil1 str1"
                d="M10592 1515l767 0c0,0 0,25 0,25l0 1040c0,0 0,24 0,24l-767 0c0,0 -25,-24 -25,-24l0 -1040c0,0 25,-25 25,-25z" />
            <g>
                <g transform="matrix(1 0 0 1 8125.17 7127.35)">
                    <text x="2603" y="-4908" class="fil2 fnt1">FF</text>
                </g>
            </g>
        </g>
        <polygon class="fil1 str2" points="11755,1070 12052,1268 12052,1788 11755,1986 " />
        <line class="fil3 str2" x1="11384" y1="1812" x2="11755" y2="1812" />
        <line class="fil3 str2" x1="10171" y1="1342" x2="11755" y2="1342" />
        <polyline class="fil3 str2" points="10567,1713 10344,1713 10344,1342 10171,1342 " />
        <g id="_2808201135104">
            <path class="fil4"
                d="M12052 1540c0,0 -25,-25 -25,-25 0,-24 25,-24 25,-24l0 49zm470 0l-470 0 0 -49 470 0 0 49zm-74 -99l124 0 0 124 -124 0 0 -124zm74 50c0,0 25,0 25,24 0,0 -25,25 -25,25l0 -49z" />
        </g>
        <path class="fil4" d="M8424 1387l0 99 -49 0 0 -99 49 0zm455 74l-484 0 0 -49 484 0 0 49z" />
        <path class="fil4" d="M8424 1711l0 124 -49 0 0 -124 49 0zm455 99l-484 0 0 -49 484 0 0 49z" />
        <path class="fil4" d="M8424 2060l0 99 -49 0 0 -99 49 0zm455 74l-484 0 0 -50 484 0 0 50z" />
        <path class="fil4" d="M8424 2381l0 109 -49 0 0 -109 49 0zm455 82l-484 0 0 -43 484 0 0 43z" />
        <g transform="matrix(1 0 0 1 5336.44 6416.77)">
            <text x="2603" y="-4908" class="fil2 fnt2">in0</text>
        </g>
        <g transform="matrix(1 0 0 1 5343.35 6761.12)">
            <text x="2603" y="-4908" class="fil2 fnt2">in1</text>
        </g>
        <g transform="matrix(1 0 0 1 5338.74 7104.52)">
            <text x="2603" y="-4908" class="fil2 fnt2">in2</text>
        </g>
        <g transform="matrix(1 0 0 1 5338.74 7446.96)">
            <text x="2603" y="-4908" class="fil2 fnt2">in3</text>
        </g>
        <polyline class="fil3 str3" points="11025,2604 10964,2496 10901,2604 " />
        <line class="fil3 str4" x1="10959" y1="2604" x2="10959" y2="3078" />
        <polyline class="fil3 str5" points="10554,2385 10387,2385 10387,3086 " />
        <g id="_2751661770480">
            <g transform="matrix(1 0 0 1 7045.78 8053.31)">
                <text x="2603" y="-4908" class="fil2 fnt3">RESET</text>
            </g>
        </g>
        <g id="_2751661776240">
            <g transform="matrix(1 0 0 1 8429.63 8053.44)">
                <text x="2603" y="-4908" class="fil2 fnt3">CLK</text>
            </g>
        </g>
        <g id="_2751554638000">
            <g transform="matrix(1 0 0 1 9746.31 6726.06)">
                <text x="2603" y="-4908" class="fil2 fnt3">OUT</text>
            </g>
        </g>
        <g id="_2808201083552">
            <path class="fil0 str1"
                d="M4157 379l3465 0c50,0 74,24 74,74l0 2822c0,24 -24,49 -74,49l-3465 0c-25,0 -50,-25 -50,-49l0 -2822c0,-50 25,-74 50,-74z" />
            <path class="fil1 str1"
                d="M4429 750l842 0c0,0 25,25 25,49l0 2352c0,24 -25,49 -25,49l-842 0c0,0 0,-25 0,-49l0 -2352c0,-24 0,-49 0,-49z" />
            <path class="fil5 str1"
                d="M5667 874l1584 0c25,0 49,0 49,0l0 594c0,24 -24,24 -49,24l-1584 0c-25,0 -25,0 -25,-24l0 -594c0,0 0,0 25,0z" />
            <g>
                <g transform="matrix(1 0 0 1 3383.02 6206.21)">
                    <text x="2603" y="-4908" class="fil2 fnt4">FLE_0</text>
                </g>
            </g>
            <g>
                <line class="fil3 str6" x1="4998" y1="2210" x2="4701" y2="1740" />
                <line class="fil3 str6" x1="4701" y1="2210" x2="4998" y2="1740" />
                <line class="fil3 str6" x1="4602" y1="2210" x2="4701" y2="2210" />
                <line class="fil3 str6" x1="4998" y1="2210" x2="5122" y2="2210" />
                <line class="fil3 str6" x1="4602" y1="1740" x2="4701" y2="1740" />
                <line class="fil3 str6" x1="4998" y1="1740" x2="5122" y2="1740" />
            </g>
            <g>
                <g>
                    <path class="fil4" d="M3959 1319l0 124 -124 0 0 -124 124 0zm470 99l-520 0 0 -49 520 0 0 49z" />
                </g>
                <g>
                    <path class="fil4" d="M3959 1715l0 124 -124 0 0 -124 124 0zm470 99l-520 0 0 -74 520 0 0 74z" />
                </g>
                <g>
                    <path class="fil4" d="M3959 2111l0 124 -124 0 0 -124 124 0zm470 74l-520 0 0 -49 520 0 0 49z" />
                </g>
                <g>
                    <path class="fil4" d="M3959 2507l0 99 -124 0 0 -99 124 0zm470 74l-520 0 0 -49 520 0 0 49z" />
                </g>
            </g>
            <g>
                <path class="fil4"
                    d="M7498 2829c0,0 0,25 -24,25 0,0 -25,-25 -25,-25l49 0zm-49 -272l49 0 0 272 -49 0 0 -272zm0 0c0,0 25,-25 25,-25 24,0 24,25 24,25l-49 0zm49 -50c0,25 0,25 -24,25 0,0 -25,0 -25,-25l49 0zm-49 -247l49 0 0 247 -49 0 0 -247zm0 0c0,-25 25,-25 25,-25 24,0 24,0 24,25l-49 0zm49 -50c0,25 0,25 -24,25 0,0 -25,0 -25,-25l49 0zm-49 -247l49 0 0 247 -49 0 0 -247zm0 0c0,-25 25,-25 25,-25 24,0 24,0 24,25l-49 0zm49 -75c0,25 0,50 -24,50 0,0 -25,-25 -25,-50l49 0zm-49 -247l49 0 0 247 -49 0 0 -247zm0 0c0,0 25,-25 25,-25 24,0 24,25 24,25l-49 0zm49 -50c0,25 0,25 -24,25 0,0 -25,0 -25,-25l49 0zm-49 -247l49 0 0 247 -49 0 0 -247zm0 0c0,-25 25,-25 25,-25 24,0 24,0 24,25l-49 0zm49 -50c0,0 0,25 -24,25 0,0 -25,-25 -25,-25l49 0zm-49 -272l49 0 0 272 -49 0 0 -272zm0 0c0,0 25,-25 25,-25 24,0 24,25 24,25l-49 0zm49 -49c0,24 0,24 -24,24 0,0 -25,0 -25,-24l49 0zm-49 -248l49 0 0 248 -49 0 0 -248zm0 0c0,-25 25,-25 25,-25 24,0 24,0 24,25l-49 0zm49 -49c0,0 0,24 -24,24 0,0 -25,-24 -25,-24l49 0zm0 -75l0 75 -49 0 0 -75 25 -24 24 24zm-49 0c0,-24 25,-24 25,-24 24,0 24,0 24,24l-49 0zm-149 25l0 -49 174 0 0 49 -174 0zm0 0c-24,0 -24,0 -24,-25 0,-24 0,-24 24,-24l0 49zm-49 -49c0,0 25,0 25,24 0,25 -25,25 -25,25l0 -49zm-272 49l0 -49 272 0 0 49 -272 0zm0 0c0,0 -25,0 -25,-25 0,-24 25,-24 25,-24l0 49zm-50 -49c25,0 25,0 25,24 0,25 0,25 -25,25l0 -49zm-247 49l0 -49 247 0 0 49 -247 0zm0 0c-25,0 -25,0 -25,-25 0,-24 0,-24 25,-24l0 49zm-50 -49c0,0 25,0 25,24 0,25 -25,25 -25,25l0 -49zm-247 49l0 -49 247 0 0 49 -247 0zm0 0c-25,0 -25,0 -25,-25 0,-24 0,-24 25,-24l0 49zm-75 -49c25,0 50,0 50,24 0,25 -25,25 -50,25l0 -49zm-247 49l0 -49 247 0 0 49 -247 0zm0 0c0,0 -25,0 -25,-25 0,-24 25,-24 25,-24l0 49zm-50 -49c25,0 25,0 25,24 0,25 0,25 -25,25l0 -49zm-247 49l0 -49 247 0 0 49 -247 0zm0 0c-25,0 -25,0 -25,-25 0,-24 0,-24 25,-24l0 49zm-50 -49c0,0 25,0 25,24 0,25 -25,25 -25,25l0 -49zm-272 49l0 -49 272 0 0 49 -272 0zm0 0c0,0 -25,0 -25,-25 0,-24 25,-24 25,-24l0 49zm-49 -49c24,0 24,0 24,24 0,25 0,25 -24,25l0 -49zm-248 49l0 -49 248 0 0 49 -248 0zm0 0c-25,0 -25,0 -25,-25 0,-24 0,-24 25,-24l0 49zm-50 -49c0,0 25,0 25,24 0,25 -25,25 -25,25l0 -49zm-272 49l0 -49 272 0 0 49 -272 0zm0 0c0,0 -25,0 -25,-25 0,-24 25,-24 25,-24l0 49zm-49 -49c24,0 24,0 24,24 0,25 0,25 -24,25l0 -49zm-248 49l0 -49 248 0 0 49 -248 0zm0 0c-25,0 -25,0 -25,-25 0,-24 0,-24 25,-24l0 49zm-49 -49c0,0 24,0 24,24 0,25 -24,25 -24,25l0 -49zm-248 49l0 -49 248 0 0 49 -248 0zm0 0c-25,0 -25,0 -25,-25 0,-24 0,-24 25,-24l0 49zm-74 0c0,-25 25,-25 25,-25 24,0 24,0 24,25l-49 0zm49 248l-49 0 0 -248 49 0 0 248zm0 0c0,24 0,24 -24,24 0,0 -25,0 -25,-24l49 0zm-49 49c0,0 25,-25 25,-25 24,0 24,25 24,25l-49 0zm0 124l0 -124 49 0 0 124 -24 25 -25 -25zm49 0c0,25 0,25 -24,25 0,0 -25,0 -25,-25l49 0zm99 -25l0 50 -123 0 0 -50 123 0zm0 0c25,0 25,25 25,25 0,25 0,25 -25,25l0 -50zm75 50l-25 -25 0 25 -124 -75 25 -49 124 99 0 25 0 0zm0 0l0 -25 24 0 -24 25 0 0zm-149 74l0 -25 124 -74 25 25 -124 99 -25 -25 0 0z" />
            </g>
            <line class="fil0 str7" x1="7300" y1="1171" x2="7474" y2="1171" />
            <g>
                <line class="fil0 str1" x1="5296" y1="973" x2="5642" y2="973" />
                <line class="fil0 str1" x1="5296" y1="1121" x2="5642" y2="1121" />
                <line class="fil0 str1" x1="5296" y1="1245" x2="5642" y2="1245" />
                <line class="fil0 str1" x1="5296" y1="1393" x2="5642" y2="1393" />
            </g>
            <path class="fil5 str1"
                d="M5667 1616l1584 0c25,0 49,0 49,0l0 594c0,0 -24,25 -49,25l-1584 0c-25,0 -25,-25 -25,-25l0 -594c0,0 0,0 25,0z" />
            <g>
                <g transform="matrix(1 0 0 1 3383.02 6940.33)">
                    <text x="2603" y="-4908" class="fil2 fnt4">FLE_0</text>
                </g>
            </g>
            <g>
                <line class="fil3 str1" x1="5296" y1="1690" x2="5642" y2="1690" />
                <line class="fil3 str1" x1="5296" y1="1839" x2="5642" y2="1839" />
                <line class="fil3 str1" x1="5296" y1="1987" x2="5642" y2="1987" />
                <line class="fil3 str1" x1="5296" y1="2136" x2="5642" y2="2136" />
            </g>
            <path class="fil5 str1"
                d="M5667 2507l1584 0c25,0 49,0 49,0l0 594c0,25 -24,25 -49,25l-1584 0c-25,0 -25,0 -25,-25l0 -594c0,0 0,0 25,0z" />
            <g>
                <g transform="matrix(1 0 0 1 3376.11 7840.12)">
                    <text x="2603" y="-4908" class="fil2 fnt4">FLE_7</text>
                </g>
            </g>
            <g>
                <line class="fil3 str1" x1="5296" y1="2606" x2="5642" y2="2606" />
                <line class="fil3 str1" x1="5296" y1="2755" x2="5642" y2="2755" />
                <line class="fil3 str1" x1="5296" y1="2878" x2="5642" y2="2878" />
                <line class="fil3 str1" x1="5296" y1="3027" x2="5642" y2="3027" />
            </g>
            <line class="fil3 str7" x1="7300" y1="1913" x2="7498" y2="1913" />
            <line class="fil3 str7" x1="7276" y1="2804" x2="7474" y2="2804" />
        </g>
        <path class="fil1 str1"
            d="M50 26l1931 0c25,0 50,24 50,24l0 1486 -495 495 -1486 0c-24,0 -24,-25 -24,-25l0 -1956c0,0 0,-24 24,-24l0 0z" />
        <path class="fil1 str1"
            d="M3342 3045l-346 347c-371,0 -495,0 -842,0l-346 -347c0,-371 0,-495 0,-866l346 -346c347,0 471,0 842,0l346 346c0,371 0,495 0,866z" />
        <path class="fil5 str8"
            d="M2253 446l768 0c24,0 24,0 24,25l0 1164c0,24 0,49 -24,49l-768 0c-24,0 -49,-25 -49,-49l0 -1164c0,-25 25,-25 49,-25z" />
        <path class="fil5 str8"
            d="M397 2996l0 -767c0,-25 0,-25 25,-25l1188 0c0,0 25,0 25,25l0 767c0,25 -25,49 -25,49l-1188 0c-25,0 -25,-24 -25,-49z" />
        <g id="_2751668529264">
            <g transform="matrix(1 0 0 1 -2176.73 5870.43)">
                <text x="2603" y="-4908" class="fil2 fnt5">Logic</text>
            </g>
        </g>
        <g id="_2751668531312">
            <g transform="matrix(1 0 0 1 -2217.35 6390.51)">
                <text x="2603" y="-4908" class="fil2 fnt5">Block</text>
            </g>
        </g>
        <g id="_2751668530960">
            <g transform="matrix(1 0 0 1 -490.936 7481.31)">
                <text x="2603" y="-4908" class="fil2 fnt6">Switch</text>
            </g>
        </g>
        <g id="_2751668530288">
            <g transform="matrix(1 0 0 1 -300.992 7812.7)">
                <text x="2603" y="-4908" class="fil2 fnt6">Box</text>
            </g>
        </g>
        <g id="_2751668530768">
            <g transform="matrix(1 0 0 1 -1958.7 7490.52)">
                <text x="2603" y="-4908" class="fil2 fnt6">Conn</text>
            </g>
        </g>
        <g id="_2751668532272">
            <g transform="matrix(1 0 0 1 -1859.55 7821.9)">
                <text x="2603" y="-4908" class="fil2 fnt6">Box</text>
            </g>
        </g>
        <g id="_2751668532624">
            <g transform="matrix(1 0 0 1 -339.184 5932.55)">
                <text x="2603" y="-4908" class="fil2 fnt6">Conn</text>
            </g>
        </g>
        <g id="_2751668533008">
            <g transform="matrix(1 0 0 1 -240.027 6263.94)">
                <text x="2603" y="-4908" class="fil2 fnt6">Box</text>
            </g>
        </g>
        <g id="_2808187523792">
            <g>
                <path class="fil4"
                    d="M545 2154l0 -99 25 0 0 99 -25 0zm25 25l0 0 0 0 25 -49 25 0 -50 49 0 0zm0 0l0 0 0 25 0 -25zm-49 -49l24 0 25 49 0 0 -49 -49 0 0z" />
            </g>
            <g>
                <path class="fil4"
                    d="M842 2154l0 -99 25 0 0 99 -25 0zm25 25l0 0 0 0 25 -49 25 0 -50 49 0 0zm0 0l0 0 0 25 0 -25zm-49 -49l24 0 25 49 0 0 -49 -49 0 0z" />
            </g>
            <g>
                <path class="fil4"
                    d="M1140 2154l0 -99 24 0 0 99 -24 0zm0 25l24 0 -24 0 49 -49 25 0 -50 49 -24 0zm0 0l24 0 0 25 -24 -25zm-25 -49l24 0 25 49 -25 0 -24 -49 0 0z" />
            </g>
            <g>
                <path class="fil4"
                    d="M1437 2154l0 -99 24 0 0 99 -24 0zm0 25l24 0 -24 0 49 -49 25 0 -50 49 -24 0zm0 0l24 0 0 25 -24 -25zm-25 -49l0 0 49 49 -24 0 -25 -49 0 0z" />
            </g>
        </g>
        <g id="_2808187525840">
            <g>
                <path class="fil4"
                    d="M2105 1486l99 0 0 25 -99 0 0 -25zm-25 0l0 25 0 -25 50 50 0 0 -50 -25 0 -25 0 0zm0 0l0 25 -25 0 25 -25zm50 -25l0 0 -50 50 0 -25 50 -25 0 0 0 0z" />
            </g>
            <g>
                <path class="fil4"
                    d="M2105 1189l99 0 0 25 -99 0 0 -25zm-25 0l0 25 0 -25 50 49 0 25 -50 -49 0 -25 0 0zm0 0l0 25 -25 0 25 -25zm50 -25l0 0 -50 50 0 -25 50 -25 0 0 0 0z" />
            </g>
            <g>
                <path class="fil4"
                    d="M2105 892l99 0 0 25 -99 0 0 -25zm-25 0l0 25 0 -25 50 49 0 25 -50 -49 0 -25 0 0zm0 0l0 25 -25 0 25 -25zm50 -25l0 0 -50 50 0 -25 50 -25 0 0 0 0z" />
            </g>
            <g>
                <path class="fil4"
                    d="M2105 595l99 0 0 25 -99 0 0 -25zm-25 0l0 25 0 -25 50 49 0 25 -50 -49 0 -25 0 0zm0 0l0 25 -25 0 25 -25zm50 -25l0 0 -50 50 0 -25 50 -25 0 0 0 0z" />
            </g>
        </g>
        <g id="_2808187528912">
            <path class="fil4"
                d="M1808 2105l-173 -149 24 -24 149 148 0 25zm25 25l0 -25 -25 0 -25 -50 25 -24 25 74 0 25 0 0 0 0zm0 0l0 -25 0 25 0 0 0 0zm-75 -25l0 -25 75 25 0 25 -75 -25 0 0z" />
        </g>
        <g id="_2808187527568">
            <path class="fil4"
                d="M1907 2006l-173 -149 0 0 173 149 0 0 0 0zm0 25l0 -25 0 25 0 -50 0 0 25 25 -25 25zm0 0l25 -25 0 25 -25 0 0 0zm-25 -25l0 0 25 0 0 25 -50 -25 25 0z" />
        </g>
        <g id="_2808187527600">
            <path class="fil4"
                d="M1981 1932l-148 -149 0 -25 173 149 -25 25 0 0zm25 0l0 0 0 0 -25 -50 25 0 0 50 0 0zm0 0l0 0 0 0 0 0zm-50 0l0 -25 50 25 0 0 -50 0 0 0 0 0z" />
        </g>
        <g id="_2808187528752">
            <path class="fil4"
                d="M2080 1833l-173 -149 25 0 173 149 -25 0zm25 0l0 0 0 0 -25 -50 0 0 25 50 0 0zm0 0l0 0 0 24 0 -24 0 0zm-50 0l0 0 50 0 0 0 -50 0 0 0z" />
        </g>
        <g id="_2808187528848">
            <g>
                <path class="fil4"
                    d="M2278 1709l0 124 -25 0 0 -124 25 0zm0 -25l-25 0 25 0 -25 74 -24 -24 24 -50 25 0 0 0zm0 0l-25 0 25 0 0 0zm25 74l0 0 -50 -74 25 0 50 50 -25 24 0 0z" />
            </g>
            <g>
                <path class="fil4"
                    d="M2501 1709l0 124 -25 0 0 -124 25 0zm0 -25l-25 0 25 0 -50 74 0 -24 25 -50 25 0 0 0zm0 0l-25 0 25 0 0 0zm25 74l0 0 -50 -74 25 0 25 50 0 24 0 0z" />
            </g>
            <g>
                <path class="fil4"
                    d="M2724 1709l0 124 -25 0 0 -124 25 0zm0 -25l-25 0 25 0 -50 74 0 -24 25 -50 25 0 0 0zm0 0l-25 0 0 0 25 0zm24 74l0 0 -49 -74 25 0 24 50 0 24 0 0z" />
            </g>
            <g>
                <path class="fil4"
                    d="M2946 1709l0 124 -24 0 0 -124 24 0zm0 -25l-24 0 24 0 -49 74 -25 -24 50 -50 24 0 0 0zm0 0l-24 0 0 0 24 0zm25 74l0 0 -49 -74 24 0 25 50 0 24 0 0z" />
            </g>
            <g>
                <path class="fil4"
                    d="M2377 1808l0 -124 25 0 0 124 -25 0zm0 25l25 -25 -25 0 50 -50 0 0 -25 75 -25 0 0 0zm0 0l25 0 -25 0 0 0zm-25 -75l0 0 50 50 -25 25 -25 -75 0 0 0 0z" />
            </g>
            <g>
                <path class="fil4"
                    d="M2600 1808l0 -124 25 0 0 124 -25 0zm0 25l25 -25 -25 0 49 -50 0 0 -24 75 -25 0 0 0zm0 0l25 0 -25 0 0 0zm-25 -75l0 0 50 50 -25 25 -25 -75 0 0 0 0z" />
            </g>
            <g>
                <path class="fil4"
                    d="M2823 1808l0 -124 24 0 0 124 -24 0zm0 25l24 -25 -24 0 24 -50 25 0 -25 75 -24 0 0 0zm0 0l24 0 -24 0 0 0zm-25 -75l0 0 49 50 -24 25 -50 -75 25 0 0 0z" />
            </g>
        </g>
        <g id="_2808199847344">
            <g>
                <path class="fil4"
                    d="M2278 199l0 223 -25 0 0 -223 25 0zm0 -25l-25 0 25 0 -25 74 -24 -24 24 -50 25 0 0 0zm0 0l-25 0 25 -25 0 25zm25 74l0 0 -50 -74 25 0 50 50 -25 24 0 0z" />
            </g>
            <g>
                <path class="fil4"
                    d="M2501 199l0 223 -25 0 0 -223 25 0zm0 -25l-25 0 25 0 -50 74 0 -24 25 -50 25 0 0 0zm0 0l-25 0 25 -25 0 25zm25 74l0 0 -50 -74 25 0 25 50 0 24 0 0z" />
            </g>
            <g>
                <path class="fil4"
                    d="M2724 199l0 223 -25 0 0 -223 25 0zm0 -25l-25 0 25 0 -50 74 0 -24 25 -50 25 0 0 0zm0 0l-25 0 0 -25 25 25zm24 74l0 0 -49 -74 25 0 24 50 0 24 0 0z" />
            </g>
            <g>
                <path class="fil4"
                    d="M2946 199l0 223 -24 0 0 -223 24 0zm0 -25l-24 0 24 0 -49 74 -25 -24 50 -50 24 0 0 0zm0 0l-24 0 0 -25 24 25zm25 74l0 0 -49 -74 24 0 25 50 0 24 0 0z" />
            </g>
            <g>
                <path class="fil4"
                    d="M2377 397l0 -223 25 0 0 223 -25 0zm0 25l25 0 -25 0 50 -75 0 25 -25 50 -25 0 0 0zm0 0l25 0 -25 24 0 -24zm-25 -75l0 0 50 75 -25 0 -25 -50 0 -25 0 0z" />
            </g>
            <g>
                <path class="fil4"
                    d="M2600 397l0 -223 25 0 0 223 -25 0zm0 25l25 0 -25 0 49 -75 0 25 -24 50 -25 0 0 0zm0 0l25 0 -25 24 0 -24zm-25 -75l0 0 50 75 -25 0 -25 -50 0 -25 0 0z" />
            </g>
            <g>
                <path class="fil4"
                    d="M2823 397l0 -223 24 0 0 223 -24 0zm0 25l24 0 -24 0 24 -75 25 25 -25 50 -24 0 0 0zm0 0l24 0 -24 24 0 -24zm-25 -75l0 0 49 75 -24 0 -50 -50 25 -25 0 0z" />
            </g>
        </g>
        <g id="_2808199855408">
            <g>
                <path class="fil4"
                    d="M1684 2922l99 0 0 24 -99 0 0 -24zm-25 0l0 24 0 -24 50 49 0 0 -50 -25 0 -24 0 0zm0 0l0 24 -24 -24 24 0zm50 -25l0 0 -50 49 0 -24 50 -25 0 0 0 0z" />
            </g>
            <g>
                <path class="fil4"
                    d="M1684 2699l99 0 0 25 -99 0 0 -25zm-25 0l0 25 0 -25 50 49 0 0 -50 -24 0 -25 0 0zm0 0l0 25 -24 -25 24 0zm50 -25l0 0 -50 50 0 -25 50 -25 0 0 0 0z" />
            </g>
            <g>
                <path class="fil4"
                    d="M1684 2476l99 0 0 25 -99 0 0 -25zm-25 0l0 25 0 -25 50 50 0 24 -50 -49 0 -25 0 0zm0 0l0 25 -24 0 24 -25zm50 -25l0 0 -50 50 0 -25 50 -25 0 0 0 0z" />
            </g>
            <g>
                <path class="fil4"
                    d="M1684 2253l99 0 0 25 -99 0 0 -25zm-25 0l0 25 0 -25 50 50 0 25 -50 -50 0 -25 0 0zm0 0l0 25 -24 0 24 -25zm50 -24l0 24 -50 25 0 -25 50 -24 0 0 0 0z" />
            </g>
            <g>
                <path class="fil4"
                    d="M1758 2823l-99 0 0 -25 99 0 0 25zm25 0l0 -25 0 25 -74 -50 25 0 49 25 0 25 0 0 0 0zm0 0l0 -25 25 25 -25 0zm-49 24l-25 0 74 -49 0 25 -49 49 0 -25 0 0 0 0z" />
            </g>
            <g>
                <path class="fil4"
                    d="M1758 2600l-99 0 0 -25 99 0 0 25zm25 0l0 -25 0 25 -74 -25 25 -25 49 25 0 25 0 0 0 0zm0 0l0 -25 25 25 -25 0zm-49 25l-25 0 74 -50 0 25 -49 49 0 -24 0 0 0 0z" />
            </g>
            <g>
                <path class="fil4"
                    d="M1758 2377l-99 0 0 -25 99 0 0 25zm25 0l0 0 0 0 -74 -25 25 -24 49 49 0 0 0 0 0 0zm0 0l0 0 25 0 -25 0zm-49 25l-25 0 74 -25 0 0 -49 50 0 -25 0 0 0 0z" />
            </g>
        </g>
        <g id="_2808199865840">
            <g>
                <path class="fil4"
                    d="M100 2922l297 0 0 24 -297 0 0 -24zm-25 0l0 24 0 -24 50 49 0 0 -50 -25 0 -24zm0 0l0 24 -25 -24 25 0zm50 -25l0 0 -50 49 0 -24 50 -25 0 0z" />
            </g>
            <g>
                <path class="fil4"
                    d="M100 2699l297 0 0 25 -297 0 0 -25zm-25 0l0 25 0 -25 50 49 0 0 -50 -24 0 -25zm0 0l0 25 -25 -25 25 0zm50 -25l0 0 -50 50 0 -25 50 -25 0 0z" />
            </g>
            <g>
                <path class="fil4"
                    d="M100 2476l297 0 0 25 -297 0 0 -25zm-25 0l0 25 0 -25 50 50 0 24 -50 -49 0 -25zm0 0l0 25 -25 0 25 -25zm50 -25l0 0 -50 50 0 -25 50 -25 0 0z" />
            </g>
            <g>
                <path class="fil4"
                    d="M100 2253l297 0 0 25 -297 0 0 -25zm-25 0l0 25 0 -25 50 50 0 25 -50 -50 0 -25zm0 0l0 25 -25 0 25 -25zm50 -24l0 24 -50 25 0 -25 50 -24 0 0z" />
            </g>
            <g>
                <path class="fil4"
                    d="M372 2823l-322 0 0 -25 322 0 0 25zm0 0l0 -25 0 25 -49 -50 0 0 49 25 0 25 0 0zm0 0l0 -25 25 25 -25 0zm-49 24l0 0 49 -49 0 25 -49 49 0 -25 0 0z" />
            </g>
            <g>
                <path class="fil4"
                    d="M372 2600l-322 0 0 -25 322 0 0 25zm0 0l0 -25 0 25 -49 -25 0 -25 49 25 0 25 0 0zm0 0l0 -25 25 25 -25 0zm-49 25l0 0 49 -50 0 25 -49 49 0 -24 0 0z" />
            </g>
            <g>
                <path class="fil4"
                    d="M372 2377l-322 0 0 -25 322 0 0 25zm0 0l0 0 0 0 -49 -25 0 -24 49 49 0 0 0 0zm0 0l0 0 25 0 -25 0zm-49 25l0 0 49 -25 0 0 -49 50 0 -25 0 0z" />
            </g>
        </g>
        <g transform="matrix(1 0 0 1 -2029.61 8757.95)">
            <text x="2603" y="-4908" class="fil2 fnt7">FPGA Tile</text>
        </g>
        <g transform="matrix(1 0 0 1 2195.35 8722.25)">
            <text x="2603" y="-4908" class="fil2 fnt7">Logic Block</text>
        </g>
        <g transform="matrix(1 0 0 1 6672.03 8722.25)">
            <text x="2603" y="-4908" class="fil2 fnt7">Logic </text>
            <text x="3551" y="-4908" class="fil2 fnt7">Element</text>
        </g>
        <g id="_2808197859296">
            <path class="fil6"
                d="M3896 1017l-594 0 0 75 594 0 0 -75zm99 0l-50 75 0 -75 -198 149 25 49 223 -123 0 -75 0 0zm0 0l0 75 25 -50 -25 -25 0 0zm-248 -99l0 25 198 149 50 -75 -223 -123 -25 24 0 0 0 0z" />
        </g>
        <g id="_2808197859296_0">
            <path class="fil6"
                d="M8429 1017l-594 0 0 75 594 0 0 -75zm99 0l-50 75 0 -75 -198 149 25 49 223 -123 0 -75 0 0zm0 0l0 75 24 -50 -24 -25 0 0zm-248 -99l0 25 198 149 50 -75 -223 -123 -25 24 0 0 0 0z" />
        </g>
    </g>
    <g id="Layer_x0020_1_1">
        <metadata id="CorelCorpID_1Corel-Layer" />
        <g id="_2808201083552_2">
            <path class="fil0 str1"
                d="M4157 379l3465 0c50,0 74,24 74,74l0 2822c0,24 -24,49 -74,49l-3465 0c-25,0 -50,-25 -50,-49l0 -2822c0,-50 25,-74 50,-74z" />
            <path class="fil1 str1"
                d="M4429 750l842 0c0,0 25,25 25,49l0 2352c0,24 -25,49 -25,49l-842 0c0,0 0,-25 0,-49l0 -2352c0,-24 0,-49 0,-49z" />
            <path class="fil5 str1"
                d="M5667 874l1584 0c25,0 49,0 49,0l0 594c0,24 -24,24 -49,24l-1584 0c-25,0 -25,0 -25,-24l0 -594c0,0 0,0 25,0z" />
            <g>
                <g transform="matrix(1 0 0 1 3383.02 6206.21)">
                    <text x="2603" y="-4908" class="fil2 fnt4">FLE_0</text>
                </g>
            </g>
            <g>
                <line class="fil3 str6" x1="4998" y1="2210" x2="4701" y2="1740" />
                <line class="fil3 str6" x1="4701" y1="2210" x2="4998" y2="1740" />
                <line class="fil3 str6" x1="4602" y1="2210" x2="4701" y2="2210" />
                <line class="fil3 str6" x1="4998" y1="2210" x2="5122" y2="2210" />
                <line class="fil3 str6" x1="4602" y1="1740" x2="4701" y2="1740" />
                <line class="fil3 str6" x1="4998" y1="1740" x2="5122" y2="1740" />
            </g>
            <g>
                <g>
                    <path class="fil4" d="M3959 1319l0 124 -124 0 0 -124 124 0zm470 99l-520 0 0 -49 520 0 0 49z" />
                </g>
                <g>
                    <path class="fil4" d="M3959 1715l0 124 -124 0 0 -124 124 0zm470 99l-520 0 0 -74 520 0 0 74z" />
                </g>
                <g>
                    <path class="fil4" d="M3959 2111l0 124 -124 0 0 -124 124 0zm470 74l-520 0 0 -49 520 0 0 49z" />
                </g>
                <g>
                    <path class="fil4" d="M3959 2507l0 99 -124 0 0 -99 124 0zm470 74l-520 0 0 -49 520 0 0 49z" />
                </g>
            </g>
            <g>
                <path class="fil4"
                    d="M7498 2829c0,0 0,25 -24,25 0,0 -25,-25 -25,-25l49 0zm-49 -272l49 0 0 272 -49 0 0 -272zm0 0c0,0 25,-25 25,-25 24,0 24,25 24,25l-49 0zm49 -50c0,25 0,25 -24,25 0,0 -25,0 -25,-25l49 0zm-49 -247l49 0 0 247 -49 0 0 -247zm0 0c0,-25 25,-25 25,-25 24,0 24,0 24,25l-49 0zm49 -50c0,25 0,25 -24,25 0,0 -25,0 -25,-25l49 0zm-49 -247l49 0 0 247 -49 0 0 -247zm0 0c0,-25 25,-25 25,-25 24,0 24,0 24,25l-49 0zm49 -75c0,25 0,50 -24,50 0,0 -25,-25 -25,-50l49 0zm-49 -247l49 0 0 247 -49 0 0 -247zm0 0c0,0 25,-25 25,-25 24,0 24,25 24,25l-49 0zm49 -50c0,25 0,25 -24,25 0,0 -25,0 -25,-25l49 0zm-49 -247l49 0 0 247 -49 0 0 -247zm0 0c0,-25 25,-25 25,-25 24,0 24,0 24,25l-49 0zm49 -50c0,0 0,25 -24,25 0,0 -25,-25 -25,-25l49 0zm-49 -272l49 0 0 272 -49 0 0 -272zm0 0c0,0 25,-25 25,-25 24,0 24,25 24,25l-49 0zm49 -49c0,24 0,24 -24,24 0,0 -25,0 -25,-24l49 0zm-49 -248l49 0 0 248 -49 0 0 -248zm0 0c0,-25 25,-25 25,-25 24,0 24,0 24,25l-49 0zm49 -49c0,0 0,24 -24,24 0,0 -25,-24 -25,-24l49 0zm0 -75l0 75 -49 0 0 -75 25 -24 24 24zm-49 0c0,-24 25,-24 25,-24 24,0 24,0 24,24l-49 0zm-149 25l0 -49 174 0 0 49 -174 0zm0 0c-24,0 -24,0 -24,-25 0,-24 0,-24 24,-24l0 49zm-49 -49c0,0 25,0 25,24 0,25 -25,25 -25,25l0 -49zm-272 49l0 -49 272 0 0 49 -272 0zm0 0c0,0 -25,0 -25,-25 0,-24 25,-24 25,-24l0 49zm-50 -49c25,0 25,0 25,24 0,25 0,25 -25,25l0 -49zm-247 49l0 -49 247 0 0 49 -247 0zm0 0c-25,0 -25,0 -25,-25 0,-24 0,-24 25,-24l0 49zm-50 -49c0,0 25,0 25,24 0,25 -25,25 -25,25l0 -49zm-247 49l0 -49 247 0 0 49 -247 0zm0 0c-25,0 -25,0 -25,-25 0,-24 0,-24 25,-24l0 49zm-75 -49c25,0 50,0 50,24 0,25 -25,25 -50,25l0 -49zm-247 49l0 -49 247 0 0 49 -247 0zm0 0c0,0 -25,0 -25,-25 0,-24 25,-24 25,-24l0 49zm-50 -49c25,0 25,0 25,24 0,25 0,25 -25,25l0 -49zm-247 49l0 -49 247 0 0 49 -247 0zm0 0c-25,0 -25,0 -25,-25 0,-24 0,-24 25,-24l0 49zm-50 -49c0,0 25,0 25,24 0,25 -25,25 -25,25l0 -49zm-272 49l0 -49 272 0 0 49 -272 0zm0 0c0,0 -25,0 -25,-25 0,-24 25,-24 25,-24l0 49zm-49 -49c24,0 24,0 24,24 0,25 0,25 -24,25l0 -49zm-248 49l0 -49 248 0 0 49 -248 0zm0 0c-25,0 -25,0 -25,-25 0,-24 0,-24 25,-24l0 49zm-50 -49c0,0 25,0 25,24 0,25 -25,25 -25,25l0 -49zm-272 49l0 -49 272 0 0 49 -272 0zm0 0c0,0 -25,0 -25,-25 0,-24 25,-24 25,-24l0 49zm-49 -49c24,0 24,0 24,24 0,25 0,25 -24,25l0 -49zm-248 49l0 -49 248 0 0 49 -248 0zm0 0c-25,0 -25,0 -25,-25 0,-24 0,-24 25,-24l0 49zm-49 -49c0,0 24,0 24,24 0,25 -24,25 -24,25l0 -49zm-248 49l0 -49 248 0 0 49 -248 0zm0 0c-25,0 -25,0 -25,-25 0,-24 0,-24 25,-24l0 49zm-74 0c0,-25 25,-25 25,-25 24,0 24,0 24,25l-49 0zm49 248l-49 0 0 -248 49 0 0 248zm0 0c0,24 0,24 -24,24 0,0 -25,0 -25,-24l49 0zm-49 49c0,0 25,-25 25,-25 24,0 24,25 24,25l-49 0zm0 124l0 -124 49 0 0 124 -24 25 -25 -25zm49 0c0,25 0,25 -24,25 0,0 -25,0 -25,-25l49 0zm99 -25l0 50 -123 0 0 -50 123 0zm0 0c25,0 25,25 25,25 0,25 0,25 -25,25l0 -50zm75 50l-25 -25 0 25 -124 -75 25 -49 124 99 0 25 0 0zm0 0l0 -25 24 0 -24 25 0 0zm-149 74l0 -25 124 -74 25 25 -124 99 -25 -25 0 0z" />
            </g>
            <line class="fil0 str7" x1="7300" y1="1171" x2="7474" y2="1171" />
            <g>
                <line class="fil0 str1" x1="5296" y1="973" x2="5642" y2="973" />
                <line class="fil0 str1" x1="5296" y1="1121" x2="5642" y2="1121" />
                <line class="fil0 str1" x1="5296" y1="1245" x2="5642" y2="1245" />
                <line class="fil0 str1" x1="5296" y1="1393" x2="5642" y2="1393" />
            </g>
            <path class="fil5 str1"
                d="M5667 1616l1584 0c25,0 49,0 49,0l0 594c0,0 -24,25 -49,25l-1584 0c-25,0 -25,-25 -25,-25l0 -594c0,0 0,0 25,0z" />
            <g>
                <g transform="matrix(1 0 0 1 3383.02 6940.33)">
                    <text x="2603" y="-4908" class="fil2 fnt4">FLE_0</text>
                </g>
            </g>
            <g>
                <line class="fil3 str1" x1="5296" y1="1690" x2="5642" y2="1690" />
                <line class="fil3 str1" x1="5296" y1="1839" x2="5642" y2="1839" />
                <line class="fil3 str1" x1="5296" y1="1987" x2="5642" y2="1987" />
                <line class="fil3 str1" x1="5296" y1="2136" x2="5642" y2="2136" />
            </g>
            <path class="fil5 str1"
                d="M5667 2507l1584 0c25,0 49,0 49,0l0 594c0,25 -24,25 -49,25l-1584 0c-25,0 -25,0 -25,-25l0 -594c0,0 0,0 25,0z" />
            <g>
                <g transform="matrix(1 0 0 1 3376.11 7840.12)">
                    <text x="2603" y="-4908" class="fil2 fnt4">FLE_7</text>
                </g>
            </g>
            <g>
                <line class="fil3 str1" x1="5296" y1="2606" x2="5642" y2="2606" />
                <line class="fil3 str1" x1="5296" y1="2755" x2="5642" y2="2755" />
                <line class="fil3 str1" x1="5296" y1="2878" x2="5642" y2="2878" />
                <line class="fil3 str1" x1="5296" y1="3027" x2="5642" y2="3027" />
            </g>
            <line class="fil3 str7" x1="7300" y1="1913" x2="7498" y2="1913" />
            <line class="fil3 str7" x1="7276" y1="2804" x2="7474" y2="2804" />
        </g>
        <path class="fil1 str1"
            d="M50 26l1931 0c25,0 50,24 50,24l0 1486 -495 495 -1486 0c-24,0 -24,-25 -24,-25l0 -1956c0,0 0,-24 24,-24l0 0z" />
        <g id="_2751665534976">
            <g transform="matrix(1 0 0 1 -2176.73 5870.43)">
                <text x="2603" y="-4908" class="fil2 fnt5">Logic</text>
            </g>
        </g>
        <g id="_2751665537216">
            <g transform="matrix(1 0 0 1 -2217.35 6390.51)">
                <text x="2603" y="-4908" class="fil2 fnt5">Block</text>
            </g>
        </g>
        <g id="_2751665537440">
            <g transform="matrix(1 0 0 1 -490.936 7481.31)">
                <text x="2603" y="-4908" class="fil2 fnt6">Switch</text>
            </g>
        </g>
        <g id="_2751665538272">
            <g transform="matrix(1 0 0 1 -300.992 7812.7)">
                <text x="2603" y="-4908" class="fil2 fnt6">Box</text>
            </g>
        </g>
        <g id="_2751665539072">
            <g transform="matrix(1 0 0 1 -1958.7 7490.52)">
                <text x="2603" y="-4908" class="fil2 fnt6">Conn</text>
            </g>
        </g>
        <g id="_2751665540448">
            <g transform="matrix(1 0 0 1 -1859.55 7821.9)">
                <text x="2603" y="-4908" class="fil2 fnt6">Box</text>
            </g>
        </g>
        <g id="_2751665539488">
            <g transform="matrix(1 0 0 1 -339.184 5932.55)">
                <text x="2603" y="-4908" class="fil2 fnt6">Conn</text>
            </g>
        </g>
        <g id="_2751665541696">
            <g transform="matrix(1 0 0 1 -240.027 6263.94)">
                <text x="2603" y="-4908" class="fil2 fnt6">Box</text>
            </g>
        </g>
        <g id="_2808187523792_3">
            <g>
                <path class="fil4"
                    d="M545 2154l0 -99 25 0 0 99 -25 0zm25 25l0 0 0 0 25 -49 25 0 -50 49 0 0zm0 0l0 0 0 25 0 -25zm-49 -49l24 0 25 49 0 0 -49 -49 0 0z" />
            </g>
            <g>
                <path class="fil4"
                    d="M842 2154l0 -99 25 0 0 99 -25 0zm25 25l0 0 0 0 25 -49 25 0 -50 49 0 0zm0 0l0 0 0 25 0 -25zm-49 -49l24 0 25 49 0 0 -49 -49 0 0z" />
            </g>
            <g>
                <path class="fil4"
                    d="M1140 2154l0 -99 24 0 0 99 -24 0zm0 25l24 0 -24 0 49 -49 25 0 -50 49 -24 0zm0 0l24 0 0 25 -24 -25zm-25 -49l24 0 25 49 -25 0 -24 -49 0 0z" />
            </g>
            <g>
                <path class="fil4"
                    d="M1437 2154l0 -99 24 0 0 99 -24 0zm0 25l24 0 -24 0 49 -49 25 0 -50 49 -24 0zm0 0l24 0 0 25 -24 -25zm-25 -49l0 0 49 49 -24 0 -25 -49 0 0z" />
            </g>
        </g>
        <g id="_2808187525840_4">
            <g>
                <path class="fil4"
                    d="M2105 1486l99 0 0 25 -99 0 0 -25zm-25 0l0 25 0 -25 50 50 0 0 -50 -25 0 -25 0 0zm0 0l0 25 -25 0 25 -25zm50 -25l0 0 -50 50 0 -25 50 -25 0 0 0 0z" />
            </g>
            <g>
                <path class="fil4"
                    d="M2105 1189l99 0 0 25 -99 0 0 -25zm-25 0l0 25 0 -25 50 49 0 25 -50 -49 0 -25 0 0zm0 0l0 25 -25 0 25 -25zm50 -25l0 0 -50 50 0 -25 50 -25 0 0 0 0z" />
            </g>
            <g>
                <path class="fil4"
                    d="M2105 892l99 0 0 25 -99 0 0 -25zm-25 0l0 25 0 -25 50 49 0 25 -50 -49 0 -25 0 0zm0 0l0 25 -25 0 25 -25zm50 -25l0 0 -50 50 0 -25 50 -25 0 0 0 0z" />
            </g>
            <g>
                <path class="fil4"
                    d="M2105 595l99 0 0 25 -99 0 0 -25zm-25 0l0 25 0 -25 50 49 0 25 -50 -49 0 -25 0 0zm0 0l0 25 -25 0 25 -25zm50 -25l0 0 -50 50 0 -25 50 -25 0 0 0 0z" />
            </g>
        </g>
        <g id="_2808187528912_5">
            <path class="fil4"
                d="M1808 2105l-173 -149 24 -24 149 148 0 25zm25 25l0 -25 -25 0 -25 -50 25 -24 25 74 0 25 0 0 0 0zm0 0l0 -25 0 25 0 0 0 0zm-75 -25l0 -25 75 25 0 25 -75 -25 0 0z" />
        </g>
        <g id="_2808187527568_6">
            <path class="fil4"
                d="M1907 2006l-173 -149 0 0 173 149 0 0 0 0zm0 25l0 -25 0 25 0 -50 0 0 25 25 -25 25zm0 0l25 -25 0 25 -25 0 0 0zm-25 -25l0 0 25 0 0 25 -50 -25 25 0z" />
        </g>
        <g id="_2808187527600_7">
            <path class="fil4"
                d="M1981 1932l-148 -149 0 -25 173 149 -25 25 0 0zm25 0l0 0 0 0 -25 -50 25 0 0 50 0 0zm0 0l0 0 0 0 0 0zm-50 0l0 -25 50 25 0 0 -50 0 0 0 0 0z" />
        </g>
        <g id="_2808187528752_8">
            <path class="fil4"
                d="M2080 1833l-173 -149 25 0 173 149 -25 0zm25 0l0 0 0 0 -25 -50 0 0 25 50 0 0zm0 0l0 0 0 24 0 -24 0 0zm-50 0l0 0 50 0 0 0 -50 0 0 0z" />
        </g>
        <g id="_2808187528848_9">
            <g>
                <path class="fil4"
                    d="M2278 1709l0 124 -25 0 0 -124 25 0zm0 -25l-25 0 25 0 -25 74 -24 -24 24 -50 25 0 0 0zm0 0l-25 0 25 0 0 0zm25 74l0 0 -50 -74 25 0 50 50 -25 24 0 0z" />
            </g>
            <g>
                <path class="fil4"
                    d="M2501 1709l0 124 -25 0 0 -124 25 0zm0 -25l-25 0 25 0 -50 74 0 -24 25 -50 25 0 0 0zm0 0l-25 0 25 0 0 0zm25 74l0 0 -50 -74 25 0 25 50 0 24 0 0z" />
            </g>
            <g>
                <path class="fil4"
                    d="M2724 1709l0 124 -25 0 0 -124 25 0zm0 -25l-25 0 25 0 -50 74 0 -24 25 -50 25 0 0 0zm0 0l-25 0 0 0 25 0zm24 74l0 0 -49 -74 25 0 24 50 0 24 0 0z" />
            </g>
            <g>
                <path class="fil4"
                    d="M2946 1709l0 124 -24 0 0 -124 24 0zm0 -25l-24 0 24 0 -49 74 -25 -24 50 -50 24 0 0 0zm0 0l-24 0 0 0 24 0zm25 74l0 0 -49 -74 24 0 25 50 0 24 0 0z" />
            </g>
            <g>
                <path class="fil4"
                    d="M2377 1808l0 -124 25 0 0 124 -25 0zm0 25l25 -25 -25 0 50 -50 0 0 -25 75 -25 0 0 0zm0 0l25 0 -25 0 0 0zm-25 -75l0 0 50 50 -25 25 -25 -75 0 0 0 0z" />
            </g>
            <g>
                <path class="fil4"
                    d="M2600 1808l0 -124 25 0 0 124 -25 0zm0 25l25 -25 -25 0 49 -50 0 0 -24 75 -25 0 0 0zm0 0l25 0 -25 0 0 0zm-25 -75l0 0 50 50 -25 25 -25 -75 0 0 0 0z" />
            </g>
            <g>
                <path class="fil4"
                    d="M2823 1808l0 -124 24 0 0 124 -24 0zm0 25l24 -25 -24 0 24 -50 25 0 -25 75 -24 0 0 0zm0 0l24 0 -24 0 0 0zm-25 -75l0 0 49 50 -24 25 -50 -75 25 0 0 0z" />
            </g>
        </g>
        <g id="_2808199847344_10">
            <g>
                <path class="fil4"
                    d="M2278 199l0 223 -25 0 0 -223 25 0zm0 -25l-25 0 25 0 -25 74 -24 -24 24 -50 25 0 0 0zm0 0l-25 0 25 -25 0 25zm25 74l0 0 -50 -74 25 0 50 50 -25 24 0 0z" />
            </g>
            <g>
                <path class="fil4"
                    d="M2501 199l0 223 -25 0 0 -223 25 0zm0 -25l-25 0 25 0 -50 74 0 -24 25 -50 25 0 0 0zm0 0l-25 0 25 -25 0 25zm25 74l0 0 -50 -74 25 0 25 50 0 24 0 0z" />
            </g>
            <g>
                <path class="fil4"
                    d="M2724 199l0 223 -25 0 0 -223 25 0zm0 -25l-25 0 25 0 -50 74 0 -24 25 -50 25 0 0 0zm0 0l-25 0 0 -25 25 25zm24 74l0 0 -49 -74 25 0 24 50 0 24 0 0z" />
            </g>
            <g>
                <path class="fil4"
                    d="M2946 199l0 223 -24 0 0 -223 24 0zm0 -25l-24 0 24 0 -49 74 -25 -24 50 -50 24 0 0 0zm0 0l-24 0 0 -25 24 25zm25 74l0 0 -49 -74 24 0 25 50 0 24 0 0z" />
            </g>
            <g>
                <path class="fil4"
                    d="M2377 397l0 -223 25 0 0 223 -25 0zm0 25l25 0 -25 0 50 -75 0 25 -25 50 -25 0 0 0zm0 0l25 0 -25 24 0 -24zm-25 -75l0 0 50 75 -25 0 -25 -50 0 -25 0 0z" />
            </g>
            <g>
                <path class="fil4"
                    d="M2600 397l0 -223 25 0 0 223 -25 0zm0 25l25 0 -25 0 49 -75 0 25 -24 50 -25 0 0 0zm0 0l25 0 -25 24 0 -24zm-25 -75l0 0 50 75 -25 0 -25 -50 0 -25 0 0z" />
            </g>
            <g>
                <path class="fil4"
                    d="M2823 397l0 -223 24 0 0 223 -24 0zm0 25l24 0 -24 0 24 -75 25 25 -25 50 -24 0 0 0zm0 0l24 0 -24 24 0 -24zm-25 -75l0 0 49 75 -24 0 -50 -50 25 -25 0 0z" />
            </g>
        </g>
        <g id="_2808199855408_11">
            <g>
                <path class="fil4"
                    d="M1684 2922l99 0 0 24 -99 0 0 -24zm-25 0l0 24 0 -24 50 49 0 0 -50 -25 0 -24 0 0zm0 0l0 24 -24 -24 24 0zm50 -25l0 0 -50 49 0 -24 50 -25 0 0 0 0z" />
            </g>
            <g>
                <path class="fil4"
                    d="M1684 2699l99 0 0 25 -99 0 0 -25zm-25 0l0 25 0 -25 50 49 0 0 -50 -24 0 -25 0 0zm0 0l0 25 -24 -25 24 0zm50 -25l0 0 -50 50 0 -25 50 -25 0 0 0 0z" />
            </g>
            <g>
                <path class="fil4"
                    d="M1684 2476l99 0 0 25 -99 0 0 -25zm-25 0l0 25 0 -25 50 50 0 24 -50 -49 0 -25 0 0zm0 0l0 25 -24 0 24 -25zm50 -25l0 0 -50 50 0 -25 50 -25 0 0 0 0z" />
            </g>
            <g>
                <path class="fil4"
                    d="M1684 2253l99 0 0 25 -99 0 0 -25zm-25 0l0 25 0 -25 50 50 0 25 -50 -50 0 -25 0 0zm0 0l0 25 -24 0 24 -25zm50 -24l0 24 -50 25 0 -25 50 -24 0 0 0 0z" />
            </g>
            <g>
                <path class="fil4"
                    d="M1758 2823l-99 0 0 -25 99 0 0 25zm25 0l0 -25 0 25 -74 -50 25 0 49 25 0 25 0 0 0 0zm0 0l0 -25 25 25 -25 0zm-49 24l-25 0 74 -49 0 25 -49 49 0 -25 0 0 0 0z" />
            </g>
            <g>
                <path class="fil4"
                    d="M1758 2600l-99 0 0 -25 99 0 0 25zm25 0l0 -25 0 25 -74 -25 25 -25 49 25 0 25 0 0 0 0zm0 0l0 -25 25 25 -25 0zm-49 25l-25 0 74 -50 0 25 -49 49 0 -24 0 0 0 0z" />
            </g>
            <g>
                <path class="fil4"
                    d="M1758 2377l-99 0 0 -25 99 0 0 25zm25 0l0 0 0 0 -74 -25 25 -24 49 49 0 0 0 0 0 0zm0 0l0 0 25 0 -25 0zm-49 25l-25 0 74 -25 0 0 -49 50 0 -25 0 0 0 0z" />
            </g>
        </g>
        <g id="_2808199865840_12">
            <g>
                <path class="fil4"
                    d="M100 2922l297 0 0 24 -297 0 0 -24zm-25 0l0 24 0 -24 50 49 0 0 -50 -25 0 -24zm0 0l0 24 -25 -24 25 0zm50 -25l0 0 -50 49 0 -24 50 -25 0 0z" />
            </g>
            <g>
                <path class="fil4"
                    d="M100 2699l297 0 0 25 -297 0 0 -25zm-25 0l0 25 0 -25 50 49 0 0 -50 -24 0 -25zm0 0l0 25 -25 -25 25 0zm50 -25l0 0 -50 50 0 -25 50 -25 0 0z" />
            </g>
            <g>
                <path class="fil4"
                    d="M100 2476l297 0 0 25 -297 0 0 -25zm-25 0l0 25 0 -25 50 50 0 24 -50 -49 0 -25zm0 0l0 25 -25 0 25 -25zm50 -25l0 0 -50 50 0 -25 50 -25 0 0z" />
            </g>
            <g>
                <path class="fil4"
                    d="M100 2253l297 0 0 25 -297 0 0 -25zm-25 0l0 25 0 -25 50 50 0 25 -50 -50 0 -25zm0 0l0 25 -25 0 25 -25zm50 -24l0 24 -50 25 0 -25 50 -24 0 0z" />
            </g>
            <g>
                <path class="fil4"
                    d="M372 2823l-322 0 0 -25 322 0 0 25zm0 0l0 -25 0 25 -49 -50 0 0 49 25 0 25 0 0zm0 0l0 -25 25 25 -25 0zm-49 24l0 0 49 -49 0 25 -49 49 0 -25 0 0z" />
            </g>
            <g>
                <path class="fil4"
                    d="M372 2600l-322 0 0 -25 322 0 0 25zm0 0l0 -25 0 25 -49 -25 0 -25 49 25 0 25 0 0zm0 0l0 -25 25 25 -25 0zm-49 25l0 0 49 -50 0 25 -49 49 0 -24 0 0z" />
            </g>
            <g>
                <path class="fil4"
                    d="M372 2377l-322 0 0 -25 322 0 0 25zm0 0l0 0 0 0 -49 -25 0 -24 49 49 0 0 0 0zm0 0l0 0 25 0 -25 0zm-49 25l0 0 49 -25 0 0 -49 50 0 -25 0 0z" />
            </g>
        </g>
    </g>
</svg>