<svg xmlns="http://www.w3.org/2000/svg" xmlns:xlink="http://www.w3.org/1999/xlink" xmlns:s="https://github.com/nturley/netlistsvg" width="659" height="261">
  <style>svg {
    stroke:#000;
    fill:none;
  }
  text {
    fill:#000;
    stroke:none;
    font-size:10px;
    font-weight: bold;
    font-family: "Courier New", monospace;
  }
  .nodelabel {
    text-anchor: middle;
  }
  .inputPortLabel {
    text-anchor: end;
  }
  .splitjoinBody {
    fill:#000;
  }</style>
  <g s:type="generic" transform="translate(148,22)" s:width="30" s:height="40" id="cell_inst_1_11">
    <text x="15" y="-4" class="nodelabel cell_inst_1_11" s:attribute="ref">module1</text>
    <rect width="30" height="20" s:generic="body" class="cell_inst_1_11"/>
    <g transform="translate(0,10)" s:x="0" s:y="10" s:pid="in0" id="port_inst_1_11~in0">
      <text x="-3" y="-4" class="inputPortLabel cell_inst_1_11">in0</text>
    </g>
    <g transform="translate(30,10)" s:x="30" s:y="10" s:pid="out0" id="port_inst_1_11~out0">
      <text x="5" y="-4" style="fill:#000; stroke:none" class="cell_inst_1_11">out0</text>
    </g>
  </g>
  <g s:type="generic" transform="translate(148,90)" s:width="30" s:height="40" id="cell_inst_1_12">
    <text x="15" y="-4" class="nodelabel cell_inst_1_12" s:attribute="ref">module1</text>
    <rect width="30" height="20" s:generic="body" class="cell_inst_1_12"/>
    <g transform="translate(0,10)" s:x="0" s:y="10" s:pid="in0" id="port_inst_1_12~in0">
      <text x="-3" y="-4" class="inputPortLabel cell_inst_1_12">in0</text>
    </g>
    <g transform="translate(30,10)" s:x="30" s:y="10" s:pid="out0" id="port_inst_1_12~out0">
      <text x="5" y="-4" style="fill:#000; stroke:none" class="cell_inst_1_12">out0</text>
    </g>
  </g>
  <g s:type="generic" transform="translate(148,158)" s:width="30" s:height="40" id="cell_inst_1_13">
    <text x="15" y="-4" class="nodelabel cell_inst_1_13" s:attribute="ref">module1</text>
    <rect width="30" height="20" s:generic="body" class="cell_inst_1_13"/>
    <g transform="translate(0,10)" s:x="0" s:y="10" s:pid="in0" id="port_inst_1_13~in0">
      <text x="-3" y="-4" class="inputPortLabel cell_inst_1_13">in0</text>
    </g>
    <g transform="translate(30,10)" s:x="30" s:y="10" s:pid="out0" id="port_inst_1_13~out0">
      <text x="5" y="-4" style="fill:#000; stroke:none" class="cell_inst_1_13">out0</text>
    </g>
  </g>
  <g s:type="generic" transform="translate(148,226)" s:width="30" s:height="40" id="cell_inst_1_14">
    <text x="15" y="-4" class="nodelabel cell_inst_1_14" s:attribute="ref">module1</text>
    <rect width="30" height="20" s:generic="body" class="cell_inst_1_14"/>
    <g transform="translate(0,10)" s:x="0" s:y="10" s:pid="in0" id="port_inst_1_14~in0">
      <text x="-3" y="-4" class="inputPortLabel cell_inst_1_14">in0</text>
    </g>
    <g transform="translate(30,10)" s:x="30" s:y="10" s:pid="out0" id="port_inst_1_14~out0">
      <text x="5" y="-4" style="fill:#000; stroke:none" class="cell_inst_1_14">out0</text>
    </g>
  </g>
  <g s:type="generic" transform="translate(258,22)" s:width="30" s:height="40" id="cell_inst_1_21">
    <text x="15" y="-4" class="nodelabel cell_inst_1_21" s:attribute="ref">module1</text>
    <rect width="30" height="20" s:generic="body" class="cell_inst_1_21"/>
    <g transform="translate(0,10)" s:x="0" s:y="10" s:pid="in0" id="port_inst_1_21~in0">
      <text x="-3" y="-4" class="inputPortLabel cell_inst_1_21">in0</text>
    </g>
    <g transform="translate(30,10)" s:x="30" s:y="10" s:pid="out0" id="port_inst_1_21~out0">
      <text x="5" y="-4" style="fill:#000; stroke:none" class="cell_inst_1_21">out0</text>
    </g>
  </g>
  <g s:type="generic" transform="translate(258,90)" s:width="30" s:height="40" id="cell_inst_1_22">
    <text x="15" y="-4" class="nodelabel cell_inst_1_22" s:attribute="ref">module1</text>
    <rect width="30" height="20" s:generic="body" class="cell_inst_1_22"/>
    <g transform="translate(0,10)" s:x="0" s:y="10" s:pid="in0" id="port_inst_1_22~in0">
      <text x="-3" y="-4" class="inputPortLabel cell_inst_1_22">in0</text>
    </g>
    <g transform="translate(30,10)" s:x="30" s:y="10" s:pid="out0" id="port_inst_1_22~out0">
      <text x="5" y="-4" style="fill:#000; stroke:none" class="cell_inst_1_22">out0</text>
    </g>
  </g>
  <g s:type="generic" transform="translate(258,158)" s:width="30" s:height="40" id="cell_inst_1_23">
    <text x="15" y="-4" class="nodelabel cell_inst_1_23" s:attribute="ref">module1</text>
    <rect width="30" height="20" s:generic="body" class="cell_inst_1_23"/>
    <g transform="translate(0,10)" s:x="0" s:y="10" s:pid="in0" id="port_inst_1_23~in0">
      <text x="-3" y="-4" class="inputPortLabel cell_inst_1_23">in0</text>
    </g>
    <g transform="translate(30,10)" s:x="30" s:y="10" s:pid="out0" id="port_inst_1_23~out0">
      <text x="5" y="-4" style="fill:#000; stroke:none" class="cell_inst_1_23">out0</text>
    </g>
  </g>
  <g s:type="generic" transform="translate(258,226)" s:width="30" s:height="40" id="cell_inst_1_24">
    <text x="15" y="-4" class="nodelabel cell_inst_1_24" s:attribute="ref">module1</text>
    <rect width="30" height="20" s:generic="body" class="cell_inst_1_24"/>
    <g transform="translate(0,10)" s:x="0" s:y="10" s:pid="in0" id="port_inst_1_24~in0">
      <text x="-3" y="-4" class="inputPortLabel cell_inst_1_24">in0</text>
    </g>
    <g transform="translate(30,10)" s:x="30" s:y="10" s:pid="out0" id="port_inst_1_24~out0">
      <text x="5" y="-4" style="fill:#000; stroke:none" class="cell_inst_1_24">out0</text>
    </g>
  </g>
  <g s:type="generic" transform="translate(368,22)" s:width="30" s:height="40" id="cell_inst_1_31">
    <text x="15" y="-4" class="nodelabel cell_inst_1_31" s:attribute="ref">module1</text>
    <rect width="30" height="20" s:generic="body" class="cell_inst_1_31"/>
    <g transform="translate(0,10)" s:x="0" s:y="10" s:pid="in0" id="port_inst_1_31~in0">
      <text x="-3" y="-4" class="inputPortLabel cell_inst_1_31">in0</text>
    </g>
    <g transform="translate(30,10)" s:x="30" s:y="10" s:pid="out0" id="port_inst_1_31~out0">
      <text x="5" y="-4" style="fill:#000; stroke:none" class="cell_inst_1_31">out0</text>
    </g>
  </g>
  <g s:type="generic" transform="translate(368,90)" s:width="30" s:height="40" id="cell_inst_1_32">
    <text x="15" y="-4" class="nodelabel cell_inst_1_32" s:attribute="ref">module1</text>
    <rect width="30" height="20" s:generic="body" class="cell_inst_1_32"/>
    <g transform="translate(0,10)" s:x="0" s:y="10" s:pid="in0" id="port_inst_1_32~in0">
      <text x="-3" y="-4" class="inputPortLabel cell_inst_1_32">in0</text>
    </g>
    <g transform="translate(30,10)" s:x="30" s:y="10" s:pid="out0" id="port_inst_1_32~out0">
      <text x="5" y="-4" style="fill:#000; stroke:none" class="cell_inst_1_32">out0</text>
    </g>
  </g>
  <g s:type="generic" transform="translate(368,158)" s:width="30" s:height="40" id="cell_inst_1_33">
    <text x="15" y="-4" class="nodelabel cell_inst_1_33" s:attribute="ref">module1</text>
    <rect width="30" height="20" s:generic="body" class="cell_inst_1_33"/>
    <g transform="translate(0,10)" s:x="0" s:y="10" s:pid="in0" id="port_inst_1_33~in0">
      <text x="-3" y="-4" class="inputPortLabel cell_inst_1_33">in0</text>
    </g>
    <g transform="translate(30,10)" s:x="30" s:y="10" s:pid="out0" id="port_inst_1_33~out0">
      <text x="5" y="-4" style="fill:#000; stroke:none" class="cell_inst_1_33">out0</text>
    </g>
  </g>
  <g s:type="generic" transform="translate(368,226)" s:width="30" s:height="40" id="cell_inst_1_34">
    <text x="15" y="-4" class="nodelabel cell_inst_1_34" s:attribute="ref">module1</text>
    <rect width="30" height="20" s:generic="body" class="cell_inst_1_34"/>
    <g transform="translate(0,10)" s:x="0" s:y="10" s:pid="in0" id="port_inst_1_34~in0">
      <text x="-3" y="-4" class="inputPortLabel cell_inst_1_34">in0</text>
    </g>
    <g transform="translate(30,10)" s:x="30" s:y="10" s:pid="out0" id="port_inst_1_34~out0">
      <text x="5" y="-4" style="fill:#000; stroke:none" class="cell_inst_1_34">out0</text>
    </g>
  </g>
  <g s:type="generic" transform="translate(478,22)" s:width="30" s:height="40" id="cell_inst_1_41">
    <text x="15" y="-4" class="nodelabel cell_inst_1_41" s:attribute="ref">module1</text>
    <rect width="30" height="20" s:generic="body" class="cell_inst_1_41"/>
    <g transform="translate(0,10)" s:x="0" s:y="10" s:pid="in0" id="port_inst_1_41~in0">
      <text x="-3" y="-4" class="inputPortLabel cell_inst_1_41">in0</text>
    </g>
    <g transform="translate(30,10)" s:x="30" s:y="10" s:pid="out0" id="port_inst_1_41~out0">
      <text x="5" y="-4" style="fill:#000; stroke:none" class="cell_inst_1_41">out0</text>
    </g>
  </g>
  <g s:type="generic" transform="translate(478,90)" s:width="30" s:height="40" id="cell_inst_1_42">
    <text x="15" y="-4" class="nodelabel cell_inst_1_42" s:attribute="ref">module1</text>
    <rect width="30" height="20" s:generic="body" class="cell_inst_1_42"/>
    <g transform="translate(0,10)" s:x="0" s:y="10" s:pid="in0" id="port_inst_1_42~in0">
      <text x="-3" y="-4" class="inputPortLabel cell_inst_1_42">in0</text>
    </g>
    <g transform="translate(30,10)" s:x="30" s:y="10" s:pid="out0" id="port_inst_1_42~out0">
      <text x="5" y="-4" style="fill:#000; stroke:none" class="cell_inst_1_42">out0</text>
    </g>
  </g>
  <g s:type="generic" transform="translate(478,158)" s:width="30" s:height="40" id="cell_inst_1_43">
    <text x="15" y="-4" class="nodelabel cell_inst_1_43" s:attribute="ref">module1</text>
    <rect width="30" height="20" s:generic="body" class="cell_inst_1_43"/>
    <g transform="translate(0,10)" s:x="0" s:y="10" s:pid="in0" id="port_inst_1_43~in0">
      <text x="-3" y="-4" class="inputPortLabel cell_inst_1_43">in0</text>
    </g>
    <g transform="translate(30,10)" s:x="30" s:y="10" s:pid="out0" id="port_inst_1_43~out0">
      <text x="5" y="-4" style="fill:#000; stroke:none" class="cell_inst_1_43">out0</text>
    </g>
  </g>
  <g s:type="generic" transform="translate(478,226)" s:width="30" s:height="40" id="cell_inst_1_44">
    <text x="15" y="-4" class="nodelabel cell_inst_1_44" s:attribute="ref">module1</text>
    <rect width="30" height="20" s:generic="body" class="cell_inst_1_44"/>
    <g transform="translate(0,10)" s:x="0" s:y="10" s:pid="in0" id="port_inst_1_44~in0">
      <text x="-3" y="-4" class="inputPortLabel cell_inst_1_44">in0</text>
    </g>
    <g transform="translate(30,10)" s:x="30" s:y="10" s:pid="out0" id="port_inst_1_44~out0">
      <text x="5" y="-4" style="fill:#000; stroke:none" class="cell_inst_1_44">out0</text>
    </g>
  </g>
  <g s:type="inputExt" transform="translate(12,32.5)" s:width="30" s:height="20" id="cell_in">
    <text x="15" y="-4" class="nodelabel cell_in" s:attribute="ref">in</text>
    <s:alias val="$_inputExt_"/>
    <path d="M0,0 L0,20 L15,20 L30,10 L15,0 Z" class="cell_in"/>
    <g s:x="28" s:y="10" s:pid="Y"/>
  </g>
  <g s:type="outputExt" transform="translate(617,80.5)" s:width="30" s:height="20" id="cell_out">
    <text x="15" y="-4" class="nodelabel cell_out" s:attribute="ref">out</text>
    <s:alias val="$_outputExt_"/>
    <path d="M30,0 L30,20 L15,20 L0,10 L15,0 Z" class="cell_out"/>
    <g s:x="0" s:y="10" s:pid="A"/>
  </g>
  <g s:type="join" transform="translate(576,70)" s:width="4" s:height="40" id="cell_$join$,6,7,8,9,">
    <rect width="5" height="80" class="splitjoinBody" s:generic="body"/>
    <s:alias val="$_join_"/>
    <g s:x="5" s:y="20" s:pid="out"/>
    <g transform="translate(0,10)" s:x="0" s:y="10" s:pid="in0">
      <text x="-3" y="-4" class="inputPortLabel">0</text>
    </g>
    <g transform="translate(0,30)" s:x="0" s:y="10" s:pid="in0">
      <text x="-3" y="-4" class="inputPortLabel">1</text>
    </g>
    <g transform="translate(0,50)" s:x="0" s:y="10" s:pid="in0">
      <text x="-3" y="-4" class="inputPortLabel">2</text>
    </g>
    <g transform="translate(0,70)" s:x="0" s:y="10" s:pid="in0">
      <text x="-3" y="-4" class="inputPortLabel">3</text>
    </g>
  </g>
  <g s:type="split" transform="translate(77,22)" s:width="5" s:height="40" id="cell_$split$,2,3,4,5,">
    <rect width="5" height="80" class="splitjoinBody" s:generic="body"/>
    <s:alias val="$_split_"/>
    <g s:x="0" s:y="20" s:pid="in"/>
    <g transform="translate(4,10)" s:x="4" s:y="10" s:pid="out0">
      <text x="5" y="-4">0</text>
    </g>
    <g transform="translate(4,30)" s:x="4" s:y="10" s:pid="out0">
      <text x="5" y="-4">1</text>
    </g>
    <g transform="translate(4,50)" s:x="4" s:y="10" s:pid="out0">
      <text x="5" y="-4">2</text>
    </g>
    <g transform="translate(4,70)" s:x="4" s:y="10" s:pid="out0">
      <text x="5" y="-4">3</text>
    </g>
  </g>
  <line x1="82" x2="148" y1="32.5" y2="32.5" class="net_2"/>
  <line x1="82" x2="119" y1="52.5" y2="52.5" class="net_3"/>
  <line x1="119" x2="119" y1="52.5" y2="100.5" class="net_3"/>
  <line x1="119" x2="148" y1="100.5" y2="100.5" class="net_3"/>
  <line x1="82" x2="109" y1="72.5" y2="72.5" class="net_4"/>
  <line x1="109" x2="109" y1="72.5" y2="168.5" class="net_4"/>
  <line x1="109" x2="148" y1="168.5" y2="168.5" class="net_4"/>
  <line x1="82" x2="99" y1="92.5" y2="92.5" class="net_5"/>
  <line x1="99" x2="99" y1="92.5" y2="236.5" class="net_5"/>
  <line x1="99" x2="148" y1="236.5" y2="236.5" class="net_5"/>
  <line x1="179" x2="258" y1="32.5" y2="32.5" class="net_10"/>
  <line x1="179" x2="258" y1="100.5" y2="100.5" class="net_11"/>
  <line x1="179" x2="258" y1="168.5" y2="168.5" class="net_12"/>
  <line x1="179" x2="258" y1="236.5" y2="236.5" class="net_13"/>
  <line x1="289" x2="368" y1="32.5" y2="32.5" class="net_14"/>
  <line x1="289" x2="368" y1="100.5" y2="100.5" class="net_15"/>
  <line x1="289" x2="368" y1="168.5" y2="168.5" class="net_16"/>
  <line x1="289" x2="368" y1="236.5" y2="236.5" class="net_17"/>
  <line x1="399" x2="478" y1="32.5" y2="32.5" class="net_18"/>
  <line x1="399" x2="478" y1="100.5" y2="100.5" class="net_19"/>
  <line x1="399" x2="478" y1="168.5" y2="168.5" class="net_20"/>
  <line x1="399" x2="478" y1="236.5" y2="236.5" class="net_21"/>
  <line x1="582" x2="617" y1="90.5" y2="90.5" class="net_6,7,8,9"/>
  <line x1="509" x2="544" y1="32.5" y2="32.5" class="net_6"/>
  <line x1="544" x2="544" y1="32.5" y2="80.5" class="net_6"/>
  <line x1="544" x2="576" y1="80.5" y2="80.5" class="net_6"/>
  <line x1="509" x2="576" y1="100.5" y2="100.5" class="net_7"/>
  <line x1="509" x2="544" y1="168.5" y2="168.5" class="net_8"/>
  <line x1="544" x2="544" y1="168.5" y2="120.5" class="net_8"/>
  <line x1="544" x2="576" y1="120.5" y2="120.5" class="net_8"/>
  <line x1="509" x2="576.5" y1="236.5" y2="236.5" class="net_9"/>
  <line x1="576.5" x2="576.5" y1="236.5" y2="141" class="net_9"/>
  <line x1="40" x2="77" y1="42.5" y2="42.5" class="net_2,3,4,5"/>
</svg>
