<?xml version="1.0" encoding="UTF-8"?>
<!DOCTYPE svg PUBLIC "-//W3C//DTD SVG 1.0//EN" "http://www.w3.org/TR/2001/REC-SVG-20010904/DTD/svg10.dtd">
<!-- Creator: CorelDRAW X8 -->
<svg xmlns="http://www.w3.org/2000/svg" xml:space="preserve" width="100%" height="100%" version="1.0" style="shape-rendering:geometricPrecision; text-rendering:geometricPrecision; image-rendering:optimizeQuality; fill-rule:evenodd; clip-rule:evenodd"
viewBox="0 0 3482 1730"
 xmlns:xlink="http://www.w3.org/1999/xlink">
 <defs>
  <style type="text/css">
   <![CDATA[
    .str0 {stroke:#373435;stroke-width:13.8858}
    .fil0 {fill:#E6E7E8}
    .fil1 {fill:#373435}
    .fil5 {fill:#848688;fill-rule:nonzero}
    .fil4 {fill:#373435;fill-rule:nonzero}
    .fil3 {fill:#373435;fill-rule:nonzero}
    .fil2 {fill:#00A859;fill-rule:nonzero}
    .fil6 {fill:#373435;fill-rule:nonzero;fill-opacity:0.501961}
    .fnt1 {font-weight:normal;font-size:83.3346px;font-family:'Arial'}
    .fnt0 {font-style:italic;font-weight:normal;font-size:83.3346px;font-family:'Lato'}
   ]]>
  </style>
 </defs>
 <g id="Layer_x0020_1">
  <metadata id="CorelCorpID_0Corel-Layer"/>
  <path class="fil0 str0" d="M685 322l2062 0c30,0 54,12 54,26l0 970c0,14 -24,25 -54,25l-2062 0c-29,0 -54,-11 -54,-25l0 -970c0,-14 25,-26 54,-26z"/>
  <text x="1428" y="1516"  class="fil1 fnt0">grid_bottom_r_out</text>
  <g>
   <path class="fil2" d="M563 1110l178 0 0 13 -178 0 0 -13zm-16 1l7 11 0 -11 43 28 -7 11 -43 -28 0 -11zm0 0l0 11 -9 -6 9 -5zm47 -23l3 6 -43 28 -7 -11 43 -28 4 5z"/>
  </g>
  <text x="77" y="1140"  class="fil1 fnt0">grid_left_out</text>
  <g>
   <path class="fil2" d="M915 1409l0 -178 14 0 0 178 -14 0zm1 16l12 -8 -12 0 28 -43 12 8 -28 43 -12 0zm0 0l12 0 -6 9 -6 -9zm-22 -47l6 -4 28 43 -12 8 -28 -43 6 -4z"/>
  </g>
  <text x="449" y="1585"  class="fil1 fnt0">grid_bottom_out</text>
  <g>
   <path class="fil3" d="M722 1033l-178 0 0 -14 178 0 0 14zm16 -1l-8 -12 0 12 -43 -28 8 -12 43 28 0 12zm0 0l0 -12 9 6 -9 6zm-47 22l-4 -6 43 -28 8 12 -43 28 -4 -6z"/>
  </g>
  <text x="131" y="1049"  class="fil1 fnt0">grid_left_in</text>
  <g>
   <path class="fil2" d="M2137 1416l0 -176 14 0 0 176 -14 0zm2 16l11 -7 -11 0 28 -44 11 8 -28 43 -11 0zm0 0l11 0 -6 9 -5 -9zm-23 -47l6 -4 28 44 -11 7 -28 -43 5 -4z"/>
  </g>
  <g>
   <path class="fil3" d="M1124 1250l0 178 -14 0 0 -178 14 0zm-1 -16l-12 7 12 0 -28 43 -12 -7 28 -43 12 0zm0 0l-12 0 6 -9 6 9zm22 47l-6 3 -28 -43 12 -7 28 43 -6 4z"/>
  </g>
  <g>
   <path class="fil2" d="M2003 1415l0 -176 14 0 0 176 -14 0zm1 17l11 -8 -11 0 28 -43 11 8 -28 43 -11 0zm0 0l11 0 -5 9 -6 -9zm-22 -47l5 -4 28 43 -11 8 -28 -43 6 -4z"/>
  </g>
  <g>
   <path class="fil2" d="M2407 1415l0 -176 14 0 0 176 -14 0zm1 17l12 -8 -12 0 28 -43 12 8 -28 43 -12 0zm0 0l12 0 -6 9 -6 -9zm-22 -47l6 -4 28 43 -12 8 -28 -43 6 -4z"/>
  </g>
  <text x="499" y="1697"  class="fil1 fnt0">grid_bottom_in</text>
  <text x="2394" y="1516"  class="fil1 fnt0">grid_bottom_l_out</text>
  <g>
   <path class="fil4" d="M2286 1260l0 176 -14 0 0 -176 14 0zm-1 -16l-12 7 12 0 -28 44 -12 -8 28 -43 12 0zm0 0l-12 0 6 -9 6 9zm22 47l-6 4 -28 -44 12 -7 28 43 -6 4z"/>
  </g>
  <text x="1529" y="1715"  class="fil1 fnt0">chany_bottom_out</text>
  <text x="2245" y="1715"  class="fil1 fnt0">chany_bottom__in</text>
  <text x="4" y="617"  class="fil1 fnt0">chanx_left_out</text>
  <g>
   <path class="fil2" d="M570 570l164 0 0 13 -164 0 0 -13zm-17 1l8 11 0 -11 43 28 -8 11 -43 -28 0 -11zm0 0l0 11 -9 -6 9 -5zm47 -23l4 6 -43 28 -8 -11 43 -28 4 5z"/>
  </g>
  <text x="3" y="519"  class="fil1 fnt0">grid_left_b_out</text>
  <g>
   <path class="fil2" d="M570 484l164 0 0 14 -164 0 0 -14zm-17 1l8 12 0 -12 43 28 -8 12 -43 -28 0 -12zm0 0l0 12 -9 -6 9 -6zm47 -22l4 6 -43 28 -8 -12 43 -28 4 6z"/>
  </g>
  <text x="18" y="811"  class="fil1 fnt0">grid_left_t_out</text>
  <g>
   <path class="fil2" d="M570 774l164 0 0 14 -164 0 0 -14zm-17 1l8 12 0 -12 43 28 -8 12 -43 -28 0 -12zm0 0l0 12 -9 -6 9 -6zm47 -22l4 6 -43 28 -8 -12 43 -28 4 6z"/>
  </g>
  <text x="28" y="714"  class="fil1 fnt0">chanx__left_in</text>
  <g>
   <path class="fil4" d="M715 681l-165 0 0 -14 165 0 0 14zm17 -1l-8 -12 0 12 -43 -28 7 -12 44 28 0 12zm0 0l0 -12 9 6 -9 6zm-47 22l-4 -6 43 -28 8 12 -44 28 -3 -6z"/>
  </g>
  <g>
   <path class="fil4" d="M2481 396l0 -178 14 0 0 178 -14 0zm1 17l11 -8 -11 0 28 -43 11 7 -28 44 -11 0zm0 0l11 0 -5 9 -6 -9zm-22 -47l5 -4 28 43 -11 8 -28 -44 6 -3z"/>
  </g>
  <g>
   <path class="fil4" d="M1988 396l0 -178 14 0 0 178 -14 0zm1 17l12 -8 -12 0 28 -43 12 7 -28 44 -12 0zm0 0l12 0 -6 9 -6 -9zm-22 -47l6 -4 28 43 -12 8 -28 -44 6 -3z"/>
  </g>
  <g>
   <path class="fil4" d="M2391 396l0 -178 14 0 0 178 -14 0zm1 17l12 -8 -12 0 28 -43 12 7 -28 44 -12 0zm0 0l12 0 -6 9 -6 -9zm-22 -47l6 -4 28 43 -12 8 -28 -44 6 -3z"/>
  </g>
  <g>
   <path class="fil2" d="M2270 238l0 177 -13 0 0 -177 13 0zm-1 -17l-11 8 11 0 -28 43 -11 -8 28 -43 11 0zm0 0l-11 0 5 -9 6 9zm22 47l-5 4 -28 -43 11 -8 28 43 -6 4z"/>
  </g>
  <g>
   <path class="fil4" d="M2717 1019l178 0 0 14 -178 0 0 -14zm-16 1l8 12 0 -12 43 28 -8 12 -43 -28 0 -12zm0 0l0 12 -9 -6 9 -6zm47 -22l4 6 -43 28 -8 -12 43 -28 4 6z"/>
  </g>
  <g>
   <path class="fil2" d="M2876 1123l-178 0 0 -13 178 0 0 13zm16 -1l-7 -11 0 11 -43 -28 7 -11 43 28 0 11zm0 0l0 -11 9 5 -9 6zm-47 23l-3 -6 43 -28 7 11 -43 28 -4 -5z"/>
  </g>
  <g>
   <path class="fil3" d="M1091 394l0 -174 14 0 0 174 -14 0zm2 16l11 -7 -11 0 28 -43 11 7 -28 43 -11 0zm0 0l11 0 -6 9 -5 -9zm-23 -47l6 -3 28 43 -11 7 -28 -43 5 -4z"/>
  </g>
  <g>
   <path class="fil2" d="M981 238l0 177 -14 0 0 -177 14 0zm-1 -17l-12 8 12 0 -28 43 -12 -8 28 -43 12 0zm0 0l-12 0 6 -9 6 9zm22 47l-6 4 -28 -43 12 -8 28 43 -6 4z"/>
  </g>
  <g>
   <path class="fil5" d="M1114 1518l6 0 15 21 -6 4 -14 -21 5 0 -6 -4zm0 0l3 -4 3 4 -6 0zm-10 24l-3 -2 13 -22 6 4 -13 22 -3 -2zm-112 96l-7 0 0 -5 1 -5 2 -4 2 -4 3 -4 4 -3 4 -3 5 -2 4 -3 6 -2 5 -2 6 -3 6 -2 6 -2 6 -2 6 -2 6 -2 6 -2 6 -3 6 -2 5 -3 6 -3 5 -3 4 -4 4 -4 4 -4 3 -4 3 -5 2 -6 2 -5 1 -7 0 -7 7 0 0 8 -1 7 -2 7 -3 6 -3 5 -3 5 -5 5 -4 4 -5 4 -6 4 -5 3 -6 3 -6 3 -6 2 -7 3 -6 2 -6 2 -6 2 -6 2 -6 2 -5 2 -6 2 -5 2 -4 3 -4 2 -4 3 -3 2 -2 3 -2 3 -1 3 -1 4 0 4z"/>
  </g>
  <g>
   <path class="fil5" d="M2143 1470l5 0 15 21 -6 4 -14 -22 5 0 -5 -3zm0 0l2 -5 3 5 -5 0zm-11 23l-3 -2 14 -21 5 3 -13 22 -3 -2zm-112 162l-6 0 -1 -7 1 -7 2 -7 2 -6 3 -5 4 -5 4 -5 4 -4 5 -4 5 -4 6 -3 5 -3 6 -4 6 -3 6 -3 6 -3 7 -4 6 -4 5 -3 6 -5 6 -4 5 -5 5 -5 5 -6 4 -6 4 -7 3 -7 3 -8 2 -9 2 -9 1 -11 0 -11 7 0 0 11 -1 11 -2 11 -2 9 -3 9 -4 7 -4 8 -5 6 -5 7 -5 5 -6 5 -6 5 -6 4 -6 4 -6 4 -6 4 -6 3 -7 3 -5 3 -6 4 -6 3 -5 3 -5 4 -4 3 -4 4 -4 4 -3 5 -3 4 -2 5 -1 6 -1 6 0 7z"/>
  </g>
  <g>
   <path class="fil5" d="M2273 1470l6 0 14 21 -6 4 -14 -22 6 0 -6 -3zm0 0l3 -5 3 5 -6 0zm-11 23l-3 -2 14 -21 6 3 -14 22 -3 -2zm146 162l-7 0 0 -7 -1 -6 -1 -6 -2 -5 -2 -4 -3 -5 -4 -4 -4 -4 -5 -3 -4 -4 -6 -3 -5 -3 -6 -4 -6 -3 -6 -3 -6 -3 -6 -4 -7 -4 -6 -4 -6 -4 -6 -5 -5 -5 -6 -5 -5 -7 -4 -6 -4 -8 -4 -7 -3 -9 -2 -9 -2 -11 -1 -11 0 -11 6 0 1 11 1 11 1 9 3 9 2 8 4 7 4 7 4 6 4 6 5 5 6 5 5 4 6 5 6 3 6 4 6 4 6 3 6 3 6 3 6 4 6 3 5 3 6 4 5 4 4 4 4 5 4 5 3 5 2 6 1 7 1 7 0 7z"/>
  </g>
  <g>
   <path class="fil4" d="M2719 576l175 0 0 13 -175 0 0 -13zm-16 1l7 11 0 -11 43 28 -7 11 -43 -28 0 -11zm0 0l0 11 -10 -5 10 -6zm47 -22l3 5 -43 28 -7 -11 43 -28 4 6z"/>
  </g>
  <g>
   <path class="fil4" d="M2719 490l176 0 0 14 -176 0 0 -14zm-16 1l8 12 0 -12 43 28 -8 12 -43 -28 0 -12zm0 0l0 12 -9 -6 9 -6zm47 -22l4 6 -43 28 -8 -12 43 -28 4 6z"/>
  </g>
  <g>
   <path class="fil4" d="M2719 780l176 0 0 14 -176 0 0 -14zm-16 1l8 12 0 -12 43 28 -8 12 -43 -28 0 -12zm0 0l0 12 -9 -6 9 -6zm47 -22l4 6 -43 28 -8 -12 43 -28 4 6z"/>
  </g>
  <g>
   <path class="fil2" d="M2874 687l-175 0 0 -14 175 0 0 14zm16 -1l-7 -12 0 12 -43 -28 7 -12 43 28 0 12zm0 0l0 -12 9 6 -9 6zm-47 22l-3 -6 43 -28 7 12 -43 28 -4 -6z"/>
  </g>
  <text x="2941" y="613"  class="fil1 fnt0">chanx_right_out</text>
  <text x="2946" y="517"  class="fil1 fnt0">grid_right_t_in</text>
  <text x="2946" y="809"  class="fil1 fnt0">grid_right_b_in</text>
  <text x="2941" y="711"  class="fil1 fnt0">chanx_right_in</text>
  <text x="2946" y="1049"  class="fil1 fnt0">grid_right_in</text>
  <text x="2946" y="1140"  class="fil1 fnt0">grid_right_out</text>
  <text x="571" y="196"  class="fil1 fnt0">grid_top_out</text>
  <text x="1112" y="196"  class="fil1 fnt0">grid_top_in</text>
  <text x="1576" y="196"  class="fil1 fnt0">grid_top_r_in</text>
  <text x="2397" y="194"  class="fil1 fnt1">grid_top_l_in</text>
  <text x="1723" y="67"  class="fil1 fnt0">chany_top_in</text>
  <text x="2257" y="61"  class="fil1 fnt0">chany_top__out</text>
  <g>
   <path class="fil5" d="M2141 218l-6 0 -13 -22 6 -4 13 22 -6 0 6 4zm0 0l-3 4 -3 -4 6 0zm11 -23l3 1 -14 22 -6 -4 14 -21 3 2zm-146 -110l7 1 0 4 1 4 1 4 2 3 2 3 3 3 4 3 4 3 4 2 5 3 5 2 6 2 6 3 6 2 6 2 6 2 6 3 6 3 7 2 6 3 5 4 6 3 5 4 5 5 5 4 4 5 4 6 3 6 3 7 1 7 1 8 1 9 -7 -1 -1 -7 0 -7 -2 -7 -2 -6 -3 -5 -3 -6 -4 -4 -4 -4 -5 -4 -5 -4 -5 -3 -6 -3 -5 -3 -6 -3 -6 -3 -7 -2 -6 -2 -6 -3 -6 -2 -6 -2 -5 -3 -6 -2 -5 -3 -5 -2 -4 -3 -4 -3 -4 -4 -3 -4 -2 -4 -2 -5 -1 -5 0 -6z"/>
  </g>
  <g>
   <path class="fil5" d="M2272 218l-6 0 -14 -22 5 -3 15 21 -6 0 6 4zm0 0l-3 4 -3 -4 6 0zm10 -24l3 2 -13 22 -6 -4 13 -22 3 2zm112 -108l7 -1 0 6 -1 5 -2 5 -2 4 -3 4 -4 4 -4 3 -4 3 -5 2 -5 3 -6 2 -6 3 -5 2 -6 2 -7 3 -6 2 -6 2 -6 3 -6 3 -6 3 -5 3 -5 3 -5 4 -5 4 -4 4 -4 4 -3 6 -3 5 -2 6 -2 7 -1 7 0 7 -7 1 0 -9 1 -8 2 -7 3 -7 3 -6 3 -6 5 -5 4 -4 5 -5 6 -4 5 -3 6 -4 6 -3 6 -2 7 -3 6 -3 6 -2 6 -2 6 -2 6 -3 5 -2 6 -2 5 -3 4 -2 4 -3 4 -3 3 -3 2 -3 2 -3 1 -4 1 -4 0 -4z"/>
  </g>
  <path class="fil6" d="M1530 950l-49 0 41 -199 -70 0 8 -40 188 0 -8 40 -69 0 -41 199zm143 -239l47 0 -9 43 -47 0 9 -43zm-13 66l46 0 -36 173 -47 0 37 -173zm56 173l50 -239 46 0 -50 239 -46 0zm261 -72l-117 0c-1,2 -1,3 -1,4 0,12 4,21 10,28 7,7 15,11 25,11 15,0 27,-8 36,-24l42 7c-8,17 -19,29 -33,38 -14,8 -29,12 -46,12 -23,0 -42,-7 -57,-22 -14,-15 -21,-34 -21,-58 0,-24 6,-45 19,-64 18,-25 44,-37 77,-37 21,0 38,6 50,19 13,13 19,32 19,55 0,12 -1,22 -3,31zm-39 -28c0,-2 0,-4 0,-5 0,-13 -3,-23 -9,-29 -6,-7 -13,-10 -23,-10 -10,0 -18,4 -26,11 -8,7 -13,18 -16,33l74 0z"/>
 </g>
</svg>
