<?xml version="1.0" encoding="UTF-8"?>
<!DOCTYPE svg PUBLIC "-//W3C//DTD SVG 1.0//EN" "http://www.w3.org/TR/2001/REC-SVG-20010904/DTD/svg10.dtd">
<!-- Creator: CorelDRAW X8 -->
<svg xmlns="http://www.w3.org/2000/svg" xml:space="preserve" width="100%" height="100%" version="1.0" style="shape-rendering:geometricPrecision; text-rendering:geometricPrecision; image-rendering:optimizeQuality; fill-rule:evenodd; clip-rule:evenodd"
viewBox="0 0 4279 3095"
 xmlns:xlink="http://www.w3.org/1999/xlink">
 <defs>
  <style type="text/css">
   <![CDATA[
    .str0 {stroke:#373435;stroke-width:13.8858}
    .str1 {stroke:#373435;stroke-width:6.94488}
    .str2 {stroke:black;stroke-width:10.4173}
    .fil0 {fill:#E6E7E8}
    .fil8 {fill:#373435}
    .fil5 {fill:#CCE7D4}
    .fil1 {fill:#E5E5F7}
    .fil12 {fill:#848688;fill-rule:nonzero}
    .fil11 {fill:#373435;fill-rule:nonzero}
    .fil10 {fill:#373435;fill-rule:nonzero}
    .fil9 {fill:#00A859;fill-rule:nonzero}
    .fil3 {fill:black;fill-rule:nonzero}
    .fil7 {fill:#606062;fill-rule:nonzero;fill-opacity:0.200000}
    .fil6 {fill:#373435;fill-rule:nonzero;fill-opacity:0.200000}
    .fil2 {fill:#D9D9F3;fill-opacity:0.701961}
    .fil4 {fill:#F4F0E6;fill-opacity:0.701961}
    .fnt3 {font-weight:normal;font-size:69.4449px;font-family:'Arial'}
    .fnt2 {font-weight:normal;font-size:69.4449px;font-family:'Lato'}
    .fnt4 {font-weight:normal;font-size:83.3346px;font-family:'Arial'}
    .fnt1 {font-style:italic;font-weight:normal;font-size:69.4449px;font-family:'Lato'}
    .fnt0 {font-style:italic;font-weight:normal;font-size:83.3346px;font-family:'Lato'}
   ]]>
  </style>
 </defs>
 <g id="Layer_x0020_1">
  <metadata id="CorelCorpID_0Corel-Layer"/>
  <path class="fil0 str0" d="M705 409l2815 0c40,0 73,25 73,56l0 2166c0,31 -33,57 -73,57l-2815 0c-41,0 -74,-26 -74,-57l0 -2166c0,-31 33,-56 74,-56z"/>
  <rect class="fil1 str1" x="2259" y="1696" width="1177" height="833"/>
  <g>
   <path class="fil2" d="M753 709l1366 0 0 590 -1366 0 0 -590z"/>
   <path id="1" class="fil3" d="M2119 714l-1366 0 0 -10 1366 0 9 5 -9 5zm0 -10l9 0 0 5 -9 -5zm-9 595l0 -590 18 0 0 590 -9 6 -9 -6zm18 0l0 6 -9 0 9 -6zm-1375 -5l1366 0 0 11 -1366 0 -8 -6 8 -5zm0 11l-8 0 0 -6 8 6zm9 -596l0 590 -17 0 0 -590 8 -5 9 5zm-17 0l0 -5 8 0 -8 5z"/>
  </g>
  <g>
   <path class="fil4" d="M772 1718l1333 0 0 789 -1333 0 0 -789z"/>
   <path id="1" class="fil3" d="M2105 1715l6 3 -6 3 -1333 0 0 -6 1333 0zm0 0l6 0 0 3 -6 -3zm6 792l-6 4 -5 -4 0 -789 11 0 0 789zm0 0l0 4 -6 0 6 -4zm-1339 4l-5 -4 5 -3 1333 0 0 7 -1333 0zm0 0l-5 0 0 -4 5 4zm-5 -793l5 -3 5 3 0 789 -10 0 0 -789zm0 0l0 -3 5 0 -5 3z"/>
  </g>
  <path class="fil5 str2" d="M2231 1551c0,-396 0,-672 0,-1061l1225 0c8,392 0,681 0,1061l-1225 0z"/>
  <path class="fil6" d="M1289 1050c2,0 4,0 6,-1 2,0 3,0 4,-1 1,0 3,-1 3,-2 1,0 2,-1 3,-1 0,-1 1,-1 2,-2 0,0 1,0 1,0 1,0 1,0 1,0 1,0 1,0 1,1l5 6c-3,4 -8,7 -12,9 -5,2 -10,3 -17,3 -4,0 -9,-1 -13,-2 -4,-2 -7,-5 -9,-8 -3,-3 -5,-7 -7,-11 -1,-4 -2,-9 -2,-14 0,-4 1,-9 2,-13 1,-4 2,-8 4,-11 2,-4 4,-7 7,-10 2,-3 5,-5 8,-7 4,-2 7,-3 11,-4 3,-1 7,-2 11,-2 3,0 6,0 8,1 2,0 5,1 7,2 2,1 3,2 5,4 1,1 3,2 4,4l-5 6c0,1 -1,1 -1,1 -1,1 -1,1 -2,1 -1,0 -2,-1 -2,-1 -1,-1 -2,-2 -3,-2 -1,-1 -3,-2 -5,-3 -1,0 -4,-1 -7,-1 -4,0 -7,1 -10,3 -4,1 -7,4 -9,6 -2,3 -4,7 -6,11 -1,4 -2,9 -2,14 0,4 1,7 2,10 1,3 2,6 3,8 2,2 4,3 6,4 3,1 5,2 8,2zm56 -32l-18 -37 13 0c1,0 2,0 2,0 1,1 1,1 1,2l13 27c0,0 1,-1 1,-2l17 -25c1,-1 2,-2 3,-2l15 0 -27 37 20 43 -13 0c-1,0 -1,0 -2,0 0,-1 -1,-2 -1,-2l-14 -32c0,0 0,0 -1,1 0,0 0,0 0,0l-21 31c0,1 -1,1 -2,2 -1,0 -1,0 -2,0l-15 0 31 -43zm79 51l-1 9 -40 0 1 -9 40 0zm18 -18l16 0 6 -49 1 -4 -13 10c-1,0 -1,1 -2,1 0,0 -1,0 -1,0 -1,0 -2,0 -2,0 -1,-1 -1,-1 -1,-2l-4 -5 27 -21 11 0 -9 70 15 0 -1 10 -45 0 2 -10zm87 18l-1 9 -40 0 1 -9 40 0zm17 -18l17 0 6 -49 1 -4 -14 10c0,0 -1,1 -1,1 -1,0 -1,0 -2,0 0,0 -1,0 -1,0 -1,-1 -1,-1 -2,-2l-3 -5 27 -21 11 0 -9 70 15 0 -2 10 -44 0 1 -10z"/>
  <path class="fil7" d="M2670 2270c2,0 4,-1 5,-1 2,0 4,-1 5,-1 1,-1 2,-1 3,-2 1,-1 2,-1 2,-2 1,0 2,-1 2,-1 1,0 1,-1 2,-1 0,0 1,0 1,1 0,0 0,0 1,0l5 6c-4,4 -8,8 -13,10 -4,2 -10,3 -16,3 -5,0 -9,-1 -13,-3 -4,-2 -7,-4 -10,-7 -3,-3 -5,-7 -6,-11 -1,-4 -2,-9 -2,-14 0,-5 0,-9 1,-13 1,-4 3,-8 5,-12 2,-3 4,-6 6,-9 3,-3 6,-5 9,-7 3,-2 7,-4 10,-5 4,-1 8,-1 12,-1 3,0 5,0 8,0 2,1 4,2 6,3 2,1 4,2 5,3 2,2 3,3 5,5l-5 6c-1,0 -1,1 -2,1 0,0 -1,0 -1,0 -1,0 -2,0 -3,-1 -1,0 -1,-1 -3,-2 -1,-1 -2,-1 -4,-2 -2,-1 -4,-1 -7,-1 -4,0 -7,1 -11,2 -3,2 -6,4 -8,7 -3,3 -5,7 -6,11 -2,4 -2,8 -2,14 0,3 0,7 1,10 1,3 2,5 4,7 2,2 4,4 6,5 2,1 5,2 8,2zm70 -20l-4 31 -14 0 4 -31 -21 -49 13 0c1,0 2,0 3,0 0,1 1,2 1,3l11 28c0,2 1,3 1,4 0,1 0,3 1,4 0,-1 1,-3 2,-4 0,-1 1,-2 2,-4l17 -28c1,-1 1,-2 2,-2 1,-1 2,-1 3,-1l12 0 -33 49zm62 39l-1 8 -40 0 1 -8 40 0zm18 -18l16 0 6 -49 1 -5 -14 11c0,0 -1,0 -1,0 0,1 -1,1 -1,1 -1,0 -2,-1 -2,-1 -1,0 -1,-1 -2,-1l-3 -6 27 -21 11 0 -9 71 15 0 -1 10 -45 0 2 -10zm87 18l-1 8 -40 0 1 -8 40 0zm17 -18l17 0 6 -49 1 -5 -14 11c0,0 -1,0 -1,0 -1,1 -1,1 -2,1 0,0 -1,-1 -2,-1 0,0 -1,-1 -1,-1l-3 -6 27 -21 11 0 -9 71 15 0 -2 10 -44 0 1 -10z"/>
  <path class="fil7" d="M1292 2249l30 0 -2 12 -44 0 10 -80 15 0 -9 68zm37 12l10 -80 26 0c4,0 8,0 11,1 4,1 6,2 8,4 2,1 4,3 5,5 1,3 1,5 1,8 0,2 0,4 -1,7 0,2 -1,4 -3,5 -1,2 -3,4 -5,5 -2,2 -4,3 -7,4 5,1 8,3 10,5 3,3 4,6 4,10 0,4 -1,7 -2,10 -2,4 -4,6 -6,9 -3,2 -6,4 -10,5 -3,1 -8,2 -12,2l-29 0zm19 -35l-3 24 14 0c2,0 5,-1 6,-1 2,-1 4,-2 5,-3 1,-1 2,-3 3,-5 0,-2 1,-4 1,-6 0,-3 -1,-5 -3,-7 -2,-2 -5,-2 -9,-2l-14 0zm1 -10l11 0c5,0 9,-2 11,-4 3,-2 4,-6 4,-11 0,-3 0,-5 -2,-7 -2,-2 -5,-2 -9,-2l-12 0 -3 24zm79 53l-1 8 -40 0 1 -8 40 0zm17 -18l17 0 6 -49 1 -4 -14 10c0,0 -1,0 -1,1 -1,0 -1,0 -2,0 0,0 -1,0 -1,-1 -1,0 -1,0 -2,-1l-3 -5 27 -21 11 0 -9 70 15 0 -2 10 -44 0 1 -10zm88 18l-1 8 -40 0 1 -8 40 0zm17 -18l17 0 6 -49 1 -4 -14 10c0,0 -1,0 -1,1 -1,0 -1,0 -2,0 0,0 -1,0 -2,-1 0,0 -1,0 -1,-1l-3 -5 27 -21 11 0 -9 70 14 0 -1 10 -44 0 1 -10z"/>
  <path class="fil7" d="M2712 1241c0,0 -1,1 -2,1 0,1 -1,1 -1,1 -1,0 -2,-1 -3,-1 0,-1 -1,-1 -2,-2 -2,-1 -3,-2 -4,-2 -2,-1 -4,-1 -6,-1 -2,0 -3,0 -5,1 -2,0 -3,1 -4,2 -1,1 -2,3 -2,4 -1,1 -1,3 -1,5 0,1 0,3 1,4 1,1 2,2 4,3 1,1 3,1 4,2 2,1 4,1 6,2 2,1 4,2 6,3 1,1 3,2 4,3 2,2 3,3 4,5 1,2 1,5 1,8 0,3 -1,7 -2,11 -1,3 -3,6 -6,9 -2,2 -5,4 -9,6 -4,2 -8,2 -12,2 -3,0 -5,0 -7,0 -2,-1 -4,-2 -6,-3 -2,0 -4,-2 -6,-3 -2,-1 -3,-3 -4,-4l5 -7c0,-1 1,-1 1,-1 1,-1 1,-1 2,-1 1,0 1,0 2,1 0,0 1,0 2,1 0,1 1,1 2,2 1,0 2,1 3,2 1,0 2,1 3,1 1,0 3,0 5,0 4,0 7,-1 10,-3 2,-2 3,-6 3,-10 0,-2 0,-3 -1,-4 -1,-2 -2,-3 -4,-3 -1,-1 -3,-2 -4,-3 -2,0 -4,-1 -6,-2 -2,0 -4,-1 -5,-2 -2,-1 -4,-2 -5,-3 -1,-2 -3,-4 -3,-6 -1,-2 -2,-4 -2,-7 0,-4 1,-7 2,-10 1,-4 3,-6 6,-9 2,-2 5,-4 8,-6 4,-1 7,-2 12,-2 2,0 4,0 6,1 2,0 4,1 6,2 1,1 3,2 5,3 1,1 2,2 3,4l-4 6zm7 65l10 -80 26 0c4,0 8,0 11,1 3,1 6,2 8,4 2,2 3,4 4,6 1,2 2,5 2,7 0,3 -1,5 -1,7 -1,2 -2,4 -3,6 -1,2 -3,3 -5,5 -2,1 -4,2 -7,3 4,1 8,3 10,6 2,2 3,6 3,9 0,4 0,8 -2,11 -1,3 -3,6 -6,8 -2,2 -5,4 -9,5 -4,2 -8,2 -13,2l-28 0zm19 -35l-3 24 13 0c3,0 5,0 7,-1 2,-1 3,-2 5,-3 1,-1 2,-3 2,-4 1,-2 1,-4 1,-6 0,-3 -1,-6 -3,-7 -2,-2 -5,-3 -9,-3l-13 0zm1 -10l11 0c4,0 8,-1 11,-3 3,-3 4,-6 4,-11 0,-4 -1,-6 -3,-8 -2,-1 -5,-2 -9,-2l-11 0 -3 24zm79 53l-1 9 -41 0 1 -9 41 0zm17 -18l16 0 6 -48 1 -5 -13 10c-1,0 -1,1 -2,1 0,0 -1,0 -1,0 -1,0 -1,0 -2,0 -1,-1 -1,-1 -1,-1l-4 -6 27 -21 11 0 -8 70 14 0 -1 10 -44 0 1 -10zm87 18l-1 9 -40 0 1 -9 40 0zm18 -18l16 0 6 -48 1 -5 -13 10c-1,0 -1,1 -2,1 0,0 -1,0 -1,0 -1,0 -2,0 -2,0 -1,-1 -1,-1 -1,-1l-4 -6 27 -21 11 0 -9 70 15 0 -1 10 -44 0 1 -10z"/>
  <text x="993" y="1833"  class="fil8 fnt0">grid_top_in</text>
  <text x="1679" y="2183"  class="fil8 fnt0">grid_right_in</text>
  <text x="804" y="2093"  class="fil8 fnt0">grid_left_in</text>
  <text x="970" y="2453"  class="fil8 fnt0">grid_bottom_out</text>
  <text x="1627" y="2093"  class="fil8 fnt0">grid_right_out</text>
  <text x="1530" y="1833"  class="fil8 fnt0">grid_top_out</text>
  <text x="1981" y="2976"  class="fil8 fnt0">grid_bottom_r_out</text>
  <g>
   <path class="fil9" d="M532 2153l240 0 0 14 -240 0 0 -14zm-17 1l8 12 0 -12 43 28 -7 12 -44 -28 0 -12zm0 0l0 12 -9 -6 9 -6zm47 -22l4 6 -43 28 -8 -12 44 -28 3 6z"/>
  </g>
  <text x="77" y="2183"  class="fil8 fnt0">grid_left_out</text>
  <g>
   <path class="fil9" d="M1306 2862l0 -355 14 0 0 355 -14 0zm2 16l11 -7 -11 0 28 -44 11 8 -28 43 -11 0zm0 0l11 0 -6 9 -5 -9zm-23 -47l6 -4 28 44 -11 7 -28 -43 5 -4z"/>
  </g>
  <text x="840" y="2950"  class="fil8 fnt0">grid_bottom_out</text>
  <text x="798" y="2183"  class="fil8 fnt0">grid_left_out</text>
  <g>
   <path class="fil10" d="M753 2076l-240 0 0 -13 240 0 0 13zm16 -1l-7 -11 0 11 -43 -28 7 -11 43 28 0 11zm0 0l0 -11 9 6 -9 5zm-47 23l-3 -6 43 -28 7 11 -43 28 -4 -5z"/>
  </g>
  <text x="131" y="2093"  class="fil8 fnt0">grid_left_in</text>
  <g>
   <path class="fil11" d="M2708 2862l0 -339 13 0 0 339 -13 0zm1 16l11 -7 -11 0 28 -44 11 8 -28 43 -11 0zm0 0l11 0 -5 9 -6 -9zm-22 -47l5 -4 28 44 -11 7 -28 -43 6 -4z"/>
  </g>
  <text x="1473" y="2369"  class="fil8 fnt0">grid_bottom_in</text>
  <g>
   <path class="fil10" d="M1516 2536l0 319 -14 0 0 -319 14 0zm-1 -17l-12 8 12 0 -28 43 -12 -7 28 -44 12 0zm0 0l-12 0 6 -9 6 9zm22 47l-6 4 -28 -43 12 -8 28 44 -6 3z"/>
  </g>
  <text x="2306" y="2093"  class="fil8 fnt1">grid_left_in</text>
  <text x="2301" y="2183"  class="fil8 fnt1">grid_left_out</text>
  <text x="3008" y="2183"  class="fil8 fnt1">grid_right_out</text>
  <text x="3046" y="2093"  class="fil8 fnt1">grid_right_in</text>
  <g>
   <path class="fil11" d="M2573 2861l0 -339 14 0 0 339 -14 0zm1 16l12 -7 -12 0 28 -43 12 7 -28 43 -12 0zm0 0l12 0 -6 10 -6 -10zm-22 -47l6 -3 28 43 -12 7 -28 -43 6 -4z"/>
  </g>
  <g>
   <path class="fil11" d="M2977 2861l0 -339 14 0 0 339 -14 0zm1 16l12 -7 -12 0 28 -43 12 7 -28 43 -12 0zm0 0l12 0 -6 10 -6 -10zm-22 -47l6 -3 28 43 -12 7 -28 -43 6 -4z"/>
  </g>
  <text x="891" y="3062"  class="fil8 fnt0">grid_bottom_in</text>
  <text x="2970" y="2976"  class="fil8 fnt0">grid_bottom_l_out</text>
  <g>
   <path class="fil11" d="M2856 2544l0 339 -14 0 0 -339 14 0zm-1 -16l-12 8 12 0 -28 43 -11 -8 27 -43 12 0zm0 0l-12 0 6 -9 6 9zm22 47l-5 4 -29 -43 12 -8 28 43 -6 4z"/>
  </g>
  <text x="2099" y="3080"  class="fil8 fnt0">chany_bottom_out</text>
  <text x="2815" y="3080"  class="fil8 fnt0">chany_bottom__in</text>
  <text x="4" y="979"  class="fil8 fnt0">chanx_left_out</text>
  <g>
   <path class="fil9" d="M530 932l223 0 0 14 -223 0 0 -14zm-17 1l8 12 0 -12 43 28 -8 12 -43 -28 0 -12zm0 0l0 12 -9 -6 9 -6zm47 -22l4 6 -43 28 -8 -12 43 -28 4 6z"/>
  </g>
  <text x="3" y="881"  class="fil8 fnt0">grid_left_b_out</text>
  <g>
   <path class="fil9" d="M530 846l223 0 0 14 -223 0 0 -14zm-16 1l7 12 0 -12 44 28 -8 12 -43 -28 0 -12zm0 0l0 12 -9 -6 9 -6zm47 -22l4 6 -44 28 -7 -12 43 -28 4 6z"/>
  </g>
  <text x="18" y="1173"  class="fil8 fnt0">grid_left_t_out</text>
  <g>
   <path class="fil9" d="M530 1136l223 0 0 14 -223 0 0 -14zm-16 1l7 12 0 -12 44 28 -8 12 -43 -28 0 -12zm0 0l0 12 -9 -6 9 -6zm47 -22l4 6 -44 28 -7 -12 43 -28 4 6z"/>
  </g>
  <text x="28" y="1076"  class="fil8 fnt0">chanx__left_in</text>
  <g>
   <path class="fil11" d="M732 1043l-223 0 0 -14 223 0 0 14zm17 -1l-8 -12 0 12 -43 -28 7 -12 44 28 0 12zm0 0l0 -12 9 6 -9 6zm-47 22l-4 -6 43 -28 8 12 -44 28 -3 -6z"/>
  </g>
  <g>
   <g>
    <path class="fil11" d="M2650 1570l0 124 -14 0 0 -124 14 0zm-1 -16l-11 7 11 0 -28 43 -11 -7 28 -43 11 0zm0 0l-11 0 5 -9 6 9zm22 47l-5 3 -28 -43 11 -7 28 43 -6 4z"/>
   </g>
   <g>
    <path class="fil11" d="M3055 1570l0 124 -14 0 0 -124 14 0zm-1 -16l-12 7 12 0 -28 43 -12 -7 28 -43 12 0zm0 0l-12 0 6 -9 6 9zm22 47l-6 3 -28 -43 12 -7 28 43 -6 4z"/>
   </g>
   <g>
    <g>
     <path class="fil11" d="M2771 1675l0 -124 14 0 0 124 -14 0zm1 17l12 -8 -12 0 28 -43 12 7 -28 44 -12 0zm0 0l12 0 -6 9 -6 -9zm-22 -47l6 -4 28 43 -12 8 -28 -44 6 -3z"/>
    </g>
    <g>
     <path class="fil11" d="M2920 1570l0 124 -14 0 0 -124 14 0zm-1 -16l-12 7 12 0 -28 43 -12 -7 28 -43 12 0zm0 0l-12 0 6 -9 6 9zm22 47l-6 3 -28 -43 12 -7 28 43 -6 4z"/>
    </g>
   </g>
  </g>
  <g>
   <path class="fil10" d="M1306 1694l0 -393 14 0 0 393 -14 0zm2 17l11 -8 -11 0 28 -43 11 7 -28 44 -11 0zm0 0l11 0 -6 9 -5 -9zm-23 -47l6 -4 28 43 -11 8 -28 -44 5 -3z"/>
  </g>
  <g>
   <path class="fil10" d="M1516 1316l0 402 -14 0 0 -402 14 0zm-1 -16l-12 7 12 0 -28 44 -12 -8 28 -43 12 0zm0 0l-12 0 6 -9 6 9zm22 47l-6 4 -28 -44 12 -7 28 43 -6 4z"/>
  </g>
  <g>
   <path class="fil11" d="M2709 466l0 -238 14 0 0 238 -14 0zm1 16l12 -8 -12 0 28 -43 12 8 -28 43 -12 0zm0 0l12 0 -6 9 -6 -9zm-22 -47l6 -4 28 43 -12 8 -28 -43 6 -4z"/>
  </g>
  <g>
   <path class="fil11" d="M2575 466l0 -238 14 0 0 238 -14 0zm1 16l12 -8 -12 0 28 -43 12 8 -28 43 -12 0zm0 0l12 0 -6 9 -6 -9zm-22 -47l6 -4 28 43 -12 8 -28 -43 6 -4z"/>
  </g>
  <g>
   <path class="fil11" d="M2977 466l0 -238 14 0 0 238 -14 0zm1 16l12 -8 -12 0 28 -43 12 8 -28 43 -12 0zm0 0l12 0 -6 9 -6 -9zm-22 -47l6 -4 28 43 -12 8 -28 -43 6 -4z"/>
  </g>
  <g>
   <path class="fil9" d="M2857 247l0 238 -14 0 0 -238 14 0zm-1 -17l-12 8 12 0 -28 43 -12 -8 28 -43 12 0zm0 0l-12 0 6 -9 6 9zm22 47l-6 4 -28 -43 12 -8 28 43 -6 4z"/>
  </g>
  <g>
   <path class="fil11" d="M2240 2076l-135 0 0 -13 135 0 0 13zm17 -1l-8 -11 0 11 -43 -28 8 -11 43 28 0 11zm0 0l0 -11 9 6 -9 5zm-47 23l-4 -6 43 -28 8 11 -43 28 -4 -5z"/>
  </g>
  <g>
   <path class="fil10" d="M2125 2153l134 0 0 14 -134 0 0 -14zm-17 1l8 12 0 -12 43 28 -8 12 -43 -28 0 -12zm0 0l0 12 -9 -6 9 -6zm47 -22l4 6 -43 28 -8 -12 43 -28 4 6z"/>
  </g>
  <g>
   <path class="fil11" d="M3456 2063l237 0 0 13 -237 0 0 -13zm-16 1l7 11 0 -11 43 28 -7 11 -43 -28 0 -11zm0 0l0 11 -9 -5 9 -6zm47 -22l3 5 -43 28 -7 -11 43 -28 4 6z"/>
  </g>
  <g>
   <path class="fil11" d="M3673 2167l-236 0 0 -14 236 0 0 14zm17 -1l-8 -12 0 12 -43 -28 8 -12 43 28 0 12zm0 0l0 -12 9 6 -9 6zm-47 22l-4 -6 43 -28 8 12 -43 28 -4 -6z"/>
  </g>
  <g>
   <path class="fil10" d="M1502 681l0 -449 14 0 0 449 -14 0zm1 17l12 -8 -12 0 28 -43 12 7 -28 44 -12 0zm0 0l12 0 -6 9 -6 -9zm-22 -47l6 -4 28 43 -12 8 -28 -44 6 -3z"/>
  </g>
  <g>
   <path class="fil9" d="M1320 244l0 460 -14 0 0 -460 14 0zm-1 -16l-11 7 11 0 -28 43 -11 -7 28 -43 11 0zm0 0l-11 0 5 -9 6 9zm22 47l-5 3 -28 -43 11 -7 28 43 -6 4z"/>
  </g>
  <g>
   <path class="fil12" d="M1506 2883l6 0 14 21 -6 4 -14 -21 6 0 -6 -4zm0 0l3 -5 3 5 -6 0zm-10 24l-3 -2 13 -22 6 4 -13 21 -3 -1zm-112 95l-7 1 0 -5 1 -5 2 -4 2 -4 3 -4 4 -3 4 -3 4 -3 5 -2 5 -2 6 -3 5 -2 6 -2 6 -2 6 -2 7 -2 6 -2 6 -2 6 -3 5 -2 6 -3 5 -3 5 -4 5 -3 4 -4 4 -4 3 -5 3 -4 2 -6 2 -6 0 -6 1 -7 7 0 -1 8 -1 7 -1 6 -3 7 -3 5 -4 5 -4 5 -5 4 -5 4 -5 4 -6 3 -6 3 -6 3 -6 2 -6 2 -6 3 -6 2 -6 2 -6 2 -6 2 -6 2 -5 2 -5 2 -4 3 -5 2 -3 2 -3 3 -2 3 -2 3 -1 3 -1 4 0 3z"/>
  </g>
  <g>
   <path class="fil12" d="M2713 2900l5 0 15 21 -6 4 -14 -21 6 0 -6 -4zm0 0l2 -4 3 4 -5 0zm-11 24l-3 -2 14 -22 6 4 -14 22 -3 -2zm-111 96l-7 0 0 -5 0 -5 2 -4 2 -4 4 -4 3 -3 4 -3 5 -2 5 -3 5 -2 5 -2 6 -2 6 -2 6 -3 6 -2 6 -2 6 -2 6 -2 6 -3 6 -2 5 -3 6 -3 5 -3 4 -4 5 -4 3 -4 4 -4 2 -5 2 -6 2 -5 1 -7 0 -7 7 0 0 8 -1 7 -2 7 -2 6 -4 5 -3 6 -5 4 -4 4 -5 4 -6 4 -5 3 -6 3 -6 3 -6 2 -6 3 -7 2 -6 2 -6 2 -6 2 -6 2 -5 2 -6 2 -4 2 -5 3 -4 2 -4 3 -2 2 -3 3 -2 3 -1 3 -1 4 1 4z"/>
  </g>
  <g>
   <path class="fil12" d="M2843 2900l6 0 14 22 -6 4 -14 -22 6 0 -6 -4zm0 0l3 -4 3 4 -6 0zm-11 23l-3 -2 14 -21 6 4 -14 21 -3 -2zm146 97l-7 0 0 -4 0 -4 -2 -3 -1 -3 -3 -3 -3 -2 -3 -3 -4 -2 -5 -3 -5 -2 -5 -2 -6 -2 -5 -2 -6 -2 -6 -2 -7 -2 -6 -2 -6 -3 -6 -2 -6 -3 -6 -3 -6 -3 -5 -4 -5 -4 -5 -4 -4 -4 -4 -6 -3 -5 -2 -6 -2 -7 -1 -7 0 -8 7 0 0 7 1 7 1 5 2 6 3 5 3 4 4 4 4 4 5 4 5 3 5 3 6 3 6 2 6 3 6 2 6 2 6 2 6 2 6 3 6 2 6 2 5 2 5 2 5 3 5 2 4 3 3 3 3 4 3 4 1 4 1 5 0 5z"/>
  </g>
  <g>
   <path class="fil11" d="M2139 938l90 0 0 14 -90 0 0 -14zm-17 1l8 12 0 -12 43 28 -7 12 -44 -28 0 -12zm0 0l0 12 -9 -6 9 -6zm47 -22l4 6 -43 28 -8 -12 44 -28 3 6z"/>
  </g>
  <g>
   <path class="fil11" d="M2210 866l-90 0 0 -14 90 0 0 14zm17 -1l-8 -12 0 12 -43 -28 7 -12 44 28 0 12zm0 0l0 -12 9 6 -9 6zm-47 22l-4 -6 43 -28 8 12 -44 28 -3 -6z"/>
  </g>
  <g>
   <path class="fil11" d="M2210 1156l-90 0 0 -14 90 0 0 14zm17 -1l-8 -12 0 12 -43 -28 7 -12 44 28 0 12zm0 0l0 -12 9 6 -9 6zm-47 22l-4 -6 43 -28 8 12 -44 28 -3 -6z"/>
  </g>
  <g>
   <path class="fil11" d="M2209 1049l-90 0 0 -14 90 0 0 14zm17 -1l-8 -12 0 12 -43 -28 8 -12 43 28 0 12zm0 0l0 -12 9 6 -9 6zm-47 22l-4 -6 43 -28 8 12 -43 28 -4 -6z"/>
  </g>
  <g>
   <g>
    <path class="fil11" d="M3480 938l234 0 0 14 -234 0 0 -14zm-16 1l8 12 0 -12 43 28 -8 12 -43 -28 0 -12zm0 0l0 12 -9 -6 9 -6zm47 -22l4 6 -43 28 -8 -12 43 -28 4 6z"/>
   </g>
   <g>
    <path class="fil11" d="M3481 852l233 0 0 14 -233 0 0 -14zm-17 1l8 12 0 -12 43 28 -7 12 -44 -28 0 -12zm0 0l0 12 -9 -6 9 -6zm47 -22l4 6 -43 28 -8 -12 44 -28 3 6z"/>
   </g>
   <g>
    <path class="fil11" d="M3481 1142l233 0 0 14 -233 0 0 -14zm-17 1l8 12 0 -12 43 28 -7 12 -44 -28 0 -12zm0 0l0 12 -9 -6 9 -6zm47 -22l4 6 -43 28 -8 -12 44 -28 3 6z"/>
   </g>
   <g>
    <path class="fil11" d="M3693 1049l-233 0 0 -14 233 0 0 14zm16 -1l-7 -12 0 12 -43 -28 7 -12 43 28 0 12zm0 0l0 -12 10 6 -10 6zm-47 22l-3 -6 43 -28 7 12 -43 28 -4 -6z"/>
   </g>
  </g>
  <text x="3738" y="976"  class="fil8 fnt0">chanx_right_out</text>
  <text x="3743" y="879"  class="fil8 fnt0">grid_right_t_in</text>
  <text x="3743" y="1172"  class="fil8 fnt0">grid_right_b_in</text>
  <text x="3738" y="1073"  class="fil8 fnt0">chanx_right_in</text>
  <text x="1644" y="969"  class="fil8 fnt2">chanx_right_in</text>
  <text x="1597" y="1067"  class="fil8 fnt2">chanx_right_out</text>
  <text x="778" y="969"  class="fil8 fnt2">chanx_left_out</text>
  <text x="778" y="1067"  class="fil8 fnt2">chanx_left_in</text>
  <text x="936" y="1275"  class="fil8 fnt1">grid_bottom_out</text>
  <text x="1466" y="1270"  class="fil8 fnt1">grid_bottom_in</text>
  <text x="772" y="1164"  class="fil8 fnt3">grid_left_b_out</text>
  <text x="1050" y="793"  class="fil8 fnt1">grid_top_out</text>
  <text x="1466" y="788"  class="fil8 fnt1">grid_top_in</text>
  <text x="1577" y="1164"  class="fil8 fnt3">grid_right_b_out</text>
  <text x="772" y="880"  class="fil8 fnt3">grid_left_t_out</text>
  <text x="1597" y="880"  class="fil8 fnt3">grid_right_t_out</text>
  <text x="2994" y="977"  class="fil8 fnt2">chanx_right_in</text>
  <text x="2944" y="1073"  class="fil8 fnt2">chanx_right_out</text>
  <text x="2254" y="979"  class="fil8 fnt2">chanx_left_out</text>
  <text x="2254" y="1074"  class="fil8 fnt2">chanx_left_in</text>
  <text x="2255" y="880"  class="fil8 fnt3">grid_left_t_in</text>
  <text x="2255" y="1167"  class="fil8 fnt3">grid_left_b_in</text>
  <text x="2991" y="880"  class="fil8 fnt3">grid_right_t_in</text>
  <text x="2972" y="1167"  class="fil8 fnt3">grid_right_b_in</text>
  <text x="2262" y="1485"  class="fil8 fnt3">grid_bottom_r_in</text>
  <text x="2921" y="1485"  class="fil8 fnt3">grid_bottom_l_in</text>
  <text x="2261" y="1417"  class="fil8 fnt2">chany_bottom_out</text>
  <text x="2916" y="1417"  class="fil8 fnt2">chany_bottom_in</text>
  <g>
   <path class="fil12" d="M2714 500l6 0 14 21 -6 4 -14 -21 6 0 -6 -4zm0 0l3 -5 3 5 -6 0zm-11 23l-3 -2 14 -21 6 4 -14 21 -3 -2zm-8 117l0 -7 3 0 3 0 2 -1 2 -1 2 -1 2 -1 1 -1 1 -2 2 -2 1 -2 0 -2 1 -3 1 -3 0 -3 0 -4 1 -4 0 -4 0 -4 0 -5 0 -5 -1 -5 0 -5 0 -6 0 -6 -1 -6 0 -6 0 -7 -1 -7 0 -7 0 -7 0 -7 0 -8 7 0 0 8 0 7 0 7 0 7 1 7 0 7 0 6 1 6 0 6 0 5 0 6 1 5 0 5 0 5 0 4 0 5 -1 4 0 4 0 3 -1 4 -1 3 -1 3 -1 3 -2 2 -2 2 -2 3 -2 1 -3 2 -3 1 -3 0 -3 1 -4 0z"/>
  </g>
  <text x="2288" y="559"  class="fil8 fnt3">grid_top_r_in</text>
  <text x="2998" y="564"  class="fil8 fnt3">grid_top_l_in</text>
  <text x="2300" y="649"  class="fil8 fnt2">chany_top_in</text>
  <text x="2882" y="649"  class="fil8 fnt2">chany_top_out</text>
  <text x="3743" y="2093"  class="fil8 fnt0">grid_right_in</text>
  <text x="3743" y="2183"  class="fil8 fnt0">grid_right_out</text>
  <text x="910" y="196"  class="fil8 fnt0">grid_top_out</text>
  <text x="1523" y="196"  class="fil8 fnt0">grid_top_in</text>
  <text x="2353" y="1866"  class="fil8 fnt2">chany_top_in</text>
  <text x="2816" y="1866"  class="fil8 fnt2">chany_top_out</text>
  <text x="2274" y="2387"  class="fil8 fnt2">chany_bottom_out</text>
  <text x="2897" y="2387"  class="fil8 fnt2">chany_bottom_in</text>
  <g>
   <path class="fil12" d="M2712 1713l6 0 14 21 -6 4 -14 -21 6 0 -6 -4zm0 0l3 -5 3 5 -6 0zm-11 23l-3 -2 14 -21 6 4 -14 21 -3 -2zm-139 74l-7 0 1 -5 2 -4 2 -4 4 -3 4 -2 4 -2 5 -2 5 -1 6 -2 7 -1 6 -1 7 -1 7 -1 7 -1 7 -1 7 -1 8 -1 7 -1 7 -2 7 -2 6 -2 6 -2 6 -3 6 -3 5 -3 4 -4 4 -4 3 -5 3 -5 2 -6 1 -7 0 -7 7 0 0 8 -1 8 -3 6 -3 7 -4 5 -4 5 -5 4 -6 4 -6 3 -6 3 -7 3 -6 2 -8 2 -7 1 -7 2 -8 1 -7 1 -7 1 -7 1 -7 1 -7 1 -6 1 -6 1 -6 1 -5 2 -4 1 -4 2 -3 2 -3 2 -1 2 -1 3 -1 3z"/>
  </g>
  <g>
   <path class="fil12" d="M2850 1713l6 0 13 21 -5 4 -14 -21 6 0 -6 -4zm0 0l3 -5 3 5 -6 0zm-11 23l-3 -2 14 -21 6 4 -14 21 -3 -2zm173 74l-7 0 0 -3 -1 -3 -2 -2 -2 -2 -3 -2 -4 -2 -5 -1 -5 -2 -5 -1 -6 -1 -7 -1 -6 -1 -7 -1 -7 -1 -8 -1 -7 -1 -7 -1 -8 -2 -7 -1 -7 -2 -7 -2 -7 -3 -6 -3 -6 -3 -5 -4 -5 -4 -5 -5 -4 -5 -3 -7 -2 -6 -1 -8 -1 -8 7 0 1 7 1 7 2 6 2 5 4 5 3 4 5 4 5 3 5 3 6 3 6 2 7 2 7 2 7 2 7 1 7 1 7 1 8 1 7 1 7 1 7 1 6 1 6 1 6 2 6 1 5 2 4 2 4 2 3 3 3 4 2 4 0 5z"/>
  </g>
  <g>
   <path class="fil12" d="M2718 2522l-6 0 -14 -22 6 -4 14 22 -6 0 6 4zm0 0l-3 4 -3 -4 6 0zm11 -24l3 2 -14 22 -6 -4 14 -22 3 2zm-174 -97l7 0 1 4 1 3 2 3 2 3 3 2 4 3 4 2 5 1 6 2 6 1 6 2 7 1 7 1 7 1 7 1 8 2 7 1 7 2 8 2 7 3 7 2 6 4 7 3 6 5 5 4 5 6 5 6 3 7 3 8 3 8 1 9 0 10 -7 0 0 -9 -1 -9 -2 -7 -3 -7 -3 -6 -4 -6 -5 -5 -5 -4 -5 -4 -6 -3 -6 -3 -7 -3 -6 -2 -7 -2 -8 -2 -7 -1 -7 -2 -7 -1 -7 -1 -7 -1 -7 -2 -7 -1 -6 -1 -6 -2 -5 -2 -5 -2 -5 -3 -4 -3 -3 -4 -3 -4 -1 -5 -1 -5z"/>
  </g>
  <g>
   <path class="fil12" d="M2856 2522l-6 0 -14 -22 6 -4 14 22 -6 0 6 4zm0 0l-3 4 -3 -4 6 0zm11 -24l2 2 -13 22 -6 -4 14 -22 3 2zm138 -97l7 0 0 5 -2 5 -2 4 -4 4 -4 3 -4 3 -5 2 -6 2 -6 2 -6 1 -6 1 -7 2 -7 1 -7 1 -7 1 -8 2 -7 1 -7 2 -7 2 -7 2 -6 3 -7 3 -5 3 -6 4 -5 4 -4 5 -4 6 -4 6 -2 7 -2 7 -1 9 -1 9 -7 0 1 -10 1 -9 2 -8 3 -8 4 -7 4 -6 5 -6 6 -4 6 -5 6 -3 7 -4 7 -2 7 -3 7 -2 8 -2 7 -1 7 -2 8 -1 7 -1 7 -1 6 -1 7 -2 6 -1 5 -2 5 -1 5 -2 3 -3 4 -2 2 -3 2 -3 1 -3 0 -4z"/>
  </g>
  <text x="2280" y="2494"  class="fil8 fnt1">grid_bottom_r_out</text>
  <text x="2893" y="2494"  class="fil8 fnt1">grid_bottom_l_out</text>
  <text x="2394" y="1764"  class="fil8 fnt1">grid_top_r_out</text>
  <text x="3007" y="1764"  class="fil8 fnt1">grid_top_l_out</text>
  <text x="2163" y="196"  class="fil8 fnt0">grid_top_r_in</text>
  <text x="2983" y="194"  class="fil8 fnt4">grid_top_l_in</text>
  <text x="2310" y="67"  class="fil8 fnt0">chany_top_in</text>
  <text x="2844" y="61"  class="fil8 fnt0">chany_top__out</text>
  <g>
   <path class="fil12" d="M2728 218l-6 0 -14 -22 6 -4 14 22 -6 0 6 4zm0 0l-3 4 -3 -4 6 0zm11 -23l3 1 -14 22 -6 -4 14 -21 3 2zm-146 -110l7 1 0 4 0 4 2 4 1 3 3 3 3 3 3 3 4 3 5 2 5 3 5 2 6 2 5 3 6 2 6 2 7 2 6 3 6 3 6 2 6 3 6 4 6 3 5 4 5 5 5 4 4 5 4 6 3 6 2 7 2 7 1 8 0 9 -7 -1 0 -7 -1 -7 -1 -7 -3 -6 -2 -5 -4 -6 -3 -4 -5 -4 -4 -4 -5 -4 -5 -3 -6 -3 -6 -3 -6 -3 -6 -3 -6 -2 -6 -2 -6 -3 -6 -2 -6 -2 -6 -3 -5 -2 -5 -3 -5 -2 -5 -3 -4 -3 -3 -4 -3 -4 -3 -4 -1 -5 -1 -5 0 -6z"/>
  </g>
  <g>
   <path class="fil12" d="M2858 218l-6 0 -14 -22 6 -3 14 21 -6 0 6 4zm0 0l-3 4 -3 -4 6 0zm11 -24l3 2 -14 22 -6 -4 14 -22 3 2zm111 -108l7 -1 0 6 0 5 -2 5 -2 4 -3 4 -4 4 -4 3 -5 3 -5 2 -5 3 -5 2 -6 3 -6 2 -6 2 -6 3 -6 2 -6 2 -6 3 -6 3 -6 3 -5 3 -6 3 -5 4 -4 4 -4 4 -4 4 -4 6 -2 5 -2 6 -2 7 -1 7 0 7 -7 1 0 -9 1 -8 2 -7 2 -7 3 -6 4 -6 4 -5 5 -4 5 -5 5 -4 6 -3 6 -4 6 -3 6 -2 6 -3 6 -3 7 -2 6 -2 6 -2 6 -3 5 -2 5 -2 5 -3 5 -2 4 -3 3 -3 3 -3 3 -3 2 -3 1 -4 0 -4 0 -4z"/>
  </g>
  <g>
   <path class="fil12" d="M2780 1543l-5 -4 6 -25 6 2 -5 25 -4 -4 2 6zm0 0l-6 1 1 -5 5 4zm24 -9l0 4 -24 5 -2 -6 25 -6 1 3zm3 -103l3 -6 3 2 2 2 3 2 2 3 2 2 1 3 2 3 1 3 0 3 1 3 0 4 0 3 0 4 0 3 -1 4 -1 4 -1 4 -1 4 -1 4 -2 4 -2 4 -2 4 -2 4 -2 4 -3 4 -3 4 -3 4 -3 4 -3 5 -4 4 -3 4 -4 4 -5 -5 4 -4 3 -4 4 -4 3 -4 3 -4 3 -4 2 -4 3 -4 2 -4 2 -4 2 -3 2 -4 1 -4 2 -4 1 -3 1 -4 0 -3 1 -4 0 -3 0 -3 0 -3 0 -3 0 -2 -1 -3 -1 -2 -1 -3 -1 -2 -2 -2 -1 -2 -2 -2 -2 -1 -2 -2z"/>
  </g>
  <g>
   <path class="fil12" d="M2911 1539l-5 3 -23 -12 3 -6 23 12 -5 3 7 0zm0 0l0 6 -5 -3 5 -3zm-2 -25l4 0 -2 25 -7 0 2 -26 3 1zm1 -113l0 7 -4 0 -4 0 -3 1 -3 1 -3 1 -3 1 -3 1 -2 1 -2 2 -2 2 -2 2 -1 2 -1 3 -1 2 -1 4 -1 3 0 4 0 4 0 4 0 4 1 5 1 6 2 5 2 6 2 6 2 7 3 7 4 7 3 8 4 8 5 8 4 9 -6 3 -5 -9 -4 -8 -4 -8 -4 -8 -3 -7 -3 -7 -3 -7 -2 -7 -2 -6 -1 -6 -2 -5 0 -6 -1 -5 0 -4 0 -5 0 -4 1 -4 1 -4 1 -3 2 -3 2 -3 2 -3 2 -2 3 -2 3 -2 3 -2 3 -1 4 -1 4 -1 3 0 4 -1 5 0z"/>
  </g>
  <g>
   <path class="fil12" d="M2846 500l6 0 14 21 -6 4 -14 -21 6 0 -6 -4zm0 0l3 -5 3 5 -6 0zm-11 23l-3 -2 14 -21 6 4 -14 21 -3 -2zm36 110l0 7 -4 0 -3 -1 -3 0 -3 -1 -3 -2 -2 -1 -2 -3 -2 -2 -2 -2 -1 -3 -1 -3 -1 -3 -1 -4 0 -3 0 -4 -1 -4 0 -5 0 -4 0 -5 0 -5 1 -5 0 -6 0 -5 0 -6 1 -6 0 -6 0 -7 1 -7 0 -7 0 -7 0 -7 0 -8 7 0 0 8 0 7 0 7 0 7 -1 7 0 7 0 6 -1 6 0 6 0 6 0 5 -1 5 0 5 0 5 0 4 0 4 0 4 1 4 0 3 1 3 1 3 0 2 1 2 2 2 1 2 1 1 2 1 2 1 2 1 2 1 3 0 3 0z"/>
  </g>
 </g>
</svg>
