<?xml version="1.0" encoding="UTF-8"?>
<!DOCTYPE svg PUBLIC "-//W3C//DTD SVG 1.1//EN" "http://www.w3.org/Graphics/SVG/1.1/DTD/svg11.dtd">
<!-- Creator: CorelDRAW X8 -->
<svg xmlns="http://www.w3.org/2000/svg" xml:space="preserve" width="1.95827in" height="0.947772in" version="1.1" style="shape-rendering:geometricPrecision; text-rendering:geometricPrecision; image-rendering:optimizeQuality; fill-rule:evenodd; clip-rule:evenodd"
viewBox="0 0 1210 586"
 xmlns:xlink="http://www.w3.org/1999/xlink">
 <defs>
  <style type="text/css">
   <![CDATA[
    .str4 {stroke:#373435;stroke-width:10.2957}
    .str0 {stroke:#373435;stroke-width:17.1474}
    .str1 {stroke:#373435;stroke-width:12.8593}
    .str5 {stroke:#373435;stroke-width:10.2957;stroke-linejoin:round}
    .str3 {stroke:#373435;stroke-width:8.57857;stroke-linejoin:round}
    .str2 {stroke:#373435;stroke-width:12.8593;stroke-linecap:round;stroke-linejoin:round}
    .fil3 {fill:none}
    .fil0 {fill:none;fill-rule:nonzero}
    .fil2 {fill:#373435}
    .fil1 {fill:#E2E8D8}
    .fil4 {fill:#373435;fill-rule:nonzero}
    .fnt2 {font-style:italic;font-weight:normal;font-size:60.0184px;font-family:'Lato'}
    .fnt0 {font-style:italic;font-weight:bold;font-size:102.894px;font-family:'Lato'}
    .fnt1 {font-style:italic;font-weight:bold;font-size:120.044px;font-family:'Lato'}
   ]]>
  </style>
 </defs>
 <g id="Layer_x0020_1">
  <metadata id="CorelCorpID_0Corel-Layer"/>
  <path class="fil0 str0" d="M179 9l878 0c8,0 17,5 17,11l0 489c0,6 -9,12 -17,12l-878 0c-11,0 -17,-6 -17,-12l0 -489c0,-6 6,-11 17,-11z"/>
  <path class="fil1 str1" d="M226 94l310 0c0,0 6,0 6,0l0 353c0,8 -6,8 -6,8l-310 0c0,0 -6,0 -6,-8l0 -353c0,0 6,0 6,0z"/>
  <g id="_2751660085904">
   <g transform="matrix(1 0 0 1 -716.073 1797.64)">
    <text x="979" y="-1486"  class="fil2 fnt0">LUT4</text>
   </g>
  </g>
  <g id="_2808201129696">
   <path class="fil1 str1" d="M649 176l193 0c0,0 0,7 0,7l0 260c0,0 0,6 0,6l-193 0c0,0 -6,-6 -6,-6l0 -260c0,0 6,-7 6,-7z"/>
   <g>
    <g transform="matrix(1 0 0 1 -295.478 1838.9)">
     <text x="979" y="-1486"  class="fil2 fnt1">FF</text>
    </g>
   </g>
  </g>
  <polygon class="fil1 str2" points="941,65 1016,114 1016,245 941,294 "/>
  <line class="fil3 str2" x1="848" y1="251" x2="941" y2= "251" />
  <line class="fil3 str2" x1="544" y1="133" x2="941" y2= "133" />
  <polyline class="fil3 str2" points="643,226 587,226 587,133 544,133 "/>
  <g id="_2808201135104">
   <path class="fil4" d="M1016 183c0,0 -7,-7 -7,-7 0,-6 7,-6 7,-6l0 13zm118 0l-118 0 0 -13 118 0 0 13zm-19 -25l31 0 0 31 -31 0 0 -31zm19 12c0,0 6,0 6,6 0,0 -6,7 -6,7l0 -13z"/>
  </g>
  <g id="_2751660091600">
   <path class="fil4" d="M106 144l0 25 -12 0 0 -25 12 0zm114 19l-122 0 0 -13 122 0 0 13z"/>
   <g>
    <g transform="matrix(1 0 0 1 -981.984 1660.69)">
     <text x="979" y="-1486"  class="fil2 fnt2">in0</text>
    </g>
   </g>
  </g>
  <g id="_2751660091056">
   <path class="fil4" d="M106 225l0 32 -12 0 0 -32 12 0zm114 25l-122 0 0 -12 122 0 0 12z"/>
   <g>
    <g transform="matrix(1 0 0 1 -980.253 1747.05)">
     <text x="979" y="-1486"  class="fil2 fnt2">in1</text>
    </g>
   </g>
  </g>
  <g id="_2751660092432">
   <path class="fil4" d="M106 313l0 25 -12 0 0 -25 12 0zm114 18l-122 0 0 -12 122 0 0 12z"/>
   <g>
    <g transform="matrix(1 0 0 1 -981.408 1833.17)">
     <text x="979" y="-1486"  class="fil2 fnt2">in2</text>
    </g>
   </g>
  </g>
  <g id="_2751660093264">
   <path class="fil4" d="M106 393l0 28 -12 0 0 -28 12 0zm114 21l-122 0 0 -11 122 0 0 11z"/>
   <g>
    <g transform="matrix(1 0 0 1 -981.408 1919.05)">
     <text x="979" y="-1486"  class="fil2 fnt2">in3</text>
    </g>
   </g>
  </g>
  <polyline class="fil3 str3" points="758,449 743,422 727,449 "/>
  <line class="fil3 str4" x1="742" y1="449" x2="742" y2= "568" />
  <polyline class="fil3 str5" points="640,394 598,394 598,570 "/>
  <g id="_2751660028624">
   <g transform="matrix(1 0 0 1 -566.176 2071.11)">
    <text x="979" y="-1486"  class="fil2 fnt2">RESET</text>
   </g>
  </g>
  <g id="_2751660029200">
   <g transform="matrix(1 0 0 1 -219.124 2071.15)">
    <text x="979" y="-1486"  class="fil2 fnt2">CLK</text>
   </g>
  </g>
  <g id="_2751660032144">
   <g transform="matrix(1 0 0 1 111.084 1738.26)">
    <text x="979" y="-1486"  class="fil2 fnt2">OUT</text>
   </g>
  </g>
 </g>
</svg>
