<svg xmlns="http://www.w3.org/2000/svg" xmlns:xlink="http://www.w3.org/1999/xlink" xmlns:s="https://github.com/nturley/netlistsvg" width="563" height="536"><style>svg {
  stroke:#000;
  fill:none;
}
text {
  fill:#000;
  stroke:none;
  font-size:10px;
  font-weight: bold;
  font-family: "Courier New", monospace;
}
line {
    stroke-linecap: round;
}
.nodelabel {
  text-anchor: middle;
}
.inputPortLabel {
  text-anchor: end;
}
.splitjoinBody {
  fill:#000;
}</style><g s:type="generic" transform="translate(97,82)" s:width="30" s:height="40" id="cell_inst_1_11"><text x="15" y="-4" class="nodelabel cell_inst_1_11" s:attribute="ref">inst_1_11</text><rect width="30" height="40" s:generic="body" fill="#ffffff" rx="0" class="cell_inst_1_11"/><g transform="translate(0,10)" s:x="0" s:y="10" s:pid="in0" id="port_inst_1_11~clk"><text x="-3" y="-4" class="inputPortLabel cell_inst_1_11">clk</text></g><g transform="translate(0,30)" s:x="0" s:y="10" s:pid="in0" id="port_inst_1_11~in0"><text x="-3" y="-4" class="inputPortLabel cell_inst_1_11">in0</text></g><g transform="translate(30,10)" s:x="30" s:y="10" s:pid="out0" id="port_inst_1_11~out0"><text x="5" y="-4" style="fill:#000; stroke:none" class="cell_inst_1_11">out0</text></g></g><g s:type="generic" transform="translate(97,215)" s:width="30" s:height="40" id="cell_inst_1_12"><text x="15" y="-4" class="nodelabel cell_inst_1_12" s:attribute="ref">inst_1_12</text><rect width="30" height="40" s:generic="body" fill="#ffffff" rx="0" class="cell_inst_1_12"/><g transform="translate(0,10)" s:x="0" s:y="10" s:pid="in0" id="port_inst_1_12~clk"><text x="-3" y="-4" class="inputPortLabel cell_inst_1_12">clk</text></g><g transform="translate(0,30)" s:x="0" s:y="10" s:pid="in0" id="port_inst_1_12~in0"><text x="-3" y="-4" class="inputPortLabel cell_inst_1_12">in0</text></g><g transform="translate(30,10)" s:x="30" s:y="10" s:pid="out0" id="port_inst_1_12~out0"><text x="5" y="-4" style="fill:#000; stroke:none" class="cell_inst_1_12">out0</text></g></g><g s:type="generic" transform="translate(97,348)" s:width="30" s:height="40" id="cell_inst_1_13"><text x="15" y="-4" class="nodelabel cell_inst_1_13" s:attribute="ref">inst_1_13</text><rect width="30" height="40" s:generic="body" fill="#ffffff" rx="0" class="cell_inst_1_13"/><g transform="translate(0,10)" s:x="0" s:y="10" s:pid="in0" id="port_inst_1_13~clk"><text x="-3" y="-4" class="inputPortLabel cell_inst_1_13">clk</text></g><g transform="translate(0,30)" s:x="0" s:y="10" s:pid="in0" id="port_inst_1_13~in0"><text x="-3" y="-4" class="inputPortLabel cell_inst_1_13">in0</text></g><g transform="translate(30,10)" s:x="30" s:y="10" s:pid="out0" id="port_inst_1_13~out0"><text x="5" y="-4" style="fill:#000; stroke:none" class="cell_inst_1_13">out0</text></g></g><g s:type="generic" transform="translate(97,481)" s:width="30" s:height="40" id="cell_inst_1_14"><text x="15" y="-4" class="nodelabel cell_inst_1_14" s:attribute="ref">inst_1_14</text><rect width="30" height="40" s:generic="body" fill="#ffffff" rx="0" class="cell_inst_1_14"/><g transform="translate(0,10)" s:x="0" s:y="10" s:pid="in0" id="port_inst_1_14~clk"><text x="-3" y="-4" class="inputPortLabel cell_inst_1_14">clk</text></g><g transform="translate(0,30)" s:x="0" s:y="10" s:pid="in0" id="port_inst_1_14~in0"><text x="-3" y="-4" class="inputPortLabel cell_inst_1_14">in0</text></g><g transform="translate(30,10)" s:x="30" s:y="10" s:pid="out0" id="port_inst_1_14~out0"><text x="5" y="-4" style="fill:#000; stroke:none" class="cell_inst_1_14">out0</text></g></g><g s:type="generic" transform="translate(208,62)" s:width="30" s:height="40" id="cell_inst_1_21"><text x="15" y="-4" class="nodelabel cell_inst_1_21" s:attribute="ref">inst_1_21</text><rect width="30" height="40" s:generic="body" fill="#ffffff" rx="0" class="cell_inst_1_21"/><g transform="translate(0,10)" s:x="0" s:y="10" s:pid="in0" id="port_inst_1_21~clk"><text x="-3" y="-4" class="inputPortLabel cell_inst_1_21">clk</text></g><g transform="translate(0,30)" s:x="0" s:y="10" s:pid="in0" id="port_inst_1_21~in0"><text x="-3" y="-4" class="inputPortLabel cell_inst_1_21">in0</text></g><g transform="translate(30,10)" s:x="30" s:y="10" s:pid="out0" id="port_inst_1_21~out0"><text x="5" y="-4" style="fill:#000; stroke:none" class="cell_inst_1_21">out0</text></g></g><g s:type="generic" transform="translate(208,195)" s:width="30" s:height="40" id="cell_inst_1_22"><text x="15" y="-4" class="nodelabel cell_inst_1_22" s:attribute="ref">inst_1_22</text><rect width="30" height="40" s:generic="body" fill="#ffffff" rx="0" class="cell_inst_1_22"/><g transform="translate(0,10)" s:x="0" s:y="10" s:pid="in0" id="port_inst_1_22~clk"><text x="-3" y="-4" class="inputPortLabel cell_inst_1_22">clk</text></g><g transform="translate(0,30)" s:x="0" s:y="10" s:pid="in0" id="port_inst_1_22~in0"><text x="-3" y="-4" class="inputPortLabel cell_inst_1_22">in0</text></g><g transform="translate(30,10)" s:x="30" s:y="10" s:pid="out0" id="port_inst_1_22~out0"><text x="5" y="-4" style="fill:#000; stroke:none" class="cell_inst_1_22">out0</text></g></g><g s:type="generic" transform="translate(208,328)" s:width="30" s:height="40" id="cell_inst_1_23"><text x="15" y="-4" class="nodelabel cell_inst_1_23" s:attribute="ref">inst_1_23</text><rect width="30" height="40" s:generic="body" fill="#ffffff" rx="0" class="cell_inst_1_23"/><g transform="translate(0,10)" s:x="0" s:y="10" s:pid="in0" id="port_inst_1_23~clk"><text x="-3" y="-4" class="inputPortLabel cell_inst_1_23">clk</text></g><g transform="translate(0,30)" s:x="0" s:y="10" s:pid="in0" id="port_inst_1_23~in0"><text x="-3" y="-4" class="inputPortLabel cell_inst_1_23">in0</text></g><g transform="translate(30,10)" s:x="30" s:y="10" s:pid="out0" id="port_inst_1_23~out0"><text x="5" y="-4" style="fill:#000; stroke:none" class="cell_inst_1_23">out0</text></g></g><g s:type="generic" transform="translate(208,461)" s:width="30" s:height="40" id="cell_inst_1_24"><text x="15" y="-4" class="nodelabel cell_inst_1_24" s:attribute="ref">inst_1_24</text><rect width="30" height="40" s:generic="body" fill="#ffffff" rx="0" class="cell_inst_1_24"/><g transform="translate(0,10)" s:x="0" s:y="10" s:pid="in0" id="port_inst_1_24~clk"><text x="-3" y="-4" class="inputPortLabel cell_inst_1_24">clk</text></g><g transform="translate(0,30)" s:x="0" s:y="10" s:pid="in0" id="port_inst_1_24~in0"><text x="-3" y="-4" class="inputPortLabel cell_inst_1_24">in0</text></g><g transform="translate(30,10)" s:x="30" s:y="10" s:pid="out0" id="port_inst_1_24~out0"><text x="5" y="-4" style="fill:#000; stroke:none" class="cell_inst_1_24">out0</text></g></g><g s:type="generic" transform="translate(319,42)" s:width="30" s:height="40" id="cell_inst_1_31"><text x="15" y="-4" class="nodelabel cell_inst_1_31" s:attribute="ref">inst_1_31</text><rect width="30" height="40" s:generic="body" fill="#ffffff" rx="0" class="cell_inst_1_31"/><g transform="translate(0,10)" s:x="0" s:y="10" s:pid="in0" id="port_inst_1_31~clk"><text x="-3" y="-4" class="inputPortLabel cell_inst_1_31">clk</text></g><g transform="translate(0,30)" s:x="0" s:y="10" s:pid="in0" id="port_inst_1_31~in0"><text x="-3" y="-4" class="inputPortLabel cell_inst_1_31">in0</text></g><g transform="translate(30,10)" s:x="30" s:y="10" s:pid="out0" id="port_inst_1_31~out0"><text x="5" y="-4" style="fill:#000; stroke:none" class="cell_inst_1_31">out0</text></g></g><g s:type="generic" transform="translate(319,175)" s:width="30" s:height="40" id="cell_inst_1_32"><text x="15" y="-4" class="nodelabel cell_inst_1_32" s:attribute="ref">inst_1_32</text><rect width="30" height="40" s:generic="body" fill="#ffffff" rx="0" class="cell_inst_1_32"/><g transform="translate(0,10)" s:x="0" s:y="10" s:pid="in0" id="port_inst_1_32~clk"><text x="-3" y="-4" class="inputPortLabel cell_inst_1_32">clk</text></g><g transform="translate(0,30)" s:x="0" s:y="10" s:pid="in0" id="port_inst_1_32~in0"><text x="-3" y="-4" class="inputPortLabel cell_inst_1_32">in0</text></g><g transform="translate(30,10)" s:x="30" s:y="10" s:pid="out0" id="port_inst_1_32~out0"><text x="5" y="-4" style="fill:#000; stroke:none" class="cell_inst_1_32">out0</text></g></g><g s:type="generic" transform="translate(319,308)" s:width="30" s:height="40" id="cell_inst_1_33"><text x="15" y="-4" class="nodelabel cell_inst_1_33" s:attribute="ref">inst_1_33</text><rect width="30" height="40" s:generic="body" fill="#ffffff" rx="0" class="cell_inst_1_33"/><g transform="translate(0,10)" s:x="0" s:y="10" s:pid="in0" id="port_inst_1_33~clk"><text x="-3" y="-4" class="inputPortLabel cell_inst_1_33">clk</text></g><g transform="translate(0,30)" s:x="0" s:y="10" s:pid="in0" id="port_inst_1_33~in0"><text x="-3" y="-4" class="inputPortLabel cell_inst_1_33">in0</text></g><g transform="translate(30,10)" s:x="30" s:y="10" s:pid="out0" id="port_inst_1_33~out0"><text x="5" y="-4" style="fill:#000; stroke:none" class="cell_inst_1_33">out0</text></g></g><g s:type="generic" transform="translate(319,441)" s:width="30" s:height="40" id="cell_inst_1_34"><text x="15" y="-4" class="nodelabel cell_inst_1_34" s:attribute="ref">inst_1_34</text><rect width="30" height="40" s:generic="body" fill="#ffffff" rx="0" class="cell_inst_1_34"/><g transform="translate(0,10)" s:x="0" s:y="10" s:pid="in0" id="port_inst_1_34~clk"><text x="-3" y="-4" class="inputPortLabel cell_inst_1_34">clk</text></g><g transform="translate(0,30)" s:x="0" s:y="10" s:pid="in0" id="port_inst_1_34~in0"><text x="-3" y="-4" class="inputPortLabel cell_inst_1_34">in0</text></g><g transform="translate(30,10)" s:x="30" s:y="10" s:pid="out0" id="port_inst_1_34~out0"><text x="5" y="-4" style="fill:#000; stroke:none" class="cell_inst_1_34">out0</text></g></g><g s:type="generic" transform="translate(430,22)" s:width="30" s:height="40" id="cell_inst_1_41"><text x="15" y="-4" class="nodelabel cell_inst_1_41" s:attribute="ref">inst_1_41</text><rect width="30" height="40" s:generic="body" fill="#ffffff" rx="0" class="cell_inst_1_41"/><g transform="translate(0,10)" s:x="0" s:y="10" s:pid="in0" id="port_inst_1_41~clk"><text x="-3" y="-4" class="inputPortLabel cell_inst_1_41">clk</text></g><g transform="translate(0,30)" s:x="0" s:y="10" s:pid="in0" id="port_inst_1_41~in0"><text x="-3" y="-4" class="inputPortLabel cell_inst_1_41">in0</text></g><g transform="translate(30,10)" s:x="30" s:y="10" s:pid="out0" id="port_inst_1_41~out0"><text x="5" y="-4" style="fill:#000; stroke:none" class="cell_inst_1_41">out0</text></g></g><g s:type="generic" transform="translate(430,155)" s:width="30" s:height="40" id="cell_inst_1_42"><text x="15" y="-4" class="nodelabel cell_inst_1_42" s:attribute="ref">inst_1_42</text><rect width="30" height="40" s:generic="body" fill="#ffffff" rx="0" class="cell_inst_1_42"/><g transform="translate(0,10)" s:x="0" s:y="10" s:pid="in0" id="port_inst_1_42~clk"><text x="-3" y="-4" class="inputPortLabel cell_inst_1_42">clk</text></g><g transform="translate(0,30)" s:x="0" s:y="10" s:pid="in0" id="port_inst_1_42~in0"><text x="-3" y="-4" class="inputPortLabel cell_inst_1_42">in0</text></g><g transform="translate(30,10)" s:x="30" s:y="10" s:pid="out0" id="port_inst_1_42~out0"><text x="5" y="-4" style="fill:#000; stroke:none" class="cell_inst_1_42">out0</text></g></g><g s:type="generic" transform="translate(430,288)" s:width="30" s:height="40" id="cell_inst_1_43"><text x="15" y="-4" class="nodelabel cell_inst_1_43" s:attribute="ref">inst_1_43</text><rect width="30" height="40" s:generic="body" fill="#ffffff" rx="0" class="cell_inst_1_43"/><g transform="translate(0,10)" s:x="0" s:y="10" s:pid="in0" id="port_inst_1_43~clk"><text x="-3" y="-4" class="inputPortLabel cell_inst_1_43">clk</text></g><g transform="translate(0,30)" s:x="0" s:y="10" s:pid="in0" id="port_inst_1_43~in0"><text x="-3" y="-4" class="inputPortLabel cell_inst_1_43">in0</text></g><g transform="translate(30,10)" s:x="30" s:y="10" s:pid="out0" id="port_inst_1_43~out0"><text x="5" y="-4" style="fill:#000; stroke:none" class="cell_inst_1_43">out0</text></g></g><g s:type="generic" transform="translate(430,421)" s:width="30" s:height="40" id="cell_inst_1_44"><text x="15" y="-4" class="nodelabel cell_inst_1_44" s:attribute="ref">inst_1_44</text><rect width="30" height="40" s:generic="body" fill="#ffffff" rx="0" class="cell_inst_1_44"/><g transform="translate(0,10)" s:x="0" s:y="10" s:pid="in0" id="port_inst_1_44~clk"><text x="-3" y="-4" class="inputPortLabel cell_inst_1_44">clk</text></g><g transform="translate(0,30)" s:x="0" s:y="10" s:pid="in0" id="port_inst_1_44~in0"><text x="-3" y="-4" class="inputPortLabel cell_inst_1_44">in0</text></g><g transform="translate(30,10)" s:x="30" s:y="10" s:pid="out0" id="port_inst_1_44~out0"><text x="5" y="-4" style="fill:#000; stroke:none" class="cell_inst_1_44">out0</text></g></g><g s:type="inputExt" transform="translate(12,501.5)" s:width="30" s:height="20" id="cell_in_0"><text x="15" y="-4" class="nodelabel cell_in_0" s:attribute="ref">in_0</text><s:alias val="$_inputExt_"/><path d="M0,0 L0,20 L15,20 L30,10 L15,0 Z" fill="#ffffff" class="cell_in_0"/><g s:x="30" s:y="10" s:pid="Y"/></g><g s:type="inputExt" transform="translate(12,368.5)" s:width="30" s:height="20" id="cell_in_1"><text x="15" y="-4" class="nodelabel cell_in_1" s:attribute="ref">in_1</text><s:alias val="$_inputExt_"/><path d="M0,0 L0,20 L15,20 L30,10 L15,0 Z" fill="#ffffff" class="cell_in_1"/><g s:x="30" s:y="10" s:pid="Y"/></g><g s:type="inputExt" transform="translate(12,235.5)" s:width="30" s:height="20" id="cell_in_2"><text x="15" y="-4" class="nodelabel cell_in_2" s:attribute="ref">in_2</text><s:alias val="$_inputExt_"/><path d="M0,0 L0,20 L15,20 L30,10 L15,0 Z" fill="#ffffff" class="cell_in_2"/><g s:x="30" s:y="10" s:pid="Y"/></g><g s:type="inputExt" transform="translate(12,102.5)" s:width="30" s:height="20" id="cell_in_3"><text x="15" y="-4" class="nodelabel cell_in_3" s:attribute="ref">in_3</text><s:alias val="$_inputExt_"/><path d="M0,0 L0,20 L15,20 L30,10 L15,0 Z" fill="#ffffff" class="cell_in_3"/><g s:x="30" s:y="10" s:pid="Y"/></g><g s:type="outputExt" transform="translate(521,421.5)" s:width="30" s:height="20" id="cell_out_0"><text x="15" y="-4" class="nodelabel cell_out_0" s:attribute="ref">out_0</text><s:alias val="$_outputExt_"/><path d="M30,0 L30,20 L15,20 L0,10 L15,0 Z" fill="#ffffff" class="cell_out_0"/><g s:x="0" s:y="10" s:pid="A"/></g><g s:type="outputExt" transform="translate(521,288.5)" s:width="30" s:height="20" id="cell_out_1"><text x="15" y="-4" class="nodelabel cell_out_1" s:attribute="ref">out_1</text><s:alias val="$_outputExt_"/><path d="M30,0 L30,20 L15,20 L0,10 L15,0 Z" fill="#ffffff" class="cell_out_1"/><g s:x="0" s:y="10" s:pid="A"/></g><g s:type="outputExt" transform="translate(521,155.5)" s:width="30" s:height="20" id="cell_out_2"><text x="15" y="-4" class="nodelabel cell_out_2" s:attribute="ref">out_2</text><s:alias val="$_outputExt_"/><path d="M30,0 L30,20 L15,20 L0,10 L15,0 Z" fill="#ffffff" class="cell_out_2"/><g s:x="0" s:y="10" s:pid="A"/></g><g s:type="outputExt" transform="translate(521,22.5)" s:width="30" s:height="20" id="cell_out_3"><text x="15" y="-4" class="nodelabel cell_out_3" s:attribute="ref">out_3</text><s:alias val="$_outputExt_"/><path d="M30,0 L30,20 L15,20 L0,10 L15,0 Z" fill="#ffffff" class="cell_out_3"/><g s:x="0" s:y="10" s:pid="A"/></g><line x1="42" x2="96" y1="112.5" y2="112.5" class="net_5 width_1" style="stroke-width: 1"/><line x1="42" x2="96" y1="245.5" y2="245.5" class="net_4 width_1" style="stroke-width: 1"/><line x1="42" x2="96" y1="378.5" y2="378.5" class="net_3 width_1" style="stroke-width: 1"/><line x1="42" x2="96" y1="511.5" y2="511.5" class="net_2 width_1" style="stroke-width: 1"/><line x1="128" x2="207" y1="92.5" y2="92.5" class="net_11 width_1" style="stroke-width: 1"/><line x1="128" x2="207" y1="225.5" y2="225.5" class="net_13 width_1" style="stroke-width: 1"/><line x1="128" x2="207" y1="358.5" y2="358.5" class="net_15 width_1" style="stroke-width: 1"/><line x1="128" x2="207" y1="491.5" y2="491.5" class="net_17 width_1" style="stroke-width: 1"/><line x1="239" x2="318" y1="72.5" y2="72.5" class="net_19 width_1" style="stroke-width: 1"/><line x1="239" x2="318" y1="205.5" y2="205.5" class="net_21 width_1" style="stroke-width: 1"/><line x1="239" x2="318" y1="338.5" y2="338.5" class="net_23 width_1" style="stroke-width: 1"/><line x1="239" x2="318" y1="471.5" y2="471.5" class="net_25 width_1" style="stroke-width: 1"/><line x1="350" x2="429" y1="52.5" y2="52.5" class="net_27 width_1" style="stroke-width: 1"/><line x1="350" x2="429" y1="185.5" y2="185.5" class="net_29 width_1" style="stroke-width: 1"/><line x1="350" x2="429" y1="318.5" y2="318.5" class="net_31 width_1" style="stroke-width: 1"/><line x1="350" x2="429" y1="451.5" y2="451.5" class="net_33 width_1" style="stroke-width: 1"/><line x1="461" x2="521" y1="431.5" y2="431.5" class="net_6 width_1" style="stroke-width: 1"/><line x1="461" x2="521" y1="298.5" y2="298.5" class="net_7 width_1" style="stroke-width: 1"/><line x1="461" x2="521" y1="165.5" y2="165.5" class="net_8 width_1" style="stroke-width: 1"/><line x1="461" x2="521" y1="32.5" y2="32.5" class="net_9 width_1" style="stroke-width: 1"/></svg>