<svg xmlns="http://www.w3.org/2000/svg" xmlns:xlink="http://www.w3.org/1999/xlink" xmlns:s="https://github.com/nturley/netlistsvg" width="559" height="512">
  <style>svg {
    stroke:#000;
    fill:none;
  }
  text {
    fill:#000;
    stroke:none;
    font-size:10px;
    font-weight: bold;
    font-family: "Courier New", monospace;
  }
  .nodelabel {
    text-anchor: middle;
  }
  .inputPortLabel {
    text-anchor: end;
  }
  .splitjoinBody {
    fill:#000;
  }</style>
  <g s:type="generic" transform="translate(96,82)" s:width="30" s:height="40" id="cell_inst_1_11">
    <text x="15" y="-4" class="nodelabel cell_inst_1_11" s:attribute="ref">inst_1_11</text>
    <rect width="30" height="40" s:generic="body" class="cell_inst_1_11"/>
    <g transform="translate(0,10)" s:x="0" s:y="10" s:pid="in0" id="port_inst_1_11~clk">
      <text x="-3" y="-4" class="inputPortLabel cell_inst_1_11">clk</text>
    </g>
    <g transform="translate(0,30)" s:x="0" s:y="10" s:pid="in0" id="port_inst_1_11~in0">
      <text x="-3" y="-4" class="inputPortLabel cell_inst_1_11">in0</text>
    </g>
    <g transform="translate(30,10)" s:x="30" s:y="10" s:pid="out0" id="port_inst_1_11~out0">
      <text x="5" y="-4" style="fill:#000; stroke:none" class="cell_inst_1_11">out0</text>
    </g>
  </g>
  <g s:type="generic" transform="translate(96,207)" s:width="30" s:height="40" id="cell_inst_1_12">
    <text x="15" y="-4" class="nodelabel cell_inst_1_12" s:attribute="ref">inst_1_12</text>
    <rect width="30" height="40" s:generic="body" class="cell_inst_1_12"/>
    <g transform="translate(0,10)" s:x="0" s:y="10" s:pid="in0" id="port_inst_1_12~clk">
      <text x="-3" y="-4" class="inputPortLabel cell_inst_1_12">clk</text>
    </g>
    <g transform="translate(0,30)" s:x="0" s:y="10" s:pid="in0" id="port_inst_1_12~in0">
      <text x="-3" y="-4" class="inputPortLabel cell_inst_1_12">in0</text>
    </g>
    <g transform="translate(30,10)" s:x="30" s:y="10" s:pid="out0" id="port_inst_1_12~out0">
      <text x="5" y="-4" style="fill:#000; stroke:none" class="cell_inst_1_12">out0</text>
    </g>
  </g>
  <g s:type="generic" transform="translate(96,332)" s:width="30" s:height="40" id="cell_inst_1_13">
    <text x="15" y="-4" class="nodelabel cell_inst_1_13" s:attribute="ref">inst_1_13</text>
    <rect width="30" height="40" s:generic="body" class="cell_inst_1_13"/>
    <g transform="translate(0,10)" s:x="0" s:y="10" s:pid="in0" id="port_inst_1_13~clk">
      <text x="-3" y="-4" class="inputPortLabel cell_inst_1_13">clk</text>
    </g>
    <g transform="translate(0,30)" s:x="0" s:y="10" s:pid="in0" id="port_inst_1_13~in0">
      <text x="-3" y="-4" class="inputPortLabel cell_inst_1_13">in0</text>
    </g>
    <g transform="translate(30,10)" s:x="30" s:y="10" s:pid="out0" id="port_inst_1_13~out0">
      <text x="5" y="-4" style="fill:#000; stroke:none" class="cell_inst_1_13">out0</text>
    </g>
  </g>
  <g s:type="generic" transform="translate(96,457)" s:width="30" s:height="40" id="cell_inst_1_14">
    <text x="15" y="-4" class="nodelabel cell_inst_1_14" s:attribute="ref">inst_1_14</text>
    <rect width="30" height="40" s:generic="body" class="cell_inst_1_14"/>
    <g transform="translate(0,10)" s:x="0" s:y="10" s:pid="in0" id="port_inst_1_14~clk">
      <text x="-3" y="-4" class="inputPortLabel cell_inst_1_14">clk</text>
    </g>
    <g transform="translate(0,30)" s:x="0" s:y="10" s:pid="in0" id="port_inst_1_14~in0">
      <text x="-3" y="-4" class="inputPortLabel cell_inst_1_14">in0</text>
    </g>
    <g transform="translate(30,10)" s:x="30" s:y="10" s:pid="out0" id="port_inst_1_14~out0">
      <text x="5" y="-4" style="fill:#000; stroke:none" class="cell_inst_1_14">out0</text>
    </g>
  </g>
  <g s:type="generic" transform="translate(206,62)" s:width="30" s:height="40" id="cell_inst_1_21">
    <text x="15" y="-4" class="nodelabel cell_inst_1_21" s:attribute="ref">inst_1_21</text>
    <rect width="30" height="40" s:generic="body" class="cell_inst_1_21"/>
    <g transform="translate(0,10)" s:x="0" s:y="10" s:pid="in0" id="port_inst_1_21~clk">
      <text x="-3" y="-4" class="inputPortLabel cell_inst_1_21">clk</text>
    </g>
    <g transform="translate(0,30)" s:x="0" s:y="10" s:pid="in0" id="port_inst_1_21~in0">
      <text x="-3" y="-4" class="inputPortLabel cell_inst_1_21">in0</text>
    </g>
    <g transform="translate(30,10)" s:x="30" s:y="10" s:pid="out0" id="port_inst_1_21~out0">
      <text x="5" y="-4" style="fill:#000; stroke:none" class="cell_inst_1_21">out0</text>
    </g>
  </g>
  <g s:type="generic" transform="translate(206,187)" s:width="30" s:height="40" id="cell_inst_1_22">
    <text x="15" y="-4" class="nodelabel cell_inst_1_22" s:attribute="ref">inst_1_22</text>
    <rect width="30" height="40" s:generic="body" class="cell_inst_1_22"/>
    <g transform="translate(0,10)" s:x="0" s:y="10" s:pid="in0" id="port_inst_1_22~clk">
      <text x="-3" y="-4" class="inputPortLabel cell_inst_1_22">clk</text>
    </g>
    <g transform="translate(0,30)" s:x="0" s:y="10" s:pid="in0" id="port_inst_1_22~in0">
      <text x="-3" y="-4" class="inputPortLabel cell_inst_1_22">in0</text>
    </g>
    <g transform="translate(30,10)" s:x="30" s:y="10" s:pid="out0" id="port_inst_1_22~out0">
      <text x="5" y="-4" style="fill:#000; stroke:none" class="cell_inst_1_22">out0</text>
    </g>
  </g>
  <g s:type="generic" transform="translate(206,312)" s:width="30" s:height="40" id="cell_inst_1_23">
    <text x="15" y="-4" class="nodelabel cell_inst_1_23" s:attribute="ref">inst_1_23</text>
    <rect width="30" height="40" s:generic="body" class="cell_inst_1_23"/>
    <g transform="translate(0,10)" s:x="0" s:y="10" s:pid="in0" id="port_inst_1_23~clk">
      <text x="-3" y="-4" class="inputPortLabel cell_inst_1_23">clk</text>
    </g>
    <g transform="translate(0,30)" s:x="0" s:y="10" s:pid="in0" id="port_inst_1_23~in0">
      <text x="-3" y="-4" class="inputPortLabel cell_inst_1_23">in0</text>
    </g>
    <g transform="translate(30,10)" s:x="30" s:y="10" s:pid="out0" id="port_inst_1_23~out0">
      <text x="5" y="-4" style="fill:#000; stroke:none" class="cell_inst_1_23">out0</text>
    </g>
  </g>
  <g s:type="generic" transform="translate(206,437)" s:width="30" s:height="40" id="cell_inst_1_24">
    <text x="15" y="-4" class="nodelabel cell_inst_1_24" s:attribute="ref">inst_1_24</text>
    <rect width="30" height="40" s:generic="body" class="cell_inst_1_24"/>
    <g transform="translate(0,10)" s:x="0" s:y="10" s:pid="in0" id="port_inst_1_24~clk">
      <text x="-3" y="-4" class="inputPortLabel cell_inst_1_24">clk</text>
    </g>
    <g transform="translate(0,30)" s:x="0" s:y="10" s:pid="in0" id="port_inst_1_24~in0">
      <text x="-3" y="-4" class="inputPortLabel cell_inst_1_24">in0</text>
    </g>
    <g transform="translate(30,10)" s:x="30" s:y="10" s:pid="out0" id="port_inst_1_24~out0">
      <text x="5" y="-4" style="fill:#000; stroke:none" class="cell_inst_1_24">out0</text>
    </g>
  </g>
  <g s:type="generic" transform="translate(316,42)" s:width="30" s:height="40" id="cell_inst_1_31">
    <text x="15" y="-4" class="nodelabel cell_inst_1_31" s:attribute="ref">inst_1_31</text>
    <rect width="30" height="40" s:generic="body" class="cell_inst_1_31"/>
    <g transform="translate(0,10)" s:x="0" s:y="10" s:pid="in0" id="port_inst_1_31~clk">
      <text x="-3" y="-4" class="inputPortLabel cell_inst_1_31">clk</text>
    </g>
    <g transform="translate(0,30)" s:x="0" s:y="10" s:pid="in0" id="port_inst_1_31~in0">
      <text x="-3" y="-4" class="inputPortLabel cell_inst_1_31">in0</text>
    </g>
    <g transform="translate(30,10)" s:x="30" s:y="10" s:pid="out0" id="port_inst_1_31~out0">
      <text x="5" y="-4" style="fill:#000; stroke:none" class="cell_inst_1_31">out0</text>
    </g>
  </g>
  <g s:type="generic" transform="translate(316,167)" s:width="30" s:height="40" id="cell_inst_1_32">
    <text x="15" y="-4" class="nodelabel cell_inst_1_32" s:attribute="ref">inst_1_32</text>
    <rect width="30" height="40" s:generic="body" class="cell_inst_1_32"/>
    <g transform="translate(0,10)" s:x="0" s:y="10" s:pid="in0" id="port_inst_1_32~clk">
      <text x="-3" y="-4" class="inputPortLabel cell_inst_1_32">clk</text>
    </g>
    <g transform="translate(0,30)" s:x="0" s:y="10" s:pid="in0" id="port_inst_1_32~in0">
      <text x="-3" y="-4" class="inputPortLabel cell_inst_1_32">in0</text>
    </g>
    <g transform="translate(30,10)" s:x="30" s:y="10" s:pid="out0" id="port_inst_1_32~out0">
      <text x="5" y="-4" style="fill:#000; stroke:none" class="cell_inst_1_32">out0</text>
    </g>
  </g>
  <g s:type="generic" transform="translate(316,292)" s:width="30" s:height="40" id="cell_inst_1_33">
    <text x="15" y="-4" class="nodelabel cell_inst_1_33" s:attribute="ref">inst_1_33</text>
    <rect width="30" height="40" s:generic="body" class="cell_inst_1_33"/>
    <g transform="translate(0,10)" s:x="0" s:y="10" s:pid="in0" id="port_inst_1_33~clk">
      <text x="-3" y="-4" class="inputPortLabel cell_inst_1_33">clk</text>
    </g>
    <g transform="translate(0,30)" s:x="0" s:y="10" s:pid="in0" id="port_inst_1_33~in0">
      <text x="-3" y="-4" class="inputPortLabel cell_inst_1_33">in0</text>
    </g>
    <g transform="translate(30,10)" s:x="30" s:y="10" s:pid="out0" id="port_inst_1_33~out0">
      <text x="5" y="-4" style="fill:#000; stroke:none" class="cell_inst_1_33">out0</text>
    </g>
  </g>
  <g s:type="generic" transform="translate(316,417)" s:width="30" s:height="40" id="cell_inst_1_34">
    <text x="15" y="-4" class="nodelabel cell_inst_1_34" s:attribute="ref">inst_1_34</text>
    <rect width="30" height="40" s:generic="body" class="cell_inst_1_34"/>
    <g transform="translate(0,10)" s:x="0" s:y="10" s:pid="in0" id="port_inst_1_34~clk">
      <text x="-3" y="-4" class="inputPortLabel cell_inst_1_34">clk</text>
    </g>
    <g transform="translate(0,30)" s:x="0" s:y="10" s:pid="in0" id="port_inst_1_34~in0">
      <text x="-3" y="-4" class="inputPortLabel cell_inst_1_34">in0</text>
    </g>
    <g transform="translate(30,10)" s:x="30" s:y="10" s:pid="out0" id="port_inst_1_34~out0">
      <text x="5" y="-4" style="fill:#000; stroke:none" class="cell_inst_1_34">out0</text>
    </g>
  </g>
  <g s:type="generic" transform="translate(426,22)" s:width="30" s:height="40" id="cell_inst_1_41">
    <text x="15" y="-4" class="nodelabel cell_inst_1_41" s:attribute="ref">inst_1_41</text>
    <rect width="30" height="40" s:generic="body" class="cell_inst_1_41"/>
    <g transform="translate(0,10)" s:x="0" s:y="10" s:pid="in0" id="port_inst_1_41~clk">
      <text x="-3" y="-4" class="inputPortLabel cell_inst_1_41">clk</text>
    </g>
    <g transform="translate(0,30)" s:x="0" s:y="10" s:pid="in0" id="port_inst_1_41~in0">
      <text x="-3" y="-4" class="inputPortLabel cell_inst_1_41">in0</text>
    </g>
    <g transform="translate(30,10)" s:x="30" s:y="10" s:pid="out0" id="port_inst_1_41~out0">
      <text x="5" y="-4" style="fill:#000; stroke:none" class="cell_inst_1_41">out0</text>
    </g>
  </g>
  <g s:type="generic" transform="translate(426,147)" s:width="30" s:height="40" id="cell_inst_1_42">
    <text x="15" y="-4" class="nodelabel cell_inst_1_42" s:attribute="ref">inst_1_42</text>
    <rect width="30" height="40" s:generic="body" class="cell_inst_1_42"/>
    <g transform="translate(0,10)" s:x="0" s:y="10" s:pid="in0" id="port_inst_1_42~clk">
      <text x="-3" y="-4" class="inputPortLabel cell_inst_1_42">clk</text>
    </g>
    <g transform="translate(0,30)" s:x="0" s:y="10" s:pid="in0" id="port_inst_1_42~in0">
      <text x="-3" y="-4" class="inputPortLabel cell_inst_1_42">in0</text>
    </g>
    <g transform="translate(30,10)" s:x="30" s:y="10" s:pid="out0" id="port_inst_1_42~out0">
      <text x="5" y="-4" style="fill:#000; stroke:none" class="cell_inst_1_42">out0</text>
    </g>
  </g>
  <g s:type="generic" transform="translate(426,272)" s:width="30" s:height="40" id="cell_inst_1_43">
    <text x="15" y="-4" class="nodelabel cell_inst_1_43" s:attribute="ref">inst_1_43</text>
    <rect width="30" height="40" s:generic="body" class="cell_inst_1_43"/>
    <g transform="translate(0,10)" s:x="0" s:y="10" s:pid="in0" id="port_inst_1_43~clk">
      <text x="-3" y="-4" class="inputPortLabel cell_inst_1_43">clk</text>
    </g>
    <g transform="translate(0,30)" s:x="0" s:y="10" s:pid="in0" id="port_inst_1_43~in0">
      <text x="-3" y="-4" class="inputPortLabel cell_inst_1_43">in0</text>
    </g>
    <g transform="translate(30,10)" s:x="30" s:y="10" s:pid="out0" id="port_inst_1_43~out0">
      <text x="5" y="-4" style="fill:#000; stroke:none" class="cell_inst_1_43">out0</text>
    </g>
  </g>
  <g s:type="generic" transform="translate(426,397)" s:width="30" s:height="40" id="cell_inst_1_44">
    <text x="15" y="-4" class="nodelabel cell_inst_1_44" s:attribute="ref">inst_1_44</text>
    <rect width="30" height="40" s:generic="body" class="cell_inst_1_44"/>
    <g transform="translate(0,10)" s:x="0" s:y="10" s:pid="in0" id="port_inst_1_44~clk">
      <text x="-3" y="-4" class="inputPortLabel cell_inst_1_44">clk</text>
    </g>
    <g transform="translate(0,30)" s:x="0" s:y="10" s:pid="in0" id="port_inst_1_44~in0">
      <text x="-3" y="-4" class="inputPortLabel cell_inst_1_44">in0</text>
    </g>
    <g transform="translate(30,10)" s:x="30" s:y="10" s:pid="out0" id="port_inst_1_44~out0">
      <text x="5" y="-4" style="fill:#000; stroke:none" class="cell_inst_1_44">out0</text>
    </g>
  </g>
  <g s:type="inputExt" transform="translate(12,477.5)" s:width="30" s:height="20" id="cell_in_0">
    <text x="15" y="-4" class="nodelabel cell_in_0" s:attribute="ref">in_0</text>
    <s:alias val="$_inputExt_"/>
    <path d="M0,0 L0,20 L15,20 L30,10 L15,0 Z" class="cell_in_0"/>
    <g s:x="28" s:y="10" s:pid="Y"/>
  </g>
  <g s:type="inputExt" transform="translate(12,352.5)" s:width="30" s:height="20" id="cell_in_1">
    <text x="15" y="-4" class="nodelabel cell_in_1" s:attribute="ref">in_1</text>
    <s:alias val="$_inputExt_"/>
    <path d="M0,0 L0,20 L15,20 L30,10 L15,0 Z" class="cell_in_1"/>
    <g s:x="28" s:y="10" s:pid="Y"/>
  </g>
  <g s:type="inputExt" transform="translate(12,227.5)" s:width="30" s:height="20" id="cell_in_2">
    <text x="15" y="-4" class="nodelabel cell_in_2" s:attribute="ref">in_2</text>
    <s:alias val="$_inputExt_"/>
    <path d="M0,0 L0,20 L15,20 L30,10 L15,0 Z" class="cell_in_2"/>
    <g s:x="28" s:y="10" s:pid="Y"/>
  </g>
  <g s:type="inputExt" transform="translate(12,102.5)" s:width="30" s:height="20" id="cell_in_3">
    <text x="15" y="-4" class="nodelabel cell_in_3" s:attribute="ref">in_3</text>
    <s:alias val="$_inputExt_"/>
    <path d="M0,0 L0,20 L15,20 L30,10 L15,0 Z" class="cell_in_3"/>
    <g s:x="28" s:y="10" s:pid="Y"/>
  </g>
  <g s:type="outputExt" transform="translate(517,397.5)" s:width="30" s:height="20" id="cell_out_0">
    <text x="15" y="-4" class="nodelabel cell_out_0" s:attribute="ref">out_0</text>
    <s:alias val="$_outputExt_"/>
    <path d="M30,0 L30,20 L15,20 L0,10 L15,0 Z" class="cell_out_0"/>
    <g s:x="0" s:y="10" s:pid="A"/>
  </g>
  <g s:type="outputExt" transform="translate(517,272.5)" s:width="30" s:height="20" id="cell_out_1">
    <text x="15" y="-4" class="nodelabel cell_out_1" s:attribute="ref">out_1</text>
    <s:alias val="$_outputExt_"/>
    <path d="M30,0 L30,20 L15,20 L0,10 L15,0 Z" class="cell_out_1"/>
    <g s:x="0" s:y="10" s:pid="A"/>
  </g>
  <g s:type="outputExt" transform="translate(517,147.5)" s:width="30" s:height="20" id="cell_out_2">
    <text x="15" y="-4" class="nodelabel cell_out_2" s:attribute="ref">out_2</text>
    <s:alias val="$_outputExt_"/>
    <path d="M30,0 L30,20 L15,20 L0,10 L15,0 Z" class="cell_out_2"/>
    <g s:x="0" s:y="10" s:pid="A"/>
  </g>
  <g s:type="outputExt" transform="translate(517,22.5)" s:width="30" s:height="20" id="cell_out_3">
    <text x="15" y="-4" class="nodelabel cell_out_3" s:attribute="ref">out_3</text>
    <s:alias val="$_outputExt_"/>
    <path d="M30,0 L30,20 L15,20 L0,10 L15,0 Z" class="cell_out_3"/>
    <g s:x="0" s:y="10" s:pid="A"/>
  </g>
  <line x1="40" x2="96" y1="112.5" y2="112.5" class="net_5"/>
  <line x1="40" x2="96" y1="237.5" y2="237.5" class="net_4"/>
  <line x1="40" x2="96" y1="362.5" y2="362.5" class="net_3"/>
  <line x1="40" x2="96" y1="487.5" y2="487.5" class="net_2"/>
  <line x1="127" x2="206" y1="92.5" y2="92.5" class="net_11"/>
  <line x1="127" x2="206" y1="217.5" y2="217.5" class="net_13"/>
  <line x1="127" x2="206" y1="342.5" y2="342.5" class="net_15"/>
  <line x1="127" x2="206" y1="467.5" y2="467.5" class="net_17"/>
  <line x1="237" x2="316" y1="72.5" y2="72.5" class="net_19"/>
  <line x1="237" x2="316" y1="197.5" y2="197.5" class="net_21"/>
  <line x1="237" x2="316" y1="322.5" y2="322.5" class="net_23"/>
  <line x1="237" x2="316" y1="447.5" y2="447.5" class="net_25"/>
  <line x1="347" x2="426" y1="52.5" y2="52.5" class="net_27"/>
  <line x1="347" x2="426" y1="177.5" y2="177.5" class="net_29"/>
  <line x1="347" x2="426" y1="302.5" y2="302.5" class="net_31"/>
  <line x1="347" x2="426" y1="427.5" y2="427.5" class="net_33"/>
  <line x1="457" x2="517" y1="407.5" y2="407.5" class="net_6"/>
  <line x1="457" x2="517" y1="282.5" y2="282.5" class="net_7"/>
  <line x1="457" x2="517" y1="157.5" y2="157.5" class="net_8"/>
  <line x1="457" x2="517" y1="32.5" y2="32.5" class="net_9"/>
</svg>
