<svg xmlns="http://www.w3.org/2000/svg" xmlns:xlink="http://www.w3.org/1999/xlink" xmlns:s="https://github.com/nturley/netlistsvg" width="1622" height="1048.5"><style>svg {
  stroke:#000;
  fill:none;
}
text {
  fill:#000;
  stroke:none;
  font-size:10px;
  font-weight: bold;
  font-family: "Courier New", monospace;
}
line {
    stroke-linecap: round;
}
.nodelabel {
  text-anchor: middle;
}
.inputPortLabel {
  text-anchor: end;
}
.splitjoinBody {
  fill:#000;
}</style><g s:type="generic" transform="translate(1470,160)" s:width="30" s:height="40" id="cell_inst_1_11"><text x="15" y="-4" class="nodelabel cell_inst_1_11" s:attribute="ref">inst_1_11</text><rect width="30" height="80" s:generic="body" fill="#ffffff" rx="0" class="cell_inst_1_11"/><g transform="translate(0,10)" s:x="0" s:y="10" s:pid="in0" id="port_inst_1_11~clk_bottom_in"><text x="-3" y="-4" class="inputPortLabel cell_inst_1_11">clk_bottom_in</text></g><g transform="translate(0,30)" s:x="0" s:y="10" s:pid="in0" id="port_inst_1_11~clk_left_in"><text x="-3" y="-4" class="inputPortLabel cell_inst_1_11">clk_left_in</text></g><g transform="translate(0,50)" s:x="0" s:y="10" s:pid="in0" id="port_inst_1_11~clk_right_in"><text x="-3" y="-4" class="inputPortLabel cell_inst_1_11">clk_right_in</text></g><g transform="translate(0,70)" s:x="0" s:y="10" s:pid="in0" id="port_inst_1_11~in0"><text x="-3" y="-4" class="inputPortLabel cell_inst_1_11">in0</text></g><g transform="translate(30,10)" s:x="30" s:y="10" s:pid="out0" id="port_inst_1_11~clk_left_out"><text x="5" y="-4" style="fill:#000; stroke:none" class="cell_inst_1_11">clk_left_out</text></g><g transform="translate(30,30)" s:x="30" s:y="10" s:pid="out0" id="port_inst_1_11~clk_right_out"><text x="5" y="-4" style="fill:#000; stroke:none" class="cell_inst_1_11">clk_right_out</text></g><g transform="translate(30,50)" s:x="30" s:y="10" s:pid="out0" id="port_inst_1_11~clk_top_out"><text x="5" y="-4" style="fill:#000; stroke:none" class="cell_inst_1_11">clk_top_out</text></g><g transform="translate(30,70)" s:x="30" s:y="10" s:pid="out0" id="port_inst_1_11~out0"><text x="5" y="-4" style="fill:#000; stroke:none" class="cell_inst_1_11">out0</text></g></g><g s:type="generic" transform="translate(1470,32)" s:width="30" s:height="40" id="cell_inst_1_12"><text x="15" y="-4" class="nodelabel cell_inst_1_12" s:attribute="ref">inst_1_12</text><rect width="30" height="80" s:generic="body" fill="#ffffff" rx="0" class="cell_inst_1_12"/><g transform="translate(0,10)" s:x="0" s:y="10" s:pid="in0" id="port_inst_1_12~clk_bottom_in"><text x="-3" y="-4" class="inputPortLabel cell_inst_1_12">clk_bottom_in</text></g><g transform="translate(0,30)" s:x="0" s:y="10" s:pid="in0" id="port_inst_1_12~clk_left_in"><text x="-3" y="-4" class="inputPortLabel cell_inst_1_12">clk_left_in</text></g><g transform="translate(0,50)" s:x="0" s:y="10" s:pid="in0" id="port_inst_1_12~clk_right_in"><text x="-3" y="-4" class="inputPortLabel cell_inst_1_12">clk_right_in</text></g><g transform="translate(0,70)" s:x="0" s:y="10" s:pid="in0" id="port_inst_1_12~in0"><text x="-3" y="-4" class="inputPortLabel cell_inst_1_12">in0</text></g><g transform="translate(30,10)" s:x="30" s:y="10" s:pid="out0" id="port_inst_1_12~clk_left_out"><text x="5" y="-4" style="fill:#000; stroke:none" class="cell_inst_1_12">clk_left_out</text></g><g transform="translate(30,30)" s:x="30" s:y="10" s:pid="out0" id="port_inst_1_12~clk_right_out"><text x="5" y="-4" style="fill:#000; stroke:none" class="cell_inst_1_12">clk_right_out</text></g><g transform="translate(30,50)" s:x="30" s:y="10" s:pid="out0" id="port_inst_1_12~clk_top_out"><text x="5" y="-4" style="fill:#000; stroke:none" class="cell_inst_1_12">clk_top_out</text></g><g transform="translate(30,70)" s:x="30" s:y="10" s:pid="out0" id="port_inst_1_12~out0"><text x="5" y="-4" style="fill:#000; stroke:none" class="cell_inst_1_12">out0</text></g></g><g s:type="generic" transform="translate(1470,288)" s:width="30" s:height="40" id="cell_inst_1_13"><text x="15" y="-4" class="nodelabel cell_inst_1_13" s:attribute="ref">inst_1_13</text><rect width="30" height="80" s:generic="body" fill="#ffffff" rx="0" class="cell_inst_1_13"/><g transform="translate(0,10)" s:x="0" s:y="10" s:pid="in0" id="port_inst_1_13~clk_bottom_in"><text x="-3" y="-4" class="inputPortLabel cell_inst_1_13">clk_bottom_in</text></g><g transform="translate(0,30)" s:x="0" s:y="10" s:pid="in0" id="port_inst_1_13~clk_left_in"><text x="-3" y="-4" class="inputPortLabel cell_inst_1_13">clk_left_in</text></g><g transform="translate(0,50)" s:x="0" s:y="10" s:pid="in0" id="port_inst_1_13~clk_right_in"><text x="-3" y="-4" class="inputPortLabel cell_inst_1_13">clk_right_in</text></g><g transform="translate(0,70)" s:x="0" s:y="10" s:pid="in0" id="port_inst_1_13~in0"><text x="-3" y="-4" class="inputPortLabel cell_inst_1_13">in0</text></g><g transform="translate(30,10)" s:x="30" s:y="10" s:pid="out0" id="port_inst_1_13~clk_left_out"><text x="5" y="-4" style="fill:#000; stroke:none" class="cell_inst_1_13">clk_left_out</text></g><g transform="translate(30,30)" s:x="30" s:y="10" s:pid="out0" id="port_inst_1_13~clk_right_out"><text x="5" y="-4" style="fill:#000; stroke:none" class="cell_inst_1_13">clk_right_out</text></g><g transform="translate(30,50)" s:x="30" s:y="10" s:pid="out0" id="port_inst_1_13~clk_top_out"><text x="5" y="-4" style="fill:#000; stroke:none" class="cell_inst_1_13">clk_top_out</text></g><g transform="translate(30,70)" s:x="30" s:y="10" s:pid="out0" id="port_inst_1_13~out0"><text x="5" y="-4" style="fill:#000; stroke:none" class="cell_inst_1_13">out0</text></g></g><g s:type="generic" transform="translate(1470,667)" s:width="30" s:height="40" id="cell_inst_1_14"><text x="15" y="-4" class="nodelabel cell_inst_1_14" s:attribute="ref">inst_1_14</text><rect width="30" height="80" s:generic="body" fill="#ffffff" rx="0" class="cell_inst_1_14"/><g transform="translate(0,10)" s:x="0" s:y="10" s:pid="in0" id="port_inst_1_14~clk_bottom_in"><text x="-3" y="-4" class="inputPortLabel cell_inst_1_14">clk_bottom_in</text></g><g transform="translate(0,30)" s:x="0" s:y="10" s:pid="in0" id="port_inst_1_14~clk_left_in"><text x="-3" y="-4" class="inputPortLabel cell_inst_1_14">clk_left_in</text></g><g transform="translate(0,50)" s:x="0" s:y="10" s:pid="in0" id="port_inst_1_14~clk_right_in"><text x="-3" y="-4" class="inputPortLabel cell_inst_1_14">clk_right_in</text></g><g transform="translate(0,70)" s:x="0" s:y="10" s:pid="in0" id="port_inst_1_14~in0"><text x="-3" y="-4" class="inputPortLabel cell_inst_1_14">in0</text></g><g transform="translate(30,10)" s:x="30" s:y="10" s:pid="out0" id="port_inst_1_14~clk_left_out"><text x="5" y="-4" style="fill:#000; stroke:none" class="cell_inst_1_14">clk_left_out</text></g><g transform="translate(30,30)" s:x="30" s:y="10" s:pid="out0" id="port_inst_1_14~clk_right_out"><text x="5" y="-4" style="fill:#000; stroke:none" class="cell_inst_1_14">clk_right_out</text></g><g transform="translate(30,50)" s:x="30" s:y="10" s:pid="out0" id="port_inst_1_14~clk_top_out"><text x="5" y="-4" style="fill:#000; stroke:none" class="cell_inst_1_14">clk_top_out</text></g><g transform="translate(30,70)" s:x="30" s:y="10" s:pid="out0" id="port_inst_1_14~out0"><text x="5" y="-4" style="fill:#000; stroke:none" class="cell_inst_1_14">out0</text></g></g><g s:type="generic" transform="translate(101,413.5)" s:width="30" s:height="40" id="cell_inst_1_21"><text x="15" y="-4" class="nodelabel cell_inst_1_21" s:attribute="ref">inst_1_21</text><rect width="30" height="80" s:generic="body" fill="#ffffff" rx="0" class="cell_inst_1_21"/><g transform="translate(0,10)" s:x="0" s:y="10" s:pid="in0" id="port_inst_1_21~clk_bottom_in"><text x="-3" y="-4" class="inputPortLabel cell_inst_1_21">clk_bottom_in</text></g><g transform="translate(0,30)" s:x="0" s:y="10" s:pid="in0" id="port_inst_1_21~clk_left_in"><text x="-3" y="-4" class="inputPortLabel cell_inst_1_21">clk_left_in</text></g><g transform="translate(0,50)" s:x="0" s:y="10" s:pid="in0" id="port_inst_1_21~clk_right_in"><text x="-3" y="-4" class="inputPortLabel cell_inst_1_21">clk_right_in</text></g><g transform="translate(0,70)" s:x="0" s:y="10" s:pid="in0" id="port_inst_1_21~in0"><text x="-3" y="-4" class="inputPortLabel cell_inst_1_21">in0</text></g><g transform="translate(30,10)" s:x="30" s:y="10" s:pid="out0" id="port_inst_1_21~clk_left_out"><text x="5" y="-4" style="fill:#000; stroke:none" class="cell_inst_1_21">clk_left_out</text></g><g transform="translate(30,30)" s:x="30" s:y="10" s:pid="out0" id="port_inst_1_21~clk_right_out"><text x="5" y="-4" style="fill:#000; stroke:none" class="cell_inst_1_21">clk_right_out</text></g><g transform="translate(30,50)" s:x="30" s:y="10" s:pid="out0" id="port_inst_1_21~clk_top_out"><text x="5" y="-4" style="fill:#000; stroke:none" class="cell_inst_1_21">clk_top_out</text></g><g transform="translate(30,70)" s:x="30" s:y="10" s:pid="out0" id="port_inst_1_21~out0"><text x="5" y="-4" style="fill:#000; stroke:none" class="cell_inst_1_21">out0</text></g></g><g s:type="generic" transform="translate(340,391)" s:width="30" s:height="40" id="cell_inst_1_22"><text x="15" y="-4" class="nodelabel cell_inst_1_22" s:attribute="ref">inst_1_22</text><rect width="30" height="80" s:generic="body" fill="#ffffff" rx="0" class="cell_inst_1_22"/><g transform="translate(0,10)" s:x="0" s:y="10" s:pid="in0" id="port_inst_1_22~clk_bottom_in"><text x="-3" y="-4" class="inputPortLabel cell_inst_1_22">clk_bottom_in</text></g><g transform="translate(0,30)" s:x="0" s:y="10" s:pid="in0" id="port_inst_1_22~clk_left_in"><text x="-3" y="-4" class="inputPortLabel cell_inst_1_22">clk_left_in</text></g><g transform="translate(0,50)" s:x="0" s:y="10" s:pid="in0" id="port_inst_1_22~clk_right_in"><text x="-3" y="-4" class="inputPortLabel cell_inst_1_22">clk_right_in</text></g><g transform="translate(0,70)" s:x="0" s:y="10" s:pid="in0" id="port_inst_1_22~in0"><text x="-3" y="-4" class="inputPortLabel cell_inst_1_22">in0</text></g><g transform="translate(30,10)" s:x="30" s:y="10" s:pid="out0" id="port_inst_1_22~clk_left_out"><text x="5" y="-4" style="fill:#000; stroke:none" class="cell_inst_1_22">clk_left_out</text></g><g transform="translate(30,30)" s:x="30" s:y="10" s:pid="out0" id="port_inst_1_22~clk_right_out"><text x="5" y="-4" style="fill:#000; stroke:none" class="cell_inst_1_22">clk_right_out</text></g><g transform="translate(30,50)" s:x="30" s:y="10" s:pid="out0" id="port_inst_1_22~clk_top_out"><text x="5" y="-4" style="fill:#000; stroke:none" class="cell_inst_1_22">clk_top_out</text></g><g transform="translate(30,70)" s:x="30" s:y="10" s:pid="out0" id="port_inst_1_22~out0"><text x="5" y="-4" style="fill:#000; stroke:none" class="cell_inst_1_22">out0</text></g></g><g s:type="generic" transform="translate(569,792.5)" s:width="30" s:height="40" id="cell_inst_1_23"><text x="15" y="-4" class="nodelabel cell_inst_1_23" s:attribute="ref">inst_1_23</text><rect width="30" height="80" s:generic="body" fill="#ffffff" rx="0" class="cell_inst_1_23"/><g transform="translate(0,10)" s:x="0" s:y="10" s:pid="in0" id="port_inst_1_23~clk_bottom_in"><text x="-3" y="-4" class="inputPortLabel cell_inst_1_23">clk_bottom_in</text></g><g transform="translate(0,30)" s:x="0" s:y="10" s:pid="in0" id="port_inst_1_23~clk_left_in"><text x="-3" y="-4" class="inputPortLabel cell_inst_1_23">clk_left_in</text></g><g transform="translate(0,50)" s:x="0" s:y="10" s:pid="in0" id="port_inst_1_23~clk_right_in"><text x="-3" y="-4" class="inputPortLabel cell_inst_1_23">clk_right_in</text></g><g transform="translate(0,70)" s:x="0" s:y="10" s:pid="in0" id="port_inst_1_23~in0"><text x="-3" y="-4" class="inputPortLabel cell_inst_1_23">in0</text></g><g transform="translate(30,10)" s:x="30" s:y="10" s:pid="out0" id="port_inst_1_23~clk_left_out"><text x="5" y="-4" style="fill:#000; stroke:none" class="cell_inst_1_23">clk_left_out</text></g><g transform="translate(30,30)" s:x="30" s:y="10" s:pid="out0" id="port_inst_1_23~clk_right_out"><text x="5" y="-4" style="fill:#000; stroke:none" class="cell_inst_1_23">clk_right_out</text></g><g transform="translate(30,50)" s:x="30" s:y="10" s:pid="out0" id="port_inst_1_23~clk_top_out"><text x="5" y="-4" style="fill:#000; stroke:none" class="cell_inst_1_23">clk_top_out</text></g><g transform="translate(30,70)" s:x="30" s:y="10" s:pid="out0" id="port_inst_1_23~out0"><text x="5" y="-4" style="fill:#000; stroke:none" class="cell_inst_1_23">out0</text></g></g><g s:type="generic" transform="translate(798,696)" s:width="30" s:height="40" id="cell_inst_1_24"><text x="15" y="-4" class="nodelabel cell_inst_1_24" s:attribute="ref">inst_1_24</text><rect width="30" height="80" s:generic="body" fill="#ffffff" rx="0" class="cell_inst_1_24"/><g transform="translate(0,10)" s:x="0" s:y="10" s:pid="in0" id="port_inst_1_24~clk_bottom_in"><text x="-3" y="-4" class="inputPortLabel cell_inst_1_24">clk_bottom_in</text></g><g transform="translate(0,30)" s:x="0" s:y="10" s:pid="in0" id="port_inst_1_24~clk_left_in"><text x="-3" y="-4" class="inputPortLabel cell_inst_1_24">clk_left_in</text></g><g transform="translate(0,50)" s:x="0" s:y="10" s:pid="in0" id="port_inst_1_24~clk_right_in"><text x="-3" y="-4" class="inputPortLabel cell_inst_1_24">clk_right_in</text></g><g transform="translate(0,70)" s:x="0" s:y="10" s:pid="in0" id="port_inst_1_24~in0"><text x="-3" y="-4" class="inputPortLabel cell_inst_1_24">in0</text></g><g transform="translate(30,10)" s:x="30" s:y="10" s:pid="out0" id="port_inst_1_24~clk_left_out"><text x="5" y="-4" style="fill:#000; stroke:none" class="cell_inst_1_24">clk_left_out</text></g><g transform="translate(30,30)" s:x="30" s:y="10" s:pid="out0" id="port_inst_1_24~clk_right_out"><text x="5" y="-4" style="fill:#000; stroke:none" class="cell_inst_1_24">clk_right_out</text></g><g transform="translate(30,50)" s:x="30" s:y="10" s:pid="out0" id="port_inst_1_24~clk_top_out"><text x="5" y="-4" style="fill:#000; stroke:none" class="cell_inst_1_24">clk_top_out</text></g><g transform="translate(30,70)" s:x="30" s:y="10" s:pid="out0" id="port_inst_1_24~out0"><text x="5" y="-4" style="fill:#000; stroke:none" class="cell_inst_1_24">out0</text></g></g><g s:type="generic" transform="translate(1022,413.5)" s:width="30" s:height="40" id="cell_inst_1_31"><text x="15" y="-4" class="nodelabel cell_inst_1_31" s:attribute="ref">inst_1_31</text><rect width="30" height="80" s:generic="body" fill="#ffffff" rx="0" class="cell_inst_1_31"/><g transform="translate(0,10)" s:x="0" s:y="10" s:pid="in0" id="port_inst_1_31~clk_bottom_in"><text x="-3" y="-4" class="inputPortLabel cell_inst_1_31">clk_bottom_in</text></g><g transform="translate(0,30)" s:x="0" s:y="10" s:pid="in0" id="port_inst_1_31~clk_left_in"><text x="-3" y="-4" class="inputPortLabel cell_inst_1_31">clk_left_in</text></g><g transform="translate(0,50)" s:x="0" s:y="10" s:pid="in0" id="port_inst_1_31~clk_right_in"><text x="-3" y="-4" class="inputPortLabel cell_inst_1_31">clk_right_in</text></g><g transform="translate(0,70)" s:x="0" s:y="10" s:pid="in0" id="port_inst_1_31~in0"><text x="-3" y="-4" class="inputPortLabel cell_inst_1_31">in0</text></g><g transform="translate(30,10)" s:x="30" s:y="10" s:pid="out0" id="port_inst_1_31~clk_left_out"><text x="5" y="-4" style="fill:#000; stroke:none" class="cell_inst_1_31">clk_left_out</text></g><g transform="translate(30,30)" s:x="30" s:y="10" s:pid="out0" id="port_inst_1_31~clk_right_out"><text x="5" y="-4" style="fill:#000; stroke:none" class="cell_inst_1_31">clk_right_out</text></g><g transform="translate(30,50)" s:x="30" s:y="10" s:pid="out0" id="port_inst_1_31~clk_top_out"><text x="5" y="-4" style="fill:#000; stroke:none" class="cell_inst_1_31">clk_top_out</text></g><g transform="translate(30,70)" s:x="30" s:y="10" s:pid="out0" id="port_inst_1_31~out0"><text x="5" y="-4" style="fill:#000; stroke:none" class="cell_inst_1_31">out0</text></g></g><g s:type="generic" transform="translate(1022,920.5)" s:width="30" s:height="40" id="cell_inst_1_32"><text x="15" y="-4" class="nodelabel cell_inst_1_32" s:attribute="ref">inst_1_32</text><rect width="30" height="80" s:generic="body" fill="#ffffff" rx="0" class="cell_inst_1_32"/><g transform="translate(0,10)" s:x="0" s:y="10" s:pid="in0" id="port_inst_1_32~clk_bottom_in"><text x="-3" y="-4" class="inputPortLabel cell_inst_1_32">clk_bottom_in</text></g><g transform="translate(0,30)" s:x="0" s:y="10" s:pid="in0" id="port_inst_1_32~clk_left_in"><text x="-3" y="-4" class="inputPortLabel cell_inst_1_32">clk_left_in</text></g><g transform="translate(0,50)" s:x="0" s:y="10" s:pid="in0" id="port_inst_1_32~clk_right_in"><text x="-3" y="-4" class="inputPortLabel cell_inst_1_32">clk_right_in</text></g><g transform="translate(0,70)" s:x="0" s:y="10" s:pid="in0" id="port_inst_1_32~in0"><text x="-3" y="-4" class="inputPortLabel cell_inst_1_32">in0</text></g><g transform="translate(30,10)" s:x="30" s:y="10" s:pid="out0" id="port_inst_1_32~clk_left_out"><text x="5" y="-4" style="fill:#000; stroke:none" class="cell_inst_1_32">clk_left_out</text></g><g transform="translate(30,30)" s:x="30" s:y="10" s:pid="out0" id="port_inst_1_32~clk_right_out"><text x="5" y="-4" style="fill:#000; stroke:none" class="cell_inst_1_32">clk_right_out</text></g><g transform="translate(30,50)" s:x="30" s:y="10" s:pid="out0" id="port_inst_1_32~clk_top_out"><text x="5" y="-4" style="fill:#000; stroke:none" class="cell_inst_1_32">clk_top_out</text></g><g transform="translate(30,70)" s:x="30" s:y="10" s:pid="out0" id="port_inst_1_32~out0"><text x="5" y="-4" style="fill:#000; stroke:none" class="cell_inst_1_32">out0</text></g></g><g s:type="generic" transform="translate(1022,792.5)" s:width="30" s:height="40" id="cell_inst_1_33"><text x="15" y="-4" class="nodelabel cell_inst_1_33" s:attribute="ref">inst_1_33</text><rect width="30" height="80" s:generic="body" fill="#ffffff" rx="0" class="cell_inst_1_33"/><g transform="translate(0,10)" s:x="0" s:y="10" s:pid="in0" id="port_inst_1_33~clk_bottom_in"><text x="-3" y="-4" class="inputPortLabel cell_inst_1_33">clk_bottom_in</text></g><g transform="translate(0,30)" s:x="0" s:y="10" s:pid="in0" id="port_inst_1_33~clk_left_in"><text x="-3" y="-4" class="inputPortLabel cell_inst_1_33">clk_left_in</text></g><g transform="translate(0,50)" s:x="0" s:y="10" s:pid="in0" id="port_inst_1_33~clk_right_in"><text x="-3" y="-4" class="inputPortLabel cell_inst_1_33">clk_right_in</text></g><g transform="translate(0,70)" s:x="0" s:y="10" s:pid="in0" id="port_inst_1_33~in0"><text x="-3" y="-4" class="inputPortLabel cell_inst_1_33">in0</text></g><g transform="translate(30,10)" s:x="30" s:y="10" s:pid="out0" id="port_inst_1_33~clk_left_out"><text x="5" y="-4" style="fill:#000; stroke:none" class="cell_inst_1_33">clk_left_out</text></g><g transform="translate(30,30)" s:x="30" s:y="10" s:pid="out0" id="port_inst_1_33~clk_right_out"><text x="5" y="-4" style="fill:#000; stroke:none" class="cell_inst_1_33">clk_right_out</text></g><g transform="translate(30,50)" s:x="30" s:y="10" s:pid="out0" id="port_inst_1_33~clk_top_out"><text x="5" y="-4" style="fill:#000; stroke:none" class="cell_inst_1_33">clk_top_out</text></g><g transform="translate(30,70)" s:x="30" s:y="10" s:pid="out0" id="port_inst_1_33~out0"><text x="5" y="-4" style="fill:#000; stroke:none" class="cell_inst_1_33">out0</text></g></g><g s:type="generic" transform="translate(1022,541.5)" s:width="30" s:height="40" id="cell_inst_1_34"><text x="15" y="-4" class="nodelabel cell_inst_1_34" s:attribute="ref">inst_1_34</text><rect width="30" height="80" s:generic="body" fill="#ffffff" rx="0" class="cell_inst_1_34"/><g transform="translate(0,10)" s:x="0" s:y="10" s:pid="in0" id="port_inst_1_34~clk_bottom_in"><text x="-3" y="-4" class="inputPortLabel cell_inst_1_34">clk_bottom_in</text></g><g transform="translate(0,30)" s:x="0" s:y="10" s:pid="in0" id="port_inst_1_34~clk_left_in"><text x="-3" y="-4" class="inputPortLabel cell_inst_1_34">clk_left_in</text></g><g transform="translate(0,50)" s:x="0" s:y="10" s:pid="in0" id="port_inst_1_34~clk_right_in"><text x="-3" y="-4" class="inputPortLabel cell_inst_1_34">clk_right_in</text></g><g transform="translate(0,70)" s:x="0" s:y="10" s:pid="in0" id="port_inst_1_34~in0"><text x="-3" y="-4" class="inputPortLabel cell_inst_1_34">in0</text></g><g transform="translate(30,10)" s:x="30" s:y="10" s:pid="out0" id="port_inst_1_34~clk_left_out"><text x="5" y="-4" style="fill:#000; stroke:none" class="cell_inst_1_34">clk_left_out</text></g><g transform="translate(30,30)" s:x="30" s:y="10" s:pid="out0" id="port_inst_1_34~clk_right_out"><text x="5" y="-4" style="fill:#000; stroke:none" class="cell_inst_1_34">clk_right_out</text></g><g transform="translate(30,50)" s:x="30" s:y="10" s:pid="out0" id="port_inst_1_34~clk_top_out"><text x="5" y="-4" style="fill:#000; stroke:none" class="cell_inst_1_34">clk_top_out</text></g><g transform="translate(30,70)" s:x="30" s:y="10" s:pid="out0" id="port_inst_1_34~out0"><text x="5" y="-4" style="fill:#000; stroke:none" class="cell_inst_1_34">out0</text></g></g><g s:type="generic" transform="translate(1246,413.5)" s:width="30" s:height="40" id="cell_inst_1_41"><text x="15" y="-4" class="nodelabel cell_inst_1_41" s:attribute="ref">inst_1_41</text><rect width="30" height="80" s:generic="body" fill="#ffffff" rx="0" class="cell_inst_1_41"/><g transform="translate(0,10)" s:x="0" s:y="10" s:pid="in0" id="port_inst_1_41~clk_bottom_in"><text x="-3" y="-4" class="inputPortLabel cell_inst_1_41">clk_bottom_in</text></g><g transform="translate(0,30)" s:x="0" s:y="10" s:pid="in0" id="port_inst_1_41~clk_left_in"><text x="-3" y="-4" class="inputPortLabel cell_inst_1_41">clk_left_in</text></g><g transform="translate(0,50)" s:x="0" s:y="10" s:pid="in0" id="port_inst_1_41~clk_right_in"><text x="-3" y="-4" class="inputPortLabel cell_inst_1_41">clk_right_in</text></g><g transform="translate(0,70)" s:x="0" s:y="10" s:pid="in0" id="port_inst_1_41~in0"><text x="-3" y="-4" class="inputPortLabel cell_inst_1_41">in0</text></g><g transform="translate(30,10)" s:x="30" s:y="10" s:pid="out0" id="port_inst_1_41~clk_left_out"><text x="5" y="-4" style="fill:#000; stroke:none" class="cell_inst_1_41">clk_left_out</text></g><g transform="translate(30,30)" s:x="30" s:y="10" s:pid="out0" id="port_inst_1_41~clk_right_out"><text x="5" y="-4" style="fill:#000; stroke:none" class="cell_inst_1_41">clk_right_out</text></g><g transform="translate(30,50)" s:x="30" s:y="10" s:pid="out0" id="port_inst_1_41~clk_top_out"><text x="5" y="-4" style="fill:#000; stroke:none" class="cell_inst_1_41">clk_top_out</text></g><g transform="translate(30,70)" s:x="30" s:y="10" s:pid="out0" id="port_inst_1_41~out0"><text x="5" y="-4" style="fill:#000; stroke:none" class="cell_inst_1_41">out0</text></g></g><g s:type="generic" transform="translate(1246,920.5)" s:width="30" s:height="40" id="cell_inst_1_42"><text x="15" y="-4" class="nodelabel cell_inst_1_42" s:attribute="ref">inst_1_42</text><rect width="30" height="80" s:generic="body" fill="#ffffff" rx="0" class="cell_inst_1_42"/><g transform="translate(0,10)" s:x="0" s:y="10" s:pid="in0" id="port_inst_1_42~clk_bottom_in"><text x="-3" y="-4" class="inputPortLabel cell_inst_1_42">clk_bottom_in</text></g><g transform="translate(0,30)" s:x="0" s:y="10" s:pid="in0" id="port_inst_1_42~clk_left_in"><text x="-3" y="-4" class="inputPortLabel cell_inst_1_42">clk_left_in</text></g><g transform="translate(0,50)" s:x="0" s:y="10" s:pid="in0" id="port_inst_1_42~clk_right_in"><text x="-3" y="-4" class="inputPortLabel cell_inst_1_42">clk_right_in</text></g><g transform="translate(0,70)" s:x="0" s:y="10" s:pid="in0" id="port_inst_1_42~in0"><text x="-3" y="-4" class="inputPortLabel cell_inst_1_42">in0</text></g><g transform="translate(30,10)" s:x="30" s:y="10" s:pid="out0" id="port_inst_1_42~clk_left_out"><text x="5" y="-4" style="fill:#000; stroke:none" class="cell_inst_1_42">clk_left_out</text></g><g transform="translate(30,30)" s:x="30" s:y="10" s:pid="out0" id="port_inst_1_42~clk_right_out"><text x="5" y="-4" style="fill:#000; stroke:none" class="cell_inst_1_42">clk_right_out</text></g><g transform="translate(30,50)" s:x="30" s:y="10" s:pid="out0" id="port_inst_1_42~clk_top_out"><text x="5" y="-4" style="fill:#000; stroke:none" class="cell_inst_1_42">clk_top_out</text></g><g transform="translate(30,70)" s:x="30" s:y="10" s:pid="out0" id="port_inst_1_42~out0"><text x="5" y="-4" style="fill:#000; stroke:none" class="cell_inst_1_42">out0</text></g></g><g s:type="generic" transform="translate(1246,792.5)" s:width="30" s:height="40" id="cell_inst_1_43"><text x="15" y="-4" class="nodelabel cell_inst_1_43" s:attribute="ref">inst_1_43</text><rect width="30" height="80" s:generic="body" fill="#ffffff" rx="0" class="cell_inst_1_43"/><g transform="translate(0,10)" s:x="0" s:y="10" s:pid="in0" id="port_inst_1_43~clk_bottom_in"><text x="-3" y="-4" class="inputPortLabel cell_inst_1_43">clk_bottom_in</text></g><g transform="translate(0,30)" s:x="0" s:y="10" s:pid="in0" id="port_inst_1_43~clk_left_in"><text x="-3" y="-4" class="inputPortLabel cell_inst_1_43">clk_left_in</text></g><g transform="translate(0,50)" s:x="0" s:y="10" s:pid="in0" id="port_inst_1_43~clk_right_in"><text x="-3" y="-4" class="inputPortLabel cell_inst_1_43">clk_right_in</text></g><g transform="translate(0,70)" s:x="0" s:y="10" s:pid="in0" id="port_inst_1_43~in0"><text x="-3" y="-4" class="inputPortLabel cell_inst_1_43">in0</text></g><g transform="translate(30,10)" s:x="30" s:y="10" s:pid="out0" id="port_inst_1_43~clk_left_out"><text x="5" y="-4" style="fill:#000; stroke:none" class="cell_inst_1_43">clk_left_out</text></g><g transform="translate(30,30)" s:x="30" s:y="10" s:pid="out0" id="port_inst_1_43~clk_right_out"><text x="5" y="-4" style="fill:#000; stroke:none" class="cell_inst_1_43">clk_right_out</text></g><g transform="translate(30,50)" s:x="30" s:y="10" s:pid="out0" id="port_inst_1_43~clk_top_out"><text x="5" y="-4" style="fill:#000; stroke:none" class="cell_inst_1_43">clk_top_out</text></g><g transform="translate(30,70)" s:x="30" s:y="10" s:pid="out0" id="port_inst_1_43~out0"><text x="5" y="-4" style="fill:#000; stroke:none" class="cell_inst_1_43">out0</text></g></g><g s:type="generic" transform="translate(1246,541.5)" s:width="30" s:height="40" id="cell_inst_1_44"><text x="15" y="-4" class="nodelabel cell_inst_1_44" s:attribute="ref">inst_1_44</text><rect width="30" height="80" s:generic="body" fill="#ffffff" rx="0" class="cell_inst_1_44"/><g transform="translate(0,10)" s:x="0" s:y="10" s:pid="in0" id="port_inst_1_44~clk_bottom_in"><text x="-3" y="-4" class="inputPortLabel cell_inst_1_44">clk_bottom_in</text></g><g transform="translate(0,30)" s:x="0" s:y="10" s:pid="in0" id="port_inst_1_44~clk_left_in"><text x="-3" y="-4" class="inputPortLabel cell_inst_1_44">clk_left_in</text></g><g transform="translate(0,50)" s:x="0" s:y="10" s:pid="in0" id="port_inst_1_44~clk_right_in"><text x="-3" y="-4" class="inputPortLabel cell_inst_1_44">clk_right_in</text></g><g transform="translate(0,70)" s:x="0" s:y="10" s:pid="in0" id="port_inst_1_44~in0"><text x="-3" y="-4" class="inputPortLabel cell_inst_1_44">in0</text></g><g transform="translate(30,10)" s:x="30" s:y="10" s:pid="out0" id="port_inst_1_44~clk_left_out"><text x="5" y="-4" style="fill:#000; stroke:none" class="cell_inst_1_44">clk_left_out</text></g><g transform="translate(30,30)" s:x="30" s:y="10" s:pid="out0" id="port_inst_1_44~clk_right_out"><text x="5" y="-4" style="fill:#000; stroke:none" class="cell_inst_1_44">clk_right_out</text></g><g transform="translate(30,50)" s:x="30" s:y="10" s:pid="out0" id="port_inst_1_44~clk_top_out"><text x="5" y="-4" style="fill:#000; stroke:none" class="cell_inst_1_44">clk_top_out</text></g><g transform="translate(30,70)" s:x="30" s:y="10" s:pid="out0" id="port_inst_1_44~out0"><text x="5" y="-4" style="fill:#000; stroke:none" class="cell_inst_1_44">out0</text></g></g><g s:type="inputExt" transform="translate(1246,727.5)" s:width="30" s:height="20" id="cell_in_0"><text x="15" y="-4" class="nodelabel cell_in_0" s:attribute="ref">in_0</text><s:alias val="$_inputExt_"/><path d="M0,0 L0,20 L15,20 L30,10 L15,0 Z" fill="#ffffff" class="cell_in_0"/><g s:x="30" s:y="10" s:pid="Y"/></g><g s:type="inputExt" transform="translate(1246,348.5)" s:width="30" s:height="20" id="cell_in_1"><text x="15" y="-4" class="nodelabel cell_in_1" s:attribute="ref">in_1</text><s:alias val="$_inputExt_"/><path d="M0,0 L0,20 L15,20 L30,10 L15,0 Z" fill="#ffffff" class="cell_in_1"/><g s:x="30" s:y="10" s:pid="Y"/></g><g s:type="inputExt" transform="translate(1246,92.5)" s:width="30" s:height="20" id="cell_in_2"><text x="15" y="-4" class="nodelabel cell_in_2" s:attribute="ref">in_2</text><s:alias val="$_inputExt_"/><path d="M0,0 L0,20 L15,20 L30,10 L15,0 Z" fill="#ffffff" class="cell_in_2"/><g s:x="30" s:y="10" s:pid="Y"/></g><g s:type="inputExt" transform="translate(1246,220.5)" s:width="30" s:height="20" id="cell_in_3"><text x="15" y="-4" class="nodelabel cell_in_3" s:attribute="ref">in_3</text><s:alias val="$_inputExt_"/><path d="M0,0 L0,20 L15,20 L30,10 L15,0 Z" fill="#ffffff" class="cell_in_3"/><g s:x="30" s:y="10" s:pid="Y"/></g><g s:type="outputExt" transform="translate(1470,602)" s:width="30" s:height="20" id="cell_out_0"><text x="15" y="-4" class="nodelabel cell_out_0" s:attribute="ref">out_0</text><s:alias val="$_outputExt_"/><path d="M30,0 L30,20 L15,20 L0,10 L15,0 Z" fill="#ffffff" class="cell_out_0"/><g s:x="0" s:y="10" s:pid="A"/></g><g s:type="outputExt" transform="translate(1470,853)" s:width="30" s:height="20" id="cell_out_1"><text x="15" y="-4" class="nodelabel cell_out_1" s:attribute="ref">out_1</text><s:alias val="$_outputExt_"/><path d="M30,0 L30,20 L15,20 L0,10 L15,0 Z" fill="#ffffff" class="cell_out_1"/><g s:x="0" s:y="10" s:pid="A"/></g><g s:type="outputExt" transform="translate(1470,981)" s:width="30" s:height="20" id="cell_out_2"><text x="15" y="-4" class="nodelabel cell_out_2" s:attribute="ref">out_2</text><s:alias val="$_outputExt_"/><path d="M30,0 L30,20 L15,20 L0,10 L15,0 Z" fill="#ffffff" class="cell_out_2"/><g s:x="0" s:y="10" s:pid="A"/></g><g s:type="outputExt" transform="translate(1470,474)" s:width="30" s:height="20" id="cell_out_3"><text x="15" y="-4" class="nodelabel cell_out_3" s:attribute="ref">out_3</text><s:alias val="$_outputExt_"/><path d="M30,0 L30,20 L15,20 L0,10 L15,0 Z" fill="#ffffff" class="cell_out_3"/><g s:x="0" s:y="10" s:pid="A"/></g><line x1="132" x2="221" y1="424" y2="424" class="net_13 width_1" style="stroke-width: 1"/><line x1="221" x2="221" y1="424" y2="199.5" class="net_13 width_1" style="stroke-width: 1"/><line x1="221" x2="1366" y1="199.5" y2="199.5" class="net_13 width_1" style="stroke-width: 1"/><line x1="1366" x2="1366" y1="199.5" y2="210.5" class="net_13 width_1" style="stroke-width: 1"/><line x1="1366" x2="1469" y1="210.5" y2="210.5" class="net_13 width_1" style="stroke-width: 1"/><line x1="1276" x2="1469" y1="230.5" y2="230.5" class="net_5 width_1" style="stroke-width: 1"/><line x1="371" x2="460" y1="401.5" y2="401.5" class="net_20 width_1" style="stroke-width: 1"/><line x1="460" x2="460" y1="401.5" y2="71.5" class="net_20 width_1" style="stroke-width: 1"/><line x1="460" x2="1366" y1="71.5" y2="71.5" class="net_20 width_1" style="stroke-width: 1"/><line x1="1366" x2="1366" y1="71.5" y2="82.5" class="net_20 width_1" style="stroke-width: 1"/><line x1="1366" x2="1469" y1="82.5" y2="82.5" class="net_20 width_1" style="stroke-width: 1"/><line x1="1276" x2="1469" y1="102.5" y2="102.5" class="net_4 width_1" style="stroke-width: 1"/><line x1="600" x2="689" y1="803" y2="803" class="net_27 width_1" style="stroke-width: 1"/><line x1="689" x2="689" y1="803" y2="327.5" class="net_27 width_1" style="stroke-width: 1"/><line x1="689" x2="1366" y1="327.5" y2="327.5" class="net_27 width_1" style="stroke-width: 1"/><line x1="1366" x2="1366" y1="327.5" y2="338.5" class="net_27 width_1" style="stroke-width: 1"/><line x1="1366" x2="1469" y1="338.5" y2="338.5" class="net_27 width_1" style="stroke-width: 1"/><line x1="1276" x2="1469" y1="358.5" y2="358.5" class="net_3 width_1" style="stroke-width: 1"/><line x1="829" x2="1366" y1="706.5" y2="706.5" class="net_34 width_1" style="stroke-width: 1"/><line x1="1366" x2="1366" y1="706.5" y2="717.5" class="net_34 width_1" style="stroke-width: 1"/><line x1="1366" x2="1469" y1="717.5" y2="717.5" class="net_34 width_1" style="stroke-width: 1"/><line x1="1276" x2="1469" y1="737.5" y2="737.5" class="net_2 width_1" style="stroke-width: 1"/><line x1="1501" x2="1610" y1="230.5" y2="230.5" class="net_16 width_1" style="stroke-width: 1"/><line x1="1610" x2="1610" y1="230.5" y2="1035.5" class="net_16 width_1" style="stroke-width: 1"/><line x1="1610" x2="12" y1="1035.5" y2="1035.5" class="net_16 width_1" style="stroke-width: 1"/><line x1="12" x2="12" y1="1035.5" y2="484" class="net_16 width_1" style="stroke-width: 1"/><line x1="12" x2="100" y1="484" y2="484" class="net_16 width_1" style="stroke-width: 1"/><line x1="132" x2="241" y1="464" y2="464" class="net_42 width_1" style="stroke-width: 1"/><line x1="241" x2="241" y1="464" y2="401.5" class="net_42 width_1" style="stroke-width: 1"/><line x1="241" x2="340" y1="401.5" y2="401.5" class="net_42 width_1" style="stroke-width: 1"/><line x1="1501" x2="1590" y1="102.5" y2="102.5" class="net_23 width_1" style="stroke-width: 1"/><line x1="1590" x2="1590" y1="102.5" y2="12" class="net_23 width_1" style="stroke-width: 1"/><line x1="1590" x2="251" y1="12" y2="12" class="net_23 width_1" style="stroke-width: 1"/><line x1="251" x2="251" y1="12" y2="461.5" class="net_23 width_1" style="stroke-width: 1"/><line x1="251" x2="339" y1="461.5" y2="461.5" class="net_23 width_1" style="stroke-width: 1"/><line x1="371" x2="470" y1="441.5" y2="441.5" class="net_47 width_1" style="stroke-width: 1"/><line x1="470" x2="470" y1="441.5" y2="803" class="net_47 width_1" style="stroke-width: 1"/><line x1="470" x2="569" y1="803" y2="803" class="net_47 width_1" style="stroke-width: 1"/><line x1="1501" x2="1600" y1="358.5" y2="358.5" class="net_30 width_1" style="stroke-width: 1"/><line x1="1600" x2="1600" y1="358.5" y2="1024.5" class="net_30 width_1" style="stroke-width: 1"/><line x1="1600" x2="470" y1="1024.5" y2="1024.5" class="net_30 width_1" style="stroke-width: 1"/><line x1="470" x2="470" y1="1024.5" y2="863" class="net_30 width_1" style="stroke-width: 1"/><line x1="470" x2="568" y1="863" y2="863" class="net_30 width_1" style="stroke-width: 1"/><line x1="600" x2="699" y1="843" y2="843" class="net_52 width_1" style="stroke-width: 1"/><line x1="699" x2="699" y1="843" y2="706.5" class="net_52 width_1" style="stroke-width: 1"/><line x1="699" x2="798" y1="706.5" y2="706.5" class="net_52 width_1" style="stroke-width: 1"/><line x1="1501" x2="1590" y1="737.5" y2="737.5" class="net_37 width_1" style="stroke-width: 1"/><line x1="1590" x2="1590" y1="737.5" y2="1013.5" class="net_37 width_1" style="stroke-width: 1"/><line x1="1590" x2="709" y1="1013.5" y2="1013.5" class="net_37 width_1" style="stroke-width: 1"/><line x1="709" x2="709" y1="1013.5" y2="766.5" class="net_37 width_1" style="stroke-width: 1"/><line x1="709" x2="797" y1="766.5" y2="766.5" class="net_37 width_1" style="stroke-width: 1"/><line x1="132" x2="231" y1="444" y2="444" class="net_41 width_1" style="stroke-width: 1"/><line x1="231" x2="231" y1="444" y2="370" class="net_41 width_1" style="stroke-width: 1"/><line x1="231" x2="918" y1="370" y2="370" class="net_41 width_1" style="stroke-width: 1"/><line x1="918" x2="918" y1="370" y2="444" class="net_41 width_1" style="stroke-width: 1"/><line x1="918" x2="1021" y1="444" y2="444" class="net_41 width_1" style="stroke-width: 1"/><line x1="132" x2="1021" y1="484" y2="484" class="net_43 width_1" style="stroke-width: 1"/><line x1="371" x2="480" y1="421.5" y2="421.5" class="net_46 width_1" style="stroke-width: 1"/><line x1="480" x2="480" y1="421.5" y2="951" class="net_46 width_1" style="stroke-width: 1"/><line x1="480" x2="1021" y1="951" y2="951" class="net_46 width_1" style="stroke-width: 1"/><line x1="371" x2="460" y1="461.5" y2="461.5" class="net_48 width_1" style="stroke-width: 1"/><line x1="460" x2="460" y1="461.5" y2="991" class="net_48 width_1" style="stroke-width: 1"/><line x1="460" x2="1021" y1="991" y2="991" class="net_48 width_1" style="stroke-width: 1"/><line x1="600" x2="1021" y1="823" y2="823" class="net_51 width_1" style="stroke-width: 1"/><line x1="600" x2="1021" y1="863" y2="863" class="net_53 width_1" style="stroke-width: 1"/><line x1="829" x2="918" y1="726.5" y2="726.5" class="net_56 width_1" style="stroke-width: 1"/><line x1="918" x2="918" y1="726.5" y2="572" class="net_56 width_1" style="stroke-width: 1"/><line x1="918" x2="1021" y1="572" y2="572" class="net_56 width_1" style="stroke-width: 1"/><line x1="829" x2="928" y1="766.5" y2="766.5" class="net_58 width_1" style="stroke-width: 1"/><line x1="928" x2="928" y1="766.5" y2="612" class="net_58 width_1" style="stroke-width: 1"/><line x1="928" x2="1021" y1="612" y2="612" class="net_58 width_1" style="stroke-width: 1"/><line x1="1053" x2="1245" y1="444" y2="444" class="net_62 width_1" style="stroke-width: 1"/><line x1="1053" x2="1245" y1="484" y2="484" class="net_64 width_1" style="stroke-width: 1"/><line x1="1053" x2="1245" y1="951" y2="951" class="net_68 width_1" style="stroke-width: 1"/><line x1="1053" x2="1245" y1="991" y2="991" class="net_70 width_1" style="stroke-width: 1"/><line x1="1053" x2="1245" y1="823" y2="823" class="net_74 width_1" style="stroke-width: 1"/><line x1="1053" x2="1245" y1="863" y2="863" class="net_76 width_1" style="stroke-width: 1"/><line x1="1053" x2="1245" y1="572" y2="572" class="net_80 width_1" style="stroke-width: 1"/><line x1="1053" x2="1245" y1="612" y2="612" class="net_82 width_1" style="stroke-width: 1"/><line x1="1277" x2="1470" y1="612" y2="612" class="net_6 width_1" style="stroke-width: 1"/><line x1="1277" x2="1470" y1="863" y2="863" class="net_7 width_1" style="stroke-width: 1"/><line x1="1277" x2="1470" y1="991" y2="991" class="net_8 width_1" style="stroke-width: 1"/><line x1="1277" x2="1470" y1="484" y2="484" class="net_9 width_1" style="stroke-width: 1"/></svg>