<svg xmlns="http://www.w3.org/2000/svg" xmlns:xlink="http://www.w3.org/1999/xlink" xmlns:s="https://github.com/nturley/netlistsvg" width="1605" height="602.5"><style>svg {
  stroke:#000;
  fill:none;
}
text {
  fill:#000;
  stroke:none;
  font-size:10px;
  font-weight: bold;
  font-family: "Courier New", monospace;
}
line {
    stroke-linecap: round;
}
.nodelabel {
  text-anchor: middle;
}
.inputPortLabel {
  text-anchor: end;
}
.splitjoinBody {
  fill:#000;
}</style><g s:type="generic" transform="translate(1473,32)" s:width="30" s:height="40" id="cell_inst_1_11"><text x="15" y="-4" class="nodelabel cell_inst_1_11" s:attribute="ref">inst_1_11</text><rect width="30" height="80" s:generic="body" fill="#ffffff" rx="0" class="cell_inst_1_11"/><g transform="translate(0,10)" s:x="0" s:y="10" s:pid="in0" id="port_inst_1_11~clk_bottom_in"><text x="-3" y="-4" class="inputPortLabel cell_inst_1_11">clk_bottom_in</text></g><g transform="translate(0,30)" s:x="0" s:y="10" s:pid="in0" id="port_inst_1_11~clk_left_in"><text x="-3" y="-4" class="inputPortLabel cell_inst_1_11">clk_left_in</text></g><g transform="translate(0,50)" s:x="0" s:y="10" s:pid="in0" id="port_inst_1_11~clk_right_in"><text x="-3" y="-4" class="inputPortLabel cell_inst_1_11">clk_right_in</text></g><g transform="translate(0,70)" s:x="0" s:y="10" s:pid="in0" id="port_inst_1_11~in0"><text x="-3" y="-4" class="inputPortLabel cell_inst_1_11">in0</text></g><g transform="translate(30,10)" s:x="30" s:y="10" s:pid="out0" id="port_inst_1_11~clk_left_out"><text x="5" y="-4" style="fill:#000; stroke:none" class="cell_inst_1_11">clk_left_out</text></g><g transform="translate(30,30)" s:x="30" s:y="10" s:pid="out0" id="port_inst_1_11~clk_right_out"><text x="5" y="-4" style="fill:#000; stroke:none" class="cell_inst_1_11">clk_right_out</text></g><g transform="translate(30,50)" s:x="30" s:y="10" s:pid="out0" id="port_inst_1_11~clk_top_out"><text x="5" y="-4" style="fill:#000; stroke:none" class="cell_inst_1_11">clk_top_out</text></g><g transform="translate(30,70)" s:x="30" s:y="10" s:pid="out0" id="port_inst_1_11~out0"><text x="5" y="-4" style="fill:#000; stroke:none" class="cell_inst_1_11">out0</text></g></g><g s:type="generic" transform="translate(265,251.5)" s:width="30" s:height="40" id="cell_inst_1_12"><text x="15" y="-4" class="nodelabel cell_inst_1_12" s:attribute="ref">inst_1_12</text><rect width="30" height="80" s:generic="body" fill="#ffffff" rx="0" class="cell_inst_1_12"/><g transform="translate(0,10)" s:x="0" s:y="10" s:pid="in0" id="port_inst_1_12~clk_bottom_in"><text x="-3" y="-4" class="inputPortLabel cell_inst_1_12">clk_bottom_in</text></g><g transform="translate(0,30)" s:x="0" s:y="10" s:pid="in0" id="port_inst_1_12~clk_left_in"><text x="-3" y="-4" class="inputPortLabel cell_inst_1_12">clk_left_in</text></g><g transform="translate(0,50)" s:x="0" s:y="10" s:pid="in0" id="port_inst_1_12~clk_right_in"><text x="-3" y="-4" class="inputPortLabel cell_inst_1_12">clk_right_in</text></g><g transform="translate(0,70)" s:x="0" s:y="10" s:pid="in0" id="port_inst_1_12~in0"><text x="-3" y="-4" class="inputPortLabel cell_inst_1_12">in0</text></g><g transform="translate(30,10)" s:x="30" s:y="10" s:pid="out0" id="port_inst_1_12~clk_left_out"><text x="5" y="-4" style="fill:#000; stroke:none" class="cell_inst_1_12">clk_left_out</text></g><g transform="translate(30,30)" s:x="30" s:y="10" s:pid="out0" id="port_inst_1_12~clk_right_out"><text x="5" y="-4" style="fill:#000; stroke:none" class="cell_inst_1_12">clk_right_out</text></g><g transform="translate(30,50)" s:x="30" s:y="10" s:pid="out0" id="port_inst_1_12~clk_top_out"><text x="5" y="-4" style="fill:#000; stroke:none" class="cell_inst_1_12">clk_top_out</text></g><g transform="translate(30,70)" s:x="30" s:y="10" s:pid="out0" id="port_inst_1_12~out0"><text x="5" y="-4" style="fill:#000; stroke:none" class="cell_inst_1_12">out0</text></g></g><g s:type="generic" transform="translate(489,379.5)" s:width="30" s:height="40" id="cell_inst_1_13"><text x="15" y="-4" class="nodelabel cell_inst_1_13" s:attribute="ref">inst_1_13</text><rect width="30" height="80" s:generic="body" fill="#ffffff" rx="0" class="cell_inst_1_13"/><g transform="translate(0,10)" s:x="0" s:y="10" s:pid="in0" id="port_inst_1_13~clk_bottom_in"><text x="-3" y="-4" class="inputPortLabel cell_inst_1_13">clk_bottom_in</text></g><g transform="translate(0,30)" s:x="0" s:y="10" s:pid="in0" id="port_inst_1_13~clk_left_in"><text x="-3" y="-4" class="inputPortLabel cell_inst_1_13">clk_left_in</text></g><g transform="translate(0,50)" s:x="0" s:y="10" s:pid="in0" id="port_inst_1_13~clk_right_in"><text x="-3" y="-4" class="inputPortLabel cell_inst_1_13">clk_right_in</text></g><g transform="translate(0,70)" s:x="0" s:y="10" s:pid="in0" id="port_inst_1_13~in0"><text x="-3" y="-4" class="inputPortLabel cell_inst_1_13">in0</text></g><g transform="translate(30,10)" s:x="30" s:y="10" s:pid="out0" id="port_inst_1_13~clk_left_out"><text x="5" y="-4" style="fill:#000; stroke:none" class="cell_inst_1_13">clk_left_out</text></g><g transform="translate(30,30)" s:x="30" s:y="10" s:pid="out0" id="port_inst_1_13~clk_right_out"><text x="5" y="-4" style="fill:#000; stroke:none" class="cell_inst_1_13">clk_right_out</text></g><g transform="translate(30,50)" s:x="30" s:y="10" s:pid="out0" id="port_inst_1_13~clk_top_out"><text x="5" y="-4" style="fill:#000; stroke:none" class="cell_inst_1_13">clk_top_out</text></g><g transform="translate(30,70)" s:x="30" s:y="10" s:pid="out0" id="port_inst_1_13~out0"><text x="5" y="-4" style="fill:#000; stroke:none" class="cell_inst_1_13">out0</text></g></g><g s:type="generic" transform="translate(489,507.5)" s:width="30" s:height="40" id="cell_inst_1_14"><text x="15" y="-4" class="nodelabel cell_inst_1_14" s:attribute="ref">inst_1_14</text><rect width="30" height="80" s:generic="body" fill="#ffffff" rx="0" class="cell_inst_1_14"/><g transform="translate(0,10)" s:x="0" s:y="10" s:pid="in0" id="port_inst_1_14~clk_bottom_in"><text x="-3" y="-4" class="inputPortLabel cell_inst_1_14">clk_bottom_in</text></g><g transform="translate(0,30)" s:x="0" s:y="10" s:pid="in0" id="port_inst_1_14~clk_left_in"><text x="-3" y="-4" class="inputPortLabel cell_inst_1_14">clk_left_in</text></g><g transform="translate(0,50)" s:x="0" s:y="10" s:pid="in0" id="port_inst_1_14~clk_right_in"><text x="-3" y="-4" class="inputPortLabel cell_inst_1_14">clk_right_in</text></g><g transform="translate(0,70)" s:x="0" s:y="10" s:pid="in0" id="port_inst_1_14~in0"><text x="-3" y="-4" class="inputPortLabel cell_inst_1_14">in0</text></g><g transform="translate(30,10)" s:x="30" s:y="10" s:pid="out0" id="port_inst_1_14~clk_left_out"><text x="5" y="-4" style="fill:#000; stroke:none" class="cell_inst_1_14">clk_left_out</text></g><g transform="translate(30,30)" s:x="30" s:y="10" s:pid="out0" id="port_inst_1_14~clk_right_out"><text x="5" y="-4" style="fill:#000; stroke:none" class="cell_inst_1_14">clk_right_out</text></g><g transform="translate(30,50)" s:x="30" s:y="10" s:pid="out0" id="port_inst_1_14~clk_top_out"><text x="5" y="-4" style="fill:#000; stroke:none" class="cell_inst_1_14">clk_top_out</text></g><g transform="translate(30,70)" s:x="30" s:y="10" s:pid="out0" id="port_inst_1_14~out0"><text x="5" y="-4" style="fill:#000; stroke:none" class="cell_inst_1_14">out0</text></g></g><g s:type="generic" transform="translate(265,123.5)" s:width="30" s:height="40" id="cell_inst_1_21"><text x="15" y="-4" class="nodelabel cell_inst_1_21" s:attribute="ref">inst_1_21</text><rect width="30" height="80" s:generic="body" fill="#ffffff" rx="0" class="cell_inst_1_21"/><g transform="translate(0,10)" s:x="0" s:y="10" s:pid="in0" id="port_inst_1_21~clk_bottom_in"><text x="-3" y="-4" class="inputPortLabel cell_inst_1_21">clk_bottom_in</text></g><g transform="translate(0,30)" s:x="0" s:y="10" s:pid="in0" id="port_inst_1_21~clk_left_in"><text x="-3" y="-4" class="inputPortLabel cell_inst_1_21">clk_left_in</text></g><g transform="translate(0,50)" s:x="0" s:y="10" s:pid="in0" id="port_inst_1_21~clk_right_in"><text x="-3" y="-4" class="inputPortLabel cell_inst_1_21">clk_right_in</text></g><g transform="translate(0,70)" s:x="0" s:y="10" s:pid="in0" id="port_inst_1_21~in0"><text x="-3" y="-4" class="inputPortLabel cell_inst_1_21">in0</text></g><g transform="translate(30,10)" s:x="30" s:y="10" s:pid="out0" id="port_inst_1_21~clk_left_out"><text x="5" y="-4" style="fill:#000; stroke:none" class="cell_inst_1_21">clk_left_out</text></g><g transform="translate(30,30)" s:x="30" s:y="10" s:pid="out0" id="port_inst_1_21~clk_right_out"><text x="5" y="-4" style="fill:#000; stroke:none" class="cell_inst_1_21">clk_right_out</text></g><g transform="translate(30,50)" s:x="30" s:y="10" s:pid="out0" id="port_inst_1_21~clk_top_out"><text x="5" y="-4" style="fill:#000; stroke:none" class="cell_inst_1_21">clk_top_out</text></g><g transform="translate(30,70)" s:x="30" s:y="10" s:pid="out0" id="port_inst_1_21~out0"><text x="5" y="-4" style="fill:#000; stroke:none" class="cell_inst_1_21">out0</text></g></g><g s:type="generic" transform="translate(489,251.5)" s:width="30" s:height="40" id="cell_inst_1_22"><text x="15" y="-4" class="nodelabel cell_inst_1_22" s:attribute="ref">inst_1_22</text><rect width="30" height="80" s:generic="body" fill="#ffffff" rx="0" class="cell_inst_1_22"/><g transform="translate(0,10)" s:x="0" s:y="10" s:pid="in0" id="port_inst_1_22~clk_bottom_in"><text x="-3" y="-4" class="inputPortLabel cell_inst_1_22">clk_bottom_in</text></g><g transform="translate(0,30)" s:x="0" s:y="10" s:pid="in0" id="port_inst_1_22~clk_left_in"><text x="-3" y="-4" class="inputPortLabel cell_inst_1_22">clk_left_in</text></g><g transform="translate(0,50)" s:x="0" s:y="10" s:pid="in0" id="port_inst_1_22~clk_right_in"><text x="-3" y="-4" class="inputPortLabel cell_inst_1_22">clk_right_in</text></g><g transform="translate(0,70)" s:x="0" s:y="10" s:pid="in0" id="port_inst_1_22~in0"><text x="-3" y="-4" class="inputPortLabel cell_inst_1_22">in0</text></g><g transform="translate(30,10)" s:x="30" s:y="10" s:pid="out0" id="port_inst_1_22~clk_left_out"><text x="5" y="-4" style="fill:#000; stroke:none" class="cell_inst_1_22">clk_left_out</text></g><g transform="translate(30,30)" s:x="30" s:y="10" s:pid="out0" id="port_inst_1_22~clk_right_out"><text x="5" y="-4" style="fill:#000; stroke:none" class="cell_inst_1_22">clk_right_out</text></g><g transform="translate(30,50)" s:x="30" s:y="10" s:pid="out0" id="port_inst_1_22~clk_top_out"><text x="5" y="-4" style="fill:#000; stroke:none" class="cell_inst_1_22">clk_top_out</text></g><g transform="translate(30,70)" s:x="30" s:y="10" s:pid="out0" id="port_inst_1_22~out0"><text x="5" y="-4" style="fill:#000; stroke:none" class="cell_inst_1_22">out0</text></g></g><g s:type="generic" transform="translate(713,379.5)" s:width="30" s:height="40" id="cell_inst_1_23"><text x="15" y="-4" class="nodelabel cell_inst_1_23" s:attribute="ref">inst_1_23</text><rect width="30" height="80" s:generic="body" fill="#ffffff" rx="0" class="cell_inst_1_23"/><g transform="translate(0,10)" s:x="0" s:y="10" s:pid="in0" id="port_inst_1_23~clk_bottom_in"><text x="-3" y="-4" class="inputPortLabel cell_inst_1_23">clk_bottom_in</text></g><g transform="translate(0,30)" s:x="0" s:y="10" s:pid="in0" id="port_inst_1_23~clk_left_in"><text x="-3" y="-4" class="inputPortLabel cell_inst_1_23">clk_left_in</text></g><g transform="translate(0,50)" s:x="0" s:y="10" s:pid="in0" id="port_inst_1_23~clk_right_in"><text x="-3" y="-4" class="inputPortLabel cell_inst_1_23">clk_right_in</text></g><g transform="translate(0,70)" s:x="0" s:y="10" s:pid="in0" id="port_inst_1_23~in0"><text x="-3" y="-4" class="inputPortLabel cell_inst_1_23">in0</text></g><g transform="translate(30,10)" s:x="30" s:y="10" s:pid="out0" id="port_inst_1_23~clk_left_out"><text x="5" y="-4" style="fill:#000; stroke:none" class="cell_inst_1_23">clk_left_out</text></g><g transform="translate(30,30)" s:x="30" s:y="10" s:pid="out0" id="port_inst_1_23~clk_right_out"><text x="5" y="-4" style="fill:#000; stroke:none" class="cell_inst_1_23">clk_right_out</text></g><g transform="translate(30,50)" s:x="30" s:y="10" s:pid="out0" id="port_inst_1_23~clk_top_out"><text x="5" y="-4" style="fill:#000; stroke:none" class="cell_inst_1_23">clk_top_out</text></g><g transform="translate(30,70)" s:x="30" s:y="10" s:pid="out0" id="port_inst_1_23~out0"><text x="5" y="-4" style="fill:#000; stroke:none" class="cell_inst_1_23">out0</text></g></g><g s:type="generic" transform="translate(713,507.5)" s:width="30" s:height="40" id="cell_inst_1_24"><text x="15" y="-4" class="nodelabel cell_inst_1_24" s:attribute="ref">inst_1_24</text><rect width="30" height="80" s:generic="body" fill="#ffffff" rx="0" class="cell_inst_1_24"/><g transform="translate(0,10)" s:x="0" s:y="10" s:pid="in0" id="port_inst_1_24~clk_bottom_in"><text x="-3" y="-4" class="inputPortLabel cell_inst_1_24">clk_bottom_in</text></g><g transform="translate(0,30)" s:x="0" s:y="10" s:pid="in0" id="port_inst_1_24~clk_left_in"><text x="-3" y="-4" class="inputPortLabel cell_inst_1_24">clk_left_in</text></g><g transform="translate(0,50)" s:x="0" s:y="10" s:pid="in0" id="port_inst_1_24~clk_right_in"><text x="-3" y="-4" class="inputPortLabel cell_inst_1_24">clk_right_in</text></g><g transform="translate(0,70)" s:x="0" s:y="10" s:pid="in0" id="port_inst_1_24~in0"><text x="-3" y="-4" class="inputPortLabel cell_inst_1_24">in0</text></g><g transform="translate(30,10)" s:x="30" s:y="10" s:pid="out0" id="port_inst_1_24~clk_left_out"><text x="5" y="-4" style="fill:#000; stroke:none" class="cell_inst_1_24">clk_left_out</text></g><g transform="translate(30,30)" s:x="30" s:y="10" s:pid="out0" id="port_inst_1_24~clk_right_out"><text x="5" y="-4" style="fill:#000; stroke:none" class="cell_inst_1_24">clk_right_out</text></g><g transform="translate(30,50)" s:x="30" s:y="10" s:pid="out0" id="port_inst_1_24~clk_top_out"><text x="5" y="-4" style="fill:#000; stroke:none" class="cell_inst_1_24">clk_top_out</text></g><g transform="translate(30,70)" s:x="30" s:y="10" s:pid="out0" id="port_inst_1_24~out0"><text x="5" y="-4" style="fill:#000; stroke:none" class="cell_inst_1_24">out0</text></g></g><g s:type="generic" transform="translate(937,123.5)" s:width="30" s:height="40" id="cell_inst_1_31"><text x="15" y="-4" class="nodelabel cell_inst_1_31" s:attribute="ref">inst_1_31</text><rect width="30" height="80" s:generic="body" fill="#ffffff" rx="0" class="cell_inst_1_31"/><g transform="translate(0,10)" s:x="0" s:y="10" s:pid="in0" id="port_inst_1_31~clk_bottom_in"><text x="-3" y="-4" class="inputPortLabel cell_inst_1_31">clk_bottom_in</text></g><g transform="translate(0,30)" s:x="0" s:y="10" s:pid="in0" id="port_inst_1_31~clk_left_in"><text x="-3" y="-4" class="inputPortLabel cell_inst_1_31">clk_left_in</text></g><g transform="translate(0,50)" s:x="0" s:y="10" s:pid="in0" id="port_inst_1_31~clk_right_in"><text x="-3" y="-4" class="inputPortLabel cell_inst_1_31">clk_right_in</text></g><g transform="translate(0,70)" s:x="0" s:y="10" s:pid="in0" id="port_inst_1_31~in0"><text x="-3" y="-4" class="inputPortLabel cell_inst_1_31">in0</text></g><g transform="translate(30,10)" s:x="30" s:y="10" s:pid="out0" id="port_inst_1_31~clk_left_out"><text x="5" y="-4" style="fill:#000; stroke:none" class="cell_inst_1_31">clk_left_out</text></g><g transform="translate(30,30)" s:x="30" s:y="10" s:pid="out0" id="port_inst_1_31~clk_right_out"><text x="5" y="-4" style="fill:#000; stroke:none" class="cell_inst_1_31">clk_right_out</text></g><g transform="translate(30,50)" s:x="30" s:y="10" s:pid="out0" id="port_inst_1_31~clk_top_out"><text x="5" y="-4" style="fill:#000; stroke:none" class="cell_inst_1_31">clk_top_out</text></g><g transform="translate(30,70)" s:x="30" s:y="10" s:pid="out0" id="port_inst_1_31~out0"><text x="5" y="-4" style="fill:#000; stroke:none" class="cell_inst_1_31">out0</text></g></g><g s:type="generic" transform="translate(937,251.5)" s:width="30" s:height="40" id="cell_inst_1_32"><text x="15" y="-4" class="nodelabel cell_inst_1_32" s:attribute="ref">inst_1_32</text><rect width="30" height="80" s:generic="body" fill="#ffffff" rx="0" class="cell_inst_1_32"/><g transform="translate(0,10)" s:x="0" s:y="10" s:pid="in0" id="port_inst_1_32~clk_bottom_in"><text x="-3" y="-4" class="inputPortLabel cell_inst_1_32">clk_bottom_in</text></g><g transform="translate(0,30)" s:x="0" s:y="10" s:pid="in0" id="port_inst_1_32~clk_left_in"><text x="-3" y="-4" class="inputPortLabel cell_inst_1_32">clk_left_in</text></g><g transform="translate(0,50)" s:x="0" s:y="10" s:pid="in0" id="port_inst_1_32~clk_right_in"><text x="-3" y="-4" class="inputPortLabel cell_inst_1_32">clk_right_in</text></g><g transform="translate(0,70)" s:x="0" s:y="10" s:pid="in0" id="port_inst_1_32~in0"><text x="-3" y="-4" class="inputPortLabel cell_inst_1_32">in0</text></g><g transform="translate(30,10)" s:x="30" s:y="10" s:pid="out0" id="port_inst_1_32~clk_left_out"><text x="5" y="-4" style="fill:#000; stroke:none" class="cell_inst_1_32">clk_left_out</text></g><g transform="translate(30,30)" s:x="30" s:y="10" s:pid="out0" id="port_inst_1_32~clk_right_out"><text x="5" y="-4" style="fill:#000; stroke:none" class="cell_inst_1_32">clk_right_out</text></g><g transform="translate(30,50)" s:x="30" s:y="10" s:pid="out0" id="port_inst_1_32~clk_top_out"><text x="5" y="-4" style="fill:#000; stroke:none" class="cell_inst_1_32">clk_top_out</text></g><g transform="translate(30,70)" s:x="30" s:y="10" s:pid="out0" id="port_inst_1_32~out0"><text x="5" y="-4" style="fill:#000; stroke:none" class="cell_inst_1_32">out0</text></g></g><g s:type="generic" transform="translate(937,379.5)" s:width="30" s:height="40" id="cell_inst_1_33"><text x="15" y="-4" class="nodelabel cell_inst_1_33" s:attribute="ref">inst_1_33</text><rect width="30" height="80" s:generic="body" fill="#ffffff" rx="0" class="cell_inst_1_33"/><g transform="translate(0,10)" s:x="0" s:y="10" s:pid="in0" id="port_inst_1_33~clk_bottom_in"><text x="-3" y="-4" class="inputPortLabel cell_inst_1_33">clk_bottom_in</text></g><g transform="translate(0,30)" s:x="0" s:y="10" s:pid="in0" id="port_inst_1_33~clk_left_in"><text x="-3" y="-4" class="inputPortLabel cell_inst_1_33">clk_left_in</text></g><g transform="translate(0,50)" s:x="0" s:y="10" s:pid="in0" id="port_inst_1_33~clk_right_in"><text x="-3" y="-4" class="inputPortLabel cell_inst_1_33">clk_right_in</text></g><g transform="translate(0,70)" s:x="0" s:y="10" s:pid="in0" id="port_inst_1_33~in0"><text x="-3" y="-4" class="inputPortLabel cell_inst_1_33">in0</text></g><g transform="translate(30,10)" s:x="30" s:y="10" s:pid="out0" id="port_inst_1_33~clk_left_out"><text x="5" y="-4" style="fill:#000; stroke:none" class="cell_inst_1_33">clk_left_out</text></g><g transform="translate(30,30)" s:x="30" s:y="10" s:pid="out0" id="port_inst_1_33~clk_right_out"><text x="5" y="-4" style="fill:#000; stroke:none" class="cell_inst_1_33">clk_right_out</text></g><g transform="translate(30,50)" s:x="30" s:y="10" s:pid="out0" id="port_inst_1_33~clk_top_out"><text x="5" y="-4" style="fill:#000; stroke:none" class="cell_inst_1_33">clk_top_out</text></g><g transform="translate(30,70)" s:x="30" s:y="10" s:pid="out0" id="port_inst_1_33~out0"><text x="5" y="-4" style="fill:#000; stroke:none" class="cell_inst_1_33">out0</text></g></g><g s:type="generic" transform="translate(937,507.5)" s:width="30" s:height="40" id="cell_inst_1_34"><text x="15" y="-4" class="nodelabel cell_inst_1_34" s:attribute="ref">inst_1_34</text><rect width="30" height="80" s:generic="body" fill="#ffffff" rx="0" class="cell_inst_1_34"/><g transform="translate(0,10)" s:x="0" s:y="10" s:pid="in0" id="port_inst_1_34~clk_bottom_in"><text x="-3" y="-4" class="inputPortLabel cell_inst_1_34">clk_bottom_in</text></g><g transform="translate(0,30)" s:x="0" s:y="10" s:pid="in0" id="port_inst_1_34~clk_left_in"><text x="-3" y="-4" class="inputPortLabel cell_inst_1_34">clk_left_in</text></g><g transform="translate(0,50)" s:x="0" s:y="10" s:pid="in0" id="port_inst_1_34~clk_right_in"><text x="-3" y="-4" class="inputPortLabel cell_inst_1_34">clk_right_in</text></g><g transform="translate(0,70)" s:x="0" s:y="10" s:pid="in0" id="port_inst_1_34~in0"><text x="-3" y="-4" class="inputPortLabel cell_inst_1_34">in0</text></g><g transform="translate(30,10)" s:x="30" s:y="10" s:pid="out0" id="port_inst_1_34~clk_left_out"><text x="5" y="-4" style="fill:#000; stroke:none" class="cell_inst_1_34">clk_left_out</text></g><g transform="translate(30,30)" s:x="30" s:y="10" s:pid="out0" id="port_inst_1_34~clk_right_out"><text x="5" y="-4" style="fill:#000; stroke:none" class="cell_inst_1_34">clk_right_out</text></g><g transform="translate(30,50)" s:x="30" s:y="10" s:pid="out0" id="port_inst_1_34~clk_top_out"><text x="5" y="-4" style="fill:#000; stroke:none" class="cell_inst_1_34">clk_top_out</text></g><g transform="translate(30,70)" s:x="30" s:y="10" s:pid="out0" id="port_inst_1_34~out0"><text x="5" y="-4" style="fill:#000; stroke:none" class="cell_inst_1_34">out0</text></g></g><g s:type="generic" transform="translate(1161,123.5)" s:width="30" s:height="40" id="cell_inst_1_41"><text x="15" y="-4" class="nodelabel cell_inst_1_41" s:attribute="ref">inst_1_41</text><rect width="30" height="80" s:generic="body" fill="#ffffff" rx="0" class="cell_inst_1_41"/><g transform="translate(0,10)" s:x="0" s:y="10" s:pid="in0" id="port_inst_1_41~clk_bottom_in"><text x="-3" y="-4" class="inputPortLabel cell_inst_1_41">clk_bottom_in</text></g><g transform="translate(0,30)" s:x="0" s:y="10" s:pid="in0" id="port_inst_1_41~clk_left_in"><text x="-3" y="-4" class="inputPortLabel cell_inst_1_41">clk_left_in</text></g><g transform="translate(0,50)" s:x="0" s:y="10" s:pid="in0" id="port_inst_1_41~clk_right_in"><text x="-3" y="-4" class="inputPortLabel cell_inst_1_41">clk_right_in</text></g><g transform="translate(0,70)" s:x="0" s:y="10" s:pid="in0" id="port_inst_1_41~in0"><text x="-3" y="-4" class="inputPortLabel cell_inst_1_41">in0</text></g><g transform="translate(30,10)" s:x="30" s:y="10" s:pid="out0" id="port_inst_1_41~clk_left_out"><text x="5" y="-4" style="fill:#000; stroke:none" class="cell_inst_1_41">clk_left_out</text></g><g transform="translate(30,30)" s:x="30" s:y="10" s:pid="out0" id="port_inst_1_41~clk_right_out"><text x="5" y="-4" style="fill:#000; stroke:none" class="cell_inst_1_41">clk_right_out</text></g><g transform="translate(30,50)" s:x="30" s:y="10" s:pid="out0" id="port_inst_1_41~clk_top_out"><text x="5" y="-4" style="fill:#000; stroke:none" class="cell_inst_1_41">clk_top_out</text></g><g transform="translate(30,70)" s:x="30" s:y="10" s:pid="out0" id="port_inst_1_41~out0"><text x="5" y="-4" style="fill:#000; stroke:none" class="cell_inst_1_41">out0</text></g></g><g s:type="generic" transform="translate(1161,251.5)" s:width="30" s:height="40" id="cell_inst_1_42"><text x="15" y="-4" class="nodelabel cell_inst_1_42" s:attribute="ref">inst_1_42</text><rect width="30" height="80" s:generic="body" fill="#ffffff" rx="0" class="cell_inst_1_42"/><g transform="translate(0,10)" s:x="0" s:y="10" s:pid="in0" id="port_inst_1_42~clk_bottom_in"><text x="-3" y="-4" class="inputPortLabel cell_inst_1_42">clk_bottom_in</text></g><g transform="translate(0,30)" s:x="0" s:y="10" s:pid="in0" id="port_inst_1_42~clk_left_in"><text x="-3" y="-4" class="inputPortLabel cell_inst_1_42">clk_left_in</text></g><g transform="translate(0,50)" s:x="0" s:y="10" s:pid="in0" id="port_inst_1_42~clk_right_in"><text x="-3" y="-4" class="inputPortLabel cell_inst_1_42">clk_right_in</text></g><g transform="translate(0,70)" s:x="0" s:y="10" s:pid="in0" id="port_inst_1_42~in0"><text x="-3" y="-4" class="inputPortLabel cell_inst_1_42">in0</text></g><g transform="translate(30,10)" s:x="30" s:y="10" s:pid="out0" id="port_inst_1_42~clk_left_out"><text x="5" y="-4" style="fill:#000; stroke:none" class="cell_inst_1_42">clk_left_out</text></g><g transform="translate(30,30)" s:x="30" s:y="10" s:pid="out0" id="port_inst_1_42~clk_right_out"><text x="5" y="-4" style="fill:#000; stroke:none" class="cell_inst_1_42">clk_right_out</text></g><g transform="translate(30,50)" s:x="30" s:y="10" s:pid="out0" id="port_inst_1_42~clk_top_out"><text x="5" y="-4" style="fill:#000; stroke:none" class="cell_inst_1_42">clk_top_out</text></g><g transform="translate(30,70)" s:x="30" s:y="10" s:pid="out0" id="port_inst_1_42~out0"><text x="5" y="-4" style="fill:#000; stroke:none" class="cell_inst_1_42">out0</text></g></g><g s:type="generic" transform="translate(1161,379.5)" s:width="30" s:height="40" id="cell_inst_1_43"><text x="15" y="-4" class="nodelabel cell_inst_1_43" s:attribute="ref">inst_1_43</text><rect width="30" height="80" s:generic="body" fill="#ffffff" rx="0" class="cell_inst_1_43"/><g transform="translate(0,10)" s:x="0" s:y="10" s:pid="in0" id="port_inst_1_43~clk_bottom_in"><text x="-3" y="-4" class="inputPortLabel cell_inst_1_43">clk_bottom_in</text></g><g transform="translate(0,30)" s:x="0" s:y="10" s:pid="in0" id="port_inst_1_43~clk_left_in"><text x="-3" y="-4" class="inputPortLabel cell_inst_1_43">clk_left_in</text></g><g transform="translate(0,50)" s:x="0" s:y="10" s:pid="in0" id="port_inst_1_43~clk_right_in"><text x="-3" y="-4" class="inputPortLabel cell_inst_1_43">clk_right_in</text></g><g transform="translate(0,70)" s:x="0" s:y="10" s:pid="in0" id="port_inst_1_43~in0"><text x="-3" y="-4" class="inputPortLabel cell_inst_1_43">in0</text></g><g transform="translate(30,10)" s:x="30" s:y="10" s:pid="out0" id="port_inst_1_43~clk_left_out"><text x="5" y="-4" style="fill:#000; stroke:none" class="cell_inst_1_43">clk_left_out</text></g><g transform="translate(30,30)" s:x="30" s:y="10" s:pid="out0" id="port_inst_1_43~clk_right_out"><text x="5" y="-4" style="fill:#000; stroke:none" class="cell_inst_1_43">clk_right_out</text></g><g transform="translate(30,50)" s:x="30" s:y="10" s:pid="out0" id="port_inst_1_43~clk_top_out"><text x="5" y="-4" style="fill:#000; stroke:none" class="cell_inst_1_43">clk_top_out</text></g><g transform="translate(30,70)" s:x="30" s:y="10" s:pid="out0" id="port_inst_1_43~out0"><text x="5" y="-4" style="fill:#000; stroke:none" class="cell_inst_1_43">out0</text></g></g><g s:type="generic" transform="translate(1161,507.5)" s:width="30" s:height="40" id="cell_inst_1_44"><text x="15" y="-4" class="nodelabel cell_inst_1_44" s:attribute="ref">inst_1_44</text><rect width="30" height="80" s:generic="body" fill="#ffffff" rx="0" class="cell_inst_1_44"/><g transform="translate(0,10)" s:x="0" s:y="10" s:pid="in0" id="port_inst_1_44~clk_bottom_in"><text x="-3" y="-4" class="inputPortLabel cell_inst_1_44">clk_bottom_in</text></g><g transform="translate(0,30)" s:x="0" s:y="10" s:pid="in0" id="port_inst_1_44~clk_left_in"><text x="-3" y="-4" class="inputPortLabel cell_inst_1_44">clk_left_in</text></g><g transform="translate(0,50)" s:x="0" s:y="10" s:pid="in0" id="port_inst_1_44~clk_right_in"><text x="-3" y="-4" class="inputPortLabel cell_inst_1_44">clk_right_in</text></g><g transform="translate(0,70)" s:x="0" s:y="10" s:pid="in0" id="port_inst_1_44~in0"><text x="-3" y="-4" class="inputPortLabel cell_inst_1_44">in0</text></g><g transform="translate(30,10)" s:x="30" s:y="10" s:pid="out0" id="port_inst_1_44~clk_left_out"><text x="5" y="-4" style="fill:#000; stroke:none" class="cell_inst_1_44">clk_left_out</text></g><g transform="translate(30,30)" s:x="30" s:y="10" s:pid="out0" id="port_inst_1_44~clk_right_out"><text x="5" y="-4" style="fill:#000; stroke:none" class="cell_inst_1_44">clk_right_out</text></g><g transform="translate(30,50)" s:x="30" s:y="10" s:pid="out0" id="port_inst_1_44~clk_top_out"><text x="5" y="-4" style="fill:#000; stroke:none" class="cell_inst_1_44">clk_top_out</text></g><g transform="translate(30,70)" s:x="30" s:y="10" s:pid="out0" id="port_inst_1_44~out0"><text x="5" y="-4" style="fill:#000; stroke:none" class="cell_inst_1_44">out0</text></g></g><g s:type="inputExt" transform="translate(12,538)" s:width="30" s:height="20" id="cell_in"><text x="15" y="-4" class="nodelabel cell_in" s:attribute="ref">in</text><s:alias val="$_inputExt_"/><path d="M0,0 L0,20 L15,20 L30,10 L15,0 Z" fill="#ffffff" class="cell_in"/><g s:x="30" s:y="10" s:pid="Y"/></g><g s:type="outputExt" transform="translate(1473,430)" s:width="30" s:height="20" id="cell_out"><text x="15" y="-4" class="nodelabel cell_out" s:attribute="ref">out</text><s:alias val="$_outputExt_"/><path d="M30,0 L30,20 L15,20 L0,10 L15,0 Z" fill="#ffffff" class="cell_out"/><g s:x="0" s:y="10" s:pid="A"/></g><g s:type="inputExt" transform="translate(116,124)" s:width="30" s:height="20" id="cell_clk"><text x="15" y="-4" class="nodelabel cell_clk" s:attribute="ref">clk</text><s:alias val="$_inputExt_"/><path d="M0,0 L0,20 L15,20 L30,10 L15,0 Z" fill="#ffffff" class="cell_clk"/><g s:x="30" s:y="10" s:pid="Y"/></g><g s:type="join" transform="translate(1314,399.5)" s:width="5" s:height="40" id="cell_$join$,6,7,8,9,"><rect width="5" height="80" class="splitjoinBody" s:generic="body"/><s:alias val="$_join_"/><g s:x="5" s:y="20" s:pid="out"/><g transform="translate(-1,10)" s:x="-1" s:y="10" s:pid="in0"><text x="-3" y="-4" class="inputPortLabel">0</text></g><g transform="translate(-1,30)" s:x="-1" s:y="10" s:pid="in0"><text x="-3" y="-4" class="inputPortLabel">1</text></g><g transform="translate(-1,50)" s:x="-1" s:y="10" s:pid="in0"><text x="-3" y="-4" class="inputPortLabel">2</text></g><g transform="translate(-1,70)" s:x="-1" s:y="10" s:pid="in0"><text x="-3" y="-4" class="inputPortLabel">3</text></g></g><g s:type="split" transform="translate(131.2,507.5)" s:width="5" s:height="40" id="cell_$split$,2,3,4,5,"><rect width="5" height="80" class="splitjoinBody" s:generic="body"/><s:alias val="$_split_"/><g s:x="-1" s:y="20" s:pid="in"/><g transform="translate(5,10)" s:x="5" s:y="10" s:pid="out0"><text x="5" y="-4">0</text></g><g transform="translate(5,30)" s:x="5" s:y="10" s:pid="out0"><text x="5" y="-4">1</text></g><g transform="translate(5,50)" s:x="5" s:y="10" s:pid="out0"><text x="5" y="-4">2</text></g><g transform="translate(5,70)" s:x="5" s:y="10" s:pid="out0"><text x="5" y="-4">3</text></g></g><line x1="296" x2="385" y1="134" y2="134" class="net_14 width_1" style="stroke-width: 1"/><line x1="385" x2="385" y1="134" y2="91.5" class="net_14 width_1" style="stroke-width: 1"/><line x1="385" x2="1369" y1="91.5" y2="91.5" class="net_14 width_1" style="stroke-width: 1"/><line x1="1369" x2="1369" y1="91.5" y2="82.5" class="net_14 width_1" style="stroke-width: 1"/><line x1="1369" x2="1472" y1="82.5" y2="82.5" class="net_14 width_1" style="stroke-width: 1"/><line x1="137.2" x2="156" y1="518" y2="518" class="net_2 width_1" style="stroke-width: 1"/><line x1="156" x2="156" y1="518" y2="102.5" class="net_2 width_1" style="stroke-width: 1"/><line x1="156" x2="1472" y1="102.5" y2="102.5" class="net_2 width_1" style="stroke-width: 1"/><line x1="137.2" x2="166" y1="538" y2="538" class="net_3 width_1" style="stroke-width: 1"/><line x1="166" x2="166" y1="538" y2="322" class="net_3 width_1" style="stroke-width: 1"/><line x1="166" x2="264" y1="322" y2="322" class="net_3 width_1" style="stroke-width: 1"/><line x1="744" x2="833" y1="390" y2="390" class="net_28 width_1" style="stroke-width: 1"/><line x1="833" x2="833" y1="390" y2="359.5" class="net_28 width_1" style="stroke-width: 1"/><line x1="833" x2="385" y1="359.5" y2="359.5" class="net_28 width_1" style="stroke-width: 1"/><line x1="385" x2="385" y1="359.5" y2="430" class="net_28 width_1" style="stroke-width: 1"/><line x1="385" x2="488" y1="430" y2="430" class="net_28 width_1" style="stroke-width: 1"/><line x1="137.2" x2="176" y1="558" y2="558" class="net_4 width_1" style="stroke-width: 1"/><line x1="176" x2="176" y1="558" y2="450" class="net_4 width_1" style="stroke-width: 1"/><line x1="176" x2="488" y1="450" y2="450" class="net_4 width_1" style="stroke-width: 1"/><line x1="137.2" x2="488" y1="578" y2="578" class="net_5 width_1" style="stroke-width: 1"/><line x1="146" x2="265" y1="134" y2="134" class="net_10 width_1" style="stroke-width: 1"/><line x1="1504" x2="1593" y1="102.5" y2="102.5" class="net_17 width_1" style="stroke-width: 1"/><line x1="1593" x2="1593" y1="102.5" y2="12" class="net_17 width_1" style="stroke-width: 1"/><line x1="1593" x2="176" y1="12" y2="12" class="net_17 width_1" style="stroke-width: 1"/><line x1="176" x2="176" y1="12" y2="194" class="net_17 width_1" style="stroke-width: 1"/><line x1="176" x2="264" y1="194" y2="194" class="net_17 width_1" style="stroke-width: 1"/><line x1="296" x2="385" y1="174" y2="174" class="net_42 width_1" style="stroke-width: 1"/><line x1="385" x2="385" y1="174" y2="262" class="net_42 width_1" style="stroke-width: 1"/><line x1="385" x2="489" y1="262" y2="262" class="net_42 width_1" style="stroke-width: 1"/><line x1="296" x2="488" y1="322" y2="322" class="net_24 width_1" style="stroke-width: 1"/><line x1="520" x2="609" y1="302" y2="302" class="net_48 width_1" style="stroke-width: 1"/><line x1="609" x2="609" y1="302" y2="390" class="net_48 width_1" style="stroke-width: 1"/><line x1="609" x2="713" y1="390" y2="390" class="net_48 width_1" style="stroke-width: 1"/><line x1="520" x2="712" y1="450" y2="450" class="net_31 width_1" style="stroke-width: 1"/><line x1="520" x2="712" y1="578" y2="578" class="net_38 width_1" style="stroke-width: 1"/><line x1="296" x2="936" y1="154" y2="154" class="net_41 width_1" style="stroke-width: 1"/><line x1="296" x2="936" y1="194" y2="194" class="net_43 width_1" style="stroke-width: 1"/><line x1="520" x2="936" y1="322" y2="322" class="net_49 width_1" style="stroke-width: 1"/><line x1="744" x2="936" y1="410" y2="410" class="net_52 width_1" style="stroke-width: 1"/><line x1="744" x2="936" y1="450" y2="450" class="net_54 width_1" style="stroke-width: 1"/><line x1="744" x2="936" y1="578" y2="578" class="net_61 width_1" style="stroke-width: 1"/><line x1="968" x2="1160" y1="154" y2="154" class="net_65 width_1" style="stroke-width: 1"/><line x1="968" x2="1160" y1="194" y2="194" class="net_67 width_1" style="stroke-width: 1"/><line x1="968" x2="1160" y1="322" y2="322" class="net_74 width_1" style="stroke-width: 1"/><line x1="968" x2="1160" y1="410" y2="410" class="net_78 width_1" style="stroke-width: 1"/><line x1="968" x2="1160" y1="450" y2="450" class="net_80 width_1" style="stroke-width: 1"/><line x1="968" x2="1160" y1="578" y2="578" class="net_87 width_1" style="stroke-width: 1"/><line x1="1320" x2="1473" y1="440" y2="440" class="net_6,7,8,9 width_4" style="stroke-width: 2"/><line x1="1192" x2="1291" y1="194" y2="194" class="net_6 width_1" style="stroke-width: 1"/><line x1="1291" x2="1291" y1="194" y2="410" class="net_6 width_1" style="stroke-width: 1"/><line x1="1291" x2="1313" y1="410" y2="410" class="net_6 width_1" style="stroke-width: 1"/><line x1="1192" x2="1281" y1="322" y2="322" class="net_7 width_1" style="stroke-width: 1"/><line x1="1281" x2="1281" y1="322" y2="430" class="net_7 width_1" style="stroke-width: 1"/><line x1="1281" x2="1313" y1="430" y2="430" class="net_7 width_1" style="stroke-width: 1"/><line x1="1192" x2="1313" y1="450" y2="450" class="net_8 width_1" style="stroke-width: 1"/><line x1="1192" x2="1281" y1="578" y2="578" class="net_9 width_1" style="stroke-width: 1"/><line x1="1281" x2="1281" y1="578" y2="470" class="net_9 width_1" style="stroke-width: 1"/><line x1="1281" x2="1313" y1="470" y2="470" class="net_9 width_1" style="stroke-width: 1"/><line x1="42" x2="130.2" y1="548" y2="548" class="net_2,3,4,5 width_4" style="stroke-width: 2"/><rect x="1356" y="435" width="16" height="9" class="net_6,7,8,9 width_4 busLabel_4" style="fill: white; stroke: none"/><text x="1355" y="443" class="net_6,7,8,9 width_4 busLabel_4">/4/</text><rect x="78" y="543" width="16" height="9" class="net_2,3,4,5 width_4 busLabel_4" style="fill: white; stroke: none"/><text x="77" y="551" class="net_2,3,4,5 width_4 busLabel_4">/4/</text></svg>