<svg xmlns="http://www.w3.org/2000/svg" xmlns:xlink="http://www.w3.org/1999/xlink" xmlns:s="https://github.com/nturley/netlistsvg" width="1526" height="602.5">
  <style>svg {
    stroke:#000;
    fill:none;
  }
  text {
    fill:#000;
    stroke:none;
    font-size:10px;
    font-weight: bold;
    font-family: "Courier New", monospace;
  }
  .nodelabel {
    text-anchor: middle;
  }
  .inputPortLabel {
    text-anchor: end;
  }
  .splitjoinBody {
    fill:#000;
  }</style>
  <g s:type="generic" transform="translate(1394,32)" s:width="30" s:height="40" id="cell_inst_1_11">
    <text x="15" y="-4" class="nodelabel cell_inst_1_11" s:attribute="ref">inst_1_11</text>
    <rect width="30" height="80" s:generic="body" class="cell_inst_1_11"/>
    <g transform="translate(0,10)" s:x="0" s:y="10" s:pid="in0" id="port_inst_1_11~clk_bottom_in">
      <text x="-3" y="-4" class="inputPortLabel cell_inst_1_11">clk_bottom_in</text>
    </g>
    <g transform="translate(0,30)" s:x="0" s:y="10" s:pid="in0" id="port_inst_1_11~clk_left_in">
      <text x="-3" y="-4" class="inputPortLabel cell_inst_1_11">clk_left_in</text>
    </g>
    <g transform="translate(0,50)" s:x="0" s:y="10" s:pid="in0" id="port_inst_1_11~clk_right_in">
      <text x="-3" y="-4" class="inputPortLabel cell_inst_1_11">clk_right_in</text>
    </g>
    <g transform="translate(0,70)" s:x="0" s:y="10" s:pid="in0" id="port_inst_1_11~in0">
      <text x="-3" y="-4" class="inputPortLabel cell_inst_1_11">in0</text>
    </g>
    <g transform="translate(30,10)" s:x="30" s:y="10" s:pid="out0" id="port_inst_1_11~clk_left_out">
      <text x="5" y="-4" style="fill:#000; stroke:none" class="cell_inst_1_11">clk_left_out</text>
    </g>
    <g transform="translate(30,30)" s:x="30" s:y="10" s:pid="out0" id="port_inst_1_11~clk_right_out">
      <text x="5" y="-4" style="fill:#000; stroke:none" class="cell_inst_1_11">clk_right_out</text>
    </g>
    <g transform="translate(30,50)" s:x="30" s:y="10" s:pid="out0" id="port_inst_1_11~clk_top_out">
      <text x="5" y="-4" style="fill:#000; stroke:none" class="cell_inst_1_11">clk_top_out</text>
    </g>
    <g transform="translate(30,70)" s:x="30" s:y="10" s:pid="out0" id="port_inst_1_11~out0">
      <text x="5" y="-4" style="fill:#000; stroke:none" class="cell_inst_1_11">out0</text>
    </g>
  </g>
  <g s:type="generic" transform="translate(226,251.5)" s:width="30" s:height="40" id="cell_inst_1_12">
    <text x="15" y="-4" class="nodelabel cell_inst_1_12" s:attribute="ref">inst_1_12</text>
    <rect width="30" height="80" s:generic="body" class="cell_inst_1_12"/>
    <g transform="translate(0,10)" s:x="0" s:y="10" s:pid="in0" id="port_inst_1_12~clk_bottom_in">
      <text x="-3" y="-4" class="inputPortLabel cell_inst_1_12">clk_bottom_in</text>
    </g>
    <g transform="translate(0,30)" s:x="0" s:y="10" s:pid="in0" id="port_inst_1_12~clk_left_in">
      <text x="-3" y="-4" class="inputPortLabel cell_inst_1_12">clk_left_in</text>
    </g>
    <g transform="translate(0,50)" s:x="0" s:y="10" s:pid="in0" id="port_inst_1_12~clk_right_in">
      <text x="-3" y="-4" class="inputPortLabel cell_inst_1_12">clk_right_in</text>
    </g>
    <g transform="translate(0,70)" s:x="0" s:y="10" s:pid="in0" id="port_inst_1_12~in0">
      <text x="-3" y="-4" class="inputPortLabel cell_inst_1_12">in0</text>
    </g>
    <g transform="translate(30,10)" s:x="30" s:y="10" s:pid="out0" id="port_inst_1_12~clk_left_out">
      <text x="5" y="-4" style="fill:#000; stroke:none" class="cell_inst_1_12">clk_left_out</text>
    </g>
    <g transform="translate(30,30)" s:x="30" s:y="10" s:pid="out0" id="port_inst_1_12~clk_right_out">
      <text x="5" y="-4" style="fill:#000; stroke:none" class="cell_inst_1_12">clk_right_out</text>
    </g>
    <g transform="translate(30,50)" s:x="30" s:y="10" s:pid="out0" id="port_inst_1_12~clk_top_out">
      <text x="5" y="-4" style="fill:#000; stroke:none" class="cell_inst_1_12">clk_top_out</text>
    </g>
    <g transform="translate(30,70)" s:x="30" s:y="10" s:pid="out0" id="port_inst_1_12~out0">
      <text x="5" y="-4" style="fill:#000; stroke:none" class="cell_inst_1_12">out0</text>
    </g>
  </g>
  <g s:type="generic" transform="translate(450,379.5)" s:width="30" s:height="40" id="cell_inst_1_13">
    <text x="15" y="-4" class="nodelabel cell_inst_1_13" s:attribute="ref">inst_1_13</text>
    <rect width="30" height="80" s:generic="body" class="cell_inst_1_13"/>
    <g transform="translate(0,10)" s:x="0" s:y="10" s:pid="in0" id="port_inst_1_13~clk_bottom_in">
      <text x="-3" y="-4" class="inputPortLabel cell_inst_1_13">clk_bottom_in</text>
    </g>
    <g transform="translate(0,30)" s:x="0" s:y="10" s:pid="in0" id="port_inst_1_13~clk_left_in">
      <text x="-3" y="-4" class="inputPortLabel cell_inst_1_13">clk_left_in</text>
    </g>
    <g transform="translate(0,50)" s:x="0" s:y="10" s:pid="in0" id="port_inst_1_13~clk_right_in">
      <text x="-3" y="-4" class="inputPortLabel cell_inst_1_13">clk_right_in</text>
    </g>
    <g transform="translate(0,70)" s:x="0" s:y="10" s:pid="in0" id="port_inst_1_13~in0">
      <text x="-3" y="-4" class="inputPortLabel cell_inst_1_13">in0</text>
    </g>
    <g transform="translate(30,10)" s:x="30" s:y="10" s:pid="out0" id="port_inst_1_13~clk_left_out">
      <text x="5" y="-4" style="fill:#000; stroke:none" class="cell_inst_1_13">clk_left_out</text>
    </g>
    <g transform="translate(30,30)" s:x="30" s:y="10" s:pid="out0" id="port_inst_1_13~clk_right_out">
      <text x="5" y="-4" style="fill:#000; stroke:none" class="cell_inst_1_13">clk_right_out</text>
    </g>
    <g transform="translate(30,50)" s:x="30" s:y="10" s:pid="out0" id="port_inst_1_13~clk_top_out">
      <text x="5" y="-4" style="fill:#000; stroke:none" class="cell_inst_1_13">clk_top_out</text>
    </g>
    <g transform="translate(30,70)" s:x="30" s:y="10" s:pid="out0" id="port_inst_1_13~out0">
      <text x="5" y="-4" style="fill:#000; stroke:none" class="cell_inst_1_13">out0</text>
    </g>
  </g>
  <g s:type="generic" transform="translate(450,507.5)" s:width="30" s:height="40" id="cell_inst_1_14">
    <text x="15" y="-4" class="nodelabel cell_inst_1_14" s:attribute="ref">inst_1_14</text>
    <rect width="30" height="80" s:generic="body" class="cell_inst_1_14"/>
    <g transform="translate(0,10)" s:x="0" s:y="10" s:pid="in0" id="port_inst_1_14~clk_bottom_in">
      <text x="-3" y="-4" class="inputPortLabel cell_inst_1_14">clk_bottom_in</text>
    </g>
    <g transform="translate(0,30)" s:x="0" s:y="10" s:pid="in0" id="port_inst_1_14~clk_left_in">
      <text x="-3" y="-4" class="inputPortLabel cell_inst_1_14">clk_left_in</text>
    </g>
    <g transform="translate(0,50)" s:x="0" s:y="10" s:pid="in0" id="port_inst_1_14~clk_right_in">
      <text x="-3" y="-4" class="inputPortLabel cell_inst_1_14">clk_right_in</text>
    </g>
    <g transform="translate(0,70)" s:x="0" s:y="10" s:pid="in0" id="port_inst_1_14~in0">
      <text x="-3" y="-4" class="inputPortLabel cell_inst_1_14">in0</text>
    </g>
    <g transform="translate(30,10)" s:x="30" s:y="10" s:pid="out0" id="port_inst_1_14~clk_left_out">
      <text x="5" y="-4" style="fill:#000; stroke:none" class="cell_inst_1_14">clk_left_out</text>
    </g>
    <g transform="translate(30,30)" s:x="30" s:y="10" s:pid="out0" id="port_inst_1_14~clk_right_out">
      <text x="5" y="-4" style="fill:#000; stroke:none" class="cell_inst_1_14">clk_right_out</text>
    </g>
    <g transform="translate(30,50)" s:x="30" s:y="10" s:pid="out0" id="port_inst_1_14~clk_top_out">
      <text x="5" y="-4" style="fill:#000; stroke:none" class="cell_inst_1_14">clk_top_out</text>
    </g>
    <g transform="translate(30,70)" s:x="30" s:y="10" s:pid="out0" id="port_inst_1_14~out0">
      <text x="5" y="-4" style="fill:#000; stroke:none" class="cell_inst_1_14">out0</text>
    </g>
  </g>
  <g s:type="generic" transform="translate(226,123.5)" s:width="30" s:height="40" id="cell_inst_1_21">
    <text x="15" y="-4" class="nodelabel cell_inst_1_21" s:attribute="ref">inst_1_21</text>
    <rect width="30" height="80" s:generic="body" class="cell_inst_1_21"/>
    <g transform="translate(0,10)" s:x="0" s:y="10" s:pid="in0" id="port_inst_1_21~clk_bottom_in">
      <text x="-3" y="-4" class="inputPortLabel cell_inst_1_21">clk_bottom_in</text>
    </g>
    <g transform="translate(0,30)" s:x="0" s:y="10" s:pid="in0" id="port_inst_1_21~clk_left_in">
      <text x="-3" y="-4" class="inputPortLabel cell_inst_1_21">clk_left_in</text>
    </g>
    <g transform="translate(0,50)" s:x="0" s:y="10" s:pid="in0" id="port_inst_1_21~clk_right_in">
      <text x="-3" y="-4" class="inputPortLabel cell_inst_1_21">clk_right_in</text>
    </g>
    <g transform="translate(0,70)" s:x="0" s:y="10" s:pid="in0" id="port_inst_1_21~in0">
      <text x="-3" y="-4" class="inputPortLabel cell_inst_1_21">in0</text>
    </g>
    <g transform="translate(30,10)" s:x="30" s:y="10" s:pid="out0" id="port_inst_1_21~clk_left_out">
      <text x="5" y="-4" style="fill:#000; stroke:none" class="cell_inst_1_21">clk_left_out</text>
    </g>
    <g transform="translate(30,30)" s:x="30" s:y="10" s:pid="out0" id="port_inst_1_21~clk_right_out">
      <text x="5" y="-4" style="fill:#000; stroke:none" class="cell_inst_1_21">clk_right_out</text>
    </g>
    <g transform="translate(30,50)" s:x="30" s:y="10" s:pid="out0" id="port_inst_1_21~clk_top_out">
      <text x="5" y="-4" style="fill:#000; stroke:none" class="cell_inst_1_21">clk_top_out</text>
    </g>
    <g transform="translate(30,70)" s:x="30" s:y="10" s:pid="out0" id="port_inst_1_21~out0">
      <text x="5" y="-4" style="fill:#000; stroke:none" class="cell_inst_1_21">out0</text>
    </g>
  </g>
  <g s:type="generic" transform="translate(450,251.5)" s:width="30" s:height="40" id="cell_inst_1_22">
    <text x="15" y="-4" class="nodelabel cell_inst_1_22" s:attribute="ref">inst_1_22</text>
    <rect width="30" height="80" s:generic="body" class="cell_inst_1_22"/>
    <g transform="translate(0,10)" s:x="0" s:y="10" s:pid="in0" id="port_inst_1_22~clk_bottom_in">
      <text x="-3" y="-4" class="inputPortLabel cell_inst_1_22">clk_bottom_in</text>
    </g>
    <g transform="translate(0,30)" s:x="0" s:y="10" s:pid="in0" id="port_inst_1_22~clk_left_in">
      <text x="-3" y="-4" class="inputPortLabel cell_inst_1_22">clk_left_in</text>
    </g>
    <g transform="translate(0,50)" s:x="0" s:y="10" s:pid="in0" id="port_inst_1_22~clk_right_in">
      <text x="-3" y="-4" class="inputPortLabel cell_inst_1_22">clk_right_in</text>
    </g>
    <g transform="translate(0,70)" s:x="0" s:y="10" s:pid="in0" id="port_inst_1_22~in0">
      <text x="-3" y="-4" class="inputPortLabel cell_inst_1_22">in0</text>
    </g>
    <g transform="translate(30,10)" s:x="30" s:y="10" s:pid="out0" id="port_inst_1_22~clk_left_out">
      <text x="5" y="-4" style="fill:#000; stroke:none" class="cell_inst_1_22">clk_left_out</text>
    </g>
    <g transform="translate(30,30)" s:x="30" s:y="10" s:pid="out0" id="port_inst_1_22~clk_right_out">
      <text x="5" y="-4" style="fill:#000; stroke:none" class="cell_inst_1_22">clk_right_out</text>
    </g>
    <g transform="translate(30,50)" s:x="30" s:y="10" s:pid="out0" id="port_inst_1_22~clk_top_out">
      <text x="5" y="-4" style="fill:#000; stroke:none" class="cell_inst_1_22">clk_top_out</text>
    </g>
    <g transform="translate(30,70)" s:x="30" s:y="10" s:pid="out0" id="port_inst_1_22~out0">
      <text x="5" y="-4" style="fill:#000; stroke:none" class="cell_inst_1_22">out0</text>
    </g>
  </g>
  <g s:type="generic" transform="translate(674,379.5)" s:width="30" s:height="40" id="cell_inst_1_23">
    <text x="15" y="-4" class="nodelabel cell_inst_1_23" s:attribute="ref">inst_1_23</text>
    <rect width="30" height="80" s:generic="body" class="cell_inst_1_23"/>
    <g transform="translate(0,10)" s:x="0" s:y="10" s:pid="in0" id="port_inst_1_23~clk_bottom_in">
      <text x="-3" y="-4" class="inputPortLabel cell_inst_1_23">clk_bottom_in</text>
    </g>
    <g transform="translate(0,30)" s:x="0" s:y="10" s:pid="in0" id="port_inst_1_23~clk_left_in">
      <text x="-3" y="-4" class="inputPortLabel cell_inst_1_23">clk_left_in</text>
    </g>
    <g transform="translate(0,50)" s:x="0" s:y="10" s:pid="in0" id="port_inst_1_23~clk_right_in">
      <text x="-3" y="-4" class="inputPortLabel cell_inst_1_23">clk_right_in</text>
    </g>
    <g transform="translate(0,70)" s:x="0" s:y="10" s:pid="in0" id="port_inst_1_23~in0">
      <text x="-3" y="-4" class="inputPortLabel cell_inst_1_23">in0</text>
    </g>
    <g transform="translate(30,10)" s:x="30" s:y="10" s:pid="out0" id="port_inst_1_23~clk_left_out">
      <text x="5" y="-4" style="fill:#000; stroke:none" class="cell_inst_1_23">clk_left_out</text>
    </g>
    <g transform="translate(30,30)" s:x="30" s:y="10" s:pid="out0" id="port_inst_1_23~clk_right_out">
      <text x="5" y="-4" style="fill:#000; stroke:none" class="cell_inst_1_23">clk_right_out</text>
    </g>
    <g transform="translate(30,50)" s:x="30" s:y="10" s:pid="out0" id="port_inst_1_23~clk_top_out">
      <text x="5" y="-4" style="fill:#000; stroke:none" class="cell_inst_1_23">clk_top_out</text>
    </g>
    <g transform="translate(30,70)" s:x="30" s:y="10" s:pid="out0" id="port_inst_1_23~out0">
      <text x="5" y="-4" style="fill:#000; stroke:none" class="cell_inst_1_23">out0</text>
    </g>
  </g>
  <g s:type="generic" transform="translate(674,507.5)" s:width="30" s:height="40" id="cell_inst_1_24">
    <text x="15" y="-4" class="nodelabel cell_inst_1_24" s:attribute="ref">inst_1_24</text>
    <rect width="30" height="80" s:generic="body" class="cell_inst_1_24"/>
    <g transform="translate(0,10)" s:x="0" s:y="10" s:pid="in0" id="port_inst_1_24~clk_bottom_in">
      <text x="-3" y="-4" class="inputPortLabel cell_inst_1_24">clk_bottom_in</text>
    </g>
    <g transform="translate(0,30)" s:x="0" s:y="10" s:pid="in0" id="port_inst_1_24~clk_left_in">
      <text x="-3" y="-4" class="inputPortLabel cell_inst_1_24">clk_left_in</text>
    </g>
    <g transform="translate(0,50)" s:x="0" s:y="10" s:pid="in0" id="port_inst_1_24~clk_right_in">
      <text x="-3" y="-4" class="inputPortLabel cell_inst_1_24">clk_right_in</text>
    </g>
    <g transform="translate(0,70)" s:x="0" s:y="10" s:pid="in0" id="port_inst_1_24~in0">
      <text x="-3" y="-4" class="inputPortLabel cell_inst_1_24">in0</text>
    </g>
    <g transform="translate(30,10)" s:x="30" s:y="10" s:pid="out0" id="port_inst_1_24~clk_left_out">
      <text x="5" y="-4" style="fill:#000; stroke:none" class="cell_inst_1_24">clk_left_out</text>
    </g>
    <g transform="translate(30,30)" s:x="30" s:y="10" s:pid="out0" id="port_inst_1_24~clk_right_out">
      <text x="5" y="-4" style="fill:#000; stroke:none" class="cell_inst_1_24">clk_right_out</text>
    </g>
    <g transform="translate(30,50)" s:x="30" s:y="10" s:pid="out0" id="port_inst_1_24~clk_top_out">
      <text x="5" y="-4" style="fill:#000; stroke:none" class="cell_inst_1_24">clk_top_out</text>
    </g>
    <g transform="translate(30,70)" s:x="30" s:y="10" s:pid="out0" id="port_inst_1_24~out0">
      <text x="5" y="-4" style="fill:#000; stroke:none" class="cell_inst_1_24">out0</text>
    </g>
  </g>
  <g s:type="generic" transform="translate(898,123.5)" s:width="30" s:height="40" id="cell_inst_1_31">
    <text x="15" y="-4" class="nodelabel cell_inst_1_31" s:attribute="ref">inst_1_31</text>
    <rect width="30" height="80" s:generic="body" class="cell_inst_1_31"/>
    <g transform="translate(0,10)" s:x="0" s:y="10" s:pid="in0" id="port_inst_1_31~clk_bottom_in">
      <text x="-3" y="-4" class="inputPortLabel cell_inst_1_31">clk_bottom_in</text>
    </g>
    <g transform="translate(0,30)" s:x="0" s:y="10" s:pid="in0" id="port_inst_1_31~clk_left_in">
      <text x="-3" y="-4" class="inputPortLabel cell_inst_1_31">clk_left_in</text>
    </g>
    <g transform="translate(0,50)" s:x="0" s:y="10" s:pid="in0" id="port_inst_1_31~clk_right_in">
      <text x="-3" y="-4" class="inputPortLabel cell_inst_1_31">clk_right_in</text>
    </g>
    <g transform="translate(0,70)" s:x="0" s:y="10" s:pid="in0" id="port_inst_1_31~in0">
      <text x="-3" y="-4" class="inputPortLabel cell_inst_1_31">in0</text>
    </g>
    <g transform="translate(30,10)" s:x="30" s:y="10" s:pid="out0" id="port_inst_1_31~clk_left_out">
      <text x="5" y="-4" style="fill:#000; stroke:none" class="cell_inst_1_31">clk_left_out</text>
    </g>
    <g transform="translate(30,30)" s:x="30" s:y="10" s:pid="out0" id="port_inst_1_31~clk_right_out">
      <text x="5" y="-4" style="fill:#000; stroke:none" class="cell_inst_1_31">clk_right_out</text>
    </g>
    <g transform="translate(30,50)" s:x="30" s:y="10" s:pid="out0" id="port_inst_1_31~clk_top_out">
      <text x="5" y="-4" style="fill:#000; stroke:none" class="cell_inst_1_31">clk_top_out</text>
    </g>
    <g transform="translate(30,70)" s:x="30" s:y="10" s:pid="out0" id="port_inst_1_31~out0">
      <text x="5" y="-4" style="fill:#000; stroke:none" class="cell_inst_1_31">out0</text>
    </g>
  </g>
  <g s:type="generic" transform="translate(898,251.5)" s:width="30" s:height="40" id="cell_inst_1_32">
    <text x="15" y="-4" class="nodelabel cell_inst_1_32" s:attribute="ref">inst_1_32</text>
    <rect width="30" height="80" s:generic="body" class="cell_inst_1_32"/>
    <g transform="translate(0,10)" s:x="0" s:y="10" s:pid="in0" id="port_inst_1_32~clk_bottom_in">
      <text x="-3" y="-4" class="inputPortLabel cell_inst_1_32">clk_bottom_in</text>
    </g>
    <g transform="translate(0,30)" s:x="0" s:y="10" s:pid="in0" id="port_inst_1_32~clk_left_in">
      <text x="-3" y="-4" class="inputPortLabel cell_inst_1_32">clk_left_in</text>
    </g>
    <g transform="translate(0,50)" s:x="0" s:y="10" s:pid="in0" id="port_inst_1_32~clk_right_in">
      <text x="-3" y="-4" class="inputPortLabel cell_inst_1_32">clk_right_in</text>
    </g>
    <g transform="translate(0,70)" s:x="0" s:y="10" s:pid="in0" id="port_inst_1_32~in0">
      <text x="-3" y="-4" class="inputPortLabel cell_inst_1_32">in0</text>
    </g>
    <g transform="translate(30,10)" s:x="30" s:y="10" s:pid="out0" id="port_inst_1_32~clk_left_out">
      <text x="5" y="-4" style="fill:#000; stroke:none" class="cell_inst_1_32">clk_left_out</text>
    </g>
    <g transform="translate(30,30)" s:x="30" s:y="10" s:pid="out0" id="port_inst_1_32~clk_right_out">
      <text x="5" y="-4" style="fill:#000; stroke:none" class="cell_inst_1_32">clk_right_out</text>
    </g>
    <g transform="translate(30,50)" s:x="30" s:y="10" s:pid="out0" id="port_inst_1_32~clk_top_out">
      <text x="5" y="-4" style="fill:#000; stroke:none" class="cell_inst_1_32">clk_top_out</text>
    </g>
    <g transform="translate(30,70)" s:x="30" s:y="10" s:pid="out0" id="port_inst_1_32~out0">
      <text x="5" y="-4" style="fill:#000; stroke:none" class="cell_inst_1_32">out0</text>
    </g>
  </g>
  <g s:type="generic" transform="translate(898,379.5)" s:width="30" s:height="40" id="cell_inst_1_33">
    <text x="15" y="-4" class="nodelabel cell_inst_1_33" s:attribute="ref">inst_1_33</text>
    <rect width="30" height="80" s:generic="body" class="cell_inst_1_33"/>
    <g transform="translate(0,10)" s:x="0" s:y="10" s:pid="in0" id="port_inst_1_33~clk_bottom_in">
      <text x="-3" y="-4" class="inputPortLabel cell_inst_1_33">clk_bottom_in</text>
    </g>
    <g transform="translate(0,30)" s:x="0" s:y="10" s:pid="in0" id="port_inst_1_33~clk_left_in">
      <text x="-3" y="-4" class="inputPortLabel cell_inst_1_33">clk_left_in</text>
    </g>
    <g transform="translate(0,50)" s:x="0" s:y="10" s:pid="in0" id="port_inst_1_33~clk_right_in">
      <text x="-3" y="-4" class="inputPortLabel cell_inst_1_33">clk_right_in</text>
    </g>
    <g transform="translate(0,70)" s:x="0" s:y="10" s:pid="in0" id="port_inst_1_33~in0">
      <text x="-3" y="-4" class="inputPortLabel cell_inst_1_33">in0</text>
    </g>
    <g transform="translate(30,10)" s:x="30" s:y="10" s:pid="out0" id="port_inst_1_33~clk_left_out">
      <text x="5" y="-4" style="fill:#000; stroke:none" class="cell_inst_1_33">clk_left_out</text>
    </g>
    <g transform="translate(30,30)" s:x="30" s:y="10" s:pid="out0" id="port_inst_1_33~clk_right_out">
      <text x="5" y="-4" style="fill:#000; stroke:none" class="cell_inst_1_33">clk_right_out</text>
    </g>
    <g transform="translate(30,50)" s:x="30" s:y="10" s:pid="out0" id="port_inst_1_33~clk_top_out">
      <text x="5" y="-4" style="fill:#000; stroke:none" class="cell_inst_1_33">clk_top_out</text>
    </g>
    <g transform="translate(30,70)" s:x="30" s:y="10" s:pid="out0" id="port_inst_1_33~out0">
      <text x="5" y="-4" style="fill:#000; stroke:none" class="cell_inst_1_33">out0</text>
    </g>
  </g>
  <g s:type="generic" transform="translate(898,507.5)" s:width="30" s:height="40" id="cell_inst_1_34">
    <text x="15" y="-4" class="nodelabel cell_inst_1_34" s:attribute="ref">inst_1_34</text>
    <rect width="30" height="80" s:generic="body" class="cell_inst_1_34"/>
    <g transform="translate(0,10)" s:x="0" s:y="10" s:pid="in0" id="port_inst_1_34~clk_bottom_in">
      <text x="-3" y="-4" class="inputPortLabel cell_inst_1_34">clk_bottom_in</text>
    </g>
    <g transform="translate(0,30)" s:x="0" s:y="10" s:pid="in0" id="port_inst_1_34~clk_left_in">
      <text x="-3" y="-4" class="inputPortLabel cell_inst_1_34">clk_left_in</text>
    </g>
    <g transform="translate(0,50)" s:x="0" s:y="10" s:pid="in0" id="port_inst_1_34~clk_right_in">
      <text x="-3" y="-4" class="inputPortLabel cell_inst_1_34">clk_right_in</text>
    </g>
    <g transform="translate(0,70)" s:x="0" s:y="10" s:pid="in0" id="port_inst_1_34~in0">
      <text x="-3" y="-4" class="inputPortLabel cell_inst_1_34">in0</text>
    </g>
    <g transform="translate(30,10)" s:x="30" s:y="10" s:pid="out0" id="port_inst_1_34~clk_left_out">
      <text x="5" y="-4" style="fill:#000; stroke:none" class="cell_inst_1_34">clk_left_out</text>
    </g>
    <g transform="translate(30,30)" s:x="30" s:y="10" s:pid="out0" id="port_inst_1_34~clk_right_out">
      <text x="5" y="-4" style="fill:#000; stroke:none" class="cell_inst_1_34">clk_right_out</text>
    </g>
    <g transform="translate(30,50)" s:x="30" s:y="10" s:pid="out0" id="port_inst_1_34~clk_top_out">
      <text x="5" y="-4" style="fill:#000; stroke:none" class="cell_inst_1_34">clk_top_out</text>
    </g>
    <g transform="translate(30,70)" s:x="30" s:y="10" s:pid="out0" id="port_inst_1_34~out0">
      <text x="5" y="-4" style="fill:#000; stroke:none" class="cell_inst_1_34">out0</text>
    </g>
  </g>
  <g s:type="generic" transform="translate(1122,123.5)" s:width="30" s:height="40" id="cell_inst_1_41">
    <text x="15" y="-4" class="nodelabel cell_inst_1_41" s:attribute="ref">inst_1_41</text>
    <rect width="30" height="80" s:generic="body" class="cell_inst_1_41"/>
    <g transform="translate(0,10)" s:x="0" s:y="10" s:pid="in0" id="port_inst_1_41~clk_bottom_in">
      <text x="-3" y="-4" class="inputPortLabel cell_inst_1_41">clk_bottom_in</text>
    </g>
    <g transform="translate(0,30)" s:x="0" s:y="10" s:pid="in0" id="port_inst_1_41~clk_left_in">
      <text x="-3" y="-4" class="inputPortLabel cell_inst_1_41">clk_left_in</text>
    </g>
    <g transform="translate(0,50)" s:x="0" s:y="10" s:pid="in0" id="port_inst_1_41~clk_right_in">
      <text x="-3" y="-4" class="inputPortLabel cell_inst_1_41">clk_right_in</text>
    </g>
    <g transform="translate(0,70)" s:x="0" s:y="10" s:pid="in0" id="port_inst_1_41~in0">
      <text x="-3" y="-4" class="inputPortLabel cell_inst_1_41">in0</text>
    </g>
    <g transform="translate(30,10)" s:x="30" s:y="10" s:pid="out0" id="port_inst_1_41~clk_left_out">
      <text x="5" y="-4" style="fill:#000; stroke:none" class="cell_inst_1_41">clk_left_out</text>
    </g>
    <g transform="translate(30,30)" s:x="30" s:y="10" s:pid="out0" id="port_inst_1_41~clk_right_out">
      <text x="5" y="-4" style="fill:#000; stroke:none" class="cell_inst_1_41">clk_right_out</text>
    </g>
    <g transform="translate(30,50)" s:x="30" s:y="10" s:pid="out0" id="port_inst_1_41~clk_top_out">
      <text x="5" y="-4" style="fill:#000; stroke:none" class="cell_inst_1_41">clk_top_out</text>
    </g>
    <g transform="translate(30,70)" s:x="30" s:y="10" s:pid="out0" id="port_inst_1_41~out0">
      <text x="5" y="-4" style="fill:#000; stroke:none" class="cell_inst_1_41">out0</text>
    </g>
  </g>
  <g s:type="generic" transform="translate(1122,251.5)" s:width="30" s:height="40" id="cell_inst_1_42">
    <text x="15" y="-4" class="nodelabel cell_inst_1_42" s:attribute="ref">inst_1_42</text>
    <rect width="30" height="80" s:generic="body" class="cell_inst_1_42"/>
    <g transform="translate(0,10)" s:x="0" s:y="10" s:pid="in0" id="port_inst_1_42~clk_bottom_in">
      <text x="-3" y="-4" class="inputPortLabel cell_inst_1_42">clk_bottom_in</text>
    </g>
    <g transform="translate(0,30)" s:x="0" s:y="10" s:pid="in0" id="port_inst_1_42~clk_left_in">
      <text x="-3" y="-4" class="inputPortLabel cell_inst_1_42">clk_left_in</text>
    </g>
    <g transform="translate(0,50)" s:x="0" s:y="10" s:pid="in0" id="port_inst_1_42~clk_right_in">
      <text x="-3" y="-4" class="inputPortLabel cell_inst_1_42">clk_right_in</text>
    </g>
    <g transform="translate(0,70)" s:x="0" s:y="10" s:pid="in0" id="port_inst_1_42~in0">
      <text x="-3" y="-4" class="inputPortLabel cell_inst_1_42">in0</text>
    </g>
    <g transform="translate(30,10)" s:x="30" s:y="10" s:pid="out0" id="port_inst_1_42~clk_left_out">
      <text x="5" y="-4" style="fill:#000; stroke:none" class="cell_inst_1_42">clk_left_out</text>
    </g>
    <g transform="translate(30,30)" s:x="30" s:y="10" s:pid="out0" id="port_inst_1_42~clk_right_out">
      <text x="5" y="-4" style="fill:#000; stroke:none" class="cell_inst_1_42">clk_right_out</text>
    </g>
    <g transform="translate(30,50)" s:x="30" s:y="10" s:pid="out0" id="port_inst_1_42~clk_top_out">
      <text x="5" y="-4" style="fill:#000; stroke:none" class="cell_inst_1_42">clk_top_out</text>
    </g>
    <g transform="translate(30,70)" s:x="30" s:y="10" s:pid="out0" id="port_inst_1_42~out0">
      <text x="5" y="-4" style="fill:#000; stroke:none" class="cell_inst_1_42">out0</text>
    </g>
  </g>
  <g s:type="generic" transform="translate(1122,379.5)" s:width="30" s:height="40" id="cell_inst_1_43">
    <text x="15" y="-4" class="nodelabel cell_inst_1_43" s:attribute="ref">inst_1_43</text>
    <rect width="30" height="80" s:generic="body" class="cell_inst_1_43"/>
    <g transform="translate(0,10)" s:x="0" s:y="10" s:pid="in0" id="port_inst_1_43~clk_bottom_in">
      <text x="-3" y="-4" class="inputPortLabel cell_inst_1_43">clk_bottom_in</text>
    </g>
    <g transform="translate(0,30)" s:x="0" s:y="10" s:pid="in0" id="port_inst_1_43~clk_left_in">
      <text x="-3" y="-4" class="inputPortLabel cell_inst_1_43">clk_left_in</text>
    </g>
    <g transform="translate(0,50)" s:x="0" s:y="10" s:pid="in0" id="port_inst_1_43~clk_right_in">
      <text x="-3" y="-4" class="inputPortLabel cell_inst_1_43">clk_right_in</text>
    </g>
    <g transform="translate(0,70)" s:x="0" s:y="10" s:pid="in0" id="port_inst_1_43~in0">
      <text x="-3" y="-4" class="inputPortLabel cell_inst_1_43">in0</text>
    </g>
    <g transform="translate(30,10)" s:x="30" s:y="10" s:pid="out0" id="port_inst_1_43~clk_left_out">
      <text x="5" y="-4" style="fill:#000; stroke:none" class="cell_inst_1_43">clk_left_out</text>
    </g>
    <g transform="translate(30,30)" s:x="30" s:y="10" s:pid="out0" id="port_inst_1_43~clk_right_out">
      <text x="5" y="-4" style="fill:#000; stroke:none" class="cell_inst_1_43">clk_right_out</text>
    </g>
    <g transform="translate(30,50)" s:x="30" s:y="10" s:pid="out0" id="port_inst_1_43~clk_top_out">
      <text x="5" y="-4" style="fill:#000; stroke:none" class="cell_inst_1_43">clk_top_out</text>
    </g>
    <g transform="translate(30,70)" s:x="30" s:y="10" s:pid="out0" id="port_inst_1_43~out0">
      <text x="5" y="-4" style="fill:#000; stroke:none" class="cell_inst_1_43">out0</text>
    </g>
  </g>
  <g s:type="generic" transform="translate(1122,507.5)" s:width="30" s:height="40" id="cell_inst_1_44">
    <text x="15" y="-4" class="nodelabel cell_inst_1_44" s:attribute="ref">inst_1_44</text>
    <rect width="30" height="80" s:generic="body" class="cell_inst_1_44"/>
    <g transform="translate(0,10)" s:x="0" s:y="10" s:pid="in0" id="port_inst_1_44~clk_bottom_in">
      <text x="-3" y="-4" class="inputPortLabel cell_inst_1_44">clk_bottom_in</text>
    </g>
    <g transform="translate(0,30)" s:x="0" s:y="10" s:pid="in0" id="port_inst_1_44~clk_left_in">
      <text x="-3" y="-4" class="inputPortLabel cell_inst_1_44">clk_left_in</text>
    </g>
    <g transform="translate(0,50)" s:x="0" s:y="10" s:pid="in0" id="port_inst_1_44~clk_right_in">
      <text x="-3" y="-4" class="inputPortLabel cell_inst_1_44">clk_right_in</text>
    </g>
    <g transform="translate(0,70)" s:x="0" s:y="10" s:pid="in0" id="port_inst_1_44~in0">
      <text x="-3" y="-4" class="inputPortLabel cell_inst_1_44">in0</text>
    </g>
    <g transform="translate(30,10)" s:x="30" s:y="10" s:pid="out0" id="port_inst_1_44~clk_left_out">
      <text x="5" y="-4" style="fill:#000; stroke:none" class="cell_inst_1_44">clk_left_out</text>
    </g>
    <g transform="translate(30,30)" s:x="30" s:y="10" s:pid="out0" id="port_inst_1_44~clk_right_out">
      <text x="5" y="-4" style="fill:#000; stroke:none" class="cell_inst_1_44">clk_right_out</text>
    </g>
    <g transform="translate(30,50)" s:x="30" s:y="10" s:pid="out0" id="port_inst_1_44~clk_top_out">
      <text x="5" y="-4" style="fill:#000; stroke:none" class="cell_inst_1_44">clk_top_out</text>
    </g>
    <g transform="translate(30,70)" s:x="30" s:y="10" s:pid="out0" id="port_inst_1_44~out0">
      <text x="5" y="-4" style="fill:#000; stroke:none" class="cell_inst_1_44">out0</text>
    </g>
  </g>
  <g s:type="inputExt" transform="translate(12,518)" s:width="30" s:height="20" id="cell_in">
    <text x="15" y="-4" class="nodelabel cell_in" s:attribute="ref">in</text>
    <s:alias val="$_inputExt_"/>
    <path d="M0,0 L0,20 L15,20 L30,10 L15,0 Z" class="cell_in"/>
    <g s:x="28" s:y="10" s:pid="Y"/>
  </g>
  <g s:type="outputExt" transform="translate(1394,302)" s:width="30" s:height="20" id="cell_out">
    <text x="15" y="-4" class="nodelabel cell_out" s:attribute="ref">out</text>
    <s:alias val="$_outputExt_"/>
    <path d="M30,0 L30,20 L15,20 L0,10 L15,0 Z" class="cell_out"/>
    <g s:x="0" s:y="10" s:pid="A"/>
  </g>
  <g s:type="inputExt" transform="translate(77,124)" s:width="30" s:height="20" id="cell_clk">
    <text x="15" y="-4" class="nodelabel cell_clk" s:attribute="ref">clk</text>
    <s:alias val="$_inputExt_"/>
    <path d="M0,0 L0,20 L15,20 L30,10 L15,0 Z" class="cell_clk"/>
    <g s:x="28" s:y="10" s:pid="Y"/>
  </g>
  <g s:type="join" transform="translate(1274,291.5)" s:width="4" s:height="40" id="cell_$join$,6,7,8,9,">
    <rect width="5" height="80" class="splitjoinBody" s:generic="body"/>
    <s:alias val="$_join_"/>
    <g s:x="5" s:y="20" s:pid="out"/>
    <g transform="translate(0,10)" s:x="0" s:y="10" s:pid="in0">
      <text x="-3" y="-4" class="inputPortLabel">0</text>
    </g>
    <g transform="translate(0,30)" s:x="0" s:y="10" s:pid="in0">
      <text x="-3" y="-4" class="inputPortLabel">1</text>
    </g>
    <g transform="translate(0,50)" s:x="0" s:y="10" s:pid="in0">
      <text x="-3" y="-4" class="inputPortLabel">2</text>
    </g>
    <g transform="translate(0,70)" s:x="0" s:y="10" s:pid="in0">
      <text x="-3" y="-4" class="inputPortLabel">3</text>
    </g>
  </g>
  <g s:type="split" transform="translate(92.8,507.5)" s:width="5" s:height="40" id="cell_$split$,2,3,4,5,">
    <rect width="5" height="80" class="splitjoinBody" s:generic="body"/>
    <s:alias val="$_split_"/>
    <g s:x="0" s:y="20" s:pid="in"/>
    <g transform="translate(4,10)" s:x="4" s:y="10" s:pid="out0">
      <text x="5" y="-4">0</text>
    </g>
    <g transform="translate(4,30)" s:x="4" s:y="10" s:pid="out0">
      <text x="5" y="-4">1</text>
    </g>
    <g transform="translate(4,50)" s:x="4" s:y="10" s:pid="out0">
      <text x="5" y="-4">2</text>
    </g>
    <g transform="translate(4,70)" s:x="4" s:y="10" s:pid="out0">
      <text x="5" y="-4">3</text>
    </g>
  </g>
  <line x1="257" x2="346" y1="134" y2="134" class="net_14"/>
  <line x1="346" x2="346" y1="134" y2="91.5" class="net_14"/>
  <line x1="346" x2="1290" y1="91.5" y2="91.5" class="net_14"/>
  <line x1="1290" x2="1290" y1="91.5" y2="82.5" class="net_14"/>
  <line x1="1290" x2="1394" y1="82.5" y2="82.5" class="net_14"/>
  <line x1="97.8" x2="117" y1="518" y2="518" class="net_2"/>
  <line x1="117" x2="117" y1="518" y2="102.5" class="net_2"/>
  <line x1="117" x2="1394" y1="102.5" y2="102.5" class="net_2"/>
  <line x1="97.8" x2="127" y1="538" y2="538" class="net_3"/>
  <line x1="127" x2="127" y1="538" y2="322" class="net_3"/>
  <line x1="127" x2="226" y1="322" y2="322" class="net_3"/>
  <line x1="705" x2="794" y1="390" y2="390" class="net_28"/>
  <line x1="794" x2="794" y1="390" y2="359.5" class="net_28"/>
  <line x1="794" x2="346" y1="359.5" y2="359.5" class="net_28"/>
  <line x1="346" x2="346" y1="359.5" y2="430" class="net_28"/>
  <line x1="346" x2="450" y1="430" y2="430" class="net_28"/>
  <line x1="97.8" x2="137" y1="558" y2="558" class="net_4"/>
  <line x1="137" x2="137" y1="558" y2="450" class="net_4"/>
  <line x1="137" x2="450" y1="450" y2="450" class="net_4"/>
  <line x1="97.8" x2="450" y1="578" y2="578" class="net_5"/>
  <line x1="105" x2="226" y1="134" y2="134" class="net_10"/>
  <line x1="1425" x2="1514" y1="102.5" y2="102.5" class="net_17"/>
  <line x1="1514" x2="1514" y1="102.5" y2="12" class="net_17"/>
  <line x1="1514" x2="137" y1="12" y2="12" class="net_17"/>
  <line x1="137" x2="137" y1="12" y2="194" class="net_17"/>
  <line x1="137" x2="226" y1="194" y2="194" class="net_17"/>
  <line x1="257" x2="346" y1="174" y2="174" class="net_42"/>
  <line x1="346" x2="346" y1="174" y2="262" class="net_42"/>
  <line x1="346" x2="450" y1="262" y2="262" class="net_42"/>
  <line x1="257" x2="450" y1="322" y2="322" class="net_24"/>
  <line x1="481" x2="570" y1="302" y2="302" class="net_48"/>
  <line x1="570" x2="570" y1="302" y2="390" class="net_48"/>
  <line x1="570" x2="674" y1="390" y2="390" class="net_48"/>
  <line x1="481" x2="674" y1="450" y2="450" class="net_31"/>
  <line x1="481" x2="674" y1="578" y2="578" class="net_38"/>
  <line x1="257" x2="898" y1="154" y2="154" class="net_41"/>
  <line x1="257" x2="898" y1="194" y2="194" class="net_43"/>
  <line x1="481" x2="898" y1="322" y2="322" class="net_49"/>
  <line x1="705" x2="898" y1="410" y2="410" class="net_52"/>
  <line x1="705" x2="898" y1="450" y2="450" class="net_54"/>
  <line x1="705" x2="898" y1="578" y2="578" class="net_61"/>
  <line x1="929" x2="1122" y1="154" y2="154" class="net_65"/>
  <line x1="929" x2="1122" y1="194" y2="194" class="net_67"/>
  <line x1="929" x2="1122" y1="322" y2="322" class="net_74"/>
  <line x1="929" x2="1122" y1="410" y2="410" class="net_78"/>
  <line x1="929" x2="1122" y1="450" y2="450" class="net_80"/>
  <line x1="929" x2="1122" y1="578" y2="578" class="net_87"/>
  <line x1="1280" x2="1394" y1="312" y2="312" class="net_6,7,8,9"/>
  <line x1="1153" x2="1242" y1="194" y2="194" class="net_6"/>
  <line x1="1242" x2="1242" y1="194" y2="302" class="net_6"/>
  <line x1="1242" x2="1274" y1="302" y2="302" class="net_6"/>
  <line x1="1153" x2="1274" y1="322" y2="322" class="net_7"/>
  <line x1="1153" x2="1242" y1="450" y2="450" class="net_8"/>
  <line x1="1242" x2="1242" y1="450" y2="342" class="net_8"/>
  <line x1="1242" x2="1274" y1="342" y2="342" class="net_8"/>
  <line x1="1153" x2="1274.5" y1="578" y2="578" class="net_9"/>
  <line x1="1274.5" x2="1274.5" y1="578" y2="362.5" class="net_9"/>
  <line x1="40" x2="92.8" y1="528" y2="528" class="net_2,3,4,5"/>
</svg>
