<?xml version="1.0" encoding="utf-8" ?>
<svg xmlns="http://www.w3.org/2000/svg" xmlns:ev="http://www.w3.org/2001/xml-events" xmlns:xlink="http://www.w3.org/1999/xlink" baseProfile="full" height="480" version="1.1" viewBox="0,-450.0,320,480" width="320">
    <defs id="id5">
        <marker id="id1" markerHeight="10" markerUnits="strokeWidth" markerWidth="5" orient="auto" refX="30" refY="30" viewBox="0 0 120 120">
            <path d="M 0 0 L 60 30 L 0 60 z" fill="blue"/>
        </marker>
        <marker id="id2" markerHeight="10" markerUnits="strokeWidth" markerWidth="5" orient="auto" viewBox="-15 -15 30 30">
            <rect fill="green" height="20" width="20" x="-10" y="-10"/>
            <path d="M 8 0 L -8 8 L -8 -8 z" fill="blue"/>
        </marker>
        <marker id="id3" markerHeight="10" markerUnits="strokeWidth" markerWidth="5" orient="auto" viewBox="-15 -15 30 30">
            <rect fill="green" height="20" width="20" x="-10" y="-10"/>
            <path d="M 8 0 L -8 8 L -8 -8 z" fill="blue"/>
        </marker>
        <marker id="id4" markerHeight="10" markerUnits="strokeWidth" markerWidth="5" orient="auto" viewBox="-15 -15 30 30">
            <line stroke="red" stroke-width="5px" x1="0" x2="0" y1="-15" y2="15"/>
        </marker>
        <style type="text/css"><![CDATA[
                text{font-family: Lato;}
                span{text-anchor: "middle"; alignment_baseline: "middle"}
                .gridLabels{fill: grey;font-style: italic;font-weight: 900}
                .gridmarker{stroke:red; stroke-width:0.2; opacity: 0.7;}
                
                .connection{ opacity: 0.5;
                            marker-end:url(#id1);
                            stroke-width:1.2;}
                .down{stroke-dasharray: 2;
                    marker-end:url(#id3);}
                .up{stroke-dasharray: 2;
                    marker-start:url(#id2);}
                .top{stroke-dasharray: 2;
                    marker-start:url(#id4);}
                .buffer{ filter: hue-rotate(90deg);
                          stroke-width:2; stroke-dasharray:1;}
                ]]></style>
    </defs>
    <g id="markers" transform="scale(1,-1)">
        <line class="gridmarker" x1="10" x2="10" y1="10" y2="430"/>
        <line class="gridmarker" x1="30" x2="30" y1="10" y2="430"/>
        <line class="gridmarker" x1="50" x2="50" y1="10" y2="430"/>
        <line class="gridmarker" x1="70" x2="70" y1="10" y2="430"/>
        <line class="gridmarker" x1="90" x2="90" y1="10" y2="430"/>
        <line class="gridmarker" x1="110" x2="110" y1="10" y2="430"/>
        <line class="gridmarker" x1="130" x2="130" y1="10" y2="430"/>
        <line class="gridmarker" x1="150" x2="150" y1="10" y2="430"/>
        <line class="gridmarker" x1="170" x2="170" y1="10" y2="430"/>
        <line class="gridmarker" x1="190" x2="190" y1="10" y2="430"/>
        <line class="gridmarker" x1="210" x2="210" y1="10" y2="430"/>
        <line class="gridmarker" x1="230" x2="230" y1="10" y2="430"/>
        <line class="gridmarker" x1="250" x2="250" y1="10" y2="430"/>
        <line class="gridmarker" x1="270" x2="270" y1="10" y2="430"/>
        <line class="gridmarker" x1="290" x2="290" y1="10" y2="430"/>
        <line class="gridmarker" x1="310" x2="310" y1="10" y2="430"/>
        <line class="gridmarker" x1="10" x2="310" y1="10" y2="10"/>
        <line class="gridmarker" x1="10" x2="310" y1="30" y2="30"/>
        <line class="gridmarker" x1="10" x2="310" y1="50" y2="50"/>
        <line class="gridmarker" x1="10" x2="310" y1="70" y2="70"/>
        <line class="gridmarker" x1="10" x2="310" y1="90" y2="90"/>
        <line class="gridmarker" x1="10" x2="310" y1="110" y2="110"/>
        <line class="gridmarker" x1="10" x2="310" y1="130" y2="130"/>
        <line class="gridmarker" x1="10" x2="310" y1="150" y2="150"/>
        <line class="gridmarker" x1="10" x2="310" y1="170" y2="170"/>
        <line class="gridmarker" x1="10" x2="310" y1="190" y2="190"/>
        <line class="gridmarker" x1="10" x2="310" y1="210" y2="210"/>
        <line class="gridmarker" x1="10" x2="310" y1="230" y2="230"/>
        <line class="gridmarker" x1="10" x2="310" y1="250" y2="250"/>
        <line class="gridmarker" x1="10" x2="310" y1="270" y2="270"/>
        <line class="gridmarker" x1="10" x2="310" y1="290" y2="290"/>
        <line class="gridmarker" x1="10" x2="310" y1="310" y2="310"/>
        <line class="gridmarker" x1="10" x2="310" y1="330" y2="330"/>
        <line class="gridmarker" x1="10" x2="310" y1="350" y2="350"/>
        <line class="gridmarker" x1="10" x2="310" y1="370" y2="370"/>
        <line class="gridmarker" x1="10" x2="310" y1="390" y2="390"/>
        <line class="gridmarker" x1="10" x2="310" y1="410" y2="410"/>
        <line class="gridmarker" x1="10" x2="310" y1="430" y2="430"/>
    </g>
    <g id="main" transform="scale(1,-1)">
        <line class="connection same" stroke="blue" x1="160" x2="160" y1="220" y2="240"/>
        <line class="connection same" stroke="blue" x1="160" x2="160" y1="240" y2="260"/>
        <line class="connection same" stroke="blue" x1="160" x2="160" y1="260" y2="280"/>
        <line class="connection same" stroke="blue" x1="160" x2="160" y1="280" y2="300"/>
        <line class="connection same" stroke="blue" x1="160" x2="160" y1="300" y2="320"/>
        <line class="connection same" stroke="blue" x1="160" x2="160" y1="320" y2="340"/>
        <line class="connection same" stroke="blue" x1="160" x2="140" y1="340" y2="340"/>
        <line class="connection same" stroke="blue" x1="140" x2="120" y1="340" y2="340"/>
        <line class="connection same" stroke="blue" x1="120" x2="100" y1="340" y2="340"/>
        <line class="connection same" stroke="blue" x1="160" x2="180" y1="340" y2="340"/>
        <line class="connection same" stroke="blue" x1="180" x2="200" y1="340" y2="340"/>
        <line class="connection same" stroke="blue" x1="200" x2="220" y1="340" y2="340"/>
        <line class="connection same" stroke="blue" x1="160" x2="160" y1="220" y2="200"/>
        <line class="connection same" stroke="blue" x1="160" x2="160" y1="200" y2="180"/>
        <line class="connection same" stroke="blue" x1="160" x2="160" y1="180" y2="160"/>
        <line class="connection same" stroke="blue" x1="160" x2="160" y1="160" y2="140"/>
        <line class="connection same" stroke="blue" x1="160" x2="160" y1="140" y2="120"/>
        <line class="connection same" stroke="blue" x1="160" x2="160" y1="120" y2="100"/>
        <line class="connection same" stroke="blue" x1="160" x2="140" y1="100" y2="100"/>
        <line class="connection same" stroke="blue" x1="140" x2="120" y1="100" y2="100"/>
        <line class="connection same" stroke="blue" x1="120" x2="100" y1="100" y2="100"/>
        <line class="connection same" stroke="blue" x1="160" x2="180" y1="100" y2="100"/>
        <line class="connection same" stroke="blue" x1="180" x2="200" y1="100" y2="100"/>
        <line class="connection same" stroke="blue" x1="200" x2="220" y1="100" y2="100"/>
        <line class="connection same" stroke="blue" x1="320" x2="300" y1="220" y2="220"/>
        <line class="connection same" stroke="blue" x1="300" x2="280" y1="220" y2="220"/>
        <line class="connection same" stroke="blue" x1="280" x2="260" y1="220" y2="220"/>
        <line class="connection same" stroke="blue" x1="260" x2="240" y1="220" y2="220"/>
        <line class="connection same" stroke="blue" x1="240" x2="220" y1="220" y2="220"/>
        <line class="connection same" stroke="blue" x1="220" x2="200" y1="220" y2="220"/>
        <line class="connection same" stroke="blue" x1="200" x2="180" y1="220" y2="220"/>
        <line class="connection same" stroke="blue" x1="180" x2="160" y1="220" y2="220"/>
        <line class="connection same" stroke="red" x1="220" x2="220" y1="100" y2="120"/>
        <line class="connection same" stroke="red" x1="220" x2="220" y1="120" y2="140"/>
        <line class="connection same" stroke="red" x1="220" x2="200" y1="140" y2="140"/>
        <line class="connection same" stroke="red" x1="200" x2="180" y1="140" y2="140"/>
        <line class="connection same" stroke="red" x1="220" x2="240" y1="140" y2="140"/>
        <line class="connection same" stroke="red" x1="240" x2="260" y1="140" y2="140"/>
        <line class="connection same" stroke="red" x1="220" x2="220" y1="100" y2="80"/>
        <line class="connection same" stroke="red" x1="220" x2="220" y1="80" y2="60"/>
        <line class="connection same" stroke="red" x1="220" x2="200" y1="60" y2="60"/>
        <line class="connection same" stroke="red" x1="200" x2="180" y1="60" y2="60"/>
        <line class="connection same" stroke="red" x1="220" x2="240" y1="60" y2="60"/>
        <line class="connection same" stroke="red" x1="240" x2="260" y1="60" y2="60"/>
        <line class="connection same" stroke="red" x1="100" x2="100" y1="100" y2="120"/>
        <line class="connection same" stroke="red" x1="100" x2="100" y1="120" y2="140"/>
        <line class="connection same" stroke="red" x1="100" x2="80" y1="140" y2="140"/>
        <line class="connection same" stroke="red" x1="80" x2="60" y1="140" y2="140"/>
        <line class="connection same" stroke="red" x1="100" x2="120" y1="140" y2="140"/>
        <line class="connection same" stroke="red" x1="120" x2="140" y1="140" y2="140"/>
        <line class="connection same" stroke="red" x1="100" x2="100" y1="100" y2="80"/>
        <line class="connection same" stroke="red" x1="100" x2="100" y1="80" y2="60"/>
        <line class="connection same" stroke="red" x1="100" x2="80" y1="60" y2="60"/>
        <line class="connection same" stroke="red" x1="80" x2="60" y1="60" y2="60"/>
        <line class="connection same" stroke="red" x1="100" x2="120" y1="60" y2="60"/>
        <line class="connection same" stroke="red" x1="120" x2="140" y1="60" y2="60"/>
        <line class="connection same" stroke="red" x1="220" x2="220" y1="340" y2="360"/>
        <line class="connection same" stroke="red" x1="220" x2="220" y1="360" y2="380"/>
        <line class="connection same" stroke="red" x1="220" x2="200" y1="380" y2="380"/>
        <line class="connection same" stroke="red" x1="200" x2="180" y1="380" y2="380"/>
        <line class="connection same" stroke="red" x1="220" x2="240" y1="380" y2="380"/>
        <line class="connection same" stroke="red" x1="240" x2="260" y1="380" y2="380"/>
        <line class="connection same" stroke="red" x1="220" x2="220" y1="340" y2="320"/>
        <line class="connection same" stroke="red" x1="220" x2="220" y1="320" y2="300"/>
        <line class="connection same" stroke="red" x1="220" x2="200" y1="300" y2="300"/>
        <line class="connection same" stroke="red" x1="200" x2="180" y1="300" y2="300"/>
        <line class="connection same" stroke="red" x1="220" x2="240" y1="300" y2="300"/>
        <line class="connection same" stroke="red" x1="240" x2="260" y1="300" y2="300"/>
        <line class="connection same" stroke="red" x1="100" x2="100" y1="340" y2="360"/>
        <line class="connection same" stroke="red" x1="100" x2="100" y1="360" y2="380"/>
        <line class="connection same" stroke="red" x1="100" x2="80" y1="380" y2="380"/>
        <line class="connection same" stroke="red" x1="80" x2="60" y1="380" y2="380"/>
        <line class="connection same" stroke="red" x1="100" x2="120" y1="380" y2="380"/>
        <line class="connection same" stroke="red" x1="120" x2="140" y1="380" y2="380"/>
        <line class="connection same" stroke="red" x1="100" x2="100" y1="340" y2="320"/>
        <line class="connection same" stroke="red" x1="100" x2="100" y1="320" y2="300"/>
        <line class="connection same" stroke="red" x1="100" x2="80" y1="300" y2="300"/>
        <line class="connection same" stroke="red" x1="80" x2="60" y1="300" y2="300"/>
        <line class="connection same" stroke="red" x1="100" x2="120" y1="300" y2="300"/>
        <line class="connection same" stroke="red" x1="120" x2="140" y1="300" y2="300"/>
        <line class="connection same" stroke="green" x1="260" x2="260" y1="60" y2="80"/>
        <line class="connection same" stroke="green" x1="260" x2="240" y1="80" y2="80"/>
        <line class="connection same" stroke="green" x1="260" x2="280" y1="80" y2="80"/>
        <line class="connection same" stroke="green" x1="260" x2="260" y1="60" y2="40"/>
        <line class="connection same" stroke="green" x1="260" x2="240" y1="40" y2="40"/>
        <line class="connection same" stroke="green" x1="260" x2="280" y1="40" y2="40"/>
        <line class="connection same" stroke="green" x1="60" x2="60" y1="60" y2="80"/>
        <line class="connection same" stroke="green" x1="60" x2="40" y1="80" y2="80"/>
        <line class="connection same" stroke="green" x1="60" x2="80" y1="80" y2="80"/>
        <line class="connection same" stroke="green" x1="60" x2="60" y1="60" y2="40"/>
        <line class="connection same" stroke="green" x1="60" x2="40" y1="40" y2="40"/>
        <line class="connection same" stroke="green" x1="60" x2="80" y1="40" y2="40"/>
        <line class="connection same" stroke="green" x1="260" x2="260" y1="140" y2="160"/>
        <line class="connection same" stroke="green" x1="260" x2="240" y1="160" y2="160"/>
        <line class="connection same" stroke="green" x1="260" x2="280" y1="160" y2="160"/>
        <line class="connection same" stroke="green" x1="260" x2="260" y1="140" y2="120"/>
        <line class="connection same" stroke="green" x1="260" x2="240" y1="120" y2="120"/>
        <line class="connection same" stroke="green" x1="260" x2="280" y1="120" y2="120"/>
        <line class="connection same" stroke="green" x1="60" x2="60" y1="140" y2="160"/>
        <line class="connection same" stroke="green" x1="60" x2="40" y1="160" y2="160"/>
        <line class="connection same" stroke="green" x1="60" x2="80" y1="160" y2="160"/>
        <line class="connection same" stroke="green" x1="60" x2="60" y1="140" y2="120"/>
        <line class="connection same" stroke="green" x1="60" x2="40" y1="120" y2="120"/>
        <line class="connection same" stroke="green" x1="60" x2="80" y1="120" y2="120"/>
        <line class="connection same" stroke="green" x1="260" x2="260" y1="300" y2="320"/>
        <line class="connection same" stroke="green" x1="260" x2="240" y1="320" y2="320"/>
        <line class="connection same" stroke="green" x1="260" x2="280" y1="320" y2="320"/>
        <line class="connection same" stroke="green" x1="260" x2="260" y1="300" y2="280"/>
        <line class="connection same" stroke="green" x1="260" x2="240" y1="280" y2="280"/>
        <line class="connection same" stroke="green" x1="260" x2="280" y1="280" y2="280"/>
        <line class="connection same" stroke="green" x1="60" x2="60" y1="300" y2="320"/>
        <line class="connection same" stroke="green" x1="60" x2="40" y1="320" y2="320"/>
        <line class="connection same" stroke="green" x1="60" x2="80" y1="320" y2="320"/>
        <line class="connection same" stroke="green" x1="60" x2="60" y1="300" y2="280"/>
        <line class="connection same" stroke="green" x1="60" x2="40" y1="280" y2="280"/>
        <line class="connection same" stroke="green" x1="60" x2="80" y1="280" y2="280"/>
        <line class="connection same" stroke="green" x1="260" x2="260" y1="380" y2="400"/>
        <line class="connection same" stroke="green" x1="260" x2="240" y1="400" y2="400"/>
        <line class="connection same" stroke="green" x1="260" x2="280" y1="400" y2="400"/>
        <line class="connection same" stroke="green" x1="260" x2="260" y1="380" y2="360"/>
        <line class="connection same" stroke="green" x1="260" x2="240" y1="360" y2="360"/>
        <line class="connection same" stroke="green" x1="260" x2="280" y1="360" y2="360"/>
        <line class="connection same" stroke="green" x1="60" x2="60" y1="380" y2="400"/>
        <line class="connection same" stroke="green" x1="60" x2="40" y1="400" y2="400"/>
        <line class="connection same" stroke="green" x1="60" x2="80" y1="400" y2="400"/>
        <line class="connection same" stroke="green" x1="60" x2="60" y1="380" y2="360"/>
        <line class="connection same" stroke="green" x1="60" x2="40" y1="360" y2="360"/>
        <line class="connection same" stroke="green" x1="60" x2="80" y1="360" y2="360"/>
        <line class="connection same" stroke="green" x1="180" x2="180" y1="60" y2="80"/>
        <line class="connection same" stroke="green" x1="180" x2="180" y1="60" y2="40"/>
        <line class="connection same" stroke="green" x1="140" x2="140" y1="60" y2="80"/>
        <line class="connection same" stroke="green" x1="140" x2="140" y1="60" y2="40"/>
        <line class="connection same" stroke="green" x1="180" x2="180" y1="140" y2="160"/>
        <line class="connection same" stroke="green" x1="180" x2="180" y1="140" y2="120"/>
        <line class="connection same" stroke="green" x1="140" x2="140" y1="140" y2="160"/>
        <line class="connection same" stroke="green" x1="140" x2="140" y1="140" y2="120"/>
        <line class="connection same" stroke="green" x1="180" x2="180" y1="300" y2="320"/>
        <line class="connection same" stroke="green" x1="180" x2="180" y1="300" y2="280"/>
        <line class="connection same" stroke="green" x1="140" x2="140" y1="300" y2="320"/>
        <line class="connection same" stroke="green" x1="140" x2="140" y1="300" y2="280"/>
        <line class="connection same" stroke="green" x1="180" x2="180" y1="380" y2="400"/>
        <line class="connection same" stroke="green" x1="180" x2="180" y1="380" y2="360"/>
        <line class="connection same" stroke="green" x1="160" x2="140" y1="380" y2="380"/>
        <line class="connection same" stroke="green" x1="140" x2="140" y1="380" y2="400"/>
        <line class="connection same" stroke="green" x1="140" x2="140" y1="380" y2="360"/>
        <line class="connection same" stroke="green" x1="140" x2="120" y1="40" y2="40"/>
        <line class="connection same" stroke="green" x1="140" x2="120" y1="80" y2="80"/>
        <line class="connection same" stroke="green" x1="140" x2="120" y1="120" y2="120"/>
        <line class="connection same" stroke="green" x1="140" x2="120" y1="160" y2="160"/>
        <line class="connection same" stroke="green" x1="140" x2="120" y1="280" y2="280"/>
        <line class="connection same" stroke="green" x1="140" x2="120" y1="320" y2="320"/>
        <line class="connection same" stroke="green" x1="140" x2="120" y1="360" y2="360"/>
        <line class="connection same" stroke="green" x1="140" x2="120" y1="400" y2="400"/>
        <line class="connection same" stroke="green" x1="180" x2="200" y1="40" y2="40"/>
        <line class="connection same" stroke="green" x1="180" x2="200" y1="80" y2="80"/>
        <line class="connection same" stroke="green" x1="180" x2="200" y1="120" y2="120"/>
        <line class="connection same" stroke="green" x1="180" x2="200" y1="160" y2="160"/>
        <line class="connection same" stroke="green" x1="180" x2="200" y1="280" y2="280"/>
        <line class="connection same" stroke="green" x1="180" x2="200" y1="320" y2="320"/>
        <line class="connection same" stroke="green" x1="180" x2="200" y1="360" y2="360"/>
        <line class="connection same" stroke="green" x1="180" x2="200" y1="400" y2="400"/>
        <line class="connection same" stroke="green" x1="40" x2="40" y1="280" y2="240"/>
        <line class="connection same" stroke="green" x1="40" x2="40" y1="160" y2="200"/>
        <line class="connection same" stroke="green" x1="80" x2="80" y1="280" y2="240"/>
        <line class="connection same" stroke="green" x1="80" x2="80" y1="160" y2="200"/>
        <line class="connection same" stroke="green" x1="120" x2="120" y1="280" y2="240"/>
        <line class="connection same" stroke="green" x1="120" x2="120" y1="160" y2="200"/>
        <line class="connection same" stroke="green" x1="200" x2="200" y1="280" y2="240"/>
        <line class="connection same" stroke="green" x1="200" x2="200" y1="160" y2="200"/>
        <line class="connection same" stroke="green" x1="240" x2="240" y1="280" y2="240"/>
        <line class="connection same" stroke="green" x1="240" x2="240" y1="160" y2="200"/>
        <line class="connection same" stroke="green" x1="280" x2="280" y1="280" y2="240"/>
        <line class="connection same" stroke="green" x1="280" x2="280" y1="160" y2="200"/>
        <line class="connection same" stroke="green" x1="140" x2="160" y1="40" y2="40"/>
        <line class="connection same" stroke="green" x1="140" x2="160" y1="400" y2="400"/>
        <line class="connection same" stroke="green" x1="180" x2="160" y1="80" y2="80"/>
        <line class="connection same" stroke="green" x1="180" x2="160" y1="360" y2="360"/>
        <line class="connection same" stroke="green" x1="40" x2="20" y1="40" y2="40"/>
        <line class="connection same" stroke="green" x1="280" x2="300" y1="40" y2="40"/>
        <line class="connection same" stroke="green" x1="40" x2="20" y1="80" y2="80"/>
        <line class="connection same" stroke="green" x1="280" x2="300" y1="80" y2="80"/>
        <line class="connection same" stroke="green" x1="40" x2="20" y1="120" y2="120"/>
        <line class="connection same" stroke="green" x1="280" x2="300" y1="120" y2="120"/>
        <line class="connection same" stroke="green" x1="40" x2="20" y1="160" y2="160"/>
        <line class="connection same" stroke="green" x1="280" x2="300" y1="160" y2="160"/>
        <line class="connection same" stroke="green" x1="40" x2="20" y1="200" y2="200"/>
        <line class="connection same" stroke="green" x1="280" x2="300" y1="200" y2="200"/>
        <line class="connection same" stroke="green" x1="40" x2="20" y1="240" y2="240"/>
        <line class="connection same" stroke="green" x1="280" x2="300" y1="240" y2="240"/>
        <line class="connection same" stroke="green" x1="40" x2="20" y1="280" y2="280"/>
        <line class="connection same" stroke="green" x1="280" x2="300" y1="280" y2="280"/>
        <line class="connection same" stroke="green" x1="40" x2="20" y1="320" y2="320"/>
        <line class="connection same" stroke="green" x1="280" x2="300" y1="320" y2="320"/>
        <line class="connection same" stroke="green" x1="40" x2="20" y1="360" y2="360"/>
        <line class="connection same" stroke="green" x1="280" x2="300" y1="360" y2="360"/>
        <line class="connection same" stroke="green" x1="40" x2="20" y1="400" y2="400"/>
        <line class="connection same" stroke="green" x1="280" x2="300" y1="400" y2="400"/>
        <line class="connection same" stroke="green" x1="40" x2="40" y1="40" y2="20"/>
        <line class="connection same" stroke="green" x1="40" x2="40" y1="400" y2="420"/>
        <line class="connection same" stroke="green" x1="80" x2="80" y1="40" y2="20"/>
        <line class="connection same" stroke="green" x1="80" x2="80" y1="400" y2="420"/>
        <line class="connection same" stroke="green" x1="120" x2="120" y1="40" y2="20"/>
        <line class="connection same" stroke="green" x1="120" x2="120" y1="400" y2="420"/>
        <line class="connection same" stroke="green" x1="160" x2="160" y1="40" y2="20"/>
        <line class="connection same" stroke="green" x1="160" x2="160" y1="400" y2="420"/>
        <line class="connection same" stroke="green" x1="200" x2="200" y1="40" y2="20"/>
        <line class="connection same" stroke="green" x1="200" x2="200" y1="400" y2="420"/>
        <line class="connection same" stroke="green" x1="240" x2="240" y1="40" y2="20"/>
        <line class="connection same" stroke="green" x1="240" x2="240" y1="400" y2="420"/>
        <line class="connection same" stroke="green" x1="280" x2="280" y1="40" y2="20"/>
        <line class="connection same" stroke="green" x1="280" x2="280" y1="400" y2="420"/>
        <g id="text">
            <text alignment-baseline="middle" class="moduleLabel" fill="black" font-size="42.0" text-anchor="middle" transform="scale(1,-1)" x="160.0" y="10.0">6X9 CT</text>
        </g>
        <g id="sink_pts">
            <rect class="sink_point" height="20" opacity="0.2" width="20" x="30" y="30"/>
            <rect class="sink_point" height="20" opacity="0.2" width="20" x="70" y="30"/>
            <rect class="sink_point" height="20" opacity="0.2" width="20" x="110" y="30"/>
            <rect class="sink_point" height="20" opacity="0.2" width="20" x="150" y="30"/>
            <rect class="sink_point" height="20" opacity="0.2" width="20" x="190" y="30"/>
            <rect class="sink_point" height="20" opacity="0.2" width="20" x="230" y="30"/>
            <rect class="sink_point" height="20" opacity="0.2" width="20" x="270" y="30"/>
            <rect class="sink_point" height="20" opacity="0.2" width="20" x="10" y="30"/>
            <rect class="sink_point" height="20" opacity="0.2" width="20" x="290" y="30"/>
            <rect class="sink_point" height="20" opacity="0.2" width="20" x="30" y="70"/>
            <rect class="sink_point" height="20" opacity="0.2" width="20" x="70" y="70"/>
            <rect class="sink_point" height="20" opacity="0.2" width="20" x="110" y="70"/>
            <rect class="sink_point" height="20" opacity="0.2" width="20" x="150" y="70"/>
            <rect class="sink_point" height="20" opacity="0.2" width="20" x="190" y="70"/>
            <rect class="sink_point" height="20" opacity="0.2" width="20" x="230" y="70"/>
            <rect class="sink_point" height="20" opacity="0.2" width="20" x="270" y="70"/>
            <rect class="sink_point" height="20" opacity="0.2" width="20" x="10" y="70"/>
            <rect class="sink_point" height="20" opacity="0.2" width="20" x="290" y="70"/>
            <rect class="sink_point" height="20" opacity="0.2" width="20" x="30" y="110"/>
            <rect class="sink_point" height="20" opacity="0.2" width="20" x="70" y="110"/>
            <rect class="sink_point" height="20" opacity="0.2" width="20" x="110" y="110"/>
            <rect class="sink_point" height="20" opacity="0.2" width="20" x="150" y="110"/>
            <rect class="sink_point" height="20" opacity="0.2" width="20" x="190" y="110"/>
            <rect class="sink_point" height="20" opacity="0.2" width="20" x="230" y="110"/>
            <rect class="sink_point" height="20" opacity="0.2" width="20" x="270" y="110"/>
            <rect class="sink_point" height="20" opacity="0.2" width="20" x="10" y="110"/>
            <rect class="sink_point" height="20" opacity="0.2" width="20" x="290" y="110"/>
            <rect class="sink_point" height="20" opacity="0.2" width="20" x="30" y="150"/>
            <rect class="sink_point" height="20" opacity="0.2" width="20" x="70" y="150"/>
            <rect class="sink_point" height="20" opacity="0.2" width="20" x="110" y="150"/>
            <rect class="sink_point" height="20" opacity="0.2" width="20" x="150" y="150"/>
            <rect class="sink_point" height="20" opacity="0.2" width="20" x="190" y="150"/>
            <rect class="sink_point" height="20" opacity="0.2" width="20" x="230" y="150"/>
            <rect class="sink_point" height="20" opacity="0.2" width="20" x="270" y="150"/>
            <rect class="sink_point" height="20" opacity="0.2" width="20" x="10" y="150"/>
            <rect class="sink_point" height="20" opacity="0.2" width="20" x="290" y="150"/>
            <rect class="sink_point" height="20" opacity="0.2" width="20" x="30" y="190"/>
            <rect class="sink_point" height="20" opacity="0.2" width="20" x="70" y="190"/>
            <rect class="sink_point" height="20" opacity="0.2" width="20" x="110" y="190"/>
            <rect class="sink_point" height="20" opacity="0.2" width="20" x="150" y="190"/>
            <rect class="sink_point" height="20" opacity="0.2" width="20" x="190" y="190"/>
            <rect class="sink_point" height="20" opacity="0.2" width="20" x="230" y="190"/>
            <rect class="sink_point" height="20" opacity="0.2" width="20" x="270" y="190"/>
            <rect class="sink_point" height="20" opacity="0.2" width="20" x="10" y="190"/>
            <rect class="sink_point" height="20" opacity="0.2" width="20" x="290" y="190"/>
            <rect class="sink_point" height="20" opacity="0.2" width="20" x="30" y="230"/>
            <rect class="sink_point" height="20" opacity="0.2" width="20" x="70" y="230"/>
            <rect class="sink_point" height="20" opacity="0.2" width="20" x="110" y="230"/>
            <rect class="sink_point" height="20" opacity="0.2" width="20" x="150" y="230"/>
            <rect class="sink_point" height="20" opacity="0.2" width="20" x="190" y="230"/>
            <rect class="sink_point" height="20" opacity="0.2" width="20" x="230" y="230"/>
            <rect class="sink_point" height="20" opacity="0.2" width="20" x="270" y="230"/>
            <rect class="sink_point" height="20" opacity="0.2" width="20" x="10" y="230"/>
            <rect class="sink_point" height="20" opacity="0.2" width="20" x="290" y="230"/>
            <rect class="sink_point" height="20" opacity="0.2" width="20" x="30" y="270"/>
            <rect class="sink_point" height="20" opacity="0.2" width="20" x="70" y="270"/>
            <rect class="sink_point" height="20" opacity="0.2" width="20" x="110" y="270"/>
            <rect class="sink_point" height="20" opacity="0.2" width="20" x="150" y="270"/>
            <rect class="sink_point" height="20" opacity="0.2" width="20" x="190" y="270"/>
            <rect class="sink_point" height="20" opacity="0.2" width="20" x="230" y="270"/>
            <rect class="sink_point" height="20" opacity="0.2" width="20" x="270" y="270"/>
            <rect class="sink_point" height="20" opacity="0.2" width="20" x="10" y="270"/>
            <rect class="sink_point" height="20" opacity="0.2" width="20" x="290" y="270"/>
            <rect class="sink_point" height="20" opacity="0.2" width="20" x="30" y="310"/>
            <rect class="sink_point" height="20" opacity="0.2" width="20" x="70" y="310"/>
            <rect class="sink_point" height="20" opacity="0.2" width="20" x="110" y="310"/>
            <rect class="sink_point" height="20" opacity="0.2" width="20" x="150" y="310"/>
            <rect class="sink_point" height="20" opacity="0.2" width="20" x="190" y="310"/>
            <rect class="sink_point" height="20" opacity="0.2" width="20" x="230" y="310"/>
            <rect class="sink_point" height="20" opacity="0.2" width="20" x="270" y="310"/>
            <rect class="sink_point" height="20" opacity="0.2" width="20" x="10" y="310"/>
            <rect class="sink_point" height="20" opacity="0.2" width="20" x="290" y="310"/>
            <rect class="sink_point" height="20" opacity="0.2" width="20" x="30" y="350"/>
            <rect class="sink_point" height="20" opacity="0.2" width="20" x="70" y="350"/>
            <rect class="sink_point" height="20" opacity="0.2" width="20" x="110" y="350"/>
            <rect class="sink_point" height="20" opacity="0.2" width="20" x="150" y="350"/>
            <rect class="sink_point" height="20" opacity="0.2" width="20" x="190" y="350"/>
            <rect class="sink_point" height="20" opacity="0.2" width="20" x="230" y="350"/>
            <rect class="sink_point" height="20" opacity="0.2" width="20" x="270" y="350"/>
            <rect class="sink_point" height="20" opacity="0.2" width="20" x="10" y="350"/>
            <rect class="sink_point" height="20" opacity="0.2" width="20" x="290" y="350"/>
            <rect class="sink_point" height="20" opacity="0.2" width="20" x="30" y="390"/>
            <rect class="sink_point" height="20" opacity="0.2" width="20" x="70" y="390"/>
            <rect class="sink_point" height="20" opacity="0.2" width="20" x="110" y="390"/>
            <rect class="sink_point" height="20" opacity="0.2" width="20" x="150" y="390"/>
            <rect class="sink_point" height="20" opacity="0.2" width="20" x="190" y="390"/>
            <rect class="sink_point" height="20" opacity="0.2" width="20" x="230" y="390"/>
            <rect class="sink_point" height="20" opacity="0.2" width="20" x="270" y="390"/>
            <rect class="sink_point" height="20" opacity="0.2" width="20" x="10" y="390"/>
            <rect class="sink_point" height="20" opacity="0.2" width="20" x="290" y="390"/>
            <rect class="sink_point" height="20" opacity="0.2" width="20" x="30" y="10"/>
            <rect class="sink_point" height="20" opacity="0.2" width="20" x="70" y="10"/>
            <rect class="sink_point" height="20" opacity="0.2" width="20" x="110" y="10"/>
            <rect class="sink_point" height="20" opacity="0.2" width="20" x="150" y="10"/>
            <rect class="sink_point" height="20" opacity="0.2" width="20" x="190" y="10"/>
            <rect class="sink_point" height="20" opacity="0.2" width="20" x="230" y="10"/>
            <rect class="sink_point" height="20" opacity="0.2" width="20" x="270" y="10"/>
            <rect class="sink_point" height="20" opacity="0.2" width="20" x="30" y="410"/>
            <rect class="sink_point" height="20" opacity="0.2" width="20" x="70" y="410"/>
            <rect class="sink_point" height="20" opacity="0.2" width="20" x="110" y="410"/>
            <rect class="sink_point" height="20" opacity="0.2" width="20" x="150" y="410"/>
            <rect class="sink_point" height="20" opacity="0.2" width="20" x="190" y="410"/>
            <rect class="sink_point" height="20" opacity="0.2" width="20" x="230" y="410"/>
            <rect class="sink_point" height="20" opacity="0.2" width="20" x="270" y="410"/>
        </g>
    </g>
</svg>
