<svg xmlns="http://www.w3.org/2000/svg" xmlns:xlink="http://www.w3.org/1999/xlink" xmlns:s="https://github.com/nturley/netlistsvg" width="589" height="220.33333333333334"><style>    svg {
    stroke:green;
    fill:none;
    }
    text {
    fill:blue;
    stroke:none;
    font-size:10px;
    font-weight: bold;
    font-family: "Courier New", monospace;
    }
    line {
    stroke-linecap: round;
    }
    .nodelabel {
    text-anchor: middle;
    }
    .inputPortLabel {
    text-anchor: end;
    }
    .splitjoinBody {
    fill:green;
    }</style><g s:type="sub_odd" transform="translate(349,89.66666666666667)" s:width="30" s:height="40" id="cell_inst_1_0"><text x="0" y="-4" class="nodelabel cell_inst_1_0" s:attribute="ref">inst_1_0</text><rect width="0" height="0" s:generic="body" fill="#e9e9e9" rx="4" class="cell_inst_1_0"/><g transform="translate(-1,-0.33333333333333215)" s:x="0" s:y="10" s:pid="in0" id="port_inst_1_0~in0"><text x="-3" y="-4" class="inputPortLabel cell_inst_1_0">in0</text></g><g transform="translate(-1,-0.6666666666666661)" s:x="0" s:y="10" s:pid="in0" id="port_inst_1_0~in1"><text x="-3" y="-4" class="inputPortLabel cell_inst_1_0">in1</text></g><g transform="translate(0,0)" s:x="30" s:y="10" s:pid="out0" id="port_inst_1_0~out"><text x="5" y="-4" style="stroke:none" class="cell_inst_1_0">out</text></g></g><g s:type="sub_odd" transform="translate(452,90)" s:width="30" s:height="40" id="cell_inst_1_1"><text x="0" y="-4" class="nodelabel cell_inst_1_1" s:attribute="ref">inst_1_1</text><rect width="0" height="0" s:generic="body" fill="#e9e9e9" rx="4" class="cell_inst_1_1"/><g transform="translate(-1,-0.33333333333333215)" s:x="0" s:y="10" s:pid="in0" id="port_inst_1_1~in0"><text x="-3" y="-4" class="inputPortLabel cell_inst_1_1">in0</text></g><g transform="translate(-1,-0.6666666666666661)" s:x="0" s:y="10" s:pid="in0" id="port_inst_1_1~in1"><text x="-3" y="-4" class="inputPortLabel cell_inst_1_1">in1</text></g><g transform="translate(0,0)" s:x="30" s:y="10" s:pid="out0" id="port_inst_1_1~out"><text x="5" y="-4" style="stroke:none" class="cell_inst_1_1">out</text></g></g><g s:type="sub_odd" transform="translate(207,188.16666666666669)" s:width="30" s:height="40" id="cell_inst_2_0"><text x="0" y="-4" class="nodelabel cell_inst_2_0" s:attribute="ref">inst_2_0</text><rect width="0" height="0" s:generic="body" fill="#e9e9e9" rx="4" class="cell_inst_2_0"/><g transform="translate(-1,-0.33333333333333215)" s:x="0" s:y="10" s:pid="in0" id="port_inst_2_0~in0"><text x="-3" y="-4" class="inputPortLabel cell_inst_2_0">in0</text></g><g transform="translate(-1,-0.6666666666666661)" s:x="0" s:y="10" s:pid="in0" id="port_inst_2_0~in1"><text x="-3" y="-4" class="inputPortLabel cell_inst_2_0">in1</text></g><g transform="translate(0,0)" s:x="30" s:y="10" s:pid="out0" id="port_inst_2_0~out"><text x="5" y="-4" style="stroke:none" class="cell_inst_2_0">out</text></g></g><g s:type="sub_odd" transform="translate(349,188.5)" s:width="30" s:height="40" id="cell_inst_2_1"><text x="0" y="-4" class="nodelabel cell_inst_2_1" s:attribute="ref">inst_2_1</text><rect width="0" height="0" s:generic="body" fill="#e9e9e9" rx="4" class="cell_inst_2_1"/><g transform="translate(-1,-0.33333333333333215)" s:x="0" s:y="10" s:pid="in0" id="port_inst_2_1~in0"><text x="-3" y="-4" class="inputPortLabel cell_inst_2_1">in0</text></g><g transform="translate(-1,-0.6666666666666661)" s:x="0" s:y="10" s:pid="in0" id="port_inst_2_1~in1"><text x="-3" y="-4" class="inputPortLabel cell_inst_2_1">in1</text></g><g transform="translate(0,0)" s:x="30" s:y="10" s:pid="out0" id="port_inst_2_1~out"><text x="5" y="-4" style="stroke:none" class="cell_inst_2_1">out</text></g></g><g s:type="inputExt" transform="translate(12,188.33333333333334)" s:width="30" s:height="20" id="cell_in0"><text x="15" y="-4" class="nodelabel cell_in0" s:attribute="ref">in0</text><s:alias val="$_inputExt_"/><path d="M0,0 L0,20 L15,20 L30,10 L15,0 Z" fill="#ffffff" class="cell_in0"/><g s:x="30" s:y="10" s:pid="Y"/></g><g s:type="inputExt" transform="translate(12,68.83333333333334)" s:width="30" s:height="20" id="cell_in1"><text x="15" y="-4" class="nodelabel cell_in1" s:attribute="ref">in1</text><s:alias val="$_inputExt_"/><path d="M0,0 L0,20 L15,20 L30,10 L15,0 Z" fill="#ffffff" class="cell_in1"/><g s:x="30" s:y="10" s:pid="Y"/></g><g s:type="inputExt" transform="translate(329,22)" s:width="30" s:height="20" id="cell_in3"><text x="15" y="-4" class="nodelabel cell_in3" s:attribute="ref">in3</text><s:alias val="$_inputExt_"/><path d="M0,0 L0,20 L15,20 L30,10 L15,0 Z" fill="#ffffff" class="cell_in3"/><g s:x="30" s:y="10" s:pid="Y"/></g><g s:type="inputExt" transform="translate(77,110.83333333333334)" s:width="30" s:height="20" id="cell_bus_in"><text x="15" y="-4" class="nodelabel cell_bus_in" s:attribute="ref">bus_in</text><s:alias val="$_inputExt_"/><path d="M0,0 L0,20 L15,20 L30,10 L15,0 Z" fill="#ffffff" class="cell_bus_in"/><g s:x="30" s:y="10" s:pid="Y"/></g><g s:type="outputExt" transform="translate(535,80.5)" s:width="30" s:height="20" id="cell_out0"><text x="15" y="-4" class="nodelabel cell_out0" s:attribute="ref">out0</text><s:alias val="$_outputExt_"/><path d="M30,0 L30,20 L15,20 L0,10 L15,0 Z" fill="#ffffff" class="cell_out0"/><g s:x="0" s:y="10" s:pid="A"/></g><g s:type="outputExt" transform="translate(535,179)" s:width="30" s:height="20" id="cell_bus_out"><text x="15" y="-4" class="nodelabel cell_bus_out" s:attribute="ref">bus_out</text><s:alias val="$_outputExt_"/><path d="M30,0 L30,20 L15,20 L0,10 L15,0 Z" fill="#ffffff" class="cell_bus_out"/><g s:x="0" s:y="10" s:pid="A"/></g><g s:type="join" transform="translate(90,167.83333333333334)" s:width="5" s:height="40" id="cell_$join$,3,2,"><rect width="5" height="40" class="splitjoinBody" s:generic="body"/><s:alias val="$_join_"/><g s:x="5" s:y="20" s:pid="out"/><g transform="translate(-1,10)" s:x="-1" s:y="10" s:pid="in0"><text x="-3" y="-4" class="inputPortLabel">0</text></g><g transform="translate(-1,30)" s:x="-1" s:y="10" s:pid="in0"><text x="-3" y="-4" class="inputPortLabel">1</text></g></g><line x1="42" x2="52" y1="198.33333333333334" y2="198.33333333333334" class="net_2 width_1" style="stroke-width: 1"/><line x1="52" x2="52" y1="198.33333333333334" y2="89.83333333333334" class="net_2 width_1" style="stroke-width: 1"/><circle cx="52" cy="198.33333333333334" r="2" style="fill:#000" class="net_2 width_1"/><line x1="52" x2="348" y1="89.83333333333334" y2="89.83333333333334" class="net_2 width_1" style="stroke-width: 1"/><line x1="42" x2="89" y1="198.33333333333334" y2="198.33333333333334" class="net_2 width_1" style="stroke-width: 1"/><line x1="42" x2="304" y1="78.83333333333334" y2="78.83333333333334" class="net_3 width_1" style="stroke-width: 1"/><line x1="304" x2="304" y1="78.83333333333334" y2="89.5" class="net_3 width_1" style="stroke-width: 1"/><line x1="304" x2="348" y1="89.5" y2="89.5" class="net_3 width_1" style="stroke-width: 1"/><line x1="42" x2="62" y1="78.83333333333334" y2="78.83333333333334" class="net_3 width_1" style="stroke-width: 1"/><line x1="62" x2="62" y1="78.83333333333334" y2="178.33333333333334" class="net_3 width_1" style="stroke-width: 1"/><circle cx="62" cy="78.83333333333334" r="2" style="fill:#000" class="net_3 width_1"/><line x1="62" x2="89" y1="178.33333333333334" y2="178.33333333333334" class="net_3 width_1" style="stroke-width: 1"/><line x1="350" x2="451" y1="90.16666666666667" y2="90.16666666666667" class="net_10 width_1" style="stroke-width: 1"/><line x1="359" x2="407" y1="32" y2="32" class="net_4 width_1" style="stroke-width: 1"/><line x1="407" x2="407" y1="32" y2="89.83333333333333" class="net_4 width_1" style="stroke-width: 1"/><line x1="407" x2="451" y1="89.83333333333333" y2="89.83333333333333" class="net_4 width_1" style="stroke-width: 1"/><line x1="96" x2="206" y1="188.33333333333334" y2="188.33333333333334" class="net_3,2 width_2" style="stroke-width: 2"/><line x1="107" x2="162" y1="120.83333333333334" y2="120.83333333333334" class="net_5,6 width_2" style="stroke-width: 2"/><line x1="162" x2="162" y1="120.83333333333334" y2="188" class="net_5,6 width_2" style="stroke-width: 2"/><line x1="162" x2="206" y1="188" y2="188.00000000000003" class="net_5,6 width_2" style="stroke-width: 2"/><line x1="208" x2="348" y1="188.66666666666669" y2="188.66666666666666" class="net_11,12 width_2" style="stroke-width: 2"/><line x1="208" x2="265" y1="188.66666666666669" y2="188.66666666666669" class="net_11,12 width_2" style="stroke-width: 2"/><line x1="265" x2="265" y1="188.66666666666669" y2="168.66666666666669" class="net_11,12 width_2" style="stroke-width: 2"/><line x1="265" x2="304" y1="168.66666666666669" y2="168.66666666666669" class="net_11,12 width_2" style="stroke-width: 2"/><line x1="304" x2="304" y1="168.66666666666669" y2="188.33333333333334" class="net_11,12 width_2" style="stroke-width: 2"/><circle cx="265" cy="188.66666666666669" r="3" style="fill:#000" class="net_11,12 width_2"/><line x1="304" x2="348" y1="188.33333333333334" y2="188.33333333333334" class="net_11,12 width_2" style="stroke-width: 2"/><line x1="453" x2="535" y1="90.5" y2="90.5" class="net_7 width_1" style="stroke-width: 1"/><line x1="350" x2="535" y1="189" y2="189" class="net_8,9 width_2" style="stroke-width: 2"/><rect x="149" y="183.33333333333334" width="16" height="9" class="net_3,2 width_2 busLabel_2" style="fill: white; stroke: none"/><text x="148" y="191.33333333333334" class="net_3,2 width_2 busLabel_2">/2/</text><rect x="149" y="115.83333333333334" width="16" height="9" class="net_5,6 width_2 busLabel_2" style="fill: white; stroke: none"/><text x="148" y="123.83333333333334" class="net_5,6 width_2 busLabel_2">/2/</text><rect x="291" y="163.66666666666669" width="16" height="9" class="net_11,12 width_2 busLabel_2" style="fill: white; stroke: none"/><text x="290" y="171.66666666666669" class="net_11,12 width_2 busLabel_2">/2/</text><rect x="291" y="163.66666666666669" width="16" height="9" class="net_11,12 width_2 busLabel_2" style="fill: white; stroke: none"/><text x="290" y="171.66666666666669" class="net_11,12 width_2 busLabel_2">/2/</text><rect x="465" y="184" width="16" height="9" class="net_8,9 width_2 busLabel_2" style="fill: white; stroke: none"/><text x="464" y="192" class="net_8,9 width_2 busLabel_2">/2/</text></svg>