<svg xmlns="http://www.w3.org/2000/svg" xmlns:xlink="http://www.w3.org/1999/xlink" xmlns:s="https://github.com/nturley/netlistsvg" width="410" height="274.5">
  <style>svg {
    stroke:#000;
    fill:none;
  }
  text {
    fill:#000;
    stroke:none;
    font-size:10px;
    font-weight: bold;
    font-family: "Courier New", monospace;
  }
  .nodelabel {
    text-anchor: middle;
  }
  .inputPortLabel {
    text-anchor: end;
  }
  .splitjoinBody {
    fill:#000;
  }</style>
  <g s:type="generic" transform="translate(167,64)" s:width="30" s:height="40" id="cell_inst_1_0">
    <text x="15" y="-4" class="nodelabel cell_inst_1_0" s:attribute="ref">inst_1_0</text>
    <rect width="30" height="40" s:generic="body" class="cell_inst_1_0"/>
    <g transform="translate(0,10)" s:x="0" s:y="10" s:pid="in0" id="port_inst_1_0~in0">
      <text x="-3" y="-4" class="inputPortLabel cell_inst_1_0">in0</text>
    </g>
    <g transform="translate(0,30)" s:x="0" s:y="10" s:pid="in0" id="port_inst_1_0~in1">
      <text x="-3" y="-4" class="inputPortLabel cell_inst_1_0">in1</text>
    </g>
    <g transform="translate(30,10)" s:x="30" s:y="10" s:pid="out0" id="port_inst_1_0~out">
      <text x="5" y="-4" style="fill:#000; stroke:none" class="cell_inst_1_0">out</text>
    </g>
  </g>
  <g s:type="generic" transform="translate(271,131.5)" s:width="30" s:height="40" id="cell_inst_1_1">
    <text x="15" y="-4" class="nodelabel cell_inst_1_1" s:attribute="ref">inst_1_1</text>
    <rect width="30" height="40" s:generic="body" class="cell_inst_1_1"/>
    <g transform="translate(0,10)" s:x="0" s:y="10" s:pid="in0" id="port_inst_1_1~in0">
      <text x="-3" y="-4" class="inputPortLabel cell_inst_1_1">in0</text>
    </g>
    <g transform="translate(0,30)" s:x="0" s:y="10" s:pid="in0" id="port_inst_1_1~in1">
      <text x="-3" y="-4" class="inputPortLabel cell_inst_1_1">in1</text>
    </g>
    <g transform="translate(30,10)" s:x="30" s:y="10" s:pid="out0" id="port_inst_1_1~out">
      <text x="5" y="-4" style="fill:#000; stroke:none" class="cell_inst_1_1">out</text>
    </g>
  </g>
  <g s:type="generic" transform="translate(167,219.5)" s:width="30" s:height="40" id="cell_inst_2_0">
    <text x="15" y="-4" class="nodelabel cell_inst_2_0" s:attribute="ref">inst_2_0</text>
    <rect width="30" height="40" s:generic="body" class="cell_inst_2_0"/>
    <g transform="translate(0,10)" s:x="0" s:y="10" s:pid="in0" id="port_inst_2_0~in0">
      <text x="-3" y="-4" class="inputPortLabel cell_inst_2_0">in0</text>
    </g>
    <g transform="translate(0,30)" s:x="0" s:y="10" s:pid="in0" id="port_inst_2_0~in1">
      <text x="-3" y="-4" class="inputPortLabel cell_inst_2_0">in1</text>
    </g>
    <g transform="translate(30,10)" s:x="30" s:y="10" s:pid="out0" id="port_inst_2_0~out">
      <text x="5" y="-4" style="fill:#000; stroke:none" class="cell_inst_2_0">out</text>
    </g>
  </g>
  <g s:type="generic" transform="translate(271,219.5)" s:width="30" s:height="40" id="cell_inst_2_1">
    <text x="15" y="-4" class="nodelabel cell_inst_2_1" s:attribute="ref">inst_2_1</text>
    <rect width="30" height="40" s:generic="body" class="cell_inst_2_1"/>
    <g transform="translate(0,10)" s:x="0" s:y="10" s:pid="in0" id="port_inst_2_1~in0">
      <text x="-3" y="-4" class="inputPortLabel cell_inst_2_1">in0</text>
    </g>
    <g transform="translate(0,30)" s:x="0" s:y="10" s:pid="in0" id="port_inst_2_1~in1">
      <text x="-3" y="-4" class="inputPortLabel cell_inst_2_1">in1</text>
    </g>
    <g transform="translate(30,10)" s:x="30" s:y="10" s:pid="out0" id="port_inst_2_1~out">
      <text x="5" y="-4" style="fill:#000; stroke:none" class="cell_inst_2_1">out</text>
    </g>
  </g>
  <g s:type="inputExt" transform="translate(12,64.5)" s:width="30" s:height="20" id="cell_in0">
    <text x="15" y="-4" class="nodelabel cell_in0" s:attribute="ref">in0</text>
    <s:alias val="$_inputExt_"/>
    <path d="M0,0 L0,20 L15,20 L30,10 L15,0 Z" class="cell_in0"/>
    <g s:x="28" s:y="10" s:pid="Y"/>
  </g>
  <g s:type="inputExt" transform="translate(12,155.5)" s:width="30" s:height="20" id="cell_in1">
    <text x="15" y="-4" class="nodelabel cell_in1" s:attribute="ref">in1</text>
    <s:alias val="$_inputExt_"/>
    <path d="M0,0 L0,20 L15,20 L30,10 L15,0 Z" class="cell_in1"/>
    <g s:x="28" s:y="10" s:pid="Y"/>
  </g>
  <g s:type="inputExt" transform="translate(167,152)" s:width="30" s:height="20" id="cell_in3">
    <text x="15" y="-4" class="nodelabel cell_in3" s:attribute="ref">in3</text>
    <s:alias val="$_inputExt_"/>
    <path d="M0,0 L0,20 L15,20 L30,10 L15,0 Z" class="cell_in3"/>
    <g s:x="28" s:y="10" s:pid="Y"/>
  </g>
  <g s:type="inputExt" transform="translate(77,240)" s:width="30" s:height="20" id="cell_bus_in">
    <text x="15" y="-4" class="nodelabel cell_bus_in" s:attribute="ref">bus_in</text>
    <s:alias val="$_inputExt_"/>
    <path d="M0,0 L0,20 L15,20 L30,10 L15,0 Z" class="cell_bus_in"/>
    <g s:x="28" s:y="10" s:pid="Y"/>
  </g>
  <g s:type="outputExt" transform="translate(356,132)" s:width="30" s:height="20" id="cell_out0">
    <text x="15" y="-4" class="nodelabel cell_out0" s:attribute="ref">out0</text>
    <s:alias val="$_outputExt_"/>
    <path d="M30,0 L30,20 L15,20 L0,10 L15,0 Z" class="cell_out0"/>
    <g s:x="0" s:y="10" s:pid="A"/>
  </g>
  <g s:type="outputExt" transform="translate(356,220)" s:width="30" s:height="20" id="cell_bus_out">
    <text x="15" y="-4" class="nodelabel cell_bus_out" s:attribute="ref">bus_out</text>
    <s:alias val="$_outputExt_"/>
    <path d="M30,0 L30,20 L15,20 L0,10 L15,0 Z" class="cell_bus_out"/>
    <g s:x="0" s:y="10" s:pid="A"/>
  </g>
  <g s:type="inputExt" transform="translate(12,22)" s:width="30" s:height="20" id="cell_A">
    <text x="15" y="-4" class="nodelabel cell_A" s:attribute="ref">A</text>
    <s:alias val="$_inputExt_"/>
    <path d="M0,0 L0,20 L15,20 L30,10 L15,0 Z" class="cell_A"/>
    <g s:x="28" s:y="10" s:pid="Y"/>
  </g>
  <g s:type="outputExt" transform="translate(77,22)" s:width="30" s:height="20" id="cell_Aout">
    <text x="15" y="-4" class="nodelabel cell_Aout" s:attribute="ref">Aout</text>
    <s:alias val="$_outputExt_"/>
    <path d="M30,0 L30,20 L15,20 L0,10 L15,0 Z" class="cell_Aout"/>
    <g s:x="0" s:y="10" s:pid="A"/>
  </g>
  <g s:type="join" transform="translate(90,155)" s:width="4" s:height="40" id="cell_$join$,3,2,">
    <rect width="5" height="40" class="splitjoinBody" s:generic="body"/>
    <s:alias val="$_join_"/>
    <g s:x="5" s:y="20" s:pid="out"/>
    <g transform="translate(0,10)" s:x="0" s:y="10" s:pid="in0">
      <text x="-3" y="-4" class="inputPortLabel">0</text>
    </g>
    <g transform="translate(0,30)" s:x="0" s:y="10" s:pid="in0">
      <text x="-3" y="-4" class="inputPortLabel">1</text>
    </g>
  </g>
  <line x1="40" x2="167" y1="74.5" y2="74.5" class="net_2"/>
  <line x1="40" x2="52" y1="74.5" y2="74.5" class="net_2"/>
  <line x1="52" x2="52" y1="74.5" y2="185.5" class="net_2"/>
  <circle cx="52" cy="74.5" r="2" style="fill:#000" class="net_2"/>
  <line x1="52" x2="90" y1="185.5" y2="185.5" class="net_2"/>
  <line x1="40" x2="62" y1="165.5" y2="165.5" class="net_3"/>
  <line x1="62" x2="62" y1="165.5" y2="94.5" class="net_3"/>
  <circle cx="62" cy="165.5" r="2" style="fill:#000" class="net_3"/>
  <line x1="62" x2="167" y1="94.5" y2="94.5" class="net_3"/>
  <line x1="40" x2="90" y1="165.5" y2="165.5" class="net_3"/>
  <line x1="198" x2="227" y1="74.5" y2="74.5" class="net_11"/>
  <line x1="227" x2="227" y1="74.5" y2="142" class="net_11"/>
  <line x1="227" x2="271" y1="142" y2="142" class="net_11"/>
  <line x1="195" x2="271" y1="162" y2="162" class="net_4"/>
  <line x1="96" x2="123" y1="175.5" y2="175.5" class="net_3,2"/>
  <line x1="123" x2="123" y1="175.5" y2="230" class="net_3,2"/>
  <line x1="123" x2="167" y1="230" y2="230" class="net_3,2"/>
  <line x1="105" x2="167" y1="250" y2="250" class="net_5,6"/>
  <line x1="198" x2="271" y1="230" y2="230" class="net_12,13"/>
  <line x1="198" x2="227" y1="230" y2="230" class="net_12,13"/>
  <line x1="227" x2="227" y1="230" y2="250" class="net_12,13"/>
  <circle cx="227" cy="230" r="2" style="fill:#000" class="net_12,13"/>
  <line x1="227" x2="271" y1="250" y2="250" class="net_12,13"/>
  <line x1="302" x2="356" y1="142" y2="142" class="net_7"/>
  <line x1="302" x2="356" y1="230" y2="230" class="net_8,9"/>
  <line x1="40" x2="77" y1="32" y2="32" class="net_10"/>
</svg>
