<svg xmlns="http://www.w3.org/2000/svg" xmlns:xlink="http://www.w3.org/1999/xlink" xmlns:s="https://github.com/nturley/netlistsvg" width="589" height="270.33333333333337"><style>    svg {
    stroke:green;
    fill:none;
    }
    text {
    fill:blue;
    stroke:none;
    font-size:10px;
    font-weight: bold;
    font-family: "Courier New", monospace;
    }
    line {
    stroke-linecap: round;
    }
    .nodelabel {
    text-anchor: middle;
    }
    .inputPortLabel {
    text-anchor: end;
    }
    .splitjoinBody {
    fill:green;
    }</style><g s:type="sub_odd" transform="translate(349,139.66666666666669)" s:width="30" s:height="40" id="cell_inst_1_0"><text x="0" y="-4" class="nodelabel cell_inst_1_0" s:attribute="ref">inst_1_0</text><rect width="0" height="0" s:generic="body" fill="#e9e9e9" rx="4" class="cell_inst_1_0"/><g transform="translate(-1,-0.33333333333333215)" s:x="0" s:y="10" s:pid="in0" id="port_inst_1_0~in0"><text x="-3" y="-4" class="inputPortLabel cell_inst_1_0">in0</text></g><g transform="translate(-1,-0.6666666666666661)" s:x="0" s:y="10" s:pid="in0" id="port_inst_1_0~in1"><text x="-3" y="-4" class="inputPortLabel cell_inst_1_0">in1</text></g><g transform="translate(0,0)" s:x="30" s:y="10" s:pid="out0" id="port_inst_1_0~out"><text x="5" y="-4" style="stroke:none" class="cell_inst_1_0">out</text></g></g><g s:type="sub_odd" transform="translate(452,140)" s:width="30" s:height="40" id="cell_inst_1_1"><text x="0" y="-4" class="nodelabel cell_inst_1_1" s:attribute="ref">inst_1_1</text><rect width="0" height="0" s:generic="body" fill="#e9e9e9" rx="4" class="cell_inst_1_1"/><g transform="translate(-1,-0.33333333333333215)" s:x="0" s:y="10" s:pid="in0" id="port_inst_1_1~in0"><text x="-3" y="-4" class="inputPortLabel cell_inst_1_1">in0</text></g><g transform="translate(-1,-0.6666666666666661)" s:x="0" s:y="10" s:pid="in0" id="port_inst_1_1~in1"><text x="-3" y="-4" class="inputPortLabel cell_inst_1_1">in1</text></g><g transform="translate(0,0)" s:x="30" s:y="10" s:pid="out0" id="port_inst_1_1~out"><text x="5" y="-4" style="stroke:none" class="cell_inst_1_1">out</text></g></g><g s:type="sub_odd" transform="translate(207,238.16666666666669)" s:width="30" s:height="40" id="cell_inst_2_0"><text x="0" y="-4" class="nodelabel cell_inst_2_0" s:attribute="ref">inst_2_0</text><rect width="0" height="0" s:generic="body" fill="#e9e9e9" rx="4" class="cell_inst_2_0"/><g transform="translate(-1,-0.33333333333333215)" s:x="0" s:y="10" s:pid="in0" id="port_inst_2_0~in0"><text x="-3" y="-4" class="inputPortLabel cell_inst_2_0">in0</text></g><g transform="translate(-1,-0.6666666666666661)" s:x="0" s:y="10" s:pid="in0" id="port_inst_2_0~in1"><text x="-3" y="-4" class="inputPortLabel cell_inst_2_0">in1</text></g><g transform="translate(0,0)" s:x="30" s:y="10" s:pid="out0" id="port_inst_2_0~out"><text x="5" y="-4" style="stroke:none" class="cell_inst_2_0">out</text></g></g><g s:type="sub_odd" transform="translate(349,238.5)" s:width="30" s:height="40" id="cell_inst_2_1"><text x="0" y="-4" class="nodelabel cell_inst_2_1" s:attribute="ref">inst_2_1</text><rect width="0" height="0" s:generic="body" fill="#e9e9e9" rx="4" class="cell_inst_2_1"/><g transform="translate(-1,-0.33333333333333215)" s:x="0" s:y="10" s:pid="in0" id="port_inst_2_1~in0"><text x="-3" y="-4" class="inputPortLabel cell_inst_2_1">in0</text></g><g transform="translate(-1,-0.6666666666666661)" s:x="0" s:y="10" s:pid="in0" id="port_inst_2_1~in1"><text x="-3" y="-4" class="inputPortLabel cell_inst_2_1">in1</text></g><g transform="translate(0,0)" s:x="30" s:y="10" s:pid="out0" id="port_inst_2_1~out"><text x="5" y="-4" style="stroke:none" class="cell_inst_2_1">out</text></g></g><g s:type="inputExt" transform="translate(12,238.33333333333334)" s:width="30" s:height="20" id="cell_in0"><text x="15" y="-4" class="nodelabel cell_in0" s:attribute="ref">in0</text><s:alias val="$_inputExt_"/><path d="M0,0 L0,20 L15,20 L30,10 L15,0 Z" fill="#ffffff" class="cell_in0"/><g s:x="30" s:y="10" s:pid="Y"/></g><g s:type="inputExt" transform="translate(12,118.83333333333334)" s:width="30" s:height="20" id="cell_in1"><text x="15" y="-4" class="nodelabel cell_in1" s:attribute="ref">in1</text><s:alias val="$_inputExt_"/><path d="M0,0 L0,20 L15,20 L30,10 L15,0 Z" fill="#ffffff" class="cell_in1"/><g s:x="30" s:y="10" s:pid="Y"/></g><g s:type="inputExt" transform="translate(329,72)" s:width="30" s:height="20" id="cell_in3"><text x="15" y="-4" class="nodelabel cell_in3" s:attribute="ref">in3</text><s:alias val="$_inputExt_"/><path d="M0,0 L0,20 L15,20 L30,10 L15,0 Z" fill="#ffffff" class="cell_in3"/><g s:x="30" s:y="10" s:pid="Y"/></g><g s:type="inputExt" transform="translate(77,160.83333333333334)" s:width="30" s:height="20" id="cell_bus_in"><text x="15" y="-4" class="nodelabel cell_bus_in" s:attribute="ref">bus_in</text><s:alias val="$_inputExt_"/><path d="M0,0 L0,20 L15,20 L30,10 L15,0 Z" fill="#ffffff" class="cell_bus_in"/><g s:x="30" s:y="10" s:pid="Y"/></g><g s:type="outputExt" transform="translate(535,130.5)" s:width="30" s:height="20" id="cell_out0"><text x="15" y="-4" class="nodelabel cell_out0" s:attribute="ref">out0</text><s:alias val="$_outputExt_"/><path d="M30,0 L30,20 L15,20 L0,10 L15,0 Z" fill="#ffffff" class="cell_out0"/><g s:x="0" s:y="10" s:pid="A"/></g><g s:type="outputExt" transform="translate(535,229)" s:width="30" s:height="20" id="cell_bus_out"><text x="15" y="-4" class="nodelabel cell_bus_out" s:attribute="ref">bus_out</text><s:alias val="$_outputExt_"/><path d="M30,0 L30,20 L15,20 L0,10 L15,0 Z" fill="#ffffff" class="cell_bus_out"/><g s:x="0" s:y="10" s:pid="A"/></g><g s:type="inputExt" transform="translate(12,22)" s:width="30" s:height="20" id="cell_A"><text x="15" y="-4" class="nodelabel cell_A" s:attribute="ref">A</text><s:alias val="$_inputExt_"/><path d="M0,0 L0,20 L15,20 L30,10 L15,0 Z" fill="#ffffff" class="cell_A"/><g s:x="30" s:y="10" s:pid="Y"/></g><g s:type="outputExt" transform="translate(77,22)" s:width="30" s:height="20" id="cell_Aout"><text x="15" y="-4" class="nodelabel cell_Aout" s:attribute="ref">Aout</text><s:alias val="$_outputExt_"/><path d="M30,0 L30,20 L15,20 L0,10 L15,0 Z" fill="#ffffff" class="cell_Aout"/><g s:x="0" s:y="10" s:pid="A"/></g><g s:type="join" transform="translate(90,217.83333333333334)" s:width="5" s:height="40" id="cell_$join$,3,2,"><rect width="5" height="40" class="splitjoinBody" s:generic="body"/><s:alias val="$_join_"/><g s:x="5" s:y="20" s:pid="out"/><g transform="translate(-1,10)" s:x="-1" s:y="10" s:pid="in0"><text x="-3" y="-4" class="inputPortLabel">0</text></g><g transform="translate(-1,30)" s:x="-1" s:y="10" s:pid="in0"><text x="-3" y="-4" class="inputPortLabel">1</text></g></g><line x1="42" x2="52" y1="248.33333333333334" y2="248.33333333333334" class="net_2 width_1" style="stroke-width: 1"/><line x1="52" x2="52" y1="248.33333333333334" y2="139.83333333333334" class="net_2 width_1" style="stroke-width: 1"/><circle cx="52" cy="248.33333333333334" r="2" style="fill:#000" class="net_2 width_1"/><line x1="52" x2="348" y1="139.83333333333334" y2="139.83333333333334" class="net_2 width_1" style="stroke-width: 1"/><line x1="42" x2="89" y1="248.33333333333334" y2="248.33333333333334" class="net_2 width_1" style="stroke-width: 1"/><line x1="42" x2="304" y1="128.83333333333334" y2="128.83333333333334" class="net_3 width_1" style="stroke-width: 1"/><line x1="304" x2="304" y1="128.83333333333334" y2="139.5" class="net_3 width_1" style="stroke-width: 1"/><line x1="304" x2="348" y1="139.5" y2="139.5" class="net_3 width_1" style="stroke-width: 1"/><line x1="42" x2="62" y1="128.83333333333334" y2="128.83333333333334" class="net_3 width_1" style="stroke-width: 1"/><line x1="62" x2="62" y1="128.83333333333334" y2="228.33333333333334" class="net_3 width_1" style="stroke-width: 1"/><circle cx="62" cy="128.83333333333334" r="2" style="fill:#000" class="net_3 width_1"/><line x1="62" x2="89" y1="228.33333333333334" y2="228.33333333333334" class="net_3 width_1" style="stroke-width: 1"/><line x1="350" x2="451" y1="140.16666666666669" y2="140.16666666666669" class="net_11 width_1" style="stroke-width: 1"/><line x1="359" x2="407" y1="82" y2="82" class="net_4 width_1" style="stroke-width: 1"/><line x1="407" x2="407" y1="82" y2="139.83333333333331" class="net_4 width_1" style="stroke-width: 1"/><line x1="407" x2="451" y1="139.83333333333331" y2="139.83333333333331" class="net_4 width_1" style="stroke-width: 1"/><line x1="96" x2="206" y1="238.33333333333334" y2="238.33333333333334" class="net_3,2 width_2" style="stroke-width: 2"/><line x1="107" x2="162" y1="170.83333333333334" y2="170.83333333333334" class="net_5,6 width_2" style="stroke-width: 2"/><line x1="162" x2="162" y1="170.83333333333334" y2="238" class="net_5,6 width_2" style="stroke-width: 2"/><line x1="162" x2="206" y1="238" y2="238.00000000000003" class="net_5,6 width_2" style="stroke-width: 2"/><line x1="208" x2="348" y1="238.66666666666669" y2="238.66666666666666" class="net_12,13 width_2" style="stroke-width: 2"/><line x1="208" x2="265" y1="238.66666666666669" y2="238.66666666666669" class="net_12,13 width_2" style="stroke-width: 2"/><line x1="265" x2="265" y1="238.66666666666669" y2="218.66666666666669" class="net_12,13 width_2" style="stroke-width: 2"/><line x1="265" x2="304" y1="218.66666666666669" y2="218.66666666666669" class="net_12,13 width_2" style="stroke-width: 2"/><line x1="304" x2="304" y1="218.66666666666669" y2="238.33333333333334" class="net_12,13 width_2" style="stroke-width: 2"/><circle cx="265" cy="238.66666666666669" r="3" style="fill:#000" class="net_12,13 width_2"/><line x1="304" x2="348" y1="238.33333333333334" y2="238.33333333333334" class="net_12,13 width_2" style="stroke-width: 2"/><line x1="453" x2="535" y1="140.5" y2="140.5" class="net_7 width_1" style="stroke-width: 1"/><line x1="350" x2="535" y1="239" y2="239" class="net_8,9 width_2" style="stroke-width: 2"/><line x1="42" x2="77" y1="32" y2="32" class="net_10 width_1" style="stroke-width: 1"/><rect x="149" y="233.33333333333334" width="16" height="9" class="net_3,2 width_2 busLabel_2" style="fill: white; stroke: none"/><text x="148" y="241.33333333333334" class="net_3,2 width_2 busLabel_2">/2/</text><rect x="149" y="165.83333333333334" width="16" height="9" class="net_5,6 width_2 busLabel_2" style="fill: white; stroke: none"/><text x="148" y="173.83333333333334" class="net_5,6 width_2 busLabel_2">/2/</text><rect x="291" y="213.66666666666669" width="16" height="9" class="net_12,13 width_2 busLabel_2" style="fill: white; stroke: none"/><text x="290" y="221.66666666666669" class="net_12,13 width_2 busLabel_2">/2/</text><rect x="291" y="213.66666666666669" width="16" height="9" class="net_12,13 width_2 busLabel_2" style="fill: white; stroke: none"/><text x="290" y="221.66666666666669" class="net_12,13 width_2 busLabel_2">/2/</text><rect x="465" y="234" width="16" height="9" class="net_8,9 width_2 busLabel_2" style="fill: white; stroke: none"/><text x="464" y="242" class="net_8,9 width_2 busLabel_2">/2/</text></svg>