<svg xmlns="http://www.w3.org/2000/svg" xmlns:xlink="http://www.w3.org/1999/xlink" xmlns:s="https://github.com/nturley/netlistsvg" width="930" height="252.5"><style>    svg {
    stroke:green;
    fill:none;
    }
    text {
    fill:blue;
    stroke:none;
    font-size:10px;
    font-weight: bold;
    font-family: "Courier New", monospace;
    }
    line {
    stroke-linecap: round;
    }
    .nodelabel {
    text-anchor: middle;
    }
    .inputPortLabel {
    text-anchor: end;
    }
    .splitjoinBody {
    fill:green;
    }</style><g s:type="sub_odd" transform="translate(85,203.5)" s:width="30" s:height="40" id="cell_IBuf"><text x="2" y="-4" class="nodelabel cell_IBuf" s:attribute="ref">IBuf</text><rect width="4" height="37" s:generic="body" fill="#e9e9e9" rx="4" class="cell_IBuf"/><line x1="0" x2="12" y1="12.5" y2="12.5" class="net_2"/><line x1="12" x2="4" y1="12.5" y2="12.5" class="net_2"/><g transform="translate(-1,12)" s:x="0" s:y="10" s:pid="in0" id="port_IBuf~A"><text x="-3" y="-4" class="inputPortLabel cell_IBuf">A</text></g><g transform="translate(4,12)" s:x="30" s:y="10" s:pid="out0" id="port_IBuf~Y"><text x="5" y="-4" style="stroke:none" class="cell_IBuf">Y</text></g></g><g s:type="sub_odd" transform="translate(829,109)" s:width="30" s:height="40" id="cell_OBuf"><text x="2" y="-4" class="nodelabel cell_OBuf" s:attribute="ref">OBuf</text><rect width="4" height="37" s:generic="body" fill="#e9e9e9" rx="4" class="cell_OBuf"/><line x1="0" x2="12" y1="12.5" y2="12.5" class="net_2"/><line x1="12" x2="4" y1="12.5" y2="12.5" class="net_2"/><g transform="translate(-1,12)" s:x="0" s:y="10" s:pid="in0" id="port_OBuf~A"><text x="-3" y="-4" class="inputPortLabel cell_OBuf">A</text></g><g transform="translate(4,12)" s:x="30" s:y="10" s:pid="out0" id="port_OBuf~Y"><text x="5" y="-4" style="stroke:none" class="cell_OBuf">Y</text></g></g><g s:type="sub_odd" transform="translate(454,129)" s:width="30" s:height="40" id="cell_buff0"><text x="2" y="-4" class="nodelabel cell_buff0" s:attribute="ref">buff0</text><rect width="4" height="37" s:generic="body" fill="#e9e9e9" rx="4" class="cell_buff0"/><line x1="0" x2="12" y1="12.5" y2="12.5" class="net_2"/><line x1="12" x2="4" y1="12.5" y2="12.5" class="net_2"/><g transform="translate(-1,12)" s:x="0" s:y="10" s:pid="in0" id="port_buff0~A"><text x="-3" y="-4" class="inputPortLabel cell_buff0">A</text></g><g transform="translate(4,12)" s:x="30" s:y="10" s:pid="out0" id="port_buff0~Y"><text x="5" y="-4" style="stroke:none" class="cell_buff0">Y</text></g></g><g s:type="sub_odd" transform="translate(85,22)" s:width="30" s:height="40" id="cell_ft_bufer"><text x="2" y="-4" class="nodelabel cell_ft_bufer" s:attribute="ref">ft_bufer</text><rect width="4" height="37" s:generic="body" fill="#e9e9e9" rx="4" class="cell_ft_bufer"/><line x1="0" x2="12" y1="12.5" y2="12.5" class="net_2"/><line x1="12" x2="4" y1="12.5" y2="12.5" class="net_2"/><g transform="translate(-1,12)" s:x="0" s:y="10" s:pid="in0" id="port_ft_bufer~A"><text x="-3" y="-4" class="inputPortLabel cell_ft_bufer">A</text></g><g transform="translate(4,12)" s:x="30" s:y="10" s:pid="out0" id="port_ft_bufer~Y"><text x="5" y="-4" style="stroke:none" class="cell_ft_bufer">Y</text></g></g><g s:type="sub_odd" transform="translate(164,109)" s:width="30" s:height="40" id="cell_inst_1_0"><text x="113.5" y="-4" class="nodelabel cell_inst_1_0" s:attribute="ref">inst_1_0</text><rect width="227" height="97" s:generic="body" fill="#e9e9e9" rx="4" class="cell_inst_1_0"/><g s:type="generic" transform="translate(52,42)" s:width="30" s:height="40" id="cell_module2_0"><text x="15" y="-4" class="nodelabel cell_module2_0" s:attribute="ref">module2_0</text><rect width="30" height="40" s:generic="body" fill="#ffffff" rx="0" class="cell_module2_0"/><g transform="translate(0,10)" s:x="0" s:y="10" s:pid="in0" id="port_module2_0~in0"><text x="-3" y="-4" class="inputPortLabel cell_module2_0">in0</text></g><g transform="translate(0,30)" s:x="0" s:y="10" s:pid="in0" id="port_module2_0~in1"><text x="-3" y="-4" class="inputPortLabel cell_module2_0">in1</text></g><g transform="translate(30,10)" s:x="30" s:y="10" s:pid="out0" id="port_module2_0~out"><text x="5" y="-4" style="stroke:none" class="cell_module2_0">out</text></g></g><g s:type="generic" transform="translate(161,22)" s:width="30" s:height="40" id="cell_module2_1"><text x="15" y="-4" class="nodelabel cell_module2_1" s:attribute="ref">module2_1</text><rect width="30" height="40" s:generic="body" fill="#ffffff" rx="0" class="cell_module2_1"/><g transform="translate(0,10)" s:x="0" s:y="10" s:pid="in0" id="port_module2_1~in0"><text x="-3" y="-4" class="inputPortLabel cell_module2_1">in0</text></g><g transform="translate(0,30)" s:x="0" s:y="10" s:pid="in0" id="port_module2_1~in1"><text x="-3" y="-4" class="inputPortLabel cell_module2_1">in1</text></g><g transform="translate(30,10)" s:x="30" s:y="10" s:pid="out0" id="port_module2_1~out"><text x="5" y="-4" style="stroke:none" class="cell_module2_1">out</text></g></g><line x1="0" x2="52" y1="52.5" y2="52.5" class="net_2"/><line x1="0" x2="22" y1="21" y2="21" class="net_3"/><line x1="22" x2="22" y1="21" y2="72.5" class="net_3"/><circle cx="22" cy="21" r="2" style="fill:#000" class="net_3"/><line x1="22" x2="51" y1="72.5" y2="72.5" class="net_3"/><line x1="0" x2="116" y1="21" y2="21" class="net_3"/><line x1="116" x2="116" y1="21" y2="32.5" class="net_3"/><line x1="116" x2="161" y1="32.5" y2="32.5" class="net_3"/><line x1="83" x2="160" y1="52.5" y2="52.5" class="net_5"/><line x1="192" x2="227" y1="32.5" y2="32.5" class="net_4"/><g transform="translate(-1,52)" s:x="0" s:y="10" s:pid="in0" id="port_inst_1_0~in0"><text x="-3" y="-4" class="inputPortLabel cell_inst_1_0">in0</text></g><g transform="translate(-1,20.5)" s:x="0" s:y="10" s:pid="in0" id="port_inst_1_0~in1"><text x="-3" y="-4" class="inputPortLabel cell_inst_1_0">in1</text></g><g transform="translate(227,32)" s:x="30" s:y="10" s:pid="out0" id="port_inst_1_0~out"><text x="5" y="-4" style="stroke:none" class="cell_inst_1_0">out</text></g></g><g s:type="sub_odd" transform="translate(539,89)" s:width="30" s:height="40" id="cell_inst_1_1"><text x="113.5" y="-4" class="nodelabel cell_inst_1_1" s:attribute="ref">inst_1_1</text><rect width="227" height="97" s:generic="body" fill="#e9e9e9" rx="4" class="cell_inst_1_1"/><g s:type="generic" transform="translate(52,42)" s:width="30" s:height="40" id="cell_module2_0"><text x="15" y="-4" class="nodelabel cell_module2_0" s:attribute="ref">module2_0</text><rect width="30" height="40" s:generic="body" fill="#ffffff" rx="0" class="cell_module2_0"/><g transform="translate(0,10)" s:x="0" s:y="10" s:pid="in0" id="port_module2_0~in0"><text x="-3" y="-4" class="inputPortLabel cell_module2_0">in0</text></g><g transform="translate(0,30)" s:x="0" s:y="10" s:pid="in0" id="port_module2_0~in1"><text x="-3" y="-4" class="inputPortLabel cell_module2_0">in1</text></g><g transform="translate(30,10)" s:x="30" s:y="10" s:pid="out0" id="port_module2_0~out"><text x="5" y="-4" style="stroke:none" class="cell_module2_0">out</text></g></g><g s:type="generic" transform="translate(161,22)" s:width="30" s:height="40" id="cell_module2_1"><text x="15" y="-4" class="nodelabel cell_module2_1" s:attribute="ref">module2_1</text><rect width="30" height="40" s:generic="body" fill="#ffffff" rx="0" class="cell_module2_1"/><g transform="translate(0,10)" s:x="0" s:y="10" s:pid="in0" id="port_module2_1~in0"><text x="-3" y="-4" class="inputPortLabel cell_module2_1">in0</text></g><g transform="translate(0,30)" s:x="0" s:y="10" s:pid="in0" id="port_module2_1~in1"><text x="-3" y="-4" class="inputPortLabel cell_module2_1">in1</text></g><g transform="translate(30,10)" s:x="30" s:y="10" s:pid="out0" id="port_module2_1~out"><text x="5" y="-4" style="stroke:none" class="cell_module2_1">out</text></g></g><line x1="0" x2="52" y1="52.5" y2="52.5" class="net_2"/><line x1="0" x2="22" y1="21" y2="21" class="net_3"/><line x1="22" x2="22" y1="21" y2="72.5" class="net_3"/><circle cx="22" cy="21" r="2" style="fill:#000" class="net_3"/><line x1="22" x2="51" y1="72.5" y2="72.5" class="net_3"/><line x1="0" x2="116" y1="21" y2="21" class="net_3"/><line x1="116" x2="116" y1="21" y2="32.5" class="net_3"/><line x1="116" x2="161" y1="32.5" y2="32.5" class="net_3"/><line x1="83" x2="160" y1="52.5" y2="52.5" class="net_5"/><line x1="192" x2="227" y1="32.5" y2="32.5" class="net_4"/><g transform="translate(-1,52)" s:x="0" s:y="10" s:pid="in0" id="port_inst_1_1~in0"><text x="-3" y="-4" class="inputPortLabel cell_inst_1_1">in0</text></g><g transform="translate(-1,20.5)" s:x="0" s:y="10" s:pid="in0" id="port_inst_1_1~in1"><text x="-3" y="-4" class="inputPortLabel cell_inst_1_1">in1</text></g><g transform="translate(227,32)" s:x="30" s:y="10" s:pid="out0" id="port_inst_1_1~out"><text x="5" y="-4" style="stroke:none" class="cell_inst_1_1">out</text></g></g><g s:type="inputExt" transform="translate(12,206)" s:width="30" s:height="20" id="cell_in0"><text x="15" y="-4" class="nodelabel cell_in0" s:attribute="ref">in0</text><s:alias val="$_inputExt_"/><path d="M0,0 L0,20 L15,20 L30,10 L15,0 Z" fill="#ffffff" class="cell_in0"/><g s:x="30" s:y="10" s:pid="Y"/></g><g s:type="inputExt" transform="translate(77,120)" s:width="30" s:height="20" id="cell_in1"><text x="15" y="-4" class="nodelabel cell_in1" s:attribute="ref">in1</text><s:alias val="$_inputExt_"/><path d="M0,0 L0,20 L15,20 L30,10 L15,0 Z" fill="#ffffff" class="cell_in1"/><g s:x="30" s:y="10" s:pid="Y"/></g><g s:type="inputExt" transform="translate(12,24.5)" s:width="30" s:height="20" id="cell_in_ft"><text x="15" y="-4" class="nodelabel cell_in_ft" s:attribute="ref">in_ft</text><s:alias val="$_inputExt_"/><path d="M0,0 L0,20 L15,20 L30,10 L15,0 Z" fill="#ffffff" class="cell_in_ft"/><g s:x="30" s:y="10" s:pid="Y"/></g><g s:type="outputExt" transform="translate(888,111.5)" s:width="30" s:height="20" id="cell_out0"><text x="15" y="-4" class="nodelabel cell_out0" s:attribute="ref">out0</text><s:alias val="$_outputExt_"/><path d="M30,0 L30,20 L15,20 L0,10 L15,0 Z" fill="#ffffff" class="cell_out0"/><g s:x="0" s:y="10" s:pid="A"/></g><g s:type="outputExt" transform="translate(168,24.5)" s:width="30" s:height="20" id="cell_out_ft"><text x="15" y="-4" class="nodelabel cell_out_ft" s:attribute="ref">out_ft</text><s:alias val="$_outputExt_"/><path d="M30,0 L30,20 L15,20 L0,10 L15,0 Z" fill="#ffffff" class="cell_out_ft"/><g s:x="0" s:y="10" s:pid="A"/></g><line x1="42" x2="84" y1="216" y2="216" class="net_2 width_1" style="stroke-width: 1"/><line x1="767" x2="828" y1="121.5" y2="121.5" class="net_8 width_1" style="stroke-width: 1"/><line x1="392" x2="453" y1="141.5" y2="141.5" class="net_9 width_1" style="stroke-width: 1"/><line x1="42" x2="84" y1="34.5" y2="34.5" class="net_4 width_1" style="stroke-width: 1"/><line x1="90" x2="119" y1="216" y2="216" class="net_7 width_1" style="stroke-width: 1"/><line x1="119" x2="119" y1="216" y2="161.5" class="net_7 width_1" style="stroke-width: 1"/><circle cx="119" cy="216" r="2" style="fill:#000" class="net_7 width_1"/><line x1="119" x2="163" y1="161.5" y2="161.5" class="net_7 width_1" style="stroke-width: 1"/><line x1="90" x2="494" y1="216" y2="216" class="net_7 width_1" style="stroke-width: 1"/><line x1="494" x2="494" y1="216" y2="110" class="net_7 width_1" style="stroke-width: 1"/><line x1="494" x2="538" y1="110" y2="110" class="net_7 width_1" style="stroke-width: 1"/><line x1="107" x2="163" y1="130" y2="130" class="net_3 width_1" style="stroke-width: 1"/><line x1="459" x2="538" y1="141.5" y2="141.5" class="net_10 width_1" style="stroke-width: 1"/><line x1="834" x2="888" y1="121.5" y2="121.5" class="net_5 width_1" style="stroke-width: 1"/><line x1="90" x2="168" y1="34.5" y2="34.5" class="net_6 width_1" style="stroke-width: 1"/></svg>