<svg xmlns="http://www.w3.org/2000/svg" xmlns:xlink="http://www.w3.org/1999/xlink" xmlns:s="https://github.com/nturley/netlistsvg" width="487" height="164.5">
  <style>svg {
    stroke:#000;
    fill:none;
  }
  text {
    fill:#000;
    stroke:none;
    font-size:10px;
    font-weight: bold;
    font-family: "Courier New", monospace;
  }
  .nodelabel {
    text-anchor: middle;
  }
  .inputPortLabel {
    text-anchor: end;
  }
  .splitjoinBody {
    fill:#000;
  }</style>
  <g s:type="generic" transform="translate(372,67)" s:width="30" s:height="40" id="cell_OBuf">
    <text x="15" y="-4" class="nodelabel cell_OBuf" s:attribute="ref">OBuf</text>
    <rect width="30" height="20" s:generic="body" class="cell_OBuf"/>
    <g transform="translate(0,10)" s:x="0" s:y="10" s:pid="in0" id="port_OBuf~A">
      <text x="-3" y="-4" class="inputPortLabel cell_OBuf">A</text>
    </g>
    <g transform="translate(30,10)" s:x="30" s:y="10" s:pid="out0" id="port_OBuf~Y">
      <text x="5" y="-4" style="fill:#000; stroke:none" class="cell_OBuf">Y</text>
    </g>
  </g>
  <g s:type="generic" transform="translate(188,67)" s:width="30" s:height="40" id="cell_buff0">
    <text x="15" y="-4" class="nodelabel cell_buff0" s:attribute="ref">buff0</text>
    <rect width="30" height="20" s:generic="body" class="cell_buff0"/>
    <g transform="translate(0,10)" s:x="0" s:y="10" s:pid="in0" id="port_buff0~A">
      <text x="-3" y="-4" class="inputPortLabel cell_buff0">A</text>
    </g>
    <g transform="translate(30,10)" s:x="30" s:y="10" s:pid="out0" id="port_buff0~Y">
      <text x="5" y="-4" style="fill:#000; stroke:none" class="cell_buff0">Y</text>
    </g>
  </g>
  <g s:type="generic" transform="translate(84,22)" s:width="30" s:height="40" id="cell_ft_bufer">
    <text x="15" y="-4" class="nodelabel cell_ft_bufer" s:attribute="ref">ft_bufer</text>
    <rect width="30" height="20" s:generic="body" class="cell_ft_bufer"/>
    <g transform="translate(0,10)" s:x="0" s:y="10" s:pid="in0" id="port_ft_bufer~A">
      <text x="-3" y="-4" class="inputPortLabel cell_ft_bufer">A</text>
    </g>
    <g transform="translate(30,10)" s:x="30" s:y="10" s:pid="out0" id="port_ft_bufer~Y">
      <text x="5" y="-4" style="fill:#000; stroke:none" class="cell_ft_bufer">Y</text>
    </g>
  </g>
  <g s:type="generic" transform="translate(96,67)" s:width="30" s:height="40" id="cell_inst_1_0">
    <text x="15" y="-4" class="nodelabel cell_inst_1_0" s:attribute="ref">inst_1_0</text>
    <rect width="30" height="40" s:generic="body" class="cell_inst_1_0"/>
    <g transform="translate(0,10)" s:x="0" s:y="10" s:pid="in0" id="port_inst_1_0~in0">
      <text x="-3" y="-4" class="inputPortLabel cell_inst_1_0">in0</text>
    </g>
    <g transform="translate(0,30)" s:x="0" s:y="10" s:pid="in0" id="port_inst_1_0~in1">
      <text x="-3" y="-4" class="inputPortLabel cell_inst_1_0">in1</text>
    </g>
    <g transform="translate(30,10)" s:x="30" s:y="10" s:pid="out0" id="port_inst_1_0~out">
      <text x="5" y="-4" style="fill:#000; stroke:none" class="cell_inst_1_0">out</text>
    </g>
  </g>
  <g s:type="generic" transform="translate(280,67)" s:width="30" s:height="40" id="cell_inst_1_1">
    <text x="15" y="-4" class="nodelabel cell_inst_1_1" s:attribute="ref">inst_1_1</text>
    <rect width="30" height="40" s:generic="body" class="cell_inst_1_1"/>
    <g transform="translate(0,10)" s:x="0" s:y="10" s:pid="in0" id="port_inst_1_1~in0">
      <text x="-3" y="-4" class="inputPortLabel cell_inst_1_1">in0</text>
    </g>
    <g transform="translate(0,30)" s:x="0" s:y="10" s:pid="in0" id="port_inst_1_1~in1">
      <text x="-3" y="-4" class="inputPortLabel cell_inst_1_1">in1</text>
    </g>
    <g transform="translate(30,10)" s:x="30" s:y="10" s:pid="out0" id="port_inst_1_1~out">
      <text x="5" y="-4" style="fill:#000; stroke:none" class="cell_inst_1_1">out</text>
    </g>
  </g>
  <g s:type="inputExt" transform="translate(12,67.5)" s:width="30" s:height="20" id="cell_in0">
    <text x="15" y="-4" class="nodelabel cell_in0" s:attribute="ref">in0</text>
    <s:alias val="$_inputExt_"/>
    <path d="M0,0 L0,20 L15,20 L30,10 L15,0 Z" class="cell_in0"/>
    <g s:x="28" s:y="10" s:pid="Y"/>
  </g>
  <g s:type="inputExt" transform="translate(12,132.5)" s:width="30" s:height="20" id="cell_in1">
    <text x="15" y="-4" class="nodelabel cell_in1" s:attribute="ref">in1</text>
    <s:alias val="$_inputExt_"/>
    <path d="M0,0 L0,20 L15,20 L30,10 L15,0 Z" class="cell_in1"/>
    <g s:x="28" s:y="10" s:pid="Y"/>
  </g>
  <g s:type="inputExt" transform="translate(12,22.5)" s:width="30" s:height="20" id="cell_in_ft">
    <text x="15" y="-4" class="nodelabel cell_in_ft" s:attribute="ref">in_ft</text>
    <s:alias val="$_inputExt_"/>
    <path d="M0,0 L0,20 L15,20 L30,10 L15,0 Z" class="cell_in_ft"/>
    <g s:x="28" s:y="10" s:pid="Y"/>
  </g>
  <g s:type="outputExt" transform="translate(445,67.5)" s:width="30" s:height="20" id="cell_out0">
    <text x="15" y="-4" class="nodelabel cell_out0" s:attribute="ref">out0</text>
    <s:alias val="$_outputExt_"/>
    <path d="M30,0 L30,20 L15,20 L0,10 L15,0 Z" class="cell_out0"/>
    <g s:x="0" s:y="10" s:pid="A"/>
  </g>
  <g s:type="outputExt" transform="translate(167,22.5)" s:width="30" s:height="20" id="cell_out_ft">
    <text x="15" y="-4" class="nodelabel cell_out_ft" s:attribute="ref">out_ft</text>
    <s:alias val="$_outputExt_"/>
    <path d="M30,0 L30,20 L15,20 L0,10 L15,0 Z" class="cell_out_ft"/>
    <g s:x="0" s:y="10" s:pid="A"/>
  </g>
  <line x1="311" x2="372" y1="77.5" y2="77.5" class="net_7"/>
  <line x1="127" x2="188" y1="77.5" y2="77.5" class="net_8"/>
  <line x1="40" x2="84" y1="32.5" y2="32.5" class="net_4"/>
  <line x1="40" x2="96" y1="77.5" y2="77.5" class="net_2"/>
  <line x1="40" x2="62" y1="77.5" y2="77.5" class="net_2"/>
  <line x1="62" x2="62" y1="77.5" y2="120" class="net_2"/>
  <line x1="62" x2="236" y1="120" y2="120" class="net_2"/>
  <line x1="236" x2="236" y1="120" y2="97.5" class="net_2"/>
  <circle cx="62" cy="77.5" r="2" style="fill:#000" class="net_2"/>
  <line x1="236" x2="280" y1="97.5" y2="97.5" class="net_2"/>
  <line x1="40" x2="52" y1="142.5" y2="142.5" class="net_3"/>
  <line x1="52" x2="52" y1="142.5" y2="97.5" class="net_3"/>
  <line x1="52" x2="96" y1="97.5" y2="97.5" class="net_3"/>
  <line x1="219" x2="280" y1="77.5" y2="77.5" class="net_9"/>
  <line x1="403" x2="445" y1="77.5" y2="77.5" class="net_5"/>
  <line x1="115" x2="167" y1="32.5" y2="32.5" class="net_6"/>
</svg>
