<svg xmlns="http://www.w3.org/2000/svg" xmlns:xlink="http://www.w3.org/1999/xlink" xmlns:s="https://github.com/nturley/netlistsvg" width="569" height="175"><style>svg {
  stroke:#000;
  fill:none;
}
text {
  fill:#000;
  stroke:none;
  font-size:10px;
  font-weight: bold;
  font-family: "Courier New", monospace;
}
line {
    stroke-linecap: round;
}
.nodelabel {
  text-anchor: middle;
}
.inputPortLabel {
  text-anchor: end;
}
.splitjoinBody {
  fill:#000;
}</style><g s:type="generic" transform="translate(84,75)" s:width="30" s:height="40" id="cell_IBuf"><text x="15" y="-4" class="nodelabel cell_IBuf" s:attribute="ref">IBuf</text><rect width="30" height="20" s:generic="body" fill="#ffffff" rx="0" class="cell_IBuf"/><g transform="translate(0,10)" s:x="0" s:y="10" s:pid="in0" id="port_IBuf~A"><text x="-3" y="-4" class="inputPortLabel cell_IBuf">A</text></g><g transform="translate(30,10)" s:x="30" s:y="10" s:pid="out0" id="port_IBuf~Y"><text x="5" y="-4" style="fill:#000; stroke:none" class="cell_IBuf">Y</text></g></g><g s:type="generic" transform="translate(454,75)" s:width="30" s:height="40" id="cell_OBuf"><text x="15" y="-4" class="nodelabel cell_OBuf" s:attribute="ref">OBuf</text><rect width="30" height="20" s:generic="body" fill="#ffffff" rx="0" class="cell_OBuf"/><g transform="translate(0,10)" s:x="0" s:y="10" s:pid="in0" id="port_OBuf~A"><text x="-3" y="-4" class="inputPortLabel cell_OBuf">A</text></g><g transform="translate(30,10)" s:x="30" s:y="10" s:pid="out0" id="port_OBuf~Y"><text x="5" y="-4" style="fill:#000; stroke:none" class="cell_OBuf">Y</text></g></g><g s:type="generic" transform="translate(269,75)" s:width="30" s:height="40" id="cell_buff0"><text x="15" y="-4" class="nodelabel cell_buff0" s:attribute="ref">buff0</text><rect width="30" height="20" s:generic="body" fill="#ffffff" rx="0" class="cell_buff0"/><g transform="translate(0,10)" s:x="0" s:y="10" s:pid="in0" id="port_buff0~A"><text x="-3" y="-4" class="inputPortLabel cell_buff0">A</text></g><g transform="translate(30,10)" s:x="30" s:y="10" s:pid="out0" id="port_buff0~Y"><text x="5" y="-4" style="fill:#000; stroke:none" class="cell_buff0">Y</text></g></g><g s:type="generic" transform="translate(84,22)" s:width="30" s:height="40" id="cell_ft_bufer"><text x="15" y="-4" class="nodelabel cell_ft_bufer" s:attribute="ref">ft_bufer</text><rect width="30" height="20" s:generic="body" fill="#ffffff" rx="0" class="cell_ft_bufer"/><g transform="translate(0,10)" s:x="0" s:y="10" s:pid="in0" id="port_ft_bufer~A"><text x="-3" y="-4" class="inputPortLabel cell_ft_bufer">A</text></g><g transform="translate(30,10)" s:x="30" s:y="10" s:pid="out0" id="port_ft_bufer~Y"><text x="5" y="-4" style="fill:#000; stroke:none" class="cell_ft_bufer">Y</text></g></g><g s:type="generic" transform="translate(177,75)" s:width="30" s:height="40" id="cell_inst_1_0"><text x="15" y="-4" class="nodelabel cell_inst_1_0" s:attribute="ref">inst_1_0</text><rect width="30" height="40" s:generic="body" fill="#ffffff" rx="0" class="cell_inst_1_0"/><g transform="translate(0,10)" s:x="0" s:y="10" s:pid="in0" id="port_inst_1_0~in0"><text x="-3" y="-4" class="inputPortLabel cell_inst_1_0">in0</text></g><g transform="translate(0,30)" s:x="0" s:y="10" s:pid="in0" id="port_inst_1_0~in1"><text x="-3" y="-4" class="inputPortLabel cell_inst_1_0">in1</text></g><g transform="translate(30,10)" s:x="30" s:y="10" s:pid="out0" id="port_inst_1_0~out"><text x="5" y="-4" style="fill:#000; stroke:none" class="cell_inst_1_0">out</text></g></g><g s:type="generic" transform="translate(362,75)" s:width="30" s:height="40" id="cell_inst_1_1"><text x="15" y="-4" class="nodelabel cell_inst_1_1" s:attribute="ref">inst_1_1</text><rect width="30" height="40" s:generic="body" fill="#ffffff" rx="0" class="cell_inst_1_1"/><g transform="translate(0,10)" s:x="0" s:y="10" s:pid="in0" id="port_inst_1_1~in0"><text x="-3" y="-4" class="inputPortLabel cell_inst_1_1">in0</text></g><g transform="translate(0,30)" s:x="0" s:y="10" s:pid="in0" id="port_inst_1_1~in1"><text x="-3" y="-4" class="inputPortLabel cell_inst_1_1">in1</text></g><g transform="translate(30,10)" s:x="30" s:y="10" s:pid="out0" id="port_inst_1_1~out"><text x="5" y="-4" style="fill:#000; stroke:none" class="cell_inst_1_1">out</text></g></g><g s:type="inputExt" transform="translate(12,75.5)" s:width="30" s:height="20" id="cell_in0"><text x="15" y="-4" class="nodelabel cell_in0" s:attribute="ref">in0</text><s:alias val="$_inputExt_"/><path d="M0,0 L0,20 L15,20 L30,10 L15,0 Z" fill="#ffffff" class="cell_in0"/><g s:x="30" s:y="10" s:pid="Y"/></g><g s:type="inputExt" transform="translate(84,143)" s:width="30" s:height="20" id="cell_in1"><text x="15" y="-4" class="nodelabel cell_in1" s:attribute="ref">in1</text><s:alias val="$_inputExt_"/><path d="M0,0 L0,20 L15,20 L30,10 L15,0 Z" fill="#ffffff" class="cell_in1"/><g s:x="30" s:y="10" s:pid="Y"/></g><g s:type="inputExt" transform="translate(12,22.5)" s:width="30" s:height="20" id="cell_in_ft"><text x="15" y="-4" class="nodelabel cell_in_ft" s:attribute="ref">in_ft</text><s:alias val="$_inputExt_"/><path d="M0,0 L0,20 L15,20 L30,10 L15,0 Z" fill="#ffffff" class="cell_in_ft"/><g s:x="30" s:y="10" s:pid="Y"/></g><g s:type="outputExt" transform="translate(527,75.5)" s:width="30" s:height="20" id="cell_out0"><text x="15" y="-4" class="nodelabel cell_out0" s:attribute="ref">out0</text><s:alias val="$_outputExt_"/><path d="M30,0 L30,20 L15,20 L0,10 L15,0 Z" fill="#ffffff" class="cell_out0"/><g s:x="0" s:y="10" s:pid="A"/></g><g s:type="outputExt" transform="translate(167,22.5)" s:width="30" s:height="20" id="cell_out_ft"><text x="15" y="-4" class="nodelabel cell_out_ft" s:attribute="ref">out_ft</text><s:alias val="$_outputExt_"/><path d="M30,0 L30,20 L15,20 L0,10 L15,0 Z" fill="#ffffff" class="cell_out_ft"/><g s:x="0" s:y="10" s:pid="A"/></g><line x1="42" x2="84" y1="85.5" y2="85.5" class="net_2 width_1" style="stroke-width: 1"/><line x1="393" x2="454" y1="85.5" y2="85.5" class="net_8 width_1" style="stroke-width: 1"/><line x1="208" x2="269" y1="85.5" y2="85.5" class="net_9 width_1" style="stroke-width: 1"/><line x1="42" x2="84" y1="32.5" y2="32.5" class="net_4 width_1" style="stroke-width: 1"/><line x1="115" x2="177" y1="85.5" y2="85.5" class="net_7 width_1" style="stroke-width: 1"/><line x1="115" x2="142" y1="85.5" y2="85.5" class="net_7 width_1" style="stroke-width: 1"/><line x1="142" x2="142" y1="85.5" y2="128" class="net_7 width_1" style="stroke-width: 1"/><line x1="142" x2="317" y1="128" y2="128" class="net_7 width_1" style="stroke-width: 1"/><line x1="317" x2="317" y1="128" y2="105.5" class="net_7 width_1" style="stroke-width: 1"/><circle cx="142" cy="85.5" r="2" style="fill:#000" class="net_7 width_1"/><line x1="317" x2="361" y1="105.5" y2="105.5" class="net_7 width_1" style="stroke-width: 1"/><line x1="114" x2="132" y1="153" y2="153" class="net_3 width_1" style="stroke-width: 1"/><line x1="132" x2="132" y1="153" y2="105.5" class="net_3 width_1" style="stroke-width: 1"/><line x1="132" x2="176" y1="105.5" y2="105.5" class="net_3 width_1" style="stroke-width: 1"/><line x1="300" x2="362" y1="85.5" y2="85.5" class="net_10 width_1" style="stroke-width: 1"/><line x1="485" x2="527" y1="85.5" y2="85.5" class="net_5 width_1" style="stroke-width: 1"/><line x1="115" x2="167" y1="32.5" y2="32.5" class="net_6 width_1" style="stroke-width: 1"/></svg>