<?xml version="1.0" encoding="utf-8" ?>
<svg xmlns="http://www.w3.org/2000/svg" xmlns:ev="http://www.w3.org/2001/xml-events" xmlns:xlink="http://www.w3.org/1999/xlink" baseProfile="full" height="100%" version="1.1" viewBox="-1200.0,-2960.0,560.0,4160.0" width="100%">
  <defs>
    <marker id="id19" markerHeight="10" markerUnits="strokeWidth" markerWidth="8" orient="auto" refX="30" refY="30" viewBox="0 0 120 120">
      <path d="M 0 0 L 60 30 L 0 60 z" fill="red"/>
    </marker>
    <marker id="id20" markerHeight="10" markerUnits="strokeWidth" markerWidth="8" orient="auto" refX="30" refY="30" viewBox="0 0 120 120">
      <path d="M 0 0 L 60 30 L 0 60 z" fill="green"/>
    </marker>
    <marker id="id21" markerHeight="10" markerUnits="strokeWidth" markerWidth="8" orient="auto" refX="30" refY="30" viewBox="0 0 120 120">
      <path d="M 0 0 L 60 30 L 0 60 z" fill="blue"/>
    </marker>
    <marker id="id22" markerHeight="10" markerUnits="strokeWidth" markerWidth="4" orient="auto" refX="0" refY="0" viewBox="-10 -30 20 60">
      <rect fill="blue" height="1" width="1" x="-5" y="-15"/>
    </marker>
    <style type="text/css"><![CDATA[
                text{font-family: LATO; font-weight: 800; font-size: 25px;}
                svg{outline: 1px solid grey; outline-offset: -2px;}
                .module_boundary{fill:#f4f0e6}
                .origin{stroke: red; stroke-width: 1;}
                .channel{stroke: grey; stroke-width: 4;}
                .switch{stroke: black; fill:blue; stroke-width: 0;}
                .short{stroke: black; fill:black; stroke-width: 0;}
                .inpin{stroke: red;stroke-width: 4;}
                .outpin{stroke: green;stroke-width: 4;}
                .rl_chan{stroke: red;}
                .lr_chan{stroke: blue;}
                .lr_text{fill: blue;}
                .rl_text{fill: red;}
                .bt_chan{stroke: red;}
                .bt_text{fill: red;}
                .tb_chan{stroke: blue;}
                .tb_text{fill: blue;}
                .region1{fill: #CCE7D4;}
                .region2{fill: #F8AC92;}
                .region3{fill: #C4E7EB;}
                .region4{fill: #F5F3C9;}
                .boundry{stroke: red;stroke-width: 10;fill: none;opacity: 10%;}
                .OPIN{fill: green;}
                .left_pin{
                    fill:blue;
                    text-anchor: start;
                    transform: translate(5px, 00px) scale(1,-1);}
                .right_pin{
                    fill:blue;
                    text-anchor: end;
                    transform: translate(-5px, 00px) scale(1,-1);}
                .bottom_pin{
                    fill:blue;
                    transform-box: fill-box;
                    transform-origin: start;
                    text-anchor: start;
                    transform: translate(0px, 10px) rotate(90deg) scale(1,-1);}
                .top_pin{
                    fill:blue;
                    transform-box: fill-box;
                    transform-origin: bottom left;
                    text-anchor: start;
                    transform: translate(0px, -3px) rotate(-90deg) scale(1,-1);}
                .in_pin{fill: blue !important;}
                .out_pin{fill: red !important;}
            ]]></style>
  </defs>
  <g id="bg">
    <line class="origin" x1="0" x2="0" y1="40" y2="-40"/>
    <line class="origin" x1="40" x2="-40" y1="0" y2="0"/>
  </g>
  <g id="region" transform="scale(1,-1)"/>
  <g id="mainframe">
    <g id="mainShapes" transform="scale(1,-1)">
      <line class="channel lr_chan" marker-end="url(#id21)" x1="-1000.0" x2="-840.0" y1="80" y2="80"/>
      <line class="channel rl_chan" marker-end="url(#id19)" x1="-840.0" x2="-1000.0" y1="120" y2="120"/>
      <line class="channel lr_chan" marker-end="url(#id21)" x1="-1000.0" x2="-840.0" y1="160" y2="160"/>
      <line class="channel rl_chan" marker-end="url(#id19)" x1="-840.0" x2="-1000.0" y1="200" y2="200"/>
      <line class="channel lr_chan" marker-end="url(#id21)" x1="-1000.0" x2="-840.0" y1="240" y2="240"/>
      <line class="channel rl_chan" marker-end="url(#id19)" x1="-840.0" x2="-1000.0" y1="280" y2="280"/>
      <line class="channel lr_chan" marker-end="url(#id21)" x1="-1000.0" x2="-840.0" y1="320" y2="320"/>
      <line class="channel rl_chan" marker-end="url(#id19)" x1="-840.0" x2="-1000.0" y1="360" y2="360"/>
      <line class="channel lr_chan" marker-end="url(#id21)" x1="-1000.0" x2="-840.0" y1="400" y2="400"/>
      <line class="channel rl_chan" marker-end="url(#id19)" x1="-840.0" x2="-1000.0" y1="440" y2="440"/>
      <line class="channel lr_chan" marker-end="url(#id21)" x1="-1000.0" x2="-840.0" y1="480" y2="480"/>
      <line class="channel rl_chan" marker-end="url(#id19)" x1="-840.0" x2="-1000.0" y1="520" y2="520"/>
      <line class="channel lr_chan" marker-end="url(#id21)" x1="-1000.0" x2="-840.0" y1="560" y2="560"/>
      <line class="channel rl_chan" marker-end="url(#id19)" x1="-840.0" x2="-1000.0" y1="600" y2="600"/>
      <line class="channel lr_chan" marker-end="url(#id21)" x1="-1000.0" x2="-840.0" y1="640" y2="640"/>
      <line class="channel rl_chan" marker-end="url(#id19)" x1="-840.0" x2="-1000.0" y1="680" y2="680"/>
      <line class="channel lr_chan" marker-end="url(#id21)" x1="-1000.0" x2="-840.0" y1="720" y2="720"/>
      <line class="channel rl_chan" marker-end="url(#id19)" x1="-840.0" x2="-1000.0" y1="760" y2="760"/>
      <line class="channel lr_chan" marker-end="url(#id21)" x1="-1000.0" x2="-840.0" y1="800" y2="800"/>
      <line class="channel rl_chan" marker-end="url(#id19)" x1="-840.0" x2="-1000.0" y1="840" y2="840"/>
      <line class="channel lr_chan" marker-end="url(#id21)" x1="-1000.0" x2="-840.0" y1="880" y2="880"/>
      <line class="channel rl_chan" marker-end="url(#id19)" x1="-840.0" x2="-1000.0" y1="920" y2="920"/>
      <line class="channel lr_chan" marker-end="url(#id21)" x1="-1000.0" x2="-840.0" y1="960" y2="960"/>
      <line class="channel rl_chan" marker-end="url(#id19)" x1="-840.0" x2="-1000.0" y1="1000" y2="1000"/>
      <line class="channel lr_chan" marker-end="url(#id21)" x1="-1000.0" x2="-840.0" y1="1040" y2="1040"/>
      <line class="channel rl_chan" marker-end="url(#id19)" x1="-840.0" x2="-1000.0" y1="1080" y2="1080"/>
      <line class="channel lr_chan" marker-end="url(#id21)" x1="-1000.0" x2="-840.0" y1="1120" y2="1120"/>
      <line class="channel rl_chan" marker-end="url(#id19)" x1="-840.0" x2="-1000.0" y1="1160" y2="1160"/>
      <line class="channel lr_chan" marker-end="url(#id21)" x1="-1000.0" x2="-840.0" y1="1200" y2="1200"/>
      <line class="channel rl_chan" marker-end="url(#id19)" x1="-840.0" x2="-1000.0" y1="1240" y2="1240"/>
      <line class="channel lr_chan" marker-end="url(#id21)" x1="-1000.0" x2="-840.0" y1="1280" y2="1280"/>
      <line class="channel rl_chan" marker-end="url(#id19)" x1="-840.0" x2="-1000.0" y1="1320" y2="1320"/>
      <line class="channel lr_chan" marker-end="url(#id21)" x1="-1000.0" x2="-840.0" y1="1360" y2="1360"/>
      <line class="channel rl_chan" marker-end="url(#id19)" x1="-840.0" x2="-1000.0" y1="1400" y2="1400"/>
      <line class="channel lr_chan" marker-end="url(#id21)" x1="-1000.0" x2="-840.0" y1="1440" y2="1440"/>
      <line class="channel rl_chan" marker-end="url(#id19)" x1="-840.0" x2="-1000.0" y1="1480" y2="1480"/>
      <line class="channel lr_chan" marker-end="url(#id21)" x1="-1000.0" x2="-840.0" y1="1520" y2="1520"/>
      <line class="channel rl_chan" marker-end="url(#id19)" x1="-840.0" x2="-1000.0" y1="1560" y2="1560"/>
      <line class="channel lr_chan" marker-end="url(#id21)" x1="-1000.0" x2="-840.0" y1="1600" y2="1600"/>
      <line class="channel rl_chan" marker-end="url(#id19)" x1="-840.0" x2="-1000.0" y1="1640" y2="1640"/>
    </g>
    <g id="switches" transform="scale(1,-1)"/>
    <g id="mainText" transform="scale(1,-1)">
      <text class="lr_text" transform="scale(1,-1)" x="-1000.0" y="-80">0</text>
      <text class="lr_text" transform="scale(1,-1)" x="-840.0" y="-80">0</text>
      <text class="rl_text" transform="scale(1,-1)" x="-840.0" y="-120">1</text>
      <text class="rl_text" transform="scale(1,-1)" x="-1000.0" y="-120">1</text>
      <text class="lr_text" transform="scale(1,-1)" x="-1000.0" y="-160">2</text>
      <text class="lr_text" transform="scale(1,-1)" x="-840.0" y="-160">2</text>
      <text class="rl_text" transform="scale(1,-1)" x="-840.0" y="-200">3</text>
      <text class="rl_text" transform="scale(1,-1)" x="-1000.0" y="-200">3</text>
      <text class="lr_text" transform="scale(1,-1)" x="-1000.0" y="-240">4</text>
      <text class="lr_text" transform="scale(1,-1)" x="-840.0" y="-240">4</text>
      <text class="rl_text" transform="scale(1,-1)" x="-840.0" y="-280">5</text>
      <text class="rl_text" transform="scale(1,-1)" x="-1000.0" y="-280">5</text>
      <text class="lr_text" transform="scale(1,-1)" x="-1000.0" y="-320">6</text>
      <text class="lr_text" transform="scale(1,-1)" x="-840.0" y="-320">6</text>
      <text class="rl_text" transform="scale(1,-1)" x="-840.0" y="-360">7</text>
      <text class="rl_text" transform="scale(1,-1)" x="-1000.0" y="-360">7</text>
      <text class="lr_text" transform="scale(1,-1)" x="-1000.0" y="-400">8</text>
      <text class="lr_text" transform="scale(1,-1)" x="-840.0" y="-400">8</text>
      <text class="rl_text" transform="scale(1,-1)" x="-840.0" y="-440">9</text>
      <text class="rl_text" transform="scale(1,-1)" x="-1000.0" y="-440">9</text>
      <text class="lr_text" transform="scale(1,-1)" x="-1000.0" y="-480">10</text>
      <text class="lr_text" transform="scale(1,-1)" x="-840.0" y="-480">10</text>
      <text class="rl_text" transform="scale(1,-1)" x="-840.0" y="-520">11</text>
      <text class="rl_text" transform="scale(1,-1)" x="-1000.0" y="-520">11</text>
      <text class="lr_text" transform="scale(1,-1)" x="-1000.0" y="-560">12</text>
      <text class="lr_text" transform="scale(1,-1)" x="-840.0" y="-560">12</text>
      <text class="rl_text" transform="scale(1,-1)" x="-840.0" y="-600">13</text>
      <text class="rl_text" transform="scale(1,-1)" x="-1000.0" y="-600">13</text>
      <text class="lr_text" transform="scale(1,-1)" x="-1000.0" y="-640">14</text>
      <text class="lr_text" transform="scale(1,-1)" x="-840.0" y="-640">14</text>
      <text class="rl_text" transform="scale(1,-1)" x="-840.0" y="-680">15</text>
      <text class="rl_text" transform="scale(1,-1)" x="-1000.0" y="-680">15</text>
      <text class="lr_text" transform="scale(1,-1)" x="-1000.0" y="-720">16</text>
      <text class="lr_text" transform="scale(1,-1)" x="-840.0" y="-720">16</text>
      <text class="rl_text" transform="scale(1,-1)" x="-840.0" y="-760">17</text>
      <text class="rl_text" transform="scale(1,-1)" x="-1000.0" y="-760">17</text>
      <text class="lr_text" transform="scale(1,-1)" x="-1000.0" y="-800">18</text>
      <text class="lr_text" transform="scale(1,-1)" x="-840.0" y="-800">18</text>
      <text class="rl_text" transform="scale(1,-1)" x="-840.0" y="-840">19</text>
      <text class="rl_text" transform="scale(1,-1)" x="-1000.0" y="-840">19</text>
      <text class="lr_text" transform="scale(1,-1)" x="-1000.0" y="-880">20</text>
      <text class="lr_text" transform="scale(1,-1)" x="-840.0" y="-880">20</text>
      <text class="rl_text" transform="scale(1,-1)" x="-840.0" y="-920">21</text>
      <text class="rl_text" transform="scale(1,-1)" x="-1000.0" y="-920">21</text>
      <text class="lr_text" transform="scale(1,-1)" x="-1000.0" y="-960">22</text>
      <text class="lr_text" transform="scale(1,-1)" x="-840.0" y="-960">22</text>
      <text class="rl_text" transform="scale(1,-1)" x="-840.0" y="-1000">23</text>
      <text class="rl_text" transform="scale(1,-1)" x="-1000.0" y="-1000">23</text>
      <text class="lr_text" transform="scale(1,-1)" x="-1000.0" y="-1040">24</text>
      <text class="lr_text" transform="scale(1,-1)" x="-840.0" y="-1040">24</text>
      <text class="rl_text" transform="scale(1,-1)" x="-840.0" y="-1080">25</text>
      <text class="rl_text" transform="scale(1,-1)" x="-1000.0" y="-1080">25</text>
      <text class="lr_text" transform="scale(1,-1)" x="-1000.0" y="-1120">26</text>
      <text class="lr_text" transform="scale(1,-1)" x="-840.0" y="-1120">26</text>
      <text class="rl_text" transform="scale(1,-1)" x="-840.0" y="-1160">27</text>
      <text class="rl_text" transform="scale(1,-1)" x="-1000.0" y="-1160">27</text>
      <text class="lr_text" transform="scale(1,-1)" x="-1000.0" y="-1200">28</text>
      <text class="lr_text" transform="scale(1,-1)" x="-840.0" y="-1200">28</text>
      <text class="rl_text" transform="scale(1,-1)" x="-840.0" y="-1240">29</text>
      <text class="rl_text" transform="scale(1,-1)" x="-1000.0" y="-1240">29</text>
      <text class="lr_text" transform="scale(1,-1)" x="-1000.0" y="-1280">30</text>
      <text class="lr_text" transform="scale(1,-1)" x="-840.0" y="-1280">30</text>
      <text class="rl_text" transform="scale(1,-1)" x="-840.0" y="-1320">31</text>
      <text class="rl_text" transform="scale(1,-1)" x="-1000.0" y="-1320">31</text>
      <text class="lr_text" transform="scale(1,-1)" x="-1000.0" y="-1360">32</text>
      <text class="lr_text" transform="scale(1,-1)" x="-840.0" y="-1360">32</text>
      <text class="rl_text" transform="scale(1,-1)" x="-840.0" y="-1400">33</text>
      <text class="rl_text" transform="scale(1,-1)" x="-1000.0" y="-1400">33</text>
      <text class="lr_text" transform="scale(1,-1)" x="-1000.0" y="-1440">34</text>
      <text class="lr_text" transform="scale(1,-1)" x="-840.0" y="-1440">34</text>
      <text class="rl_text" transform="scale(1,-1)" x="-840.0" y="-1480">35</text>
      <text class="rl_text" transform="scale(1,-1)" x="-1000.0" y="-1480">35</text>
      <text class="lr_text" transform="scale(1,-1)" x="-1000.0" y="-1520">36</text>
      <text class="lr_text" transform="scale(1,-1)" x="-840.0" y="-1520">36</text>
      <text class="rl_text" transform="scale(1,-1)" x="-840.0" y="-1560">37</text>
      <text class="rl_text" transform="scale(1,-1)" x="-1000.0" y="-1560">37</text>
      <text class="lr_text" transform="scale(1,-1)" x="-1000.0" y="-1600">38</text>
      <text class="lr_text" transform="scale(1,-1)" x="-840.0" y="-1600">38</text>
      <text class="rl_text" transform="scale(1,-1)" x="-840.0" y="-1640">39</text>
      <text class="rl_text" transform="scale(1,-1)" x="-1000.0" y="-1640">39</text>
    </g>
  </g>
</svg>
