<?xml version="1.0" encoding="utf-8" ?>
<svg xmlns="http://www.w3.org/2000/svg" xmlns:ev="http://www.w3.org/2001/xml-events" xmlns:xlink="http://www.w3.org/1999/xlink" baseProfile="full" height="100%" version="1.1" viewBox="-2000.0,-3760.0,5760.0,1360.0" width="100%">
  <defs>
    <marker id="id16" markerHeight="10" markerUnits="strokeWidth" markerWidth="8" orient="auto" refX="30" refY="30" viewBox="0 0 120 120">
      <path d="M 0 0 L 60 30 L 0 60 z" fill="red"/>
    </marker>
    <marker id="id17" markerHeight="10" markerUnits="strokeWidth" markerWidth="8" orient="auto" refX="30" refY="30" viewBox="0 0 120 120">
      <path d="M 0 0 L 60 30 L 0 60 z" fill="green"/>
    </marker>
    <marker id="id18" markerHeight="10" markerUnits="strokeWidth" markerWidth="8" orient="auto" refX="30" refY="30" viewBox="0 0 120 120">
      <path d="M 0 0 L 60 30 L 0 60 z" fill="blue"/>
    </marker>
    <marker id="id19" markerHeight="10" markerUnits="strokeWidth" markerWidth="4" orient="auto" refX="0" refY="0" viewBox="-10 -30 20 60">
      <rect fill="blue" height="1" width="1" x="-5" y="-15"/>
    </marker>
    <style type="text/css"><![CDATA[
                text{font-family: LATO; font-weight: 800; font-size: 25px;}
                svg{outline: 1px solid grey; outline-offset: -2px;}
                .module_boundary{fill:#f4f0e6}
                .origin{stroke: red; stroke-width: 1;}
                .channel{stroke: grey; stroke-width: 4;}
                .switch{stroke: black; fill:blue; stroke-width: 0;}
                .short{stroke: black; fill:black; stroke-width: 0;}
                .inpin{stroke: red;stroke-width: 4;}
                .outpin{stroke: green;stroke-width: 4;}
                .rl_chan{stroke: red;}
                .lr_chan{stroke: blue;}
                .lr_text{fill: blue;}
                .rl_text{fill: red;}
                .bt_chan{stroke: red;}
                .bt_text{fill: red;}
                .tb_chan{stroke: blue;}
                .tb_text{fill: blue;}
                .region1{fill: #CCE7D4;}
                .region2{fill: #F8AC92;}
                .region3{fill: #C4E7EB;}
                .region4{fill: #F5F3C9;}
                .boundry{stroke: red;stroke-width: 10;fill: none;opacity: 10%;}
                .OPIN{fill: green;}
                .left_pin{
                    fill:blue;
                    text-anchor: start;
                    transform: translate(5px, 00px) scale(1,-1);}
                .right_pin{
                    fill:blue;
                    text-anchor: end;
                    transform: translate(-5px, 00px) scale(1,-1);}
                .bottom_pin{
                    fill:blue;
                    transform-box: fill-box;
                    transform-origin: start;
                    text-anchor: start;
                    transform: translate(0px, 10px) rotate(90deg) scale(1,-1);}
                .top_pin{
                    fill:blue;
                    transform-box: fill-box;
                    transform-origin: bottom left;
                    text-anchor: start;
                    transform: translate(0px, -3px) rotate(-90deg) scale(1,-1);}
                .in_pin{fill: blue !important;}
                .out_pin{fill: red !important;}
            ]]></style>
  </defs>
  <g id="bg">
    <line class="origin" x1="0" x2="0" y1="40" y2="-40"/>
    <line class="origin" x1="40" x2="-40" y1="0" y2="0"/>
  </g>
  <g id="region" transform="scale(1,-1)"/>
  <g id="mainframe">
    <g id="mainShapes" transform="scale(1,-1)">
      <line class="channel rl_chan" marker-end="url(#id16)" x1="80" x2="80" y1="2600.0" y2="3560.0"/>
      <line class="channel lr_chan" marker-end="url(#id18)" x1="120" x2="120" y1="3560.0" y2="2600.0"/>
      <line class="channel rl_chan" marker-end="url(#id16)" x1="160" x2="160" y1="2600.0" y2="3560.0"/>
      <line class="channel lr_chan" marker-end="url(#id18)" x1="200" x2="200" y1="3560.0" y2="2600.0"/>
      <line class="channel rl_chan" marker-end="url(#id16)" x1="240" x2="240" y1="2600.0" y2="3560.0"/>
      <line class="channel lr_chan" marker-end="url(#id18)" x1="280" x2="280" y1="3560.0" y2="2600.0"/>
      <line class="channel rl_chan" marker-end="url(#id16)" x1="320" x2="320" y1="2600.0" y2="3560.0"/>
      <line class="channel lr_chan" marker-end="url(#id18)" x1="360" x2="360" y1="3560.0" y2="2600.0"/>
      <line class="channel rl_chan" marker-end="url(#id16)" x1="400" x2="400" y1="2600.0" y2="3560.0"/>
      <line class="channel lr_chan" marker-end="url(#id18)" x1="440" x2="440" y1="3560.0" y2="2600.0"/>
      <line class="channel rl_chan" marker-end="url(#id16)" x1="480" x2="480" y1="2600.0" y2="3560.0"/>
      <line class="channel lr_chan" marker-end="url(#id18)" x1="520" x2="520" y1="3560.0" y2="2600.0"/>
      <line class="channel rl_chan" marker-end="url(#id16)" x1="560" x2="560" y1="2600.0" y2="3560.0"/>
      <line class="channel lr_chan" marker-end="url(#id18)" x1="600" x2="600" y1="3560.0" y2="2600.0"/>
      <line class="channel rl_chan" marker-end="url(#id16)" x1="640" x2="640" y1="2600.0" y2="3560.0"/>
      <line class="channel lr_chan" marker-end="url(#id18)" x1="680" x2="680" y1="3560.0" y2="2600.0"/>
      <line class="channel rl_chan" marker-end="url(#id16)" x1="720" x2="720" y1="2600.0" y2="3560.0"/>
      <line class="channel lr_chan" marker-end="url(#id18)" x1="760" x2="760" y1="3560.0" y2="2600.0"/>
      <line class="channel rl_chan" marker-end="url(#id16)" x1="800" x2="800" y1="2600.0" y2="3560.0"/>
      <line class="channel lr_chan" marker-end="url(#id18)" x1="840" x2="840" y1="3560.0" y2="2600.0"/>
      <line class="channel rl_chan" marker-end="url(#id16)" x1="880" x2="880" y1="2600.0" y2="3560.0"/>
      <line class="channel lr_chan" marker-end="url(#id18)" x1="920" x2="920" y1="3560.0" y2="2600.0"/>
      <line class="channel rl_chan" marker-end="url(#id16)" x1="960" x2="960" y1="2600.0" y2="3560.0"/>
      <line class="channel lr_chan" marker-end="url(#id18)" x1="1000" x2="1000" y1="3560.0" y2="2600.0"/>
      <line class="channel rl_chan" marker-end="url(#id16)" x1="1040" x2="1040" y1="2600.0" y2="3560.0"/>
      <line class="channel lr_chan" marker-end="url(#id18)" x1="1080" x2="1080" y1="3560.0" y2="2600.0"/>
      <line class="channel rl_chan" marker-end="url(#id16)" x1="1120" x2="1120" y1="2600.0" y2="3560.0"/>
      <line class="channel lr_chan" marker-end="url(#id18)" x1="1160" x2="1160" y1="3560.0" y2="2600.0"/>
      <line class="channel rl_chan" marker-end="url(#id16)" x1="1200" x2="1200" y1="2600.0" y2="3560.0"/>
      <line class="channel lr_chan" marker-end="url(#id18)" x1="1240" x2="1240" y1="3560.0" y2="2600.0"/>
      <line class="channel rl_chan" marker-end="url(#id16)" x1="1280" x2="1280" y1="2600.0" y2="3560.0"/>
      <line class="channel lr_chan" marker-end="url(#id18)" x1="1320" x2="1320" y1="3560.0" y2="2600.0"/>
      <line class="channel rl_chan" marker-end="url(#id16)" x1="1360" x2="1360" y1="2600.0" y2="3560.0"/>
      <line class="channel lr_chan" marker-end="url(#id18)" x1="1400" x2="1400" y1="3560.0" y2="2600.0"/>
      <line class="channel rl_chan" marker-end="url(#id16)" x1="1440" x2="1440" y1="2600.0" y2="3560.0"/>
      <line class="channel lr_chan" marker-end="url(#id18)" x1="1480" x2="1480" y1="3560.0" y2="2600.0"/>
      <line class="channel rl_chan" marker-end="url(#id16)" x1="1520" x2="1520" y1="2600.0" y2="3560.0"/>
      <line class="channel lr_chan" marker-end="url(#id18)" x1="1560" x2="1560" y1="3560.0" y2="2600.0"/>
      <line class="channel rl_chan" marker-end="url(#id16)" x1="1600" x2="1600" y1="2600.0" y2="3560.0"/>
      <line class="channel lr_chan" marker-end="url(#id18)" x1="1640" x2="1640" y1="3560.0" y2="2600.0"/>
      <line class="channel" marker-end="url(#id16)" marker-start="url(#id16)" x1="-560.0" x2="2600.0" y1="3480.0" y2="3480.0"/>
      <line class="channel" marker-end="url(#id16)" marker-start="url(#id16)" x1="-560.0" x2="2600.0" y1="3440.0" y2="3440.0"/>
      <line class="channel" marker-end="url(#id16)" marker-start="url(#id16)" x1="-560.0" x2="2600.0" y1="3400.0" y2="3400.0"/>
      <line class="channel" marker-end="url(#id16)" marker-start="url(#id16)" x1="-560.0" x2="2600.0" y1="3360.0" y2="3360.0"/>
      <line class="channel" marker-end="url(#id16)" marker-start="url(#id16)" x1="-560.0" x2="2600.0" y1="3320.0" y2="3320.0"/>
      <line class="channel" marker-end="url(#id16)" marker-start="url(#id16)" x1="-560.0" x2="2600.0" y1="3280.0" y2="3280.0"/>
      <line class="channel" marker-end="url(#id16)" marker-start="url(#id16)" x1="-560.0" x2="2600.0" y1="3240.0" y2="3240.0"/>
      <line class="channel" marker-end="url(#id16)" marker-start="url(#id16)" x1="-560.0" x2="2600.0" y1="3200.0" y2="3200.0"/>
      <line class="channel" marker-end="url(#id16)" marker-start="url(#id16)" x1="-560.0" x2="2600.0" y1="3160.0" y2="3160.0"/>
      <line class="channel" marker-end="url(#id16)" marker-start="url(#id16)" x1="-560.0" x2="2600.0" y1="3120.0" y2="3120.0"/>
      <line class="channel" marker-end="url(#id16)" marker-start="url(#id16)" x1="2320.0" x2="-840.0" y1="2680.0" y2="2680.0"/>
      <line class="channel" marker-end="url(#id16)" marker-start="url(#id16)" x1="2320.0" x2="-840.0" y1="2720.0" y2="2720.0"/>
      <line class="channel" marker-end="url(#id16)" marker-start="url(#id16)" x1="2320.0" x2="-840.0" y1="2760.0" y2="2760.0"/>
      <line class="channel" marker-end="url(#id16)" marker-start="url(#id16)" x1="2320.0" x2="-840.0" y1="2800.0" y2="2800.0"/>
      <line class="channel" marker-end="url(#id16)" marker-start="url(#id16)" x1="2320.0" x2="-840.0" y1="2840.0" y2="2840.0"/>
      <line class="channel" marker-end="url(#id16)" marker-start="url(#id16)" x1="2320.0" x2="-840.0" y1="2880.0" y2="2880.0"/>
      <line class="channel" marker-end="url(#id16)" marker-start="url(#id16)" x1="2320.0" x2="-840.0" y1="2920.0" y2="2920.0"/>
      <line class="channel" marker-end="url(#id16)" marker-start="url(#id16)" x1="2320.0" x2="-840.0" y1="2960.0" y2="2960.0"/>
      <line class="channel" marker-end="url(#id16)" marker-start="url(#id16)" x1="2320.0" x2="-840.0" y1="3000.0" y2="3000.0"/>
      <line class="channel" marker-end="url(#id16)" marker-start="url(#id16)" x1="2320.0" x2="-840.0" y1="3040.0" y2="3040.0"/>
    </g>
    <g id="switches" transform="scale(1,-1)">
      <circle class="switch" cx="80" cy="3480.0" r="10"/>
      <circle class="switch" cx="120" cy="3480.0" r="10"/>
      <circle class="switch" cx="560" cy="3480.0" r="10"/>
      <circle class="switch" cx="600" cy="3480.0" r="10"/>
      <circle class="switch" cx="1040" cy="3480.0" r="10"/>
      <circle class="switch" cx="1080" cy="3480.0" r="10"/>
      <circle class="switch" cx="1520" cy="3480.0" r="10"/>
      <circle class="switch" cx="1560" cy="3480.0" r="10"/>
      <circle class="switch" cx="160" cy="3440.0" r="10"/>
      <circle class="switch" cx="200" cy="3440.0" r="10"/>
      <circle class="switch" cx="640" cy="3440.0" r="10"/>
      <circle class="switch" cx="680" cy="3440.0" r="10"/>
      <circle class="switch" cx="1120" cy="3440.0" r="10"/>
      <circle class="switch" cx="1160" cy="3440.0" r="10"/>
      <circle class="switch" cx="1600" cy="3440.0" r="10"/>
      <circle class="switch" cx="1640" cy="3440.0" r="10"/>
      <circle class="switch" cx="80" cy="3400.0" r="10"/>
      <circle class="switch" cx="120" cy="3400.0" r="10"/>
      <circle class="switch" cx="240" cy="3400.0" r="10"/>
      <circle class="switch" cx="280" cy="3400.0" r="10"/>
      <circle class="switch" cx="720" cy="3400.0" r="10"/>
      <circle class="switch" cx="760" cy="3400.0" r="10"/>
      <circle class="switch" cx="1200" cy="3400.0" r="10"/>
      <circle class="switch" cx="1240" cy="3400.0" r="10"/>
      <circle class="switch" cx="160" cy="3360.0" r="10"/>
      <circle class="switch" cx="200" cy="3360.0" r="10"/>
      <circle class="switch" cx="320" cy="3360.0" r="10"/>
      <circle class="switch" cx="360" cy="3360.0" r="10"/>
      <circle class="switch" cx="800" cy="3360.0" r="10"/>
      <circle class="switch" cx="840" cy="3360.0" r="10"/>
      <circle class="switch" cx="1280" cy="3360.0" r="10"/>
      <circle class="switch" cx="1320" cy="3360.0" r="10"/>
      <circle class="switch" cx="240" cy="3320.0" r="10"/>
      <circle class="switch" cx="280" cy="3320.0" r="10"/>
      <circle class="switch" cx="400" cy="3320.0" r="10"/>
      <circle class="switch" cx="440" cy="3320.0" r="10"/>
      <circle class="switch" cx="880" cy="3320.0" r="10"/>
      <circle class="switch" cx="920" cy="3320.0" r="10"/>
      <circle class="switch" cx="1360" cy="3320.0" r="10"/>
      <circle class="switch" cx="1400" cy="3320.0" r="10"/>
      <circle class="switch" cx="320" cy="3280.0" r="10"/>
      <circle class="switch" cx="360" cy="3280.0" r="10"/>
      <circle class="switch" cx="480" cy="3280.0" r="10"/>
      <circle class="switch" cx="520" cy="3280.0" r="10"/>
      <circle class="switch" cx="960" cy="3280.0" r="10"/>
      <circle class="switch" cx="1000" cy="3280.0" r="10"/>
      <circle class="switch" cx="1440" cy="3280.0" r="10"/>
      <circle class="switch" cx="1480" cy="3280.0" r="10"/>
      <circle class="switch" cx="400" cy="3240.0" r="10"/>
      <circle class="switch" cx="440" cy="3240.0" r="10"/>
      <circle class="switch" cx="560" cy="3240.0" r="10"/>
      <circle class="switch" cx="600" cy="3240.0" r="10"/>
      <circle class="switch" cx="1040" cy="3240.0" r="10"/>
      <circle class="switch" cx="1080" cy="3240.0" r="10"/>
      <circle class="switch" cx="1520" cy="3240.0" r="10"/>
      <circle class="switch" cx="1560" cy="3240.0" r="10"/>
      <circle class="switch" cx="480" cy="3200.0" r="10"/>
      <circle class="switch" cx="520" cy="3200.0" r="10"/>
      <circle class="switch" cx="640" cy="3200.0" r="10"/>
      <circle class="switch" cx="680" cy="3200.0" r="10"/>
      <circle class="switch" cx="1120" cy="3200.0" r="10"/>
      <circle class="switch" cx="1160" cy="3200.0" r="10"/>
      <circle class="switch" cx="1600" cy="3200.0" r="10"/>
      <circle class="switch" cx="1640" cy="3200.0" r="10"/>
      <circle class="switch" cx="80" cy="3160.0" r="10"/>
      <circle class="switch" cx="120" cy="3160.0" r="10"/>
      <circle class="switch" cx="560" cy="3160.0" r="10"/>
      <circle class="switch" cx="600" cy="3160.0" r="10"/>
      <circle class="switch" cx="720" cy="3160.0" r="10"/>
      <circle class="switch" cx="760" cy="3160.0" r="10"/>
      <circle class="switch" cx="1200" cy="3160.0" r="10"/>
      <circle class="switch" cx="1240" cy="3160.0" r="10"/>
      <circle class="switch" cx="160" cy="3120.0" r="10"/>
      <circle class="switch" cx="200" cy="3120.0" r="10"/>
      <circle class="switch" cx="640" cy="3120.0" r="10"/>
      <circle class="switch" cx="680" cy="3120.0" r="10"/>
      <circle class="switch" cx="800" cy="3120.0" r="10"/>
      <circle class="switch" cx="840" cy="3120.0" r="10"/>
      <circle class="switch" cx="1280" cy="3120.0" r="10"/>
      <circle class="switch" cx="1320" cy="3120.0" r="10"/>
      <circle class="switch" cx="240" cy="2680.0" r="10"/>
      <circle class="switch" cx="280" cy="2680.0" r="10"/>
      <circle class="switch" cx="720" cy="2680.0" r="10"/>
      <circle class="switch" cx="760" cy="2680.0" r="10"/>
      <circle class="switch" cx="880" cy="2680.0" r="10"/>
      <circle class="switch" cx="920" cy="2680.0" r="10"/>
      <circle class="switch" cx="1360" cy="2680.0" r="10"/>
      <circle class="switch" cx="1400" cy="2680.0" r="10"/>
      <circle class="switch" cx="320" cy="2720.0" r="10"/>
      <circle class="switch" cx="360" cy="2720.0" r="10"/>
      <circle class="switch" cx="800" cy="2720.0" r="10"/>
      <circle class="switch" cx="840" cy="2720.0" r="10"/>
      <circle class="switch" cx="960" cy="2720.0" r="10"/>
      <circle class="switch" cx="1000" cy="2720.0" r="10"/>
      <circle class="switch" cx="1440" cy="2720.0" r="10"/>
      <circle class="switch" cx="1480" cy="2720.0" r="10"/>
      <circle class="switch" cx="400" cy="2760.0" r="10"/>
      <circle class="switch" cx="440" cy="2760.0" r="10"/>
      <circle class="switch" cx="880" cy="2760.0" r="10"/>
      <circle class="switch" cx="920" cy="2760.0" r="10"/>
      <circle class="switch" cx="1040" cy="2760.0" r="10"/>
      <circle class="switch" cx="1080" cy="2760.0" r="10"/>
      <circle class="switch" cx="1520" cy="2760.0" r="10"/>
      <circle class="switch" cx="1560" cy="2760.0" r="10"/>
      <circle class="switch" cx="480" cy="2800.0" r="10"/>
      <circle class="switch" cx="520" cy="2800.0" r="10"/>
      <circle class="switch" cx="960" cy="2800.0" r="10"/>
      <circle class="switch" cx="1000" cy="2800.0" r="10"/>
      <circle class="switch" cx="1120" cy="2800.0" r="10"/>
      <circle class="switch" cx="1160" cy="2800.0" r="10"/>
      <circle class="switch" cx="1600" cy="2800.0" r="10"/>
      <circle class="switch" cx="1640" cy="2800.0" r="10"/>
      <circle class="switch" cx="80" cy="2840.0" r="10"/>
      <circle class="switch" cx="120" cy="2840.0" r="10"/>
      <circle class="switch" cx="560" cy="2840.0" r="10"/>
      <circle class="switch" cx="600" cy="2840.0" r="10"/>
      <circle class="switch" cx="1040" cy="2840.0" r="10"/>
      <circle class="switch" cx="1080" cy="2840.0" r="10"/>
      <circle class="switch" cx="1200" cy="2840.0" r="10"/>
      <circle class="switch" cx="1240" cy="2840.0" r="10"/>
      <circle class="switch" cx="160" cy="2880.0" r="10"/>
      <circle class="switch" cx="200" cy="2880.0" r="10"/>
      <circle class="switch" cx="640" cy="2880.0" r="10"/>
      <circle class="switch" cx="680" cy="2880.0" r="10"/>
      <circle class="switch" cx="1120" cy="2880.0" r="10"/>
      <circle class="switch" cx="1160" cy="2880.0" r="10"/>
      <circle class="switch" cx="1280" cy="2880.0" r="10"/>
      <circle class="switch" cx="1320" cy="2880.0" r="10"/>
      <circle class="switch" cx="240" cy="2920.0" r="10"/>
      <circle class="switch" cx="280" cy="2920.0" r="10"/>
      <circle class="switch" cx="720" cy="2920.0" r="10"/>
      <circle class="switch" cx="760" cy="2920.0" r="10"/>
      <circle class="switch" cx="1200" cy="2920.0" r="10"/>
      <circle class="switch" cx="1240" cy="2920.0" r="10"/>
      <circle class="switch" cx="1360" cy="2920.0" r="10"/>
      <circle class="switch" cx="1400" cy="2920.0" r="10"/>
      <circle class="switch" cx="320" cy="2960.0" r="10"/>
      <circle class="switch" cx="360" cy="2960.0" r="10"/>
      <circle class="switch" cx="800" cy="2960.0" r="10"/>
      <circle class="switch" cx="840" cy="2960.0" r="10"/>
      <circle class="switch" cx="1280" cy="2960.0" r="10"/>
      <circle class="switch" cx="1320" cy="2960.0" r="10"/>
      <circle class="switch" cx="1440" cy="2960.0" r="10"/>
      <circle class="switch" cx="1480" cy="2960.0" r="10"/>
      <circle class="switch" cx="400" cy="3000.0" r="10"/>
      <circle class="switch" cx="440" cy="3000.0" r="10"/>
      <circle class="switch" cx="880" cy="3000.0" r="10"/>
      <circle class="switch" cx="920" cy="3000.0" r="10"/>
      <circle class="switch" cx="1360" cy="3000.0" r="10"/>
      <circle class="switch" cx="1400" cy="3000.0" r="10"/>
      <circle class="switch" cx="1520" cy="3000.0" r="10"/>
      <circle class="switch" cx="1560" cy="3000.0" r="10"/>
      <circle class="switch" cx="480" cy="3040.0" r="10"/>
      <circle class="switch" cx="520" cy="3040.0" r="10"/>
      <circle class="switch" cx="960" cy="3040.0" r="10"/>
      <circle class="switch" cx="1000" cy="3040.0" r="10"/>
      <circle class="switch" cx="1440" cy="3040.0" r="10"/>
      <circle class="switch" cx="1480" cy="3040.0" r="10"/>
      <circle class="switch" cx="1600" cy="3040.0" r="10"/>
      <circle class="switch" cx="1640" cy="3040.0" r="10"/>
    </g>
    <g id="mainText" transform="scale(1,-1)">
      <text class="rl_text" transform="scale(1,-1)" x="80" y="-2600.0">0</text>
      <text class="rl_text" transform="scale(1,-1)" x="80" y="-3560.0">0</text>
      <text class="lr_text" transform="scale(1,-1)" x="120" y="-3560.0">1</text>
      <text class="lr_text" transform="scale(1,-1)" x="120" y="-2600.0">1</text>
      <text class="rl_text" transform="scale(1,-1)" x="160" y="-2600.0">2</text>
      <text class="rl_text" transform="scale(1,-1)" x="160" y="-3560.0">2</text>
      <text class="lr_text" transform="scale(1,-1)" x="200" y="-3560.0">3</text>
      <text class="lr_text" transform="scale(1,-1)" x="200" y="-2600.0">3</text>
      <text class="rl_text" transform="scale(1,-1)" x="240" y="-2600.0">4</text>
      <text class="rl_text" transform="scale(1,-1)" x="240" y="-3560.0">4</text>
      <text class="lr_text" transform="scale(1,-1)" x="280" y="-3560.0">5</text>
      <text class="lr_text" transform="scale(1,-1)" x="280" y="-2600.0">5</text>
      <text class="rl_text" transform="scale(1,-1)" x="320" y="-2600.0">6</text>
      <text class="rl_text" transform="scale(1,-1)" x="320" y="-3560.0">6</text>
      <text class="lr_text" transform="scale(1,-1)" x="360" y="-3560.0">7</text>
      <text class="lr_text" transform="scale(1,-1)" x="360" y="-2600.0">7</text>
      <text class="rl_text" transform="scale(1,-1)" x="400" y="-2600.0">8</text>
      <text class="rl_text" transform="scale(1,-1)" x="400" y="-3560.0">8</text>
      <text class="lr_text" transform="scale(1,-1)" x="440" y="-3560.0">9</text>
      <text class="lr_text" transform="scale(1,-1)" x="440" y="-2600.0">9</text>
      <text class="rl_text" transform="scale(1,-1)" x="480" y="-2600.0">10</text>
      <text class="rl_text" transform="scale(1,-1)" x="480" y="-3560.0">10</text>
      <text class="lr_text" transform="scale(1,-1)" x="520" y="-3560.0">11</text>
      <text class="lr_text" transform="scale(1,-1)" x="520" y="-2600.0">11</text>
      <text class="rl_text" transform="scale(1,-1)" x="560" y="-2600.0">12</text>
      <text class="rl_text" transform="scale(1,-1)" x="560" y="-3560.0">12</text>
      <text class="lr_text" transform="scale(1,-1)" x="600" y="-3560.0">13</text>
      <text class="lr_text" transform="scale(1,-1)" x="600" y="-2600.0">13</text>
      <text class="rl_text" transform="scale(1,-1)" x="640" y="-2600.0">14</text>
      <text class="rl_text" transform="scale(1,-1)" x="640" y="-3560.0">14</text>
      <text class="lr_text" transform="scale(1,-1)" x="680" y="-3560.0">15</text>
      <text class="lr_text" transform="scale(1,-1)" x="680" y="-2600.0">15</text>
      <text class="rl_text" transform="scale(1,-1)" x="720" y="-2600.0">16</text>
      <text class="rl_text" transform="scale(1,-1)" x="720" y="-3560.0">16</text>
      <text class="lr_text" transform="scale(1,-1)" x="760" y="-3560.0">17</text>
      <text class="lr_text" transform="scale(1,-1)" x="760" y="-2600.0">17</text>
      <text class="rl_text" transform="scale(1,-1)" x="800" y="-2600.0">18</text>
      <text class="rl_text" transform="scale(1,-1)" x="800" y="-3560.0">18</text>
      <text class="lr_text" transform="scale(1,-1)" x="840" y="-3560.0">19</text>
      <text class="lr_text" transform="scale(1,-1)" x="840" y="-2600.0">19</text>
      <text class="rl_text" transform="scale(1,-1)" x="880" y="-2600.0">20</text>
      <text class="rl_text" transform="scale(1,-1)" x="880" y="-3560.0">20</text>
      <text class="lr_text" transform="scale(1,-1)" x="920" y="-3560.0">21</text>
      <text class="lr_text" transform="scale(1,-1)" x="920" y="-2600.0">21</text>
      <text class="rl_text" transform="scale(1,-1)" x="960" y="-2600.0">22</text>
      <text class="rl_text" transform="scale(1,-1)" x="960" y="-3560.0">22</text>
      <text class="lr_text" transform="scale(1,-1)" x="1000" y="-3560.0">23</text>
      <text class="lr_text" transform="scale(1,-1)" x="1000" y="-2600.0">23</text>
      <text class="rl_text" transform="scale(1,-1)" x="1040" y="-2600.0">24</text>
      <text class="rl_text" transform="scale(1,-1)" x="1040" y="-3560.0">24</text>
      <text class="lr_text" transform="scale(1,-1)" x="1080" y="-3560.0">25</text>
      <text class="lr_text" transform="scale(1,-1)" x="1080" y="-2600.0">25</text>
      <text class="rl_text" transform="scale(1,-1)" x="1120" y="-2600.0">26</text>
      <text class="rl_text" transform="scale(1,-1)" x="1120" y="-3560.0">26</text>
      <text class="lr_text" transform="scale(1,-1)" x="1160" y="-3560.0">27</text>
      <text class="lr_text" transform="scale(1,-1)" x="1160" y="-2600.0">27</text>
      <text class="rl_text" transform="scale(1,-1)" x="1200" y="-2600.0">28</text>
      <text class="rl_text" transform="scale(1,-1)" x="1200" y="-3560.0">28</text>
      <text class="lr_text" transform="scale(1,-1)" x="1240" y="-3560.0">29</text>
      <text class="lr_text" transform="scale(1,-1)" x="1240" y="-2600.0">29</text>
      <text class="rl_text" transform="scale(1,-1)" x="1280" y="-2600.0">30</text>
      <text class="rl_text" transform="scale(1,-1)" x="1280" y="-3560.0">30</text>
      <text class="lr_text" transform="scale(1,-1)" x="1320" y="-3560.0">31</text>
      <text class="lr_text" transform="scale(1,-1)" x="1320" y="-2600.0">31</text>
      <text class="rl_text" transform="scale(1,-1)" x="1360" y="-2600.0">32</text>
      <text class="rl_text" transform="scale(1,-1)" x="1360" y="-3560.0">32</text>
      <text class="lr_text" transform="scale(1,-1)" x="1400" y="-3560.0">33</text>
      <text class="lr_text" transform="scale(1,-1)" x="1400" y="-2600.0">33</text>
      <text class="rl_text" transform="scale(1,-1)" x="1440" y="-2600.0">34</text>
      <text class="rl_text" transform="scale(1,-1)" x="1440" y="-3560.0">34</text>
      <text class="lr_text" transform="scale(1,-1)" x="1480" y="-3560.0">35</text>
      <text class="lr_text" transform="scale(1,-1)" x="1480" y="-2600.0">35</text>
      <text class="rl_text" transform="scale(1,-1)" x="1520" y="-2600.0">36</text>
      <text class="rl_text" transform="scale(1,-1)" x="1520" y="-3560.0">36</text>
      <text class="lr_text" transform="scale(1,-1)" x="1560" y="-3560.0">37</text>
      <text class="lr_text" transform="scale(1,-1)" x="1560" y="-2600.0">37</text>
      <text class="rl_text" transform="scale(1,-1)" x="1600" y="-2600.0">38</text>
      <text class="rl_text" transform="scale(1,-1)" x="1600" y="-3560.0">38</text>
      <text class="lr_text" transform="scale(1,-1)" x="1640" y="-3560.0">39</text>
      <text class="lr_text" transform="scale(1,-1)" x="1640" y="-2600.0">39</text>
      <text class="OPIN" transform="scale(1,-1)" x="2600.0" y="-3480.0">0</text>
      <text class="OPIN" transform="scale(1,-1)" x="2600.0" y="-3440.0">1</text>
      <text class="OPIN" transform="scale(1,-1)" x="2600.0" y="-3400.0">2</text>
      <text class="OPIN" transform="scale(1,-1)" x="2600.0" y="-3360.0">3</text>
      <text class="OPIN" transform="scale(1,-1)" x="2600.0" y="-3320.0">4</text>
      <text class="OPIN" transform="scale(1,-1)" x="2600.0" y="-3280.0">5</text>
      <text class="OPIN" transform="scale(1,-1)" x="2600.0" y="-3240.0">6</text>
      <text class="OPIN" transform="scale(1,-1)" x="2600.0" y="-3200.0">7</text>
      <text class="OPIN" transform="scale(1,-1)" x="2600.0" y="-3160.0">8</text>
      <text class="OPIN" transform="scale(1,-1)" x="2600.0" y="-3120.0">9</text>
      <text class="OPIN" transform="scale(1,-1)" x="-840.0" y="-2680.0">0</text>
      <text class="OPIN" transform="scale(1,-1)" x="-840.0" y="-2720.0">1</text>
      <text class="OPIN" transform="scale(1,-1)" x="-840.0" y="-2760.0">2</text>
      <text class="OPIN" transform="scale(1,-1)" x="-840.0" y="-2800.0">3</text>
      <text class="OPIN" transform="scale(1,-1)" x="-840.0" y="-2840.0">4</text>
      <text class="OPIN" transform="scale(1,-1)" x="-840.0" y="-2880.0">5</text>
      <text class="OPIN" transform="scale(1,-1)" x="-840.0" y="-2920.0">6</text>
      <text class="OPIN" transform="scale(1,-1)" x="-840.0" y="-2960.0">7</text>
      <text class="OPIN" transform="scale(1,-1)" x="-840.0" y="-3000.0">8</text>
      <text class="OPIN" transform="scale(1,-1)" x="-840.0" y="-3040.0">9</text>
    </g>
  </g>
</svg>
