<?xml version="1.0" encoding="utf-8" ?>
<svg xmlns="http://www.w3.org/2000/svg" xmlns:ev="http://www.w3.org/2001/xml-events" xmlns:xlink="http://www.w3.org/1999/xlink" baseProfile="full" height="400" version="1.1" viewBox="0,-370.0,360,400" width="360">
    <defs id="id2">
        <marker id="conn_marker" markerHeight="10" markerUnits="strokeWidth" markerWidth="5" orient="auto" refX="30" refY="30" viewBox="0 0 120 120">
            <path d="M 0 0 L 60 30 L 0 60 z" fill="blue"/>
        </marker>
        <marker id="down_conn_marker" markerHeight="10" markerUnits="strokeWidth" markerWidth="5" orient="auto" viewBox="-15 -15 30 30">
            <rect fill="green" height="20" width="20" x="-10" y="-10"/>
            <path d="M 8 0 L -8 8 L -8 -8 z" fill="blue"/>
        </marker>
        <marker id="up_conn_marker" markerHeight="10" markerUnits="strokeWidth" markerWidth="5" orient="auto" viewBox="-15 -15 30 30">
            <rect fill="green" height="20" width="20" x="-10" y="-10"/>
            <path d="M 8 0 L -8 8 L -8 -8 z" fill="blue"/>
        </marker>
        <marker id="top_conn_marker" markerHeight="10" markerUnits="strokeWidth" markerWidth="5" orient="auto" viewBox="-15 -15 30 30">
            <line stroke="red" stroke-width="5px" x1="0" x2="0" y1="-15" y2="15"/>
        </marker>
        <marker id="buffer_marker" markerHeight="15" markerUnits="strokeWidth" markerWidth="30" orient="auto" viewBox="-15 -15 30 30">
            <path d="M 8 0 L -8 8 L -8 -8 z" fill="red"/>
        </marker>
        <style type="text/css"><![CDATA[
                text{font-family: Lato;}
                span{text-anchor: "middle"; alignment_baseline: "middle"}
                .gridLabels{fill: grey;font-style: italic;font-weight: 900}
                .gridmarker{stroke:red; stroke-width:0.2; opacity: 0.7;}
                
                .connection{ opacity: 0.75;
                            marker-end:url(#conn_marker);
                            stroke-width:1.2;}
                .down{stroke-dasharray: 2;
                    marker-end:url(#up_conn_marker);}
                .up{stroke-dasharray: 2;
                    marker-start:url(#down_conn_marker);}
                .top{stroke-dasharray: 2;
                    marker-start:url(#top_conn_marker);}
                .buffer{marker-mid:url(#buffer_marker);}
                ]]></style>
    </defs>
    <g id="markers" transform="scale(1,-1)">
        <line class="gridmarker" x1="10" x2="10" y1="10" y2="350"/>
        <line class="gridmarker" x1="30" x2="30" y1="10" y2="350"/>
        <line class="gridmarker" x1="50" x2="50" y1="10" y2="350"/>
        <line class="gridmarker" x1="70" x2="70" y1="10" y2="350"/>
        <line class="gridmarker" x1="90" x2="90" y1="10" y2="350"/>
        <line class="gridmarker" x1="110" x2="110" y1="10" y2="350"/>
        <line class="gridmarker" x1="130" x2="130" y1="10" y2="350"/>
        <line class="gridmarker" x1="150" x2="150" y1="10" y2="350"/>
        <line class="gridmarker" x1="170" x2="170" y1="10" y2="350"/>
        <line class="gridmarker" x1="190" x2="190" y1="10" y2="350"/>
        <line class="gridmarker" x1="210" x2="210" y1="10" y2="350"/>
        <line class="gridmarker" x1="230" x2="230" y1="10" y2="350"/>
        <line class="gridmarker" x1="250" x2="250" y1="10" y2="350"/>
        <line class="gridmarker" x1="270" x2="270" y1="10" y2="350"/>
        <line class="gridmarker" x1="290" x2="290" y1="10" y2="350"/>
        <line class="gridmarker" x1="310" x2="310" y1="10" y2="350"/>
        <line class="gridmarker" x1="330" x2="330" y1="10" y2="350"/>
        <line class="gridmarker" x1="350" x2="350" y1="10" y2="350"/>
        <line class="gridmarker" x1="10" x2="350" y1="10" y2="10"/>
        <line class="gridmarker" x1="10" x2="350" y1="30" y2="30"/>
        <line class="gridmarker" x1="10" x2="350" y1="50" y2="50"/>
        <line class="gridmarker" x1="10" x2="350" y1="70" y2="70"/>
        <line class="gridmarker" x1="10" x2="350" y1="90" y2="90"/>
        <line class="gridmarker" x1="10" x2="350" y1="110" y2="110"/>
        <line class="gridmarker" x1="10" x2="350" y1="130" y2="130"/>
        <line class="gridmarker" x1="10" x2="350" y1="150" y2="150"/>
        <line class="gridmarker" x1="10" x2="350" y1="170" y2="170"/>
        <line class="gridmarker" x1="10" x2="350" y1="190" y2="190"/>
        <line class="gridmarker" x1="10" x2="350" y1="210" y2="210"/>
        <line class="gridmarker" x1="10" x2="350" y1="230" y2="230"/>
        <line class="gridmarker" x1="10" x2="350" y1="250" y2="250"/>
        <line class="gridmarker" x1="10" x2="350" y1="270" y2="270"/>
        <line class="gridmarker" x1="10" x2="350" y1="290" y2="290"/>
        <line class="gridmarker" x1="10" x2="350" y1="310" y2="310"/>
        <line class="gridmarker" x1="10" x2="350" y1="330" y2="330"/>
        <line class="gridmarker" x1="10" x2="350" y1="350" y2="350"/>
    </g>
    <g id="main" transform="scale(1,-1)">
        <path class="connection same" d="M 100 100 L 110 100 L 120 100" stroke="blue"/>
        <path class="connection same" d="M 120 100 L 130 100 L 140 100" stroke="blue"/>
        <path class="connection same" d="M 140 100 L 140 110 L 140 120" stroke="blue"/>
        <path class="connection down" d="M 140 120 L 140 130 L 140 140" stroke="blue"/>
        <path class="connection same" d="M 140 100 L 140 90 L 140 80" stroke="blue"/>
        <path class="connection down" d="M 140 80 L 140 70 L 140 60" stroke="blue"/>
        <path class="connection same" d="M 100 100 L 90 100 L 80 100" stroke="blue"/>
        <path class="connection same" d="M 80 100 L 70 100 L 60 100" stroke="blue"/>
        <path class="connection same" d="M 60 100 L 60 110 L 60 120" stroke="blue"/>
        <path class="connection down" d="M 60 120 L 60 130 L 60 140" stroke="blue"/>
        <path class="connection same" d="M 60 100 L 60 90 L 60 80" stroke="blue"/>
        <path class="connection down" d="M 60 80 L 60 70 L 60 60" stroke="blue"/>
        <path class="connection same" d="M 100 260 L 110 260 L 120 260" stroke="blue"/>
        <path class="connection same" d="M 120 260 L 130 260 L 140 260" stroke="blue"/>
        <path class="connection same" d="M 140 260 L 140 270 L 140 280" stroke="blue"/>
        <path class="connection down" d="M 140 280 L 140 290 L 140 300" stroke="blue"/>
        <path class="connection same" d="M 140 260 L 140 250 L 140 240" stroke="blue"/>
        <path class="connection down" d="M 140 240 L 140 230 L 140 220" stroke="blue"/>
        <path class="connection same" d="M 100 260 L 90 260 L 80 260" stroke="blue"/>
        <path class="connection same" d="M 80 260 L 70 260 L 60 260" stroke="blue"/>
        <path class="connection same" d="M 60 260 L 60 270 L 60 280" stroke="blue"/>
        <path class="connection down" d="M 60 280 L 60 290 L 60 300" stroke="blue"/>
        <path class="connection same" d="M 60 260 L 60 250 L 60 240" stroke="blue"/>
        <path class="connection down" d="M 60 240 L 60 230 L 60 220" stroke="blue"/>
        <path class="connection same" d="M 260 100 L 270 100 L 280 100" stroke="blue"/>
        <path class="connection same" d="M 280 100 L 290 100 L 300 100" stroke="blue"/>
        <path class="connection same" d="M 300 100 L 300 110 L 300 120" stroke="blue"/>
        <path class="connection down" d="M 300 120 L 300 130 L 300 140" stroke="blue"/>
        <path class="connection same" d="M 300 100 L 300 90 L 300 80" stroke="blue"/>
        <path class="connection down" d="M 300 80 L 300 70 L 300 60" stroke="blue"/>
        <path class="connection same" d="M 260 100 L 250 100 L 240 100" stroke="blue"/>
        <path class="connection same" d="M 240 100 L 230 100 L 220 100" stroke="blue"/>
        <path class="connection same" d="M 220 100 L 220 110 L 220 120" stroke="blue"/>
        <path class="connection down" d="M 220 120 L 220 130 L 220 140" stroke="blue"/>
        <path class="connection same" d="M 220 100 L 220 90 L 220 80" stroke="blue"/>
        <path class="connection down" d="M 220 80 L 220 70 L 220 60" stroke="blue"/>
        <path class="connection same" d="M 260 260 L 270 260 L 280 260" stroke="blue"/>
        <path class="connection same" d="M 280 260 L 290 260 L 300 260" stroke="blue"/>
        <path class="connection same" d="M 300 260 L 300 270 L 300 280" stroke="blue"/>
        <path class="connection down" d="M 300 280 L 300 290 L 300 300" stroke="blue"/>
        <path class="connection same" d="M 300 260 L 300 250 L 300 240" stroke="blue"/>
        <path class="connection down" d="M 300 240 L 300 230 L 300 220" stroke="blue"/>
        <path class="connection same" d="M 260 260 L 250 260 L 240 260" stroke="blue"/>
        <path class="connection same" d="M 240 260 L 230 260 L 220 260" stroke="blue"/>
        <path class="connection same" d="M 220 260 L 220 270 L 220 280" stroke="blue"/>
        <path class="connection down" d="M 220 280 L 220 290 L 220 300" stroke="blue"/>
        <path class="connection same" d="M 220 260 L 220 250 L 220 240" stroke="blue"/>
        <path class="connection down" d="M 220 240 L 220 230 L 220 220" stroke="blue"/>
        <g id="text">
            <text alignment-baseline="middle" class="moduleLabel" fill="black" font-size="34.0" text-anchor="middle" transform="scale(1,-1)" x="180.0" y="10.0">L1 Pattern</text>
        </g>
    </g>
</svg>
