<?xml version="1.0" encoding="utf-8" ?>
<svg xmlns="http://www.w3.org/2000/svg" xmlns:ev="http://www.w3.org/2001/xml-events" xmlns:xlink="http://www.w3.org/1999/xlink" baseProfile="full" height="560" version="1.1" viewBox="0,-530.0,400,560" width="400">
    <defs id="id1">
        <marker id="conn_marker" markerHeight="10" markerUnits="strokeWidth" markerWidth="5" orient="auto" refX="30" refY="30" viewBox="0 0 120 120">
            <path d="M 0 0 L 60 30 L 0 60 z" fill="blue"/>
        </marker>
        <marker id="down_conn_marker" markerHeight="10" markerUnits="strokeWidth" markerWidth="5" orient="auto" viewBox="-15 -15 30 30">
            <rect fill="green" height="20" width="20" x="-10" y="-10"/>
            <path d="M 8 0 L -8 8 L -8 -8 z" fill="blue"/>
        </marker>
        <marker id="up_conn_marker" markerHeight="10" markerUnits="strokeWidth" markerWidth="5" orient="auto" viewBox="-15 -15 30 30">
            <rect fill="green" height="20" width="20" x="-10" y="-10"/>
            <path d="M 8 0 L -8 8 L -8 -8 z" fill="blue"/>
        </marker>
        <marker id="top_conn_marker" markerHeight="10" markerUnits="strokeWidth" markerWidth="5" orient="auto" viewBox="-15 -15 30 30">
            <line stroke="red" stroke-width="5px" x1="0" x2="0" y1="-15" y2="15"/>
        </marker>
        <marker id="buffer_marker" markerHeight="15" markerUnits="strokeWidth" markerWidth="30" orient="auto" viewBox="-15 -15 30 30">
            <path d="M 8 0 L -8 8 L -8 -8 z" fill="red"/>
        </marker>
        <style type="text/css"><![CDATA[
                text{font-family: Lato;}
                span{text-anchor: "middle"; alignment_baseline: "middle"}
                .gridLabels{fill: grey;font-style: italic;font-weight: 900}
                .gridmarker{stroke:red; stroke-width:0.2; opacity: 0.7;}
                
                .connection{ opacity: 0.75;
                            marker-end:url(#conn_marker);
                            stroke-width:1.2;}
                .down{stroke-dasharray: 2;
                    marker-end:url(#up_conn_marker);}
                .up{stroke-dasharray: 2;
                    marker-start:url(#down_conn_marker);}
                .top{stroke-dasharray: 2;
                    marker-start:url(#top_conn_marker);}
                .buffer{marker-mid:url(#buffer_marker);}
                ]]></style>
    </defs>
    <g id="markers" transform="scale(1,-1)">
        <line class="gridmarker" x1="10" x2="10" y1="10" y2="510"/>
        <line class="gridmarker" x1="30" x2="30" y1="10" y2="510"/>
        <line class="gridmarker" x1="50" x2="50" y1="10" y2="510"/>
        <line class="gridmarker" x1="70" x2="70" y1="10" y2="510"/>
        <line class="gridmarker" x1="90" x2="90" y1="10" y2="510"/>
        <line class="gridmarker" x1="110" x2="110" y1="10" y2="510"/>
        <line class="gridmarker" x1="130" x2="130" y1="10" y2="510"/>
        <line class="gridmarker" x1="150" x2="150" y1="10" y2="510"/>
        <line class="gridmarker" x1="170" x2="170" y1="10" y2="510"/>
        <line class="gridmarker" x1="190" x2="190" y1="10" y2="510"/>
        <line class="gridmarker" x1="210" x2="210" y1="10" y2="510"/>
        <line class="gridmarker" x1="230" x2="230" y1="10" y2="510"/>
        <line class="gridmarker" x1="250" x2="250" y1="10" y2="510"/>
        <line class="gridmarker" x1="270" x2="270" y1="10" y2="510"/>
        <line class="gridmarker" x1="290" x2="290" y1="10" y2="510"/>
        <line class="gridmarker" x1="310" x2="310" y1="10" y2="510"/>
        <line class="gridmarker" x1="330" x2="330" y1="10" y2="510"/>
        <line class="gridmarker" x1="350" x2="350" y1="10" y2="510"/>
        <line class="gridmarker" x1="370" x2="370" y1="10" y2="510"/>
        <line class="gridmarker" x1="390" x2="390" y1="10" y2="510"/>
        <line class="gridmarker" x1="10" x2="390" y1="10" y2="10"/>
        <line class="gridmarker" x1="10" x2="390" y1="30" y2="30"/>
        <line class="gridmarker" x1="10" x2="390" y1="50" y2="50"/>
        <line class="gridmarker" x1="10" x2="390" y1="70" y2="70"/>
        <line class="gridmarker" x1="10" x2="390" y1="90" y2="90"/>
        <line class="gridmarker" x1="10" x2="390" y1="110" y2="110"/>
        <line class="gridmarker" x1="10" x2="390" y1="130" y2="130"/>
        <line class="gridmarker" x1="10" x2="390" y1="150" y2="150"/>
        <line class="gridmarker" x1="10" x2="390" y1="170" y2="170"/>
        <line class="gridmarker" x1="10" x2="390" y1="190" y2="190"/>
        <line class="gridmarker" x1="10" x2="390" y1="210" y2="210"/>
        <line class="gridmarker" x1="10" x2="390" y1="230" y2="230"/>
        <line class="gridmarker" x1="10" x2="390" y1="250" y2="250"/>
        <line class="gridmarker" x1="10" x2="390" y1="270" y2="270"/>
        <line class="gridmarker" x1="10" x2="390" y1="290" y2="290"/>
        <line class="gridmarker" x1="10" x2="390" y1="310" y2="310"/>
        <line class="gridmarker" x1="10" x2="390" y1="330" y2="330"/>
        <line class="gridmarker" x1="10" x2="390" y1="350" y2="350"/>
        <line class="gridmarker" x1="10" x2="390" y1="370" y2="370"/>
        <line class="gridmarker" x1="10" x2="390" y1="390" y2="390"/>
        <line class="gridmarker" x1="10" x2="390" y1="410" y2="410"/>
        <line class="gridmarker" x1="10" x2="390" y1="430" y2="430"/>
        <line class="gridmarker" x1="10" x2="390" y1="450" y2="450"/>
        <line class="gridmarker" x1="10" x2="390" y1="470" y2="470"/>
        <line class="gridmarker" x1="10" x2="390" y1="490" y2="490"/>
        <line class="gridmarker" x1="10" x2="390" y1="510" y2="510"/>
    </g>
    <g id="main" transform="scale(1,-1)">
        <path class="connection same" d="M 200 260 L 210 260 L 220 260" stroke="red"/>
        <path class="connection same" d="M 220 260 L 230 260 L 240 260" stroke="red"/>
        <path class="connection same" d="M 240 260 L 250 260 L 260 260" stroke="red"/>
        <path class="connection same" d="M 260 260 L 270 260 L 280 260" stroke="red"/>
        <path class="connection same" d="M 280 260 L 290 260 L 300 260" stroke="red"/>
        <path class="connection same" d="M 300 260 L 300 270 L 300 280" stroke="red"/>
        <path class="connection same" d="M 300 280 L 300 290 L 300 300" stroke="red"/>
        <path class="connection same" d="M 300 300 L 300 310 L 300 320" stroke="red"/>
        <path class="connection same" d="M 300 320 L 300 330 L 300 340" stroke="red"/>
        <path class="connection same" d="M 300 340 L 300 350 L 300 360" stroke="red"/>
        <path class="connection same" d="M 300 260 L 300 250 L 300 240" stroke="red"/>
        <path class="connection same" d="M 300 240 L 300 230 L 300 220" stroke="red"/>
        <path class="connection same" d="M 300 220 L 300 210 L 300 200" stroke="red"/>
        <path class="connection same" d="M 300 200 L 300 190 L 300 180" stroke="red"/>
        <path class="connection same" d="M 300 180 L 300 170 L 300 160" stroke="red"/>
        <path class="connection same" d="M 200 260 L 190 260 L 180 260" stroke="red"/>
        <path class="connection same" d="M 180 260 L 170 260 L 160 260" stroke="red"/>
        <path class="connection same" d="M 160 260 L 150 260 L 140 260" stroke="red"/>
        <path class="connection same" d="M 140 260 L 130 260 L 120 260" stroke="red"/>
        <path class="connection same" d="M 120 260 L 110 260 L 100 260" stroke="red"/>
        <path class="connection same" d="M 100 260 L 100 270 L 100 280" stroke="red"/>
        <path class="connection same" d="M 100 280 L 100 290 L 100 300" stroke="red"/>
        <path class="connection same" d="M 100 300 L 100 310 L 100 320" stroke="red"/>
        <path class="connection same" d="M 100 320 L 100 330 L 100 340" stroke="red"/>
        <path class="connection same" d="M 100 340 L 100 350 L 100 360" stroke="red"/>
        <path class="connection same" d="M 100 260 L 100 250 L 100 240" stroke="red"/>
        <path class="connection same" d="M 100 240 L 100 230 L 100 220" stroke="red"/>
        <path class="connection same" d="M 100 220 L 100 210 L 100 200" stroke="red"/>
        <path class="connection same" d="M 100 200 L 100 190 L 100 180" stroke="red"/>
        <path class="connection same" d="M 100 180 L 100 170 L 100 160" stroke="red"/>
        <path class="connection same" d="M 200 0 L 200 10 L 200 20" stroke="red"/>
        <path class="connection same" d="M 200 20 L 200 30 L 200 40" stroke="red"/>
        <path class="connection same" d="M 200 40 L 200 50 L 200 60" stroke="red"/>
        <path class="connection same" d="M 200 60 L 200 70 L 200 80" stroke="red"/>
        <path class="connection same" d="M 200 80 L 200 90 L 200 100" stroke="red"/>
        <path class="connection same" d="M 200 100 L 200 110 L 200 120" stroke="red"/>
        <path class="connection same" d="M 200 120 L 200 130 L 200 140" stroke="red"/>
        <path class="connection same" d="M 200 140 L 200 150 L 200 160" stroke="red"/>
        <path class="connection same" d="M 200 160 L 200 170 L 200 180" stroke="red"/>
        <path class="connection same" d="M 200 180 L 200 190 L 200 200" stroke="red"/>
        <path class="connection same" d="M 200 200 L 200 210 L 200 220" stroke="red"/>
        <path class="connection same" d="M 200 220 L 200 230 L 200 240" stroke="red"/>
        <path class="connection same" d="M 200 240 L 200 250 L 200 260" stroke="red"/>
        <path class="connection same" d="M 200 260 L 200 270 L 200 280" stroke="red"/>
        <path class="connection same" d="M 200 280 L 200 290 L 200 300" stroke="red"/>
        <path class="connection same" d="M 200 300 L 200 310 L 200 320" stroke="red"/>
        <path class="connection same" d="M 200 320 L 200 330 L 200 340" stroke="red"/>
        <path class="connection same" d="M 200 340 L 200 350 L 200 360" stroke="red"/>
        <path class="connection same" d="M 200 360 L 200 370 L 200 380" stroke="red"/>
        <path class="connection same" d="M 200 380 L 200 390 L 200 400" stroke="red"/>
        <path class="connection same" d="M 200 400 L 200 410 L 200 420" stroke="red"/>
        <path class="connection same" d="M 200 420 L 200 430 L 200 440" stroke="red"/>
        <path class="connection same" d="M 200 440 L 200 450 L 200 460" stroke="red"/>
        <path class="connection same" d="M 200 460 L 200 470 L 200 480" stroke="red"/>
        <path class="connection same" d="M 200 480 L 200 490 L 200 500" stroke="red"/>
        <path class="connection down" d="M 100 180 L 100 170 L 100 160" stroke="red"/>
        <path class="connection down" d="M 100 340 L 100 350 L 100 360" stroke="red"/>
        <path class="connection down" d="M 300 180 L 300 170 L 300 160" stroke="red"/>
        <path class="connection down" d="M 300 340 L 300 350 L 300 360" stroke="red"/>
        <path class="connection same" d="M 100 160 L 110 160 L 120 160" stroke="blue"/>
        <path class="connection same" d="M 120 160 L 130 160 L 140 160" stroke="blue"/>
        <path class="connection same" d="M 140 160 L 140 170 L 140 180" stroke="blue"/>
        <path class="connection same" d="M 140 180 L 140 190 L 140 200" stroke="blue"/>
        <path class="connection same" d="M 140 160 L 140 150 L 140 140" stroke="blue"/>
        <path class="connection same" d="M 140 140 L 140 130 L 140 120" stroke="blue"/>
        <path class="connection same" d="M 100 160 L 90 160 L 80 160" stroke="blue"/>
        <path class="connection same" d="M 80 160 L 70 160 L 60 160" stroke="blue"/>
        <path class="connection same" d="M 60 160 L 60 170 L 60 180" stroke="blue"/>
        <path class="connection same" d="M 60 180 L 60 190 L 60 200" stroke="blue"/>
        <path class="connection same" d="M 60 160 L 60 150 L 60 140" stroke="blue"/>
        <path class="connection same" d="M 60 140 L 60 130 L 60 120" stroke="blue"/>
        <path class="connection same" d="M 100 360 L 110 360 L 120 360" stroke="blue"/>
        <path class="connection same" d="M 120 360 L 130 360 L 140 360" stroke="blue"/>
        <path class="connection same" d="M 140 360 L 140 370 L 140 380" stroke="blue"/>
        <path class="connection same" d="M 140 380 L 140 390 L 140 400" stroke="blue"/>
        <path class="connection same" d="M 140 360 L 140 350 L 140 340" stroke="blue"/>
        <path class="connection same" d="M 140 340 L 140 330 L 140 320" stroke="blue"/>
        <path class="connection same" d="M 100 360 L 90 360 L 80 360" stroke="blue"/>
        <path class="connection same" d="M 80 360 L 70 360 L 60 360" stroke="blue"/>
        <path class="connection same" d="M 60 360 L 60 370 L 60 380" stroke="blue"/>
        <path class="connection same" d="M 60 380 L 60 390 L 60 400" stroke="blue"/>
        <path class="connection same" d="M 60 360 L 60 350 L 60 340" stroke="blue"/>
        <path class="connection same" d="M 60 340 L 60 330 L 60 320" stroke="blue"/>
        <path class="connection same" d="M 300 160 L 310 160 L 320 160" stroke="blue"/>
        <path class="connection same" d="M 320 160 L 330 160 L 340 160" stroke="blue"/>
        <path class="connection same" d="M 340 160 L 340 170 L 340 180" stroke="blue"/>
        <path class="connection same" d="M 340 180 L 340 190 L 340 200" stroke="blue"/>
        <path class="connection same" d="M 340 160 L 340 150 L 340 140" stroke="blue"/>
        <path class="connection same" d="M 340 140 L 340 130 L 340 120" stroke="blue"/>
        <path class="connection same" d="M 300 160 L 290 160 L 280 160" stroke="blue"/>
        <path class="connection same" d="M 280 160 L 270 160 L 260 160" stroke="blue"/>
        <path class="connection same" d="M 260 160 L 260 170 L 260 180" stroke="blue"/>
        <path class="connection same" d="M 260 180 L 260 190 L 260 200" stroke="blue"/>
        <path class="connection same" d="M 260 160 L 260 150 L 260 140" stroke="blue"/>
        <path class="connection same" d="M 260 140 L 260 130 L 260 120" stroke="blue"/>
        <path class="connection same" d="M 300 360 L 310 360 L 320 360" stroke="blue"/>
        <path class="connection same" d="M 320 360 L 330 360 L 340 360" stroke="blue"/>
        <path class="connection same" d="M 340 360 L 340 370 L 340 380" stroke="blue"/>
        <path class="connection same" d="M 340 380 L 340 390 L 340 400" stroke="blue"/>
        <path class="connection same" d="M 340 360 L 340 350 L 340 340" stroke="blue"/>
        <path class="connection same" d="M 340 340 L 340 330 L 340 320" stroke="blue"/>
        <path class="connection same" d="M 300 360 L 290 360 L 280 360" stroke="blue"/>
        <path class="connection same" d="M 280 360 L 270 360 L 260 360" stroke="blue"/>
        <path class="connection same" d="M 260 360 L 260 370 L 260 380" stroke="blue"/>
        <path class="connection same" d="M 260 380 L 260 390 L 260 400" stroke="blue"/>
        <path class="connection same" d="M 260 360 L 260 350 L 260 340" stroke="blue"/>
        <path class="connection same" d="M 260 340 L 260 330 L 260 320" stroke="blue"/>
        <path class="connection same" d="M 60 120 L 70 120 L 80 120" stroke="blue"/>
        <path class="connection same" d="M 60 120 L 50 120 L 40 120" stroke="blue"/>
        <path class="connection same" d="M 80 120 L 80 110 L 80 100" stroke="blue"/>
        <path class="connection same" d="M 80 100 L 80 90 L 80 80" stroke="blue"/>
        <path class="connection same" d="M 40 120 L 40 110 L 40 100" stroke="blue"/>
        <path class="connection same" d="M 40 100 L 40 90 L 40 80" stroke="blue"/>
        <path class="connection same" d="M 60 200 L 70 200 L 80 200" stroke="blue"/>
        <path class="connection same" d="M 60 200 L 50 200 L 40 200" stroke="blue"/>
        <path class="connection same" d="M 80 200 L 80 210 L 80 220" stroke="blue"/>
        <path class="connection same" d="M 80 220 L 80 230 L 80 240" stroke="blue"/>
        <path class="connection same" d="M 40 200 L 40 210 L 40 220" stroke="blue"/>
        <path class="connection same" d="M 40 220 L 40 230 L 40 240" stroke="blue"/>
        <path class="connection same" d="M 60 320 L 70 320 L 80 320" stroke="blue"/>
        <path class="connection same" d="M 60 320 L 50 320 L 40 320" stroke="blue"/>
        <path class="connection same" d="M 80 320 L 80 310 L 80 300" stroke="blue"/>
        <path class="connection same" d="M 80 300 L 80 290 L 80 280" stroke="blue"/>
        <path class="connection same" d="M 40 320 L 40 310 L 40 300" stroke="blue"/>
        <path class="connection same" d="M 40 300 L 40 290 L 40 280" stroke="blue"/>
        <path class="connection same" d="M 60 400 L 70 400 L 80 400" stroke="blue"/>
        <path class="connection same" d="M 60 400 L 50 400 L 40 400" stroke="blue"/>
        <path class="connection same" d="M 80 400 L 80 410 L 80 420" stroke="blue"/>
        <path class="connection same" d="M 80 420 L 80 430 L 80 440" stroke="blue"/>
        <path class="connection same" d="M 40 400 L 40 410 L 40 420" stroke="blue"/>
        <path class="connection same" d="M 40 420 L 40 430 L 40 440" stroke="blue"/>
        <path class="connection same" d="M 140 120 L 150 120 L 160 120" stroke="blue"/>
        <path class="connection same" d="M 140 120 L 130 120 L 120 120" stroke="blue"/>
        <path class="connection same" d="M 160 120 L 160 110 L 160 100" stroke="blue"/>
        <path class="connection same" d="M 160 100 L 160 90 L 160 80" stroke="blue"/>
        <path class="connection same" d="M 120 120 L 120 110 L 120 100" stroke="blue"/>
        <path class="connection same" d="M 120 100 L 120 90 L 120 80" stroke="blue"/>
        <path class="connection same" d="M 140 200 L 150 200 L 160 200" stroke="blue"/>
        <path class="connection same" d="M 140 200 L 130 200 L 120 200" stroke="blue"/>
        <path class="connection same" d="M 160 200 L 160 210 L 160 220" stroke="blue"/>
        <path class="connection same" d="M 160 220 L 160 230 L 160 240" stroke="blue"/>
        <path class="connection same" d="M 120 200 L 120 210 L 120 220" stroke="blue"/>
        <path class="connection same" d="M 120 220 L 120 230 L 120 240" stroke="blue"/>
        <path class="connection same" d="M 140 320 L 150 320 L 160 320" stroke="blue"/>
        <path class="connection same" d="M 140 320 L 130 320 L 120 320" stroke="blue"/>
        <path class="connection same" d="M 160 320 L 160 310 L 160 300" stroke="blue"/>
        <path class="connection same" d="M 160 300 L 160 290 L 160 280" stroke="blue"/>
        <path class="connection same" d="M 120 320 L 120 310 L 120 300" stroke="blue"/>
        <path class="connection same" d="M 120 300 L 120 290 L 120 280" stroke="blue"/>
        <path class="connection same" d="M 140 400 L 150 400 L 160 400" stroke="blue"/>
        <path class="connection same" d="M 140 400 L 130 400 L 120 400" stroke="blue"/>
        <path class="connection same" d="M 160 400 L 160 410 L 160 420" stroke="blue"/>
        <path class="connection same" d="M 160 420 L 160 430 L 160 440" stroke="blue"/>
        <path class="connection same" d="M 120 400 L 120 410 L 120 420" stroke="blue"/>
        <path class="connection same" d="M 120 420 L 120 430 L 120 440" stroke="blue"/>
        <path class="connection same" d="M 260 120 L 270 120 L 280 120" stroke="blue"/>
        <path class="connection same" d="M 260 120 L 250 120 L 240 120" stroke="blue"/>
        <path class="connection same" d="M 280 120 L 280 110 L 280 100" stroke="blue"/>
        <path class="connection same" d="M 280 100 L 280 90 L 280 80" stroke="blue"/>
        <path class="connection same" d="M 240 120 L 240 110 L 240 100" stroke="blue"/>
        <path class="connection same" d="M 240 100 L 240 90 L 240 80" stroke="blue"/>
        <path class="connection same" d="M 260 200 L 270 200 L 280 200" stroke="blue"/>
        <path class="connection same" d="M 260 200 L 250 200 L 240 200" stroke="blue"/>
        <path class="connection same" d="M 280 200 L 280 210 L 280 220" stroke="blue"/>
        <path class="connection same" d="M 280 220 L 280 230 L 280 240" stroke="blue"/>
        <path class="connection same" d="M 240 200 L 240 210 L 240 220" stroke="blue"/>
        <path class="connection same" d="M 240 220 L 240 230 L 240 240" stroke="blue"/>
        <path class="connection same" d="M 260 320 L 270 320 L 280 320" stroke="blue"/>
        <path class="connection same" d="M 260 320 L 250 320 L 240 320" stroke="blue"/>
        <path class="connection same" d="M 280 320 L 280 310 L 280 300" stroke="blue"/>
        <path class="connection same" d="M 280 300 L 280 290 L 280 280" stroke="blue"/>
        <path class="connection same" d="M 240 320 L 240 310 L 240 300" stroke="blue"/>
        <path class="connection same" d="M 240 300 L 240 290 L 240 280" stroke="blue"/>
        <path class="connection same" d="M 260 400 L 270 400 L 280 400" stroke="blue"/>
        <path class="connection same" d="M 260 400 L 250 400 L 240 400" stroke="blue"/>
        <path class="connection same" d="M 280 400 L 280 410 L 280 420" stroke="blue"/>
        <path class="connection same" d="M 280 420 L 280 430 L 280 440" stroke="blue"/>
        <path class="connection same" d="M 240 400 L 240 410 L 240 420" stroke="blue"/>
        <path class="connection same" d="M 240 420 L 240 430 L 240 440" stroke="blue"/>
        <path class="connection same" d="M 340 120 L 350 120 L 360 120" stroke="blue"/>
        <path class="connection same" d="M 340 120 L 330 120 L 320 120" stroke="blue"/>
        <path class="connection same" d="M 360 120 L 360 110 L 360 100" stroke="blue"/>
        <path class="connection same" d="M 360 100 L 360 90 L 360 80" stroke="blue"/>
        <path class="connection same" d="M 320 120 L 320 110 L 320 100" stroke="blue"/>
        <path class="connection same" d="M 320 100 L 320 90 L 320 80" stroke="blue"/>
        <path class="connection same" d="M 340 200 L 350 200 L 360 200" stroke="blue"/>
        <path class="connection same" d="M 340 200 L 330 200 L 320 200" stroke="blue"/>
        <path class="connection same" d="M 360 200 L 360 210 L 360 220" stroke="blue"/>
        <path class="connection same" d="M 360 220 L 360 230 L 360 240" stroke="blue"/>
        <path class="connection same" d="M 320 200 L 320 210 L 320 220" stroke="blue"/>
        <path class="connection same" d="M 320 220 L 320 230 L 320 240" stroke="blue"/>
        <path class="connection same" d="M 340 320 L 350 320 L 360 320" stroke="blue"/>
        <path class="connection same" d="M 340 320 L 330 320 L 320 320" stroke="blue"/>
        <path class="connection same" d="M 360 320 L 360 310 L 360 300" stroke="blue"/>
        <path class="connection same" d="M 360 300 L 360 290 L 360 280" stroke="blue"/>
        <path class="connection same" d="M 320 320 L 320 310 L 320 300" stroke="blue"/>
        <path class="connection same" d="M 320 300 L 320 290 L 320 280" stroke="blue"/>
        <path class="connection same" d="M 340 400 L 350 400 L 360 400" stroke="blue"/>
        <path class="connection same" d="M 340 400 L 330 400 L 320 400" stroke="blue"/>
        <path class="connection same" d="M 360 400 L 360 410 L 360 420" stroke="blue"/>
        <path class="connection same" d="M 360 420 L 360 430 L 360 440" stroke="blue"/>
        <path class="connection same" d="M 320 400 L 320 410 L 320 420" stroke="blue"/>
        <path class="connection same" d="M 320 420 L 320 430 L 320 440" stroke="blue"/>
        <path class="connection same" d="M 40 440 L 40 450 L 40 460" stroke="blue"/>
        <path class="connection same" d="M 40 460 L 40 470 L 40 480" stroke="blue"/>
        <path class="connection same" d="M 40 480 L 40 490 L 40 500" stroke="blue"/>
        <path class="connection same" d="M 80 440 L 80 450 L 80 460" stroke="blue"/>
        <path class="connection same" d="M 80 460 L 80 470 L 80 480" stroke="blue"/>
        <path class="connection same" d="M 80 480 L 80 490 L 80 500" stroke="blue"/>
        <path class="connection same" d="M 120 440 L 120 450 L 120 460" stroke="blue"/>
        <path class="connection same" d="M 120 460 L 120 470 L 120 480" stroke="blue"/>
        <path class="connection same" d="M 120 480 L 120 490 L 120 500" stroke="blue"/>
        <path class="connection same" d="M 160 440 L 160 450 L 160 460" stroke="blue"/>
        <path class="connection same" d="M 160 460 L 160 470 L 160 480" stroke="blue"/>
        <path class="connection same" d="M 160 480 L 160 490 L 160 500" stroke="blue"/>
        <path class="connection same" d="M 240 440 L 240 450 L 240 460" stroke="blue"/>
        <path class="connection same" d="M 240 460 L 240 470 L 240 480" stroke="blue"/>
        <path class="connection same" d="M 240 480 L 240 490 L 240 500" stroke="blue"/>
        <path class="connection same" d="M 280 440 L 280 450 L 280 460" stroke="blue"/>
        <path class="connection same" d="M 280 460 L 280 470 L 280 480" stroke="blue"/>
        <path class="connection same" d="M 280 480 L 280 490 L 280 500" stroke="blue"/>
        <path class="connection same" d="M 320 440 L 320 450 L 320 460" stroke="blue"/>
        <path class="connection same" d="M 320 460 L 320 470 L 320 480" stroke="blue"/>
        <path class="connection same" d="M 320 480 L 320 490 L 320 500" stroke="blue"/>
        <path class="connection same" d="M 360 440 L 360 450 L 360 460" stroke="blue"/>
        <path class="connection same" d="M 360 460 L 360 470 L 360 480" stroke="blue"/>
        <path class="connection same" d="M 360 480 L 360 490 L 360 500" stroke="blue"/>
        <path class="connection same" d="M 40 80 L 40 70 L 40 60" stroke="blue"/>
        <path class="connection same" d="M 40 60 L 40 50 L 40 40" stroke="blue"/>
        <path class="connection same" d="M 40 40 L 40 30 L 40 20" stroke="blue"/>
        <path class="connection same" d="M 80 80 L 80 70 L 80 60" stroke="blue"/>
        <path class="connection same" d="M 80 60 L 80 50 L 80 40" stroke="blue"/>
        <path class="connection same" d="M 80 40 L 80 30 L 80 20" stroke="blue"/>
        <path class="connection same" d="M 120 80 L 120 70 L 120 60" stroke="blue"/>
        <path class="connection same" d="M 120 60 L 120 50 L 120 40" stroke="blue"/>
        <path class="connection same" d="M 120 40 L 120 30 L 120 20" stroke="blue"/>
        <path class="connection same" d="M 160 80 L 160 70 L 160 60" stroke="blue"/>
        <path class="connection same" d="M 160 60 L 160 50 L 160 40" stroke="blue"/>
        <path class="connection same" d="M 160 40 L 160 30 L 160 20" stroke="blue"/>
        <path class="connection same" d="M 240 80 L 240 70 L 240 60" stroke="blue"/>
        <path class="connection same" d="M 240 60 L 240 50 L 240 40" stroke="blue"/>
        <path class="connection same" d="M 240 40 L 240 30 L 240 20" stroke="blue"/>
        <path class="connection same" d="M 280 80 L 280 70 L 280 60" stroke="blue"/>
        <path class="connection same" d="M 280 60 L 280 50 L 280 40" stroke="blue"/>
        <path class="connection same" d="M 280 40 L 280 30 L 280 20" stroke="blue"/>
        <path class="connection same" d="M 320 80 L 320 70 L 320 60" stroke="blue"/>
        <path class="connection same" d="M 320 60 L 320 50 L 320 40" stroke="blue"/>
        <path class="connection same" d="M 320 40 L 320 30 L 320 20" stroke="blue"/>
        <path class="connection same" d="M 360 80 L 360 70 L 360 60" stroke="blue"/>
        <path class="connection same" d="M 360 60 L 360 50 L 360 40" stroke="blue"/>
        <path class="connection same" d="M 360 40 L 360 30 L 360 20" stroke="blue"/>
        <path class="connection same" d="M 40 40 L 30 40 L 20 40" stroke="blue"/>
        <path class="connection same" d="M 40 80 L 30 80 L 20 80" stroke="blue"/>
        <path class="connection same" d="M 40 120 L 30 120 L 20 120" stroke="blue"/>
        <path class="connection same" d="M 40 160 L 30 160 L 20 160" stroke="blue"/>
        <path class="connection same" d="M 40 200 L 30 200 L 20 200" stroke="blue"/>
        <path class="connection same" d="M 40 240 L 30 240 L 20 240" stroke="blue"/>
        <path class="connection same" d="M 40 280 L 30 280 L 20 280" stroke="blue"/>
        <path class="connection same" d="M 40 320 L 30 320 L 20 320" stroke="blue"/>
        <path class="connection same" d="M 40 360 L 30 360 L 20 360" stroke="blue"/>
        <path class="connection same" d="M 40 400 L 30 400 L 20 400" stroke="blue"/>
        <path class="connection same" d="M 40 440 L 30 440 L 20 440" stroke="blue"/>
        <path class="connection same" d="M 40 480 L 30 480 L 20 480" stroke="blue"/>
        <path class="connection same" d="M 360 40 L 370 40 L 380 40" stroke="blue"/>
        <path class="connection same" d="M 360 80 L 370 80 L 380 80" stroke="blue"/>
        <path class="connection same" d="M 360 120 L 370 120 L 380 120" stroke="blue"/>
        <path class="connection same" d="M 360 160 L 370 160 L 380 160" stroke="blue"/>
        <path class="connection same" d="M 360 200 L 370 200 L 380 200" stroke="blue"/>
        <path class="connection same" d="M 360 240 L 370 240 L 380 240" stroke="blue"/>
        <path class="connection same" d="M 360 280 L 370 280 L 380 280" stroke="blue"/>
        <path class="connection same" d="M 360 320 L 370 320 L 380 320" stroke="blue"/>
        <path class="connection same" d="M 360 360 L 370 360 L 380 360" stroke="blue"/>
        <path class="connection same" d="M 360 400 L 370 400 L 380 400" stroke="blue"/>
        <path class="connection same" d="M 360 440 L 370 440 L 380 440" stroke="blue"/>
        <path class="connection same" d="M 360 480 L 370 480 L 380 480" stroke="blue"/>
        <path class="connection same" d="M 60 160 L 50 160 L 40 160" stroke="blue"/>
        <path class="connection same" d="M 60 360 L 50 360 L 40 360" stroke="blue"/>
        <path class="connection same" d="M 260 160 L 250 160 L 240 160" stroke="blue"/>
        <path class="connection same" d="M 260 360 L 250 360 L 240 360" stroke="blue"/>
        <path class="connection same" d="M 140 160 L 150 160 L 160 160" stroke="blue"/>
        <path class="connection same" d="M 140 360 L 150 360 L 160 360" stroke="blue"/>
        <path class="connection same" d="M 340 160 L 350 160 L 360 160" stroke="blue"/>
        <path class="connection same" d="M 340 360 L 350 360 L 360 360" stroke="blue"/>
        <path class="connection up" d="M 100 180 L 100 170 L 100 160" stroke="blue"/>
        <path class="connection up" d="M 100 340 L 100 350 L 100 360" stroke="blue"/>
        <path class="connection up" d="M 300 180 L 300 170 L 300 160" stroke="blue"/>
        <path class="connection up" d="M 300 340 L 300 350 L 300 360" stroke="blue"/>
        <g id="text">
            <text alignment-baseline="middle" class="moduleLabel" fill="black" font-size="50.0" text-anchor="middle" transform="scale(1,-1)" x="200.0" y="10.0">-</text>
        </g>
        <g id="sink_pts">
            <rect class="sink_point" height="20" opacity="0.2" width="20" x="30" y="30"/>
            <rect class="sink_point" height="20" opacity="0.2" width="20" x="70" y="30"/>
            <rect class="sink_point" height="20" opacity="0.2" width="20" x="110" y="30"/>
            <rect class="sink_point" height="20" opacity="0.2" width="20" x="150" y="30"/>
            <rect class="sink_point" height="20" opacity="0.2" width="20" x="190" y="30"/>
            <rect class="sink_point" height="20" opacity="0.2" width="20" x="230" y="30"/>
            <rect class="sink_point" height="20" opacity="0.2" width="20" x="270" y="30"/>
            <rect class="sink_point" height="20" opacity="0.2" width="20" x="310" y="30"/>
            <rect class="sink_point" height="20" opacity="0.2" width="20" x="350" y="30"/>
            <rect class="sink_point" height="20" opacity="0.2" width="20" x="10" y="30"/>
            <rect class="sink_point" height="20" opacity="0.2" width="20" x="370" y="30"/>
            <rect class="sink_point" height="20" opacity="0.2" width="20" x="30" y="70"/>
            <rect class="sink_point" height="20" opacity="0.2" width="20" x="70" y="70"/>
            <rect class="sink_point" height="20" opacity="0.2" width="20" x="110" y="70"/>
            <rect class="sink_point" height="20" opacity="0.2" width="20" x="150" y="70"/>
            <rect class="sink_point" height="20" opacity="0.2" width="20" x="190" y="70"/>
            <rect class="sink_point" height="20" opacity="0.2" width="20" x="230" y="70"/>
            <rect class="sink_point" height="20" opacity="0.2" width="20" x="270" y="70"/>
            <rect class="sink_point" height="20" opacity="0.2" width="20" x="310" y="70"/>
            <rect class="sink_point" height="20" opacity="0.2" width="20" x="350" y="70"/>
            <rect class="sink_point" height="20" opacity="0.2" width="20" x="10" y="70"/>
            <rect class="sink_point" height="20" opacity="0.2" width="20" x="370" y="70"/>
            <rect class="sink_point" height="20" opacity="0.2" width="20" x="30" y="110"/>
            <rect class="sink_point" height="20" opacity="0.2" width="20" x="70" y="110"/>
            <rect class="sink_point" height="20" opacity="0.2" width="20" x="110" y="110"/>
            <rect class="sink_point" height="20" opacity="0.2" width="20" x="150" y="110"/>
            <rect class="sink_point" height="20" opacity="0.2" width="20" x="190" y="110"/>
            <rect class="sink_point" height="20" opacity="0.2" width="20" x="230" y="110"/>
            <rect class="sink_point" height="20" opacity="0.2" width="20" x="270" y="110"/>
            <rect class="sink_point" height="20" opacity="0.2" width="20" x="310" y="110"/>
            <rect class="sink_point" height="20" opacity="0.2" width="20" x="350" y="110"/>
            <rect class="sink_point" height="20" opacity="0.2" width="20" x="10" y="110"/>
            <rect class="sink_point" height="20" opacity="0.2" width="20" x="370" y="110"/>
            <rect class="sink_point" height="20" opacity="0.2" width="20" x="30" y="150"/>
            <rect class="sink_point" height="20" opacity="0.2" width="20" x="70" y="150"/>
            <rect class="sink_point" height="20" opacity="0.2" width="20" x="110" y="150"/>
            <rect class="sink_point" height="20" opacity="0.2" width="20" x="150" y="150"/>
            <rect class="sink_point" height="20" opacity="0.2" width="20" x="190" y="150"/>
            <rect class="sink_point" height="20" opacity="0.2" width="20" x="230" y="150"/>
            <rect class="sink_point" height="20" opacity="0.2" width="20" x="270" y="150"/>
            <rect class="sink_point" height="20" opacity="0.2" width="20" x="310" y="150"/>
            <rect class="sink_point" height="20" opacity="0.2" width="20" x="350" y="150"/>
            <rect class="sink_point" height="20" opacity="0.2" width="20" x="10" y="150"/>
            <rect class="sink_point" height="20" opacity="0.2" width="20" x="370" y="150"/>
            <rect class="sink_point" height="20" opacity="0.2" width="20" x="30" y="190"/>
            <rect class="sink_point" height="20" opacity="0.2" width="20" x="70" y="190"/>
            <rect class="sink_point" height="20" opacity="0.2" width="20" x="110" y="190"/>
            <rect class="sink_point" height="20" opacity="0.2" width="20" x="150" y="190"/>
            <rect class="sink_point" height="20" opacity="0.2" width="20" x="190" y="190"/>
            <rect class="sink_point" height="20" opacity="0.2" width="20" x="230" y="190"/>
            <rect class="sink_point" height="20" opacity="0.2" width="20" x="270" y="190"/>
            <rect class="sink_point" height="20" opacity="0.2" width="20" x="310" y="190"/>
            <rect class="sink_point" height="20" opacity="0.2" width="20" x="350" y="190"/>
            <rect class="sink_point" height="20" opacity="0.2" width="20" x="10" y="190"/>
            <rect class="sink_point" height="20" opacity="0.2" width="20" x="370" y="190"/>
            <rect class="sink_point" height="20" opacity="0.2" width="20" x="30" y="230"/>
            <rect class="sink_point" height="20" opacity="0.2" width="20" x="70" y="230"/>
            <rect class="sink_point" height="20" opacity="0.2" width="20" x="110" y="230"/>
            <rect class="sink_point" height="20" opacity="0.2" width="20" x="150" y="230"/>
            <rect class="sink_point" height="20" opacity="0.2" width="20" x="190" y="230"/>
            <rect class="sink_point" height="20" opacity="0.2" width="20" x="230" y="230"/>
            <rect class="sink_point" height="20" opacity="0.2" width="20" x="270" y="230"/>
            <rect class="sink_point" height="20" opacity="0.2" width="20" x="310" y="230"/>
            <rect class="sink_point" height="20" opacity="0.2" width="20" x="350" y="230"/>
            <rect class="sink_point" height="20" opacity="0.2" width="20" x="10" y="230"/>
            <rect class="sink_point" height="20" opacity="0.2" width="20" x="370" y="230"/>
            <rect class="sink_point" height="20" opacity="0.2" width="20" x="30" y="270"/>
            <rect class="sink_point" height="20" opacity="0.2" width="20" x="70" y="270"/>
            <rect class="sink_point" height="20" opacity="0.2" width="20" x="110" y="270"/>
            <rect class="sink_point" height="20" opacity="0.2" width="20" x="150" y="270"/>
            <rect class="sink_point" height="20" opacity="0.2" width="20" x="190" y="270"/>
            <rect class="sink_point" height="20" opacity="0.2" width="20" x="230" y="270"/>
            <rect class="sink_point" height="20" opacity="0.2" width="20" x="270" y="270"/>
            <rect class="sink_point" height="20" opacity="0.2" width="20" x="310" y="270"/>
            <rect class="sink_point" height="20" opacity="0.2" width="20" x="350" y="270"/>
            <rect class="sink_point" height="20" opacity="0.2" width="20" x="10" y="270"/>
            <rect class="sink_point" height="20" opacity="0.2" width="20" x="370" y="270"/>
            <rect class="sink_point" height="20" opacity="0.2" width="20" x="30" y="310"/>
            <rect class="sink_point" height="20" opacity="0.2" width="20" x="70" y="310"/>
            <rect class="sink_point" height="20" opacity="0.2" width="20" x="110" y="310"/>
            <rect class="sink_point" height="20" opacity="0.2" width="20" x="150" y="310"/>
            <rect class="sink_point" height="20" opacity="0.2" width="20" x="190" y="310"/>
            <rect class="sink_point" height="20" opacity="0.2" width="20" x="230" y="310"/>
            <rect class="sink_point" height="20" opacity="0.2" width="20" x="270" y="310"/>
            <rect class="sink_point" height="20" opacity="0.2" width="20" x="310" y="310"/>
            <rect class="sink_point" height="20" opacity="0.2" width="20" x="350" y="310"/>
            <rect class="sink_point" height="20" opacity="0.2" width="20" x="10" y="310"/>
            <rect class="sink_point" height="20" opacity="0.2" width="20" x="370" y="310"/>
            <rect class="sink_point" height="20" opacity="0.2" width="20" x="30" y="350"/>
            <rect class="sink_point" height="20" opacity="0.2" width="20" x="70" y="350"/>
            <rect class="sink_point" height="20" opacity="0.2" width="20" x="110" y="350"/>
            <rect class="sink_point" height="20" opacity="0.2" width="20" x="150" y="350"/>
            <rect class="sink_point" height="20" opacity="0.2" width="20" x="190" y="350"/>
            <rect class="sink_point" height="20" opacity="0.2" width="20" x="230" y="350"/>
            <rect class="sink_point" height="20" opacity="0.2" width="20" x="270" y="350"/>
            <rect class="sink_point" height="20" opacity="0.2" width="20" x="310" y="350"/>
            <rect class="sink_point" height="20" opacity="0.2" width="20" x="350" y="350"/>
            <rect class="sink_point" height="20" opacity="0.2" width="20" x="10" y="350"/>
            <rect class="sink_point" height="20" opacity="0.2" width="20" x="370" y="350"/>
            <rect class="sink_point" height="20" opacity="0.2" width="20" x="30" y="390"/>
            <rect class="sink_point" height="20" opacity="0.2" width="20" x="70" y="390"/>
            <rect class="sink_point" height="20" opacity="0.2" width="20" x="110" y="390"/>
            <rect class="sink_point" height="20" opacity="0.2" width="20" x="150" y="390"/>
            <rect class="sink_point" height="20" opacity="0.2" width="20" x="190" y="390"/>
            <rect class="sink_point" height="20" opacity="0.2" width="20" x="230" y="390"/>
            <rect class="sink_point" height="20" opacity="0.2" width="20" x="270" y="390"/>
            <rect class="sink_point" height="20" opacity="0.2" width="20" x="310" y="390"/>
            <rect class="sink_point" height="20" opacity="0.2" width="20" x="350" y="390"/>
            <rect class="sink_point" height="20" opacity="0.2" width="20" x="10" y="390"/>
            <rect class="sink_point" height="20" opacity="0.2" width="20" x="370" y="390"/>
            <rect class="sink_point" height="20" opacity="0.2" width="20" x="30" y="430"/>
            <rect class="sink_point" height="20" opacity="0.2" width="20" x="70" y="430"/>
            <rect class="sink_point" height="20" opacity="0.2" width="20" x="110" y="430"/>
            <rect class="sink_point" height="20" opacity="0.2" width="20" x="150" y="430"/>
            <rect class="sink_point" height="20" opacity="0.2" width="20" x="190" y="430"/>
            <rect class="sink_point" height="20" opacity="0.2" width="20" x="230" y="430"/>
            <rect class="sink_point" height="20" opacity="0.2" width="20" x="270" y="430"/>
            <rect class="sink_point" height="20" opacity="0.2" width="20" x="310" y="430"/>
            <rect class="sink_point" height="20" opacity="0.2" width="20" x="350" y="430"/>
            <rect class="sink_point" height="20" opacity="0.2" width="20" x="10" y="430"/>
            <rect class="sink_point" height="20" opacity="0.2" width="20" x="370" y="430"/>
            <rect class="sink_point" height="20" opacity="0.2" width="20" x="30" y="470"/>
            <rect class="sink_point" height="20" opacity="0.2" width="20" x="70" y="470"/>
            <rect class="sink_point" height="20" opacity="0.2" width="20" x="110" y="470"/>
            <rect class="sink_point" height="20" opacity="0.2" width="20" x="150" y="470"/>
            <rect class="sink_point" height="20" opacity="0.2" width="20" x="190" y="470"/>
            <rect class="sink_point" height="20" opacity="0.2" width="20" x="230" y="470"/>
            <rect class="sink_point" height="20" opacity="0.2" width="20" x="270" y="470"/>
            <rect class="sink_point" height="20" opacity="0.2" width="20" x="310" y="470"/>
            <rect class="sink_point" height="20" opacity="0.2" width="20" x="350" y="470"/>
            <rect class="sink_point" height="20" opacity="0.2" width="20" x="10" y="470"/>
            <rect class="sink_point" height="20" opacity="0.2" width="20" x="370" y="470"/>
            <rect class="sink_point" height="20" opacity="0.2" width="20" x="30" y="10"/>
            <rect class="sink_point" height="20" opacity="0.2" width="20" x="70" y="10"/>
            <rect class="sink_point" height="20" opacity="0.2" width="20" x="110" y="10"/>
            <rect class="sink_point" height="20" opacity="0.2" width="20" x="150" y="10"/>
            <rect class="sink_point" height="20" opacity="0.2" width="20" x="190" y="10"/>
            <rect class="sink_point" height="20" opacity="0.2" width="20" x="230" y="10"/>
            <rect class="sink_point" height="20" opacity="0.2" width="20" x="270" y="10"/>
            <rect class="sink_point" height="20" opacity="0.2" width="20" x="310" y="10"/>
            <rect class="sink_point" height="20" opacity="0.2" width="20" x="350" y="10"/>
            <rect class="sink_point" height="20" opacity="0.2" width="20" x="30" y="490"/>
            <rect class="sink_point" height="20" opacity="0.2" width="20" x="70" y="490"/>
            <rect class="sink_point" height="20" opacity="0.2" width="20" x="110" y="490"/>
            <rect class="sink_point" height="20" opacity="0.2" width="20" x="150" y="490"/>
            <rect class="sink_point" height="20" opacity="0.2" width="20" x="190" y="490"/>
            <rect class="sink_point" height="20" opacity="0.2" width="20" x="230" y="490"/>
            <rect class="sink_point" height="20" opacity="0.2" width="20" x="270" y="490"/>
            <rect class="sink_point" height="20" opacity="0.2" width="20" x="310" y="490"/>
            <rect class="sink_point" height="20" opacity="0.2" width="20" x="350" y="490"/>
        </g>
    </g>
</svg>
