<?xml version="1.0" encoding="utf-8" ?>
<svg xmlns="http://www.w3.org/2000/svg" xmlns:ev="http://www.w3.org/2001/xml-events" xmlns:xlink="http://www.w3.org/1999/xlink" baseProfile="full" height="240" version="1.1" viewBox="0,-210.0,200,240" width="200">
    <defs id="id6">
        <style type="text/css"><![CDATA[
                text{font-family: Verdana;}
                svgg{background-color:grey;}
                .connection{stroke-linecap:round; opacity: 0.7; stroke-width:1.2;}
                span{text-anchor: "middle"; alignment_baseline: "middle"}
                .gridLabels{fill: grey;font-style: italic;font-weight: 900}
                .down{stroke-dasharray: 5;}
                .up{stroke-dasharray: 5;}
                .top{stroke-dasharray: 5;}
                .gridmarker{stroke:red; stroke-width:0.2; opacity: 0.7;}
                ]]></style>
        <marker id="id4" markerHeight="10" markerUnits="strokeWidth" markerWidth="5" orient="auto" refX="30" refY="30" viewBox="0 0 120 120">
            <path d="M 0 0 L 60 30 L 0 60 z" fill="blue"/>
        </marker>
        <marker id="id5" markerHeight="10" markerUnits="strokeWidth" markerWidth="5" orient="auto" refX="30" refY="30" viewBox="0 0 120 120">
            <circle cx="0" cy="0" fill="red" r="60"/>
        </marker>
    </defs>
    <g id="markers" transform="scale(1,-1)">
        <line class="gridmarker" x1="10" x2="10" y1="10" y2="190"/>
        <line class="gridmarker" x1="30" x2="30" y1="10" y2="190"/>
        <line class="gridmarker" x1="50" x2="50" y1="10" y2="190"/>
        <line class="gridmarker" x1="70" x2="70" y1="10" y2="190"/>
        <line class="gridmarker" x1="90" x2="90" y1="10" y2="190"/>
        <line class="gridmarker" x1="110" x2="110" y1="10" y2="190"/>
        <line class="gridmarker" x1="130" x2="130" y1="10" y2="190"/>
        <line class="gridmarker" x1="150" x2="150" y1="10" y2="190"/>
        <line class="gridmarker" x1="170" x2="170" y1="10" y2="190"/>
        <line class="gridmarker" x1="190" x2="190" y1="10" y2="190"/>
        <line class="gridmarker" x1="10" x2="190" y1="10" y2="10"/>
        <line class="gridmarker" x1="10" x2="190" y1="30" y2="30"/>
        <line class="gridmarker" x1="10" x2="190" y1="50" y2="50"/>
        <line class="gridmarker" x1="10" x2="190" y1="70" y2="70"/>
        <line class="gridmarker" x1="10" x2="190" y1="90" y2="90"/>
        <line class="gridmarker" x1="10" x2="190" y1="110" y2="110"/>
        <line class="gridmarker" x1="10" x2="190" y1="130" y2="130"/>
        <line class="gridmarker" x1="10" x2="190" y1="150" y2="150"/>
        <line class="gridmarker" x1="10" x2="190" y1="170" y2="170"/>
        <line class="gridmarker" x1="10" x2="190" y1="190" y2="190"/>
    </g>
    <g id="main" transform="scale(1,-1)">
        <line class="connection same" marker-end="url(#id4)" marker-mid="url(#id5)" stroke="grey" x1="60" x2="80" y1="60" y2="60"/>
        <line class="connection same" marker-end="url(#id4)" marker-mid="url(#id5)" stroke="grey" x1="80" x2="80" y1="60" y2="80"/>
        <line class="connection same" marker-end="url(#id4)" marker-mid="url(#id5)" stroke="grey" x1="80" x2="80" y1="60" y2="40"/>
        <line class="connection same" marker-end="url(#id4)" marker-mid="url(#id5)" stroke="grey" x1="60" x2="40" y1="60" y2="60"/>
        <line class="connection same" marker-end="url(#id4)" marker-mid="url(#id5)" stroke="grey" x1="40" x2="40" y1="60" y2="80"/>
        <line class="connection same" marker-end="url(#id4)" marker-mid="url(#id5)" stroke="grey" x1="40" x2="40" y1="60" y2="40"/>
        <line class="connection same" marker-end="url(#id4)" marker-mid="url(#id5)" stroke="grey" x1="140" x2="160" y1="60" y2="60"/>
        <line class="connection same" marker-end="url(#id4)" marker-mid="url(#id5)" stroke="grey" x1="160" x2="160" y1="60" y2="80"/>
        <line class="connection same" marker-end="url(#id4)" marker-mid="url(#id5)" stroke="grey" x1="160" x2="160" y1="60" y2="40"/>
        <line class="connection same" marker-end="url(#id4)" marker-mid="url(#id5)" stroke="grey" x1="140" x2="120" y1="60" y2="60"/>
        <line class="connection same" marker-end="url(#id4)" marker-mid="url(#id5)" stroke="grey" x1="120" x2="120" y1="60" y2="80"/>
        <line class="connection same" marker-end="url(#id4)" marker-mid="url(#id5)" stroke="grey" x1="120" x2="120" y1="60" y2="40"/>
        <line class="connection same" marker-end="url(#id4)" marker-mid="url(#id5)" stroke="grey" x1="140" x2="160" y1="140" y2="140"/>
        <line class="connection same" marker-end="url(#id4)" marker-mid="url(#id5)" stroke="grey" x1="160" x2="160" y1="140" y2="160"/>
        <line class="connection same" marker-end="url(#id4)" marker-mid="url(#id5)" stroke="grey" x1="160" x2="160" y1="140" y2="120"/>
        <line class="connection same" marker-end="url(#id4)" marker-mid="url(#id5)" stroke="grey" x1="140" x2="120" y1="140" y2="140"/>
        <line class="connection same" marker-end="url(#id4)" marker-mid="url(#id5)" stroke="grey" x1="120" x2="120" y1="140" y2="160"/>
        <line class="connection same" marker-end="url(#id4)" marker-mid="url(#id5)" stroke="grey" x1="120" x2="120" y1="140" y2="120"/>
        <line class="connection same" marker-end="url(#id4)" marker-mid="url(#id5)" stroke="grey" x1="60" x2="80" y1="140" y2="140"/>
        <line class="connection same" marker-end="url(#id4)" marker-mid="url(#id5)" stroke="grey" x1="80" x2="80" y1="140" y2="160"/>
        <line class="connection same" marker-end="url(#id4)" marker-mid="url(#id5)" stroke="grey" x1="80" x2="80" y1="140" y2="120"/>
        <line class="connection same" marker-end="url(#id4)" marker-mid="url(#id5)" stroke="grey" x1="60" x2="40" y1="140" y2="140"/>
        <line class="connection same" marker-end="url(#id4)" marker-mid="url(#id5)" stroke="grey" x1="40" x2="40" y1="140" y2="160"/>
        <line class="connection same" marker-end="url(#id4)" marker-mid="url(#id5)" stroke="grey" x1="40" x2="40" y1="140" y2="120"/>
        <line class="connection up" marker-end="url(#id4)" marker-mid="url(#id5)" stroke="grey" x1="60" x2="60" y1="80" y2="60"/>
        <line class="connection up" marker-end="url(#id4)" marker-mid="url(#id5)" stroke="grey" x1="60" x2="60" y1="120" y2="140"/>
        <line class="connection up" marker-end="url(#id4)" marker-mid="url(#id5)" stroke="grey" x1="140" x2="140" y1="80" y2="60"/>
        <line class="connection up" marker-end="url(#id4)" marker-mid="url(#id5)" stroke="grey" x1="140" x2="140" y1="120" y2="140"/>
        <g id="text">
            <text alignment-baseline="middle" class="moduleLabel" fill="black" font-size="18.0" text-anchor="middle" transform="scale(1,-1)" x="100.0" y="10.0">L0 Pattern</text>
        </g>
    </g>
</svg>
