<?xml version="1.0" encoding="utf-8" ?>
<svg xmlns="http://www.w3.org/2000/svg" xmlns:ev="http://www.w3.org/2001/xml-events" xmlns:xlink="http://www.w3.org/1999/xlink" baseProfile="full" height="400" version="1.1" viewBox="0,-370.0,360,400" width="360">
    <defs id="id4">
        <marker id="conn_marker" markerHeight="10" markerUnits="strokeWidth" markerWidth="5" orient="auto" refX="30" refY="30" viewBox="0 0 120 120">
            <path d="M 0 0 L 60 30 L 0 60 z" fill="blue"/>
        </marker>
        <marker id="down_conn_marker" markerHeight="10" markerUnits="strokeWidth" markerWidth="5" orient="auto" viewBox="-15 -15 30 30">
            <rect fill="green" height="20" width="20" x="-10" y="-10"/>
            <path d="M 8 0 L -8 8 L -8 -8 z" fill="blue"/>
        </marker>
        <marker id="up_conn_marker" markerHeight="10" markerUnits="strokeWidth" markerWidth="5" orient="auto" viewBox="-15 -15 30 30">
            <rect fill="green" height="20" width="20" x="-10" y="-10"/>
            <path d="M 8 0 L -8 8 L -8 -8 z" fill="blue"/>
        </marker>
        <marker id="top_conn_marker" markerHeight="10" markerUnits="strokeWidth" markerWidth="5" orient="auto" viewBox="-15 -15 30 30">
            <line stroke="red" stroke-width="5px" x1="0" x2="0" y1="-15" y2="15"/>
        </marker>
        <marker id="buffer_marker" markerHeight="15" markerUnits="strokeWidth" markerWidth="30" orient="auto" viewBox="-15 -15 30 30">
            <path d="M 8 0 L -8 8 L -8 -8 z" fill="red"/>
        </marker>
        <style type="text/css"><![CDATA[
                text{font-family: Lato;}
                span{text-anchor: "middle"; alignment_baseline: "middle"}
                .gridLabels{fill: grey;font-style: italic;font-weight: 900}
                .gridmarker{stroke:red; stroke-width:0.2; opacity: 0.7;}
                
                .connection{ opacity: 0.75;
                            marker-end:url(#conn_marker);
                            stroke-width:1.2;}
                .down{stroke-dasharray: 2;
                    marker-end:url(#up_conn_marker);}
                .up{stroke-dasharray: 2;
                    marker-start:url(#down_conn_marker);}
                .top{stroke-dasharray: 2;
                    marker-start:url(#top_conn_marker);}
                .buffer{marker-mid:url(#buffer_marker);}
                ]]></style>
    </defs>
    <g id="markers" transform="scale(1,-1)">
        <line class="gridmarker" x1="10" x2="10" y1="10" y2="350"/>
        <line class="gridmarker" x1="30" x2="30" y1="10" y2="350"/>
        <line class="gridmarker" x1="50" x2="50" y1="10" y2="350"/>
        <line class="gridmarker" x1="70" x2="70" y1="10" y2="350"/>
        <line class="gridmarker" x1="90" x2="90" y1="10" y2="350"/>
        <line class="gridmarker" x1="110" x2="110" y1="10" y2="350"/>
        <line class="gridmarker" x1="130" x2="130" y1="10" y2="350"/>
        <line class="gridmarker" x1="150" x2="150" y1="10" y2="350"/>
        <line class="gridmarker" x1="170" x2="170" y1="10" y2="350"/>
        <line class="gridmarker" x1="190" x2="190" y1="10" y2="350"/>
        <line class="gridmarker" x1="210" x2="210" y1="10" y2="350"/>
        <line class="gridmarker" x1="230" x2="230" y1="10" y2="350"/>
        <line class="gridmarker" x1="250" x2="250" y1="10" y2="350"/>
        <line class="gridmarker" x1="270" x2="270" y1="10" y2="350"/>
        <line class="gridmarker" x1="290" x2="290" y1="10" y2="350"/>
        <line class="gridmarker" x1="310" x2="310" y1="10" y2="350"/>
        <line class="gridmarker" x1="330" x2="330" y1="10" y2="350"/>
        <line class="gridmarker" x1="350" x2="350" y1="10" y2="350"/>
        <line class="gridmarker" x1="10" x2="350" y1="10" y2="10"/>
        <line class="gridmarker" x1="10" x2="350" y1="30" y2="30"/>
        <line class="gridmarker" x1="10" x2="350" y1="50" y2="50"/>
        <line class="gridmarker" x1="10" x2="350" y1="70" y2="70"/>
        <line class="gridmarker" x1="10" x2="350" y1="90" y2="90"/>
        <line class="gridmarker" x1="10" x2="350" y1="110" y2="110"/>
        <line class="gridmarker" x1="10" x2="350" y1="130" y2="130"/>
        <line class="gridmarker" x1="10" x2="350" y1="150" y2="150"/>
        <line class="gridmarker" x1="10" x2="350" y1="170" y2="170"/>
        <line class="gridmarker" x1="10" x2="350" y1="190" y2="190"/>
        <line class="gridmarker" x1="10" x2="350" y1="210" y2="210"/>
        <line class="gridmarker" x1="10" x2="350" y1="230" y2="230"/>
        <line class="gridmarker" x1="10" x2="350" y1="250" y2="250"/>
        <line class="gridmarker" x1="10" x2="350" y1="270" y2="270"/>
        <line class="gridmarker" x1="10" x2="350" y1="290" y2="290"/>
        <line class="gridmarker" x1="10" x2="350" y1="310" y2="310"/>
        <line class="gridmarker" x1="10" x2="350" y1="330" y2="330"/>
        <line class="gridmarker" x1="10" x2="350" y1="350" y2="350"/>
    </g>
    <g id="main" transform="scale(1,-1)">
        <path class="connection same" d="M 60 60 L 70 60 L 80 60" stroke="grey"/>
        <path class="connection same" d="M 80 60 L 80 70 L 80 80" stroke="grey"/>
        <path class="connection same" d="M 80 60 L 80 50 L 80 40" stroke="grey"/>
        <path class="connection same" d="M 60 60 L 50 60 L 40 60" stroke="grey"/>
        <path class="connection same" d="M 40 60 L 40 70 L 40 80" stroke="grey"/>
        <path class="connection same" d="M 40 60 L 40 50 L 40 40" stroke="grey"/>
        <path class="connection same" d="M 140 60 L 150 60 L 160 60" stroke="grey"/>
        <path class="connection same" d="M 160 60 L 160 70 L 160 80" stroke="grey"/>
        <path class="connection same" d="M 160 60 L 160 50 L 160 40" stroke="grey"/>
        <path class="connection same" d="M 140 60 L 130 60 L 120 60" stroke="grey"/>
        <path class="connection same" d="M 120 60 L 120 70 L 120 80" stroke="grey"/>
        <path class="connection same" d="M 120 60 L 120 50 L 120 40" stroke="grey"/>
        <path class="connection same" d="M 140 140 L 150 140 L 160 140" stroke="grey"/>
        <path class="connection same" d="M 160 140 L 160 150 L 160 160" stroke="grey"/>
        <path class="connection same" d="M 160 140 L 160 130 L 160 120" stroke="grey"/>
        <path class="connection same" d="M 140 140 L 130 140 L 120 140" stroke="grey"/>
        <path class="connection same" d="M 120 140 L 120 150 L 120 160" stroke="grey"/>
        <path class="connection same" d="M 120 140 L 120 130 L 120 120" stroke="grey"/>
        <path class="connection same" d="M 60 140 L 70 140 L 80 140" stroke="grey"/>
        <path class="connection same" d="M 80 140 L 80 150 L 80 160" stroke="grey"/>
        <path class="connection same" d="M 80 140 L 80 130 L 80 120" stroke="grey"/>
        <path class="connection same" d="M 60 140 L 50 140 L 40 140" stroke="grey"/>
        <path class="connection same" d="M 40 140 L 40 150 L 40 160" stroke="grey"/>
        <path class="connection same" d="M 40 140 L 40 130 L 40 120" stroke="grey"/>
        <path class="connection same" d="M 60 220 L 70 220 L 80 220" stroke="grey"/>
        <path class="connection same" d="M 80 220 L 80 230 L 80 240" stroke="grey"/>
        <path class="connection same" d="M 80 220 L 80 210 L 80 200" stroke="grey"/>
        <path class="connection same" d="M 60 220 L 50 220 L 40 220" stroke="grey"/>
        <path class="connection same" d="M 40 220 L 40 230 L 40 240" stroke="grey"/>
        <path class="connection same" d="M 40 220 L 40 210 L 40 200" stroke="grey"/>
        <path class="connection same" d="M 140 220 L 150 220 L 160 220" stroke="grey"/>
        <path class="connection same" d="M 160 220 L 160 230 L 160 240" stroke="grey"/>
        <path class="connection same" d="M 160 220 L 160 210 L 160 200" stroke="grey"/>
        <path class="connection same" d="M 140 220 L 130 220 L 120 220" stroke="grey"/>
        <path class="connection same" d="M 120 220 L 120 230 L 120 240" stroke="grey"/>
        <path class="connection same" d="M 120 220 L 120 210 L 120 200" stroke="grey"/>
        <path class="connection same" d="M 140 300 L 150 300 L 160 300" stroke="grey"/>
        <path class="connection same" d="M 160 300 L 160 310 L 160 320" stroke="grey"/>
        <path class="connection same" d="M 160 300 L 160 290 L 160 280" stroke="grey"/>
        <path class="connection same" d="M 140 300 L 130 300 L 120 300" stroke="grey"/>
        <path class="connection same" d="M 120 300 L 120 310 L 120 320" stroke="grey"/>
        <path class="connection same" d="M 120 300 L 120 290 L 120 280" stroke="grey"/>
        <path class="connection same" d="M 60 300 L 70 300 L 80 300" stroke="grey"/>
        <path class="connection same" d="M 80 300 L 80 310 L 80 320" stroke="grey"/>
        <path class="connection same" d="M 80 300 L 80 290 L 80 280" stroke="grey"/>
        <path class="connection same" d="M 60 300 L 50 300 L 40 300" stroke="grey"/>
        <path class="connection same" d="M 40 300 L 40 310 L 40 320" stroke="grey"/>
        <path class="connection same" d="M 40 300 L 40 290 L 40 280" stroke="grey"/>
        <path class="connection same" d="M 220 60 L 230 60 L 240 60" stroke="grey"/>
        <path class="connection same" d="M 240 60 L 240 70 L 240 80" stroke="grey"/>
        <path class="connection same" d="M 240 60 L 240 50 L 240 40" stroke="grey"/>
        <path class="connection same" d="M 220 60 L 210 60 L 200 60" stroke="grey"/>
        <path class="connection same" d="M 200 60 L 200 70 L 200 80" stroke="grey"/>
        <path class="connection same" d="M 200 60 L 200 50 L 200 40" stroke="grey"/>
        <path class="connection same" d="M 300 60 L 310 60 L 320 60" stroke="grey"/>
        <path class="connection same" d="M 320 60 L 320 70 L 320 80" stroke="grey"/>
        <path class="connection same" d="M 320 60 L 320 50 L 320 40" stroke="grey"/>
        <path class="connection same" d="M 300 60 L 290 60 L 280 60" stroke="grey"/>
        <path class="connection same" d="M 280 60 L 280 70 L 280 80" stroke="grey"/>
        <path class="connection same" d="M 280 60 L 280 50 L 280 40" stroke="grey"/>
        <path class="connection same" d="M 300 140 L 310 140 L 320 140" stroke="grey"/>
        <path class="connection same" d="M 320 140 L 320 150 L 320 160" stroke="grey"/>
        <path class="connection same" d="M 320 140 L 320 130 L 320 120" stroke="grey"/>
        <path class="connection same" d="M 300 140 L 290 140 L 280 140" stroke="grey"/>
        <path class="connection same" d="M 280 140 L 280 150 L 280 160" stroke="grey"/>
        <path class="connection same" d="M 280 140 L 280 130 L 280 120" stroke="grey"/>
        <path class="connection same" d="M 220 140 L 230 140 L 240 140" stroke="grey"/>
        <path class="connection same" d="M 240 140 L 240 150 L 240 160" stroke="grey"/>
        <path class="connection same" d="M 240 140 L 240 130 L 240 120" stroke="grey"/>
        <path class="connection same" d="M 220 140 L 210 140 L 200 140" stroke="grey"/>
        <path class="connection same" d="M 200 140 L 200 150 L 200 160" stroke="grey"/>
        <path class="connection same" d="M 200 140 L 200 130 L 200 120" stroke="grey"/>
        <path class="connection same" d="M 220 220 L 230 220 L 240 220" stroke="grey"/>
        <path class="connection same" d="M 240 220 L 240 230 L 240 240" stroke="grey"/>
        <path class="connection same" d="M 240 220 L 240 210 L 240 200" stroke="grey"/>
        <path class="connection same" d="M 220 220 L 210 220 L 200 220" stroke="grey"/>
        <path class="connection same" d="M 200 220 L 200 230 L 200 240" stroke="grey"/>
        <path class="connection same" d="M 200 220 L 200 210 L 200 200" stroke="grey"/>
        <path class="connection same" d="M 300 220 L 310 220 L 320 220" stroke="grey"/>
        <path class="connection same" d="M 320 220 L 320 230 L 320 240" stroke="grey"/>
        <path class="connection same" d="M 320 220 L 320 210 L 320 200" stroke="grey"/>
        <path class="connection same" d="M 300 220 L 290 220 L 280 220" stroke="grey"/>
        <path class="connection same" d="M 280 220 L 280 230 L 280 240" stroke="grey"/>
        <path class="connection same" d="M 280 220 L 280 210 L 280 200" stroke="grey"/>
        <path class="connection same" d="M 300 300 L 310 300 L 320 300" stroke="grey"/>
        <path class="connection same" d="M 320 300 L 320 310 L 320 320" stroke="grey"/>
        <path class="connection same" d="M 320 300 L 320 290 L 320 280" stroke="grey"/>
        <path class="connection same" d="M 300 300 L 290 300 L 280 300" stroke="grey"/>
        <path class="connection same" d="M 280 300 L 280 310 L 280 320" stroke="grey"/>
        <path class="connection same" d="M 280 300 L 280 290 L 280 280" stroke="grey"/>
        <path class="connection same" d="M 220 300 L 230 300 L 240 300" stroke="grey"/>
        <path class="connection same" d="M 240 300 L 240 310 L 240 320" stroke="grey"/>
        <path class="connection same" d="M 240 300 L 240 290 L 240 280" stroke="grey"/>
        <path class="connection same" d="M 220 300 L 210 300 L 200 300" stroke="grey"/>
        <path class="connection same" d="M 200 300 L 200 310 L 200 320" stroke="grey"/>
        <path class="connection same" d="M 200 300 L 200 290 L 200 280" stroke="grey"/>
        <path class="connection up" d="M 60 80 L 60 70 L 60 60" stroke="grey"/>
        <path class="connection up" d="M 60 120 L 60 130 L 60 140" stroke="grey"/>
        <path class="connection up" d="M 60 240 L 60 230 L 60 220" stroke="grey"/>
        <path class="connection up" d="M 60 280 L 60 290 L 60 300" stroke="grey"/>
        <path class="connection up" d="M 140 80 L 140 70 L 140 60" stroke="grey"/>
        <path class="connection up" d="M 140 120 L 140 130 L 140 140" stroke="grey"/>
        <path class="connection up" d="M 140 240 L 140 230 L 140 220" stroke="grey"/>
        <path class="connection up" d="M 140 280 L 140 290 L 140 300" stroke="grey"/>
        <path class="connection up" d="M 220 80 L 220 70 L 220 60" stroke="grey"/>
        <path class="connection up" d="M 220 120 L 220 130 L 220 140" stroke="grey"/>
        <path class="connection up" d="M 220 240 L 220 230 L 220 220" stroke="grey"/>
        <path class="connection up" d="M 220 280 L 220 290 L 220 300" stroke="grey"/>
        <path class="connection up" d="M 300 80 L 300 70 L 300 60" stroke="grey"/>
        <path class="connection up" d="M 300 120 L 300 130 L 300 140" stroke="grey"/>
        <path class="connection up" d="M 300 240 L 300 230 L 300 220" stroke="grey"/>
        <path class="connection up" d="M 300 280 L 300 290 L 300 300" stroke="grey"/>
        <path class="connection same" d="M 100 100 L 110 100 L 120 100" stroke="blue"/>
        <path class="connection same" d="M 120 100 L 130 100 L 140 100" stroke="blue"/>
        <path class="connection same" d="M 140 100 L 140 110 L 140 120" stroke="blue"/>
        <path class="connection down" d="M 140 120 L 140 130 L 140 140" stroke="blue"/>
        <path class="connection same" d="M 140 100 L 140 90 L 140 80" stroke="blue"/>
        <path class="connection down" d="M 140 80 L 140 70 L 140 60" stroke="blue"/>
        <path class="connection same" d="M 100 100 L 90 100 L 80 100" stroke="blue"/>
        <path class="connection same" d="M 80 100 L 70 100 L 60 100" stroke="blue"/>
        <path class="connection same" d="M 60 100 L 60 110 L 60 120" stroke="blue"/>
        <path class="connection down" d="M 60 120 L 60 130 L 60 140" stroke="blue"/>
        <path class="connection same" d="M 60 100 L 60 90 L 60 80" stroke="blue"/>
        <path class="connection down" d="M 60 80 L 60 70 L 60 60" stroke="blue"/>
        <path class="connection same" d="M 100 260 L 110 260 L 120 260" stroke="blue"/>
        <path class="connection same" d="M 120 260 L 130 260 L 140 260" stroke="blue"/>
        <path class="connection same" d="M 140 260 L 140 270 L 140 280" stroke="blue"/>
        <path class="connection down" d="M 140 280 L 140 290 L 140 300" stroke="blue"/>
        <path class="connection same" d="M 140 260 L 140 250 L 140 240" stroke="blue"/>
        <path class="connection down" d="M 140 240 L 140 230 L 140 220" stroke="blue"/>
        <path class="connection same" d="M 100 260 L 90 260 L 80 260" stroke="blue"/>
        <path class="connection same" d="M 80 260 L 70 260 L 60 260" stroke="blue"/>
        <path class="connection same" d="M 60 260 L 60 270 L 60 280" stroke="blue"/>
        <path class="connection down" d="M 60 280 L 60 290 L 60 300" stroke="blue"/>
        <path class="connection same" d="M 60 260 L 60 250 L 60 240" stroke="blue"/>
        <path class="connection down" d="M 60 240 L 60 230 L 60 220" stroke="blue"/>
        <path class="connection same" d="M 260 100 L 270 100 L 280 100" stroke="blue"/>
        <path class="connection same" d="M 280 100 L 290 100 L 300 100" stroke="blue"/>
        <path class="connection same" d="M 300 100 L 300 110 L 300 120" stroke="blue"/>
        <path class="connection down" d="M 300 120 L 300 130 L 300 140" stroke="blue"/>
        <path class="connection same" d="M 300 100 L 300 90 L 300 80" stroke="blue"/>
        <path class="connection down" d="M 300 80 L 300 70 L 300 60" stroke="blue"/>
        <path class="connection same" d="M 260 100 L 250 100 L 240 100" stroke="blue"/>
        <path class="connection same" d="M 240 100 L 230 100 L 220 100" stroke="blue"/>
        <path class="connection same" d="M 220 100 L 220 110 L 220 120" stroke="blue"/>
        <path class="connection down" d="M 220 120 L 220 130 L 220 140" stroke="blue"/>
        <path class="connection same" d="M 220 100 L 220 90 L 220 80" stroke="blue"/>
        <path class="connection down" d="M 220 80 L 220 70 L 220 60" stroke="blue"/>
        <path class="connection same" d="M 260 260 L 270 260 L 280 260" stroke="blue"/>
        <path class="connection same" d="M 280 260 L 290 260 L 300 260" stroke="blue"/>
        <path class="connection same" d="M 300 260 L 300 270 L 300 280" stroke="blue"/>
        <path class="connection down" d="M 300 280 L 300 290 L 300 300" stroke="blue"/>
        <path class="connection same" d="M 300 260 L 300 250 L 300 240" stroke="blue"/>
        <path class="connection down" d="M 300 240 L 300 230 L 300 220" stroke="blue"/>
        <path class="connection same" d="M 260 260 L 250 260 L 240 260" stroke="blue"/>
        <path class="connection same" d="M 240 260 L 230 260 L 220 260" stroke="blue"/>
        <path class="connection same" d="M 220 260 L 220 270 L 220 280" stroke="blue"/>
        <path class="connection down" d="M 220 280 L 220 290 L 220 300" stroke="blue"/>
        <path class="connection same" d="M 220 260 L 220 250 L 220 240" stroke="blue"/>
        <path class="connection down" d="M 220 240 L 220 230 L 220 220" stroke="blue"/>
        <path class="connection same" d="M 180 0 L 180 10 L 180 20" stroke="red"/>
        <path class="connection same" d="M 180 20 L 180 30 L 180 40" stroke="red"/>
        <path class="connection same" d="M 180 40 L 180 50 L 180 60" stroke="red"/>
        <path class="connection same" d="M 180 60 L 180 70 L 180 80" stroke="red"/>
        <path class="connection same" d="M 180 80 L 180 90 L 180 100" stroke="red"/>
        <path class="connection same" d="M 180 100 L 180 110 L 180 120" stroke="red"/>
        <path class="connection same" d="M 180 120 L 180 130 L 180 140" stroke="red"/>
        <path class="connection same" d="M 180 140 L 180 150 L 180 160" stroke="red"/>
        <path class="connection same" d="M 180 160 L 180 170 L 180 180" stroke="red"/>
        <path class="connection same" d="M 180 180 L 190 180 L 200 180" stroke="red"/>
        <path class="connection same" d="M 200 180 L 210 180 L 220 180" stroke="red"/>
        <path class="connection same" d="M 220 180 L 230 180 L 240 180" stroke="red"/>
        <path class="connection same" d="M 240 180 L 250 180 L 260 180" stroke="red"/>
        <path class="connection same" d="M 260 180 L 260 190 L 260 200" stroke="red"/>
        <path class="connection same" d="M 260 200 L 260 210 L 260 220" stroke="red"/>
        <path class="connection same" d="M 260 220 L 260 230 L 260 240" stroke="red"/>
        <path class="connection down" d="M 260 240 L 260 250 L 260 260" stroke="red"/>
        <path class="connection same" d="M 260 180 L 260 170 L 260 160" stroke="red"/>
        <path class="connection same" d="M 260 160 L 260 150 L 260 140" stroke="red"/>
        <path class="connection same" d="M 260 140 L 260 130 L 260 120" stroke="red"/>
        <path class="connection down" d="M 260 120 L 260 110 L 260 100" stroke="red"/>
        <path class="connection same" d="M 180 180 L 170 180 L 160 180" stroke="red"/>
        <path class="connection same" d="M 160 180 L 150 180 L 140 180" stroke="red"/>
        <path class="connection same" d="M 140 180 L 130 180 L 120 180" stroke="red"/>
        <path class="connection same" d="M 120 180 L 110 180 L 100 180" stroke="red"/>
        <path class="connection same" d="M 100 180 L 100 190 L 100 200" stroke="red"/>
        <path class="connection same" d="M 100 200 L 100 210 L 100 220" stroke="red"/>
        <path class="connection same" d="M 100 220 L 100 230 L 100 240" stroke="red"/>
        <path class="connection down" d="M 100 240 L 100 250 L 100 260" stroke="red"/>
        <path class="connection same" d="M 100 180 L 100 170 L 100 160" stroke="red"/>
        <path class="connection same" d="M 100 160 L 100 150 L 100 140" stroke="red"/>
        <path class="connection same" d="M 100 140 L 100 130 L 100 120" stroke="red"/>
        <path class="connection down" d="M 100 120 L 100 110 L 100 100" stroke="red"/>
        <g id="text">
            <text alignment-baseline="middle" class="moduleLabel" fill="black" font-size="34.0" text-anchor="middle" transform="scale(1,-1)" x="180.0" y="10.0">Combined Pattern</text>
        </g>
    </g>
</svg>
