<?xml version="1.0" encoding="utf-8" ?>
<svg xmlns="http://www.w3.org/2000/svg" xmlns:ev="http://www.w3.org/2001/xml-events" xmlns:xlink="http://www.w3.org/1999/xlink" baseProfile="full" height="720" version="1.1" viewBox="0,-690.0,680,720" width="680">
    <defs id="id2">
        <style type="text/css"><![CDATA[
                text{font-family: Verdana;}
                svgg{background-color:grey;}
                .connection{stroke-linecap:round; opacity: 0.7; stroke-width:1.2;}
                span{text-anchor: "middle"; alignment_baseline: "middle"}
                .gridLabels{fill: grey;font-style: italic;font-weight: 900}
                .down{stroke-dasharray: 5;}
                .up{stroke-dasharray: 5;}
                .top{stroke-dasharray: 5;}
                .gridmarker{stroke:red; stroke-width:0.2; opacity: 0.7;}
                ]]></style>
        <marker id="id1" markerHeight="10" markerUnits="strokeWidth" markerWidth="5" orient="auto" refX="30" refY="30" viewBox="0 0 120 120">
            <path d="M 0 0 L 60 30 L 0 60 z" fill="blue"/>
        </marker>
    </defs>
    <g id="markers" transform="scale(1,-1)">
        <line class="gridmarker" x1="10.0" x2="10.0" y1="10.0" y2="670.0"/>
        <line class="gridmarker" x1="30.0" x2="30.0" y1="10.0" y2="670.0"/>
        <line class="gridmarker" x1="50.0" x2="50.0" y1="10.0" y2="670.0"/>
        <line class="gridmarker" x1="70.0" x2="70.0" y1="10.0" y2="670.0"/>
        <line class="gridmarker" x1="90.0" x2="90.0" y1="10.0" y2="670.0"/>
        <line class="gridmarker" x1="110.0" x2="110.0" y1="10.0" y2="670.0"/>
        <line class="gridmarker" x1="130.0" x2="130.0" y1="10.0" y2="670.0"/>
        <line class="gridmarker" x1="150.0" x2="150.0" y1="10.0" y2="670.0"/>
        <line class="gridmarker" x1="170.0" x2="170.0" y1="10.0" y2="670.0"/>
        <line class="gridmarker" x1="190.0" x2="190.0" y1="10.0" y2="670.0"/>
        <line class="gridmarker" x1="210.0" x2="210.0" y1="10.0" y2="670.0"/>
        <line class="gridmarker" x1="230.0" x2="230.0" y1="10.0" y2="670.0"/>
        <line class="gridmarker" x1="250.0" x2="250.0" y1="10.0" y2="670.0"/>
        <line class="gridmarker" x1="270.0" x2="270.0" y1="10.0" y2="670.0"/>
        <line class="gridmarker" x1="290.0" x2="290.0" y1="10.0" y2="670.0"/>
        <line class="gridmarker" x1="310.0" x2="310.0" y1="10.0" y2="670.0"/>
        <line class="gridmarker" x1="330.0" x2="330.0" y1="10.0" y2="670.0"/>
        <line class="gridmarker" x1="350.0" x2="350.0" y1="10.0" y2="670.0"/>
        <line class="gridmarker" x1="370.0" x2="370.0" y1="10.0" y2="670.0"/>
        <line class="gridmarker" x1="390.0" x2="390.0" y1="10.0" y2="670.0"/>
        <line class="gridmarker" x1="410.0" x2="410.0" y1="10.0" y2="670.0"/>
        <line class="gridmarker" x1="430.0" x2="430.0" y1="10.0" y2="670.0"/>
        <line class="gridmarker" x1="450.0" x2="450.0" y1="10.0" y2="670.0"/>
        <line class="gridmarker" x1="470.0" x2="470.0" y1="10.0" y2="670.0"/>
        <line class="gridmarker" x1="490.0" x2="490.0" y1="10.0" y2="670.0"/>
        <line class="gridmarker" x1="510.0" x2="510.0" y1="10.0" y2="670.0"/>
        <line class="gridmarker" x1="530.0" x2="530.0" y1="10.0" y2="670.0"/>
        <line class="gridmarker" x1="550.0" x2="550.0" y1="10.0" y2="670.0"/>
        <line class="gridmarker" x1="570.0" x2="570.0" y1="10.0" y2="670.0"/>
        <line class="gridmarker" x1="590.0" x2="590.0" y1="10.0" y2="670.0"/>
        <line class="gridmarker" x1="610.0" x2="610.0" y1="10.0" y2="670.0"/>
        <line class="gridmarker" x1="630.0" x2="630.0" y1="10.0" y2="670.0"/>
        <line class="gridmarker" x1="650.0" x2="650.0" y1="10.0" y2="670.0"/>
        <line class="gridmarker" x1="670.0" x2="670.0" y1="10.0" y2="670.0"/>
        <line class="gridmarker" x1="10.0" x2="670.0" y1="10.0" y2="10.0"/>
        <line class="gridmarker" x1="10.0" x2="670.0" y1="30.0" y2="30.0"/>
        <line class="gridmarker" x1="10.0" x2="670.0" y1="50.0" y2="50.0"/>
        <line class="gridmarker" x1="10.0" x2="670.0" y1="70.0" y2="70.0"/>
        <line class="gridmarker" x1="10.0" x2="670.0" y1="90.0" y2="90.0"/>
        <line class="gridmarker" x1="10.0" x2="670.0" y1="110.0" y2="110.0"/>
        <line class="gridmarker" x1="10.0" x2="670.0" y1="130.0" y2="130.0"/>
        <line class="gridmarker" x1="10.0" x2="670.0" y1="150.0" y2="150.0"/>
        <line class="gridmarker" x1="10.0" x2="670.0" y1="170.0" y2="170.0"/>
        <line class="gridmarker" x1="10.0" x2="670.0" y1="190.0" y2="190.0"/>
        <line class="gridmarker" x1="10.0" x2="670.0" y1="210.0" y2="210.0"/>
        <line class="gridmarker" x1="10.0" x2="670.0" y1="230.0" y2="230.0"/>
        <line class="gridmarker" x1="10.0" x2="670.0" y1="250.0" y2="250.0"/>
        <line class="gridmarker" x1="10.0" x2="670.0" y1="270.0" y2="270.0"/>
        <line class="gridmarker" x1="10.0" x2="670.0" y1="290.0" y2="290.0"/>
        <line class="gridmarker" x1="10.0" x2="670.0" y1="310.0" y2="310.0"/>
        <line class="gridmarker" x1="10.0" x2="670.0" y1="330.0" y2="330.0"/>
        <line class="gridmarker" x1="10.0" x2="670.0" y1="350.0" y2="350.0"/>
        <line class="gridmarker" x1="10.0" x2="670.0" y1="370.0" y2="370.0"/>
        <line class="gridmarker" x1="10.0" x2="670.0" y1="390.0" y2="390.0"/>
        <line class="gridmarker" x1="10.0" x2="670.0" y1="410.0" y2="410.0"/>
        <line class="gridmarker" x1="10.0" x2="670.0" y1="430.0" y2="430.0"/>
        <line class="gridmarker" x1="10.0" x2="670.0" y1="450.0" y2="450.0"/>
        <line class="gridmarker" x1="10.0" x2="670.0" y1="470.0" y2="470.0"/>
        <line class="gridmarker" x1="10.0" x2="670.0" y1="490.0" y2="490.0"/>
        <line class="gridmarker" x1="10.0" x2="670.0" y1="510.0" y2="510.0"/>
        <line class="gridmarker" x1="10.0" x2="670.0" y1="530.0" y2="530.0"/>
        <line class="gridmarker" x1="10.0" x2="670.0" y1="550.0" y2="550.0"/>
        <line class="gridmarker" x1="10.0" x2="670.0" y1="570.0" y2="570.0"/>
        <line class="gridmarker" x1="10.0" x2="670.0" y1="590.0" y2="590.0"/>
        <line class="gridmarker" x1="10.0" x2="670.0" y1="610.0" y2="610.0"/>
        <line class="gridmarker" x1="10.0" x2="670.0" y1="630.0" y2="630.0"/>
        <line class="gridmarker" x1="10.0" x2="670.0" y1="650.0" y2="650.0"/>
        <line class="gridmarker" x1="10.0" x2="670.0" y1="670.0" y2="670.0"/>
    </g>
    <g id="main" transform="scale(1,-1)">
        <line class="connection same" marker-end="url(#id1)" stroke=" black" x1="320" x2="320" y1="0" y2="20"/>
        <g id="text">
            <text alignment-baseline="middle" class="moduleLabel" fill="black" font-size="66.0" text-anchor="middle" transform="scale(1,-1)" x="340.0" y="10.0">33x33 design</text>
        </g>
        <g id="sink_pts">
            <rect class="sink_point" height="20" opacity="0.2" width="20" x="30" y="30"/>
            <rect class="sink_point" height="20" opacity="0.2" width="20" x="70" y="30"/>
            <rect class="sink_point" height="20" opacity="0.2" width="20" x="110" y="30"/>
            <rect class="sink_point" height="20" opacity="0.2" width="20" x="150" y="30"/>
            <rect class="sink_point" height="20" opacity="0.2" width="20" x="190" y="30"/>
            <rect class="sink_point" height="20" opacity="0.2" width="20" x="230" y="30"/>
            <rect class="sink_point" height="20" opacity="0.2" width="20" x="270" y="30"/>
            <rect class="sink_point" height="20" opacity="0.2" width="20" x="310" y="30"/>
            <rect class="sink_point" height="20" opacity="0.2" width="20" x="350" y="30"/>
            <rect class="sink_point" height="20" opacity="0.2" width="20" x="390" y="30"/>
            <rect class="sink_point" height="20" opacity="0.2" width="20" x="430" y="30"/>
            <rect class="sink_point" height="20" opacity="0.2" width="20" x="470" y="30"/>
            <rect class="sink_point" height="20" opacity="0.2" width="20" x="510" y="30"/>
            <rect class="sink_point" height="20" opacity="0.2" width="20" x="550" y="30"/>
            <rect class="sink_point" height="20" opacity="0.2" width="20" x="590" y="30"/>
            <rect class="sink_point" height="20" opacity="0.2" width="20" x="630" y="30"/>
            <rect class="sink_point" height="20" opacity="0.2" width="20" x="10" y="30"/>
            <rect class="sink_point" height="20" opacity="0.2" width="20" x="650" y="30"/>
            <rect class="sink_point" height="20" opacity="0.2" width="20" x="30" y="70"/>
            <rect class="sink_point" height="20" opacity="0.2" width="20" x="70" y="70"/>
            <rect class="sink_point" height="20" opacity="0.2" width="20" x="110" y="70"/>
            <rect class="sink_point" height="20" opacity="0.2" width="20" x="150" y="70"/>
            <rect class="sink_point" height="20" opacity="0.2" width="20" x="190" y="70"/>
            <rect class="sink_point" height="20" opacity="0.2" width="20" x="230" y="70"/>
            <rect class="sink_point" height="20" opacity="0.2" width="20" x="270" y="70"/>
            <rect class="sink_point" height="20" opacity="0.2" width="20" x="310" y="70"/>
            <rect class="sink_point" height="20" opacity="0.2" width="20" x="350" y="70"/>
            <rect class="sink_point" height="20" opacity="0.2" width="20" x="390" y="70"/>
            <rect class="sink_point" height="20" opacity="0.2" width="20" x="430" y="70"/>
            <rect class="sink_point" height="20" opacity="0.2" width="20" x="470" y="70"/>
            <rect class="sink_point" height="20" opacity="0.2" width="20" x="510" y="70"/>
            <rect class="sink_point" height="20" opacity="0.2" width="20" x="550" y="70"/>
            <rect class="sink_point" height="20" opacity="0.2" width="20" x="590" y="70"/>
            <rect class="sink_point" height="20" opacity="0.2" width="20" x="630" y="70"/>
            <rect class="sink_point" height="20" opacity="0.2" width="20" x="10" y="70"/>
            <rect class="sink_point" height="20" opacity="0.2" width="20" x="650" y="70"/>
            <rect class="sink_point" height="20" opacity="0.2" width="20" x="30" y="110"/>
            <rect class="sink_point" height="20" opacity="0.2" width="20" x="70" y="110"/>
            <rect class="sink_point" height="20" opacity="0.2" width="20" x="110" y="110"/>
            <rect class="sink_point" height="20" opacity="0.2" width="20" x="150" y="110"/>
            <rect class="sink_point" height="20" opacity="0.2" width="20" x="190" y="110"/>
            <rect class="sink_point" height="20" opacity="0.2" width="20" x="230" y="110"/>
            <rect class="sink_point" height="20" opacity="0.2" width="20" x="270" y="110"/>
            <rect class="sink_point" height="20" opacity="0.2" width="20" x="310" y="110"/>
            <rect class="sink_point" height="20" opacity="0.2" width="20" x="350" y="110"/>
            <rect class="sink_point" height="20" opacity="0.2" width="20" x="390" y="110"/>
            <rect class="sink_point" height="20" opacity="0.2" width="20" x="430" y="110"/>
            <rect class="sink_point" height="20" opacity="0.2" width="20" x="470" y="110"/>
            <rect class="sink_point" height="20" opacity="0.2" width="20" x="510" y="110"/>
            <rect class="sink_point" height="20" opacity="0.2" width="20" x="550" y="110"/>
            <rect class="sink_point" height="20" opacity="0.2" width="20" x="590" y="110"/>
            <rect class="sink_point" height="20" opacity="0.2" width="20" x="630" y="110"/>
            <rect class="sink_point" height="20" opacity="0.2" width="20" x="10" y="110"/>
            <rect class="sink_point" height="20" opacity="0.2" width="20" x="650" y="110"/>
            <rect class="sink_point" height="20" opacity="0.2" width="20" x="30" y="150"/>
            <rect class="sink_point" height="20" opacity="0.2" width="20" x="70" y="150"/>
            <rect class="sink_point" height="20" opacity="0.2" width="20" x="110" y="150"/>
            <rect class="sink_point" height="20" opacity="0.2" width="20" x="150" y="150"/>
            <rect class="sink_point" height="20" opacity="0.2" width="20" x="190" y="150"/>
            <rect class="sink_point" height="20" opacity="0.2" width="20" x="230" y="150"/>
            <rect class="sink_point" height="20" opacity="0.2" width="20" x="270" y="150"/>
            <rect class="sink_point" height="20" opacity="0.2" width="20" x="310" y="150"/>
            <rect class="sink_point" height="20" opacity="0.2" width="20" x="350" y="150"/>
            <rect class="sink_point" height="20" opacity="0.2" width="20" x="390" y="150"/>
            <rect class="sink_point" height="20" opacity="0.2" width="20" x="430" y="150"/>
            <rect class="sink_point" height="20" opacity="0.2" width="20" x="470" y="150"/>
            <rect class="sink_point" height="20" opacity="0.2" width="20" x="510" y="150"/>
            <rect class="sink_point" height="20" opacity="0.2" width="20" x="550" y="150"/>
            <rect class="sink_point" height="20" opacity="0.2" width="20" x="590" y="150"/>
            <rect class="sink_point" height="20" opacity="0.2" width="20" x="630" y="150"/>
            <rect class="sink_point" height="20" opacity="0.2" width="20" x="10" y="150"/>
            <rect class="sink_point" height="20" opacity="0.2" width="20" x="650" y="150"/>
            <rect class="sink_point" height="20" opacity="0.2" width="20" x="30" y="190"/>
            <rect class="sink_point" height="20" opacity="0.2" width="20" x="70" y="190"/>
            <rect class="sink_point" height="20" opacity="0.2" width="20" x="110" y="190"/>
            <rect class="sink_point" height="20" opacity="0.2" width="20" x="150" y="190"/>
            <rect class="sink_point" height="20" opacity="0.2" width="20" x="190" y="190"/>
            <rect class="sink_point" height="20" opacity="0.2" width="20" x="230" y="190"/>
            <rect class="sink_point" height="20" opacity="0.2" width="20" x="270" y="190"/>
            <rect class="sink_point" height="20" opacity="0.2" width="20" x="310" y="190"/>
            <rect class="sink_point" height="20" opacity="0.2" width="20" x="350" y="190"/>
            <rect class="sink_point" height="20" opacity="0.2" width="20" x="390" y="190"/>
            <rect class="sink_point" height="20" opacity="0.2" width="20" x="430" y="190"/>
            <rect class="sink_point" height="20" opacity="0.2" width="20" x="470" y="190"/>
            <rect class="sink_point" height="20" opacity="0.2" width="20" x="510" y="190"/>
            <rect class="sink_point" height="20" opacity="0.2" width="20" x="550" y="190"/>
            <rect class="sink_point" height="20" opacity="0.2" width="20" x="590" y="190"/>
            <rect class="sink_point" height="20" opacity="0.2" width="20" x="630" y="190"/>
            <rect class="sink_point" height="20" opacity="0.2" width="20" x="10" y="190"/>
            <rect class="sink_point" height="20" opacity="0.2" width="20" x="650" y="190"/>
            <rect class="sink_point" height="20" opacity="0.2" width="20" x="30" y="230"/>
            <rect class="sink_point" height="20" opacity="0.2" width="20" x="70" y="230"/>
            <rect class="sink_point" height="20" opacity="0.2" width="20" x="110" y="230"/>
            <rect class="sink_point" height="20" opacity="0.2" width="20" x="150" y="230"/>
            <rect class="sink_point" height="20" opacity="0.2" width="20" x="190" y="230"/>
            <rect class="sink_point" height="20" opacity="0.2" width="20" x="230" y="230"/>
            <rect class="sink_point" height="20" opacity="0.2" width="20" x="270" y="230"/>
            <rect class="sink_point" height="20" opacity="0.2" width="20" x="310" y="230"/>
            <rect class="sink_point" height="20" opacity="0.2" width="20" x="350" y="230"/>
            <rect class="sink_point" height="20" opacity="0.2" width="20" x="390" y="230"/>
            <rect class="sink_point" height="20" opacity="0.2" width="20" x="430" y="230"/>
            <rect class="sink_point" height="20" opacity="0.2" width="20" x="470" y="230"/>
            <rect class="sink_point" height="20" opacity="0.2" width="20" x="510" y="230"/>
            <rect class="sink_point" height="20" opacity="0.2" width="20" x="550" y="230"/>
            <rect class="sink_point" height="20" opacity="0.2" width="20" x="590" y="230"/>
            <rect class="sink_point" height="20" opacity="0.2" width="20" x="630" y="230"/>
            <rect class="sink_point" height="20" opacity="0.2" width="20" x="10" y="230"/>
            <rect class="sink_point" height="20" opacity="0.2" width="20" x="650" y="230"/>
            <rect class="sink_point" height="20" opacity="0.2" width="20" x="30" y="270"/>
            <rect class="sink_point" height="20" opacity="0.2" width="20" x="70" y="270"/>
            <rect class="sink_point" height="20" opacity="0.2" width="20" x="110" y="270"/>
            <rect class="sink_point" height="20" opacity="0.2" width="20" x="150" y="270"/>
            <rect class="sink_point" height="20" opacity="0.2" width="20" x="190" y="270"/>
            <rect class="sink_point" height="20" opacity="0.2" width="20" x="230" y="270"/>
            <rect class="sink_point" height="20" opacity="0.2" width="20" x="270" y="270"/>
            <rect class="sink_point" height="20" opacity="0.2" width="20" x="310" y="270"/>
            <rect class="sink_point" height="20" opacity="0.2" width="20" x="350" y="270"/>
            <rect class="sink_point" height="20" opacity="0.2" width="20" x="390" y="270"/>
            <rect class="sink_point" height="20" opacity="0.2" width="20" x="430" y="270"/>
            <rect class="sink_point" height="20" opacity="0.2" width="20" x="470" y="270"/>
            <rect class="sink_point" height="20" opacity="0.2" width="20" x="510" y="270"/>
            <rect class="sink_point" height="20" opacity="0.2" width="20" x="550" y="270"/>
            <rect class="sink_point" height="20" opacity="0.2" width="20" x="590" y="270"/>
            <rect class="sink_point" height="20" opacity="0.2" width="20" x="630" y="270"/>
            <rect class="sink_point" height="20" opacity="0.2" width="20" x="10" y="270"/>
            <rect class="sink_point" height="20" opacity="0.2" width="20" x="650" y="270"/>
            <rect class="sink_point" height="20" opacity="0.2" width="20" x="30" y="310"/>
            <rect class="sink_point" height="20" opacity="0.2" width="20" x="70" y="310"/>
            <rect class="sink_point" height="20" opacity="0.2" width="20" x="110" y="310"/>
            <rect class="sink_point" height="20" opacity="0.2" width="20" x="150" y="310"/>
            <rect class="sink_point" height="20" opacity="0.2" width="20" x="190" y="310"/>
            <rect class="sink_point" height="20" opacity="0.2" width="20" x="230" y="310"/>
            <rect class="sink_point" height="20" opacity="0.2" width="20" x="270" y="310"/>
            <rect class="sink_point" height="20" opacity="0.2" width="20" x="310" y="310"/>
            <rect class="sink_point" height="20" opacity="0.2" width="20" x="350" y="310"/>
            <rect class="sink_point" height="20" opacity="0.2" width="20" x="390" y="310"/>
            <rect class="sink_point" height="20" opacity="0.2" width="20" x="430" y="310"/>
            <rect class="sink_point" height="20" opacity="0.2" width="20" x="470" y="310"/>
            <rect class="sink_point" height="20" opacity="0.2" width="20" x="510" y="310"/>
            <rect class="sink_point" height="20" opacity="0.2" width="20" x="550" y="310"/>
            <rect class="sink_point" height="20" opacity="0.2" width="20" x="590" y="310"/>
            <rect class="sink_point" height="20" opacity="0.2" width="20" x="630" y="310"/>
            <rect class="sink_point" height="20" opacity="0.2" width="20" x="10" y="310"/>
            <rect class="sink_point" height="20" opacity="0.2" width="20" x="650" y="310"/>
            <rect class="sink_point" height="20" opacity="0.2" width="20" x="30" y="350"/>
            <rect class="sink_point" height="20" opacity="0.2" width="20" x="70" y="350"/>
            <rect class="sink_point" height="20" opacity="0.2" width="20" x="110" y="350"/>
            <rect class="sink_point" height="20" opacity="0.2" width="20" x="150" y="350"/>
            <rect class="sink_point" height="20" opacity="0.2" width="20" x="190" y="350"/>
            <rect class="sink_point" height="20" opacity="0.2" width="20" x="230" y="350"/>
            <rect class="sink_point" height="20" opacity="0.2" width="20" x="270" y="350"/>
            <rect class="sink_point" height="20" opacity="0.2" width="20" x="310" y="350"/>
            <rect class="sink_point" height="20" opacity="0.2" width="20" x="350" y="350"/>
            <rect class="sink_point" height="20" opacity="0.2" width="20" x="390" y="350"/>
            <rect class="sink_point" height="20" opacity="0.2" width="20" x="430" y="350"/>
            <rect class="sink_point" height="20" opacity="0.2" width="20" x="470" y="350"/>
            <rect class="sink_point" height="20" opacity="0.2" width="20" x="510" y="350"/>
            <rect class="sink_point" height="20" opacity="0.2" width="20" x="550" y="350"/>
            <rect class="sink_point" height="20" opacity="0.2" width="20" x="590" y="350"/>
            <rect class="sink_point" height="20" opacity="0.2" width="20" x="630" y="350"/>
            <rect class="sink_point" height="20" opacity="0.2" width="20" x="10" y="350"/>
            <rect class="sink_point" height="20" opacity="0.2" width="20" x="650" y="350"/>
            <rect class="sink_point" height="20" opacity="0.2" width="20" x="30" y="390"/>
            <rect class="sink_point" height="20" opacity="0.2" width="20" x="70" y="390"/>
            <rect class="sink_point" height="20" opacity="0.2" width="20" x="110" y="390"/>
            <rect class="sink_point" height="20" opacity="0.2" width="20" x="150" y="390"/>
            <rect class="sink_point" height="20" opacity="0.2" width="20" x="190" y="390"/>
            <rect class="sink_point" height="20" opacity="0.2" width="20" x="230" y="390"/>
            <rect class="sink_point" height="20" opacity="0.2" width="20" x="270" y="390"/>
            <rect class="sink_point" height="20" opacity="0.2" width="20" x="310" y="390"/>
            <rect class="sink_point" height="20" opacity="0.2" width="20" x="350" y="390"/>
            <rect class="sink_point" height="20" opacity="0.2" width="20" x="390" y="390"/>
            <rect class="sink_point" height="20" opacity="0.2" width="20" x="430" y="390"/>
            <rect class="sink_point" height="20" opacity="0.2" width="20" x="470" y="390"/>
            <rect class="sink_point" height="20" opacity="0.2" width="20" x="510" y="390"/>
            <rect class="sink_point" height="20" opacity="0.2" width="20" x="550" y="390"/>
            <rect class="sink_point" height="20" opacity="0.2" width="20" x="590" y="390"/>
            <rect class="sink_point" height="20" opacity="0.2" width="20" x="630" y="390"/>
            <rect class="sink_point" height="20" opacity="0.2" width="20" x="10" y="390"/>
            <rect class="sink_point" height="20" opacity="0.2" width="20" x="650" y="390"/>
            <rect class="sink_point" height="20" opacity="0.2" width="20" x="30" y="430"/>
            <rect class="sink_point" height="20" opacity="0.2" width="20" x="70" y="430"/>
            <rect class="sink_point" height="20" opacity="0.2" width="20" x="110" y="430"/>
            <rect class="sink_point" height="20" opacity="0.2" width="20" x="150" y="430"/>
            <rect class="sink_point" height="20" opacity="0.2" width="20" x="190" y="430"/>
            <rect class="sink_point" height="20" opacity="0.2" width="20" x="230" y="430"/>
            <rect class="sink_point" height="20" opacity="0.2" width="20" x="270" y="430"/>
            <rect class="sink_point" height="20" opacity="0.2" width="20" x="310" y="430"/>
            <rect class="sink_point" height="20" opacity="0.2" width="20" x="350" y="430"/>
            <rect class="sink_point" height="20" opacity="0.2" width="20" x="390" y="430"/>
            <rect class="sink_point" height="20" opacity="0.2" width="20" x="430" y="430"/>
            <rect class="sink_point" height="20" opacity="0.2" width="20" x="470" y="430"/>
            <rect class="sink_point" height="20" opacity="0.2" width="20" x="510" y="430"/>
            <rect class="sink_point" height="20" opacity="0.2" width="20" x="550" y="430"/>
            <rect class="sink_point" height="20" opacity="0.2" width="20" x="590" y="430"/>
            <rect class="sink_point" height="20" opacity="0.2" width="20" x="630" y="430"/>
            <rect class="sink_point" height="20" opacity="0.2" width="20" x="10" y="430"/>
            <rect class="sink_point" height="20" opacity="0.2" width="20" x="650" y="430"/>
            <rect class="sink_point" height="20" opacity="0.2" width="20" x="30" y="470"/>
            <rect class="sink_point" height="20" opacity="0.2" width="20" x="70" y="470"/>
            <rect class="sink_point" height="20" opacity="0.2" width="20" x="110" y="470"/>
            <rect class="sink_point" height="20" opacity="0.2" width="20" x="150" y="470"/>
            <rect class="sink_point" height="20" opacity="0.2" width="20" x="190" y="470"/>
            <rect class="sink_point" height="20" opacity="0.2" width="20" x="230" y="470"/>
            <rect class="sink_point" height="20" opacity="0.2" width="20" x="270" y="470"/>
            <rect class="sink_point" height="20" opacity="0.2" width="20" x="310" y="470"/>
            <rect class="sink_point" height="20" opacity="0.2" width="20" x="350" y="470"/>
            <rect class="sink_point" height="20" opacity="0.2" width="20" x="390" y="470"/>
            <rect class="sink_point" height="20" opacity="0.2" width="20" x="430" y="470"/>
            <rect class="sink_point" height="20" opacity="0.2" width="20" x="470" y="470"/>
            <rect class="sink_point" height="20" opacity="0.2" width="20" x="510" y="470"/>
            <rect class="sink_point" height="20" opacity="0.2" width="20" x="550" y="470"/>
            <rect class="sink_point" height="20" opacity="0.2" width="20" x="590" y="470"/>
            <rect class="sink_point" height="20" opacity="0.2" width="20" x="630" y="470"/>
            <rect class="sink_point" height="20" opacity="0.2" width="20" x="10" y="470"/>
            <rect class="sink_point" height="20" opacity="0.2" width="20" x="650" y="470"/>
            <rect class="sink_point" height="20" opacity="0.2" width="20" x="30" y="510"/>
            <rect class="sink_point" height="20" opacity="0.2" width="20" x="70" y="510"/>
            <rect class="sink_point" height="20" opacity="0.2" width="20" x="110" y="510"/>
            <rect class="sink_point" height="20" opacity="0.2" width="20" x="150" y="510"/>
            <rect class="sink_point" height="20" opacity="0.2" width="20" x="190" y="510"/>
            <rect class="sink_point" height="20" opacity="0.2" width="20" x="230" y="510"/>
            <rect class="sink_point" height="20" opacity="0.2" width="20" x="270" y="510"/>
            <rect class="sink_point" height="20" opacity="0.2" width="20" x="310" y="510"/>
            <rect class="sink_point" height="20" opacity="0.2" width="20" x="350" y="510"/>
            <rect class="sink_point" height="20" opacity="0.2" width="20" x="390" y="510"/>
            <rect class="sink_point" height="20" opacity="0.2" width="20" x="430" y="510"/>
            <rect class="sink_point" height="20" opacity="0.2" width="20" x="470" y="510"/>
            <rect class="sink_point" height="20" opacity="0.2" width="20" x="510" y="510"/>
            <rect class="sink_point" height="20" opacity="0.2" width="20" x="550" y="510"/>
            <rect class="sink_point" height="20" opacity="0.2" width="20" x="590" y="510"/>
            <rect class="sink_point" height="20" opacity="0.2" width="20" x="630" y="510"/>
            <rect class="sink_point" height="20" opacity="0.2" width="20" x="10" y="510"/>
            <rect class="sink_point" height="20" opacity="0.2" width="20" x="650" y="510"/>
            <rect class="sink_point" height="20" opacity="0.2" width="20" x="30" y="550"/>
            <rect class="sink_point" height="20" opacity="0.2" width="20" x="70" y="550"/>
            <rect class="sink_point" height="20" opacity="0.2" width="20" x="110" y="550"/>
            <rect class="sink_point" height="20" opacity="0.2" width="20" x="150" y="550"/>
            <rect class="sink_point" height="20" opacity="0.2" width="20" x="190" y="550"/>
            <rect class="sink_point" height="20" opacity="0.2" width="20" x="230" y="550"/>
            <rect class="sink_point" height="20" opacity="0.2" width="20" x="270" y="550"/>
            <rect class="sink_point" height="20" opacity="0.2" width="20" x="310" y="550"/>
            <rect class="sink_point" height="20" opacity="0.2" width="20" x="350" y="550"/>
            <rect class="sink_point" height="20" opacity="0.2" width="20" x="390" y="550"/>
            <rect class="sink_point" height="20" opacity="0.2" width="20" x="430" y="550"/>
            <rect class="sink_point" height="20" opacity="0.2" width="20" x="470" y="550"/>
            <rect class="sink_point" height="20" opacity="0.2" width="20" x="510" y="550"/>
            <rect class="sink_point" height="20" opacity="0.2" width="20" x="550" y="550"/>
            <rect class="sink_point" height="20" opacity="0.2" width="20" x="590" y="550"/>
            <rect class="sink_point" height="20" opacity="0.2" width="20" x="630" y="550"/>
            <rect class="sink_point" height="20" opacity="0.2" width="20" x="10" y="550"/>
            <rect class="sink_point" height="20" opacity="0.2" width="20" x="650" y="550"/>
            <rect class="sink_point" height="20" opacity="0.2" width="20" x="30" y="590"/>
            <rect class="sink_point" height="20" opacity="0.2" width="20" x="70" y="590"/>
            <rect class="sink_point" height="20" opacity="0.2" width="20" x="110" y="590"/>
            <rect class="sink_point" height="20" opacity="0.2" width="20" x="150" y="590"/>
            <rect class="sink_point" height="20" opacity="0.2" width="20" x="190" y="590"/>
            <rect class="sink_point" height="20" opacity="0.2" width="20" x="230" y="590"/>
            <rect class="sink_point" height="20" opacity="0.2" width="20" x="270" y="590"/>
            <rect class="sink_point" height="20" opacity="0.2" width="20" x="310" y="590"/>
            <rect class="sink_point" height="20" opacity="0.2" width="20" x="350" y="590"/>
            <rect class="sink_point" height="20" opacity="0.2" width="20" x="390" y="590"/>
            <rect class="sink_point" height="20" opacity="0.2" width="20" x="430" y="590"/>
            <rect class="sink_point" height="20" opacity="0.2" width="20" x="470" y="590"/>
            <rect class="sink_point" height="20" opacity="0.2" width="20" x="510" y="590"/>
            <rect class="sink_point" height="20" opacity="0.2" width="20" x="550" y="590"/>
            <rect class="sink_point" height="20" opacity="0.2" width="20" x="590" y="590"/>
            <rect class="sink_point" height="20" opacity="0.2" width="20" x="630" y="590"/>
            <rect class="sink_point" height="20" opacity="0.2" width="20" x="10" y="590"/>
            <rect class="sink_point" height="20" opacity="0.2" width="20" x="650" y="590"/>
            <rect class="sink_point" height="20" opacity="0.2" width="20" x="30" y="630"/>
            <rect class="sink_point" height="20" opacity="0.2" width="20" x="70" y="630"/>
            <rect class="sink_point" height="20" opacity="0.2" width="20" x="110" y="630"/>
            <rect class="sink_point" height="20" opacity="0.2" width="20" x="150" y="630"/>
            <rect class="sink_point" height="20" opacity="0.2" width="20" x="190" y="630"/>
            <rect class="sink_point" height="20" opacity="0.2" width="20" x="230" y="630"/>
            <rect class="sink_point" height="20" opacity="0.2" width="20" x="270" y="630"/>
            <rect class="sink_point" height="20" opacity="0.2" width="20" x="310" y="630"/>
            <rect class="sink_point" height="20" opacity="0.2" width="20" x="350" y="630"/>
            <rect class="sink_point" height="20" opacity="0.2" width="20" x="390" y="630"/>
            <rect class="sink_point" height="20" opacity="0.2" width="20" x="430" y="630"/>
            <rect class="sink_point" height="20" opacity="0.2" width="20" x="470" y="630"/>
            <rect class="sink_point" height="20" opacity="0.2" width="20" x="510" y="630"/>
            <rect class="sink_point" height="20" opacity="0.2" width="20" x="550" y="630"/>
            <rect class="sink_point" height="20" opacity="0.2" width="20" x="590" y="630"/>
            <rect class="sink_point" height="20" opacity="0.2" width="20" x="630" y="630"/>
            <rect class="sink_point" height="20" opacity="0.2" width="20" x="10" y="630"/>
            <rect class="sink_point" height="20" opacity="0.2" width="20" x="650" y="630"/>
            <rect class="sink_point" height="20" opacity="0.2" width="20" x="30" y="10"/>
            <rect class="sink_point" height="20" opacity="0.2" width="20" x="70" y="10"/>
            <rect class="sink_point" height="20" opacity="0.2" width="20" x="110" y="10"/>
            <rect class="sink_point" height="20" opacity="0.2" width="20" x="150" y="10"/>
            <rect class="sink_point" height="20" opacity="0.2" width="20" x="190" y="10"/>
            <rect class="sink_point" height="20" opacity="0.2" width="20" x="230" y="10"/>
            <rect class="sink_point" height="20" opacity="0.2" width="20" x="270" y="10"/>
            <rect class="sink_point" height="20" opacity="0.2" width="20" x="310" y="10"/>
            <rect class="sink_point" height="20" opacity="0.2" width="20" x="350" y="10"/>
            <rect class="sink_point" height="20" opacity="0.2" width="20" x="390" y="10"/>
            <rect class="sink_point" height="20" opacity="0.2" width="20" x="430" y="10"/>
            <rect class="sink_point" height="20" opacity="0.2" width="20" x="470" y="10"/>
            <rect class="sink_point" height="20" opacity="0.2" width="20" x="510" y="10"/>
            <rect class="sink_point" height="20" opacity="0.2" width="20" x="550" y="10"/>
            <rect class="sink_point" height="20" opacity="0.2" width="20" x="590" y="10"/>
            <rect class="sink_point" height="20" opacity="0.2" width="20" x="630" y="10"/>
            <rect class="sink_point" height="20" opacity="0.2" width="20" x="30" y="650"/>
            <rect class="sink_point" height="20" opacity="0.2" width="20" x="70" y="650"/>
            <rect class="sink_point" height="20" opacity="0.2" width="20" x="110" y="650"/>
            <rect class="sink_point" height="20" opacity="0.2" width="20" x="150" y="650"/>
            <rect class="sink_point" height="20" opacity="0.2" width="20" x="190" y="650"/>
            <rect class="sink_point" height="20" opacity="0.2" width="20" x="230" y="650"/>
            <rect class="sink_point" height="20" opacity="0.2" width="20" x="270" y="650"/>
            <rect class="sink_point" height="20" opacity="0.2" width="20" x="310" y="650"/>
            <rect class="sink_point" height="20" opacity="0.2" width="20" x="350" y="650"/>
            <rect class="sink_point" height="20" opacity="0.2" width="20" x="390" y="650"/>
            <rect class="sink_point" height="20" opacity="0.2" width="20" x="430" y="650"/>
            <rect class="sink_point" height="20" opacity="0.2" width="20" x="470" y="650"/>
            <rect class="sink_point" height="20" opacity="0.2" width="20" x="510" y="650"/>
            <rect class="sink_point" height="20" opacity="0.2" width="20" x="550" y="650"/>
            <rect class="sink_point" height="20" opacity="0.2" width="20" x="590" y="650"/>
            <rect class="sink_point" height="20" opacity="0.2" width="20" x="630" y="650"/>
        </g>
    </g>
</svg>
