<svg xmlns="http://www.w3.org/2000/svg" xmlns:xlink="http://www.w3.org/1999/xlink" xmlns:s="https://github.com/nturley/netlistsvg" width="1092" height="265.5"><style>svg {
  stroke:#000;
  fill:none;
}
text {
  fill:#000;
  stroke:none;
  font-size:10px;
  font-weight: bold;
  font-family: "Courier New", monospace;
}
line {
    stroke-linecap: round;
}
.nodelabel {
  text-anchor: middle;
}
.inputPortLabel {
  text-anchor: end;
}
.splitjoinBody {
  fill:#000;
}</style><g s:type="generic" transform="translate(247,53)" s:width="30" s:height="40" id="cell_inst_1_11"><text x="15" y="-4" class="nodelabel cell_inst_1_11" s:attribute="ref">inst_1_11</text><rect width="30" height="60" s:generic="body" fill="#ffffff" rx="0" class="cell_inst_1_11"/><g transform="translate(0,10)" s:x="0" s:y="10" s:pid="in0" id="port_inst_1_11~a_in_ft_in"><text x="-3" y="-4" class="inputPortLabel cell_inst_1_11">a_in_ft_in</text></g><g transform="translate(0,30)" s:x="0" s:y="10" s:pid="in0" id="port_inst_1_11~in0"><text x="-3" y="-4" class="inputPortLabel cell_inst_1_11">in0</text></g><g transform="translate(0,50)" s:x="0" s:y="10" s:pid="in0" id="port_inst_1_11~in1"><text x="-3" y="-4" class="inputPortLabel cell_inst_1_11">in1</text></g><g transform="translate(30,10)" s:x="30" s:y="10" s:pid="out0" id="port_inst_1_11~a_in_ft_out"><text x="5" y="-4" style="fill:#000; stroke:none" class="cell_inst_1_11">a_in_ft_out</text></g><g transform="translate(30,30)" s:x="30" s:y="10" s:pid="out0" id="port_inst_1_11~out0"><text x="5" y="-4" style="fill:#000; stroke:none" class="cell_inst_1_11">out0</text></g><g transform="translate(30,50)" s:x="30" s:y="10" s:pid="out0" id="port_inst_1_11~out1"><text x="5" y="-4" style="fill:#000; stroke:none" class="cell_inst_1_11">out1</text></g></g><g s:type="generic" transform="translate(247,190.5)" s:width="30" s:height="40" id="cell_inst_1_12"><text x="15" y="-4" class="nodelabel cell_inst_1_12" s:attribute="ref">inst_1_12</text><rect width="30" height="60" s:generic="body" fill="#ffffff" rx="0" class="cell_inst_1_12"/><g transform="translate(0,10)" s:x="0" s:y="10" s:pid="in0" id="port_inst_1_12~a_in_ft_in"><text x="-3" y="-4" class="inputPortLabel cell_inst_1_12">a_in_ft_in</text></g><g transform="translate(0,30)" s:x="0" s:y="10" s:pid="in0" id="port_inst_1_12~in0"><text x="-3" y="-4" class="inputPortLabel cell_inst_1_12">in0</text></g><g transform="translate(0,50)" s:x="0" s:y="10" s:pid="in0" id="port_inst_1_12~in1"><text x="-3" y="-4" class="inputPortLabel cell_inst_1_12">in1</text></g><g transform="translate(30,10)" s:x="30" s:y="10" s:pid="out0" id="port_inst_1_12~a_in_ft_out"><text x="5" y="-4" style="fill:#000; stroke:none" class="cell_inst_1_12">a_in_ft_out</text></g><g transform="translate(30,30)" s:x="30" s:y="10" s:pid="out0" id="port_inst_1_12~out0"><text x="5" y="-4" style="fill:#000; stroke:none" class="cell_inst_1_12">out0</text></g><g transform="translate(30,50)" s:x="30" s:y="10" s:pid="out0" id="port_inst_1_12~out1"><text x="5" y="-4" style="fill:#000; stroke:none" class="cell_inst_1_12">out1</text></g></g><g s:type="generic" transform="translate(635,53)" s:width="30" s:height="40" id="cell_inst_1_21"><text x="15" y="-4" class="nodelabel cell_inst_1_21" s:attribute="ref">inst_1_21</text><rect width="30" height="60" s:generic="body" fill="#ffffff" rx="0" class="cell_inst_1_21"/><g transform="translate(0,10)" s:x="0" s:y="10" s:pid="in0" id="port_inst_1_21~a_in_ft_in"><text x="-3" y="-4" class="inputPortLabel cell_inst_1_21">a_in_ft_in</text></g><g transform="translate(0,30)" s:x="0" s:y="10" s:pid="in0" id="port_inst_1_21~in0"><text x="-3" y="-4" class="inputPortLabel cell_inst_1_21">in0</text></g><g transform="translate(0,50)" s:x="0" s:y="10" s:pid="in0" id="port_inst_1_21~in1"><text x="-3" y="-4" class="inputPortLabel cell_inst_1_21">in1</text></g><g transform="translate(30,10)" s:x="30" s:y="10" s:pid="out0" id="port_inst_1_21~a_in_ft_out"><text x="5" y="-4" style="fill:#000; stroke:none" class="cell_inst_1_21">a_in_ft_out</text></g><g transform="translate(30,30)" s:x="30" s:y="10" s:pid="out0" id="port_inst_1_21~out0"><text x="5" y="-4" style="fill:#000; stroke:none" class="cell_inst_1_21">out0</text></g><g transform="translate(30,50)" s:x="30" s:y="10" s:pid="out0" id="port_inst_1_21~out1"><text x="5" y="-4" style="fill:#000; stroke:none" class="cell_inst_1_21">out1</text></g></g><g s:type="generic" transform="translate(635,190.5)" s:width="30" s:height="40" id="cell_inst_1_22"><text x="15" y="-4" class="nodelabel cell_inst_1_22" s:attribute="ref">inst_1_22</text><rect width="30" height="60" s:generic="body" fill="#ffffff" rx="0" class="cell_inst_1_22"/><g transform="translate(0,10)" s:x="0" s:y="10" s:pid="in0" id="port_inst_1_22~a_in_ft_in"><text x="-3" y="-4" class="inputPortLabel cell_inst_1_22">a_in_ft_in</text></g><g transform="translate(0,30)" s:x="0" s:y="10" s:pid="in0" id="port_inst_1_22~in0"><text x="-3" y="-4" class="inputPortLabel cell_inst_1_22">in0</text></g><g transform="translate(0,50)" s:x="0" s:y="10" s:pid="in0" id="port_inst_1_22~in1"><text x="-3" y="-4" class="inputPortLabel cell_inst_1_22">in1</text></g><g transform="translate(30,10)" s:x="30" s:y="10" s:pid="out0" id="port_inst_1_22~a_in_ft_out"><text x="5" y="-4" style="fill:#000; stroke:none" class="cell_inst_1_22">a_in_ft_out</text></g><g transform="translate(30,30)" s:x="30" s:y="10" s:pid="out0" id="port_inst_1_22~out0"><text x="5" y="-4" style="fill:#000; stroke:none" class="cell_inst_1_22">out0</text></g><g transform="translate(30,50)" s:x="30" s:y="10" s:pid="out0" id="port_inst_1_22~out1"><text x="5" y="-4" style="fill:#000; stroke:none" class="cell_inst_1_22">out1</text></g></g><g s:type="generic" transform="translate(441,53)" s:width="30" s:height="40" id="cell_inst_2_11"><text x="15" y="-4" class="nodelabel cell_inst_2_11" s:attribute="ref">inst_2_11</text><rect width="30" height="60" s:generic="body" fill="#ffffff" rx="0" class="cell_inst_2_11"/><g transform="translate(0,10)" s:x="0" s:y="10" s:pid="in0" id="port_inst_2_11~a_in_ft_in"><text x="-3" y="-4" class="inputPortLabel cell_inst_2_11">a_in_ft_in</text></g><g transform="translate(0,30)" s:x="0" s:y="10" s:pid="in0" id="port_inst_2_11~in0"><text x="-3" y="-4" class="inputPortLabel cell_inst_2_11">in0</text></g><g transform="translate(0,50)" s:x="0" s:y="10" s:pid="in0" id="port_inst_2_11~in1"><text x="-3" y="-4" class="inputPortLabel cell_inst_2_11">in1</text></g><g transform="translate(30,10)" s:x="30" s:y="10" s:pid="out0" id="port_inst_2_11~a_in_ft_out"><text x="5" y="-4" style="fill:#000; stroke:none" class="cell_inst_2_11">a_in_ft_out</text></g><g transform="translate(30,30)" s:x="30" s:y="10" s:pid="out0" id="port_inst_2_11~out0"><text x="5" y="-4" style="fill:#000; stroke:none" class="cell_inst_2_11">out0</text></g><g transform="translate(30,50)" s:x="30" s:y="10" s:pid="out0" id="port_inst_2_11~out1"><text x="5" y="-4" style="fill:#000; stroke:none" class="cell_inst_2_11">out1</text></g></g><g s:type="generic" transform="translate(441,190.5)" s:width="30" s:height="40" id="cell_inst_2_12"><text x="15" y="-4" class="nodelabel cell_inst_2_12" s:attribute="ref">inst_2_12</text><rect width="30" height="60" s:generic="body" fill="#ffffff" rx="0" class="cell_inst_2_12"/><g transform="translate(0,10)" s:x="0" s:y="10" s:pid="in0" id="port_inst_2_12~a_in_ft_in"><text x="-3" y="-4" class="inputPortLabel cell_inst_2_12">a_in_ft_in</text></g><g transform="translate(0,30)" s:x="0" s:y="10" s:pid="in0" id="port_inst_2_12~in0"><text x="-3" y="-4" class="inputPortLabel cell_inst_2_12">in0</text></g><g transform="translate(0,50)" s:x="0" s:y="10" s:pid="in0" id="port_inst_2_12~in1"><text x="-3" y="-4" class="inputPortLabel cell_inst_2_12">in1</text></g><g transform="translate(30,10)" s:x="30" s:y="10" s:pid="out0" id="port_inst_2_12~a_in_ft_out"><text x="5" y="-4" style="fill:#000; stroke:none" class="cell_inst_2_12">a_in_ft_out</text></g><g transform="translate(30,30)" s:x="30" s:y="10" s:pid="out0" id="port_inst_2_12~out0"><text x="5" y="-4" style="fill:#000; stroke:none" class="cell_inst_2_12">out0</text></g><g transform="translate(30,50)" s:x="30" s:y="10" s:pid="out0" id="port_inst_2_12~out1"><text x="5" y="-4" style="fill:#000; stroke:none" class="cell_inst_2_12">out1</text></g></g><g s:type="generic" transform="translate(829,53)" s:width="30" s:height="40" id="cell_inst_2_21"><text x="15" y="-4" class="nodelabel cell_inst_2_21" s:attribute="ref">inst_2_21</text><rect width="30" height="60" s:generic="body" fill="#ffffff" rx="0" class="cell_inst_2_21"/><g transform="translate(0,10)" s:x="0" s:y="10" s:pid="in0" id="port_inst_2_21~a_in_ft_in"><text x="-3" y="-4" class="inputPortLabel cell_inst_2_21">a_in_ft_in</text></g><g transform="translate(0,30)" s:x="0" s:y="10" s:pid="in0" id="port_inst_2_21~in0"><text x="-3" y="-4" class="inputPortLabel cell_inst_2_21">in0</text></g><g transform="translate(0,50)" s:x="0" s:y="10" s:pid="in0" id="port_inst_2_21~in1"><text x="-3" y="-4" class="inputPortLabel cell_inst_2_21">in1</text></g><g transform="translate(30,10)" s:x="30" s:y="10" s:pid="out0" id="port_inst_2_21~a_in_ft_out"><text x="5" y="-4" style="fill:#000; stroke:none" class="cell_inst_2_21">a_in_ft_out</text></g><g transform="translate(30,30)" s:x="30" s:y="10" s:pid="out0" id="port_inst_2_21~out0"><text x="5" y="-4" style="fill:#000; stroke:none" class="cell_inst_2_21">out0</text></g><g transform="translate(30,50)" s:x="30" s:y="10" s:pid="out0" id="port_inst_2_21~out1"><text x="5" y="-4" style="fill:#000; stroke:none" class="cell_inst_2_21">out1</text></g></g><g s:type="generic" transform="translate(829,190.5)" s:width="30" s:height="40" id="cell_inst_2_22"><text x="15" y="-4" class="nodelabel cell_inst_2_22" s:attribute="ref">inst_2_22</text><rect width="30" height="60" s:generic="body" fill="#ffffff" rx="0" class="cell_inst_2_22"/><g transform="translate(0,10)" s:x="0" s:y="10" s:pid="in0" id="port_inst_2_22~a_in_ft_in"><text x="-3" y="-4" class="inputPortLabel cell_inst_2_22">a_in_ft_in</text></g><g transform="translate(0,30)" s:x="0" s:y="10" s:pid="in0" id="port_inst_2_22~in0"><text x="-3" y="-4" class="inputPortLabel cell_inst_2_22">in0</text></g><g transform="translate(0,50)" s:x="0" s:y="10" s:pid="in0" id="port_inst_2_22~in1"><text x="-3" y="-4" class="inputPortLabel cell_inst_2_22">in1</text></g><g transform="translate(30,10)" s:x="30" s:y="10" s:pid="out0" id="port_inst_2_22~a_in_ft_out"><text x="5" y="-4" style="fill:#000; stroke:none" class="cell_inst_2_22">a_in_ft_out</text></g><g transform="translate(30,30)" s:x="30" s:y="10" s:pid="out0" id="port_inst_2_22~out0"><text x="5" y="-4" style="fill:#000; stroke:none" class="cell_inst_2_22">out0</text></g><g transform="translate(30,50)" s:x="30" s:y="10" s:pid="out0" id="port_inst_2_22~out1"><text x="5" y="-4" style="fill:#000; stroke:none" class="cell_inst_2_22">out1</text></g></g><g s:type="inputExt" transform="translate(12,201)" s:width="30" s:height="20" id="cell_in"><text x="15" y="-4" class="nodelabel cell_in" s:attribute="ref">in</text><s:alias val="$_inputExt_"/><path d="M0,0 L0,20 L15,20 L30,10 L15,0 Z" fill="#ffffff" class="cell_in"/><g s:x="30" s:y="10" s:pid="Y"/></g><g s:type="outputExt" transform="translate(1050,181)" s:width="30" s:height="20" id="cell_out"><text x="15" y="-4" class="nodelabel cell_out" s:attribute="ref">out</text><s:alias val="$_outputExt_"/><path d="M30,0 L30,20 L15,20 L0,10 L15,0 Z" fill="#ffffff" class="cell_out"/><g s:x="0" s:y="10" s:pid="A"/></g><g s:type="inputExt" transform="translate(116,50.5)" s:width="30" s:height="20" id="cell_a_in"><text x="15" y="-4" class="nodelabel cell_a_in" s:attribute="ref">a_in</text><s:alias val="$_inputExt_"/><path d="M0,0 L0,20 L15,20 L30,10 L15,0 Z" fill="#ffffff" class="cell_a_in"/><g s:x="30" s:y="10" s:pid="Y"/></g><g s:type="outputExt" transform="translate(1050,22)" s:width="30" s:height="20" id="cell_a_out"><text x="15" y="-4" class="nodelabel cell_a_out" s:attribute="ref">a_out</text><s:alias val="$_outputExt_"/><path d="M30,0 L30,20 L15,20 L0,10 L15,0 Z" fill="#ffffff" class="cell_a_out"/><g s:x="0" s:y="10" s:pid="A"/></g><g s:type="inputExt" transform="translate(116,115.5)" s:width="30" s:height="20" id="cell_b_in"><text x="15" y="-4" class="nodelabel cell_b_in" s:attribute="ref">b_in</text><s:alias val="$_inputExt_"/><path d="M0,0 L0,20 L15,20 L30,10 L15,0 Z" fill="#ffffff" class="cell_b_in"/><g s:x="30" s:y="10" s:pid="Y"/></g><g s:type="outputExt" transform="translate(1050,116)" s:width="30" s:height="20" id="cell_b_out"><text x="15" y="-4" class="nodelabel cell_b_out" s:attribute="ref">b_out</text><s:alias val="$_outputExt_"/><path d="M30,0 L30,20 L15,20 L0,10 L15,0 Z" fill="#ffffff" class="cell_b_out"/><g s:x="0" s:y="10" s:pid="A"/></g><g s:type="join" transform="translate(970,150.5)" s:width="5" s:height="40" id="cell_$join$,6,7,8,9,"><rect width="5" height="80" class="splitjoinBody" s:generic="body"/><s:alias val="$_join_"/><g s:x="5" s:y="20" s:pid="out"/><g transform="translate(-1,10)" s:x="-1" s:y="10" s:pid="in0"><text x="-3" y="-4" class="inputPortLabel">0</text></g><g transform="translate(-1,30)" s:x="-1" s:y="10" s:pid="in0"><text x="-3" y="-4" class="inputPortLabel">1</text></g><g transform="translate(-1,50)" s:x="-1" s:y="10" s:pid="in0"><text x="-3" y="-4" class="inputPortLabel">2</text></g><g transform="translate(-1,70)" s:x="-1" s:y="10" s:pid="in0"><text x="-3" y="-4" class="inputPortLabel">3</text></g></g><g s:type="split" transform="translate(131.2,170.5)" s:width="5" s:height="40" id="cell_$split$,2,3,4,5,"><rect width="5" height="80" class="splitjoinBody" s:generic="body"/><s:alias val="$_split_"/><g s:x="-1" s:y="20" s:pid="in"/><g transform="translate(5,10)" s:x="5" s:y="10" s:pid="out0"><text x="5" y="-4">1</text></g><g transform="translate(5,30)" s:x="5" s:y="10" s:pid="out0"><text x="5" y="-4">0</text></g><g transform="translate(5,50)" s:x="5" s:y="10" s:pid="out0"><text x="5" y="-4">3</text></g><g transform="translate(5,70)" s:x="5" s:y="10" s:pid="out0"><text x="5" y="-4">2</text></g></g><line x1="146" x2="156" y1="60.5" y2="60.5" class="net_10 width_1" style="stroke-width: 1"/><line x1="156" x2="156" y1="60.5" y2="63.5" class="net_10 width_1" style="stroke-width: 1"/><line x1="156" x2="247" y1="63.5" y2="63.5" class="net_10 width_1" style="stroke-width: 1"/><line x1="137.2" x2="156" y1="181" y2="181" class="net_3 width_1" style="stroke-width: 1"/><line x1="156" x2="156" y1="181" y2="83.5" class="net_3 width_1" style="stroke-width: 1"/><line x1="156" x2="246" y1="83.5" y2="83.5" class="net_3 width_1" style="stroke-width: 1"/><line x1="137.2" x2="166" y1="201" y2="201" class="net_2 width_1" style="stroke-width: 1"/><line x1="166" x2="166" y1="201" y2="103.5" class="net_2 width_1" style="stroke-width: 1"/><line x1="166" x2="246" y1="103.5" y2="103.5" class="net_2 width_1" style="stroke-width: 1"/><line x1="146" x2="176" y1="125.5" y2="125.5" class="net_12 width_1" style="stroke-width: 1"/><line x1="176" x2="176" y1="125.5" y2="201" class="net_12 width_1" style="stroke-width: 1"/><line x1="176" x2="247" y1="201" y2="201" class="net_12 width_1" style="stroke-width: 1"/><line x1="137.2" x2="246" y1="221" y2="221" class="net_5 width_1" style="stroke-width: 1"/><line x1="137.2" x2="246" y1="241" y2="241" class="net_4 width_1" style="stroke-width: 1"/><line x1="472" x2="634" y1="83.5" y2="83.5" class="net_22 width_1" style="stroke-width: 1"/><line x1="472" x2="634" y1="103.5" y2="103.5" class="net_23 width_1" style="stroke-width: 1"/><line x1="472" x2="634" y1="221" y2="221" class="net_28 width_1" style="stroke-width: 1"/><line x1="472" x2="634" y1="241" y2="241" class="net_29 width_1" style="stroke-width: 1"/><line x1="278" x2="440" y1="83.5" y2="83.5" class="net_15 width_1" style="stroke-width: 1"/><line x1="278" x2="440" y1="103.5" y2="103.5" class="net_16 width_1" style="stroke-width: 1"/><line x1="278" x2="440" y1="221" y2="221" class="net_18 width_1" style="stroke-width: 1"/><line x1="278" x2="440" y1="241" y2="241" class="net_19 width_1" style="stroke-width: 1"/><line x1="666" x2="828" y1="83.5" y2="83.5" class="net_24 width_1" style="stroke-width: 1"/><line x1="666" x2="828" y1="103.5" y2="103.5" class="net_25 width_1" style="stroke-width: 1"/><line x1="666" x2="828" y1="221" y2="221" class="net_30 width_1" style="stroke-width: 1"/><line x1="666" x2="828" y1="241" y2="241" class="net_31 width_1" style="stroke-width: 1"/><line x1="976" x2="1050" y1="191" y2="191" class="net_6,7,8,9 width_4" style="stroke-width: 2"/><line x1="472" x2="549" y1="63.5" y2="63.5" class="net_11 width_1" style="stroke-width: 1"/><line x1="549" x2="549" y1="63.5" y2="32" class="net_11 width_1" style="stroke-width: 1"/><line x1="549" x2="1050" y1="32" y2="32" class="net_11 width_1" style="stroke-width: 1"/><line x1="472" x2="549" y1="201" y2="201" class="net_13 width_1" style="stroke-width: 1"/><line x1="549" x2="549" y1="201" y2="126" class="net_13 width_1" style="stroke-width: 1"/><line x1="549" x2="1050" y1="126" y2="126" class="net_13 width_1" style="stroke-width: 1"/><line x1="860" x2="937" y1="103.5" y2="103.5" class="net_6 width_1" style="stroke-width: 1"/><line x1="937" x2="937" y1="103.5" y2="161" class="net_6 width_1" style="stroke-width: 1"/><line x1="937" x2="969" y1="161" y2="161" class="net_6 width_1" style="stroke-width: 1"/><line x1="860" x2="947" y1="83.5" y2="83.5" class="net_7 width_1" style="stroke-width: 1"/><line x1="947" x2="947" y1="83.5" y2="181" class="net_7 width_1" style="stroke-width: 1"/><line x1="947" x2="969" y1="181" y2="181" class="net_7 width_1" style="stroke-width: 1"/><line x1="860" x2="937" y1="241" y2="241" class="net_8 width_1" style="stroke-width: 1"/><line x1="937" x2="937" y1="241" y2="201" class="net_8 width_1" style="stroke-width: 1"/><line x1="937" x2="969" y1="201" y2="201" class="net_8 width_1" style="stroke-width: 1"/><line x1="860" x2="969" y1="221" y2="221" class="net_9 width_1" style="stroke-width: 1"/><line x1="42" x2="130.2" y1="211" y2="211" class="net_2,3,4,5 width_4" style="stroke-width: 2"/><rect x="1012" y="186" width="16" height="9" class="net_6,7,8,9 width_4 busLabel_4" style="fill: white; stroke: none"/><text x="1011" y="194" class="net_6,7,8,9 width_4 busLabel_4">/4/</text><rect x="78" y="206" width="16" height="9" class="net_2,3,4,5 width_4 busLabel_4" style="fill: white; stroke: none"/><text x="77" y="214" class="net_2,3,4,5 width_4 busLabel_4">/4/</text></svg>