<svg xmlns="http://www.w3.org/2000/svg" xmlns:xlink="http://www.w3.org/1999/xlink" xmlns:s="https://github.com/nturley/netlistsvg" width="992" height="330.5"><style>    svg {
    stroke:green;
    fill:none;
    }
    text {
    fill:blue;
    stroke:none;
    font-size:10px;
    font-weight: bold;
    font-family: "Courier New", monospace;
    }
    line {
    stroke-linecap: round;
    }
    .nodelabel {
    text-anchor: middle;
    }
    .inputPortLabel {
    text-anchor: end;
    }
    .splitjoinBody {
    fill:green;
    }</style><g s:type="sub_odd" transform="translate(248,53)" s:width="30" s:height="40" id="cell_inst_1_11"><text x="2" y="-4" class="nodelabel cell_inst_1_11" s:attribute="ref">inst_1_11</text><rect width="4" height="103" s:generic="body" fill="#e9e9e9" rx="4" class="cell_inst_1_11"/><line x1="0" x2="12" y1="12.5" y2="12.5" class="net_6"/><line x1="12" x2="4" y1="12.5" y2="12.5" class="net_6"/><g transform="translate(-1,12)" s:x="0" s:y="10" s:pid="in0" id="port_inst_1_11~a_in_ft_in"><text x="-3" y="-4" class="inputPortLabel cell_inst_1_11">a_in_ft_in</text></g><g transform="translate(-1,45)" s:x="0" s:y="10" s:pid="in0" id="port_inst_1_11~in0"><text x="-3" y="-4" class="inputPortLabel cell_inst_1_11">in0</text></g><g transform="translate(-1,78)" s:x="0" s:y="10" s:pid="in0" id="port_inst_1_11~in1"><text x="-3" y="-4" class="inputPortLabel cell_inst_1_11">in1</text></g><g transform="translate(4,12)" s:x="30" s:y="10" s:pid="out0" id="port_inst_1_11~a_in_ft_out"><text x="5" y="-4" style="stroke:none" class="cell_inst_1_11">a_in_ft_out</text></g><g transform="translate(4,45)" s:x="30" s:y="10" s:pid="out0" id="port_inst_1_11~out0"><text x="5" y="-4" style="stroke:none" class="cell_inst_1_11">out0</text></g><g transform="translate(4,78)" s:x="30" s:y="10" s:pid="out0" id="port_inst_1_11~out1"><text x="5" y="-4" style="stroke:none" class="cell_inst_1_11">out1</text></g></g><g s:type="sub_odd" transform="translate(248,215.5)" s:width="30" s:height="40" id="cell_inst_1_12"><text x="2" y="-4" class="nodelabel cell_inst_1_12" s:attribute="ref">inst_1_12</text><rect width="4" height="103" s:generic="body" fill="#e9e9e9" rx="4" class="cell_inst_1_12"/><line x1="0" x2="12" y1="12.5" y2="12.5" class="net_6"/><line x1="12" x2="4" y1="12.5" y2="12.5" class="net_6"/><g transform="translate(-1,12)" s:x="0" s:y="10" s:pid="in0" id="port_inst_1_12~a_in_ft_in"><text x="-3" y="-4" class="inputPortLabel cell_inst_1_12">a_in_ft_in</text></g><g transform="translate(-1,45)" s:x="0" s:y="10" s:pid="in0" id="port_inst_1_12~in0"><text x="-3" y="-4" class="inputPortLabel cell_inst_1_12">in0</text></g><g transform="translate(-1,78)" s:x="0" s:y="10" s:pid="in0" id="port_inst_1_12~in1"><text x="-3" y="-4" class="inputPortLabel cell_inst_1_12">in1</text></g><g transform="translate(4,12)" s:x="30" s:y="10" s:pid="out0" id="port_inst_1_12~a_in_ft_out"><text x="5" y="-4" style="stroke:none" class="cell_inst_1_12">a_in_ft_out</text></g><g transform="translate(4,45)" s:x="30" s:y="10" s:pid="out0" id="port_inst_1_12~out0"><text x="5" y="-4" style="stroke:none" class="cell_inst_1_12">out0</text></g><g transform="translate(4,78)" s:x="30" s:y="10" s:pid="out0" id="port_inst_1_12~out1"><text x="5" y="-4" style="stroke:none" class="cell_inst_1_12">out1</text></g></g><g s:type="sub_odd" transform="translate(586,53)" s:width="30" s:height="40" id="cell_inst_1_21"><text x="2" y="-4" class="nodelabel cell_inst_1_21" s:attribute="ref">inst_1_21</text><rect width="4" height="103" s:generic="body" fill="#e9e9e9" rx="4" class="cell_inst_1_21"/><line x1="0" x2="12" y1="12.5" y2="12.5" class="net_6"/><line x1="12" x2="4" y1="12.5" y2="12.5" class="net_6"/><g transform="translate(-1,12)" s:x="0" s:y="10" s:pid="in0" id="port_inst_1_21~a_in_ft_in"><text x="-3" y="-4" class="inputPortLabel cell_inst_1_21">a_in_ft_in</text></g><g transform="translate(-1,45)" s:x="0" s:y="10" s:pid="in0" id="port_inst_1_21~in0"><text x="-3" y="-4" class="inputPortLabel cell_inst_1_21">in0</text></g><g transform="translate(-1,78)" s:x="0" s:y="10" s:pid="in0" id="port_inst_1_21~in1"><text x="-3" y="-4" class="inputPortLabel cell_inst_1_21">in1</text></g><g transform="translate(4,12)" s:x="30" s:y="10" s:pid="out0" id="port_inst_1_21~a_in_ft_out"><text x="5" y="-4" style="stroke:none" class="cell_inst_1_21">a_in_ft_out</text></g><g transform="translate(4,45)" s:x="30" s:y="10" s:pid="out0" id="port_inst_1_21~out0"><text x="5" y="-4" style="stroke:none" class="cell_inst_1_21">out0</text></g><g transform="translate(4,78)" s:x="30" s:y="10" s:pid="out0" id="port_inst_1_21~out1"><text x="5" y="-4" style="stroke:none" class="cell_inst_1_21">out1</text></g></g><g s:type="sub_odd" transform="translate(586,215.5)" s:width="30" s:height="40" id="cell_inst_1_22"><text x="2" y="-4" class="nodelabel cell_inst_1_22" s:attribute="ref">inst_1_22</text><rect width="4" height="103" s:generic="body" fill="#e9e9e9" rx="4" class="cell_inst_1_22"/><line x1="0" x2="12" y1="12.5" y2="12.5" class="net_6"/><line x1="12" x2="4" y1="12.5" y2="12.5" class="net_6"/><g transform="translate(-1,12)" s:x="0" s:y="10" s:pid="in0" id="port_inst_1_22~a_in_ft_in"><text x="-3" y="-4" class="inputPortLabel cell_inst_1_22">a_in_ft_in</text></g><g transform="translate(-1,45)" s:x="0" s:y="10" s:pid="in0" id="port_inst_1_22~in0"><text x="-3" y="-4" class="inputPortLabel cell_inst_1_22">in0</text></g><g transform="translate(-1,78)" s:x="0" s:y="10" s:pid="in0" id="port_inst_1_22~in1"><text x="-3" y="-4" class="inputPortLabel cell_inst_1_22">in1</text></g><g transform="translate(4,12)" s:x="30" s:y="10" s:pid="out0" id="port_inst_1_22~a_in_ft_out"><text x="5" y="-4" style="stroke:none" class="cell_inst_1_22">a_in_ft_out</text></g><g transform="translate(4,45)" s:x="30" s:y="10" s:pid="out0" id="port_inst_1_22~out0"><text x="5" y="-4" style="stroke:none" class="cell_inst_1_22">out0</text></g><g transform="translate(4,78)" s:x="30" s:y="10" s:pid="out0" id="port_inst_1_22~out1"><text x="5" y="-4" style="stroke:none" class="cell_inst_1_22">out1</text></g></g><g s:type="sub_odd" transform="translate(417,53)" s:width="30" s:height="40" id="cell_inst_2_11"><text x="2" y="-4" class="nodelabel cell_inst_2_11" s:attribute="ref">inst_2_11</text><rect width="4" height="103" s:generic="body" fill="#e9e9e9" rx="4" class="cell_inst_2_11"/><line x1="0" x2="12" y1="12.5" y2="12.5" class="net_6"/><line x1="12" x2="4" y1="12.5" y2="12.5" class="net_6"/><g transform="translate(-1,12)" s:x="0" s:y="10" s:pid="in0" id="port_inst_2_11~a_in_ft_in"><text x="-3" y="-4" class="inputPortLabel cell_inst_2_11">a_in_ft_in</text></g><g transform="translate(-1,45)" s:x="0" s:y="10" s:pid="in0" id="port_inst_2_11~in0"><text x="-3" y="-4" class="inputPortLabel cell_inst_2_11">in0</text></g><g transform="translate(-1,78)" s:x="0" s:y="10" s:pid="in0" id="port_inst_2_11~in1"><text x="-3" y="-4" class="inputPortLabel cell_inst_2_11">in1</text></g><g transform="translate(4,12)" s:x="30" s:y="10" s:pid="out0" id="port_inst_2_11~a_in_ft_out"><text x="5" y="-4" style="stroke:none" class="cell_inst_2_11">a_in_ft_out</text></g><g transform="translate(4,45)" s:x="30" s:y="10" s:pid="out0" id="port_inst_2_11~out0"><text x="5" y="-4" style="stroke:none" class="cell_inst_2_11">out0</text></g><g transform="translate(4,78)" s:x="30" s:y="10" s:pid="out0" id="port_inst_2_11~out1"><text x="5" y="-4" style="stroke:none" class="cell_inst_2_11">out1</text></g></g><g s:type="sub_odd" transform="translate(417,215.5)" s:width="30" s:height="40" id="cell_inst_2_12"><text x="2" y="-4" class="nodelabel cell_inst_2_12" s:attribute="ref">inst_2_12</text><rect width="4" height="103" s:generic="body" fill="#e9e9e9" rx="4" class="cell_inst_2_12"/><line x1="0" x2="12" y1="12.5" y2="12.5" class="net_6"/><line x1="12" x2="4" y1="12.5" y2="12.5" class="net_6"/><g transform="translate(-1,12)" s:x="0" s:y="10" s:pid="in0" id="port_inst_2_12~a_in_ft_in"><text x="-3" y="-4" class="inputPortLabel cell_inst_2_12">a_in_ft_in</text></g><g transform="translate(-1,45)" s:x="0" s:y="10" s:pid="in0" id="port_inst_2_12~in0"><text x="-3" y="-4" class="inputPortLabel cell_inst_2_12">in0</text></g><g transform="translate(-1,78)" s:x="0" s:y="10" s:pid="in0" id="port_inst_2_12~in1"><text x="-3" y="-4" class="inputPortLabel cell_inst_2_12">in1</text></g><g transform="translate(4,12)" s:x="30" s:y="10" s:pid="out0" id="port_inst_2_12~a_in_ft_out"><text x="5" y="-4" style="stroke:none" class="cell_inst_2_12">a_in_ft_out</text></g><g transform="translate(4,45)" s:x="30" s:y="10" s:pid="out0" id="port_inst_2_12~out0"><text x="5" y="-4" style="stroke:none" class="cell_inst_2_12">out0</text></g><g transform="translate(4,78)" s:x="30" s:y="10" s:pid="out0" id="port_inst_2_12~out1"><text x="5" y="-4" style="stroke:none" class="cell_inst_2_12">out1</text></g></g><g s:type="sub_odd" transform="translate(755,53)" s:width="30" s:height="40" id="cell_inst_2_21"><text x="2" y="-4" class="nodelabel cell_inst_2_21" s:attribute="ref">inst_2_21</text><rect width="4" height="103" s:generic="body" fill="#e9e9e9" rx="4" class="cell_inst_2_21"/><line x1="0" x2="12" y1="12.5" y2="12.5" class="net_6"/><line x1="12" x2="4" y1="12.5" y2="12.5" class="net_6"/><g transform="translate(-1,12)" s:x="0" s:y="10" s:pid="in0" id="port_inst_2_21~a_in_ft_in"><text x="-3" y="-4" class="inputPortLabel cell_inst_2_21">a_in_ft_in</text></g><g transform="translate(-1,45)" s:x="0" s:y="10" s:pid="in0" id="port_inst_2_21~in0"><text x="-3" y="-4" class="inputPortLabel cell_inst_2_21">in0</text></g><g transform="translate(-1,78)" s:x="0" s:y="10" s:pid="in0" id="port_inst_2_21~in1"><text x="-3" y="-4" class="inputPortLabel cell_inst_2_21">in1</text></g><g transform="translate(4,12)" s:x="30" s:y="10" s:pid="out0" id="port_inst_2_21~a_in_ft_out"><text x="5" y="-4" style="stroke:none" class="cell_inst_2_21">a_in_ft_out</text></g><g transform="translate(4,45)" s:x="30" s:y="10" s:pid="out0" id="port_inst_2_21~out0"><text x="5" y="-4" style="stroke:none" class="cell_inst_2_21">out0</text></g><g transform="translate(4,78)" s:x="30" s:y="10" s:pid="out0" id="port_inst_2_21~out1"><text x="5" y="-4" style="stroke:none" class="cell_inst_2_21">out1</text></g></g><g s:type="sub_odd" transform="translate(755,215.5)" s:width="30" s:height="40" id="cell_inst_2_22"><text x="2" y="-4" class="nodelabel cell_inst_2_22" s:attribute="ref">inst_2_22</text><rect width="4" height="103" s:generic="body" fill="#e9e9e9" rx="4" class="cell_inst_2_22"/><line x1="0" x2="12" y1="12.5" y2="12.5" class="net_6"/><line x1="12" x2="4" y1="12.5" y2="12.5" class="net_6"/><g transform="translate(-1,12)" s:x="0" s:y="10" s:pid="in0" id="port_inst_2_22~a_in_ft_in"><text x="-3" y="-4" class="inputPortLabel cell_inst_2_22">a_in_ft_in</text></g><g transform="translate(-1,45)" s:x="0" s:y="10" s:pid="in0" id="port_inst_2_22~in0"><text x="-3" y="-4" class="inputPortLabel cell_inst_2_22">in0</text></g><g transform="translate(-1,78)" s:x="0" s:y="10" s:pid="in0" id="port_inst_2_22~in1"><text x="-3" y="-4" class="inputPortLabel cell_inst_2_22">in1</text></g><g transform="translate(4,12)" s:x="30" s:y="10" s:pid="out0" id="port_inst_2_22~a_in_ft_out"><text x="5" y="-4" style="stroke:none" class="cell_inst_2_22">a_in_ft_out</text></g><g transform="translate(4,45)" s:x="30" s:y="10" s:pid="out0" id="port_inst_2_22~out0"><text x="5" y="-4" style="stroke:none" class="cell_inst_2_22">out0</text></g><g transform="translate(4,78)" s:x="30" s:y="10" s:pid="out0" id="port_inst_2_22~out1"><text x="5" y="-4" style="stroke:none" class="cell_inst_2_22">out1</text></g></g><g s:type="inputExt" transform="translate(12,241)" s:width="30" s:height="20" id="cell_in"><text x="15" y="-4" class="nodelabel cell_in" s:attribute="ref">in</text><s:alias val="$_inputExt_"/><path d="M0,0 L0,20 L15,20 L30,10 L15,0 Z" fill="#ffffff" class="cell_in"/><g s:x="30" s:y="10" s:pid="Y"/></g><g s:type="outputExt" transform="translate(950,221)" s:width="30" s:height="20" id="cell_out"><text x="15" y="-4" class="nodelabel cell_out" s:attribute="ref">out</text><s:alias val="$_outputExt_"/><path d="M30,0 L30,20 L15,20 L0,10 L15,0 Z" fill="#ffffff" class="cell_out"/><g s:x="0" s:y="10" s:pid="A"/></g><g s:type="inputExt" transform="translate(116,55.5)" s:width="30" s:height="20" id="cell_a_in"><text x="15" y="-4" class="nodelabel cell_a_in" s:attribute="ref">a_in</text><s:alias val="$_inputExt_"/><path d="M0,0 L0,20 L15,20 L30,10 L15,0 Z" fill="#ffffff" class="cell_a_in"/><g s:x="30" s:y="10" s:pid="Y"/></g><g s:type="outputExt" transform="translate(950,22)" s:width="30" s:height="20" id="cell_a_out"><text x="15" y="-4" class="nodelabel cell_a_out" s:attribute="ref">a_out</text><s:alias val="$_outputExt_"/><path d="M30,0 L30,20 L15,20 L0,10 L15,0 Z" fill="#ffffff" class="cell_a_out"/><g s:x="0" s:y="10" s:pid="A"/></g><g s:type="inputExt" transform="translate(116,155.5)" s:width="30" s:height="20" id="cell_b_in"><text x="15" y="-4" class="nodelabel cell_b_in" s:attribute="ref">b_in</text><s:alias val="$_inputExt_"/><path d="M0,0 L0,20 L15,20 L30,10 L15,0 Z" fill="#ffffff" class="cell_b_in"/><g s:x="30" s:y="10" s:pid="Y"/></g><g s:type="outputExt" transform="translate(950,156)" s:width="30" s:height="20" id="cell_b_out"><text x="15" y="-4" class="nodelabel cell_b_out" s:attribute="ref">b_out</text><s:alias val="$_outputExt_"/><path d="M30,0 L30,20 L15,20 L0,10 L15,0 Z" fill="#ffffff" class="cell_b_out"/><g s:x="0" s:y="10" s:pid="A"/></g><g s:type="join" transform="translate(870,190.5)" s:width="5" s:height="40" id="cell_$join$,6,7,8,9,"><rect width="5" height="80" class="splitjoinBody" s:generic="body"/><s:alias val="$_join_"/><g s:x="5" s:y="20" s:pid="out"/><g transform="translate(-1,10)" s:x="-1" s:y="10" s:pid="in0"><text x="-3" y="-4" class="inputPortLabel">0</text></g><g transform="translate(-1,30)" s:x="-1" s:y="10" s:pid="in0"><text x="-3" y="-4" class="inputPortLabel">1</text></g><g transform="translate(-1,50)" s:x="-1" s:y="10" s:pid="in0"><text x="-3" y="-4" class="inputPortLabel">2</text></g><g transform="translate(-1,70)" s:x="-1" s:y="10" s:pid="in0"><text x="-3" y="-4" class="inputPortLabel">3</text></g></g><g s:type="split" transform="translate(131.2,210.5)" s:width="5" s:height="40" id="cell_$split$,2,3,4,5,"><rect width="5" height="80" class="splitjoinBody" s:generic="body"/><s:alias val="$_split_"/><g s:x="-1" s:y="20" s:pid="in"/><g transform="translate(5,10)" s:x="5" s:y="10" s:pid="out0"><text x="5" y="-4">1</text></g><g transform="translate(5,30)" s:x="5" s:y="10" s:pid="out0"><text x="5" y="-4">0</text></g><g transform="translate(5,50)" s:x="5" s:y="10" s:pid="out0"><text x="5" y="-4">3</text></g><g transform="translate(5,70)" s:x="5" s:y="10" s:pid="out0"><text x="5" y="-4">2</text></g></g><line x1="146" x2="247" y1="65.5" y2="65.5" class="net_10 width_1" style="stroke-width: 1"/><line x1="137.2" x2="156" y1="221" y2="221" class="net_3 width_1" style="stroke-width: 1"/><line x1="156" x2="156" y1="221" y2="98.5" class="net_3 width_1" style="stroke-width: 1"/><line x1="156" x2="247" y1="98.5" y2="98.5" class="net_3 width_1" style="stroke-width: 1"/><line x1="137.2" x2="166" y1="241" y2="241" class="net_2 width_1" style="stroke-width: 1"/><line x1="166" x2="166" y1="241" y2="131.5" class="net_2 width_1" style="stroke-width: 1"/><line x1="166" x2="247" y1="131.5" y2="131.5" class="net_2 width_1" style="stroke-width: 1"/><line x1="146" x2="176" y1="165.5" y2="165.5" class="net_12 width_1" style="stroke-width: 1"/><line x1="176" x2="176" y1="165.5" y2="228" class="net_12 width_1" style="stroke-width: 1"/><line x1="176" x2="247" y1="228" y2="228" class="net_12 width_1" style="stroke-width: 1"/><line x1="137.2" x2="247" y1="261" y2="261" class="net_5 width_1" style="stroke-width: 1"/><line x1="137.2" x2="156" y1="281" y2="281" class="net_4 width_1" style="stroke-width: 1"/><line x1="156" x2="156" y1="281" y2="294" class="net_4 width_1" style="stroke-width: 1"/><line x1="156" x2="247" y1="294" y2="294" class="net_4 width_1" style="stroke-width: 1"/><line x1="422" x2="585" y1="98.5" y2="98.5" class="net_22 width_1" style="stroke-width: 1"/><line x1="422" x2="585" y1="131.5" y2="131.5" class="net_23 width_1" style="stroke-width: 1"/><line x1="422" x2="585" y1="261" y2="261" class="net_28 width_1" style="stroke-width: 1"/><line x1="422" x2="585" y1="294" y2="294" class="net_29 width_1" style="stroke-width: 1"/><line x1="253" x2="416" y1="98.5" y2="98.5" class="net_15 width_1" style="stroke-width: 1"/><line x1="253" x2="416" y1="131.5" y2="131.5" class="net_16 width_1" style="stroke-width: 1"/><line x1="253" x2="416" y1="261" y2="261" class="net_18 width_1" style="stroke-width: 1"/><line x1="253" x2="416" y1="294" y2="294" class="net_19 width_1" style="stroke-width: 1"/><line x1="591" x2="754" y1="98.5" y2="98.5" class="net_24 width_1" style="stroke-width: 1"/><line x1="591" x2="754" y1="131.5" y2="131.5" class="net_25 width_1" style="stroke-width: 1"/><line x1="591" x2="754" y1="261" y2="261" class="net_30 width_1" style="stroke-width: 1"/><line x1="591" x2="754" y1="294" y2="294" class="net_31 width_1" style="stroke-width: 1"/><line x1="876" x2="950" y1="231" y2="231" class="net_6,7,8,9 width_4" style="stroke-width: 2"/><line x1="422" x2="499" y1="65.5" y2="65.5" class="net_11 width_1" style="stroke-width: 1"/><line x1="499" x2="499" y1="65.5" y2="32" class="net_11 width_1" style="stroke-width: 1"/><line x1="499" x2="950" y1="32" y2="32" class="net_11 width_1" style="stroke-width: 1"/><line x1="422" x2="499" y1="228" y2="228" class="net_13 width_1" style="stroke-width: 1"/><line x1="499" x2="499" y1="228" y2="166" class="net_13 width_1" style="stroke-width: 1"/><line x1="499" x2="950" y1="166" y2="166" class="net_13 width_1" style="stroke-width: 1"/><line x1="760" x2="837" y1="131.5" y2="131.5" class="net_6 width_1" style="stroke-width: 1"/><line x1="837" x2="837" y1="131.5" y2="201" class="net_6 width_1" style="stroke-width: 1"/><line x1="837" x2="869" y1="201" y2="201" class="net_6 width_1" style="stroke-width: 1"/><line x1="760" x2="847" y1="98.5" y2="98.5" class="net_7 width_1" style="stroke-width: 1"/><line x1="847" x2="847" y1="98.5" y2="221" class="net_7 width_1" style="stroke-width: 1"/><line x1="847" x2="869" y1="221" y2="221" class="net_7 width_1" style="stroke-width: 1"/><line x1="760" x2="837" y1="294" y2="294" class="net_8 width_1" style="stroke-width: 1"/><line x1="837" x2="837" y1="294" y2="241" class="net_8 width_1" style="stroke-width: 1"/><line x1="837" x2="869" y1="241" y2="241" class="net_8 width_1" style="stroke-width: 1"/><line x1="760" x2="869" y1="261" y2="261" class="net_9 width_1" style="stroke-width: 1"/><line x1="42" x2="130.2" y1="251" y2="251" class="net_2,3,4,5 width_4" style="stroke-width: 2"/><rect x="912" y="226" width="16" height="9" class="net_6,7,8,9 width_4 busLabel_4" style="fill: white; stroke: none"/><text x="911" y="234" class="net_6,7,8,9 width_4 busLabel_4">/4/</text><rect x="78" y="246" width="16" height="9" class="net_2,3,4,5 width_4 busLabel_4" style="fill: white; stroke: none"/><text x="77" y="254" class="net_2,3,4,5 width_4 busLabel_4">/4/</text></svg>