<svg xmlns="http://www.w3.org/2000/svg" xmlns:xlink="http://www.w3.org/1999/xlink" xmlns:s="https://github.com/nturley/netlistsvg" width="651" height="334.5"><style>    svg {
    stroke:green;
    fill:none;
    }
    text {
    fill:blue;
    stroke:none;
    font-size:10px;
    font-weight: bold;
    font-family: "Courier New", monospace;
    }
    line {
    stroke-linecap: round;
    }
    .nodelabel {
    text-anchor: middle;
    }
    .inputPortLabel {
    text-anchor: end;
    }
    .splitjoinBody {
    fill:green;
    }</style><g s:type="sub_odd" transform="translate(375,154.5)" s:width="30" s:height="40" id="cell_inst_1_0"><text x="2" y="-4" class="nodelabel cell_inst_1_0" s:attribute="ref">inst_1_0</text><rect width="4" height="103" s:generic="body" fill="#e9e9e9" rx="4" class="cell_inst_1_0"/><line x1="0" x2="12" y1="12.5" y2="12.5" class="net_5"/><line x1="12" x2="4" y1="12.5" y2="12.5" class="net_5"/><g transform="translate(-1,12)" s:x="0" s:y="10" s:pid="in0" id="port_inst_1_0~A_ft_in"><text x="-3" y="-4" class="inputPortLabel cell_inst_1_0">A_ft_in</text></g><g transform="translate(-1,45)" s:x="0" s:y="10" s:pid="in0" id="port_inst_1_0~in0"><text x="-3" y="-4" class="inputPortLabel cell_inst_1_0">in0</text></g><g transform="translate(-1,78)" s:x="0" s:y="10" s:pid="in0" id="port_inst_1_0~in1"><text x="-3" y="-4" class="inputPortLabel cell_inst_1_0">in1</text></g><g transform="translate(4,12)" s:x="30" s:y="10" s:pid="out0" id="port_inst_1_0~A_ft_out"><text x="5" y="-4" style="stroke:none" class="cell_inst_1_0">A_ft_out</text></g><g transform="translate(4,45)" s:x="30" s:y="10" s:pid="out0" id="port_inst_1_0~out"><text x="5" y="-4" style="stroke:none" class="cell_inst_1_0">out</text></g></g><g s:type="sub_odd" transform="translate(508,154.5)" s:width="30" s:height="40" id="cell_inst_1_1"><text x="2" y="-4" class="nodelabel cell_inst_1_1" s:attribute="ref">inst_1_1</text><rect width="4" height="103" s:generic="body" fill="#e9e9e9" rx="4" class="cell_inst_1_1"/><line x1="0" x2="12" y1="12.5" y2="12.5" class="net_5"/><line x1="12" x2="4" y1="12.5" y2="12.5" class="net_5"/><g transform="translate(-1,12)" s:x="0" s:y="10" s:pid="in0" id="port_inst_1_1~A_ft_in"><text x="-3" y="-4" class="inputPortLabel cell_inst_1_1">A_ft_in</text></g><g transform="translate(-1,45)" s:x="0" s:y="10" s:pid="in0" id="port_inst_1_1~in0"><text x="-3" y="-4" class="inputPortLabel cell_inst_1_1">in0</text></g><g transform="translate(-1,78)" s:x="0" s:y="10" s:pid="in0" id="port_inst_1_1~in1"><text x="-3" y="-4" class="inputPortLabel cell_inst_1_1">in1</text></g><g transform="translate(4,12)" s:x="30" s:y="10" s:pid="out0" id="port_inst_1_1~A_ft_out"><text x="5" y="-4" style="stroke:none" class="cell_inst_1_1">A_ft_out</text></g><g transform="translate(4,45)" s:x="30" s:y="10" s:pid="out0" id="port_inst_1_1~out"><text x="5" y="-4" style="stroke:none" class="cell_inst_1_1">out</text></g></g><g s:type="generic" transform="translate(207,81.5)" s:width="30" s:height="40" id="cell_inst_2_0"><text x="15" y="-4" class="nodelabel cell_inst_2_0" s:attribute="ref">inst_2_0</text><rect width="30" height="40" s:generic="body" fill="#ffffff" rx="0" class="cell_inst_2_0"/><g transform="translate(0,10)" s:x="0" s:y="10" s:pid="in0" id="port_inst_2_0~in0"><text x="-3" y="-4" class="inputPortLabel cell_inst_2_0">in0</text></g><g transform="translate(0,30)" s:x="0" s:y="10" s:pid="in0" id="port_inst_2_0~in1"><text x="-3" y="-4" class="inputPortLabel cell_inst_2_0">in1</text></g><g transform="translate(30,10)" s:x="30" s:y="10" s:pid="out0" id="port_inst_2_0~out"><text x="5" y="-4" style="stroke:none" class="cell_inst_2_0">out</text></g></g><g s:type="generic" transform="translate(368.3333333333333,81.5)" s:width="30" s:height="40" id="cell_inst_2_1"><text x="15" y="-4" class="nodelabel cell_inst_2_1" s:attribute="ref">inst_2_1</text><rect width="30" height="40" s:generic="body" fill="#ffffff" rx="0" class="cell_inst_2_1"/><g transform="translate(0,10)" s:x="0" s:y="10" s:pid="in0" id="port_inst_2_1~in0"><text x="-3" y="-4" class="inputPortLabel cell_inst_2_1">in0</text></g><g transform="translate(0,30)" s:x="0" s:y="10" s:pid="in0" id="port_inst_2_1~in1"><text x="-3" y="-4" class="inputPortLabel cell_inst_2_1">in1</text></g><g transform="translate(30,10)" s:x="30" s:y="10" s:pid="out0" id="port_inst_2_1~out"><text x="5" y="-4" style="stroke:none" class="cell_inst_2_1">out</text></g></g><g s:type="inputExt" transform="translate(12,190)" s:width="30" s:height="20" id="cell_in0"><text x="15" y="-4" class="nodelabel cell_in0" s:attribute="ref">in0</text><s:alias val="$_inputExt_"/><path d="M0,0 L0,20 L15,20 L30,10 L15,0 Z" fill="#ffffff" class="cell_in0"/><g s:x="30" s:y="10" s:pid="Y"/></g><g s:type="inputExt" transform="translate(12,72)" s:width="30" s:height="20" id="cell_in1"><text x="15" y="-4" class="nodelabel cell_in1" s:attribute="ref">in1</text><s:alias val="$_inputExt_"/><path d="M0,0 L0,20 L15,20 L30,10 L15,0 Z" fill="#ffffff" class="cell_in1"/><g s:x="30" s:y="10" s:pid="Y"/></g><g s:type="inputExt" transform="translate(349,302.5)" s:width="30" s:height="20" id="cell_in3"><text x="15" y="-4" class="nodelabel cell_in3" s:attribute="ref">in3</text><s:alias val="$_inputExt_"/><path d="M0,0 L0,20 L15,20 L30,10 L15,0 Z" fill="#ffffff" class="cell_in3"/><g s:x="30" s:y="10" s:pid="Y"/></g><g s:type="inputExt" transform="translate(77,156.5)" s:width="30" s:height="20" id="cell_bus_in"><text x="15" y="-4" class="nodelabel cell_bus_in" s:attribute="ref">bus_in</text><s:alias val="$_inputExt_"/><path d="M0,0 L0,20 L15,20 L30,10 L15,0 Z" fill="#ffffff" class="cell_bus_in"/><g s:x="30" s:y="10" s:pid="Y"/></g><g s:type="outputExt" transform="translate(597,190)" s:width="30" s:height="20" id="cell_out0"><text x="15" y="-4" class="nodelabel cell_out0" s:attribute="ref">out0</text><s:alias val="$_outputExt_"/><path d="M30,0 L30,20 L15,20 L0,10 L15,0 Z" fill="#ffffff" class="cell_out0"/><g s:x="0" s:y="10" s:pid="A"/></g><g s:type="outputExt" transform="translate(597,82)" s:width="30" s:height="20" id="cell_bus_out"><text x="15" y="-4" class="nodelabel cell_bus_out" s:attribute="ref">bus_out</text><s:alias val="$_outputExt_"/><path d="M30,0 L30,20 L15,20 L0,10 L15,0 Z" fill="#ffffff" class="cell_bus_out"/><g s:x="0" s:y="10" s:pid="A"/></g><g s:type="inputExt" transform="translate(12,22)" s:width="30" s:height="20" id="cell_A"><text x="15" y="-4" class="nodelabel cell_A" s:attribute="ref">A</text><s:alias val="$_inputExt_"/><path d="M0,0 L0,20 L15,20 L30,10 L15,0 Z" fill="#ffffff" class="cell_A"/><g s:x="30" s:y="10" s:pid="Y"/></g><g s:type="outputExt" transform="translate(77,22)" s:width="30" s:height="20" id="cell_Aout"><text x="15" y="-4" class="nodelabel cell_Aout" s:attribute="ref">Aout</text><s:alias val="$_outputExt_"/><path d="M30,0 L30,20 L15,20 L0,10 L15,0 Z" fill="#ffffff" class="cell_Aout"/><g s:x="0" s:y="10" s:pid="A"/></g><g s:type="join" transform="translate(90,71.5)" s:width="5" s:height="40" id="cell_$join$,3,2,"><rect width="5" height="40" class="splitjoinBody" s:generic="body"/><s:alias val="$_join_"/><g s:x="5" s:y="20" s:pid="out"/><g transform="translate(-1,10)" s:x="-1" s:y="10" s:pid="in0"><text x="-3" y="-4" class="inputPortLabel">0</text></g><g transform="translate(-1,30)" s:x="-1" s:y="10" s:pid="in0"><text x="-3" y="-4" class="inputPortLabel">1</text></g></g><line x1="513" x2="572" y1="167" y2="167" class="net_11 width_1" style="stroke-width: 1"/><line x1="572" x2="572" y1="167" y2="134.5" class="net_11 width_1" style="stroke-width: 1"/><line x1="572" x2="306" y1="134.5" y2="134.5" class="net_11 width_1" style="stroke-width: 1"/><line x1="306" x2="306" y1="134.5" y2="167" class="net_11 width_1" style="stroke-width: 1"/><line x1="306" x2="374" y1="167" y2="167" class="net_11 width_1" style="stroke-width: 1"/><line x1="42" x2="374" y1="200" y2="200" class="net_2 width_1" style="stroke-width: 1"/><line x1="42" x2="62" y1="200" y2="200" class="net_2 width_1" style="stroke-width: 1"/><line x1="62" x2="62" y1="200" y2="102" class="net_2 width_1" style="stroke-width: 1"/><circle cx="62" cy="200" r="2" style="fill:#000" class="net_2 width_1"/><line x1="62" x2="89" y1="102" y2="102" class="net_2 width_1" style="stroke-width: 1"/><line x1="42" x2="52" y1="82" y2="82" class="net_3 width_1" style="stroke-width: 1"/><line x1="52" x2="52" y1="82" y2="211" class="net_3 width_1" style="stroke-width: 1"/><line x1="52" x2="306" y1="211" y2="211" class="net_3 width_1" style="stroke-width: 1"/><line x1="306" x2="306" y1="211" y2="233" class="net_3 width_1" style="stroke-width: 1"/><circle cx="52" cy="82" r="2" style="fill:#000" class="net_3 width_1"/><line x1="306" x2="374" y1="233" y2="233" class="net_3 width_1" style="stroke-width: 1"/><line x1="42" x2="89" y1="82" y2="82" class="net_3 width_1" style="stroke-width: 1"/><line x1="380" x2="507" y1="167" y2="167" class="net_12 width_1" style="stroke-width: 1"/><line x1="380" x2="507" y1="200" y2="200" class="net_13 width_1" style="stroke-width: 1"/><line x1="379" x2="439" y1="312.5" y2="312.5" class="net_4 width_1" style="stroke-width: 1"/><line x1="439" x2="439" y1="312.5" y2="233" class="net_4 width_1" style="stroke-width: 1"/><line x1="439" x2="507" y1="233" y2="233" class="net_4 width_1" style="stroke-width: 1"/><line x1="96" x2="207" y1="92" y2="92" class="net_3,2 width_2" style="stroke-width: 2"/><line x1="107" x2="162" y1="166.5" y2="166.5" class="net_5,6 width_2" style="stroke-width: 2"/><line x1="162" x2="162" y1="166.5" y2="112" class="net_5,6 width_2" style="stroke-width: 2"/><line x1="162" x2="206" y1="112" y2="112" class="net_5,6 width_2" style="stroke-width: 2"/><line x1="238" x2="368.3333333333333" y1="92" y2="92" class="net_14,15 width_2" style="stroke-width: 2"/><line x1="238" x2="267" y1="92" y2="92" class="net_14,15 width_2" style="stroke-width: 2"/><line x1="267" x2="267" y1="92" y2="112" class="net_14,15 width_2" style="stroke-width: 2"/><circle cx="267" cy="92" r="3" style="fill:#000" class="net_14,15 width_2"/><line x1="267" x2="367.3333333333333" y1="112" y2="112" class="net_14,15 width_2" style="stroke-width: 2"/><line x1="513" x2="597" y1="200" y2="200" class="net_7 width_1" style="stroke-width: 1"/><line x1="399.3333333333333" x2="597" y1="92" y2="92" class="net_8,9 width_2" style="stroke-width: 2"/><line x1="42" x2="77" y1="32" y2="32" class="net_10 width_1" style="stroke-width: 1"/><rect x="149" y="87" width="16" height="9" class="net_3,2 width_2 busLabel_2" style="fill: white; stroke: none"/><text x="148" y="95" class="net_3,2 width_2 busLabel_2">/2/</text><rect x="149" y="161.5" width="16" height="9" class="net_5,6 width_2 busLabel_2" style="fill: white; stroke: none"/><text x="148" y="169.5" class="net_5,6 width_2 busLabel_2">/2/</text><rect x="293" y="107" width="16" height="9" class="net_14,15 width_2 busLabel_2" style="fill: white; stroke: none"/><text x="292" y="115" class="net_14,15 width_2 busLabel_2">/2/</text><rect x="293" y="107" width="16" height="9" class="net_14,15 width_2 busLabel_2" style="fill: white; stroke: none"/><text x="292" y="115" class="net_14,15 width_2 busLabel_2">/2/</text><rect x="512" y="87" width="16" height="9" class="net_8,9 width_2 busLabel_2" style="fill: white; stroke: none"/><text x="511" y="95" class="net_8,9 width_2 busLabel_2">/2/</text></svg>