<?xml version="1.0" encoding="utf-8" ?>
<svg xmlns="http://www.w3.org/2000/svg" xmlns:ev="http://www.w3.org/2001/xml-events" xmlns:xlink="http://www.w3.org/1999/xlink" baseProfile="full" height="160" version="1.1" viewBox="0,-130.0,120,160" width="120">
    <defs id="id4">
        <marker id="conn_marker" markerHeight="10" markerUnits="strokeWidth" markerWidth="5" orient="auto" refX="30" refY="30" viewBox="0 0 120 120">
            <path d="M 0 0 L 60 30 L 0 60 z" fill="blue"/>
        </marker>
        <marker id="down_conn_marker" markerHeight="10" markerUnits="strokeWidth" markerWidth="5" orient="auto" viewBox="-15 -15 30 30">
            <rect fill="green" height="20" width="20" x="-10" y="-10"/>
            <path d="M 8 0 L -8 8 L -8 -8 z" fill="blue"/>
        </marker>
        <marker id="up_conn_marker" markerHeight="10" markerUnits="strokeWidth" markerWidth="5" orient="auto" viewBox="-15 -15 30 30">
            <rect fill="green" height="20" width="20" x="-10" y="-10"/>
            <path d="M 8 0 L -8 8 L -8 -8 z" fill="blue"/>
        </marker>
        <marker id="top_conn_marker" markerHeight="10" markerUnits="strokeWidth" markerWidth="5" orient="auto" viewBox="-15 -15 30 30">
            <line stroke="red" stroke-width="5px" x1="0" x2="0" y1="-15" y2="15"/>
        </marker>
        <marker id="buffer_marker" markerHeight="15" markerUnits="strokeWidth" markerWidth="30" orient="auto" viewBox="-15 -15 30 30">
            <path d="M 8 0 L -8 8 L -8 -8 z" fill="red"/>
        </marker>
        <style type="text/css"><![CDATA[
                text{font-family: Lato;}
                span{text-anchor: "middle"; alignment_baseline: "middle"}
                .gridLabels{fill: grey;font-style: italic;font-weight: 900}
                .gridmarker{stroke:red; stroke-width:0.2; opacity: 0.7;}
                
                .connection{ opacity: 0.75;
                            marker-end:url(#conn_marker);
                            stroke-width:1.2;}
                .down{stroke-dasharray: 2;
                    marker-end:url(#up_conn_marker);}
                .up{stroke-dasharray: 2;
                    marker-start:url(#down_conn_marker);}
                .top{stroke-dasharray: 2;
                    marker-start:url(#top_conn_marker);}
                .buffer{marker-mid:url(#buffer_marker);}
                ]]></style>
    </defs>
    <g id="markers" transform="scale(1,-1)">
        <line class="gridmarker" x1="10" x2="10" y1="10" y2="110"/>
        <line class="gridmarker" x1="30" x2="30" y1="10" y2="110"/>
        <line class="gridmarker" x1="50" x2="50" y1="10" y2="110"/>
        <line class="gridmarker" x1="70" x2="70" y1="10" y2="110"/>
        <line class="gridmarker" x1="90" x2="90" y1="10" y2="110"/>
        <line class="gridmarker" x1="110" x2="110" y1="10" y2="110"/>
        <line class="gridmarker" x1="10" x2="110" y1="10" y2="10"/>
        <line class="gridmarker" x1="10" x2="110" y1="30" y2="30"/>
        <line class="gridmarker" x1="10" x2="110" y1="50" y2="50"/>
        <line class="gridmarker" x1="10" x2="110" y1="70" y2="70"/>
        <line class="gridmarker" x1="10" x2="110" y1="90" y2="90"/>
        <line class="gridmarker" x1="10" x2="110" y1="110" y2="110"/>
    </g>
    <g id="main" transform="scale(1,-1)">
        <path class="connection same" d="M 100 0 L 100 10 L 100 20" stroke=" black"/>
        <path class="connection same" d="M 100 20 L 90 20 L 80 20" stroke=" black"/>
        <path class="connection same" d="M 100 20 L 100 30 L 100 40" stroke=" black"/>
        <path class="connection same" d="M 100 40 L 90 40 L 80 40" stroke=" black"/>
        <path class="connection same" d="M 100 40 L 100 50 L 100 60" stroke=" black"/>
        <path class="connection same" d="M 100 60 L 90 60 L 80 60" stroke=" black"/>
        <path class="connection same" d="M 100 60 L 100 70 L 100 80" stroke=" black"/>
        <path class="connection same" d="M 100 80 L 90 80 L 80 80" stroke=" black"/>
        <path class="connection same" d="M 100 80 L 100 90 L 100 100" stroke=" black"/>
        <path class="connection same" d="M 100 100 L 90 100 L 80 100" stroke=" black"/>
        <path class="connection same" d="M 40 0 L 40 10 L 40 20" stroke=" black"/>
        <path class="connection same" d="M 40 20 L 50 20 L 60 20" stroke=" black"/>
        <path class="connection same" d="M 40 20 L 30 20 L 20 20" stroke=" black"/>
        <path class="connection same" d="M 40 20 L 40 30 L 40 40" stroke=" black"/>
        <path class="connection same" d="M 40 40 L 50 40 L 60 40" stroke=" black"/>
        <path class="connection same" d="M 40 40 L 30 40 L 20 40" stroke=" black"/>
        <path class="connection same" d="M 40 40 L 40 50 L 40 60" stroke=" black"/>
        <path class="connection same" d="M 40 60 L 50 60 L 60 60" stroke=" black"/>
        <path class="connection same" d="M 40 60 L 30 60 L 20 60" stroke=" black"/>
        <path class="connection same" d="M 40 60 L 40 70 L 40 80" stroke=" black"/>
        <path class="connection same" d="M 40 80 L 50 80 L 60 80" stroke=" black"/>
        <path class="connection same" d="M 40 80 L 30 80 L 20 80" stroke=" black"/>
        <path class="connection same" d="M 40 80 L 40 90 L 40 100" stroke=" black"/>
        <path class="connection same" d="M 40 100 L 50 100 L 60 100" stroke=" black"/>
        <path class="connection same" d="M 40 100 L 30 100 L 20 100" stroke=" black"/>
        <g id="text">
            <text alignment-baseline="middle" class="moduleLabel" fill="black" font-size="10.0" text-anchor="middle" transform="scale(1,-1)" x="60.0" y="10.0">Merging option</text>
        </g>
    </g>
</svg>
