<?xml version="1.0" encoding="utf-8" ?>
<svg xmlns="http://www.w3.org/2000/svg" xmlns:ev="http://www.w3.org/2001/xml-events" xmlns:xlink="http://www.w3.org/1999/xlink" baseProfile="full" height="120" version="1.1" viewBox="0,-90.0,80,120" width="80">
    <defs id="id25">
        <marker id="id21" markerHeight="10" markerUnits="strokeWidth" markerWidth="5" orient="auto" refX="30" refY="30" viewBox="0 0 120 120">
            <path d="M 0 0 L 60 30 L 0 60 z" fill="blue"/>
        </marker>
        <marker id="id22" markerHeight="10" markerUnits="strokeWidth" markerWidth="5" orient="auto" viewBox="-15 -15 30 30">
            <rect fill="green" height="20" width="20" x="-10" y="-10"/>
            <path d="M 8 0 L -8 8 L -8 -8 z" fill="blue"/>
        </marker>
        <marker id="id23" markerHeight="10" markerUnits="strokeWidth" markerWidth="5" orient="auto" viewBox="-15 -15 30 30">
            <rect fill="green" height="20" width="20" x="-10" y="-10"/>
            <path d="M 8 0 L -8 8 L -8 -8 z" fill="blue"/>
        </marker>
        <marker id="id24" markerHeight="10" markerUnits="strokeWidth" markerWidth="5" orient="auto" viewBox="-15 -15 30 30">
            <line stroke="red" stroke-width="5px" x1="0" x2="0" y1="-15" y2="15"/>
        </marker>
        <style type="text/css"><![CDATA[
                text{font-family: Lato;}
                span{text-anchor: "middle"; alignment_baseline: "middle"}
                .gridLabels{fill: grey;font-style: italic;font-weight: 900}
                .gridmarker{stroke:red; stroke-width:0.2; opacity: 0.7;}
                
                .connection{ opacity: 0.5;
                            marker-end:url(#id21);
                            stroke-width:1.2;}
                .up{stroke-dasharray: 2;
                    marker-end:url(#id23);}
                .down{stroke-dasharray: 2;
                    marker-start:url(#id22);}
                .top{stroke-dasharray: 2;
                    marker-start:url(#id24);}
                .buffer{ filter: hue-rotate(90deg);
                          stroke-width:2; stroke-dasharray:1;}
                ]]></style>
    </defs>
    <g id="markers" transform="scale(1,-1)">
        <line class="gridmarker" x1="10" x2="10" y1="10" y2="70"/>
        <line class="gridmarker" x1="30" x2="30" y1="10" y2="70"/>
        <line class="gridmarker" x1="50" x2="50" y1="10" y2="70"/>
        <line class="gridmarker" x1="70" x2="70" y1="10" y2="70"/>
        <line class="gridmarker" x1="10" x2="70" y1="10" y2="10"/>
        <line class="gridmarker" x1="10" x2="70" y1="30" y2="30"/>
        <line class="gridmarker" x1="10" x2="70" y1="50" y2="50"/>
        <line class="gridmarker" x1="10" x2="70" y1="70" y2="70"/>
    </g>
    <g id="main" transform="scale(1,-1)">
        <line class="connection same" stroke=" black" x1="40" x2="40" y1="0" y2="20"/>
        <line class="connection same" stroke=" black" x1="40" x2="60" y1="20" y2="20"/>
        <line class="connection same" stroke=" black" x1="40" x2="20" y1="20" y2="20"/>
        <line class="connection same" stroke=" black" x1="40" x2="40" y1="20" y2="40"/>
        <line class="connection same" stroke=" black" x1="40" x2="60" y1="40" y2="40"/>
        <line class="connection same" stroke=" black" x1="40" x2="20" y1="40" y2="40"/>
        <line class="connection same" stroke=" black" x1="40" x2="40" y1="40" y2="60"/>
        <line class="connection same" stroke=" black" x1="40" x2="60" y1="60" y2="60"/>
        <line class="connection same" stroke=" black" x1="40" x2="20" y1="60" y2="60"/>
        <g id="text">
            <text alignment-baseline="middle" class="moduleLabel" fill="black" font-size="6.0" text-anchor="middle" transform="scale(1,-1)" x="40.0" y="10.0">Original</text>
        </g>
    </g>
</svg>
