<?xml version="1.0" encoding="utf-8" ?>
<svg xmlns="http://www.w3.org/2000/svg" xmlns:ev="http://www.w3.org/2001/xml-events" xmlns:xlink="http://www.w3.org/1999/xlink" baseProfile="full" height="100%" version="1.1" viewBox="-50,-33284,28160,33284" width="100%">
    <defs>
        <symbol id="fpga_top">
            <rect class="module_boundary fpga_top" fill="url(#id1)" height="33183" width="28059" x="1" y="1"/>
        </symbol>
        <symbol id="grid_clb">
            <rect class="module_boundary grid_clb" fill="#ddd0b1" height="4895" width="3863" x="1" y="1"/>
        </symbol>
        <symbol id="sb_0__0_">
            <path class="module_boundary sb_0__0_" d="M 0 0 v 0 h 0 v 2720 h 0  v 544 h 1840 v -544 h 690 v -2720  h -690 v 0 Z Z" fill="#ceefe4"/>
        </symbol>
        <symbol id="sb_0__1_">
            <path class="module_boundary sb_0__1_" d="M 0 0 v 544 h 0 v 1632 h 0  v 544 h 1840 v -544 h 920 v -1632  h -920 v -544 Z Z" fill="#ceefe4"/>
        </symbol>
        <symbol id="sb_0__4_">
            <path class="module_boundary sb_0__4_" d="M 0 0 v 544 h 0 v 2720 h 0  v 0 h 1840 v 0 h 690 v -2720  h -690 v -544 Z Z" fill="#ceefe4"/>
        </symbol>
        <symbol id="sb_1__0_">
            <path class="module_boundary sb_1__0_" d="M 690 0 v 0 h -690 v 2720 h 690  v 1088 h 1380 v -1088 h 690 v -2720  h -690 v 0 Z Z" fill="#ceefe4"/>
        </symbol>
        <symbol id="sb_1__1_">
            <path class="module_boundary sb_1__1_" d="M 920 0 v 1088 h -920 v 1632 h 920  v 1088 h 1380 v -1088 h 920 v -1632  h -920 v -1088 Z Z" fill="#ceefe4"/>
        </symbol>
        <symbol id="sb_1__4_">
            <path class="module_boundary sb_1__4_" d="M 690 0 v 1088 h -690 v 2720 h 690  v 0 h 1380 v 0 h 690 v -2720  h -690 v -1088 Z Z" fill="#ceefe4"/>
        </symbol>
        <symbol id="sb_4__0_">
            <path class="module_boundary sb_4__0_" d="M 690 0 v 0 h -690 v 2720 h 690  v 544 h 1840 v -544 h 0 v -2720  h 0 v 0 Z Z" fill="#ceefe4"/>
        </symbol>
        <symbol id="sb_4__1_">
            <path class="module_boundary sb_4__1_" d="M 920 0 v 544 h -920 v 1632 h 920  v 544 h 1840 v -544 h 0 v -1632  h 0 v -544 Z Z" fill="#ceefe4"/>
        </symbol>
        <symbol id="sb_4__4_">
            <path class="module_boundary sb_4__4_" d="M 690 0 v 544 h -690 v 2720 h 690  v 0 h 1840 v 0 h 0 v -2720  h 0 v -544 Z Z" fill="#ceefe4"/>
        </symbol>
        <symbol id="cbx_1__1_">
            <rect class="module_boundary cbx_1__1_" fill="#d9d9f3" height="1631" width="2023" x="1" y="1"/>
        </symbol>
        <symbol id="cby_1__1_">
            <rect class="module_boundary cby_1__1_" fill="#a8d0db" height="2719" width="1379" x="1" y="1"/>
        </symbol>
        <symbol id="cby_0__1_">
            <rect class="module_boundary cby_0__1_" fill="#a8d0db" height="3807" width="1839" x="1" y="1"/>
        </symbol>
        <symbol id="cbx_1__4_">
            <rect class="module_boundary cbx_1__4_" fill="#d9d9f3" height="2719" width="2483" x="1" y="1"/>
        </symbol>
        <symbol id="cby_4__1_">
            <rect class="module_boundary cby_4__1_" fill="#a8d0db" height="3807" width="1839" x="1" y="1"/>
        </symbol>
        <symbol id="cbx_1__0_">
            <rect class="module_boundary cbx_1__0_" fill="#d9d9f3" height="2719" width="2483" x="1" y="1"/>
        </symbol>
        <style type="text/css"><![CDATA[
            .origin{fill:black}
            text{font-family: Verdana; font-size: 5px;}
            .module_boundary{stroke:grey; stroke-width:1;opacity: 0.8}
            .left_pin{
                fill:blue;
                text-anchor: start;
                transform: translate(5px, 00px) scale(1,-1);}
            .right_pin{
                fill:blue;
                text-anchor: end;
                transform: translate(-5px, 00px) scale(1,-1);}
            .bottom_pin{
                fill:blue;
                transform-box: fill-box;
                transform-origin: start;
                text-anchor: start;
                transform: translate(0px, 10px) rotate(90deg) scale(1,-1);}
            .top_pin{
                fill:blue;
                transform-box: fill-box;
                transform-origin: bottom left;
                text-anchor: start;
                transform: translate(0px, -3px) rotate(-90deg) scale(1,-1);}
            .in_pin{fill: red;}
            .out_pin{fill: blue;}
        ]]></style>
        <style type="text/css"><![CDATA[
    .over_util {fill:#b22222 !important}
    line {stroke-width: 30}
    text{font-family: Lato; font-style: italic; font-size: 250px;}
]]></style>
        <pattern height="544" id="id1" patternUnits="userSpaceOnUse" width="92">
            <circle cx="4" cy="4" fill="black" r="4"/>
            <circle cx="4" cy="276" fill="red" r="4"/>
        </pattern>
    </defs>
    <g id="bg">
        <rect fill="#FFF" height="33234" id="background" stroke-width="0" width="28110" x="-25" y="-25"/>
    </g>
    <g id="mainframe">
        <g id="mainShapes" transform="scale(1,-1)">
            <use class="topModule" x="0" xlink:href="#fpga_top" y="0"/>
            <use class="grid_clb_1__1_" x="3128" xlink:href="#grid_clb" y="3536"/>
            <use class="grid_clb_1__2_" x="3128" xlink:href="#grid_clb" y="10608"/>
            <use class="grid_clb_1__3_" x="3128" xlink:href="#grid_clb" y="17680"/>
            <use class="grid_clb_1__4_" x="3128" xlink:href="#grid_clb" y="24752"/>
            <use class="grid_clb_2__1_" x="9108" xlink:href="#grid_clb" y="3536"/>
            <use class="grid_clb_2__2_" x="9108" xlink:href="#grid_clb" y="10608"/>
            <use class="grid_clb_2__3_" x="9108" xlink:href="#grid_clb" y="17680"/>
            <use class="grid_clb_2__4_" x="9108" xlink:href="#grid_clb" y="24752"/>
            <use class="grid_clb_3__1_" x="15088" xlink:href="#grid_clb" y="3536"/>
            <use class="grid_clb_3__2_" x="15088" xlink:href="#grid_clb" y="10608"/>
            <use class="grid_clb_3__3_" x="15088" xlink:href="#grid_clb" y="17680"/>
            <use class="grid_clb_3__4_" x="15088" xlink:href="#grid_clb" y="24752"/>
            <use class="grid_clb_4__1_" x="21068" xlink:href="#grid_clb" y="3536"/>
            <use class="grid_clb_4__2_" x="21068" xlink:href="#grid_clb" y="10608"/>
            <use class="grid_clb_4__3_" x="21068" xlink:href="#grid_clb" y="17680"/>
            <use class="grid_clb_4__4_" x="21068" xlink:href="#grid_clb" y="24752"/>
            <use class="sb_0__0_" x="920" xlink:href="#sb_0__0_" y="544"/>
            <use class="sb_0__1_" x="920" xlink:href="#sb_0__1_" y="8160"/>
            <use class="sb_0__2_" x="920" xlink:href="#sb_0__1_" y="15232"/>
            <use class="sb_0__3_" x="920" xlink:href="#sb_0__1_" y="22304"/>
            <use class="sb_0__4_" x="920" xlink:href="#sb_0__4_" y="29376"/>
            <use class="sb_1__0_" x="6670" xlink:href="#sb_1__0_" y="544"/>
            <use class="sb_2__0_" x="12650" xlink:href="#sb_1__0_" y="544"/>
            <use class="sb_3__0_" x="18630" xlink:href="#sb_1__0_" y="544"/>
            <use class="sb_1__1_" x="6440" xlink:href="#sb_1__1_" y="7616"/>
            <use class="sb_1__2_" x="6440" xlink:href="#sb_1__1_" y="14688"/>
            <use class="sb_1__3_" x="6440" xlink:href="#sb_1__1_" y="21760"/>
            <use class="sb_2__1_" x="12420" xlink:href="#sb_1__1_" y="7616"/>
            <use class="sb_2__2_" x="12420" xlink:href="#sb_1__1_" y="14688"/>
            <use class="sb_2__3_" x="12420" xlink:href="#sb_1__1_" y="21760"/>
            <use class="sb_3__1_" x="18400" xlink:href="#sb_1__1_" y="7616"/>
            <use class="sb_3__2_" x="18400" xlink:href="#sb_1__1_" y="14688"/>
            <use class="sb_3__3_" x="18400" xlink:href="#sb_1__1_" y="21760"/>
            <use class="sb_1__4_" x="6670" xlink:href="#sb_1__4_" y="28832"/>
            <use class="sb_2__4_" x="12650" xlink:href="#sb_1__4_" y="28832"/>
            <use class="sb_3__4_" x="18630" xlink:href="#sb_1__4_" y="28832"/>
            <use class="sb_4__0_" x="24610" xlink:href="#sb_4__0_" y="544"/>
            <use class="sb_4__1_" x="24380" xlink:href="#sb_4__1_" y="8160"/>
            <use class="sb_4__2_" x="24380" xlink:href="#sb_4__1_" y="15232"/>
            <use class="sb_4__3_" x="24380" xlink:href="#sb_4__1_" y="22304"/>
            <use class="sb_4__4_" x="24610" xlink:href="#sb_4__4_" y="29376"/>
            <use class="cbx_1__1_" x="4048" xlink:href="#cbx_1__1_" y="8704"/>
            <use class="cbx_1__2_" x="4048" xlink:href="#cbx_1__1_" y="15776"/>
            <use class="cbx_1__3_" x="4048" xlink:href="#cbx_1__1_" y="22848"/>
            <use class="cbx_2__1_" x="10028" xlink:href="#cbx_1__1_" y="8704"/>
            <use class="cbx_2__2_" x="10028" xlink:href="#cbx_1__1_" y="15776"/>
            <use class="cbx_2__3_" x="10028" xlink:href="#cbx_1__1_" y="22848"/>
            <use class="cbx_3__1_" x="16008" xlink:href="#cbx_1__1_" y="8704"/>
            <use class="cbx_3__2_" x="16008" xlink:href="#cbx_1__1_" y="15776"/>
            <use class="cbx_3__3_" x="16008" xlink:href="#cbx_1__1_" y="22848"/>
            <use class="cbx_4__1_" x="21988" xlink:href="#cbx_1__1_" y="8704"/>
            <use class="cbx_4__2_" x="21988" xlink:href="#cbx_1__1_" y="15776"/>
            <use class="cbx_4__3_" x="21988" xlink:href="#cbx_1__1_" y="22848"/>
            <use class="cby_1__1_" x="7360" xlink:href="#cby_1__1_" y="4624"/>
            <use class="cby_1__2_" x="7360" xlink:href="#cby_1__1_" y="11696"/>
            <use class="cby_1__3_" x="7360" xlink:href="#cby_1__1_" y="18768"/>
            <use class="cby_1__4_" x="7360" xlink:href="#cby_1__1_" y="25840"/>
            <use class="cby_2__1_" x="13340" xlink:href="#cby_1__1_" y="4624"/>
            <use class="cby_2__2_" x="13340" xlink:href="#cby_1__1_" y="11696"/>
            <use class="cby_2__3_" x="13340" xlink:href="#cby_1__1_" y="18768"/>
            <use class="cby_2__4_" x="13340" xlink:href="#cby_1__1_" y="25840"/>
            <use class="cby_3__1_" x="19320" xlink:href="#cby_1__1_" y="4624"/>
            <use class="cby_3__2_" x="19320" xlink:href="#cby_1__1_" y="11696"/>
            <use class="cby_3__3_" x="19320" xlink:href="#cby_1__1_" y="18768"/>
            <use class="cby_3__4_" x="19320" xlink:href="#cby_1__1_" y="25840"/>
            <use class="cby_0__1_" x="920" xlink:href="#cby_0__1_" y="4080"/>
            <use class="cby_0__2_" x="920" xlink:href="#cby_0__1_" y="11152"/>
            <use class="cby_0__3_" x="920" xlink:href="#cby_0__1_" y="18224"/>
            <use class="cby_0__4_" x="920" xlink:href="#cby_0__1_" y="25296"/>
            <use class="cbx_1__4_" x="3818" xlink:href="#cbx_1__4_" y="29920"/>
            <use class="cbx_2__4_" x="9798" xlink:href="#cbx_1__4_" y="29920"/>
            <use class="cbx_3__4_" x="15778" xlink:href="#cbx_1__4_" y="29920"/>
            <use class="cbx_4__4_" x="21758" xlink:href="#cbx_1__4_" y="29920"/>
            <use class="cby_4__4_" x="25300" xlink:href="#cby_4__1_" y="25296"/>
            <use class="cby_4__3_" x="25300" xlink:href="#cby_4__1_" y="18224"/>
            <use class="cby_4__2_" x="25300" xlink:href="#cby_4__1_" y="11152"/>
            <use class="cby_4__1_" x="25300" xlink:href="#cby_4__1_" y="4080"/>
            <use class="cbx_4__0_" x="21758" xlink:href="#cbx_1__0_" y="544"/>
            <use class="cbx_3__0_" x="15778" xlink:href="#cbx_1__0_" y="544"/>
            <use class="cbx_2__0_" x="9798" xlink:href="#cbx_1__0_" y="544"/>
            <use class="cbx_1__0_" x="3818" xlink:href="#cbx_1__0_" y="544"/>
        </g>
        <g id="mainText" transform="scale(1,-1)">
            <text alignment-baseline="middle" fill="black" text-anchor="middle" transform="scale(1,-1)" x="14030.0" y="-3318.4">fpga_top</text>
            <text alignment-baseline="middle" fill="black" text-anchor="middle" transform="scale(1,-1)" x="5060.0" y="-5984.0">
                grid_clb_1__1_
                <tspan dy="1.2em" x="5060.0" y="-5984.0">[grid_clb]</tspan>
                <tspan dy="2.4em" x="5060.0" y="-5984.0">84.0x18.0[297.62%] </tspan>
            </text>
            <text alignment-baseline="middle" fill="black" text-anchor="middle" transform="scale(1,-1)" x="5060.0" y="-13056.0">
                grid_clb_1__2_
                <tspan dy="1.2em" x="5060.0" y="-13056.0">[grid_clb]</tspan>
                <tspan dy="2.4em" x="5060.0" y="-13056.0">84.0x18.0[297.62%] </tspan>
            </text>
            <text alignment-baseline="middle" fill="black" text-anchor="middle" transform="scale(1,-1)" x="5060.0" y="-20128.0">
                grid_clb_1__3_
                <tspan dy="1.2em" x="5060.0" y="-20128.0">[grid_clb]</tspan>
                <tspan dy="2.4em" x="5060.0" y="-20128.0">84.0x18.0[297.62%] </tspan>
            </text>
            <text alignment-baseline="middle" fill="black" text-anchor="middle" transform="scale(1,-1)" x="5060.0" y="-27200.0">
                grid_clb_1__4_
                <tspan dy="1.2em" x="5060.0" y="-27200.0">[grid_clb]</tspan>
                <tspan dy="2.4em" x="5060.0" y="-27200.0">84.0x18.0[297.62%] </tspan>
            </text>
            <text alignment-baseline="middle" fill="black" text-anchor="middle" transform="scale(1,-1)" x="11040.0" y="-5984.0">
                grid_clb_2__1_
                <tspan dy="1.2em" x="11040.0" y="-5984.0">[grid_clb]</tspan>
                <tspan dy="2.4em" x="11040.0" y="-5984.0">84.0x18.0[297.62%] </tspan>
            </text>
            <text alignment-baseline="middle" fill="black" text-anchor="middle" transform="scale(1,-1)" x="11040.0" y="-13056.0">
                grid_clb_2__2_
                <tspan dy="1.2em" x="11040.0" y="-13056.0">[grid_clb]</tspan>
                <tspan dy="2.4em" x="11040.0" y="-13056.0">84.0x18.0[297.62%] </tspan>
            </text>
            <text alignment-baseline="middle" fill="black" text-anchor="middle" transform="scale(1,-1)" x="11040.0" y="-20128.0">
                grid_clb_2__3_
                <tspan dy="1.2em" x="11040.0" y="-20128.0">[grid_clb]</tspan>
                <tspan dy="2.4em" x="11040.0" y="-20128.0">84.0x18.0[297.62%] </tspan>
            </text>
            <text alignment-baseline="middle" fill="black" text-anchor="middle" transform="scale(1,-1)" x="11040.0" y="-27200.0">
                grid_clb_2__4_
                <tspan dy="1.2em" x="11040.0" y="-27200.0">[grid_clb]</tspan>
                <tspan dy="2.4em" x="11040.0" y="-27200.0">84.0x18.0[297.62%] </tspan>
            </text>
            <text alignment-baseline="middle" fill="black" text-anchor="middle" transform="scale(1,-1)" x="17020.0" y="-5984.0">
                grid_clb_3__1_
                <tspan dy="1.2em" x="17020.0" y="-5984.0">[grid_clb]</tspan>
                <tspan dy="2.4em" x="17020.0" y="-5984.0">84.0x18.0[297.62%] </tspan>
            </text>
            <text alignment-baseline="middle" fill="black" text-anchor="middle" transform="scale(1,-1)" x="17020.0" y="-13056.0">
                grid_clb_3__2_
                <tspan dy="1.2em" x="17020.0" y="-13056.0">[grid_clb]</tspan>
                <tspan dy="2.4em" x="17020.0" y="-13056.0">84.0x18.0[297.62%] </tspan>
            </text>
            <text alignment-baseline="middle" fill="black" text-anchor="middle" transform="scale(1,-1)" x="17020.0" y="-20128.0">
                grid_clb_3__3_
                <tspan dy="1.2em" x="17020.0" y="-20128.0">[grid_clb]</tspan>
                <tspan dy="2.4em" x="17020.0" y="-20128.0">84.0x18.0[297.62%] </tspan>
            </text>
            <text alignment-baseline="middle" fill="black" text-anchor="middle" transform="scale(1,-1)" x="17020.0" y="-27200.0">
                grid_clb_3__4_
                <tspan dy="1.2em" x="17020.0" y="-27200.0">[grid_clb]</tspan>
                <tspan dy="2.4em" x="17020.0" y="-27200.0">84.0x18.0[297.62%] </tspan>
            </text>
            <text alignment-baseline="middle" fill="black" text-anchor="middle" transform="scale(1,-1)" x="23000.0" y="-5984.0">
                grid_clb_4__1_
                <tspan dy="1.2em" x="23000.0" y="-5984.0">[grid_clb]</tspan>
                <tspan dy="2.4em" x="23000.0" y="-5984.0">84.0x18.0[297.62%] </tspan>
            </text>
            <text alignment-baseline="middle" fill="black" text-anchor="middle" transform="scale(1,-1)" x="23000.0" y="-13056.0">
                grid_clb_4__2_
                <tspan dy="1.2em" x="23000.0" y="-13056.0">[grid_clb]</tspan>
                <tspan dy="2.4em" x="23000.0" y="-13056.0">84.0x18.0[297.62%] </tspan>
            </text>
            <text alignment-baseline="middle" fill="black" text-anchor="middle" transform="scale(1,-1)" x="23000.0" y="-20128.0">
                grid_clb_4__3_
                <tspan dy="1.2em" x="23000.0" y="-20128.0">[grid_clb]</tspan>
                <tspan dy="2.4em" x="23000.0" y="-20128.0">84.0x18.0[297.62%] </tspan>
            </text>
            <text alignment-baseline="middle" fill="black" text-anchor="middle" transform="scale(1,-1)" x="23000.0" y="-27200.0">
                grid_clb_4__4_
                <tspan dy="1.2em" x="23000.0" y="-27200.0">[grid_clb]</tspan>
                <tspan dy="2.4em" x="23000.0" y="-27200.0">84.0x18.0[297.62%] </tspan>
            </text>
            <text alignment-baseline="middle" fill="black" text-anchor="middle" transform="scale(1,-1)" x="2185.0" y="-2176.0">
                sb_0__0_
                <tspan dy="1.2em" x="2185.0" y="-2176.0">[sb_0__0_]</tspan>
                <tspan dy="2.4em" x="2185.0" y="-2176.0">1.2x0.0[79.37%] </tspan>
            </text>
            <text alignment-baseline="middle" fill="black" text-anchor="middle" transform="scale(1,-1)" x="2300.0" y="-9520.0">
                sb_0__1_
                <tspan dy="1.2em" x="2300.0" y="-9520.0">[sb_0__1_]</tspan>
                <tspan dy="2.4em" x="2300.0" y="-9520.0">1.3x0.0[288.46%] </tspan>
            </text>
            <text alignment-baseline="middle" fill="black" text-anchor="middle" transform="scale(1,-1)" x="2300.0" y="-16592.0">
                sb_0__2_
                <tspan dy="1.2em" x="2300.0" y="-16592.0">[sb_0__1_]</tspan>
                <tspan dy="2.4em" x="2300.0" y="-16592.0">1.3x0.0[288.46%] </tspan>
            </text>
            <text alignment-baseline="middle" fill="black" text-anchor="middle" transform="scale(1,-1)" x="2300.0" y="-23664.0">
                sb_0__3_
                <tspan dy="1.2em" x="2300.0" y="-23664.0">[sb_0__1_]</tspan>
                <tspan dy="2.4em" x="2300.0" y="-23664.0">1.3x0.0[288.46%] </tspan>
            </text>
            <text alignment-baseline="middle" fill="black" text-anchor="middle" transform="scale(1,-1)" x="2185.0" y="-31008.0">
                sb_0__4_
                <tspan dy="1.2em" x="2185.0" y="-31008.0">[sb_0__4_]</tspan>
                <tspan dy="2.4em" x="2185.0" y="-31008.0">1.2x0.0[79.37%] </tspan>
            </text>
            <text alignment-baseline="middle" fill="black" text-anchor="middle" transform="scale(1,-1)" x="8050.0" y="-2448.0">
                sb_1__0_
                <tspan dy="1.2em" x="8050.0" y="-2448.0">[sb_1__0_]</tspan>
                <tspan dy="2.4em" x="8050.0" y="-2448.0">1.3x0.1[208.33%] </tspan>
            </text>
            <text alignment-baseline="middle" fill="black" text-anchor="middle" transform="scale(1,-1)" x="14030.0" y="-2448.0">
                sb_2__0_
                <tspan dy="1.2em" x="14030.0" y="-2448.0">[sb_1__0_]</tspan>
                <tspan dy="2.4em" x="14030.0" y="-2448.0">1.3x0.1[208.33%] </tspan>
            </text>
            <text alignment-baseline="middle" fill="black" text-anchor="middle" transform="scale(1,-1)" x="20010.0" y="-2448.0">
                sb_3__0_
                <tspan dy="1.2em" x="20010.0" y="-2448.0">[sb_1__0_]</tspan>
                <tspan dy="2.4em" x="20010.0" y="-2448.0">1.3x0.1[208.33%] </tspan>
            </text>
            <text alignment-baseline="middle" fill="black" text-anchor="middle" transform="scale(1,-1)" x="8050.0" y="-9520.0">
                sb_1__1_
                <tspan dy="1.2em" x="8050.0" y="-9520.0">[sb_1__1_]</tspan>
                <tspan dy="2.4em" x="8050.0" y="-9520.0">1.5x0.1[303.03%] </tspan>
            </text>
            <text alignment-baseline="middle" fill="black" text-anchor="middle" transform="scale(1,-1)" x="8050.0" y="-16592.0">
                sb_1__2_
                <tspan dy="1.2em" x="8050.0" y="-16592.0">[sb_1__1_]</tspan>
                <tspan dy="2.4em" x="8050.0" y="-16592.0">1.5x0.1[303.03%] </tspan>
            </text>
            <text alignment-baseline="middle" fill="black" text-anchor="middle" transform="scale(1,-1)" x="8050.0" y="-23664.0">
                sb_1__3_
                <tspan dy="1.2em" x="8050.0" y="-23664.0">[sb_1__1_]</tspan>
                <tspan dy="2.4em" x="8050.0" y="-23664.0">1.5x0.1[303.03%] </tspan>
            </text>
            <text alignment-baseline="middle" fill="black" text-anchor="middle" transform="scale(1,-1)" x="14030.0" y="-9520.0">
                sb_2__1_
                <tspan dy="1.2em" x="14030.0" y="-9520.0">[sb_1__1_]</tspan>
                <tspan dy="2.4em" x="14030.0" y="-9520.0">1.5x0.1[303.03%] </tspan>
            </text>
            <text alignment-baseline="middle" fill="black" text-anchor="middle" transform="scale(1,-1)" x="14030.0" y="-16592.0">
                sb_2__2_
                <tspan dy="1.2em" x="14030.0" y="-16592.0">[sb_1__1_]</tspan>
                <tspan dy="2.4em" x="14030.0" y="-16592.0">1.5x0.1[303.03%] </tspan>
            </text>
            <text alignment-baseline="middle" fill="black" text-anchor="middle" transform="scale(1,-1)" x="14030.0" y="-23664.0">
                sb_2__3_
                <tspan dy="1.2em" x="14030.0" y="-23664.0">[sb_1__1_]</tspan>
                <tspan dy="2.4em" x="14030.0" y="-23664.0">1.5x0.1[303.03%] </tspan>
            </text>
            <text alignment-baseline="middle" fill="black" text-anchor="middle" transform="scale(1,-1)" x="20010.0" y="-9520.0">
                sb_3__1_
                <tspan dy="1.2em" x="20010.0" y="-9520.0">[sb_1__1_]</tspan>
                <tspan dy="2.4em" x="20010.0" y="-9520.0">1.5x0.1[303.03%] </tspan>
            </text>
            <text alignment-baseline="middle" fill="black" text-anchor="middle" transform="scale(1,-1)" x="20010.0" y="-16592.0">
                sb_3__2_
                <tspan dy="1.2em" x="20010.0" y="-16592.0">[sb_1__1_]</tspan>
                <tspan dy="2.4em" x="20010.0" y="-16592.0">1.5x0.1[303.03%] </tspan>
            </text>
            <text alignment-baseline="middle" fill="black" text-anchor="middle" transform="scale(1,-1)" x="20010.0" y="-23664.0">
                sb_3__3_
                <tspan dy="1.2em" x="20010.0" y="-23664.0">[sb_1__1_]</tspan>
                <tspan dy="2.4em" x="20010.0" y="-23664.0">1.5x0.1[303.03%] </tspan>
            </text>
            <text alignment-baseline="middle" fill="black" text-anchor="middle" transform="scale(1,-1)" x="8050.0" y="-30736.0">
                sb_1__4_
                <tspan dy="1.2em" x="8050.0" y="-30736.0">[sb_1__4_]</tspan>
                <tspan dy="2.4em" x="8050.0" y="-30736.0">1.3x0.1[208.33%] </tspan>
            </text>
            <text alignment-baseline="middle" fill="black" text-anchor="middle" transform="scale(1,-1)" x="14030.0" y="-30736.0">
                sb_2__4_
                <tspan dy="1.2em" x="14030.0" y="-30736.0">[sb_1__4_]</tspan>
                <tspan dy="2.4em" x="14030.0" y="-30736.0">1.3x0.1[208.33%] </tspan>
            </text>
            <text alignment-baseline="middle" fill="black" text-anchor="middle" transform="scale(1,-1)" x="20010.0" y="-30736.0">
                sb_3__4_
                <tspan dy="1.2em" x="20010.0" y="-30736.0">[sb_1__4_]</tspan>
                <tspan dy="2.4em" x="20010.0" y="-30736.0">1.3x0.1[208.33%] </tspan>
            </text>
            <text alignment-baseline="middle" fill="black" text-anchor="middle" transform="scale(1,-1)" x="25875.0" y="-2176.0">
                sb_4__0_
                <tspan dy="1.2em" x="25875.0" y="-2176.0">[sb_4__0_]</tspan>
                <tspan dy="2.4em" x="25875.0" y="-2176.0">1.2x0.0[63.49%] </tspan>
            </text>
            <text alignment-baseline="middle" fill="black" text-anchor="middle" transform="scale(1,-1)" x="25760.0" y="-9520.0">
                sb_4__1_
                <tspan dy="1.2em" x="25760.0" y="-9520.0">[sb_4__1_]</tspan>
                <tspan dy="2.4em" x="25760.0" y="-9520.0">1.3x0.0[288.46%] </tspan>
            </text>
            <text alignment-baseline="middle" fill="black" text-anchor="middle" transform="scale(1,-1)" x="25760.0" y="-16592.0">
                sb_4__2_
                <tspan dy="1.2em" x="25760.0" y="-16592.0">[sb_4__1_]</tspan>
                <tspan dy="2.4em" x="25760.0" y="-16592.0">1.3x0.0[288.46%] </tspan>
            </text>
            <text alignment-baseline="middle" fill="black" text-anchor="middle" transform="scale(1,-1)" x="25760.0" y="-23664.0">
                sb_4__3_
                <tspan dy="1.2em" x="25760.0" y="-23664.0">[sb_4__1_]</tspan>
                <tspan dy="2.4em" x="25760.0" y="-23664.0">1.3x0.0[288.46%] </tspan>
            </text>
            <text alignment-baseline="middle" fill="black" text-anchor="middle" transform="scale(1,-1)" x="25875.0" y="-31008.0">
                sb_4__4_
                <tspan dy="1.2em" x="25875.0" y="-31008.0">[sb_4__4_]</tspan>
                <tspan dy="2.4em" x="25875.0" y="-31008.0">1.2x0.0[79.37%] </tspan>
            </text>
            <text alignment-baseline="middle" fill="black" text-anchor="middle" transform="scale(1,-1)" x="5060.0" y="-9520.0">
                cbx_1__1_
                <tspan dy="1.2em" x="5060.0" y="-9520.0">[cbx_1__1_]</tspan>
                <tspan dy="2.4em" x="5060.0" y="-9520.0">44.0x6.0[568.18%] </tspan>
            </text>
            <text alignment-baseline="middle" fill="black" text-anchor="middle" transform="scale(1,-1)" x="5060.0" y="-16592.0">
                cbx_1__2_
                <tspan dy="1.2em" x="5060.0" y="-16592.0">[cbx_1__1_]</tspan>
                <tspan dy="2.4em" x="5060.0" y="-16592.0">44.0x6.0[568.18%] </tspan>
            </text>
            <text alignment-baseline="middle" fill="black" text-anchor="middle" transform="scale(1,-1)" x="5060.0" y="-23664.0">
                cbx_1__3_
                <tspan dy="1.2em" x="5060.0" y="-23664.0">[cbx_1__1_]</tspan>
                <tspan dy="2.4em" x="5060.0" y="-23664.0">44.0x6.0[568.18%] </tspan>
            </text>
            <text alignment-baseline="middle" fill="black" text-anchor="middle" transform="scale(1,-1)" x="11040.0" y="-9520.0">
                cbx_2__1_
                <tspan dy="1.2em" x="11040.0" y="-9520.0">[cbx_1__1_]</tspan>
                <tspan dy="2.4em" x="11040.0" y="-9520.0">44.0x6.0[568.18%] </tspan>
            </text>
            <text alignment-baseline="middle" fill="black" text-anchor="middle" transform="scale(1,-1)" x="11040.0" y="-16592.0">
                cbx_2__2_
                <tspan dy="1.2em" x="11040.0" y="-16592.0">[cbx_1__1_]</tspan>
                <tspan dy="2.4em" x="11040.0" y="-16592.0">44.0x6.0[568.18%] </tspan>
            </text>
            <text alignment-baseline="middle" fill="black" text-anchor="middle" transform="scale(1,-1)" x="11040.0" y="-23664.0">
                cbx_2__3_
                <tspan dy="1.2em" x="11040.0" y="-23664.0">[cbx_1__1_]</tspan>
                <tspan dy="2.4em" x="11040.0" y="-23664.0">44.0x6.0[568.18%] </tspan>
            </text>
            <text alignment-baseline="middle" fill="black" text-anchor="middle" transform="scale(1,-1)" x="17020.0" y="-9520.0">
                cbx_3__1_
                <tspan dy="1.2em" x="17020.0" y="-9520.0">[cbx_1__1_]</tspan>
                <tspan dy="2.4em" x="17020.0" y="-9520.0">44.0x6.0[568.18%] </tspan>
            </text>
            <text alignment-baseline="middle" fill="black" text-anchor="middle" transform="scale(1,-1)" x="17020.0" y="-16592.0">
                cbx_3__2_
                <tspan dy="1.2em" x="17020.0" y="-16592.0">[cbx_1__1_]</tspan>
                <tspan dy="2.4em" x="17020.0" y="-16592.0">44.0x6.0[568.18%] </tspan>
            </text>
            <text alignment-baseline="middle" fill="black" text-anchor="middle" transform="scale(1,-1)" x="17020.0" y="-23664.0">
                cbx_3__3_
                <tspan dy="1.2em" x="17020.0" y="-23664.0">[cbx_1__1_]</tspan>
                <tspan dy="2.4em" x="17020.0" y="-23664.0">44.0x6.0[568.18%] </tspan>
            </text>
            <text alignment-baseline="middle" fill="black" text-anchor="middle" transform="scale(1,-1)" x="23000.0" y="-9520.0">
                cbx_4__1_
                <tspan dy="1.2em" x="23000.0" y="-9520.0">[cbx_1__1_]</tspan>
                <tspan dy="2.4em" x="23000.0" y="-9520.0">44.0x6.0[568.18%] </tspan>
            </text>
            <text alignment-baseline="middle" fill="black" text-anchor="middle" transform="scale(1,-1)" x="23000.0" y="-16592.0">
                cbx_4__2_
                <tspan dy="1.2em" x="23000.0" y="-16592.0">[cbx_1__1_]</tspan>
                <tspan dy="2.4em" x="23000.0" y="-16592.0">44.0x6.0[568.18%] </tspan>
            </text>
            <text alignment-baseline="middle" fill="black" text-anchor="middle" transform="scale(1,-1)" x="23000.0" y="-23664.0">
                cbx_4__3_
                <tspan dy="1.2em" x="23000.0" y="-23664.0">[cbx_1__1_]</tspan>
                <tspan dy="2.4em" x="23000.0" y="-23664.0">44.0x6.0[568.18%] </tspan>
            </text>
            <text alignment-baseline="middle" fill="black" text-anchor="middle" transform="scale(1,-1)" x="8050.0" y="-5984.0">
                cby_1__1_
                <tspan dy="1.2em" x="8050.0" y="-5984.0">[cby_1__1_]</tspan>
                <tspan dy="2.4em" x="8050.0" y="-5984.0">30.0x10.0[500.00%] </tspan>
            </text>
            <text alignment-baseline="middle" fill="black" text-anchor="middle" transform="scale(1,-1)" x="8050.0" y="-13056.0">
                cby_1__2_
                <tspan dy="1.2em" x="8050.0" y="-13056.0">[cby_1__1_]</tspan>
                <tspan dy="2.4em" x="8050.0" y="-13056.0">30.0x10.0[500.00%] </tspan>
            </text>
            <text alignment-baseline="middle" fill="black" text-anchor="middle" transform="scale(1,-1)" x="8050.0" y="-20128.0">
                cby_1__3_
                <tspan dy="1.2em" x="8050.0" y="-20128.0">[cby_1__1_]</tspan>
                <tspan dy="2.4em" x="8050.0" y="-20128.0">30.0x10.0[500.00%] </tspan>
            </text>
            <text alignment-baseline="middle" fill="black" text-anchor="middle" transform="scale(1,-1)" x="8050.0" y="-27200.0">
                cby_1__4_
                <tspan dy="1.2em" x="8050.0" y="-27200.0">[cby_1__1_]</tspan>
                <tspan dy="2.4em" x="8050.0" y="-27200.0">30.0x10.0[500.00%] </tspan>
            </text>
            <text alignment-baseline="middle" fill="black" text-anchor="middle" transform="scale(1,-1)" x="14030.0" y="-5984.0">
                cby_2__1_
                <tspan dy="1.2em" x="14030.0" y="-5984.0">[cby_1__1_]</tspan>
                <tspan dy="2.4em" x="14030.0" y="-5984.0">30.0x10.0[500.00%] </tspan>
            </text>
            <text alignment-baseline="middle" fill="black" text-anchor="middle" transform="scale(1,-1)" x="14030.0" y="-13056.0">
                cby_2__2_
                <tspan dy="1.2em" x="14030.0" y="-13056.0">[cby_1__1_]</tspan>
                <tspan dy="2.4em" x="14030.0" y="-13056.0">30.0x10.0[500.00%] </tspan>
            </text>
            <text alignment-baseline="middle" fill="black" text-anchor="middle" transform="scale(1,-1)" x="14030.0" y="-20128.0">
                cby_2__3_
                <tspan dy="1.2em" x="14030.0" y="-20128.0">[cby_1__1_]</tspan>
                <tspan dy="2.4em" x="14030.0" y="-20128.0">30.0x10.0[500.00%] </tspan>
            </text>
            <text alignment-baseline="middle" fill="black" text-anchor="middle" transform="scale(1,-1)" x="14030.0" y="-27200.0">
                cby_2__4_
                <tspan dy="1.2em" x="14030.0" y="-27200.0">[cby_1__1_]</tspan>
                <tspan dy="2.4em" x="14030.0" y="-27200.0">30.0x10.0[500.00%] </tspan>
            </text>
            <text alignment-baseline="middle" fill="black" text-anchor="middle" transform="scale(1,-1)" x="20010.0" y="-5984.0">
                cby_3__1_
                <tspan dy="1.2em" x="20010.0" y="-5984.0">[cby_1__1_]</tspan>
                <tspan dy="2.4em" x="20010.0" y="-5984.0">30.0x10.0[500.00%] </tspan>
            </text>
            <text alignment-baseline="middle" fill="black" text-anchor="middle" transform="scale(1,-1)" x="20010.0" y="-13056.0">
                cby_3__2_
                <tspan dy="1.2em" x="20010.0" y="-13056.0">[cby_1__1_]</tspan>
                <tspan dy="2.4em" x="20010.0" y="-13056.0">30.0x10.0[500.00%] </tspan>
            </text>
            <text alignment-baseline="middle" fill="black" text-anchor="middle" transform="scale(1,-1)" x="20010.0" y="-20128.0">
                cby_3__3_
                <tspan dy="1.2em" x="20010.0" y="-20128.0">[cby_1__1_]</tspan>
                <tspan dy="2.4em" x="20010.0" y="-20128.0">30.0x10.0[500.00%] </tspan>
            </text>
            <text alignment-baseline="middle" fill="black" text-anchor="middle" transform="scale(1,-1)" x="20010.0" y="-27200.0">
                cby_3__4_
                <tspan dy="1.2em" x="20010.0" y="-27200.0">[cby_1__1_]</tspan>
                <tspan dy="2.4em" x="20010.0" y="-27200.0">30.0x10.0[500.00%] </tspan>
            </text>
            <text alignment-baseline="middle" fill="black" text-anchor="middle" transform="scale(1,-1)" x="1840.0" y="-5984.0">
                cby_0__1_
                <tspan dy="1.2em" x="1840.0" y="-5984.0">[cby_0__1_]</tspan>
                <tspan dy="2.4em" x="1840.0" y="-5984.0">40.0x14.0[267.86%] </tspan>
            </text>
            <text alignment-baseline="middle" fill="black" text-anchor="middle" transform="scale(1,-1)" x="1840.0" y="-13056.0">
                cby_0__2_
                <tspan dy="1.2em" x="1840.0" y="-13056.0">[cby_0__1_]</tspan>
                <tspan dy="2.4em" x="1840.0" y="-13056.0">40.0x14.0[267.86%] </tspan>
            </text>
            <text alignment-baseline="middle" fill="black" text-anchor="middle" transform="scale(1,-1)" x="1840.0" y="-20128.0">
                cby_0__3_
                <tspan dy="1.2em" x="1840.0" y="-20128.0">[cby_0__1_]</tspan>
                <tspan dy="2.4em" x="1840.0" y="-20128.0">40.0x14.0[267.86%] </tspan>
            </text>
            <text alignment-baseline="middle" fill="black" text-anchor="middle" transform="scale(1,-1)" x="1840.0" y="-27200.0">
                cby_0__4_
                <tspan dy="1.2em" x="1840.0" y="-27200.0">[cby_0__1_]</tspan>
                <tspan dy="2.4em" x="1840.0" y="-27200.0">40.0x14.0[267.86%] </tspan>
            </text>
            <text alignment-baseline="middle" fill="black" text-anchor="middle" transform="scale(1,-1)" x="5060.0" y="-31280.0">
                cbx_1__4_
                <tspan dy="1.2em" x="5060.0" y="-31280.0">[cbx_1__4_]</tspan>
                <tspan dy="2.4em" x="5060.0" y="-31280.0">54.0x10.0[277.78%] </tspan>
            </text>
            <text alignment-baseline="middle" fill="black" text-anchor="middle" transform="scale(1,-1)" x="11040.0" y="-31280.0">
                cbx_2__4_
                <tspan dy="1.2em" x="11040.0" y="-31280.0">[cbx_1__4_]</tspan>
                <tspan dy="2.4em" x="11040.0" y="-31280.0">54.0x10.0[277.78%] </tspan>
            </text>
            <text alignment-baseline="middle" fill="black" text-anchor="middle" transform="scale(1,-1)" x="17020.0" y="-31280.0">
                cbx_3__4_
                <tspan dy="1.2em" x="17020.0" y="-31280.0">[cbx_1__4_]</tspan>
                <tspan dy="2.4em" x="17020.0" y="-31280.0">54.0x10.0[277.78%] </tspan>
            </text>
            <text alignment-baseline="middle" fill="black" text-anchor="middle" transform="scale(1,-1)" x="23000.0" y="-31280.0">
                cbx_4__4_
                <tspan dy="1.2em" x="23000.0" y="-31280.0">[cbx_1__4_]</tspan>
                <tspan dy="2.4em" x="23000.0" y="-31280.0">54.0x10.0[277.78%] </tspan>
            </text>
            <text alignment-baseline="middle" fill="black" text-anchor="middle" transform="scale(1,-1)" x="26220.0" y="-27200.0">
                cby_4__4_
                <tspan dy="1.2em" x="26220.0" y="-27200.0">[cby_4__1_]</tspan>
                <tspan dy="2.4em" x="26220.0" y="-27200.0">40.0x14.0[267.86%] </tspan>
            </text>
            <text alignment-baseline="middle" fill="black" text-anchor="middle" transform="scale(1,-1)" x="26220.0" y="-20128.0">
                cby_4__3_
                <tspan dy="1.2em" x="26220.0" y="-20128.0">[cby_4__1_]</tspan>
                <tspan dy="2.4em" x="26220.0" y="-20128.0">40.0x14.0[267.86%] </tspan>
            </text>
            <text alignment-baseline="middle" fill="black" text-anchor="middle" transform="scale(1,-1)" x="26220.0" y="-13056.0">
                cby_4__2_
                <tspan dy="1.2em" x="26220.0" y="-13056.0">[cby_4__1_]</tspan>
                <tspan dy="2.4em" x="26220.0" y="-13056.0">40.0x14.0[267.86%] </tspan>
            </text>
            <text alignment-baseline="middle" fill="black" text-anchor="middle" transform="scale(1,-1)" x="26220.0" y="-5984.0">
                cby_4__1_
                <tspan dy="1.2em" x="26220.0" y="-5984.0">[cby_4__1_]</tspan>
                <tspan dy="2.4em" x="26220.0" y="-5984.0">40.0x14.0[267.86%] </tspan>
            </text>
            <text alignment-baseline="middle" fill="black" text-anchor="middle" transform="scale(1,-1)" x="23000.0" y="-1904.0">
                cbx_4__0_
                <tspan dy="1.2em" x="23000.0" y="-1904.0">[cbx_1__0_]</tspan>
                <tspan dy="2.4em" x="23000.0" y="-1904.0">54.0x10.0[277.78%] </tspan>
            </text>
            <text alignment-baseline="middle" fill="black" text-anchor="middle" transform="scale(1,-1)" x="17020.0" y="-1904.0">
                cbx_3__0_
                <tspan dy="1.2em" x="17020.0" y="-1904.0">[cbx_1__0_]</tspan>
                <tspan dy="2.4em" x="17020.0" y="-1904.0">54.0x10.0[277.78%] </tspan>
            </text>
            <text alignment-baseline="middle" fill="black" text-anchor="middle" transform="scale(1,-1)" x="11040.0" y="-1904.0">
                cbx_2__0_
                <tspan dy="1.2em" x="11040.0" y="-1904.0">[cbx_1__0_]</tspan>
                <tspan dy="2.4em" x="11040.0" y="-1904.0">54.0x10.0[277.78%] </tspan>
            </text>
            <text alignment-baseline="middle" fill="black" text-anchor="middle" transform="scale(1,-1)" x="5060.0" y="-1904.0">
                cbx_1__0_
                <tspan dy="1.2em" x="5060.0" y="-1904.0">[cbx_1__0_]</tspan>
                <tspan dy="2.4em" x="5060.0" y="-1904.0">54.0x10.0[277.78%] </tspan>
            </text>
        </g>
        <g id="edges" transform="scale(1,-1)"/>
    </g>
    <rect class="origin" height="10" width="10" x="0" y="0"/>
    <g id="mainShapes" transform="scale(1,-1)">
        <line stroke="red" stroke-width="1" x1="920" x2="27140" y1="544" y2="544"/>
        <line stroke="red" stroke-width="1" x1="920" x2="27140" y1="3264" y2="3264"/>
        <line stroke="red" stroke-width="1" x1="920" x2="27140" y1="8704" y2="8704"/>
        <line stroke="red" stroke-width="1" x1="920" x2="27140" y1="10336" y2="10336"/>
        <line stroke="red" stroke-width="1" x1="920" x2="27140" y1="15776" y2="15776"/>
        <line stroke="red" stroke-width="1" x1="920" x2="27140" y1="17408" y2="17408"/>
        <line stroke="red" stroke-width="1" x1="920" x2="27140" y1="22848" y2="22848"/>
        <line stroke="red" stroke-width="1" x1="920" x2="27140" y1="24480" y2="24480"/>
        <line stroke="red" stroke-width="1" x1="920" x2="27140" y1="29920" y2="29920"/>
        <line stroke="red" stroke-width="1" x1="920" x2="27140" y1="32640" y2="32640"/>
        <line stroke="red" stroke-width="1" x1="920" x2="920" y1="544" y2="32640"/>
        <line stroke="red" stroke-width="1" x1="2760" x2="2760" y1="544" y2="32640"/>
        <line stroke="red" stroke-width="1" x1="7360" x2="7360" y1="544" y2="32640"/>
        <line stroke="red" stroke-width="1" x1="8740" x2="8740" y1="544" y2="32640"/>
        <line stroke="red" stroke-width="1" x1="13340" x2="13340" y1="544" y2="32640"/>
        <line stroke="red" stroke-width="1" x1="14720" x2="14720" y1="544" y2="32640"/>
        <line stroke="red" stroke-width="1" x1="19320" x2="19320" y1="544" y2="32640"/>
        <line stroke="red" stroke-width="1" x1="20700" x2="20700" y1="544" y2="32640"/>
        <line stroke="red" stroke-width="1" x1="25300" x2="25300" y1="544" y2="32640"/>
        <line stroke="red" stroke-width="1" x1="27140" x2="27140" y1="544" y2="32640"/>
    </g>
    <g id="main_shapes">
        <use id="sb_0__0_" x="10" xlink:href="#sb01" y="10"/>
        <use id="cby_0__1_" x="10" xlink:href="#cby" y="14.0"/>
        <use id="sb_0__1_" x="10" xlink:href="#sb02" y="24"/>
        <use id="cby_0__2_" x="10" xlink:href="#cby" y="28.0"/>
        <use id="sb_0__2_" x="10" xlink:href="#sb02" y="38"/>
        <use id="cby_0__3_" x="10" xlink:href="#cby" y="42.0"/>
        <use id="sb_0__3_" x="10" xlink:href="#sb02" y="52"/>
        <use id="cby_0__4_" x="10" xlink:href="#cby" y="56.0"/>
        <use id="sb_0__4_" x="10" xlink:href="#sb03" y="66"/>
        <use id="cbx_1__0_" x="14.0" xlink:href="#cbx" y="10"/>
        <use id="clb_1__1_" x="14.0" xlink:href="#clb" y="14.0"/>
        <use id="cbx_1__1_" x="14.0" xlink:href="#cbx" y="24"/>
        <use id="clb_1__2_" x="14.0" xlink:href="#clb" y="28.0"/>
        <use id="cbx_1__2_" x="14.0" xlink:href="#cbx" y="38"/>
        <use id="clb_1__3_" x="14.0" xlink:href="#clb" y="42.0"/>
        <use id="cbx_1__3_" x="14.0" xlink:href="#cbx" y="52"/>
        <use id="clb_1__4_" x="14.0" xlink:href="#clb" y="56.0"/>
        <use id="cbx_1__4_" x="14.0" xlink:href="#cbx" y="66"/>
        <use id="sb_1__0_" x="24" xlink:href="#sb08" y="10"/>
        <use id="cby_1__1_" x="24" xlink:href="#cby" y="14.0"/>
        <use id="sb_1__1_" x="24" xlink:href="#sb00" y="24"/>
        <use id="cby_1__2_" x="24" xlink:href="#cby" y="28.0"/>
        <use id="sb_1__2_" x="24" xlink:href="#sb00" y="38"/>
        <use id="cby_1__3_" x="24" xlink:href="#cby" y="42.0"/>
        <use id="sb_1__3_" x="24" xlink:href="#sb00" y="52"/>
        <use id="cby_1__4_" x="24" xlink:href="#cby" y="56.0"/>
        <use id="sb_1__4_" x="24" xlink:href="#sb04" y="66"/>
        <use id="cbx_2__0_" x="28.0" xlink:href="#cbx" y="10"/>
        <use id="clb_2__1_" x="28.0" xlink:href="#clb" y="14.0"/>
        <use id="cbx_2__1_" x="28.0" xlink:href="#cbx" y="24"/>
        <use id="clb_2__2_" x="28.0" xlink:href="#clb" y="28.0"/>
        <use id="cbx_2__2_" x="28.0" xlink:href="#cbx" y="38"/>
        <use id="clb_2__3_" x="28.0" xlink:href="#clb" y="42.0"/>
        <use id="cbx_2__3_" x="28.0" xlink:href="#cbx" y="52"/>
        <use id="clb_2__4_" x="28.0" xlink:href="#clb" y="56.0"/>
        <use id="cbx_2__4_" x="28.0" xlink:href="#cbx" y="66"/>
        <use id="sb_2__0_" x="38" xlink:href="#sb08" y="10"/>
        <use id="cby_2__1_" x="38" xlink:href="#cby" y="14.0"/>
        <use id="sb_2__1_" x="38" xlink:href="#sb00" y="24"/>
        <use id="cby_2__2_" x="38" xlink:href="#cby" y="28.0"/>
        <use id="sb_2__2_" x="38" xlink:href="#sb00" y="38"/>
        <use id="cby_2__3_" x="38" xlink:href="#cby" y="42.0"/>
        <use id="sb_2__3_" x="38" xlink:href="#sb00" y="52"/>
        <use id="cby_2__4_" x="38" xlink:href="#cby" y="56.0"/>
        <use id="sb_2__4_" x="38" xlink:href="#sb04" y="66"/>
        <use id="cbx_3__0_" x="42.0" xlink:href="#cbx" y="10"/>
        <use id="clb_3__1_" x="42.0" xlink:href="#clb" y="14.0"/>
        <use id="cbx_3__1_" x="42.0" xlink:href="#cbx" y="24"/>
        <use id="clb_3__2_" x="42.0" xlink:href="#clb" y="28.0"/>
        <use id="cbx_3__2_" x="42.0" xlink:href="#cbx" y="38"/>
        <use id="clb_3__3_" x="42.0" xlink:href="#clb" y="42.0"/>
        <use id="cbx_3__3_" x="42.0" xlink:href="#cbx" y="52"/>
        <use id="clb_3__4_" x="42.0" xlink:href="#clb" y="56.0"/>
        <use id="cbx_3__4_" x="42.0" xlink:href="#cbx" y="66"/>
        <use id="sb_3__0_" x="52" xlink:href="#sb08" y="10"/>
        <use id="cby_3__1_" x="52" xlink:href="#cby" y="14.0"/>
        <use id="sb_3__1_" x="52" xlink:href="#sb00" y="24"/>
        <use id="cby_3__2_" x="52" xlink:href="#cby" y="28.0"/>
        <use id="sb_3__2_" x="52" xlink:href="#sb00" y="38"/>
        <use id="cby_3__3_" x="52" xlink:href="#cby" y="42.0"/>
        <use id="sb_3__3_" x="52" xlink:href="#sb00" y="52"/>
        <use id="cby_3__4_" x="52" xlink:href="#cby" y="56.0"/>
        <use id="sb_3__4_" x="52" xlink:href="#sb04" y="66"/>
        <use id="cbx_4__0_" x="56.0" xlink:href="#cbx" y="10"/>
        <use id="clb_4__1_" x="56.0" xlink:href="#clb" y="14.0"/>
        <use id="cbx_4__1_" x="56.0" xlink:href="#cbx" y="24"/>
        <use id="clb_4__2_" x="56.0" xlink:href="#clb" y="28.0"/>
        <use id="cbx_4__2_" x="56.0" xlink:href="#cbx" y="38"/>
        <use id="clb_4__3_" x="56.0" xlink:href="#clb" y="42.0"/>
        <use id="cbx_4__3_" x="56.0" xlink:href="#cbx" y="52"/>
        <use id="clb_4__4_" x="56.0" xlink:href="#clb" y="56.0"/>
        <use id="cbx_4__4_" x="56.0" xlink:href="#cbx" y="66"/>
        <use id="sb_4__0_" x="66" xlink:href="#sb07" y="10"/>
        <use id="cby_4__1_" x="66" xlink:href="#cby" y="14.0"/>
        <use id="sb_4__1_" x="66" xlink:href="#sb06" y="24"/>
        <use id="cby_4__2_" x="66" xlink:href="#cby" y="28.0"/>
        <use id="sb_4__2_" x="66" xlink:href="#sb06" y="38"/>
        <use id="cby_4__3_" x="66" xlink:href="#cby" y="42.0"/>
        <use id="sb_4__3_" x="66" xlink:href="#sb06" y="52"/>
        <use id="cby_4__4_" x="66" xlink:href="#cby" y="56.0"/>
        <use id="sb_4__4_" x="66" xlink:href="#sb05" y="66"/>
    </g>
</svg>
