<?xml version="1.0" encoding="utf-8" ?>
<svg xmlns="http://www.w3.org/2000/svg" xmlns:ev="http://www.w3.org/2001/xml-events" xmlns:xlink="http://www.w3.org/1999/xlink" baseProfile="full" height="200" version="1.1" viewBox="0,-170.0,160,200" width="160">
    <defs id="id16">
        <style type="text/css"><![CDATA[
                text{font-family: Verdana;}
                svgg{background-color:grey;}
                .connection{stroke-linecap:round; opacity: 0.7; stroke-width:1.2;}
                span{text-anchor: "middle"; alignment_baseline: "middle"}
                .gridLabels{fill: grey;font-style: italic;font-weight: 900}
                # core_boundary{stroke:grey; stroke-width:0.5;}
                .gridmarker{stroke:red; stroke-width:0.2; opacity: 0.7;}
                ]]></style>
        <marker id="id15" markerHeight="10" markerUnits="strokeWidth" markerWidth="8" orient="auto" refX="30" refY="30" viewBox="0 0 120 120">
            <path d="M 0 0 L 60 30 L 0 60 z" fill="blue"/>
        </marker>
    </defs>
    <g id="markers" transform="scale(1,-1)">
        <line class="gridmarker" x1="10.0" x2="10.0" y1="10.0" y2="150.0"/>
        <line class="gridmarker" x1="30.0" x2="30.0" y1="10.0" y2="150.0"/>
        <line class="gridmarker" x1="50.0" x2="50.0" y1="10.0" y2="150.0"/>
        <line class="gridmarker" x1="70.0" x2="70.0" y1="10.0" y2="150.0"/>
        <line class="gridmarker" x1="90.0" x2="90.0" y1="10.0" y2="150.0"/>
        <line class="gridmarker" x1="110.0" x2="110.0" y1="10.0" y2="150.0"/>
        <line class="gridmarker" x1="130.0" x2="130.0" y1="10.0" y2="150.0"/>
        <line class="gridmarker" x1="150.0" x2="150.0" y1="10.0" y2="150.0"/>
        <line class="gridmarker" x1="10.0" x2="150.0" y1="10.0" y2="10.0"/>
        <line class="gridmarker" x1="10.0" x2="150.0" y1="30.0" y2="30.0"/>
        <line class="gridmarker" x1="10.0" x2="150.0" y1="50.0" y2="50.0"/>
        <line class="gridmarker" x1="10.0" x2="150.0" y1="70.0" y2="70.0"/>
        <line class="gridmarker" x1="10.0" x2="150.0" y1="90.0" y2="90.0"/>
        <line class="gridmarker" x1="10.0" x2="150.0" y1="110.0" y2="110.0"/>
        <line class="gridmarker" x1="10.0" x2="150.0" y1="130.0" y2="130.0"/>
        <line class="gridmarker" x1="10.0" x2="150.0" y1="150.0" y2="150.0"/>
    </g>
    <g id="main" transform="scale(1,-1)">
        <line class="connection" marker-end="url(#id15)" stroke=" black" x1="80" x2="80" y1="0" y2="20"/>
        <line class="connection" marker-end="url(#id15)" stroke=" black" x1="80" x2="80" y1="20" y2="40"/>
        <line class="connection" marker-end="url(#id15)" stroke=" black" x1="80" x2="80" y1="40" y2="60"/>
        <line class="connection" marker-end="url(#id15)" stroke=" black" x1="80" x2="80" y1="60" y2="80"/>
        <line class="connection" marker-end="url(#id15)" stroke=" black" x1="80" x2="100" y1="80" y2="80"/>
        <line class="connection" marker-end="url(#id15)" stroke=" black" x1="100" x2="120" y1="80" y2="80"/>
        <line class="connection" marker-end="url(#id15)" stroke=" black" x1="120" x2="120" y1="80" y2="100"/>
        <line class="connection" marker-end="url(#id15)" stroke=" black" x1="120" x2="120" y1="100" y2="120"/>
        <line class="connection" marker-end="url(#id15)" stroke=" black" x1="120" x2="120" y1="80" y2="60"/>
        <line class="connection" marker-end="url(#id15)" stroke=" black" x1="120" x2="120" y1="60" y2="40"/>
        <line class="connection" marker-end="url(#id15)" stroke=" black" x1="80" x2="60" y1="80" y2="80"/>
        <line class="connection" marker-end="url(#id15)" stroke=" black" x1="60" x2="40" y1="80" y2="80"/>
        <line class="connection" marker-end="url(#id15)" stroke=" black" x1="40" x2="40" y1="80" y2="100"/>
        <line class="connection" marker-end="url(#id15)" stroke=" black" x1="40" x2="40" y1="100" y2="120"/>
        <line class="connection" marker-end="url(#id15)" stroke=" black" x1="40" x2="40" y1="80" y2="60"/>
        <line class="connection" marker-end="url(#id15)" stroke=" black" x1="40" x2="40" y1="60" y2="40"/>
        <line class="connection" marker-end="url(#id15)" stroke=" black" x1="40" x2="60" y1="40" y2="40"/>
        <line class="connection" marker-end="url(#id15)" stroke=" black" x1="60" x2="60" y1="40" y2="60"/>
        <line class="connection" marker-end="url(#id15)" stroke=" black" x1="60" x2="60" y1="40" y2="20"/>
        <line class="connection" marker-end="url(#id15)" stroke=" black" x1="40" x2="20" y1="40" y2="40"/>
        <line class="connection" marker-end="url(#id15)" stroke=" black" x1="20" x2="20" y1="40" y2="60"/>
        <line class="connection" marker-end="url(#id15)" stroke=" black" x1="20" x2="20" y1="40" y2="20"/>
        <line class="connection" marker-end="url(#id15)" stroke=" black" x1="120" x2="140" y1="40" y2="40"/>
        <line class="connection" marker-end="url(#id15)" stroke=" black" x1="140" x2="140" y1="40" y2="60"/>
        <line class="connection" marker-end="url(#id15)" stroke=" black" x1="140" x2="140" y1="40" y2="20"/>
        <line class="connection" marker-end="url(#id15)" stroke=" black" x1="120" x2="100" y1="40" y2="40"/>
        <line class="connection" marker-end="url(#id15)" stroke=" black" x1="100" x2="100" y1="40" y2="60"/>
        <line class="connection" marker-end="url(#id15)" stroke=" black" x1="100" x2="100" y1="40" y2="20"/>
        <line class="connection" marker-end="url(#id15)" stroke=" black" x1="120" x2="140" y1="120" y2="120"/>
        <line class="connection" marker-end="url(#id15)" stroke=" black" x1="140" x2="140" y1="120" y2="140"/>
        <line class="connection" marker-end="url(#id15)" stroke=" black" x1="140" x2="140" y1="120" y2="100"/>
        <line class="connection" marker-end="url(#id15)" stroke=" black" x1="120" x2="100" y1="120" y2="120"/>
        <line class="connection" marker-end="url(#id15)" stroke=" black" x1="100" x2="100" y1="120" y2="140"/>
        <line class="connection" marker-end="url(#id15)" stroke=" black" x1="100" x2="100" y1="120" y2="100"/>
        <line class="connection" marker-end="url(#id15)" stroke=" black" x1="40" x2="60" y1="120" y2="120"/>
        <line class="connection" marker-end="url(#id15)" stroke=" black" x1="60" x2="60" y1="120" y2="140"/>
        <line class="connection" marker-end="url(#id15)" stroke=" black" x1="60" x2="60" y1="120" y2="100"/>
        <line class="connection" marker-end="url(#id15)" stroke=" black" x1="40" x2="20" y1="120" y2="120"/>
        <line class="connection" marker-end="url(#id15)" stroke=" black" x1="20" x2="20" y1="120" y2="140"/>
        <line class="connection" marker-end="url(#id15)" stroke=" black" x1="20" x2="20" y1="120" y2="100"/>
        <g id="text">
            <text alignment-baseline="middle" class="moduleLabel" fill="black" font-size="14.0" text-anchor="middle" transform="scale(1,-1)" x="80.0" y="10.0">HTree Pattern</text>
        </g>
    </g>
</svg>
