<?xml version="1.0" encoding="utf-8" ?>
<svg xmlns="http://www.w3.org/2000/svg" xmlns:ev="http://www.w3.org/2001/xml-events" xmlns:xlink="http://www.w3.org/1999/xlink" baseProfile="full" height="320" version="1.1" viewBox="0,-290.0,400,320" width="400">
    <defs id="id1">
        <marker id="conn_marker" markerHeight="10" markerUnits="strokeWidth" markerWidth="5" orient="auto" refX="30" refY="30" viewBox="0 0 120 120">
            <path d="M 0 0 L 60 30 L 0 60 z" fill="blue"/>
        </marker>
        <marker id="down_conn_marker" markerHeight="10" markerUnits="strokeWidth" markerWidth="5" orient="auto" viewBox="-15 -15 30 30">
            <rect fill="green" height="20" width="20" x="-10" y="-10"/>
            <path d="M 8 0 L -8 8 L -8 -8 z" fill="blue"/>
        </marker>
        <marker id="up_conn_marker" markerHeight="10" markerUnits="strokeWidth" markerWidth="5" orient="auto" viewBox="-15 -15 30 30">
            <rect fill="green" height="20" width="20" x="-10" y="-10"/>
            <path d="M 8 0 L -8 8 L -8 -8 z" fill="blue"/>
        </marker>
        <marker id="top_conn_marker" markerHeight="10" markerUnits="strokeWidth" markerWidth="5" orient="auto" viewBox="-15 -15 30 30">
            <line stroke="red" stroke-width="5px" x1="0" x2="0" y1="-15" y2="15"/>
        </marker>
        <marker id="buffer_marker" markerHeight="15" markerUnits="strokeWidth" markerWidth="30" orient="auto" viewBox="-15 -15 30 30">
            <path d="M 8 0 L -8 8 L -8 -8 z" fill="red"/>
        </marker>
        <style type="text/css"><![CDATA[
                text{font-family: Lato;}
                span{text-anchor: "middle"; alignment_baseline: "middle"}
                .gridLabels{fill: grey;font-style: italic;font-weight: 900}
                .gridmarker{stroke:red; stroke-width:0.2; opacity: 0.7;}
                
                .connection{ opacity: 0.75;
                            marker-end:url(#conn_marker);
                            stroke-width:1.2;}
                .down{stroke-dasharray: 2;
                    marker-end:url(#up_conn_marker);}
                .up{stroke-dasharray: 2;
                    marker-start:url(#down_conn_marker);}
                .top{stroke-dasharray: 2;
                    marker-start:url(#top_conn_marker);}
                .buffer{marker-mid:url(#buffer_marker);}
                ]]></style>
    </defs>
    <g id="markers" transform="scale(1,-1)">
        <line class="gridmarker" x1="10" x2="10" y1="10" y2="270"/>
        <line class="gridmarker" x1="30" x2="30" y1="10" y2="270"/>
        <line class="gridmarker" x1="50" x2="50" y1="10" y2="270"/>
        <line class="gridmarker" x1="70" x2="70" y1="10" y2="270"/>
        <line class="gridmarker" x1="90" x2="90" y1="10" y2="270"/>
        <line class="gridmarker" x1="110" x2="110" y1="10" y2="270"/>
        <line class="gridmarker" x1="130" x2="130" y1="10" y2="270"/>
        <line class="gridmarker" x1="150" x2="150" y1="10" y2="270"/>
        <line class="gridmarker" x1="170" x2="170" y1="10" y2="270"/>
        <line class="gridmarker" x1="190" x2="190" y1="10" y2="270"/>
        <line class="gridmarker" x1="210" x2="210" y1="10" y2="270"/>
        <line class="gridmarker" x1="230" x2="230" y1="10" y2="270"/>
        <line class="gridmarker" x1="250" x2="250" y1="10" y2="270"/>
        <line class="gridmarker" x1="270" x2="270" y1="10" y2="270"/>
        <line class="gridmarker" x1="290" x2="290" y1="10" y2="270"/>
        <line class="gridmarker" x1="310" x2="310" y1="10" y2="270"/>
        <line class="gridmarker" x1="330" x2="330" y1="10" y2="270"/>
        <line class="gridmarker" x1="350" x2="350" y1="10" y2="270"/>
        <line class="gridmarker" x1="370" x2="370" y1="10" y2="270"/>
        <line class="gridmarker" x1="390" x2="390" y1="10" y2="270"/>
        <line class="gridmarker" x1="10" x2="390" y1="10" y2="10"/>
        <line class="gridmarker" x1="10" x2="390" y1="30" y2="30"/>
        <line class="gridmarker" x1="10" x2="390" y1="50" y2="50"/>
        <line class="gridmarker" x1="10" x2="390" y1="70" y2="70"/>
        <line class="gridmarker" x1="10" x2="390" y1="90" y2="90"/>
        <line class="gridmarker" x1="10" x2="390" y1="110" y2="110"/>
        <line class="gridmarker" x1="10" x2="390" y1="130" y2="130"/>
        <line class="gridmarker" x1="10" x2="390" y1="150" y2="150"/>
        <line class="gridmarker" x1="10" x2="390" y1="170" y2="170"/>
        <line class="gridmarker" x1="10" x2="390" y1="190" y2="190"/>
        <line class="gridmarker" x1="10" x2="390" y1="210" y2="210"/>
        <line class="gridmarker" x1="10" x2="390" y1="230" y2="230"/>
        <line class="gridmarker" x1="10" x2="390" y1="250" y2="250"/>
        <line class="gridmarker" x1="10" x2="390" y1="270" y2="270"/>
    </g>
    <g id="main" transform="scale(1,-1)">
        <path class="connection same" d="M 200 0 L 200 10 L 200 20" stroke=" black"/>
        <path class="connection same" d="M 200 20 L 200 30 L 200 40" stroke=" black"/>
        <path class="connection same" d="M 200 40 L 200 50 L 200 60" stroke=" black"/>
        <path class="connection same" d="M 200 60 L 200 70 L 200 80" stroke=" black"/>
        <path class="connection same" d="M 200 80 L 200 90 L 200 100" stroke=" black"/>
        <path class="connection same" d="M 200 100 L 200 110 L 200 120" stroke=" black"/>
        <path class="connection same" d="M 200 120 L 200 130 L 200 140" stroke=" black"/>
        <path class="connection same" d="M 200 140 L 210 140 L 220 140" stroke=" black"/>
        <path class="connection same" d="M 220 140 L 230 140 L 240 140" stroke=" black"/>
        <path class="connection same" d="M 240 140 L 250 140 L 260 140" stroke=" black"/>
        <path class="connection same" d="M 260 140 L 270 140 L 280 140" stroke=" black"/>
        <path class="connection same" d="M 280 140 L 280 150 L 280 160" stroke=" black"/>
        <path class="connection same" d="M 280 160 L 280 170 L 280 180" stroke=" black"/>
        <path class="connection same" d="M 280 180 L 280 190 L 280 200" stroke=" black"/>
        <path class="connection same" d="M 280 200 L 280 210 L 280 220" stroke=" black"/>
        <path class="connection same" d="M 280 220 L 280 230 L 280 240" stroke=" black"/>
        <path class="connection same" d="M 280 240 L 280 250 L 280 260" stroke=" black"/>
        <path class="connection same" d="M 280 140 L 280 130 L 280 120" stroke=" black"/>
        <path class="connection same" d="M 280 120 L 280 110 L 280 100" stroke=" black"/>
        <path class="connection same" d="M 280 100 L 280 90 L 280 80" stroke=" black"/>
        <path class="connection same" d="M 280 80 L 280 70 L 280 60" stroke=" black"/>
        <path class="connection same" d="M 280 60 L 280 50 L 280 40" stroke=" black"/>
        <path class="connection same" d="M 280 40 L 280 30 L 280 20" stroke=" black"/>
        <path class="connection same" d="M 280 140 L 290 140 L 300 140" stroke=" black"/>
        <path class="connection same" d="M 300 140 L 310 140 L 320 140" stroke=" black"/>
        <path class="connection same" d="M 320 140 L 330 140 L 340 140" stroke=" black"/>
        <path class="connection same" d="M 340 140 L 350 140 L 360 140" stroke=" black"/>
        <path class="connection same" d="M 360 140 L 360 150 L 360 160" stroke=" black"/>
        <path class="connection same" d="M 360 160 L 360 170 L 360 180" stroke=" black"/>
        <path class="connection same" d="M 360 180 L 360 190 L 360 200" stroke=" black"/>
        <path class="connection same" d="M 360 200 L 360 210 L 360 220" stroke=" black"/>
        <path class="connection same" d="M 360 220 L 360 230 L 360 240" stroke=" black"/>
        <path class="connection same" d="M 360 240 L 360 250 L 360 260" stroke=" black"/>
        <path class="connection same" d="M 360 140 L 360 130 L 360 120" stroke=" black"/>
        <path class="connection same" d="M 360 120 L 360 110 L 360 100" stroke=" black"/>
        <path class="connection same" d="M 360 100 L 360 90 L 360 80" stroke=" black"/>
        <path class="connection same" d="M 360 80 L 360 70 L 360 60" stroke=" black"/>
        <path class="connection same" d="M 360 60 L 360 50 L 360 40" stroke=" black"/>
        <path class="connection same" d="M 360 40 L 360 30 L 360 20" stroke=" black"/>
        <path class="connection same" d="M 200 140 L 190 140 L 180 140" stroke=" black"/>
        <path class="connection same" d="M 180 140 L 170 140 L 160 140" stroke=" black"/>
        <path class="connection same" d="M 160 140 L 150 140 L 140 140" stroke=" black"/>
        <path class="connection same" d="M 140 140 L 130 140 L 120 140" stroke=" black"/>
        <path class="connection same" d="M 120 140 L 120 150 L 120 160" stroke=" black"/>
        <path class="connection same" d="M 120 160 L 120 170 L 120 180" stroke=" black"/>
        <path class="connection same" d="M 120 180 L 120 190 L 120 200" stroke=" black"/>
        <path class="connection same" d="M 120 200 L 120 210 L 120 220" stroke=" black"/>
        <path class="connection same" d="M 120 220 L 120 230 L 120 240" stroke=" black"/>
        <path class="connection same" d="M 120 240 L 120 250 L 120 260" stroke=" black"/>
        <path class="connection same" d="M 120 140 L 120 130 L 120 120" stroke=" black"/>
        <path class="connection same" d="M 120 120 L 120 110 L 120 100" stroke=" black"/>
        <path class="connection same" d="M 120 100 L 120 90 L 120 80" stroke=" black"/>
        <path class="connection same" d="M 120 80 L 120 70 L 120 60" stroke=" black"/>
        <path class="connection same" d="M 120 60 L 120 50 L 120 40" stroke=" black"/>
        <path class="connection same" d="M 120 40 L 120 30 L 120 20" stroke=" black"/>
        <path class="connection same" d="M 120 140 L 110 140 L 100 140" stroke=" black"/>
        <path class="connection same" d="M 100 140 L 90 140 L 80 140" stroke=" black"/>
        <path class="connection same" d="M 80 140 L 70 140 L 60 140" stroke=" black"/>
        <path class="connection same" d="M 60 140 L 50 140 L 40 140" stroke=" black"/>
        <path class="connection same" d="M 40 140 L 40 150 L 40 160" stroke=" black"/>
        <path class="connection same" d="M 40 160 L 40 170 L 40 180" stroke=" black"/>
        <path class="connection same" d="M 40 180 L 40 190 L 40 200" stroke=" black"/>
        <path class="connection same" d="M 40 200 L 40 210 L 40 220" stroke=" black"/>
        <path class="connection same" d="M 40 220 L 40 230 L 40 240" stroke=" black"/>
        <path class="connection same" d="M 40 240 L 40 250 L 40 260" stroke=" black"/>
        <path class="connection same" d="M 40 140 L 40 130 L 40 120" stroke=" black"/>
        <path class="connection same" d="M 40 120 L 40 110 L 40 100" stroke=" black"/>
        <path class="connection same" d="M 40 100 L 40 90 L 40 80" stroke=" black"/>
        <path class="connection same" d="M 40 80 L 40 70 L 40 60" stroke=" black"/>
        <path class="connection same" d="M 40 60 L 40 50 L 40 40" stroke=" black"/>
        <path class="connection same" d="M 40 40 L 40 30 L 40 20" stroke=" black"/>
        <path class="connection same" d="M 120 60 L 130 60 L 140 60" stroke=" black"/>
        <path class="connection same" d="M 140 60 L 140 70 L 140 80" stroke=" black"/>
        <path class="connection same" d="M 140 80 L 140 90 L 140 100" stroke=" black"/>
        <path class="connection same" d="M 140 60 L 140 50 L 140 40" stroke=" black"/>
        <path class="connection same" d="M 140 40 L 140 30 L 140 20" stroke=" black"/>
        <path class="connection same" d="M 140 60 L 150 60 L 160 60" stroke=" black"/>
        <path class="connection same" d="M 160 60 L 160 70 L 160 80" stroke=" black"/>
        <path class="connection same" d="M 160 80 L 160 90 L 160 100" stroke=" black"/>
        <path class="connection same" d="M 160 60 L 160 50 L 160 40" stroke=" black"/>
        <path class="connection same" d="M 160 40 L 160 30 L 160 20" stroke=" black"/>
        <path class="connection same" d="M 160 60 L 170 60 L 180 60" stroke=" black"/>
        <path class="connection same" d="M 180 60 L 180 70 L 180 80" stroke=" black"/>
        <path class="connection same" d="M 180 80 L 180 90 L 180 100" stroke=" black"/>
        <path class="connection same" d="M 180 60 L 180 50 L 180 40" stroke=" black"/>
        <path class="connection same" d="M 180 40 L 180 30 L 180 20" stroke=" black"/>
        <path class="connection same" d="M 120 60 L 110 60 L 100 60" stroke=" black"/>
        <path class="connection same" d="M 100 60 L 100 70 L 100 80" stroke=" black"/>
        <path class="connection same" d="M 100 80 L 100 90 L 100 100" stroke=" black"/>
        <path class="connection same" d="M 100 60 L 100 50 L 100 40" stroke=" black"/>
        <path class="connection same" d="M 100 40 L 100 30 L 100 20" stroke=" black"/>
        <path class="connection same" d="M 100 60 L 90 60 L 80 60" stroke=" black"/>
        <path class="connection same" d="M 80 60 L 80 70 L 80 80" stroke=" black"/>
        <path class="connection same" d="M 80 80 L 80 90 L 80 100" stroke=" black"/>
        <path class="connection same" d="M 80 60 L 80 50 L 80 40" stroke=" black"/>
        <path class="connection same" d="M 80 40 L 80 30 L 80 20" stroke=" black"/>
        <path class="connection same" d="M 80 60 L 70 60 L 60 60" stroke=" black"/>
        <path class="connection same" d="M 60 60 L 60 70 L 60 80" stroke=" black"/>
        <path class="connection same" d="M 60 80 L 60 90 L 60 100" stroke=" black"/>
        <path class="connection same" d="M 60 60 L 60 50 L 60 40" stroke=" black"/>
        <path class="connection same" d="M 60 40 L 60 30 L 60 20" stroke=" black"/>
        <path class="connection same" d="M 120 220 L 130 220 L 140 220" stroke=" black"/>
        <path class="connection same" d="M 140 220 L 140 230 L 140 240" stroke=" black"/>
        <path class="connection same" d="M 140 240 L 140 250 L 140 260" stroke=" black"/>
        <path class="connection same" d="M 140 220 L 140 210 L 140 200" stroke=" black"/>
        <path class="connection same" d="M 140 200 L 140 190 L 140 180" stroke=" black"/>
        <path class="connection same" d="M 140 220 L 150 220 L 160 220" stroke=" black"/>
        <path class="connection same" d="M 160 220 L 160 230 L 160 240" stroke=" black"/>
        <path class="connection same" d="M 160 240 L 160 250 L 160 260" stroke=" black"/>
        <path class="connection same" d="M 160 220 L 160 210 L 160 200" stroke=" black"/>
        <path class="connection same" d="M 160 200 L 160 190 L 160 180" stroke=" black"/>
        <path class="connection same" d="M 160 220 L 170 220 L 180 220" stroke=" black"/>
        <path class="connection same" d="M 180 220 L 180 230 L 180 240" stroke=" black"/>
        <path class="connection same" d="M 180 240 L 180 250 L 180 260" stroke=" black"/>
        <path class="connection same" d="M 180 220 L 180 210 L 180 200" stroke=" black"/>
        <path class="connection same" d="M 180 200 L 180 190 L 180 180" stroke=" black"/>
        <path class="connection same" d="M 120 220 L 110 220 L 100 220" stroke=" black"/>
        <path class="connection same" d="M 100 220 L 100 230 L 100 240" stroke=" black"/>
        <path class="connection same" d="M 100 240 L 100 250 L 100 260" stroke=" black"/>
        <path class="connection same" d="M 100 220 L 100 210 L 100 200" stroke=" black"/>
        <path class="connection same" d="M 100 200 L 100 190 L 100 180" stroke=" black"/>
        <path class="connection same" d="M 100 220 L 90 220 L 80 220" stroke=" black"/>
        <path class="connection same" d="M 80 220 L 80 230 L 80 240" stroke=" black"/>
        <path class="connection same" d="M 80 240 L 80 250 L 80 260" stroke=" black"/>
        <path class="connection same" d="M 80 220 L 80 210 L 80 200" stroke=" black"/>
        <path class="connection same" d="M 80 200 L 80 190 L 80 180" stroke=" black"/>
        <path class="connection same" d="M 80 220 L 70 220 L 60 220" stroke=" black"/>
        <path class="connection same" d="M 60 220 L 60 230 L 60 240" stroke=" black"/>
        <path class="connection same" d="M 60 240 L 60 250 L 60 260" stroke=" black"/>
        <path class="connection same" d="M 60 220 L 60 210 L 60 200" stroke=" black"/>
        <path class="connection same" d="M 60 200 L 60 190 L 60 180" stroke=" black"/>
        <path class="connection same" d="M 280 60 L 290 60 L 300 60" stroke=" black"/>
        <path class="connection same" d="M 300 60 L 300 70 L 300 80" stroke=" black"/>
        <path class="connection same" d="M 300 80 L 300 90 L 300 100" stroke=" black"/>
        <path class="connection same" d="M 300 60 L 300 50 L 300 40" stroke=" black"/>
        <path class="connection same" d="M 300 40 L 300 30 L 300 20" stroke=" black"/>
        <path class="connection same" d="M 300 60 L 310 60 L 320 60" stroke=" black"/>
        <path class="connection same" d="M 320 60 L 320 70 L 320 80" stroke=" black"/>
        <path class="connection same" d="M 320 80 L 320 90 L 320 100" stroke=" black"/>
        <path class="connection same" d="M 320 60 L 320 50 L 320 40" stroke=" black"/>
        <path class="connection same" d="M 320 40 L 320 30 L 320 20" stroke=" black"/>
        <path class="connection same" d="M 320 60 L 330 60 L 340 60" stroke=" black"/>
        <path class="connection same" d="M 340 60 L 340 70 L 340 80" stroke=" black"/>
        <path class="connection same" d="M 340 80 L 340 90 L 340 100" stroke=" black"/>
        <path class="connection same" d="M 340 60 L 340 50 L 340 40" stroke=" black"/>
        <path class="connection same" d="M 340 40 L 340 30 L 340 20" stroke=" black"/>
        <path class="connection same" d="M 280 60 L 270 60 L 260 60" stroke=" black"/>
        <path class="connection same" d="M 260 60 L 260 70 L 260 80" stroke=" black"/>
        <path class="connection same" d="M 260 80 L 260 90 L 260 100" stroke=" black"/>
        <path class="connection same" d="M 260 60 L 260 50 L 260 40" stroke=" black"/>
        <path class="connection same" d="M 260 40 L 260 30 L 260 20" stroke=" black"/>
        <path class="connection same" d="M 260 60 L 250 60 L 240 60" stroke=" black"/>
        <path class="connection same" d="M 240 60 L 240 70 L 240 80" stroke=" black"/>
        <path class="connection same" d="M 240 80 L 240 90 L 240 100" stroke=" black"/>
        <path class="connection same" d="M 240 60 L 240 50 L 240 40" stroke=" black"/>
        <path class="connection same" d="M 240 40 L 240 30 L 240 20" stroke=" black"/>
        <path class="connection same" d="M 240 60 L 230 60 L 220 60" stroke=" black"/>
        <path class="connection same" d="M 220 60 L 220 70 L 220 80" stroke=" black"/>
        <path class="connection same" d="M 220 80 L 220 90 L 220 100" stroke=" black"/>
        <path class="connection same" d="M 220 60 L 220 50 L 220 40" stroke=" black"/>
        <path class="connection same" d="M 220 40 L 220 30 L 220 20" stroke=" black"/>
        <path class="connection same" d="M 280 220 L 290 220 L 300 220" stroke=" black"/>
        <path class="connection same" d="M 300 220 L 300 230 L 300 240" stroke=" black"/>
        <path class="connection same" d="M 300 240 L 300 250 L 300 260" stroke=" black"/>
        <path class="connection same" d="M 300 220 L 300 210 L 300 200" stroke=" black"/>
        <path class="connection same" d="M 300 200 L 300 190 L 300 180" stroke=" black"/>
        <path class="connection same" d="M 300 220 L 310 220 L 320 220" stroke=" black"/>
        <path class="connection same" d="M 320 220 L 320 230 L 320 240" stroke=" black"/>
        <path class="connection same" d="M 320 240 L 320 250 L 320 260" stroke=" black"/>
        <path class="connection same" d="M 320 220 L 320 210 L 320 200" stroke=" black"/>
        <path class="connection same" d="M 320 200 L 320 190 L 320 180" stroke=" black"/>
        <path class="connection same" d="M 320 220 L 330 220 L 340 220" stroke=" black"/>
        <path class="connection same" d="M 340 220 L 340 230 L 340 240" stroke=" black"/>
        <path class="connection same" d="M 340 240 L 340 250 L 340 260" stroke=" black"/>
        <path class="connection same" d="M 340 220 L 340 210 L 340 200" stroke=" black"/>
        <path class="connection same" d="M 340 200 L 340 190 L 340 180" stroke=" black"/>
        <path class="connection same" d="M 280 220 L 270 220 L 260 220" stroke=" black"/>
        <path class="connection same" d="M 260 220 L 260 230 L 260 240" stroke=" black"/>
        <path class="connection same" d="M 260 240 L 260 250 L 260 260" stroke=" black"/>
        <path class="connection same" d="M 260 220 L 260 210 L 260 200" stroke=" black"/>
        <path class="connection same" d="M 260 200 L 260 190 L 260 180" stroke=" black"/>
        <path class="connection same" d="M 260 220 L 250 220 L 240 220" stroke=" black"/>
        <path class="connection same" d="M 240 220 L 240 230 L 240 240" stroke=" black"/>
        <path class="connection same" d="M 240 240 L 240 250 L 240 260" stroke=" black"/>
        <path class="connection same" d="M 240 220 L 240 210 L 240 200" stroke=" black"/>
        <path class="connection same" d="M 240 200 L 240 190 L 240 180" stroke=" black"/>
        <path class="connection same" d="M 240 220 L 230 220 L 220 220" stroke=" black"/>
        <path class="connection same" d="M 220 220 L 220 230 L 220 240" stroke=" black"/>
        <path class="connection same" d="M 220 240 L 220 250 L 220 260" stroke=" black"/>
        <path class="connection same" d="M 220 220 L 220 210 L 220 200" stroke=" black"/>
        <path class="connection same" d="M 220 200 L 220 190 L 220 180" stroke=" black"/>
        <path class="connection same" d="M 40 20 L 30 20 L 20 20" stroke=" black"/>
        <path class="connection same" d="M 360 20 L 370 20 L 380 20" stroke=" black"/>
        <path class="connection same" d="M 40 40 L 30 40 L 20 40" stroke=" black"/>
        <path class="connection same" d="M 360 40 L 370 40 L 380 40" stroke=" black"/>
        <path class="connection same" d="M 40 60 L 30 60 L 20 60" stroke=" black"/>
        <path class="connection same" d="M 360 60 L 370 60 L 380 60" stroke=" black"/>
        <path class="connection same" d="M 40 80 L 30 80 L 20 80" stroke=" black"/>
        <path class="connection same" d="M 360 80 L 370 80 L 380 80" stroke=" black"/>
        <path class="connection same" d="M 40 100 L 30 100 L 20 100" stroke=" black"/>
        <path class="connection same" d="M 360 100 L 370 100 L 380 100" stroke=" black"/>
        <path class="connection same" d="M 40 120 L 30 120 L 20 120" stroke=" black"/>
        <path class="connection same" d="M 360 120 L 370 120 L 380 120" stroke=" black"/>
        <path class="connection same" d="M 40 140 L 30 140 L 20 140" stroke=" black"/>
        <path class="connection same" d="M 360 140 L 370 140 L 380 140" stroke=" black"/>
        <path class="connection same" d="M 40 160 L 30 160 L 20 160" stroke=" black"/>
        <path class="connection same" d="M 360 160 L 370 160 L 380 160" stroke=" black"/>
        <path class="connection same" d="M 40 180 L 30 180 L 20 180" stroke=" black"/>
        <path class="connection same" d="M 360 180 L 370 180 L 380 180" stroke=" black"/>
        <path class="connection same" d="M 40 200 L 30 200 L 20 200" stroke=" black"/>
        <path class="connection same" d="M 360 200 L 370 200 L 380 200" stroke=" black"/>
        <path class="connection same" d="M 40 220 L 30 220 L 20 220" stroke=" black"/>
        <path class="connection same" d="M 360 220 L 370 220 L 380 220" stroke=" black"/>
        <path class="connection same" d="M 40 240 L 30 240 L 20 240" stroke=" black"/>
        <path class="connection same" d="M 360 240 L 370 240 L 380 240" stroke=" black"/>
        <path class="connection same" d="M 40 260 L 30 260 L 20 260" stroke=" black"/>
        <path class="connection same" d="M 360 260 L 370 260 L 380 260" stroke=" black"/>
        <path class="connection same" d="M 60 140 L 60 150 L 60 160" stroke=" black"/>
        <path class="connection same" d="M 60 140 L 60 130 L 60 120" stroke=" black"/>
        <path class="connection same" d="M 80 140 L 80 150 L 80 160" stroke=" black"/>
        <path class="connection same" d="M 80 140 L 80 130 L 80 120" stroke=" black"/>
        <path class="connection same" d="M 100 140 L 100 150 L 100 160" stroke=" black"/>
        <path class="connection same" d="M 100 140 L 100 130 L 100 120" stroke=" black"/>
        <path class="connection same" d="M 120 140 L 120 150 L 120 160" stroke=" black"/>
        <path class="connection same" d="M 120 140 L 120 130 L 120 120" stroke=" black"/>
        <path class="connection same" d="M 140 140 L 140 150 L 140 160" stroke=" black"/>
        <path class="connection same" d="M 140 140 L 140 130 L 140 120" stroke=" black"/>
        <path class="connection same" d="M 160 140 L 160 150 L 160 160" stroke=" black"/>
        <path class="connection same" d="M 160 140 L 160 130 L 160 120" stroke=" black"/>
        <path class="connection same" d="M 180 140 L 180 150 L 180 160" stroke=" black"/>
        <path class="connection same" d="M 180 140 L 180 130 L 180 120" stroke=" black"/>
        <path class="connection same" d="M 200 140 L 200 150 L 200 160" stroke=" black"/>
        <path class="connection same" d="M 200 160 L 200 170 L 200 180" stroke=" black"/>
        <path class="connection same" d="M 200 180 L 200 190 L 200 200" stroke=" black"/>
        <path class="connection same" d="M 200 200 L 200 210 L 200 220" stroke=" black"/>
        <path class="connection same" d="M 200 220 L 200 230 L 200 240" stroke=" black"/>
        <path class="connection same" d="M 200 240 L 200 250 L 200 260" stroke=" black"/>
        <path class="connection same" d="M 220 140 L 220 150 L 220 160" stroke=" black"/>
        <path class="connection same" d="M 220 140 L 220 130 L 220 120" stroke=" black"/>
        <path class="connection same" d="M 240 140 L 240 150 L 240 160" stroke=" black"/>
        <path class="connection same" d="M 240 140 L 240 130 L 240 120" stroke=" black"/>
        <path class="connection same" d="M 260 140 L 260 150 L 260 160" stroke=" black"/>
        <path class="connection same" d="M 260 140 L 260 130 L 260 120" stroke=" black"/>
        <path class="connection same" d="M 280 140 L 280 150 L 280 160" stroke=" black"/>
        <path class="connection same" d="M 280 140 L 280 130 L 280 120" stroke=" black"/>
        <path class="connection same" d="M 300 140 L 300 150 L 300 160" stroke=" black"/>
        <path class="connection same" d="M 300 140 L 300 130 L 300 120" stroke=" black"/>
        <path class="connection same" d="M 320 140 L 320 150 L 320 160" stroke=" black"/>
        <path class="connection same" d="M 320 140 L 320 130 L 320 120" stroke=" black"/>
        <path class="connection same" d="M 340 140 L 340 150 L 340 160" stroke=" black"/>
        <path class="connection same" d="M 340 140 L 340 130 L 340 120" stroke=" black"/>
        <g id="text">
            <text alignment-baseline="middle" class="moduleLabel" fill="black" font-size="26.0" text-anchor="middle" transform="scale(1,-1)" x="200.0" y="10.0">Hybrid Pattern</text>
        </g>
    </g>
</svg>
