<?xml version="1.0" encoding="utf-8" ?>
<svg xmlns="http://www.w3.org/2000/svg" xmlns:ev="http://www.w3.org/2001/xml-events" xmlns:xlink="http://www.w3.org/1999/xlink" baseProfile="full" height="320" version="1.1" viewBox="0,-290.0,400,320" width="400">
    <defs id="id18">
        <style type="text/css"><![CDATA[
                text{font-family: Verdana;}
                svgg{background-color:grey;}
                .connection{stroke-linecap:round; opacity: 0.7; stroke-width:1.2;}
                span{text-anchor: "middle"; alignment_baseline: "middle"}
                .gridLabels{fill: grey;font-style: italic;font-weight: 900}
                .down{stroke-dasharray: 5;}
                .up{stroke-dasharray: 5;}
                .top{stroke-dasharray: 5;}
                .gridmarker{stroke:red; stroke-width:0.2; opacity: 0.7;}
                ]]></style>
        <marker id="id17" markerHeight="10" markerUnits="strokeWidth" markerWidth="5" orient="auto" refX="30" refY="30" viewBox="0 0 120 120">
            <path d="M 0 0 L 60 30 L 0 60 z" fill="blue"/>
        </marker>
    </defs>
    <g id="markers" transform="scale(1,-1)">
        <line class="gridmarker" x1="10.0" x2="10.0" y1="10.0" y2="270.0"/>
        <line class="gridmarker" x1="30.0" x2="30.0" y1="10.0" y2="270.0"/>
        <line class="gridmarker" x1="50.0" x2="50.0" y1="10.0" y2="270.0"/>
        <line class="gridmarker" x1="70.0" x2="70.0" y1="10.0" y2="270.0"/>
        <line class="gridmarker" x1="90.0" x2="90.0" y1="10.0" y2="270.0"/>
        <line class="gridmarker" x1="110.0" x2="110.0" y1="10.0" y2="270.0"/>
        <line class="gridmarker" x1="130.0" x2="130.0" y1="10.0" y2="270.0"/>
        <line class="gridmarker" x1="150.0" x2="150.0" y1="10.0" y2="270.0"/>
        <line class="gridmarker" x1="170.0" x2="170.0" y1="10.0" y2="270.0"/>
        <line class="gridmarker" x1="190.0" x2="190.0" y1="10.0" y2="270.0"/>
        <line class="gridmarker" x1="210.0" x2="210.0" y1="10.0" y2="270.0"/>
        <line class="gridmarker" x1="230.0" x2="230.0" y1="10.0" y2="270.0"/>
        <line class="gridmarker" x1="250.0" x2="250.0" y1="10.0" y2="270.0"/>
        <line class="gridmarker" x1="270.0" x2="270.0" y1="10.0" y2="270.0"/>
        <line class="gridmarker" x1="290.0" x2="290.0" y1="10.0" y2="270.0"/>
        <line class="gridmarker" x1="310.0" x2="310.0" y1="10.0" y2="270.0"/>
        <line class="gridmarker" x1="330.0" x2="330.0" y1="10.0" y2="270.0"/>
        <line class="gridmarker" x1="350.0" x2="350.0" y1="10.0" y2="270.0"/>
        <line class="gridmarker" x1="370.0" x2="370.0" y1="10.0" y2="270.0"/>
        <line class="gridmarker" x1="390.0" x2="390.0" y1="10.0" y2="270.0"/>
        <line class="gridmarker" x1="10.0" x2="390.0" y1="10.0" y2="10.0"/>
        <line class="gridmarker" x1="10.0" x2="390.0" y1="30.0" y2="30.0"/>
        <line class="gridmarker" x1="10.0" x2="390.0" y1="50.0" y2="50.0"/>
        <line class="gridmarker" x1="10.0" x2="390.0" y1="70.0" y2="70.0"/>
        <line class="gridmarker" x1="10.0" x2="390.0" y1="90.0" y2="90.0"/>
        <line class="gridmarker" x1="10.0" x2="390.0" y1="110.0" y2="110.0"/>
        <line class="gridmarker" x1="10.0" x2="390.0" y1="130.0" y2="130.0"/>
        <line class="gridmarker" x1="10.0" x2="390.0" y1="150.0" y2="150.0"/>
        <line class="gridmarker" x1="10.0" x2="390.0" y1="170.0" y2="170.0"/>
        <line class="gridmarker" x1="10.0" x2="390.0" y1="190.0" y2="190.0"/>
        <line class="gridmarker" x1="10.0" x2="390.0" y1="210.0" y2="210.0"/>
        <line class="gridmarker" x1="10.0" x2="390.0" y1="230.0" y2="230.0"/>
        <line class="gridmarker" x1="10.0" x2="390.0" y1="250.0" y2="250.0"/>
        <line class="gridmarker" x1="10.0" x2="390.0" y1="270.0" y2="270.0"/>
    </g>
    <g id="main" transform="scale(1,-1)">
        <line class="connection same" marker-end="url(#id17)" stroke=" black" x1="200" x2="200" y1="0" y2="20"/>
        <line class="connection same" marker-end="url(#id17)" stroke=" black" x1="200" x2="200" y1="20" y2="40"/>
        <line class="connection same" marker-end="url(#id17)" stroke=" black" x1="200" x2="200" y1="40" y2="60"/>
        <line class="connection same" marker-end="url(#id17)" stroke=" black" x1="200" x2="200" y1="60" y2="80"/>
        <line class="connection same" marker-end="url(#id17)" stroke=" black" x1="200" x2="200" y1="80" y2="100"/>
        <line class="connection same" marker-end="url(#id17)" stroke=" black" x1="200" x2="200" y1="100" y2="120"/>
        <line class="connection same" marker-end="url(#id17)" stroke=" black" x1="200" x2="200" y1="120" y2="140"/>
        <line class="connection same" marker-end="url(#id17)" stroke=" black" x1="200.0" x2="220.0" y1="140" y2="140"/>
        <line class="connection same" marker-end="url(#id17)" stroke=" black" x1="220.0" x2="240.0" y1="140" y2="140"/>
        <line class="connection same" marker-end="url(#id17)" stroke=" black" x1="240.0" x2="260.0" y1="140" y2="140"/>
        <line class="connection same" marker-end="url(#id17)" stroke=" black" x1="260.0" x2="280.0" y1="140" y2="140"/>
        <line class="connection same" marker-end="url(#id17)" stroke=" black" x1="280.0" x2="280.0" y1="140" y2="160"/>
        <line class="connection same" marker-end="url(#id17)" stroke=" black" x1="280.0" x2="280.0" y1="160" y2="180"/>
        <line class="connection same" marker-end="url(#id17)" stroke=" black" x1="280.0" x2="280.0" y1="180" y2="200"/>
        <line class="connection same" marker-end="url(#id17)" stroke=" black" x1="280.0" x2="280.0" y1="200" y2="220"/>
        <line class="connection same" marker-end="url(#id17)" stroke=" black" x1="280.0" x2="280.0" y1="220" y2="240"/>
        <line class="connection same" marker-end="url(#id17)" stroke=" black" x1="280.0" x2="280.0" y1="240" y2="260"/>
        <line class="connection same" marker-end="url(#id17)" stroke=" black" x1="280.0" x2="280.0" y1="140" y2="120"/>
        <line class="connection same" marker-end="url(#id17)" stroke=" black" x1="280.0" x2="280.0" y1="120" y2="100"/>
        <line class="connection same" marker-end="url(#id17)" stroke=" black" x1="280.0" x2="280.0" y1="100" y2="80"/>
        <line class="connection same" marker-end="url(#id17)" stroke=" black" x1="280.0" x2="280.0" y1="80" y2="60"/>
        <line class="connection same" marker-end="url(#id17)" stroke=" black" x1="280.0" x2="280.0" y1="60" y2="40"/>
        <line class="connection same" marker-end="url(#id17)" stroke=" black" x1="280.0" x2="280.0" y1="40" y2="20"/>
        <line class="connection same" marker-end="url(#id17)" stroke=" black" x1="280.0" x2="300.0" y1="140" y2="140"/>
        <line class="connection same" marker-end="url(#id17)" stroke=" black" x1="300.0" x2="320.0" y1="140" y2="140"/>
        <line class="connection same" marker-end="url(#id17)" stroke=" black" x1="320.0" x2="340.0" y1="140" y2="140"/>
        <line class="connection same" marker-end="url(#id17)" stroke=" black" x1="340.0" x2="360.0" y1="140" y2="140"/>
        <line class="connection same" marker-end="url(#id17)" stroke=" black" x1="360.0" x2="360.0" y1="140" y2="160"/>
        <line class="connection same" marker-end="url(#id17)" stroke=" black" x1="360.0" x2="360.0" y1="160" y2="180"/>
        <line class="connection same" marker-end="url(#id17)" stroke=" black" x1="360.0" x2="360.0" y1="180" y2="200"/>
        <line class="connection same" marker-end="url(#id17)" stroke=" black" x1="360.0" x2="360.0" y1="200" y2="220"/>
        <line class="connection same" marker-end="url(#id17)" stroke=" black" x1="360.0" x2="360.0" y1="220" y2="240"/>
        <line class="connection same" marker-end="url(#id17)" stroke=" black" x1="360.0" x2="360.0" y1="240" y2="260"/>
        <line class="connection same" marker-end="url(#id17)" stroke=" black" x1="360.0" x2="360.0" y1="140" y2="120"/>
        <line class="connection same" marker-end="url(#id17)" stroke=" black" x1="360.0" x2="360.0" y1="120" y2="100"/>
        <line class="connection same" marker-end="url(#id17)" stroke=" black" x1="360.0" x2="360.0" y1="100" y2="80"/>
        <line class="connection same" marker-end="url(#id17)" stroke=" black" x1="360.0" x2="360.0" y1="80" y2="60"/>
        <line class="connection same" marker-end="url(#id17)" stroke=" black" x1="360.0" x2="360.0" y1="60" y2="40"/>
        <line class="connection same" marker-end="url(#id17)" stroke=" black" x1="360.0" x2="360.0" y1="40" y2="20"/>
        <line class="connection same" marker-end="url(#id17)" stroke=" black" x1="200.0" x2="180.0" y1="140" y2="140"/>
        <line class="connection same" marker-end="url(#id17)" stroke=" black" x1="180.0" x2="160.0" y1="140" y2="140"/>
        <line class="connection same" marker-end="url(#id17)" stroke=" black" x1="160.0" x2="140.0" y1="140" y2="140"/>
        <line class="connection same" marker-end="url(#id17)" stroke=" black" x1="140.0" x2="120.0" y1="140" y2="140"/>
        <line class="connection same" marker-end="url(#id17)" stroke=" black" x1="120.0" x2="120.0" y1="140" y2="160"/>
        <line class="connection same" marker-end="url(#id17)" stroke=" black" x1="120.0" x2="120.0" y1="160" y2="180"/>
        <line class="connection same" marker-end="url(#id17)" stroke=" black" x1="120.0" x2="120.0" y1="180" y2="200"/>
        <line class="connection same" marker-end="url(#id17)" stroke=" black" x1="120.0" x2="120.0" y1="200" y2="220"/>
        <line class="connection same" marker-end="url(#id17)" stroke=" black" x1="120.0" x2="120.0" y1="220" y2="240"/>
        <line class="connection same" marker-end="url(#id17)" stroke=" black" x1="120.0" x2="120.0" y1="240" y2="260"/>
        <line class="connection same" marker-end="url(#id17)" stroke=" black" x1="120.0" x2="120.0" y1="140" y2="120"/>
        <line class="connection same" marker-end="url(#id17)" stroke=" black" x1="120.0" x2="120.0" y1="120" y2="100"/>
        <line class="connection same" marker-end="url(#id17)" stroke=" black" x1="120.0" x2="120.0" y1="100" y2="80"/>
        <line class="connection same" marker-end="url(#id17)" stroke=" black" x1="120.0" x2="120.0" y1="80" y2="60"/>
        <line class="connection same" marker-end="url(#id17)" stroke=" black" x1="120.0" x2="120.0" y1="60" y2="40"/>
        <line class="connection same" marker-end="url(#id17)" stroke=" black" x1="120.0" x2="120.0" y1="40" y2="20"/>
        <line class="connection same" marker-end="url(#id17)" stroke=" black" x1="120.0" x2="100.0" y1="140" y2="140"/>
        <line class="connection same" marker-end="url(#id17)" stroke=" black" x1="100.0" x2="80.0" y1="140" y2="140"/>
        <line class="connection same" marker-end="url(#id17)" stroke=" black" x1="80.0" x2="60.0" y1="140" y2="140"/>
        <line class="connection same" marker-end="url(#id17)" stroke=" black" x1="60.0" x2="40.0" y1="140" y2="140"/>
        <line class="connection same" marker-end="url(#id17)" stroke=" black" x1="40.0" x2="40.0" y1="140" y2="160"/>
        <line class="connection same" marker-end="url(#id17)" stroke=" black" x1="40.0" x2="40.0" y1="160" y2="180"/>
        <line class="connection same" marker-end="url(#id17)" stroke=" black" x1="40.0" x2="40.0" y1="180" y2="200"/>
        <line class="connection same" marker-end="url(#id17)" stroke=" black" x1="40.0" x2="40.0" y1="200" y2="220"/>
        <line class="connection same" marker-end="url(#id17)" stroke=" black" x1="40.0" x2="40.0" y1="220" y2="240"/>
        <line class="connection same" marker-end="url(#id17)" stroke=" black" x1="40.0" x2="40.0" y1="240" y2="260"/>
        <line class="connection same" marker-end="url(#id17)" stroke=" black" x1="40.0" x2="40.0" y1="140" y2="120"/>
        <line class="connection same" marker-end="url(#id17)" stroke=" black" x1="40.0" x2="40.0" y1="120" y2="100"/>
        <line class="connection same" marker-end="url(#id17)" stroke=" black" x1="40.0" x2="40.0" y1="100" y2="80"/>
        <line class="connection same" marker-end="url(#id17)" stroke=" black" x1="40.0" x2="40.0" y1="80" y2="60"/>
        <line class="connection same" marker-end="url(#id17)" stroke=" black" x1="40.0" x2="40.0" y1="60" y2="40"/>
        <line class="connection same" marker-end="url(#id17)" stroke=" black" x1="40.0" x2="40.0" y1="40" y2="20"/>
        <line class="connection same" marker-end="url(#id17)" stroke=" black" x1="120" x2="140" y1="60" y2="60"/>
        <line class="connection same" marker-end="url(#id17)" stroke=" black" x1="140" x2="140" y1="60" y2="80"/>
        <line class="connection same" marker-end="url(#id17)" stroke=" black" x1="140" x2="140" y1="80" y2="100"/>
        <line class="connection same" marker-end="url(#id17)" stroke=" black" x1="140" x2="140" y1="60" y2="40"/>
        <line class="connection same" marker-end="url(#id17)" stroke=" black" x1="140" x2="140" y1="40" y2="20"/>
        <line class="connection same" marker-end="url(#id17)" stroke=" black" x1="140" x2="160" y1="60" y2="60"/>
        <line class="connection same" marker-end="url(#id17)" stroke=" black" x1="160" x2="160" y1="60" y2="80"/>
        <line class="connection same" marker-end="url(#id17)" stroke=" black" x1="160" x2="160" y1="80" y2="100"/>
        <line class="connection same" marker-end="url(#id17)" stroke=" black" x1="160" x2="160" y1="60" y2="40"/>
        <line class="connection same" marker-end="url(#id17)" stroke=" black" x1="160" x2="160" y1="40" y2="20"/>
        <line class="connection same" marker-end="url(#id17)" stroke=" black" x1="160" x2="180" y1="60" y2="60"/>
        <line class="connection same" marker-end="url(#id17)" stroke=" black" x1="180" x2="180" y1="60" y2="80"/>
        <line class="connection same" marker-end="url(#id17)" stroke=" black" x1="180" x2="180" y1="80" y2="100"/>
        <line class="connection same" marker-end="url(#id17)" stroke=" black" x1="180" x2="180" y1="60" y2="40"/>
        <line class="connection same" marker-end="url(#id17)" stroke=" black" x1="180" x2="180" y1="40" y2="20"/>
        <line class="connection same" marker-end="url(#id17)" stroke=" black" x1="120" x2="100" y1="60" y2="60"/>
        <line class="connection same" marker-end="url(#id17)" stroke=" black" x1="100" x2="100" y1="60" y2="80"/>
        <line class="connection same" marker-end="url(#id17)" stroke=" black" x1="100" x2="100" y1="80" y2="100"/>
        <line class="connection same" marker-end="url(#id17)" stroke=" black" x1="100" x2="100" y1="60" y2="40"/>
        <line class="connection same" marker-end="url(#id17)" stroke=" black" x1="100" x2="100" y1="40" y2="20"/>
        <line class="connection same" marker-end="url(#id17)" stroke=" black" x1="100" x2="80" y1="60" y2="60"/>
        <line class="connection same" marker-end="url(#id17)" stroke=" black" x1="80" x2="80" y1="60" y2="80"/>
        <line class="connection same" marker-end="url(#id17)" stroke=" black" x1="80" x2="80" y1="80" y2="100"/>
        <line class="connection same" marker-end="url(#id17)" stroke=" black" x1="80" x2="80" y1="60" y2="40"/>
        <line class="connection same" marker-end="url(#id17)" stroke=" black" x1="80" x2="80" y1="40" y2="20"/>
        <line class="connection same" marker-end="url(#id17)" stroke=" black" x1="80" x2="60" y1="60" y2="60"/>
        <line class="connection same" marker-end="url(#id17)" stroke=" black" x1="60" x2="60" y1="60" y2="80"/>
        <line class="connection same" marker-end="url(#id17)" stroke=" black" x1="60" x2="60" y1="80" y2="100"/>
        <line class="connection same" marker-end="url(#id17)" stroke=" black" x1="60" x2="60" y1="60" y2="40"/>
        <line class="connection same" marker-end="url(#id17)" stroke=" black" x1="60" x2="60" y1="40" y2="20"/>
        <line class="connection same" marker-end="url(#id17)" stroke=" black" x1="120" x2="140" y1="220" y2="220"/>
        <line class="connection same" marker-end="url(#id17)" stroke=" black" x1="140" x2="140" y1="220" y2="240"/>
        <line class="connection same" marker-end="url(#id17)" stroke=" black" x1="140" x2="140" y1="240" y2="260"/>
        <line class="connection same" marker-end="url(#id17)" stroke=" black" x1="140" x2="140" y1="220" y2="200"/>
        <line class="connection same" marker-end="url(#id17)" stroke=" black" x1="140" x2="140" y1="200" y2="180"/>
        <line class="connection same" marker-end="url(#id17)" stroke=" black" x1="140" x2="160" y1="220" y2="220"/>
        <line class="connection same" marker-end="url(#id17)" stroke=" black" x1="160" x2="160" y1="220" y2="240"/>
        <line class="connection same" marker-end="url(#id17)" stroke=" black" x1="160" x2="160" y1="240" y2="260"/>
        <line class="connection same" marker-end="url(#id17)" stroke=" black" x1="160" x2="160" y1="220" y2="200"/>
        <line class="connection same" marker-end="url(#id17)" stroke=" black" x1="160" x2="160" y1="200" y2="180"/>
        <line class="connection same" marker-end="url(#id17)" stroke=" black" x1="160" x2="180" y1="220" y2="220"/>
        <line class="connection same" marker-end="url(#id17)" stroke=" black" x1="180" x2="180" y1="220" y2="240"/>
        <line class="connection same" marker-end="url(#id17)" stroke=" black" x1="180" x2="180" y1="240" y2="260"/>
        <line class="connection same" marker-end="url(#id17)" stroke=" black" x1="180" x2="180" y1="220" y2="200"/>
        <line class="connection same" marker-end="url(#id17)" stroke=" black" x1="180" x2="180" y1="200" y2="180"/>
        <line class="connection same" marker-end="url(#id17)" stroke=" black" x1="120" x2="100" y1="220" y2="220"/>
        <line class="connection same" marker-end="url(#id17)" stroke=" black" x1="100" x2="100" y1="220" y2="240"/>
        <line class="connection same" marker-end="url(#id17)" stroke=" black" x1="100" x2="100" y1="240" y2="260"/>
        <line class="connection same" marker-end="url(#id17)" stroke=" black" x1="100" x2="100" y1="220" y2="200"/>
        <line class="connection same" marker-end="url(#id17)" stroke=" black" x1="100" x2="100" y1="200" y2="180"/>
        <line class="connection same" marker-end="url(#id17)" stroke=" black" x1="100" x2="80" y1="220" y2="220"/>
        <line class="connection same" marker-end="url(#id17)" stroke=" black" x1="80" x2="80" y1="220" y2="240"/>
        <line class="connection same" marker-end="url(#id17)" stroke=" black" x1="80" x2="80" y1="240" y2="260"/>
        <line class="connection same" marker-end="url(#id17)" stroke=" black" x1="80" x2="80" y1="220" y2="200"/>
        <line class="connection same" marker-end="url(#id17)" stroke=" black" x1="80" x2="80" y1="200" y2="180"/>
        <line class="connection same" marker-end="url(#id17)" stroke=" black" x1="80" x2="60" y1="220" y2="220"/>
        <line class="connection same" marker-end="url(#id17)" stroke=" black" x1="60" x2="60" y1="220" y2="240"/>
        <line class="connection same" marker-end="url(#id17)" stroke=" black" x1="60" x2="60" y1="240" y2="260"/>
        <line class="connection same" marker-end="url(#id17)" stroke=" black" x1="60" x2="60" y1="220" y2="200"/>
        <line class="connection same" marker-end="url(#id17)" stroke=" black" x1="60" x2="60" y1="200" y2="180"/>
        <line class="connection same" marker-end="url(#id17)" stroke=" black" x1="280" x2="300" y1="60" y2="60"/>
        <line class="connection same" marker-end="url(#id17)" stroke=" black" x1="300" x2="300" y1="60" y2="80"/>
        <line class="connection same" marker-end="url(#id17)" stroke=" black" x1="300" x2="300" y1="80" y2="100"/>
        <line class="connection same" marker-end="url(#id17)" stroke=" black" x1="300" x2="300" y1="60" y2="40"/>
        <line class="connection same" marker-end="url(#id17)" stroke=" black" x1="300" x2="300" y1="40" y2="20"/>
        <line class="connection same" marker-end="url(#id17)" stroke=" black" x1="300" x2="320" y1="60" y2="60"/>
        <line class="connection same" marker-end="url(#id17)" stroke=" black" x1="320" x2="320" y1="60" y2="80"/>
        <line class="connection same" marker-end="url(#id17)" stroke=" black" x1="320" x2="320" y1="80" y2="100"/>
        <line class="connection same" marker-end="url(#id17)" stroke=" black" x1="320" x2="320" y1="60" y2="40"/>
        <line class="connection same" marker-end="url(#id17)" stroke=" black" x1="320" x2="320" y1="40" y2="20"/>
        <line class="connection same" marker-end="url(#id17)" stroke=" black" x1="320" x2="340" y1="60" y2="60"/>
        <line class="connection same" marker-end="url(#id17)" stroke=" black" x1="340" x2="340" y1="60" y2="80"/>
        <line class="connection same" marker-end="url(#id17)" stroke=" black" x1="340" x2="340" y1="80" y2="100"/>
        <line class="connection same" marker-end="url(#id17)" stroke=" black" x1="340" x2="340" y1="60" y2="40"/>
        <line class="connection same" marker-end="url(#id17)" stroke=" black" x1="340" x2="340" y1="40" y2="20"/>
        <line class="connection same" marker-end="url(#id17)" stroke=" black" x1="280" x2="260" y1="60" y2="60"/>
        <line class="connection same" marker-end="url(#id17)" stroke=" black" x1="260" x2="260" y1="60" y2="80"/>
        <line class="connection same" marker-end="url(#id17)" stroke=" black" x1="260" x2="260" y1="80" y2="100"/>
        <line class="connection same" marker-end="url(#id17)" stroke=" black" x1="260" x2="260" y1="60" y2="40"/>
        <line class="connection same" marker-end="url(#id17)" stroke=" black" x1="260" x2="260" y1="40" y2="20"/>
        <line class="connection same" marker-end="url(#id17)" stroke=" black" x1="260" x2="240" y1="60" y2="60"/>
        <line class="connection same" marker-end="url(#id17)" stroke=" black" x1="240" x2="240" y1="60" y2="80"/>
        <line class="connection same" marker-end="url(#id17)" stroke=" black" x1="240" x2="240" y1="80" y2="100"/>
        <line class="connection same" marker-end="url(#id17)" stroke=" black" x1="240" x2="240" y1="60" y2="40"/>
        <line class="connection same" marker-end="url(#id17)" stroke=" black" x1="240" x2="240" y1="40" y2="20"/>
        <line class="connection same" marker-end="url(#id17)" stroke=" black" x1="240" x2="220" y1="60" y2="60"/>
        <line class="connection same" marker-end="url(#id17)" stroke=" black" x1="220" x2="220" y1="60" y2="80"/>
        <line class="connection same" marker-end="url(#id17)" stroke=" black" x1="220" x2="220" y1="80" y2="100"/>
        <line class="connection same" marker-end="url(#id17)" stroke=" black" x1="220" x2="220" y1="60" y2="40"/>
        <line class="connection same" marker-end="url(#id17)" stroke=" black" x1="220" x2="220" y1="40" y2="20"/>
        <line class="connection same" marker-end="url(#id17)" stroke=" black" x1="280" x2="300" y1="220" y2="220"/>
        <line class="connection same" marker-end="url(#id17)" stroke=" black" x1="300" x2="300" y1="220" y2="240"/>
        <line class="connection same" marker-end="url(#id17)" stroke=" black" x1="300" x2="300" y1="240" y2="260"/>
        <line class="connection same" marker-end="url(#id17)" stroke=" black" x1="300" x2="300" y1="220" y2="200"/>
        <line class="connection same" marker-end="url(#id17)" stroke=" black" x1="300" x2="300" y1="200" y2="180"/>
        <line class="connection same" marker-end="url(#id17)" stroke=" black" x1="300" x2="320" y1="220" y2="220"/>
        <line class="connection same" marker-end="url(#id17)" stroke=" black" x1="320" x2="320" y1="220" y2="240"/>
        <line class="connection same" marker-end="url(#id17)" stroke=" black" x1="320" x2="320" y1="240" y2="260"/>
        <line class="connection same" marker-end="url(#id17)" stroke=" black" x1="320" x2="320" y1="220" y2="200"/>
        <line class="connection same" marker-end="url(#id17)" stroke=" black" x1="320" x2="320" y1="200" y2="180"/>
        <line class="connection same" marker-end="url(#id17)" stroke=" black" x1="320" x2="340" y1="220" y2="220"/>
        <line class="connection same" marker-end="url(#id17)" stroke=" black" x1="340" x2="340" y1="220" y2="240"/>
        <line class="connection same" marker-end="url(#id17)" stroke=" black" x1="340" x2="340" y1="240" y2="260"/>
        <line class="connection same" marker-end="url(#id17)" stroke=" black" x1="340" x2="340" y1="220" y2="200"/>
        <line class="connection same" marker-end="url(#id17)" stroke=" black" x1="340" x2="340" y1="200" y2="180"/>
        <line class="connection same" marker-end="url(#id17)" stroke=" black" x1="280" x2="260" y1="220" y2="220"/>
        <line class="connection same" marker-end="url(#id17)" stroke=" black" x1="260" x2="260" y1="220" y2="240"/>
        <line class="connection same" marker-end="url(#id17)" stroke=" black" x1="260" x2="260" y1="240" y2="260"/>
        <line class="connection same" marker-end="url(#id17)" stroke=" black" x1="260" x2="260" y1="220" y2="200"/>
        <line class="connection same" marker-end="url(#id17)" stroke=" black" x1="260" x2="260" y1="200" y2="180"/>
        <line class="connection same" marker-end="url(#id17)" stroke=" black" x1="260" x2="240" y1="220" y2="220"/>
        <line class="connection same" marker-end="url(#id17)" stroke=" black" x1="240" x2="240" y1="220" y2="240"/>
        <line class="connection same" marker-end="url(#id17)" stroke=" black" x1="240" x2="240" y1="240" y2="260"/>
        <line class="connection same" marker-end="url(#id17)" stroke=" black" x1="240" x2="240" y1="220" y2="200"/>
        <line class="connection same" marker-end="url(#id17)" stroke=" black" x1="240" x2="240" y1="200" y2="180"/>
        <line class="connection same" marker-end="url(#id17)" stroke=" black" x1="240" x2="220" y1="220" y2="220"/>
        <line class="connection same" marker-end="url(#id17)" stroke=" black" x1="220" x2="220" y1="220" y2="240"/>
        <line class="connection same" marker-end="url(#id17)" stroke=" black" x1="220" x2="220" y1="240" y2="260"/>
        <line class="connection same" marker-end="url(#id17)" stroke=" black" x1="220" x2="220" y1="220" y2="200"/>
        <line class="connection same" marker-end="url(#id17)" stroke=" black" x1="220" x2="220" y1="200" y2="180"/>
        <line class="connection same" marker-end="url(#id17)" stroke=" black" x1="40" x2="20" y1="20" y2="20"/>
        <line class="connection same" marker-end="url(#id17)" stroke=" black" x1="360" x2="380" y1="20" y2="20"/>
        <line class="connection same" marker-end="url(#id17)" stroke=" black" x1="40" x2="20" y1="40" y2="40"/>
        <line class="connection same" marker-end="url(#id17)" stroke=" black" x1="360" x2="380" y1="40" y2="40"/>
        <line class="connection same" marker-end="url(#id17)" stroke=" black" x1="40" x2="20" y1="60" y2="60"/>
        <line class="connection same" marker-end="url(#id17)" stroke=" black" x1="360" x2="380" y1="60" y2="60"/>
        <line class="connection same" marker-end="url(#id17)" stroke=" black" x1="40" x2="20" y1="80" y2="80"/>
        <line class="connection same" marker-end="url(#id17)" stroke=" black" x1="360" x2="380" y1="80" y2="80"/>
        <line class="connection same" marker-end="url(#id17)" stroke=" black" x1="40" x2="20" y1="100" y2="100"/>
        <line class="connection same" marker-end="url(#id17)" stroke=" black" x1="360" x2="380" y1="100" y2="100"/>
        <line class="connection same" marker-end="url(#id17)" stroke=" black" x1="40" x2="20" y1="120" y2="120"/>
        <line class="connection same" marker-end="url(#id17)" stroke=" black" x1="360" x2="380" y1="120" y2="120"/>
        <line class="connection same" marker-end="url(#id17)" stroke=" black" x1="40" x2="20" y1="140" y2="140"/>
        <line class="connection same" marker-end="url(#id17)" stroke=" black" x1="360" x2="380" y1="140" y2="140"/>
        <line class="connection same" marker-end="url(#id17)" stroke=" black" x1="40" x2="20" y1="160" y2="160"/>
        <line class="connection same" marker-end="url(#id17)" stroke=" black" x1="360" x2="380" y1="160" y2="160"/>
        <line class="connection same" marker-end="url(#id17)" stroke=" black" x1="40" x2="20" y1="180" y2="180"/>
        <line class="connection same" marker-end="url(#id17)" stroke=" black" x1="360" x2="380" y1="180" y2="180"/>
        <line class="connection same" marker-end="url(#id17)" stroke=" black" x1="40" x2="20" y1="200" y2="200"/>
        <line class="connection same" marker-end="url(#id17)" stroke=" black" x1="360" x2="380" y1="200" y2="200"/>
        <line class="connection same" marker-end="url(#id17)" stroke=" black" x1="40" x2="20" y1="220" y2="220"/>
        <line class="connection same" marker-end="url(#id17)" stroke=" black" x1="360" x2="380" y1="220" y2="220"/>
        <line class="connection same" marker-end="url(#id17)" stroke=" black" x1="40" x2="20" y1="240" y2="240"/>
        <line class="connection same" marker-end="url(#id17)" stroke=" black" x1="360" x2="380" y1="240" y2="240"/>
        <line class="connection same" marker-end="url(#id17)" stroke=" black" x1="40" x2="20" y1="260" y2="260"/>
        <line class="connection same" marker-end="url(#id17)" stroke=" black" x1="360" x2="380" y1="260" y2="260"/>
        <line class="connection same" marker-end="url(#id17)" stroke=" black" x1="60" x2="60" y1="140" y2="160"/>
        <line class="connection same" marker-end="url(#id17)" stroke=" black" x1="60" x2="60" y1="140" y2="120"/>
        <line class="connection same" marker-end="url(#id17)" stroke=" black" x1="80" x2="80" y1="140" y2="160"/>
        <line class="connection same" marker-end="url(#id17)" stroke=" black" x1="80" x2="80" y1="140" y2="120"/>
        <line class="connection same" marker-end="url(#id17)" stroke=" black" x1="100" x2="100" y1="140" y2="160"/>
        <line class="connection same" marker-end="url(#id17)" stroke=" black" x1="100" x2="100" y1="140" y2="120"/>
        <line class="connection same" marker-end="url(#id17)" stroke=" black" x1="120" x2="120" y1="140" y2="160"/>
        <line class="connection same" marker-end="url(#id17)" stroke=" black" x1="120" x2="120" y1="140" y2="120"/>
        <line class="connection same" marker-end="url(#id17)" stroke=" black" x1="140" x2="140" y1="140" y2="160"/>
        <line class="connection same" marker-end="url(#id17)" stroke=" black" x1="140" x2="140" y1="140" y2="120"/>
        <line class="connection same" marker-end="url(#id17)" stroke=" black" x1="160" x2="160" y1="140" y2="160"/>
        <line class="connection same" marker-end="url(#id17)" stroke=" black" x1="160" x2="160" y1="140" y2="120"/>
        <line class="connection same" marker-end="url(#id17)" stroke=" black" x1="180" x2="180" y1="140" y2="160"/>
        <line class="connection same" marker-end="url(#id17)" stroke=" black" x1="180" x2="180" y1="140" y2="120"/>
        <line class="connection same" marker-end="url(#id17)" stroke=" black" x1="200" x2="200" y1="140" y2="160"/>
        <line class="connection same" marker-end="url(#id17)" stroke=" black" x1="200" x2="200" y1="160" y2="180"/>
        <line class="connection same" marker-end="url(#id17)" stroke=" black" x1="200" x2="200" y1="180" y2="200"/>
        <line class="connection same" marker-end="url(#id17)" stroke=" black" x1="200" x2="200" y1="200" y2="220"/>
        <line class="connection same" marker-end="url(#id17)" stroke=" black" x1="200" x2="200" y1="220" y2="240"/>
        <line class="connection same" marker-end="url(#id17)" stroke=" black" x1="200" x2="200" y1="240" y2="260"/>
        <line class="connection same" marker-end="url(#id17)" stroke=" black" x1="220" x2="220" y1="140" y2="160"/>
        <line class="connection same" marker-end="url(#id17)" stroke=" black" x1="220" x2="220" y1="140" y2="120"/>
        <line class="connection same" marker-end="url(#id17)" stroke=" black" x1="240" x2="240" y1="140" y2="160"/>
        <line class="connection same" marker-end="url(#id17)" stroke=" black" x1="240" x2="240" y1="140" y2="120"/>
        <line class="connection same" marker-end="url(#id17)" stroke=" black" x1="260" x2="260" y1="140" y2="160"/>
        <line class="connection same" marker-end="url(#id17)" stroke=" black" x1="260" x2="260" y1="140" y2="120"/>
        <line class="connection same" marker-end="url(#id17)" stroke=" black" x1="280" x2="280" y1="140" y2="160"/>
        <line class="connection same" marker-end="url(#id17)" stroke=" black" x1="280" x2="280" y1="140" y2="120"/>
        <line class="connection same" marker-end="url(#id17)" stroke=" black" x1="300" x2="300" y1="140" y2="160"/>
        <line class="connection same" marker-end="url(#id17)" stroke=" black" x1="300" x2="300" y1="140" y2="120"/>
        <line class="connection same" marker-end="url(#id17)" stroke=" black" x1="320" x2="320" y1="140" y2="160"/>
        <line class="connection same" marker-end="url(#id17)" stroke=" black" x1="320" x2="320" y1="140" y2="120"/>
        <line class="connection same" marker-end="url(#id17)" stroke=" black" x1="340" x2="340" y1="140" y2="160"/>
        <line class="connection same" marker-end="url(#id17)" stroke=" black" x1="340" x2="340" y1="140" y2="120"/>
        <g id="text">
            <text alignment-baseline="middle" class="moduleLabel" fill="black" font-size="26.0" text-anchor="middle" transform="scale(1,-1)" x="200.0" y="10.0">Hybrid Pattern</text>
        </g>
    </g>
</svg>
