<svg xmlns="http://www.w3.org/2000/svg" xmlns:xlink="http://www.w3.org/1999/xlink" xmlns:s="https://github.com/nturley/netlistsvg" width="352" height="244"><style>    svg {
    stroke:green;
    fill:none;
    }
    text {
    fill:blue;
    stroke:none;
    font-size:10px;
    font-weight: bold;
    font-family: "Courier New", monospace;
    }
    line {
    stroke-linecap: round;
    }
    .nodelabel {
    text-anchor: middle;
    }
    .inputPortLabel {
    text-anchor: end;
    }
    .splitjoinBody {
    fill:green;
    }</style><g s:type="sub_odd" transform="translate(119,72)" s:width="30" s:height="40" id="cell_merged_module_instance_0"><text x="57" y="-4" class="nodelabel cell_merged_module_instance_0" s:attribute="ref">merged_module_instance_0</text><rect width="114" height="150" s:generic="body" fill="#e9e9e9" rx="4" class="cell_merged_module_instance_0"/><g s:type="generic" transform="translate(52,22)" s:width="30" s:height="40" id="cell_inst_1_0"><text x="15" y="-4" class="nodelabel cell_inst_1_0" s:attribute="ref">inst_1_0</text><rect width="30" height="40" s:generic="body" fill="#ffffff" rx="0" class="cell_inst_1_0"/><g transform="translate(0,10)" s:x="0" s:y="10" s:pid="in0" id="port_inst_1_0~in0"><text x="-3" y="-4" class="inputPortLabel cell_inst_1_0">in0</text></g><g transform="translate(0,30)" s:x="0" s:y="10" s:pid="in0" id="port_inst_1_0~in1"><text x="-3" y="-4" class="inputPortLabel cell_inst_1_0">in1</text></g><g transform="translate(30,10)" s:x="30" s:y="10" s:pid="out0" id="port_inst_1_0~out"><text x="5" y="-4" style="stroke:none" class="cell_inst_1_0">out</text></g></g><g s:type="generic" transform="translate(52,95)" s:width="30" s:height="40" id="cell_inst_1_1"><text x="15" y="-4" class="nodelabel cell_inst_1_1" s:attribute="ref">inst_1_1</text><rect width="30" height="40" s:generic="body" fill="#ffffff" rx="0" class="cell_inst_1_1"/><g transform="translate(0,10)" s:x="0" s:y="10" s:pid="in0" id="port_inst_1_1~in0"><text x="-3" y="-4" class="inputPortLabel cell_inst_1_1">in0</text></g><g transform="translate(0,30)" s:x="0" s:y="10" s:pid="in0" id="port_inst_1_1~in1"><text x="-3" y="-4" class="inputPortLabel cell_inst_1_1">in1</text></g><g transform="translate(30,10)" s:x="30" s:y="10" s:pid="out0" id="port_inst_1_1~out"><text x="5" y="-4" style="stroke:none" class="cell_inst_1_1">out</text></g></g><line x1="0" x2="22" y1="29.5" y2="29.5" class="net_2"/><line x1="22" x2="22" y1="29.5" y2="32.5" class="net_2"/><line x1="22" x2="52" y1="32.5" y2="32.5" class="net_2"/><line x1="0" x2="51" y1="52.5" y2="52.5" class="net_3"/><line x1="0" x2="22" y1="102.5" y2="102.5" class="net_5"/><line x1="22" x2="22" y1="102.5" y2="105.5" class="net_5"/><line x1="22" x2="52" y1="105.5" y2="105.5" class="net_5"/><line x1="0" x2="51" y1="125.5" y2="125.5" class="net_6"/><line x1="83" x2="114" y1="32.5" y2="32.5" class="net_4"/><line x1="83" x2="114" y1="105.5" y2="105.5" class="net_7"/><g transform="translate(-1,29)" s:x="0" s:y="10" s:pid="in0" id="port_merged_module_instance_0~in0"><text x="-3" y="-4" class="inputPortLabel cell_merged_module_instance_0">in0</text></g><g transform="translate(-1,102)" s:x="0" s:y="10" s:pid="in0" id="port_merged_module_instance_0~in0_0"><text x="-3" y="-4" class="inputPortLabel cell_merged_module_instance_0">in0_0</text></g><g transform="translate(-1,52)" s:x="0" s:y="10" s:pid="in0" id="port_merged_module_instance_0~in1"><text x="-3" y="-4" class="inputPortLabel cell_merged_module_instance_0">in1</text></g><g transform="translate(-1,125)" s:x="0" s:y="10" s:pid="in0" id="port_merged_module_instance_0~in1_0"><text x="-3" y="-4" class="inputPortLabel cell_merged_module_instance_0">in1_0</text></g><g transform="translate(114,32)" s:x="30" s:y="10" s:pid="out0" id="port_merged_module_instance_0~out"><text x="5" y="-4" style="stroke:none" class="cell_merged_module_instance_0">out</text></g><g transform="translate(114,105)" s:x="30" s:y="10" s:pid="out0" id="port_merged_module_instance_0~out_0"><text x="5" y="-4" style="stroke:none" class="cell_merged_module_instance_0">out_0</text></g></g><g s:type="inputExt" transform="translate(12,91.5)" s:width="30" s:height="20" id="cell_in0"><text x="15" y="-4" class="nodelabel cell_in0" s:attribute="ref">in0</text><s:alias val="$_inputExt_"/><path d="M0,0 L0,20 L15,20 L30,10 L15,0 Z" fill="#ffffff" class="cell_in0"/><g s:x="30" s:y="10" s:pid="Y"/></g><g s:type="inputExt" transform="translate(12,156.5)" s:width="30" s:height="20" id="cell_in1"><text x="15" y="-4" class="nodelabel cell_in1" s:attribute="ref">in1</text><s:alias val="$_inputExt_"/><path d="M0,0 L0,20 L15,20 L30,10 L15,0 Z" fill="#ffffff" class="cell_in1"/><g s:x="30" s:y="10" s:pid="Y"/></g><g s:type="inputExt" transform="translate(12,22)" s:width="30" s:height="20" id="cell_in_ft"><text x="15" y="-4" class="nodelabel cell_in_ft" s:attribute="ref">in_ft</text><s:alias val="$_inputExt_"/><path d="M0,0 L0,20 L15,20 L30,10 L15,0 Z" fill="#ffffff" class="cell_in_ft"/><g s:x="30" s:y="10" s:pid="Y"/></g><g s:type="outputExt" transform="translate(310,167.5)" s:width="30" s:height="20" id="cell_out0"><text x="15" y="-4" class="nodelabel cell_out0" s:attribute="ref">out0</text><s:alias val="$_outputExt_"/><path d="M30,0 L30,20 L15,20 L0,10 L15,0 Z" fill="#ffffff" class="cell_out0"/><g s:x="0" s:y="10" s:pid="A"/></g><g s:type="outputExt" transform="translate(77,22)" s:width="30" s:height="20" id="cell_out_ft"><text x="15" y="-4" class="nodelabel cell_out_ft" s:attribute="ref">out_ft</text><s:alias val="$_outputExt_"/><path d="M30,0 L30,20 L15,20 L0,10 L15,0 Z" fill="#ffffff" class="cell_out_ft"/><g s:x="0" s:y="10" s:pid="A"/></g><line x1="42" x2="118" y1="101.5" y2="101.5" class="net_2 width_1" style="stroke-width: 1"/><line x1="42" x2="62" y1="101.5" y2="101.5" class="net_2 width_1" style="stroke-width: 1"/><line x1="62" x2="62" y1="101.5" y2="197.5" class="net_2 width_1" style="stroke-width: 1"/><circle cx="62" cy="101.5" r="2" style="fill:#000" class="net_2 width_1"/><line x1="62" x2="118" y1="197.5" y2="197.5" class="net_2 width_1" style="stroke-width: 1"/><line x1="234" x2="275" y1="104.5" y2="104.5" class="net_6 width_1" style="stroke-width: 1"/><line x1="275" x2="275" y1="104.5" y2="232" class="net_6 width_1" style="stroke-width: 1"/><line x1="275" x2="77" y1="232" y2="232" class="net_6 width_1" style="stroke-width: 1"/><line x1="77" x2="77" y1="232" y2="174.5" class="net_6 width_1" style="stroke-width: 1"/><line x1="77" x2="118" y1="174.5" y2="174.5" class="net_6 width_1" style="stroke-width: 1"/><line x1="42" x2="52" y1="166.5" y2="166.5" class="net_3 width_1" style="stroke-width: 1"/><line x1="52" x2="52" y1="166.5" y2="124.5" class="net_3 width_1" style="stroke-width: 1"/><line x1="52" x2="118" y1="124.5" y2="124.5" class="net_3 width_1" style="stroke-width: 1"/><line x1="234" x2="310" y1="177.5" y2="177.5" class="net_5 width_1" style="stroke-width: 1"/><line x1="42" x2="77" y1="32" y2="32" class="net_4 width_1" style="stroke-width: 1"/></svg>