<svg xmlns="http://www.w3.org/2000/svg" xmlns:xlink="http://www.w3.org/1999/xlink" xmlns:s="https://github.com/nturley/netlistsvg" width="892" height="221"><style>    svg {
    stroke:green;
    fill:none;
    }
    text {
    fill:blue;
    stroke:none;
    font-size:10px;
    font-weight: bold;
    font-family: "Courier New", monospace;
    }
    line {
    stroke-linecap: round;
    }
    .nodelabel {
    text-anchor: middle;
    }
    .inputPortLabel {
    text-anchor: end;
    }
    .splitjoinBody {
    fill:green;
    }</style><g s:type="sub_odd" transform="translate(224,56)" s:width="30" s:height="40" id="cell_inst_3_0"><text x="86" y="-4" class="nodelabel cell_inst_3_0" s:attribute="ref">inst_3_0</text><rect width="172" height="150" s:generic="body" fill="#e9e9e9" rx="4" class="cell_inst_3_0"/><g s:type="generic" transform="translate(52,22)" s:width="30" s:height="40" id="cell_inst_1_0"><text x="15" y="-4" class="nodelabel cell_inst_1_0" s:attribute="ref">inst_1_0</text><rect width="30" height="40" s:generic="body" fill="#ffffff" rx="0" class="cell_inst_1_0"/><g transform="translate(0,10)" s:x="0" s:y="10" s:pid="in0" id="port_inst_1_0~in0"><text x="-3" y="-4" class="inputPortLabel cell_inst_1_0">in0</text></g><g transform="translate(0,30)" s:x="0" s:y="10" s:pid="in0" id="port_inst_1_0~in1"><text x="-3" y="-4" class="inputPortLabel cell_inst_1_0">in1</text></g><g transform="translate(30,10)" s:x="30" s:y="10" s:pid="out0" id="port_inst_1_0~out"><text x="5" y="-4" style="stroke:none" class="cell_inst_1_0">out</text></g></g><g s:type="generic" transform="translate(71,95)" s:width="30" s:height="40" id="cell_inst_2_0"><text x="15" y="-4" class="nodelabel cell_inst_2_0" s:attribute="ref">inst_2_0</text><rect width="30" height="40" s:generic="body" fill="#ffffff" rx="0" class="cell_inst_2_0"/><g transform="translate(0,10)" s:x="0" s:y="10" s:pid="in0" id="port_inst_2_0~in0"><text x="-3" y="-4" class="inputPortLabel cell_inst_2_0">in0</text></g><g transform="translate(0,30)" s:x="0" s:y="10" s:pid="in0" id="port_inst_2_0~in1"><text x="-3" y="-4" class="inputPortLabel cell_inst_2_0">in1</text></g><g transform="translate(30,10)" s:x="30" s:y="10" s:pid="out0" id="port_inst_2_0~out"><text x="5" y="-4" style="stroke:none" class="cell_inst_2_0">out</text></g></g><line x1="0" x2="22" y1="29.5" y2="29.5" class="net_2"/><line x1="22" x2="22" y1="29.5" y2="32.5" class="net_2"/><line x1="22" x2="52" y1="32.5" y2="32.5" class="net_2"/><line x1="0" x2="51" y1="52.5" y2="52.5" class="net_3"/><line x1="0" x2="26" y1="102.5" y2="102.5" class="net_5,6"/><line x1="26" x2="26" y1="102.5" y2="105.5" class="net_5,6"/><line x1="26" x2="71" y1="105.5" y2="105.5" class="net_5,6"/><line x1="0" x2="70" y1="125.5" y2="125.5" class="net_7,8"/><line x1="83" x2="172" y1="32.5" y2="32.5" class="net_4"/><line x1="102" x2="172" y1="105.5" y2="105.5" class="net_9,10"/><g transform="translate(-1,29)" s:x="0" s:y="10" s:pid="in0" id="port_inst_3_0~in0"><text x="-3" y="-4" class="inputPortLabel cell_inst_3_0">in0</text></g><g transform="translate(-1,102)" s:x="0" s:y="10" s:pid="in0" id="port_inst_3_0~in0_0"><text x="-3" y="-4" class="inputPortLabel cell_inst_3_0">in0_0</text></g><g transform="translate(-1,52)" s:x="0" s:y="10" s:pid="in0" id="port_inst_3_0~in1"><text x="-3" y="-4" class="inputPortLabel cell_inst_3_0">in1</text></g><g transform="translate(-1,125)" s:x="0" s:y="10" s:pid="in0" id="port_inst_3_0~in1_0"><text x="-3" y="-4" class="inputPortLabel cell_inst_3_0">in1_0</text></g><g transform="translate(172,32)" s:x="30" s:y="10" s:pid="out0" id="port_inst_3_0~out"><text x="5" y="-4" style="stroke:none" class="cell_inst_3_0">out</text></g><g transform="translate(172,105)" s:x="30" s:y="10" s:pid="out0" id="port_inst_3_0~out_0"><text x="5" y="-4" style="stroke:none" class="cell_inst_3_0">out_0</text></g></g><g s:type="sub_odd" transform="translate(560,59)" s:width="30" s:height="40" id="cell_inst_3_1"><text x="86" y="-4" class="nodelabel cell_inst_3_1" s:attribute="ref">inst_3_1</text><rect width="172" height="150" s:generic="body" fill="#e9e9e9" rx="4" class="cell_inst_3_1"/><g s:type="generic" transform="translate(52,22)" s:width="30" s:height="40" id="cell_inst_1_0"><text x="15" y="-4" class="nodelabel cell_inst_1_0" s:attribute="ref">inst_1_0</text><rect width="30" height="40" s:generic="body" fill="#ffffff" rx="0" class="cell_inst_1_0"/><g transform="translate(0,10)" s:x="0" s:y="10" s:pid="in0" id="port_inst_1_0~in0"><text x="-3" y="-4" class="inputPortLabel cell_inst_1_0">in0</text></g><g transform="translate(0,30)" s:x="0" s:y="10" s:pid="in0" id="port_inst_1_0~in1"><text x="-3" y="-4" class="inputPortLabel cell_inst_1_0">in1</text></g><g transform="translate(30,10)" s:x="30" s:y="10" s:pid="out0" id="port_inst_1_0~out"><text x="5" y="-4" style="stroke:none" class="cell_inst_1_0">out</text></g></g><g s:type="generic" transform="translate(71,95)" s:width="30" s:height="40" id="cell_inst_2_0"><text x="15" y="-4" class="nodelabel cell_inst_2_0" s:attribute="ref">inst_2_0</text><rect width="30" height="40" s:generic="body" fill="#ffffff" rx="0" class="cell_inst_2_0"/><g transform="translate(0,10)" s:x="0" s:y="10" s:pid="in0" id="port_inst_2_0~in0"><text x="-3" y="-4" class="inputPortLabel cell_inst_2_0">in0</text></g><g transform="translate(0,30)" s:x="0" s:y="10" s:pid="in0" id="port_inst_2_0~in1"><text x="-3" y="-4" class="inputPortLabel cell_inst_2_0">in1</text></g><g transform="translate(30,10)" s:x="30" s:y="10" s:pid="out0" id="port_inst_2_0~out"><text x="5" y="-4" style="stroke:none" class="cell_inst_2_0">out</text></g></g><line x1="0" x2="22" y1="29.5" y2="29.5" class="net_2"/><line x1="22" x2="22" y1="29.5" y2="32.5" class="net_2"/><line x1="22" x2="52" y1="32.5" y2="32.5" class="net_2"/><line x1="0" x2="51" y1="52.5" y2="52.5" class="net_3"/><line x1="0" x2="26" y1="102.5" y2="102.5" class="net_5,6"/><line x1="26" x2="26" y1="102.5" y2="105.5" class="net_5,6"/><line x1="26" x2="71" y1="105.5" y2="105.5" class="net_5,6"/><line x1="0" x2="70" y1="125.5" y2="125.5" class="net_7,8"/><line x1="83" x2="172" y1="32.5" y2="32.5" class="net_4"/><line x1="102" x2="172" y1="105.5" y2="105.5" class="net_9,10"/><g transform="translate(-1,29)" s:x="0" s:y="10" s:pid="in0" id="port_inst_3_1~in0"><text x="-3" y="-4" class="inputPortLabel cell_inst_3_1">in0</text></g><g transform="translate(-1,102)" s:x="0" s:y="10" s:pid="in0" id="port_inst_3_1~in0_0"><text x="-3" y="-4" class="inputPortLabel cell_inst_3_1">in0_0</text></g><g transform="translate(-1,52)" s:x="0" s:y="10" s:pid="in0" id="port_inst_3_1~in1"><text x="-3" y="-4" class="inputPortLabel cell_inst_3_1">in1</text></g><g transform="translate(-1,125)" s:x="0" s:y="10" s:pid="in0" id="port_inst_3_1~in1_0"><text x="-3" y="-4" class="inputPortLabel cell_inst_3_1">in1_0</text></g><g transform="translate(172,32)" s:x="30" s:y="10" s:pid="out0" id="port_inst_3_1~out"><text x="5" y="-4" style="stroke:none" class="cell_inst_3_1">out</text></g><g transform="translate(172,105)" s:x="30" s:y="10" s:pid="out0" id="port_inst_3_1~out_0"><text x="5" y="-4" style="stroke:none" class="cell_inst_3_1">out_0</text></g></g><g s:type="inputExt" transform="translate(12,22)" s:width="30" s:height="20" id="cell_in0"><text x="15" y="-4" class="nodelabel cell_in0" s:attribute="ref">in0</text><s:alias val="$_inputExt_"/><path d="M0,0 L0,20 L15,20 L30,10 L15,0 Z" fill="#ffffff" class="cell_in0"/><g s:x="30" s:y="10" s:pid="Y"/></g><g s:type="inputExt" transform="translate(12,87)" s:width="30" s:height="20" id="cell_in1"><text x="15" y="-4" class="nodelabel cell_in1" s:attribute="ref">in1</text><s:alias val="$_inputExt_"/><path d="M0,0 L0,20 L15,20 L30,10 L15,0 Z" fill="#ffffff" class="cell_in1"/><g s:x="30" s:y="10" s:pid="Y"/></g><g s:type="inputExt" transform="translate(463,101.5)" s:width="30" s:height="20" id="cell_in3"><text x="15" y="-4" class="nodelabel cell_in3" s:attribute="ref">in3</text><s:alias val="$_inputExt_"/><path d="M0,0 L0,20 L15,20 L30,10 L15,0 Z" fill="#ffffff" class="cell_in3"/><g s:x="30" s:y="10" s:pid="Y"/></g><g s:type="inputExt" transform="translate(77,171.5)" s:width="30" s:height="20" id="cell_bus_in"><text x="15" y="-4" class="nodelabel cell_bus_in" s:attribute="ref">bus_in</text><s:alias val="$_inputExt_"/><path d="M0,0 L0,20 L15,20 L30,10 L15,0 Z" fill="#ffffff" class="cell_bus_in"/><g s:x="30" s:y="10" s:pid="Y"/></g><g s:type="outputExt" transform="translate(838,81.5)" s:width="30" s:height="20" id="cell_out0"><text x="15" y="-4" class="nodelabel cell_out0" s:attribute="ref">out0</text><s:alias val="$_outputExt_"/><path d="M30,0 L30,20 L15,20 L0,10 L15,0 Z" fill="#ffffff" class="cell_out0"/><g s:x="0" s:y="10" s:pid="A"/></g><g s:type="outputExt" transform="translate(838,154.5)" s:width="30" s:height="20" id="cell_bus_out"><text x="15" y="-4" class="nodelabel cell_bus_out" s:attribute="ref">bus_out</text><s:alias val="$_outputExt_"/><path d="M30,0 L30,20 L15,20 L0,10 L15,0 Z" fill="#ffffff" class="cell_bus_out"/><g s:x="0" s:y="10" s:pid="A"/></g><g s:type="join" transform="translate(90,86.5)" s:width="5" s:height="40" id="cell_$join$,3,2,"><rect width="5" height="40" class="splitjoinBody" s:generic="body"/><s:alias val="$_join_"/><g s:x="5" s:y="20" s:pid="out"/><g transform="translate(-1,10)" s:x="-1" s:y="10" s:pid="in0"><text x="-3" y="-4" class="inputPortLabel">0</text></g><g transform="translate(-1,30)" s:x="-1" s:y="10" s:pid="in0"><text x="-3" y="-4" class="inputPortLabel">1</text></g></g><line x1="42" x2="182" y1="32" y2="32" class="net_2 width_1" style="stroke-width: 1"/><line x1="182" x2="182" y1="32" y2="85.5" class="net_2 width_1" style="stroke-width: 1"/><line x1="182" x2="223" y1="85.5" y2="85.5" class="net_2 width_1" style="stroke-width: 1"/><line x1="42" x2="52" y1="32" y2="32" class="net_2 width_1" style="stroke-width: 1"/><line x1="52" x2="52" y1="32" y2="117" class="net_2 width_1" style="stroke-width: 1"/><circle cx="52" cy="32" r="2" style="fill:#000" class="net_2 width_1"/><line x1="52" x2="89" y1="117" y2="117" class="net_2 width_1" style="stroke-width: 1"/><line x1="96" x2="162" y1="107" y2="107" class="net_3,2 width_2" style="stroke-width: 2"/><line x1="162" x2="162" y1="107" y2="158.5" class="net_3,2 width_2" style="stroke-width: 2"/><line x1="162" x2="223" y1="158.5" y2="158.5" class="net_3,2 width_2" style="stroke-width: 2"/><line x1="42" x2="62" y1="97" y2="97" class="net_3 width_1" style="stroke-width: 1"/><line x1="62" x2="62" y1="97" y2="73.5" class="net_3 width_1" style="stroke-width: 1"/><line x1="62" x2="172" y1="73.5" y2="73.5" class="net_3 width_1" style="stroke-width: 1"/><line x1="172" x2="172" y1="73.5" y2="108.5" class="net_3 width_1" style="stroke-width: 1"/><circle cx="62" cy="97" r="2" style="fill:#000" class="net_3 width_1"/><line x1="172" x2="223" y1="108.5" y2="108.5" class="net_3 width_1" style="stroke-width: 1"/><line x1="42" x2="89" y1="97" y2="97" class="net_3 width_1" style="stroke-width: 1"/><line x1="107" x2="223" y1="181.5" y2="181.5" class="net_5,6 width_2" style="stroke-width: 2"/><line x1="397" x2="438" y1="88.5" y2="88.5" class="net_10 width_1" style="stroke-width: 1"/><line x1="438" x2="438" y1="88.5" y2="80.5" class="net_10 width_1" style="stroke-width: 1"/><line x1="438" x2="503" y1="80.5" y2="80.5" class="net_10 width_1" style="stroke-width: 1"/><line x1="503" x2="503" y1="80.5" y2="88.5" class="net_10 width_1" style="stroke-width: 1"/><line x1="503" x2="559" y1="88.5" y2="88.5" class="net_10 width_1" style="stroke-width: 1"/><line x1="397" x2="559" y1="161.5" y2="161.5" class="net_11,12 width_2" style="stroke-width: 2"/><line x1="397" x2="438" y1="161.5" y2="161.5" class="net_11,12 width_2" style="stroke-width: 2"/><line x1="438" x2="438" y1="161.5" y2="184.5" class="net_11,12 width_2" style="stroke-width: 2"/><circle cx="438" cy="161.5" r="3" style="fill:#000" class="net_11,12 width_2"/><line x1="438" x2="559" y1="184.5" y2="184.5" class="net_11,12 width_2" style="stroke-width: 2"/><line x1="493" x2="559" y1="111.5" y2="111.5" class="net_4 width_1" style="stroke-width: 1"/><line x1="733" x2="838" y1="91.5" y2="91.5" class="net_7 width_1" style="stroke-width: 1"/><line x1="733" x2="838" y1="164.5" y2="164.5" class="net_8,9 width_2" style="stroke-width: 2"/><rect x="149" y="102" width="16" height="9" class="net_3,2 width_2 busLabel_2" style="fill: white; stroke: none"/><text x="148" y="110" class="net_3,2 width_2 busLabel_2">/2/</text><rect x="149" y="176.5" width="16" height="9" class="net_5,6 width_2 busLabel_2" style="fill: white; stroke: none"/><text x="148" y="184.5" class="net_5,6 width_2 busLabel_2">/2/</text><rect x="477" y="179.5" width="16" height="9" class="net_11,12 width_2 busLabel_2" style="fill: white; stroke: none"/><text x="476" y="187.5" class="net_11,12 width_2 busLabel_2">/2/</text><rect x="477" y="179.5" width="16" height="9" class="net_11,12 width_2 busLabel_2" style="fill: white; stroke: none"/><text x="476" y="187.5" class="net_11,12 width_2 busLabel_2">/2/</text><rect x="800" y="159.5" width="16" height="9" class="net_8,9 width_2 busLabel_2" style="fill: white; stroke: none"/><text x="799" y="167.5" class="net_8,9 width_2 busLabel_2">/2/</text></svg>