<svg xmlns="http://www.w3.org/2000/svg" xmlns:xlink="http://www.w3.org/1999/xlink" xmlns:s="https://github.com/nturley/netlistsvg" width="478" height="230">
  <style>svg {
    stroke:#000;
    fill:none;
  }
  text {
    fill:#000;
    stroke:none;
    font-size:10px;
    font-weight: bold;
    font-family: "Courier New", monospace;
  }
  .nodelabel {
    text-anchor: middle;
  }
  .inputPortLabel {
    text-anchor: end;
  }
  .splitjoinBody {
    fill:#000;
  }</style>
  <g s:type="generic" transform="translate(179,70)" s:width="30" s:height="40" id="cell_merged_inst1">
    <text x="15" y="-4" class="nodelabel cell_merged_inst1" s:attribute="ref">merged_inst1</text>
    <rect width="30" height="80" s:generic="body" class="cell_merged_inst1"/>
    <g transform="translate(0,10)" s:x="0" s:y="10" s:pid="in0" id="port_merged_inst1~in0">
      <text x="-3" y="-4" class="inputPortLabel cell_merged_inst1">in0</text>
    </g>
    <g transform="translate(0,30)" s:x="0" s:y="10" s:pid="in0" id="port_merged_inst1~in0_0">
      <text x="-3" y="-4" class="inputPortLabel cell_merged_inst1">in0_0</text>
    </g>
    <g transform="translate(0,50)" s:x="0" s:y="10" s:pid="in0" id="port_merged_inst1~in1">
      <text x="-3" y="-4" class="inputPortLabel cell_merged_inst1">in1</text>
    </g>
    <g transform="translate(0,70)" s:x="0" s:y="10" s:pid="in0" id="port_merged_inst1~in1_0">
      <text x="-3" y="-4" class="inputPortLabel cell_merged_inst1">in1_0</text>
    </g>
    <g transform="translate(30,10)" s:x="30" s:y="10" s:pid="out0" id="port_merged_inst1~out">
      <text x="5" y="-4" style="fill:#000; stroke:none" class="cell_merged_inst1">out</text>
    </g>
    <g transform="translate(30,30)" s:x="30" s:y="10" s:pid="out0" id="port_merged_inst1~out_0">
      <text x="5" y="-4" style="fill:#000; stroke:none" class="cell_merged_inst1">out_0</text>
    </g>
  </g>
  <g s:type="generic" transform="translate(317,70)" s:width="30" s:height="40" id="cell_merged_inst2">
    <text x="15" y="-4" class="nodelabel cell_merged_inst2" s:attribute="ref">merged_inst2</text>
    <rect width="30" height="80" s:generic="body" class="cell_merged_inst2"/>
    <g transform="translate(0,10)" s:x="0" s:y="10" s:pid="in0" id="port_merged_inst2~in0">
      <text x="-3" y="-4" class="inputPortLabel cell_merged_inst2">in0</text>
    </g>
    <g transform="translate(0,30)" s:x="0" s:y="10" s:pid="in0" id="port_merged_inst2~in0_0">
      <text x="-3" y="-4" class="inputPortLabel cell_merged_inst2">in0_0</text>
    </g>
    <g transform="translate(0,50)" s:x="0" s:y="10" s:pid="in0" id="port_merged_inst2~in1">
      <text x="-3" y="-4" class="inputPortLabel cell_merged_inst2">in1</text>
    </g>
    <g transform="translate(0,70)" s:x="0" s:y="10" s:pid="in0" id="port_merged_inst2~in1_0">
      <text x="-3" y="-4" class="inputPortLabel cell_merged_inst2">in1_0</text>
    </g>
    <g transform="translate(30,10)" s:x="30" s:y="10" s:pid="out0" id="port_merged_inst2~out">
      <text x="5" y="-4" style="fill:#000; stroke:none" class="cell_merged_inst2">out</text>
    </g>
    <g transform="translate(30,30)" s:x="30" s:y="10" s:pid="out0" id="port_merged_inst2~out_0">
      <text x="5" y="-4" style="fill:#000; stroke:none" class="cell_merged_inst2">out_0</text>
    </g>
  </g>
  <g s:type="inputExt" transform="translate(12,45.5)" s:width="30" s:height="20" id="cell_in0">
    <text x="15" y="-4" class="nodelabel cell_in0" s:attribute="ref">in0</text>
    <s:alias val="$_inputExt_"/>
    <path d="M0,0 L0,20 L15,20 L30,10 L15,0 Z" class="cell_in0"/>
    <g s:x="28" s:y="10" s:pid="Y"/>
  </g>
  <g s:type="inputExt" transform="translate(12,110.5)" s:width="30" s:height="20" id="cell_in1">
    <text x="15" y="-4" class="nodelabel cell_in1" s:attribute="ref">in1</text>
    <s:alias val="$_inputExt_"/>
    <path d="M0,0 L0,20 L15,20 L30,10 L15,0 Z" class="cell_in1"/>
    <g s:x="28" s:y="10" s:pid="Y"/>
  </g>
  <g s:type="inputExt" transform="translate(179,198)" s:width="30" s:height="20" id="cell_in3">
    <text x="15" y="-4" class="nodelabel cell_in3" s:attribute="ref">in3</text>
    <s:alias val="$_inputExt_"/>
    <path d="M0,0 L0,20 L15,20 L30,10 L15,0 Z" class="cell_in3"/>
    <g s:x="28" s:y="10" s:pid="Y"/>
  </g>
  <g s:type="inputExt" transform="translate(77,141.5)" s:width="30" s:height="20" id="cell_bus_in">
    <text x="15" y="-4" class="nodelabel cell_bus_in" s:attribute="ref">bus_in</text>
    <s:alias val="$_inputExt_"/>
    <path d="M0,0 L0,20 L15,20 L30,10 L15,0 Z" class="cell_bus_in"/>
    <g s:x="28" s:y="10" s:pid="Y"/>
  </g>
  <g s:type="outputExt" transform="translate(424,25.5)" s:width="30" s:height="20" id="cell_out0">
    <text x="15" y="-4" class="nodelabel cell_out0" s:attribute="ref">out0</text>
    <s:alias val="$_outputExt_"/>
    <path d="M30,0 L30,20 L15,20 L0,10 L15,0 Z" class="cell_out0"/>
    <g s:x="0" s:y="10" s:pid="A"/>
  </g>
  <g s:type="outputExt" transform="translate(424,90.5)" s:width="30" s:height="20" id="cell_bus_out">
    <text x="15" y="-4" class="nodelabel cell_bus_out" s:attribute="ref">bus_out</text>
    <s:alias val="$_outputExt_"/>
    <path d="M30,0 L30,20 L15,20 L0,10 L15,0 Z" class="cell_bus_out"/>
    <g s:x="0" s:y="10" s:pid="A"/>
  </g>
  <g s:type="join" transform="translate(90,25)" s:width="4" s:height="40" id="cell_$join$,3,2,">
    <rect width="5" height="40" class="splitjoinBody" s:generic="body"/>
    <s:alias val="$_join_"/>
    <g s:x="5" s:y="20" s:pid="out"/>
    <g transform="translate(0,10)" s:x="0" s:y="10" s:pid="in0">
      <text x="-3" y="-4" class="inputPortLabel">0</text>
    </g>
    <g transform="translate(0,30)" s:x="0" s:y="10" s:pid="in0">
      <text x="-3" y="-4" class="inputPortLabel">1</text>
    </g>
  </g>
  <line x1="40" x2="52" y1="55.5" y2="55.5" class="net_2"/>
  <line x1="52" x2="52" y1="55.5" y2="12" class="net_2"/>
  <line x1="52" x2="133" y1="12" y2="12" class="net_2"/>
  <line x1="133" x2="133" y1="12" y2="80.5" class="net_2"/>
  <circle cx="52" cy="55.5" r="2" style="fill:#000" class="net_2"/>
  <line x1="133" x2="179" y1="80.5" y2="80.5" class="net_2"/>
  <line x1="40" x2="90" y1="55.5" y2="55.5" class="net_2"/>
  <line x1="96" x2="123" y1="45.5" y2="45.5" class="net_3,2"/>
  <line x1="123" x2="123" y1="45.5" y2="100.5" class="net_3,2"/>
  <line x1="123" x2="179" y1="100.5" y2="100.5" class="net_3,2"/>
  <line x1="40" x2="179" y1="120.5" y2="120.5" class="net_3"/>
  <line x1="40" x2="62" y1="120.5" y2="120.5" class="net_3"/>
  <line x1="62" x2="62" y1="120.5" y2="35.5" class="net_3"/>
  <circle cx="62" cy="120.5" r="2" style="fill:#000" class="net_3"/>
  <line x1="62" x2="90" y1="35.5" y2="35.5" class="net_3"/>
  <line x1="105" x2="123" y1="151.5" y2="151.5" class="net_5,6"/>
  <line x1="123" x2="123" y1="151.5" y2="140.5" class="net_5,6"/>
  <line x1="123" x2="179" y1="140.5" y2="140.5" class="net_5,6"/>
  <line x1="210" x2="317" y1="80.5" y2="80.5" class="net_10"/>
  <line x1="210" x2="317" y1="100.5" y2="100.5" class="net_11,12"/>
  <line x1="210" x2="271" y1="100.5" y2="100.5" class="net_11,12"/>
  <line x1="271" x2="271" y1="100.5" y2="140.5" class="net_11,12"/>
  <circle cx="271" cy="100.5" r="2" style="fill:#000" class="net_11,12"/>
  <line x1="271" x2="317" y1="140.5" y2="140.5" class="net_11,12"/>
  <line x1="207" x2="261" y1="208" y2="208" class="net_4"/>
  <line x1="261" x2="261" y1="208" y2="120.5" class="net_4"/>
  <line x1="261" x2="317" y1="120.5" y2="120.5" class="net_4"/>
  <line x1="348" x2="399" y1="80.5" y2="80.5" class="net_7"/>
  <line x1="399" x2="399" y1="80.5" y2="35.5" class="net_7"/>
  <line x1="399" x2="424" y1="35.5" y2="35.5" class="net_7"/>
  <line x1="348" x2="424" y1="100.5" y2="100.5" class="net_8,9"/>
</svg>
