<svg xmlns="http://www.w3.org/2000/svg" xmlns:xlink="http://www.w3.org/1999/xlink" xmlns:s="https://github.com/nturley/netlistsvg" width="350" height="179.5"><style>svg {
  stroke:#000;
  fill:none;
}
text {
  fill:#000;
  stroke:none;
  font-size:10px;
  font-weight: bold;
  font-family: "Courier New", monospace;
}
line {
    stroke-linecap: round;
}
.nodelabel {
  text-anchor: middle;
}
.inputPortLabel {
  text-anchor: end;
}
.splitjoinBody {
  fill:#000;
}</style><g s:type="generic" transform="translate(119,82)" s:width="30" s:height="40" id="cell_merged_module_instance_0"><text x="15" y="-4" class="nodelabel cell_merged_module_instance_0" s:attribute="ref">merged_module_instance_0</text><rect width="30" height="80" s:generic="body" fill="#ffffff" rx="0" class="cell_merged_module_instance_0"/><g transform="translate(0,10)" s:x="0" s:y="10" s:pid="in0" id="port_merged_module_instance_0~in0"><text x="-3" y="-4" class="inputPortLabel cell_merged_module_instance_0">in0</text></g><g transform="translate(0,30)" s:x="0" s:y="10" s:pid="in0" id="port_merged_module_instance_0~in0_0"><text x="-3" y="-4" class="inputPortLabel cell_merged_module_instance_0">in0_0</text></g><g transform="translate(0,50)" s:x="0" s:y="10" s:pid="in0" id="port_merged_module_instance_0~in1"><text x="-3" y="-4" class="inputPortLabel cell_merged_module_instance_0">in1</text></g><g transform="translate(0,70)" s:x="0" s:y="10" s:pid="in0" id="port_merged_module_instance_0~in1_0"><text x="-3" y="-4" class="inputPortLabel cell_merged_module_instance_0">in1_0</text></g><g transform="translate(30,10)" s:x="30" s:y="10" s:pid="out0" id="port_merged_module_instance_0~out"><text x="5" y="-4" style="fill:#000; stroke:none" class="cell_merged_module_instance_0">out</text></g><g transform="translate(30,30)" s:x="30" s:y="10" s:pid="out0" id="port_merged_module_instance_0~out_0"><text x="5" y="-4" style="fill:#000; stroke:none" class="cell_merged_module_instance_0">out_0</text></g></g><g s:type="inputExt" transform="translate(12,82.5)" s:width="30" s:height="20" id="cell_in0"><text x="15" y="-4" class="nodelabel cell_in0" s:attribute="ref">in0</text><s:alias val="$_inputExt_"/><path d="M0,0 L0,20 L15,20 L30,10 L15,0 Z" fill="#ffffff" class="cell_in0"/><g s:x="30" s:y="10" s:pid="Y"/></g><g s:type="inputExt" transform="translate(12,147.5)" s:width="30" s:height="20" id="cell_in1"><text x="15" y="-4" class="nodelabel cell_in1" s:attribute="ref">in1</text><s:alias val="$_inputExt_"/><path d="M0,0 L0,20 L15,20 L30,10 L15,0 Z" fill="#ffffff" class="cell_in1"/><g s:x="30" s:y="10" s:pid="Y"/></g><g s:type="inputExt" transform="translate(12,22)" s:width="30" s:height="20" id="cell_in_ft"><text x="15" y="-4" class="nodelabel cell_in_ft" s:attribute="ref">in_ft</text><s:alias val="$_inputExt_"/><path d="M0,0 L0,20 L15,20 L30,10 L15,0 Z" fill="#ffffff" class="cell_in_ft"/><g s:x="30" s:y="10" s:pid="Y"/></g><g s:type="outputExt" transform="translate(308,102.5)" s:width="30" s:height="20" id="cell_out0"><text x="15" y="-4" class="nodelabel cell_out0" s:attribute="ref">out0</text><s:alias val="$_outputExt_"/><path d="M30,0 L30,20 L15,20 L0,10 L15,0 Z" fill="#ffffff" class="cell_out0"/><g s:x="0" s:y="10" s:pid="A"/></g><g s:type="outputExt" transform="translate(77,22)" s:width="30" s:height="20" id="cell_out_ft"><text x="15" y="-4" class="nodelabel cell_out_ft" s:attribute="ref">out_ft</text><s:alias val="$_outputExt_"/><path d="M30,0 L30,20 L15,20 L0,10 L15,0 Z" fill="#ffffff" class="cell_out_ft"/><g s:x="0" s:y="10" s:pid="A"/></g><line x1="42" x2="119" y1="92.5" y2="92.5" class="net_2 width_1" style="stroke-width: 1"/><line x1="42" x2="62" y1="92.5" y2="92.5" class="net_2 width_1" style="stroke-width: 1"/><line x1="62" x2="62" y1="92.5" y2="152.5" class="net_2 width_1" style="stroke-width: 1"/><circle cx="62" cy="92.5" r="2" style="fill:#000" class="net_2 width_1"/><line x1="62" x2="118" y1="152.5" y2="152.5" class="net_2 width_1" style="stroke-width: 1"/><line x1="150" x2="273" y1="92.5" y2="92.5" class="net_6 width_1" style="stroke-width: 1"/><line x1="273" x2="273" y1="92.5" y2="62" class="net_6 width_1" style="stroke-width: 1"/><line x1="273" x2="77" y1="62" y2="62" class="net_6 width_1" style="stroke-width: 1"/><line x1="77" x2="77" y1="62" y2="112.5" class="net_6 width_1" style="stroke-width: 1"/><line x1="77" x2="118" y1="112.5" y2="112.5" class="net_6 width_1" style="stroke-width: 1"/><line x1="42" x2="52" y1="157.5" y2="157.5" class="net_3 width_1" style="stroke-width: 1"/><line x1="52" x2="52" y1="157.5" y2="132.5" class="net_3 width_1" style="stroke-width: 1"/><line x1="52" x2="118" y1="132.5" y2="132.5" class="net_3 width_1" style="stroke-width: 1"/><line x1="150" x2="308" y1="112.5" y2="112.5" class="net_5 width_1" style="stroke-width: 1"/><line x1="42" x2="77" y1="32" y2="32" class="net_4 width_1" style="stroke-width: 1"/></svg>