<svg xmlns="http://www.w3.org/2000/svg" xmlns:xlink="http://www.w3.org/1999/xlink" xmlns:s="https://github.com/nturley/netlistsvg" width="608" height="190"><style>svg {
  stroke:#000;
  fill:none;
}
text {
  fill:#000;
  stroke:none;
  font-size:10px;
  font-weight: bold;
  font-family: "Courier New", monospace;
}
line {
    stroke-linecap: round;
}
.nodelabel {
  text-anchor: middle;
}
.inputPortLabel {
  text-anchor: end;
}
.splitjoinBody {
  fill:#000;
}</style><g s:type="generic" transform="translate(224,22)" s:width="30" s:height="40" id="cell_inst_3_0"><text x="15" y="-4" class="nodelabel cell_inst_3_0" s:attribute="ref">inst_3_0</text><rect width="30" height="80" s:generic="body" fill="#ffffff" rx="0" class="cell_inst_3_0"/><g transform="translate(0,10)" s:x="0" s:y="10" s:pid="in0" id="port_inst_3_0~in0"><text x="-3" y="-4" class="inputPortLabel cell_inst_3_0">in0</text></g><g transform="translate(0,30)" s:x="0" s:y="10" s:pid="in0" id="port_inst_3_0~in0_0"><text x="-3" y="-4" class="inputPortLabel cell_inst_3_0">in0_0</text></g><g transform="translate(0,50)" s:x="0" s:y="10" s:pid="in0" id="port_inst_3_0~in1"><text x="-3" y="-4" class="inputPortLabel cell_inst_3_0">in1</text></g><g transform="translate(0,70)" s:x="0" s:y="10" s:pid="in0" id="port_inst_3_0~in1_0"><text x="-3" y="-4" class="inputPortLabel cell_inst_3_0">in1_0</text></g><g transform="translate(30,10)" s:x="30" s:y="10" s:pid="out0" id="port_inst_3_0~out"><text x="5" y="-4" style="fill:#000; stroke:none" class="cell_inst_3_0">out</text></g><g transform="translate(30,30)" s:x="30" s:y="10" s:pid="out0" id="port_inst_3_0~out_0"><text x="5" y="-4" style="fill:#000; stroke:none" class="cell_inst_3_0">out_0</text></g></g><g s:type="generic" transform="translate(418,22)" s:width="30" s:height="40" id="cell_inst_3_1"><text x="15" y="-4" class="nodelabel cell_inst_3_1" s:attribute="ref">inst_3_1</text><rect width="30" height="80" s:generic="body" fill="#ffffff" rx="0" class="cell_inst_3_1"/><g transform="translate(0,10)" s:x="0" s:y="10" s:pid="in0" id="port_inst_3_1~in0"><text x="-3" y="-4" class="inputPortLabel cell_inst_3_1">in0</text></g><g transform="translate(0,30)" s:x="0" s:y="10" s:pid="in0" id="port_inst_3_1~in0_0"><text x="-3" y="-4" class="inputPortLabel cell_inst_3_1">in0_0</text></g><g transform="translate(0,50)" s:x="0" s:y="10" s:pid="in0" id="port_inst_3_1~in1"><text x="-3" y="-4" class="inputPortLabel cell_inst_3_1">in1</text></g><g transform="translate(0,70)" s:x="0" s:y="10" s:pid="in0" id="port_inst_3_1~in1_0"><text x="-3" y="-4" class="inputPortLabel cell_inst_3_1">in1_0</text></g><g transform="translate(30,10)" s:x="30" s:y="10" s:pid="out0" id="port_inst_3_1~out"><text x="5" y="-4" style="fill:#000; stroke:none" class="cell_inst_3_1">out</text></g><g transform="translate(30,30)" s:x="30" s:y="10" s:pid="out0" id="port_inst_3_1~out_0"><text x="5" y="-4" style="fill:#000; stroke:none" class="cell_inst_3_1">out_0</text></g></g><g s:type="inputExt" transform="translate(12,22.5)" s:width="30" s:height="20" id="cell_in0"><text x="15" y="-4" class="nodelabel cell_in0" s:attribute="ref">in0</text><s:alias val="$_inputExt_"/><path d="M0,0 L0,20 L15,20 L30,10 L15,0 Z" fill="#ffffff" class="cell_in0"/><g s:x="30" s:y="10" s:pid="Y"/></g><g s:type="inputExt" transform="translate(12,87.5)" s:width="30" s:height="20" id="cell_in1"><text x="15" y="-4" class="nodelabel cell_in1" s:attribute="ref">in1</text><s:alias val="$_inputExt_"/><path d="M0,0 L0,20 L15,20 L30,10 L15,0 Z" fill="#ffffff" class="cell_in1"/><g s:x="30" s:y="10" s:pid="Y"/></g><g s:type="inputExt" transform="translate(321,103.5)" s:width="30" s:height="20" id="cell_in3"><text x="15" y="-4" class="nodelabel cell_in3" s:attribute="ref">in3</text><s:alias val="$_inputExt_"/><path d="M0,0 L0,20 L15,20 L30,10 L15,0 Z" fill="#ffffff" class="cell_in3"/><g s:x="30" s:y="10" s:pid="Y"/></g><g s:type="inputExt" transform="translate(77,158)" s:width="30" s:height="20" id="cell_bus_in"><text x="15" y="-4" class="nodelabel cell_bus_in" s:attribute="ref">bus_in</text><s:alias val="$_inputExt_"/><path d="M0,0 L0,20 L15,20 L30,10 L15,0 Z" fill="#ffffff" class="cell_bus_in"/><g s:x="30" s:y="10" s:pid="Y"/></g><g s:type="outputExt" transform="translate(554,22.5)" s:width="30" s:height="20" id="cell_out0"><text x="15" y="-4" class="nodelabel cell_out0" s:attribute="ref">out0</text><s:alias val="$_outputExt_"/><path d="M30,0 L30,20 L15,20 L0,10 L15,0 Z" fill="#ffffff" class="cell_out0"/><g s:x="0" s:y="10" s:pid="A"/></g><g s:type="outputExt" transform="translate(554,87.5)" s:width="30" s:height="20" id="cell_bus_out"><text x="15" y="-4" class="nodelabel cell_bus_out" s:attribute="ref">bus_out</text><s:alias val="$_outputExt_"/><path d="M30,0 L30,20 L15,20 L0,10 L15,0 Z" fill="#ffffff" class="cell_bus_out"/><g s:x="0" s:y="10" s:pid="A"/></g><g s:type="join" transform="translate(90,87)" s:width="5" s:height="40" id="cell_$join$,3,2,"><rect width="5" height="40" class="splitjoinBody" s:generic="body"/><s:alias val="$_join_"/><g s:x="5" s:y="20" s:pid="out"/><g transform="translate(-1,10)" s:x="-1" s:y="10" s:pid="in0"><text x="-3" y="-4" class="inputPortLabel">0</text></g><g transform="translate(-1,30)" s:x="-1" s:y="10" s:pid="in0"><text x="-3" y="-4" class="inputPortLabel">1</text></g></g><line x1="42" x2="224" y1="32.5" y2="32.5" class="net_2 width_1" style="stroke-width: 1"/><line x1="42" x2="62" y1="32.5" y2="32.5" class="net_2 width_1" style="stroke-width: 1"/><line x1="62" x2="62" y1="32.5" y2="117.5" class="net_2 width_1" style="stroke-width: 1"/><circle cx="62" cy="32.5" r="2" style="fill:#000" class="net_2 width_1"/><line x1="62" x2="89" y1="117.5" y2="117.5" class="net_2 width_1" style="stroke-width: 1"/><line x1="96" x2="162" y1="107.5" y2="107.5" class="net_3,2 width_2" style="stroke-width: 2"/><line x1="162" x2="162" y1="107.5" y2="52.5" class="net_3,2 width_2" style="stroke-width: 2"/><line x1="162" x2="223" y1="52.5" y2="52.5" class="net_3,2 width_2" style="stroke-width: 2"/><line x1="42" x2="52" y1="97.5" y2="97.5" class="net_3 width_1" style="stroke-width: 1"/><line x1="52" x2="52" y1="97.5" y2="137" class="net_3 width_1" style="stroke-width: 1"/><line x1="52" x2="172" y1="137" y2="137" class="net_3 width_1" style="stroke-width: 1"/><line x1="172" x2="172" y1="137" y2="72.5" class="net_3 width_1" style="stroke-width: 1"/><circle cx="52" cy="97.5" r="2" style="fill:#000" class="net_3 width_1"/><line x1="172" x2="223" y1="72.5" y2="72.5" class="net_3 width_1" style="stroke-width: 1"/><line x1="42" x2="89" y1="97.5" y2="97.5" class="net_3 width_1" style="stroke-width: 1"/><line x1="107" x2="182" y1="168" y2="168" class="net_5,6 width_2" style="stroke-width: 2"/><line x1="182" x2="182" y1="168" y2="92.5" class="net_5,6 width_2" style="stroke-width: 2"/><line x1="182" x2="223" y1="92.5" y2="92.5" class="net_5,6 width_2" style="stroke-width: 2"/><line x1="255" x2="418" y1="32.5" y2="32.5" class="net_10 width_1" style="stroke-width: 1"/><line x1="255" x2="417" y1="52.5" y2="52.5" class="net_11,12 width_2" style="stroke-width: 2"/><line x1="255" x2="296" y1="52.5" y2="52.5" class="net_11,12 width_2" style="stroke-width: 2"/><line x1="296" x2="296" y1="52.5" y2="162.5" class="net_11,12 width_2" style="stroke-width: 2"/><line x1="296" x2="371" y1="162.5" y2="162.5" class="net_11,12 width_2" style="stroke-width: 2"/><line x1="371" x2="371" y1="162.5" y2="92.5" class="net_11,12 width_2" style="stroke-width: 2"/><circle cx="296" cy="52.5" r="3" style="fill:#000" class="net_11,12 width_2"/><line x1="371" x2="417" y1="92.5" y2="92.5" class="net_11,12 width_2" style="stroke-width: 2"/><line x1="351" x2="361" y1="113.5" y2="113.5" class="net_4 width_1" style="stroke-width: 1"/><line x1="361" x2="361" y1="113.5" y2="72.5" class="net_4 width_1" style="stroke-width: 1"/><line x1="361" x2="417" y1="72.5" y2="72.5" class="net_4 width_1" style="stroke-width: 1"/><line x1="449" x2="554" y1="32.5" y2="32.5" class="net_7 width_1" style="stroke-width: 1"/><line x1="449" x2="490" y1="52.5" y2="52.5" class="net_8,9 width_2" style="stroke-width: 2"/><line x1="490" x2="490" y1="52.5" y2="97.5" class="net_8,9 width_2" style="stroke-width: 2"/><line x1="490" x2="554" y1="97.5" y2="97.5" class="net_8,9 width_2" style="stroke-width: 2"/><rect x="149" y="102.5" width="16" height="9" class="net_3,2 width_2 busLabel_2" style="fill: white; stroke: none"/><text x="148" y="110.5" class="net_3,2 width_2 busLabel_2">/2/</text><rect x="149" y="163" width="16" height="9" class="net_5,6 width_2 busLabel_2" style="fill: white; stroke: none"/><text x="148" y="171" class="net_5,6 width_2 busLabel_2">/2/</text><rect x="335" y="157.5" width="16" height="9" class="net_11,12 width_2 busLabel_2" style="fill: white; stroke: none"/><text x="334" y="165.5" class="net_11,12 width_2 busLabel_2">/2/</text><rect x="335" y="157.5" width="16" height="9" class="net_11,12 width_2 busLabel_2" style="fill: white; stroke: none"/><text x="334" y="165.5" class="net_11,12 width_2 busLabel_2">/2/</text><rect x="516" y="92.5" width="16" height="9" class="net_8,9 width_2 busLabel_2" style="fill: white; stroke: none"/><text x="515" y="100.5" class="net_8,9 width_2 busLabel_2">/2/</text></svg>