<?xml version="1.0" encoding="UTF-8" standalone="no"?>
<!DOCTYPE svg PUBLIC "-//W3C//DTD SVG 1.1//EN"
 "http://www.w3.org/Graphics/SVG/1.1/DTD/svg11.dtd">
<!-- Generated by graphviz version 2.42.4 (0)
 -->
<!-- Pages: 1 -->
<svg width="421pt" height="305pt"
 viewBox="0.00 0.00 421.00 305.00" xmlns="http://www.w3.org/2000/svg" xmlns:xlink="http://www.w3.org/1999/xlink">
<g id="graph0" class="graph" transform="scale(1 1) rotate(0) translate(4 301)">
<polygon fill="white" stroke="transparent" points="-4,4 -4,-301 417,-301 417,4 -4,4"/>
<!-- 0 -->
<g id="node1" class="node">
<title>0</title>
<polygon fill="none" stroke="black" points="220,-297 166,-297 166,-261 220,-261 220,-297"/>
<text text-anchor="middle" x="193" y="-275.3" font-family="Times,serif" font-size="14.00">in0</text>
</g>
<!-- 8 -->
<g id="node9" class="node">
<title>8</title>
<ellipse fill="none" stroke="black" cx="121" cy="-192" rx="48.99" ry="18"/>
<text text-anchor="middle" x="121" y="-188.3" font-family="Times,serif" font-size="14.00">inst_1_0</text>
</g>
<!-- 0&#45;&gt;8 -->
<g id="edge2" class="edge">
<title>0&#45;&gt;8</title>
<path fill="none" stroke="black" d="M187.52,-260.54C183.72,-250.32 177.91,-237.57 170,-228 165.61,-222.69 160.24,-217.8 154.68,-213.46"/>
<polygon fill="black" stroke="black" points="156.64,-210.56 146.5,-207.52 152.53,-216.23 156.64,-210.56"/>
<text text-anchor="middle" x="190" y="-231.8" font-family="Times,serif" font-size="14.00">[1]</text>
</g>
<!-- 10 -->
<g id="node11" class="node">
<title>10</title>
<ellipse fill="none" stroke="black" cx="264" cy="-192" rx="48.99" ry="18"/>
<text text-anchor="middle" x="264" y="-188.3" font-family="Times,serif" font-size="14.00">inst_2_0</text>
</g>
<!-- 0&#45;&gt;10 -->
<g id="edge1" class="edge">
<title>0&#45;&gt;10</title>
<path fill="none" stroke="black" d="M207.37,-260.8C217.87,-248.23 232.25,-231.01 243.89,-217.08"/>
<polygon fill="black" stroke="black" points="246.65,-219.23 250.38,-209.31 241.28,-214.74 246.65,-219.23"/>
<text text-anchor="middle" x="243" y="-231.8" font-family="Times,serif" font-size="14.00">[1]</text>
</g>
<!-- 1 -->
<g id="node2" class="node">
<title>1</title>
<polygon fill="none" stroke="black" points="141,-297 87,-297 87,-261 141,-261 141,-297"/>
<text text-anchor="middle" x="114" y="-275.3" font-family="Times,serif" font-size="14.00">in1</text>
</g>
<!-- 1&#45;&gt;8 -->
<g id="edge3" class="edge">
<title>1&#45;&gt;8</title>
<path fill="none" stroke="black" d="M108.8,-260.8C106.57,-251.13 104.91,-238.84 107,-228 107.53,-225.26 108.27,-222.47 109.13,-219.71"/>
<polygon fill="black" stroke="black" points="112.52,-220.65 112.67,-210.05 105.95,-218.24 112.52,-220.65"/>
<text text-anchor="middle" x="117" y="-231.8" font-family="Times,serif" font-size="14.00">[1]</text>
</g>
<!-- 1&#45;&gt;10 -->
<g id="edge4" class="edge">
<title>1&#45;&gt;10</title>
<path fill="none" stroke="black" d="M121.12,-260.89C126.47,-250.01 134.8,-236.43 146,-228 164.13,-214.36 187.52,-206.01 208.69,-200.92"/>
<polygon fill="black" stroke="black" points="209.55,-204.31 218.55,-198.73 208.03,-197.48 209.55,-204.31"/>
<text text-anchor="middle" x="156" y="-231.8" font-family="Times,serif" font-size="14.00">[1]</text>
</g>
<!-- 2 -->
<g id="node3" class="node">
<title>2</title>
<polygon fill="none" stroke="black" points="54,-210 0,-210 0,-174 54,-174 54,-210"/>
<text text-anchor="middle" x="27" y="-188.3" font-family="Times,serif" font-size="14.00">in3</text>
</g>
<!-- 9 -->
<g id="node10" class="node">
<title>9</title>
<ellipse fill="none" stroke="black" cx="72" cy="-105" rx="48.99" ry="18"/>
<text text-anchor="middle" x="72" y="-101.3" font-family="Times,serif" font-size="14.00">inst_1_1</text>
</g>
<!-- 2&#45;&gt;9 -->
<g id="edge5" class="edge">
<title>2&#45;&gt;9</title>
<path fill="none" stroke="black" d="M36.11,-173.8C42.49,-161.74 51.14,-145.4 58.35,-131.79"/>
<polygon fill="black" stroke="black" points="61.48,-133.36 63.06,-122.89 55.29,-130.09 61.48,-133.36"/>
<text text-anchor="middle" x="63" y="-144.8" font-family="Times,serif" font-size="14.00">[1]</text>
</g>
<!-- 3 -->
<g id="node4" class="node">
<title>3</title>
<polygon fill="none" stroke="black" points="413,-297 335,-297 335,-261 413,-261 413,-297"/>
<text text-anchor="middle" x="374" y="-275.3" font-family="Times,serif" font-size="14.00">bus_in_1</text>
</g>
<!-- 3&#45;&gt;10 -->
<g id="edge6" class="edge">
<title>3&#45;&gt;10</title>
<path fill="none" stroke="black" d="M351.74,-260.8C334.54,-247.51 310.61,-229.02 292.09,-214.71"/>
<polygon fill="black" stroke="black" points="294.06,-211.81 284.01,-208.46 289.78,-217.34 294.06,-211.81"/>
<text text-anchor="middle" x="335" y="-231.8" font-family="Times,serif" font-size="14.00">[1]</text>
</g>
<!-- 4 -->
<g id="node5" class="node">
<title>4</title>
<polygon fill="none" stroke="black" points="317,-297 239,-297 239,-261 317,-261 317,-297"/>
<text text-anchor="middle" x="278" y="-275.3" font-family="Times,serif" font-size="14.00">bus_in_0</text>
</g>
<!-- 4&#45;&gt;10 -->
<g id="edge7" class="edge">
<title>4&#45;&gt;10</title>
<path fill="none" stroke="black" d="M275.17,-260.8C273.25,-249.16 270.68,-233.55 268.49,-220.24"/>
<polygon fill="black" stroke="black" points="271.91,-219.47 266.83,-210.18 265,-220.61 271.91,-219.47"/>
<text text-anchor="middle" x="282" y="-231.8" font-family="Times,serif" font-size="14.00">[1]</text>
</g>
<!-- 5 -->
<g id="node6" class="node">
<title>5</title>
<polygon fill="none" stroke="black" points="99,-36 45,-36 45,0 99,0 99,-36"/>
<text text-anchor="middle" x="72" y="-14.3" font-family="Times,serif" font-size="14.00">out0</text>
</g>
<!-- 6 -->
<g id="node7" class="node">
<title>6</title>
<polygon fill="none" stroke="black" points="332,-36 244,-36 244,0 332,0 332,-36"/>
<text text-anchor="middle" x="288" y="-14.3" font-family="Times,serif" font-size="14.00">bus_out_1</text>
</g>
<!-- 7 -->
<g id="node8" class="node">
<title>7</title>
<polygon fill="none" stroke="black" points="226,-36 138,-36 138,0 226,0 226,-36"/>
<text text-anchor="middle" x="182" y="-14.3" font-family="Times,serif" font-size="14.00">bus_out_0</text>
</g>
<!-- 8&#45;&gt;9 -->
<g id="edge8" class="edge">
<title>8&#45;&gt;9</title>
<path fill="none" stroke="black" d="M111.32,-174.21C104.34,-162.1 94.79,-145.53 86.85,-131.76"/>
<polygon fill="black" stroke="black" points="89.69,-129.67 81.66,-122.76 83.62,-133.17 89.69,-129.67"/>
<text text-anchor="middle" x="110" y="-144.8" font-family="Times,serif" font-size="14.00">[1]</text>
</g>
<!-- 9&#45;&gt;5 -->
<g id="edge9" class="edge">
<title>9&#45;&gt;5</title>
<path fill="none" stroke="black" d="M72,-86.8C72,-75.16 72,-59.55 72,-46.24"/>
<polygon fill="black" stroke="black" points="75.5,-46.18 72,-36.18 68.5,-46.18 75.5,-46.18"/>
<text text-anchor="middle" x="82" y="-57.8" font-family="Times,serif" font-size="14.00">[1]</text>
</g>
<!-- 11 -->
<g id="node12" class="node">
<title>11</title>
<ellipse fill="none" stroke="black" cx="264" cy="-105" rx="48.99" ry="18"/>
<text text-anchor="middle" x="264" y="-101.3" font-family="Times,serif" font-size="14.00">inst_2_1</text>
</g>
<!-- 10&#45;&gt;11 -->
<g id="edge10" class="edge">
<title>10&#45;&gt;11</title>
<path fill="none" stroke="black" d="M264,-173.8C264,-162.16 264,-146.55 264,-133.24"/>
<polygon fill="black" stroke="black" points="267.5,-133.18 264,-123.18 260.5,-133.18 267.5,-133.18"/>
<text text-anchor="middle" x="274" y="-144.8" font-family="Times,serif" font-size="14.00">[4]</text>
</g>
<!-- 11&#45;&gt;6 -->
<g id="edge12" class="edge">
<title>11&#45;&gt;6</title>
<path fill="none" stroke="black" d="M268.86,-86.8C272.17,-75.05 276.64,-59.24 280.42,-45.84"/>
<polygon fill="black" stroke="black" points="283.8,-46.75 283.15,-36.18 277.06,-44.85 283.8,-46.75"/>
<text text-anchor="middle" x="288" y="-57.8" font-family="Times,serif" font-size="14.00">[1]</text>
</g>
<!-- 11&#45;&gt;7 -->
<g id="edge11" class="edge">
<title>11&#45;&gt;7</title>
<path fill="none" stroke="black" d="M248.19,-87.61C236.17,-75.16 219.44,-57.81 205.81,-43.68"/>
<polygon fill="black" stroke="black" points="208.07,-40.98 198.61,-36.21 203.03,-45.84 208.07,-40.98"/>
<text text-anchor="middle" x="238" y="-57.8" font-family="Times,serif" font-size="14.00">[1]</text>
</g>
</g>
</svg>
