<?xml version="1.0" encoding="UTF-8" standalone="no"?>
<!DOCTYPE svg PUBLIC "-//W3C//DTD SVG 1.1//EN"
 "http://www.w3.org/Graphics/SVG/1.1/DTD/svg11.dtd">
<!-- Generated by graphviz version 2.42.4 (0)
 -->
<!-- Pages: 1 -->
<svg width="296pt" height="305pt"
 viewBox="0.00 0.00 296.00 305.00" xmlns="http://www.w3.org/2000/svg" xmlns:xlink="http://www.w3.org/1999/xlink">
<g id="graph0" class="graph" transform="scale(1 1) rotate(0) translate(4 301)">
<polygon fill="white" stroke="transparent" points="-4,4 -4,-301 292,-301 292,4 -4,4"/>
<!-- 0 -->
<g id="node1" class="node">
<title>0</title>
<polygon fill="none" stroke="black" points="124,-297 70,-297 70,-261 124,-261 124,-297"/>
<text text-anchor="middle" x="97" y="-275.3" font-family="Times,serif" font-size="14.00">in0</text>
</g>
<!-- 6 -->
<g id="node7" class="node">
<title>6</title>
<ellipse fill="none" stroke="black" cx="121" cy="-192" rx="48.99" ry="18"/>
<text text-anchor="middle" x="121" y="-188.3" font-family="Times,serif" font-size="14.00">inst_1_0</text>
</g>
<!-- 0&#45;&gt;6 -->
<g id="edge1" class="edge">
<title>0&#45;&gt;6</title>
<path fill="none" stroke="black" d="M88.23,-260.88C84.4,-251.01 81.65,-238.51 86,-228 87.79,-223.69 90.39,-219.63 93.39,-215.91"/>
<polygon fill="black" stroke="black" points="96.17,-218.05 100.4,-208.34 91.04,-213.29 96.17,-218.05"/>
<text text-anchor="middle" x="96" y="-231.8" font-family="Times,serif" font-size="14.00">[1]</text>
</g>
<!-- 8 -->
<g id="node9" class="node">
<title>8</title>
<ellipse fill="none" stroke="black" cx="236" cy="-192" rx="48.99" ry="18"/>
<text text-anchor="middle" x="236" y="-188.3" font-family="Times,serif" font-size="14.00">inst_2_0</text>
</g>
<!-- 0&#45;&gt;8 -->
<g id="edge2" class="edge">
<title>0&#45;&gt;8</title>
<path fill="none" stroke="black" d="M102.77,-260.97C107.26,-250.12 114.5,-236.54 125,-228 127.73,-225.78 160.33,-215.62 189.51,-206.81"/>
<polygon fill="black" stroke="black" points="190.65,-210.12 199.22,-203.89 188.63,-203.42 190.65,-210.12"/>
<text text-anchor="middle" x="135" y="-231.8" font-family="Times,serif" font-size="14.00">[1]</text>
</g>
<!-- 1 -->
<g id="node2" class="node">
<title>1</title>
<polygon fill="none" stroke="black" points="203,-297 149,-297 149,-261 203,-261 203,-297"/>
<text text-anchor="middle" x="176" y="-275.3" font-family="Times,serif" font-size="14.00">in1</text>
</g>
<!-- 1&#45;&gt;6 -->
<g id="edge4" class="edge">
<title>1&#45;&gt;6</title>
<path fill="none" stroke="black" d="M167.73,-260.9C162.72,-251.03 155.97,-238.53 149,-228 146.63,-224.42 143.98,-220.76 141.29,-217.22"/>
<polygon fill="black" stroke="black" points="143.96,-214.96 135.02,-209.27 138.46,-219.29 143.96,-214.96"/>
<text text-anchor="middle" x="168" y="-231.8" font-family="Times,serif" font-size="14.00">[1]</text>
</g>
<!-- 1&#45;&gt;8 -->
<g id="edge3" class="edge">
<title>1&#45;&gt;8</title>
<path fill="none" stroke="black" d="M188.14,-260.8C196.79,-248.54 208.56,-231.87 218.26,-218.13"/>
<polygon fill="black" stroke="black" points="221.38,-219.79 224.28,-209.6 215.66,-215.75 221.38,-219.79"/>
<text text-anchor="middle" x="220" y="-231.8" font-family="Times,serif" font-size="14.00">[1]</text>
</g>
<!-- 2 -->
<g id="node3" class="node">
<title>2</title>
<polygon fill="none" stroke="black" points="54,-210 0,-210 0,-174 54,-174 54,-210"/>
<text text-anchor="middle" x="27" y="-188.3" font-family="Times,serif" font-size="14.00">in3</text>
</g>
<!-- 7 -->
<g id="node8" class="node">
<title>7</title>
<ellipse fill="none" stroke="black" cx="74" cy="-105" rx="48.99" ry="18"/>
<text text-anchor="middle" x="74" y="-101.3" font-family="Times,serif" font-size="14.00">inst_1_1</text>
</g>
<!-- 2&#45;&gt;7 -->
<g id="edge5" class="edge">
<title>2&#45;&gt;7</title>
<path fill="none" stroke="black" d="M36.51,-173.8C43.18,-161.74 52.21,-145.4 59.74,-131.79"/>
<polygon fill="black" stroke="black" points="62.89,-133.33 64.66,-122.89 56.76,-129.94 62.89,-133.33"/>
<text text-anchor="middle" x="64" y="-144.8" font-family="Times,serif" font-size="14.00">[1]</text>
</g>
<!-- 3 -->
<g id="node4" class="node">
<title>3</title>
<polygon fill="none" stroke="black" points="288,-297 226,-297 226,-261 288,-261 288,-297"/>
<text text-anchor="middle" x="257" y="-275.3" font-family="Times,serif" font-size="14.00">bus_in</text>
</g>
<!-- 3&#45;&gt;8 -->
<g id="edge6" class="edge">
<title>3&#45;&gt;8</title>
<path fill="none" stroke="black" d="M252.75,-260.8C249.88,-249.16 246.02,-233.55 242.73,-220.24"/>
<polygon fill="black" stroke="black" points="246.04,-219.04 240.24,-210.18 239.24,-220.72 246.04,-219.04"/>
<text text-anchor="middle" x="258" y="-231.8" font-family="Times,serif" font-size="14.00">[2]</text>
</g>
<!-- 4 -->
<g id="node5" class="node">
<title>4</title>
<polygon fill="none" stroke="black" points="101,-36 47,-36 47,0 101,0 101,-36"/>
<text text-anchor="middle" x="74" y="-14.3" font-family="Times,serif" font-size="14.00">out0</text>
</g>
<!-- 5 -->
<g id="node6" class="node">
<title>5</title>
<polygon fill="none" stroke="black" points="272,-36 200,-36 200,0 272,0 272,-36"/>
<text text-anchor="middle" x="236" y="-14.3" font-family="Times,serif" font-size="14.00">bus_out</text>
</g>
<!-- 6&#45;&gt;7 -->
<g id="edge7" class="edge">
<title>6&#45;&gt;7</title>
<path fill="none" stroke="black" d="M111.71,-174.21C105.02,-162.1 95.86,-145.53 88.24,-131.76"/>
<polygon fill="black" stroke="black" points="91.17,-129.82 83.27,-122.76 85.04,-133.2 91.17,-129.82"/>
<text text-anchor="middle" x="111" y="-144.8" font-family="Times,serif" font-size="14.00">[1]</text>
</g>
<!-- 7&#45;&gt;4 -->
<g id="edge8" class="edge">
<title>7&#45;&gt;4</title>
<path fill="none" stroke="black" d="M74,-86.8C74,-75.16 74,-59.55 74,-46.24"/>
<polygon fill="black" stroke="black" points="77.5,-46.18 74,-36.18 70.5,-46.18 77.5,-46.18"/>
<text text-anchor="middle" x="84" y="-57.8" font-family="Times,serif" font-size="14.00">[1]</text>
</g>
<!-- 9 -->
<g id="node10" class="node">
<title>9</title>
<ellipse fill="none" stroke="black" cx="236" cy="-105" rx="48.99" ry="18"/>
<text text-anchor="middle" x="236" y="-101.3" font-family="Times,serif" font-size="14.00">inst_2_1</text>
</g>
<!-- 8&#45;&gt;9 -->
<g id="edge9" class="edge">
<title>8&#45;&gt;9</title>
<path fill="none" stroke="black" d="M236,-173.8C236,-162.16 236,-146.55 236,-133.24"/>
<polygon fill="black" stroke="black" points="239.5,-133.18 236,-123.18 232.5,-133.18 239.5,-133.18"/>
<text text-anchor="middle" x="246" y="-144.8" font-family="Times,serif" font-size="14.00">[4]</text>
</g>
<!-- 9&#45;&gt;5 -->
<g id="edge10" class="edge">
<title>9&#45;&gt;5</title>
<path fill="none" stroke="black" d="M236,-86.8C236,-75.16 236,-59.55 236,-46.24"/>
<polygon fill="black" stroke="black" points="239.5,-46.18 236,-36.18 232.5,-46.18 239.5,-46.18"/>
<text text-anchor="middle" x="246" y="-57.8" font-family="Times,serif" font-size="14.00">[2]</text>
</g>
</g>
</svg>
