<?xml version="1.0" encoding="UTF-8" standalone="no"?>
<!DOCTYPE svg PUBLIC "-//W3C//DTD SVG 1.1//EN"
 "http://www.w3.org/Graphics/SVG/1.1/DTD/svg11.dtd">
<!-- Generated by graphviz version 2.43.0 (0)
 -->
<!-- Title: %3 Pages: 1 -->
<svg width="270pt" height="511pt"
 viewBox="0.00 0.00 270.00 511.00" xmlns="http://www.w3.org/2000/svg" xmlns:xlink="http://www.w3.org/1999/xlink">
<g id="graph0" class="graph" transform="scale(1 1) rotate(0) translate(4 507)">
<title>%3</title>
<polygon fill="white" stroke="transparent" points="-4,4 -4,-507 266,-507 266,4 -4,4"/>
<g id="clust1" class="cluster">
<title>cluster_part1</title>
<polygon fill="none" stroke="black" points="162,-8 162,-147 254,-147 254,-8 162,-8"/>
</g>
<g id="clust2" class="cluster">
<title>cluster_part2</title>
<polygon fill="none" stroke="black" points="8,-95 8,-495 154,-495 154,-95 8,-95"/>
</g>
<!-- 0 -->
<g id="node1" class="node">
<title>0</title>
<ellipse fill="none" stroke="red" cx="100" cy="-469" rx="38.19" ry="18"/>
<text text-anchor="middle" x="100" y="-465.3" font-family="Times,serif" font-size="14.00">0 [10]</text>
</g>
<!-- 4 -->
<g id="node2" class="node">
<title>4</title>
<ellipse fill="none" stroke="green" cx="208" cy="-121" rx="32.49" ry="18"/>
<text text-anchor="middle" x="208" y="-117.3" font-family="Times,serif" font-size="14.00">4 [1]</text>
</g>
<!-- 0&#45;&#45;4 -->
<g id="edge2" class="edge">
<title>0&#45;&#45;4</title>
<path fill="none" stroke="black" d="M133.11,-459.88C168.63,-448.96 220,-425.76 220,-383 220,-383 220,-383 220,-207 220,-183.3 215.37,-156.25 211.86,-139.16"/>
<text text-anchor="middle" x="225" y="-291.3" font-family="Times,serif" font-size="14.00">1</text>
</g>
<!-- 1 -->
<g id="node3" class="node">
<title>1</title>
<ellipse fill="none" stroke="red" cx="100" cy="-382" rx="38.19" ry="18"/>
<text text-anchor="middle" x="100" y="-378.3" font-family="Times,serif" font-size="14.00">1 [10]</text>
</g>
<!-- 0&#45;&#45;1 -->
<g id="edge1" class="edge">
<title>0&#45;&#45;1</title>
<path fill="none" stroke="black" d="M100,-450.8C100,-436.05 100,-414.92 100,-400.18"/>
<text text-anchor="middle" x="105" y="-421.8" font-family="Times,serif" font-size="14.00">1</text>
</g>
<!-- 5 -->
<g id="node7" class="node">
<title>5</title>
<ellipse fill="none" stroke="red" cx="72" cy="-121" rx="32.49" ry="18"/>
<text text-anchor="middle" x="72" y="-117.3" font-family="Times,serif" font-size="14.00">5 [1]</text>
</g>
<!-- 0&#45;&#45;5 -->
<g id="edge3" class="edge">
<title>0&#45;&#45;5</title>
<path fill="none" stroke="black" d="M85.01,-452.16C73.85,-439.24 59.47,-419.93 53,-400 24.18,-311.22 49.1,-283.09 56,-190 57.09,-175.31 55.74,-171.36 59,-157 60.38,-150.93 62.55,-144.49 64.73,-138.81"/>
<text text-anchor="middle" x="49" y="-291.3" font-family="Times,serif" font-size="14.00">1</text>
</g>
<!-- 6 -->
<g id="node4" class="node">
<title>6</title>
<ellipse fill="none" stroke="green" cx="208" cy="-34" rx="38.19" ry="18"/>
<text text-anchor="middle" x="208" y="-30.3" font-family="Times,serif" font-size="14.00">6 [50]</text>
</g>
<!-- 4&#45;&#45;6 -->
<g id="edge9" class="edge">
<title>4&#45;&#45;6</title>
<path fill="none" stroke="black" d="M208,-102.8C208,-88.05 208,-66.92 208,-52.18"/>
<text text-anchor="middle" x="213" y="-73.8" font-family="Times,serif" font-size="14.00">1</text>
</g>
<!-- 2 -->
<g id="node5" class="node">
<title>2</title>
<ellipse fill="none" stroke="red" cx="114" cy="-295" rx="32.49" ry="18"/>
<text text-anchor="middle" x="114" y="-291.3" font-family="Times,serif" font-size="14.00">2 [1]</text>
</g>
<!-- 1&#45;&#45;2 -->
<g id="edge4" class="edge">
<title>1&#45;&#45;2</title>
<path fill="none" stroke="black" d="M102.83,-363.8C105.26,-349.05 108.74,-327.92 111.17,-313.18"/>
<text text-anchor="middle" x="112" y="-334.8" font-family="Times,serif" font-size="14.00">1</text>
</g>
<!-- 1&#45;&#45;5 -->
<g id="edge5" class="edge">
<title>1&#45;&#45;5</title>
<path fill="none" stroke="black" d="M92.07,-364.34C85.95,-350.8 77.76,-331.06 73,-313 59.01,-259.88 56.6,-244.75 61,-190 62.41,-172.48 65.83,-152.66 68.48,-138.95"/>
<text text-anchor="middle" x="66" y="-247.8" font-family="Times,serif" font-size="14.00">1</text>
</g>
<!-- 2&#45;&#45;4 -->
<g id="edge7" class="edge">
<title>2&#45;&#45;4</title>
<path fill="none" stroke="black" d="M124.27,-277.7C132.77,-264.05 145.03,-243.96 155,-226 171.82,-195.71 189.82,-159.48 199.92,-138.76"/>
<text text-anchor="middle" x="178" y="-204.3" font-family="Times,serif" font-size="14.00">1</text>
</g>
<!-- 3 -->
<g id="node6" class="node">
<title>3</title>
<ellipse fill="none" stroke="red" cx="108" cy="-208" rx="38.19" ry="18"/>
<text text-anchor="middle" x="108" y="-204.3" font-family="Times,serif" font-size="14.00">3 [50]</text>
</g>
<!-- 2&#45;&#45;3 -->
<g id="edge6" class="edge">
<title>2&#45;&#45;3</title>
<path fill="none" stroke="black" d="M112.79,-276.8C111.74,-262.05 110.25,-240.92 109.21,-226.18"/>
<text text-anchor="middle" x="116" y="-247.8" font-family="Times,serif" font-size="14.00">1</text>
</g>
<!-- 3&#45;&#45;5 -->
<g id="edge8" class="edge">
<title>3&#45;&#45;5</title>
<path fill="none" stroke="black" d="M100.89,-190.21C94.58,-175.31 85.4,-153.65 79.1,-138.76"/>
<text text-anchor="middle" x="98" y="-160.8" font-family="Times,serif" font-size="14.00">1</text>
</g>
<!-- 5&#45;&#45;6 -->
<g id="edge10" class="edge">
<title>5&#45;&#45;6</title>
<path fill="none" stroke="black" d="M92.66,-107.09C117.77,-91.39 159.99,-65 185.79,-48.88"/>
<text text-anchor="middle" x="153" y="-73.8" font-family="Times,serif" font-size="14.00">1</text>
</g>
</g>
</svg>
