<?xml version="1.0" encoding="utf-8" ?>
<svg xmlns="http://www.w3.org/2000/svg" xmlns:ev="http://www.w3.org/2001/xml-events" xmlns:xlink="http://www.w3.org/1999/xlink" baseProfile="full" height="240" version="1.1" viewBox="0,-210.0,200,240" width="200">
    <defs id="id1">
        <marker id="conn_marker" markerHeight="10" markerUnits="strokeWidth" markerWidth="5" orient="auto" refX="30" refY="30" viewBox="0 0 120 120">
            <path d="M 0 0 L 60 30 L 0 60 z" fill="blue"/>
        </marker>
        <marker id="down_conn_marker" markerHeight="10" markerUnits="strokeWidth" markerWidth="5" orient="auto" viewBox="-15 -15 30 30">
            <rect fill="green" height="20" width="20" x="-10" y="-10"/>
            <path d="M 8 0 L -8 8 L -8 -8 z" fill="blue"/>
        </marker>
        <marker id="up_conn_marker" markerHeight="10" markerUnits="strokeWidth" markerWidth="5" orient="auto" viewBox="-15 -15 30 30">
            <rect fill="green" height="20" width="20" x="-10" y="-10"/>
            <path d="M 8 0 L -8 8 L -8 -8 z" fill="blue"/>
        </marker>
        <marker id="top_conn_marker" markerHeight="10" markerUnits="strokeWidth" markerWidth="5" orient="auto" viewBox="-15 -15 30 30">
            <line stroke="red" stroke-width="5px" x1="0" x2="0" y1="-15" y2="15"/>
        </marker>
        <marker id="buffer_marker" markerHeight="15" markerUnits="strokeWidth" markerWidth="30" orient="auto" viewBox="-15 -15 30 30">
            <path d="M 8 0 L -8 8 L -8 -8 z" fill="red"/>
        </marker>
        <style type="text/css"><![CDATA[
                text{font-family: Lato;}
                span{text-anchor: "middle"; alignment_baseline: "middle"}
                .gridLabels{fill: grey;font-style: italic;font-weight: 900}
                .gridmarker{stroke:red; stroke-width:0.2; opacity: 0.7;}
                
                .connection{ opacity: 0.75;
                            marker-end:url(#conn_marker);
                            stroke-width:1.2;}
                .down{stroke-dasharray: 2;
                    marker-end:url(#up_conn_marker);}
                .up{stroke-dasharray: 2;
                    marker-start:url(#down_conn_marker);}
                .top{stroke-dasharray: 2;
                    marker-start:url(#top_conn_marker);}
                .buffer{marker-mid:url(#buffer_marker);}
                ]]></style>
    </defs>
    <g id="markers" transform="scale(1,-1)">
        <line class="gridmarker" x1="10" x2="10" y1="10" y2="190"/>
        <line class="gridmarker" x1="30" x2="30" y1="10" y2="190"/>
        <line class="gridmarker" x1="50" x2="50" y1="10" y2="190"/>
        <line class="gridmarker" x1="70" x2="70" y1="10" y2="190"/>
        <line class="gridmarker" x1="90" x2="90" y1="10" y2="190"/>
        <line class="gridmarker" x1="110" x2="110" y1="10" y2="190"/>
        <line class="gridmarker" x1="130" x2="130" y1="10" y2="190"/>
        <line class="gridmarker" x1="150" x2="150" y1="10" y2="190"/>
        <line class="gridmarker" x1="170" x2="170" y1="10" y2="190"/>
        <line class="gridmarker" x1="190" x2="190" y1="10" y2="190"/>
        <line class="gridmarker" x1="10" x2="190" y1="10" y2="10"/>
        <line class="gridmarker" x1="10" x2="190" y1="30" y2="30"/>
        <line class="gridmarker" x1="10" x2="190" y1="50" y2="50"/>
        <line class="gridmarker" x1="10" x2="190" y1="70" y2="70"/>
        <line class="gridmarker" x1="10" x2="190" y1="90" y2="90"/>
        <line class="gridmarker" x1="10" x2="190" y1="110" y2="110"/>
        <line class="gridmarker" x1="10" x2="190" y1="130" y2="130"/>
        <line class="gridmarker" x1="10" x2="190" y1="150" y2="150"/>
        <line class="gridmarker" x1="10" x2="190" y1="170" y2="170"/>
        <line class="gridmarker" x1="10" x2="190" y1="190" y2="190"/>
    </g>
    <g id="main" transform="scale(1,-1)">
        <path class="connection same" d="M 100 0 L 100 10 L 100 20" stroke=" black"/>
        <path class="connection same" d="M 100 20 L 110 20 L 120 20" stroke=" black"/>
        <path class="connection same" d="M 120 20 L 130 20 L 140 20" stroke=" black"/>
        <path class="connection same" d="M 140 20 L 150 20 L 160 20" stroke=" black"/>
        <path class="connection same" d="M 160 20 L 170 20 L 180 20" stroke=" black"/>
        <path class="connection same" d="M 100 20 L 90 20 L 80 20" stroke=" black"/>
        <path class="connection same" d="M 80 20 L 70 20 L 60 20" stroke=" black"/>
        <path class="connection same" d="M 60 20 L 50 20 L 40 20" stroke=" black"/>
        <path class="connection same" d="M 40 20 L 30 20 L 20 20" stroke=" black"/>
        <path class="connection same" d="M 100 20 L 100 30 L 100 40" stroke=" black"/>
        <path class="connection same" d="M 100 40 L 100 50 L 100 60" stroke=" black"/>
        <path class="connection same" d="M 100 60 L 110 60 L 120 60" stroke=" black"/>
        <path class="connection same" d="M 120 60 L 130 60 L 140 60" stroke=" black"/>
        <path class="connection same" d="M 140 60 L 150 60 L 160 60" stroke=" black"/>
        <path class="connection same" d="M 160 60 L 170 60 L 180 60" stroke=" black"/>
        <path class="connection same" d="M 100 60 L 90 60 L 80 60" stroke=" black"/>
        <path class="connection same" d="M 80 60 L 70 60 L 60 60" stroke=" black"/>
        <path class="connection same" d="M 60 60 L 50 60 L 40 60" stroke=" black"/>
        <path class="connection same" d="M 40 60 L 30 60 L 20 60" stroke=" black"/>
        <path class="connection same" d="M 100 60 L 100 70 L 100 80" stroke=" black"/>
        <path class="connection same" d="M 100 80 L 100 90 L 100 100" stroke=" black"/>
        <path class="connection same" d="M 100 100 L 110 100 L 120 100" stroke=" black"/>
        <path class="connection same" d="M 120 100 L 130 100 L 140 100" stroke=" black"/>
        <path class="connection same" d="M 140 100 L 150 100 L 160 100" stroke=" black"/>
        <path class="connection same" d="M 160 100 L 170 100 L 180 100" stroke=" black"/>
        <path class="connection same" d="M 100 100 L 90 100 L 80 100" stroke=" black"/>
        <path class="connection same" d="M 80 100 L 70 100 L 60 100" stroke=" black"/>
        <path class="connection same" d="M 60 100 L 50 100 L 40 100" stroke=" black"/>
        <path class="connection same" d="M 40 100 L 30 100 L 20 100" stroke=" black"/>
        <path class="connection same" d="M 100 100 L 100 110 L 100 120" stroke=" black"/>
        <path class="connection same" d="M 100 120 L 100 130 L 100 140" stroke=" black"/>
        <path class="connection same" d="M 100 140 L 110 140 L 120 140" stroke=" black"/>
        <path class="connection same" d="M 120 140 L 130 140 L 140 140" stroke=" black"/>
        <path class="connection same" d="M 140 140 L 150 140 L 160 140" stroke=" black"/>
        <path class="connection same" d="M 160 140 L 170 140 L 180 140" stroke=" black"/>
        <path class="connection same" d="M 100 140 L 90 140 L 80 140" stroke=" black"/>
        <path class="connection same" d="M 80 140 L 70 140 L 60 140" stroke=" black"/>
        <path class="connection same" d="M 60 140 L 50 140 L 40 140" stroke=" black"/>
        <path class="connection same" d="M 40 140 L 30 140 L 20 140" stroke=" black"/>
        <path class="connection same" d="M 100 140 L 100 150 L 100 160" stroke=" black"/>
        <path class="connection same" d="M 100 160 L 100 170 L 100 180" stroke=" black"/>
        <path class="connection same" d="M 100 180 L 110 180 L 120 180" stroke=" black"/>
        <path class="connection same" d="M 120 180 L 130 180 L 140 180" stroke=" black"/>
        <path class="connection same" d="M 140 180 L 150 180 L 160 180" stroke=" black"/>
        <path class="connection same" d="M 160 180 L 170 180 L 180 180" stroke=" black"/>
        <path class="connection same" d="M 100 180 L 90 180 L 80 180" stroke=" black"/>
        <path class="connection same" d="M 80 180 L 70 180 L 60 180" stroke=" black"/>
        <path class="connection same" d="M 60 180 L 50 180 L 40 180" stroke=" black"/>
        <path class="connection same" d="M 40 180 L 30 180 L 20 180" stroke=" black"/>
        <g id="text">
            <text alignment-baseline="middle" class="moduleLabel" fill="black" font-size="18.0" text-anchor="middle" transform="scale(1,-1)" x="100.0" y="10.0">Merging option</text>
        </g>
    </g>
</svg>
