<?xml version="1.0" encoding="utf-8" ?>
<svg xmlns="http://www.w3.org/2000/svg" xmlns:ev="http://www.w3.org/2001/xml-events" xmlns:xlink="http://www.w3.org/1999/xlink" baseProfile="full" height="100%" version="1.1" viewBox="0,-340,840,340" width="100%">
  <defs/>
  <g id="Main" transform="scale(1,-1)">
    <line stroke="red" x1="20" x2="20" y1="20" y2="320"/>
    <line stroke="red" x1="40" x2="40" y1="20" y2="320"/>
    <line stroke="red" x1="60" x2="60" y1="20" y2="320"/>
    <line stroke="red" x1="80" x2="80" y1="20" y2="320"/>
    <line stroke="red" x1="100" x2="100" y1="20" y2="320"/>
    <line stroke="red" x1="120" x2="120" y1="20" y2="320"/>
    <line stroke="red" x1="140" x2="140" y1="20" y2="320"/>
    <line stroke="red" x1="160" x2="160" y1="20" y2="320"/>
    <line stroke="red" x1="180" x2="180" y1="20" y2="320"/>
    <line stroke="red" x1="200" x2="200" y1="20" y2="320"/>
    <line stroke="red" x1="220" x2="220" y1="20" y2="320"/>
    <line stroke="red" x1="240" x2="240" y1="20" y2="320"/>
    <line stroke="red" x1="260" x2="260" y1="20" y2="320"/>
    <line stroke="red" x1="280" x2="280" y1="20" y2="320"/>
    <line stroke="red" x1="300" x2="300" y1="20" y2="320"/>
    <line stroke="red" x1="320" x2="320" y1="20" y2="320"/>
    <line stroke="red" x1="340" x2="340" y1="20" y2="320"/>
    <line stroke="red" x1="360" x2="360" y1="20" y2="320"/>
    <line stroke="red" x1="380" x2="380" y1="20" y2="320"/>
    <line stroke="red" x1="400" x2="400" y1="20" y2="320"/>
    <line stroke="red" x1="420" x2="420" y1="20" y2="320"/>
    <line stroke="red" x1="440" x2="440" y1="20" y2="320"/>
    <line stroke="red" x1="460" x2="460" y1="20" y2="320"/>
    <line stroke="red" x1="480" x2="480" y1="20" y2="320"/>
    <line stroke="red" x1="500" x2="500" y1="20" y2="320"/>
    <line stroke="red" x1="520" x2="520" y1="20" y2="320"/>
    <line stroke="red" x1="540" x2="540" y1="20" y2="320"/>
    <line stroke="red" x1="560" x2="560" y1="20" y2="320"/>
    <line stroke="red" x1="580" x2="580" y1="20" y2="320"/>
    <line stroke="red" x1="600" x2="600" y1="20" y2="320"/>
    <line stroke="red" x1="620" x2="620" y1="20" y2="320"/>
    <line stroke="red" x1="640" x2="640" y1="20" y2="320"/>
    <line stroke="red" x1="660" x2="660" y1="20" y2="320"/>
    <line stroke="red" x1="680" x2="680" y1="20" y2="320"/>
    <line stroke="red" x1="700" x2="700" y1="20" y2="320"/>
    <line stroke="red" x1="720" x2="720" y1="20" y2="320"/>
    <line stroke="red" x1="740" x2="740" y1="20" y2="320"/>
    <line stroke="red" x1="760" x2="760" y1="20" y2="320"/>
    <line stroke="red" x1="780" x2="780" y1="20" y2="320"/>
    <line stroke="red" x1="800" x2="800" y1="20" y2="320"/>
    <line stroke="red" x1="820" x2="820" y1="20" y2="320"/>
    <line stroke="red" x1="20" x2="820" y1="20" y2="20"/>
    <line stroke="red" x1="20" x2="820" y1="40" y2="40"/>
    <line stroke="red" x1="20" x2="820" y1="60" y2="60"/>
    <line stroke="red" x1="20" x2="820" y1="80" y2="80"/>
    <line stroke="red" x1="20" x2="820" y1="100" y2="100"/>
    <line stroke="red" x1="20" x2="820" y1="120" y2="120"/>
    <line stroke="red" x1="20" x2="820" y1="140" y2="140"/>
    <line stroke="red" x1="20" x2="820" y1="160" y2="160"/>
    <line stroke="red" x1="20" x2="820" y1="180" y2="180"/>
    <line stroke="red" x1="20" x2="820" y1="200" y2="200"/>
    <line stroke="red" x1="20" x2="820" y1="220" y2="220"/>
    <line stroke="red" x1="20" x2="820" y1="240" y2="240"/>
    <line stroke="red" x1="20" x2="820" y1="260" y2="260"/>
    <line stroke="red" x1="20" x2="820" y1="280" y2="280"/>
    <line stroke="red" x1="20" x2="820" y1="300" y2="300"/>
    <line stroke="red" x1="20" x2="820" y1="320" y2="320"/>
    <path d="M  30 30  30 50  30 70  30 90  30 110  30 130  30 150  30 170  30 190  30 210  30 230  30 250  30 270  30 290  30 310  30 310  50 310  70 310  90 310  110 310  130 310  150 310  170 310  190 310  210 310  230 310  250 310  270 310  290 310  310 310  330 310  350 310  370 310  390 310  410 310  430 310  450 310  470 310  490 310  510 310  530 310  550 310  570 310  590 310  610 310  630 310  650 310  670 310  690 310  710 310  730 310  750 310  770 310  790 310  810 310  810 310  810 290  810 270  810 250  810 230  810 210  810 190  810 170  810 150  810 130  810 110  810 90  810 70  810 50  810 30  810 30  790 30  770 30  750 30  730 30  710 30  690 30  670 30  650 30  630 30  610 30  590 30  570 30  550 30  530 30  510 30  490 30  470 30  450 30  430 30  410 30  390 30  370 30  350 30  330 30  310 30  290 30  270 30  250 30  230 30  210 30  190 30  170 30  150 30  130 30  110 30  90 30  70 30  50 30  50 50  50 70  50 90  50 110  50 130  50 150  50 170  50 190  50 210  50 230  50 250  50 270  50 290  50 290  70 290  90 290  110 290  130 290  150 290  170 290  190 290  210 290  230 290  250 290  270 290  290 290  310 290  330 290  350 290  370 290  390 290  410 290  430 290  450 290  470 290  490 290  510 290  530 290  550 290  570 290  590 290  610 290  630 290  650 290  670 290  690 290  710 290  730 290  750 290  770 290  790 290  790 290  790 270  790 250  790 230  790 210  790 190  790 170  790 150  790 130  790 110  790 90  790 70  790 50  790 50  770 50  750 50  730 50  710 50  690 50  670 50  650 50  630 50  610 50  590 50  570 50  550 50  530 50  510 50  490 50  470 50  450 50  430 50  410 50  390 50  370 50  350 50  330 50  310 50  290 50  270 50  250 50  230 50  210 50  190 50  170 50  150 50  130 50  110 50  90 50  70 50  70 70  70 90  70 110  70 130  70 150  70 170  70 190  70 210  70 230  70 250  70 270  70 270  90 270  110 270  130 270  150 270  170 270  190 270  210 270  230 270  250 270  270 270  290 270  310 270  330 270  350 270  370 270  390 270  410 270  430 270  450 270  470 270  490 270  510 270  530 270  550 270  570 270  590 270  610 270  630 270  650 270  670 270  690 270  710 270  730 270  750 270  770 270  770 270  770 250  770 230  770 210  770 190  770 170  770 150  770 130  770 110  770 90  770 70  770 70  750 70  730 70  710 70  690 70  670 70  650 70  630 70  610 70  590 70  570 70  550 70  530 70  510 70  490 70  470 70  450 70  430 70  410 70  390 70  370 70  350 70  330 70  310 70  290 70  270 70  250 70  230 70  210 70  190 70  170 70  150 70  130 70  110 70  90 70  90 90  90 110  90 130  90 150  90 170  90 190  90 210  90 230  90 250  90 250  110 250  130 250  150 250  170 250  190 250  210 250  230 250  250 250  270 250  290 250  310 250  330 250  350 250  370 250  390 250  410 250  430 250  450 250  470 250  490 250  510 250  530 250  550 250  570 250  590 250  610 250  630 250  650 250  670 250  690 250  710 250  730 250  750 250  750 250  750 230  750 210  750 190  750 170  750 150  750 130  750 110  750 90  750 90  730 90  710 90  690 90  670 90  650 90  630 90  610 90  590 90  570 90  550 90  530 90  510 90  490 90  470 90  450 90  430 90  410 90  390 90  370 90  350 90  330 90  310 90  290 90  270 90  250 90  230 90  210 90  190 90  170 90  150 90  130 90  110 90  110 110  110 130  110 150  110 170  110 190  110 210  110 230  110 230  130 230  150 230  170 230  190 230  210 230  230 230  250 230  270 230  290 230  310 230  330 230  350 230  370 230  390 230  410 230  430 230  450 230  470 230  490 230  510 230  530 230  550 230  570 230  590 230  610 230  630 230  650 230  670 230  690 230  710 230  730 230  730 230  730 210  730 190  730 170  730 150  730 130  730 110  730 110  710 110  690 110  670 110  650 110  630 110  610 110  590 110  570 110  550 110  530 110  510 110  490 110  470 110  450 110  430 110  410 110  390 110  370 110  350 110  330 110  310 110  290 110  270 110  250 110  230 110  210 110  190 110  170 110  150 110  130 110  130 130  130 150  130 170  130 190  130 210  130 210  150 210  170 210  190 210  210 210  230 210  250 210  270 210  290 210  310 210  330 210  350 210  370 210  390 210  410 210  430 210  450 210  470 210  490 210  510 210  530 210  550 210  570 210  590 210  610 210  630 210  650 210  670 210  690 210  710 210  710 210  710 190  710 170  710 150  710 130  710 130  690 130  670 130  650 130  630 130  610 130  590 130  570 130  550 130  530 130  510 130  490 130  470 130  450 130  430 130  410 130  390 130  370 130  350 130  330 130  310 130  290 130  270 130  250 130  230 130  210 130  190 130  170 130  150 130  150 150  150 170  150 190  150 190  170 190  190 190  210 190  230 190  250 190  270 190  290 190  310 190  330 190  350 190  370 190  390 190  410 190  430 190  450 190  470 190  490 190  510 190  530 190  550 190  570 190  590 190  610 190  630 190  650 190  670 190  690 190  690 190  690 170  690 150  690 150  670 150  650 150  630 150  610 150  590 150  570 150  550 150  530 150  510 150  490 150  470 150  450 150  430 150  410 150  390 150  370 150  350 150  330 150  310 150  290 150  270 150  250 150  230 150  210 150  190 150  170 150  170 170  190 170  210 170  230 170  250 170  270 170  290 170  310 170  330 170  350 170  370 170  390 170  410 170  430 170  450 170  470 170  490 170  510 170  530 170  550 170  570 170  590 170  610 170  630 170  650 170  670 170 " fill="none" stroke="blue" stroke-width="2px"/>
  </g>
</svg>
