<svg xmlns="http://www.w3.org/2000/svg" xmlns:xlink="http://www.w3.org/1999/xlink" xmlns:s="https://github.com/nturley/netlistsvg" width="357" height="78.25"><style>    svg {
    stroke:green;
    fill:none;
    }
    text {
    fill:blue;
    stroke:none;
    font-size:10px;
    font-weight: bold;
    font-family: "Courier New", monospace;
    }
    line {
    stroke-linecap: round;
    }
    .nodelabel {
    text-anchor: middle;
    }
    .inputPortLabel {
    text-anchor: end;
    }
    .splitjoinBody {
    fill:green;
    }</style><g s:type="sub_odd" transform="translate(226,32.916666666666664)" s:width="30" s:height="40" id="cell_instance1"><text x="0" y="-4" class="nodelabel cell_instance1" s:attribute="ref">instance1</text><rect width="0" height="0" s:generic="body" fill="#e9e9e9" rx="4" class="cell_instance1"/><g transform="translate(-1,-0.33333333333333215)" s:x="0" s:y="10" s:pid="in0" id="port_instance1~in0"><text x="-3" y="-4" class="inputPortLabel cell_instance1">in0</text></g><g transform="translate(-1,-0.6666666666666661)" s:x="0" s:y="10" s:pid="in0" id="port_instance1~in1"><text x="-3" y="-4" class="inputPortLabel cell_instance1">in1</text></g><g transform="translate(0,0)" s:x="30" s:y="10" s:pid="out0" id="port_instance1~out"><text x="5" y="-4" style="stroke:none" class="cell_instance1">out</text></g></g><g s:type="sub_odd" transform="translate(107,32.25)" s:width="30" s:height="40" id="cell_instance2"><text x="0" y="-4" class="nodelabel cell_instance2" s:attribute="ref">instance2</text><rect width="0" height="0" s:generic="body" fill="#e9e9e9" rx="4" class="cell_instance2"/><g transform="translate(-1,-0.75)" s:x="0" s:y="10" s:pid="in0" id="port_instance2~in0"><text x="-3" y="-4" class="inputPortLabel cell_instance2">in0</text></g><g transform="translate(-1,-0.25)" s:x="0" s:y="10" s:pid="in0" id="port_instance2~in1"><text x="-3" y="-4" class="inputPortLabel cell_instance2">in1</text></g><g transform="translate(-1,-0.5)" s:x="0" s:y="10" s:pid="in0" id="port_instance2~in3"><text x="-3" y="-4" class="inputPortLabel cell_instance2">in3</text></g><g transform="translate(0,0)" s:x="30" s:y="10" s:pid="out0" id="port_instance2~out"><text x="5" y="-4" style="stroke:none" class="cell_instance2">out</text></g></g><g s:type="inputExt" transform="translate(12,22)" s:width="30" s:height="20" id="cell_in0"><text x="15" y="-4" class="nodelabel cell_in0" s:attribute="ref">in0</text><s:alias val="$_inputExt_"/><path d="M0,0 L0,20 L15,20 L30,10 L15,0 Z" fill="#ffffff" class="cell_in0"/><g s:x="30" s:y="10" s:pid="Y"/></g><g s:type="outputExt" transform="translate(315,23.416666666666664)" s:width="30" s:height="20" id="cell_out"><text x="15" y="-4" class="nodelabel cell_out" s:attribute="ref">out</text><s:alias val="$_outputExt_"/><path d="M30,0 L30,20 L15,20 L0,10 L15,0 Z" fill="#ffffff" class="cell_out"/><g s:x="0" s:y="10" s:pid="A"/></g><line x1="42" x2="52" y1="32" y2="32" class="net_2 width_1" style="stroke-width: 1"/><line x1="52" x2="52" y1="32" y2="65.25" class="net_2 width_1" style="stroke-width: 1"/><line x1="52" x2="181" y1="65.25" y2="65.25" class="net_2 width_1" style="stroke-width: 1"/><line x1="181" x2="181" y1="65.25" y2="33.08333333333333" class="net_2 width_1" style="stroke-width: 1"/><circle cx="52" cy="32" r="2" style="fill:#000" class="net_2 width_1"/><line x1="181" x2="225" y1="33.08333333333333" y2="33.08333333333333" class="net_2 width_1" style="stroke-width: 1"/><line x1="42" x2="106" y1="32" y2="32" class="net_2 width_1" style="stroke-width: 1"/><line x1="108" x2="225" y1="32.75" y2="32.75" class="net_4 width_1" style="stroke-width: 1"/><line x1="108" x2="171" y1="32.75" y2="32.75" class="net_4 width_1" style="stroke-width: 1"/><line x1="171" x2="171" y1="32.75" y2="55.25" class="net_4 width_1" style="stroke-width: 1"/><line x1="171" x2="77" y1="55.25" y2="55.25" class="net_4 width_1" style="stroke-width: 1"/><line x1="77" x2="77" y1="55.25" y2="32.5" class="net_4 width_1" style="stroke-width: 1"/><line x1="77" x2="106" y1="32.5" y2="32.5" class="net_4 width_1" style="stroke-width: 1"/><line x1="108" x2="171" y1="32.75" y2="32.75" class="net_4 width_1" style="stroke-width: 1"/><line x1="171" x2="171" y1="32.75" y2="55.25" class="net_4 width_1" style="stroke-width: 1"/><line x1="171" x2="77" y1="55.25" y2="55.25" class="net_4 width_1" style="stroke-width: 1"/><line x1="77" x2="77" y1="55.25" y2="32.25" class="net_4 width_1" style="stroke-width: 1"/><line x1="77" x2="106" y1="32.25" y2="32.25" class="net_4 width_1" style="stroke-width: 1"/><line x1="227" x2="315" y1="33.416666666666664" y2="33.416666666666664" class="net_3 width_1" style="stroke-width: 1"/></svg>