<svg xmlns="http://www.w3.org/2000/svg" xmlns:xlink="http://www.w3.org/1999/xlink" xmlns:s="https://github.com/nturley/netlistsvg" width="336" height="77"><style>svg {
  stroke:#000;
  fill:none;
}
text {
  fill:#000;
  stroke:none;
  font-size:10px;
  font-weight: bold;
  font-family: "Courier New", monospace;
}
line {
    stroke-linecap: round;
}
.nodelabel {
  text-anchor: middle;
}
.inputPortLabel {
  text-anchor: end;
}
.splitjoinBody {
  fill:#000;
}</style><g s:type="generic" transform="translate(205,22)" s:width="30" s:height="40" id="cell_instance1"><text x="15" y="-4" class="nodelabel cell_instance1" s:attribute="ref">instance1</text><rect width="30" height="40" s:generic="body" fill="#ffffff" rx="0" class="cell_instance1"/><g transform="translate(0,10)" s:x="0" s:y="10" s:pid="in0" id="port_instance1~in0"><text x="-3" y="-4" class="inputPortLabel cell_instance1">in0</text></g><g transform="translate(0,30)" s:x="0" s:y="10" s:pid="in0" id="port_instance1~in1"><text x="-3" y="-4" class="inputPortLabel cell_instance1">in1</text></g><g transform="translate(30,10)" s:x="30" s:y="10" s:pid="out0" id="port_instance1~out"><text x="5" y="-4" style="fill:#000; stroke:none" class="cell_instance1">out</text></g></g><g s:type="generic" transform="translate(96,42)" s:width="30" s:height="40" id="cell_instance2"><text x="15" y="-4" class="nodelabel cell_instance2" s:attribute="ref">instance2</text><rect width="30" height="20" s:generic="body" fill="#ffffff" rx="0" class="cell_instance2"/><g transform="translate(0,10)" s:x="0" s:y="10" s:pid="in0" id="port_instance2~in0"><text x="-3" y="-4" class="inputPortLabel cell_instance2">in0</text></g><g transform="translate(30,10)" s:x="30" s:y="10" s:pid="out0" id="port_instance2~out"><text x="5" y="-4" style="fill:#000; stroke:none" class="cell_instance2">out</text></g></g><g s:type="inputExt" transform="translate(12,42.5)" s:width="30" s:height="20" id="cell_in0"><text x="15" y="-4" class="nodelabel cell_in0" s:attribute="ref">in0</text><s:alias val="$_inputExt_"/><path d="M0,0 L0,20 L15,20 L30,10 L15,0 Z" fill="#ffffff" class="cell_in0"/><g s:x="30" s:y="10" s:pid="Y"/></g><g s:type="outputExt" transform="translate(294,22.5)" s:width="30" s:height="20" id="cell_out"><text x="15" y="-4" class="nodelabel cell_out" s:attribute="ref">out</text><s:alias val="$_outputExt_"/><path d="M30,0 L30,20 L15,20 L0,10 L15,0 Z" fill="#ffffff" class="cell_out"/><g s:x="0" s:y="10" s:pid="A"/></g><line x1="42" x2="52" y1="52.5" y2="52.5" class="net_2 width_1" style="stroke-width: 1"/><line x1="52" x2="52" y1="52.5" y2="21" class="net_2 width_1" style="stroke-width: 1"/><line x1="52" x2="160" y1="21" y2="21" class="net_2 width_1" style="stroke-width: 1"/><line x1="160" x2="160" y1="21" y2="32.5" class="net_2 width_1" style="stroke-width: 1"/><circle cx="52" cy="52.5" r="2" style="fill:#000" class="net_2 width_1"/><line x1="160" x2="205" y1="32.5" y2="32.5" class="net_2 width_1" style="stroke-width: 1"/><line x1="42" x2="96" y1="52.5" y2="52.5" class="net_2 width_1" style="stroke-width: 1"/><line x1="127" x2="204" y1="52.5" y2="52.5" class="net_4 width_1" style="stroke-width: 1"/><line x1="236" x2="294" y1="32.5" y2="32.5" class="net_3 width_1" style="stroke-width: 1"/></svg>