<?xml version="1.0" encoding="utf-8" ?>
<svg xmlns="http://www.w3.org/2000/svg" xmlns:ev="http://www.w3.org/2001/xml-events" xmlns:xlink="http://www.w3.org/1999/xlink" baseProfile="full" height="82" version="1.1" viewBox="0,-82,82,82" width="82">
    <defs>
        <style type="text/css"><![CDATA[
.boundary{stroke:grey; fill:none; stroke-width:0.2}
text{font-family: Lato; font-size:1.2px;}
symbol * { stroke-width:0.1; stroke:black;}
.marker{stroke: red;opacity: 0.1;stroke-width: 0.1px;}
symbol[id="cbx"] * { fill:#d9d9f3;}
symbol[id="cby"] * { fill:#a8d0db;}
symbol[id*="sb"] * { fill:#ceefe4;}
rect[class="lb"] { fill:#f4f0e6; }
symbol[id*="io_"] * { fill:#f8b155;}
]]></style>
        <symbol id="cbx">
            <rect class="routing" height="4" width="8" x="1.0" y="0"/>
        </symbol>
        <symbol id="cby">
            <rect class="routing" height="8" width="4" x="0" y="1.0"/>
        </symbol>
        <symbol id="io_top">
            <rect class="lb" height="10" width="10" x="0" y="0"/>
        </symbol>
        <symbol id="io_right">
            <rect class="lb" height="10" width="10" x="0" y="0"/>
        </symbol>
        <symbol id="io_bottom">
            <rect class="lb" height="10" width="10" x="0" y="0"/>
        </symbol>
        <symbol id="io_left">
            <rect class="lb" height="10" width="10" x="0" y="0"/>
        </symbol>
        <symbol id="clb">
            <rect class="lb" height="10" width="10" x="0" y="0"/>
        </symbol>
        <symbol id="mcu">
            <rect class="lb" height="24" width="24" x="0" y="0"/>
        </symbol>
        <symbol id="dsp">
            <rect class="lb" height="24" width="10" x="0" y="0"/>
        </symbol>
        <symbol id="ram9k">
            <rect class="lb" height="10" width="24" x="0" y="0"/>
        </symbol>
        <symbol id="sb" x="-0.0" y="-0.0">
            <path d="M 1.0 0 v 1.0 h -1.0 v 4 h 1.0 v 1.0 h 4 v -1.0 h 1.0 v -4 h -1.0 v -1.0 z"/>
        </symbol>
        <symbol id="sb00" x="-1.0" y="-1.0">
            <path d="M 1.0 0 v 1.0 h -1.0 v 4 h 1.0 v 1.0 h 4 v -1.0 h 1.0 v -4 h -1.0 v -1.0 z"/>
        </symbol>
        <symbol id="sb01" x="-0.0" y="-0.0">
            <path d="M 0.0 0 v 0.0 h -0.0 v 4 h 0.0 v 1.0 h 4 v -1.0 h 1.0 v -4 h -1.0 v -0.0 z"/>
        </symbol>
        <symbol id="sb02" x="-0.0" y="-1.0">
            <path d="M 0.0 0 v 1.0 h -0.0 v 4 h 0.0 v 1.0 h 4 v -1.0 h 1.0 v -4 h -1.0 v -1.0 z"/>
        </symbol>
        <symbol id="sb03" x="-0.0" y="-1.0">
            <path d="M 0.0 0 v 1.0 h -0.0 v 4 h 0.0 v 0.0 h 4 v -0.0 h 1.0 v -4 h -1.0 v -1.0 z"/>
        </symbol>
        <symbol id="sb04" x="-1.0" y="-1.0">
            <path d="M 1.0 0 v 1.0 h -1.0 v 4 h 1.0 v 0.0 h 4 v -0.0 h 1.0 v -4 h -1.0 v -1.0 z"/>
        </symbol>
        <symbol id="sb05" x="-1.0" y="-1.0">
            <path d="M 1.0 0 v 1.0 h -1.0 v 4 h 1.0 v 0.0 h 4 v -0.0 h 0.0 v -4 h -0.0 v -1.0 z"/>
        </symbol>
        <symbol id="sb06" x="-1.0" y="-1.0">
            <path d="M 1.0 0 v 1.0 h -1.0 v 4 h 1.0 v 1.0 h 4 v -1.0 h 0.0 v -4 h -0.0 v -1.0 z"/>
        </symbol>
        <symbol id="sb07" x="-1.0" y="-0.0">
            <path d="M 1.0 0 v 0.0 h -1.0 v 4 h 1.0 v 1.0 h 4 v -1.0 h 0.0 v -4 h -0.0 v -0.0 z"/>
        </symbol>
        <symbol id="sb08" x="-1.0" y="-0.0">
            <path d="M 1.0 0 v 0.0 h -1.0 v 4 h 1.0 v 1.0 h 4 v -1.0 h 1.0 v -4 h -1.0 v -0.0 z"/>
        </symbol>
        <symbol id="sb09" x="-0.0" y="-1.0">
            <path d="M 0.0 0 v 1.0 h -0.0 v 4 h 0.0 v 1.0 h 4 v -1.0 h 0.0 v -4 h -0.0 v -1.0 z"/>
        </symbol>
        <symbol id="sb10" x="-1.0" y="-0.0">
            <path d="M 1.0 0 v 0.0 h -1.0 v 4 h 1.0 v 0.0 h 4 v -0.0 h 1.0 v -4 h -1.0 v -0.0 z"/>
        </symbol>
    </defs>
    <g id="main" transform="scale(1,-1)">
        <rect class="boundary" height="82" id="core_boundary" width="82" x="0" y="0"/>
        <g id="main_shapes">
            <line class="marker" x1="0.0" x2="0.0" y1="0" y2="82"/>
            <line class="marker" x1="0" x2="82" y1="14.0" y2="14.0"/>
            <use id="io_left_0__1_" x="0.0" xlink:href="#io_left" y="14.0"/>
            <line class="marker" x1="0.0" x2="0.0" y1="0" y2="82"/>
            <line class="marker" x1="0" x2="82" y1="28.0" y2="28.0"/>
            <use id="io_left_0__2_" x="0.0" xlink:href="#io_left" y="28.0"/>
            <line class="marker" x1="0.0" x2="0.0" y1="0" y2="82"/>
            <line class="marker" x1="0" x2="82" y1="42.0" y2="42.0"/>
            <use id="io_left_0__3_" x="0.0" xlink:href="#io_left" y="42.0"/>
            <line class="marker" x1="0.0" x2="0.0" y1="0" y2="82"/>
            <line class="marker" x1="0" x2="82" y1="56.0" y2="56.0"/>
            <use id="io_left_0__4_" x="0.0" xlink:href="#io_left" y="56.0"/>
            <line class="marker" x1="10" x2="10" y1="0" y2="82"/>
            <line class="marker" x1="0" x2="82" y1="10" y2="10"/>
            <use id="sb_0__0_" x="10" xlink:href="#sb01" y="10"/>
            <line class="marker" x1="10" x2="10" y1="0" y2="82"/>
            <line class="marker" x1="0" x2="82" y1="14.0" y2="14.0"/>
            <use id="cby_0__1_" x="10" xlink:href="#cby" y="14.0"/>
            <line class="marker" x1="10" x2="10" y1="0" y2="82"/>
            <line class="marker" x1="0" x2="82" y1="24" y2="24"/>
            <use id="sb_0__1_" x="10" xlink:href="#sb09" y="24"/>
            <line class="marker" x1="10" x2="10" y1="0" y2="82"/>
            <line class="marker" x1="0" x2="82" y1="28.0" y2="28.0"/>
            <use id="cby_0__2_" x="10" xlink:href="#cby" y="28.0"/>
            <line class="marker" x1="10" x2="10" y1="0" y2="82"/>
            <line class="marker" x1="0" x2="82" y1="38" y2="38"/>
            <use id="sb_0__2_" x="10" xlink:href="#sb02" y="38"/>
            <line class="marker" x1="10" x2="10" y1="0" y2="82"/>
            <line class="marker" x1="0" x2="82" y1="42.0" y2="42.0"/>
            <use id="cby_0__3_" x="10" xlink:href="#cby" y="42.0"/>
            <line class="marker" x1="10" x2="10" y1="0" y2="82"/>
            <line class="marker" x1="0" x2="82" y1="52" y2="52"/>
            <use id="sb_0__3_" x="10" xlink:href="#sb02" y="52"/>
            <line class="marker" x1="10" x2="10" y1="0" y2="82"/>
            <line class="marker" x1="0" x2="82" y1="56.0" y2="56.0"/>
            <use id="cby_0__4_" x="10" xlink:href="#cby" y="56.0"/>
            <line class="marker" x1="10" x2="10" y1="0" y2="82"/>
            <line class="marker" x1="0" x2="82" y1="66" y2="66"/>
            <use id="sb_0__4_" x="10" xlink:href="#sb03" y="66"/>
            <line class="marker" x1="14.0" x2="14.0" y1="0" y2="82"/>
            <line class="marker" x1="0" x2="82" y1="0.0" y2="0.0"/>
            <use id="io_bottom_1__0_" x="14.0" xlink:href="#io_bottom" y="0.0"/>
            <line class="marker" x1="14.0" x2="14.0" y1="0" y2="82"/>
            <line class="marker" x1="0" x2="82" y1="10" y2="10"/>
            <use id="cbx_1__0_" x="14.0" xlink:href="#cbx" y="10"/>
            <line class="marker" x1="14.0" x2="14.0" y1="0" y2="82"/>
            <line class="marker" x1="0" x2="82" y1="14.0" y2="14.0"/>
            <use id="mcu_1__1_" x="14.0" xlink:href="#mcu" y="14.0"/>
            <line class="marker" x1="14.0" x2="14.0" y1="0" y2="82"/>
            <line class="marker" x1="0" x2="82" y1="38" y2="38"/>
            <use id="cbx_1__2_" x="14.0" xlink:href="#cbx" y="38"/>
            <line class="marker" x1="14.0" x2="14.0" y1="0" y2="82"/>
            <line class="marker" x1="0" x2="82" y1="42.0" y2="42.0"/>
            <use id="clb_1__3_" x="14.0" xlink:href="#clb" y="42.0"/>
            <line class="marker" x1="14.0" x2="14.0" y1="0" y2="82"/>
            <line class="marker" x1="0" x2="82" y1="52" y2="52"/>
            <use id="cbx_1__3_" x="14.0" xlink:href="#cbx" y="52"/>
            <line class="marker" x1="14.0" x2="14.0" y1="0" y2="82"/>
            <line class="marker" x1="0" x2="82" y1="56.0" y2="56.0"/>
            <use id="clb_1__4_" x="14.0" xlink:href="#clb" y="56.0"/>
            <line class="marker" x1="14.0" x2="14.0" y1="0" y2="82"/>
            <line class="marker" x1="0" x2="82" y1="66" y2="66"/>
            <use id="cbx_1__4_" x="14.0" xlink:href="#cbx" y="66"/>
            <line class="marker" x1="14.0" x2="14.0" y1="0" y2="82"/>
            <line class="marker" x1="0" x2="82" y1="70.0" y2="70.0"/>
            <use id="io_top_1__5_" x="14.0" xlink:href="#io_top" y="70.0"/>
            <line class="marker" x1="24" x2="24" y1="0" y2="82"/>
            <line class="marker" x1="0" x2="82" y1="10" y2="10"/>
            <use id="sb_1__0_" x="24" xlink:href="#sb10" y="10"/>
            <line class="marker" x1="24" x2="24" y1="0" y2="82"/>
            <line class="marker" x1="0" x2="82" y1="38" y2="38"/>
            <use id="sb_1__2_" x="24" xlink:href="#sb08" y="38"/>
            <line class="marker" x1="24" x2="24" y1="0" y2="82"/>
            <line class="marker" x1="0" x2="82" y1="42.0" y2="42.0"/>
            <use id="cby_1__3_" x="24" xlink:href="#cby" y="42.0"/>
            <line class="marker" x1="24" x2="24" y1="0" y2="82"/>
            <line class="marker" x1="0" x2="82" y1="52" y2="52"/>
            <use id="sb_1__3_" x="24" xlink:href="#sb00" y="52"/>
            <line class="marker" x1="24" x2="24" y1="0" y2="82"/>
            <line class="marker" x1="0" x2="82" y1="56.0" y2="56.0"/>
            <use id="cby_1__4_" x="24" xlink:href="#cby" y="56.0"/>
            <line class="marker" x1="24" x2="24" y1="0" y2="82"/>
            <line class="marker" x1="0" x2="82" y1="66" y2="66"/>
            <use id="sb_1__4_" x="24" xlink:href="#sb04" y="66"/>
            <line class="marker" x1="28.0" x2="28.0" y1="0" y2="82"/>
            <line class="marker" x1="0" x2="82" y1="0.0" y2="0.0"/>
            <use id="io_bottom_2__0_" x="28.0" xlink:href="#io_bottom" y="0.0"/>
            <line class="marker" x1="28.0" x2="28.0" y1="0" y2="82"/>
            <line class="marker" x1="0" x2="82" y1="10" y2="10"/>
            <use id="cbx_2__0_" x="28.0" xlink:href="#cbx" y="10"/>
            <line class="marker" x1="28.0" x2="28.0" y1="0" y2="82"/>
            <line class="marker" x1="0" x2="82" y1="38" y2="38"/>
            <use id="cbx_2__2_" x="28.0" xlink:href="#cbx" y="38"/>
            <line class="marker" x1="28.0" x2="28.0" y1="0" y2="82"/>
            <line class="marker" x1="0" x2="82" y1="42.0" y2="42.0"/>
            <use id="clb_2__3_" x="28.0" xlink:href="#clb" y="42.0"/>
            <line class="marker" x1="28.0" x2="28.0" y1="0" y2="82"/>
            <line class="marker" x1="0" x2="82" y1="52" y2="52"/>
            <use id="cbx_2__3_" x="28.0" xlink:href="#cbx" y="52"/>
            <line class="marker" x1="28.0" x2="28.0" y1="0" y2="82"/>
            <line class="marker" x1="0" x2="82" y1="56.0" y2="56.0"/>
            <use id="clb_2__4_" x="28.0" xlink:href="#clb" y="56.0"/>
            <line class="marker" x1="28.0" x2="28.0" y1="0" y2="82"/>
            <line class="marker" x1="0" x2="82" y1="66" y2="66"/>
            <use id="cbx_2__4_" x="28.0" xlink:href="#cbx" y="66"/>
            <line class="marker" x1="28.0" x2="28.0" y1="0" y2="82"/>
            <line class="marker" x1="0" x2="82" y1="70.0" y2="70.0"/>
            <use id="io_top_2__5_" x="28.0" xlink:href="#io_top" y="70.0"/>
            <line class="marker" x1="38" x2="38" y1="0" y2="82"/>
            <line class="marker" x1="0" x2="82" y1="10" y2="10"/>
            <use id="sb_2__0_" x="38" xlink:href="#sb08" y="10"/>
            <line class="marker" x1="38" x2="38" y1="0" y2="82"/>
            <line class="marker" x1="0" x2="82" y1="14.0" y2="14.0"/>
            <use id="cby_2__1_" x="38" xlink:href="#cby" y="14.0"/>
            <line class="marker" x1="38" x2="38" y1="0" y2="82"/>
            <line class="marker" x1="0" x2="82" y1="24" y2="24"/>
            <use id="sb_2__1_" x="38" xlink:href="#sb02" y="24"/>
            <line class="marker" x1="38" x2="38" y1="0" y2="82"/>
            <line class="marker" x1="0" x2="82" y1="28.0" y2="28.0"/>
            <use id="cby_2__2_" x="38" xlink:href="#cby" y="28.0"/>
            <line class="marker" x1="38" x2="38" y1="0" y2="82"/>
            <line class="marker" x1="0" x2="82" y1="38" y2="38"/>
            <use id="sb_2__2_" x="38" xlink:href="#sb00" y="38"/>
            <line class="marker" x1="38" x2="38" y1="0" y2="82"/>
            <line class="marker" x1="0" x2="82" y1="42.0" y2="42.0"/>
            <use id="cby_2__3_" x="38" xlink:href="#cby" y="42.0"/>
            <line class="marker" x1="38" x2="38" y1="0" y2="82"/>
            <line class="marker" x1="0" x2="82" y1="52" y2="52"/>
            <use id="sb_2__3_" x="38" xlink:href="#sb00" y="52"/>
            <line class="marker" x1="38" x2="38" y1="0" y2="82"/>
            <line class="marker" x1="0" x2="82" y1="56.0" y2="56.0"/>
            <use id="cby_2__4_" x="38" xlink:href="#cby" y="56.0"/>
            <line class="marker" x1="38" x2="38" y1="0" y2="82"/>
            <line class="marker" x1="0" x2="82" y1="66" y2="66"/>
            <use id="sb_2__4_" x="38" xlink:href="#sb04" y="66"/>
            <line class="marker" x1="42.0" x2="42.0" y1="0" y2="82"/>
            <line class="marker" x1="0" x2="82" y1="0.0" y2="0.0"/>
            <use id="io_bottom_3__0_" x="42.0" xlink:href="#io_bottom" y="0.0"/>
            <line class="marker" x1="42.0" x2="42.0" y1="0" y2="82"/>
            <line class="marker" x1="0" x2="82" y1="10" y2="10"/>
            <use id="cbx_3__0_" x="42.0" xlink:href="#cbx" y="10"/>
            <line class="marker" x1="42.0" x2="42.0" y1="0" y2="82"/>
            <line class="marker" x1="0" x2="82" y1="14.0" y2="14.0"/>
            <use id="clb_3__1_" x="42.0" xlink:href="#clb" y="14.0"/>
            <line class="marker" x1="42.0" x2="42.0" y1="0" y2="82"/>
            <line class="marker" x1="0" x2="82" y1="24" y2="24"/>
            <use id="cbx_3__1_" x="42.0" xlink:href="#cbx" y="24"/>
            <line class="marker" x1="42.0" x2="42.0" y1="0" y2="82"/>
            <line class="marker" x1="0" x2="82" y1="28.0" y2="28.0"/>
            <use id="clb_3__2_" x="42.0" xlink:href="#clb" y="28.0"/>
            <line class="marker" x1="42.0" x2="42.0" y1="0" y2="82"/>
            <line class="marker" x1="0" x2="82" y1="38" y2="38"/>
            <use id="cbx_3__2_" x="42.0" xlink:href="#cbx" y="38"/>
            <line class="marker" x1="42.0" x2="42.0" y1="0" y2="82"/>
            <line class="marker" x1="0" x2="82" y1="42.0" y2="42.0"/>
            <use id="clb_3__3_" x="42.0" xlink:href="#clb" y="42.0"/>
            <line class="marker" x1="42.0" x2="42.0" y1="0" y2="82"/>
            <line class="marker" x1="0" x2="82" y1="52" y2="52"/>
            <use id="cbx_3__3_" x="42.0" xlink:href="#cbx" y="52"/>
            <line class="marker" x1="42.0" x2="42.0" y1="0" y2="82"/>
            <line class="marker" x1="0" x2="82" y1="56.0" y2="56.0"/>
            <use id="clb_3__4_" x="42.0" xlink:href="#clb" y="56.0"/>
            <line class="marker" x1="42.0" x2="42.0" y1="0" y2="82"/>
            <line class="marker" x1="0" x2="82" y1="66" y2="66"/>
            <use id="cbx_3__4_" x="42.0" xlink:href="#cbx" y="66"/>
            <line class="marker" x1="42.0" x2="42.0" y1="0" y2="82"/>
            <line class="marker" x1="0" x2="82" y1="70.0" y2="70.0"/>
            <use id="io_top_3__5_" x="42.0" xlink:href="#io_top" y="70.0"/>
            <line class="marker" x1="52" x2="52" y1="0" y2="82"/>
            <line class="marker" x1="0" x2="82" y1="10" y2="10"/>
            <use id="sb_3__0_" x="52" xlink:href="#sb08" y="10"/>
            <line class="marker" x1="52" x2="52" y1="0" y2="82"/>
            <line class="marker" x1="0" x2="82" y1="14.0" y2="14.0"/>
            <use id="cby_3__1_" x="52" xlink:href="#cby" y="14.0"/>
            <line class="marker" x1="52" x2="52" y1="0" y2="82"/>
            <line class="marker" x1="0" x2="82" y1="24" y2="24"/>
            <use id="sb_3__1_" x="52" xlink:href="#sb00" y="24"/>
            <line class="marker" x1="52" x2="52" y1="0" y2="82"/>
            <line class="marker" x1="0" x2="82" y1="28.0" y2="28.0"/>
            <use id="cby_3__2_" x="52" xlink:href="#cby" y="28.0"/>
            <line class="marker" x1="52" x2="52" y1="0" y2="82"/>
            <line class="marker" x1="0" x2="82" y1="38" y2="38"/>
            <use id="sb_3__2_" x="52" xlink:href="#sb00" y="38"/>
            <line class="marker" x1="52" x2="52" y1="0" y2="82"/>
            <line class="marker" x1="0" x2="82" y1="42.0" y2="42.0"/>
            <use id="cby_3__3_" x="52" xlink:href="#cby" y="42.0"/>
            <line class="marker" x1="52" x2="52" y1="0" y2="82"/>
            <line class="marker" x1="0" x2="82" y1="52" y2="52"/>
            <use id="sb_3__3_" x="52" xlink:href="#sb00" y="52"/>
            <line class="marker" x1="52" x2="52" y1="0" y2="82"/>
            <line class="marker" x1="0" x2="82" y1="56.0" y2="56.0"/>
            <use id="cby_3__4_" x="52" xlink:href="#cby" y="56.0"/>
            <line class="marker" x1="52" x2="52" y1="0" y2="82"/>
            <line class="marker" x1="0" x2="82" y1="66" y2="66"/>
            <use id="sb_3__4_" x="52" xlink:href="#sb04" y="66"/>
            <line class="marker" x1="56.0" x2="56.0" y1="0" y2="82"/>
            <line class="marker" x1="0" x2="82" y1="0.0" y2="0.0"/>
            <use id="io_bottom_4__0_" x="56.0" xlink:href="#io_bottom" y="0.0"/>
            <line class="marker" x1="56.0" x2="56.0" y1="0" y2="82"/>
            <line class="marker" x1="0" x2="82" y1="10" y2="10"/>
            <use id="cbx_4__0_" x="56.0" xlink:href="#cbx" y="10"/>
            <line class="marker" x1="56.0" x2="56.0" y1="0" y2="82"/>
            <line class="marker" x1="0" x2="82" y1="14.0" y2="14.0"/>
            <use id="clb_4__1_" x="56.0" xlink:href="#clb" y="14.0"/>
            <line class="marker" x1="56.0" x2="56.0" y1="0" y2="82"/>
            <line class="marker" x1="0" x2="82" y1="24" y2="24"/>
            <use id="cbx_4__1_" x="56.0" xlink:href="#cbx" y="24"/>
            <line class="marker" x1="56.0" x2="56.0" y1="0" y2="82"/>
            <line class="marker" x1="0" x2="82" y1="28.0" y2="28.0"/>
            <use id="clb_4__2_" x="56.0" xlink:href="#clb" y="28.0"/>
            <line class="marker" x1="56.0" x2="56.0" y1="0" y2="82"/>
            <line class="marker" x1="0" x2="82" y1="38" y2="38"/>
            <use id="cbx_4__2_" x="56.0" xlink:href="#cbx" y="38"/>
            <line class="marker" x1="56.0" x2="56.0" y1="0" y2="82"/>
            <line class="marker" x1="0" x2="82" y1="42.0" y2="42.0"/>
            <use id="clb_4__3_" x="56.0" xlink:href="#clb" y="42.0"/>
            <line class="marker" x1="56.0" x2="56.0" y1="0" y2="82"/>
            <line class="marker" x1="0" x2="82" y1="52" y2="52"/>
            <use id="cbx_4__3_" x="56.0" xlink:href="#cbx" y="52"/>
            <line class="marker" x1="56.0" x2="56.0" y1="0" y2="82"/>
            <line class="marker" x1="0" x2="82" y1="56.0" y2="56.0"/>
            <use id="clb_4__4_" x="56.0" xlink:href="#clb" y="56.0"/>
            <line class="marker" x1="56.0" x2="56.0" y1="0" y2="82"/>
            <line class="marker" x1="0" x2="82" y1="66" y2="66"/>
            <use id="cbx_4__4_" x="56.0" xlink:href="#cbx" y="66"/>
            <line class="marker" x1="56.0" x2="56.0" y1="0" y2="82"/>
            <line class="marker" x1="0" x2="82" y1="70.0" y2="70.0"/>
            <use id="io_top_4__5_" x="56.0" xlink:href="#io_top" y="70.0"/>
            <line class="marker" x1="66" x2="66" y1="0" y2="82"/>
            <line class="marker" x1="0" x2="82" y1="10" y2="10"/>
            <use id="sb_4__0_" x="66" xlink:href="#sb07" y="10"/>
            <line class="marker" x1="66" x2="66" y1="0" y2="82"/>
            <line class="marker" x1="0" x2="82" y1="14.0" y2="14.0"/>
            <use id="cby_4__1_" x="66" xlink:href="#cby" y="14.0"/>
            <line class="marker" x1="66" x2="66" y1="0" y2="82"/>
            <line class="marker" x1="0" x2="82" y1="24" y2="24"/>
            <use id="sb_4__1_" x="66" xlink:href="#sb06" y="24"/>
            <line class="marker" x1="66" x2="66" y1="0" y2="82"/>
            <line class="marker" x1="0" x2="82" y1="28.0" y2="28.0"/>
            <use id="cby_4__2_" x="66" xlink:href="#cby" y="28.0"/>
            <line class="marker" x1="66" x2="66" y1="0" y2="82"/>
            <line class="marker" x1="0" x2="82" y1="38" y2="38"/>
            <use id="sb_4__2_" x="66" xlink:href="#sb06" y="38"/>
            <line class="marker" x1="66" x2="66" y1="0" y2="82"/>
            <line class="marker" x1="0" x2="82" y1="42.0" y2="42.0"/>
            <use id="cby_4__3_" x="66" xlink:href="#cby" y="42.0"/>
            <line class="marker" x1="66" x2="66" y1="0" y2="82"/>
            <line class="marker" x1="0" x2="82" y1="52" y2="52"/>
            <use id="sb_4__3_" x="66" xlink:href="#sb06" y="52"/>
            <line class="marker" x1="66" x2="66" y1="0" y2="82"/>
            <line class="marker" x1="0" x2="82" y1="56.0" y2="56.0"/>
            <use id="cby_4__4_" x="66" xlink:href="#cby" y="56.0"/>
            <line class="marker" x1="66" x2="66" y1="0" y2="82"/>
            <line class="marker" x1="0" x2="82" y1="66" y2="66"/>
            <use id="sb_4__4_" x="66" xlink:href="#sb05" y="66"/>
            <line class="marker" x1="70.0" x2="70.0" y1="0" y2="82"/>
            <line class="marker" x1="0" x2="82" y1="14.0" y2="14.0"/>
            <use id="io_right_5__1_" x="70.0" xlink:href="#io_right" y="14.0"/>
            <line class="marker" x1="70.0" x2="70.0" y1="0" y2="82"/>
            <line class="marker" x1="0" x2="82" y1="28.0" y2="28.0"/>
            <use id="io_right_5__2_" x="70.0" xlink:href="#io_right" y="28.0"/>
            <line class="marker" x1="70.0" x2="70.0" y1="0" y2="82"/>
            <line class="marker" x1="0" x2="82" y1="42.0" y2="42.0"/>
            <use id="io_right_5__3_" x="70.0" xlink:href="#io_right" y="42.0"/>
            <line class="marker" x1="70.0" x2="70.0" y1="0" y2="82"/>
            <line class="marker" x1="0" x2="82" y1="56.0" y2="56.0"/>
            <use id="io_right_5__4_" x="70.0" xlink:href="#io_right" y="56.0"/>
        </g>
        <g id="main_text">
            <text alignment-baseline="middle" text-anchor="middle" transform="scale(1,-1)" x="5.0" y="-19.0">io_left_0__1_</text>
            <text alignment-baseline="middle" text-anchor="middle" transform="scale(1,-1)" x="5.0" y="-33.0">io_left_0__2_</text>
            <text alignment-baseline="middle" text-anchor="middle" transform="scale(1,-1)" x="5.0" y="-47.0">io_left_0__3_</text>
            <text alignment-baseline="middle" text-anchor="middle" transform="scale(1,-1)" x="5.0" y="-61.0">io_left_0__4_</text>
            <text alignment-baseline="middle" text-anchor="middle" transform="scale(1,-1)" x="12.0" y="-12.0">sb_0__0_</text>
            <text alignment-baseline="middle" text-anchor="middle" transform="scale(1,-1)" x="12.0" y="-19.0">cby_0__1_</text>
            <text alignment-baseline="middle" text-anchor="middle" transform="scale(1,-1)" x="12.0" y="-26.0">sb_0__1_</text>
            <text alignment-baseline="middle" text-anchor="middle" transform="scale(1,-1)" x="12.0" y="-33.0">cby_0__2_</text>
            <text alignment-baseline="middle" text-anchor="middle" transform="scale(1,-1)" x="12.0" y="-40.0">sb_0__2_</text>
            <text alignment-baseline="middle" text-anchor="middle" transform="scale(1,-1)" x="12.0" y="-47.0">cby_0__3_</text>
            <text alignment-baseline="middle" text-anchor="middle" transform="scale(1,-1)" x="12.0" y="-54.0">sb_0__3_</text>
            <text alignment-baseline="middle" text-anchor="middle" transform="scale(1,-1)" x="12.0" y="-61.0">cby_0__4_</text>
            <text alignment-baseline="middle" text-anchor="middle" transform="scale(1,-1)" x="12.0" y="-68.0">sb_0__4_</text>
            <text alignment-baseline="middle" text-anchor="middle" transform="scale(1,-1)" x="19.0" y="-5.0">io_bottom_1__0_</text>
            <text alignment-baseline="middle" text-anchor="middle" transform="scale(1,-1)" x="19.0" y="-12.0">cbx_1__0_</text>
            <text alignment-baseline="middle" text-anchor="middle" transform="scale(1,-1)" x="26.0" y="-26.0">mcu_1__1_</text>
            <text alignment-baseline="middle" text-anchor="middle" transform="scale(1,-1)" x="19.0" y="-40.0">cbx_1__2_</text>
            <text alignment-baseline="middle" text-anchor="middle" transform="scale(1,-1)" x="19.0" y="-47.0">clb_1__3_</text>
            <text alignment-baseline="middle" text-anchor="middle" transform="scale(1,-1)" x="19.0" y="-54.0">cbx_1__3_</text>
            <text alignment-baseline="middle" text-anchor="middle" transform="scale(1,-1)" x="19.0" y="-61.0">clb_1__4_</text>
            <text alignment-baseline="middle" text-anchor="middle" transform="scale(1,-1)" x="19.0" y="-68.0">cbx_1__4_</text>
            <text alignment-baseline="middle" text-anchor="middle" transform="scale(1,-1)" x="19.0" y="-75.0">io_top_1__5_</text>
            <text alignment-baseline="middle" text-anchor="middle" transform="scale(1,-1)" x="26.0" y="-12.0">sb_1__0_</text>
            <text alignment-baseline="middle" text-anchor="middle" transform="scale(1,-1)" x="26.0" y="-40.0">sb_1__2_</text>
            <text alignment-baseline="middle" text-anchor="middle" transform="scale(1,-1)" x="26.0" y="-47.0">cby_1__3_</text>
            <text alignment-baseline="middle" text-anchor="middle" transform="scale(1,-1)" x="26.0" y="-54.0">sb_1__3_</text>
            <text alignment-baseline="middle" text-anchor="middle" transform="scale(1,-1)" x="26.0" y="-61.0">cby_1__4_</text>
            <text alignment-baseline="middle" text-anchor="middle" transform="scale(1,-1)" x="26.0" y="-68.0">sb_1__4_</text>
            <text alignment-baseline="middle" text-anchor="middle" transform="scale(1,-1)" x="33.0" y="-5.0">io_bottom_2__0_</text>
            <text alignment-baseline="middle" text-anchor="middle" transform="scale(1,-1)" x="33.0" y="-12.0">cbx_2__0_</text>
            <text alignment-baseline="middle" text-anchor="middle" transform="scale(1,-1)" x="33.0" y="-40.0">cbx_2__2_</text>
            <text alignment-baseline="middle" text-anchor="middle" transform="scale(1,-1)" x="33.0" y="-47.0">clb_2__3_</text>
            <text alignment-baseline="middle" text-anchor="middle" transform="scale(1,-1)" x="33.0" y="-54.0">cbx_2__3_</text>
            <text alignment-baseline="middle" text-anchor="middle" transform="scale(1,-1)" x="33.0" y="-61.0">clb_2__4_</text>
            <text alignment-baseline="middle" text-anchor="middle" transform="scale(1,-1)" x="33.0" y="-68.0">cbx_2__4_</text>
            <text alignment-baseline="middle" text-anchor="middle" transform="scale(1,-1)" x="33.0" y="-75.0">io_top_2__5_</text>
            <text alignment-baseline="middle" text-anchor="middle" transform="scale(1,-1)" x="40.0" y="-12.0">sb_2__0_</text>
            <text alignment-baseline="middle" text-anchor="middle" transform="scale(1,-1)" x="40.0" y="-19.0">cby_2__1_</text>
            <text alignment-baseline="middle" text-anchor="middle" transform="scale(1,-1)" x="40.0" y="-26.0">sb_2__1_</text>
            <text alignment-baseline="middle" text-anchor="middle" transform="scale(1,-1)" x="40.0" y="-33.0">cby_2__2_</text>
            <text alignment-baseline="middle" text-anchor="middle" transform="scale(1,-1)" x="40.0" y="-40.0">sb_2__2_</text>
            <text alignment-baseline="middle" text-anchor="middle" transform="scale(1,-1)" x="40.0" y="-47.0">cby_2__3_</text>
            <text alignment-baseline="middle" text-anchor="middle" transform="scale(1,-1)" x="40.0" y="-54.0">sb_2__3_</text>
            <text alignment-baseline="middle" text-anchor="middle" transform="scale(1,-1)" x="40.0" y="-61.0">cby_2__4_</text>
            <text alignment-baseline="middle" text-anchor="middle" transform="scale(1,-1)" x="40.0" y="-68.0">sb_2__4_</text>
            <text alignment-baseline="middle" text-anchor="middle" transform="scale(1,-1)" x="47.0" y="-5.0">io_bottom_3__0_</text>
            <text alignment-baseline="middle" text-anchor="middle" transform="scale(1,-1)" x="47.0" y="-12.0">cbx_3__0_</text>
            <text alignment-baseline="middle" text-anchor="middle" transform="scale(1,-1)" x="47.0" y="-19.0">clb_3__1_</text>
            <text alignment-baseline="middle" text-anchor="middle" transform="scale(1,-1)" x="47.0" y="-26.0">cbx_3__1_</text>
            <text alignment-baseline="middle" text-anchor="middle" transform="scale(1,-1)" x="47.0" y="-33.0">clb_3__2_</text>
            <text alignment-baseline="middle" text-anchor="middle" transform="scale(1,-1)" x="47.0" y="-40.0">cbx_3__2_</text>
            <text alignment-baseline="middle" text-anchor="middle" transform="scale(1,-1)" x="47.0" y="-47.0">clb_3__3_</text>
            <text alignment-baseline="middle" text-anchor="middle" transform="scale(1,-1)" x="47.0" y="-54.0">cbx_3__3_</text>
            <text alignment-baseline="middle" text-anchor="middle" transform="scale(1,-1)" x="47.0" y="-61.0">clb_3__4_</text>
            <text alignment-baseline="middle" text-anchor="middle" transform="scale(1,-1)" x="47.0" y="-68.0">cbx_3__4_</text>
            <text alignment-baseline="middle" text-anchor="middle" transform="scale(1,-1)" x="47.0" y="-75.0">io_top_3__5_</text>
            <text alignment-baseline="middle" text-anchor="middle" transform="scale(1,-1)" x="54.0" y="-12.0">sb_3__0_</text>
            <text alignment-baseline="middle" text-anchor="middle" transform="scale(1,-1)" x="54.0" y="-19.0">cby_3__1_</text>
            <text alignment-baseline="middle" text-anchor="middle" transform="scale(1,-1)" x="54.0" y="-26.0">sb_3__1_</text>
            <text alignment-baseline="middle" text-anchor="middle" transform="scale(1,-1)" x="54.0" y="-33.0">cby_3__2_</text>
            <text alignment-baseline="middle" text-anchor="middle" transform="scale(1,-1)" x="54.0" y="-40.0">sb_3__2_</text>
            <text alignment-baseline="middle" text-anchor="middle" transform="scale(1,-1)" x="54.0" y="-47.0">cby_3__3_</text>
            <text alignment-baseline="middle" text-anchor="middle" transform="scale(1,-1)" x="54.0" y="-54.0">sb_3__3_</text>
            <text alignment-baseline="middle" text-anchor="middle" transform="scale(1,-1)" x="54.0" y="-61.0">cby_3__4_</text>
            <text alignment-baseline="middle" text-anchor="middle" transform="scale(1,-1)" x="54.0" y="-68.0">sb_3__4_</text>
            <text alignment-baseline="middle" text-anchor="middle" transform="scale(1,-1)" x="61.0" y="-5.0">io_bottom_4__0_</text>
            <text alignment-baseline="middle" text-anchor="middle" transform="scale(1,-1)" x="61.0" y="-12.0">cbx_4__0_</text>
            <text alignment-baseline="middle" text-anchor="middle" transform="scale(1,-1)" x="61.0" y="-19.0">clb_4__1_</text>
            <text alignment-baseline="middle" text-anchor="middle" transform="scale(1,-1)" x="61.0" y="-26.0">cbx_4__1_</text>
            <text alignment-baseline="middle" text-anchor="middle" transform="scale(1,-1)" x="61.0" y="-33.0">clb_4__2_</text>
            <text alignment-baseline="middle" text-anchor="middle" transform="scale(1,-1)" x="61.0" y="-40.0">cbx_4__2_</text>
            <text alignment-baseline="middle" text-anchor="middle" transform="scale(1,-1)" x="61.0" y="-47.0">clb_4__3_</text>
            <text alignment-baseline="middle" text-anchor="middle" transform="scale(1,-1)" x="61.0" y="-54.0">cbx_4__3_</text>
            <text alignment-baseline="middle" text-anchor="middle" transform="scale(1,-1)" x="61.0" y="-61.0">clb_4__4_</text>
            <text alignment-baseline="middle" text-anchor="middle" transform="scale(1,-1)" x="61.0" y="-68.0">cbx_4__4_</text>
            <text alignment-baseline="middle" text-anchor="middle" transform="scale(1,-1)" x="61.0" y="-75.0">io_top_4__5_</text>
            <text alignment-baseline="middle" text-anchor="middle" transform="scale(1,-1)" x="68.0" y="-12.0">sb_4__0_</text>
            <text alignment-baseline="middle" text-anchor="middle" transform="scale(1,-1)" x="68.0" y="-19.0">cby_4__1_</text>
            <text alignment-baseline="middle" text-anchor="middle" transform="scale(1,-1)" x="68.0" y="-26.0">sb_4__1_</text>
            <text alignment-baseline="middle" text-anchor="middle" transform="scale(1,-1)" x="68.0" y="-33.0">cby_4__2_</text>
            <text alignment-baseline="middle" text-anchor="middle" transform="scale(1,-1)" x="68.0" y="-40.0">sb_4__2_</text>
            <text alignment-baseline="middle" text-anchor="middle" transform="scale(1,-1)" x="68.0" y="-47.0">cby_4__3_</text>
            <text alignment-baseline="middle" text-anchor="middle" transform="scale(1,-1)" x="68.0" y="-54.0">sb_4__3_</text>
            <text alignment-baseline="middle" text-anchor="middle" transform="scale(1,-1)" x="68.0" y="-61.0">cby_4__4_</text>
            <text alignment-baseline="middle" text-anchor="middle" transform="scale(1,-1)" x="68.0" y="-68.0">sb_4__4_</text>
            <text alignment-baseline="middle" text-anchor="middle" transform="scale(1,-1)" x="75.0" y="-19.0">io_right_5__1_</text>
            <text alignment-baseline="middle" text-anchor="middle" transform="scale(1,-1)" x="75.0" y="-33.0">io_right_5__2_</text>
            <text alignment-baseline="middle" text-anchor="middle" transform="scale(1,-1)" x="75.0" y="-47.0">io_right_5__3_</text>
            <text alignment-baseline="middle" text-anchor="middle" transform="scale(1,-1)" x="75.0" y="-61.0">io_right_5__4_</text>
        </g>
    </g>
</svg>
