<svg xmlns="http://www.w3.org/2000/svg" xmlns:xlink="http://www.w3.org/1999/xlink" xmlns:s="https://github.com/nturley/netlistsvg" width="771" height="169"><style>    svg {
    stroke:green;
    fill:none;
    }
    text {
    fill:blue;
    stroke:none;
    font-size:10px;
    font-weight: bold;
    font-family: "Courier New", monospace;
    }
    line {
    stroke-linecap: round;
    }
    .nodelabel {
    text-anchor: middle;
    }
    .inputPortLabel {
    text-anchor: end;
    }
    .splitjoinBody {
    fill:green;
    }</style><g s:type="sub_odd" transform="translate(97,105.66666666666666)" s:width="30" s:height="40" id="cell_inst_1_0_module2_0"><text x="0" y="-4" class="nodelabel cell_inst_1_0_module2_0" s:attribute="ref">inst_1_0_module2_0</text><rect width="0" height="0" s:generic="body" fill="#e9e9e9" rx="4" class="cell_inst_1_0_module2_0"/><g transform="translate(-1,-0.33333333333333215)" s:x="0" s:y="10" s:pid="in0" id="port_inst_1_0_module2_0~in0"><text x="-3" y="-4" class="inputPortLabel cell_inst_1_0_module2_0">in0</text></g><g transform="translate(-1,-0.6666666666666661)" s:x="0" s:y="10" s:pid="in0" id="port_inst_1_0_module2_0~in1"><text x="-3" y="-4" class="inputPortLabel cell_inst_1_0_module2_0">in1</text></g><g transform="translate(0,0)" s:x="30" s:y="10" s:pid="out0" id="port_inst_1_0_module2_0~out"><text x="5" y="-4" style="stroke:none" class="cell_inst_1_0_module2_0">out</text></g></g><g s:type="sub_odd" transform="translate(260,82.16666666666666)" s:width="30" s:height="40" id="cell_inst_1_0_module2_1"><text x="0" y="-4" class="nodelabel cell_inst_1_0_module2_1" s:attribute="ref">inst_1_0_module2_1</text><rect width="0" height="0" s:generic="body" fill="#e9e9e9" rx="4" class="cell_inst_1_0_module2_1"/><g transform="translate(-1,-0.6666666666666661)" s:x="0" s:y="10" s:pid="in0" id="port_inst_1_0_module2_1~in0"><text x="-3" y="-4" class="inputPortLabel cell_inst_1_0_module2_1">in0</text></g><g transform="translate(-1,-0.33333333333333215)" s:x="0" s:y="10" s:pid="in0" id="port_inst_1_0_module2_1~in1"><text x="-3" y="-4" class="inputPortLabel cell_inst_1_0_module2_1">in1</text></g><g transform="translate(0,0)" s:x="30" s:y="10" s:pid="out0" id="port_inst_1_0_module2_1~out"><text x="5" y="-4" style="stroke:none" class="cell_inst_1_0_module2_1">out</text></g></g><g s:type="sub_odd" transform="translate(423,82.83333333333333)" s:width="30" s:height="40" id="cell_inst_1_1_module2_0"><text x="0" y="-4" class="nodelabel cell_inst_1_1_module2_0" s:attribute="ref">inst_1_1_module2_0</text><rect width="0" height="0" s:generic="body" fill="#e9e9e9" rx="4" class="cell_inst_1_1_module2_0"/><g transform="translate(-1,-0.6666666666666661)" s:x="0" s:y="10" s:pid="in0" id="port_inst_1_1_module2_0~in0"><text x="-3" y="-4" class="inputPortLabel cell_inst_1_1_module2_0">in0</text></g><g transform="translate(-1,-0.33333333333333215)" s:x="0" s:y="10" s:pid="in0" id="port_inst_1_1_module2_0~in1"><text x="-3" y="-4" class="inputPortLabel cell_inst_1_1_module2_0">in1</text></g><g transform="translate(0,0)" s:x="30" s:y="10" s:pid="out0" id="port_inst_1_1_module2_0~out"><text x="5" y="-4" style="stroke:none" class="cell_inst_1_1_module2_0">out</text></g></g><g s:type="sub_odd" transform="translate(586,83.5)" s:width="30" s:height="40" id="cell_inst_1_1_module2_1"><text x="0" y="-4" class="nodelabel cell_inst_1_1_module2_1" s:attribute="ref">inst_1_1_module2_1</text><rect width="0" height="0" s:generic="body" fill="#e9e9e9" rx="4" class="cell_inst_1_1_module2_1"/><g transform="translate(-1,-0.33333333333333215)" s:x="0" s:y="10" s:pid="in0" id="port_inst_1_1_module2_1~in0"><text x="-3" y="-4" class="inputPortLabel cell_inst_1_1_module2_1">in0</text></g><g transform="translate(-1,-0.6666666666666661)" s:x="0" s:y="10" s:pid="in0" id="port_inst_1_1_module2_1~in1"><text x="-3" y="-4" class="inputPortLabel cell_inst_1_1_module2_1">in1</text></g><g transform="translate(0,0)" s:x="30" s:y="10" s:pid="out0" id="port_inst_1_1_module2_1~out"><text x="5" y="-4" style="stroke:none" class="cell_inst_1_1_module2_1">out</text></g></g><g s:type="inputExt" transform="translate(12,137)" s:width="30" s:height="20" id="cell_in0"><text x="15" y="-4" class="nodelabel cell_in0" s:attribute="ref">in0</text><s:alias val="$_inputExt_"/><path d="M0,0 L0,20 L15,20 L30,10 L15,0 Z" fill="#ffffff" class="cell_in0"/><g s:x="30" s:y="10" s:pid="Y"/></g><g s:type="inputExt" transform="translate(12,72)" s:width="30" s:height="20" id="cell_in1"><text x="15" y="-4" class="nodelabel cell_in1" s:attribute="ref">in1</text><s:alias val="$_inputExt_"/><path d="M0,0 L0,20 L15,20 L30,10 L15,0 Z" fill="#ffffff" class="cell_in1"/><g s:x="30" s:y="10" s:pid="Y"/></g><g s:type="inputExt" transform="translate(12,22)" s:width="30" s:height="20" id="cell_in_ft"><text x="15" y="-4" class="nodelabel cell_in_ft" s:attribute="ref">in_ft</text><s:alias val="$_inputExt_"/><path d="M0,0 L0,20 L15,20 L30,10 L15,0 Z" fill="#ffffff" class="cell_in_ft"/><g s:x="30" s:y="10" s:pid="Y"/></g><g s:type="outputExt" transform="translate(729,74)" s:width="30" s:height="20" id="cell_out0"><text x="15" y="-4" class="nodelabel cell_out0" s:attribute="ref">out0</text><s:alias val="$_outputExt_"/><path d="M30,0 L30,20 L15,20 L0,10 L15,0 Z" fill="#ffffff" class="cell_out0"/><g s:x="0" s:y="10" s:pid="A"/></g><g s:type="outputExt" transform="translate(77,22)" s:width="30" s:height="20" id="cell_out_ft"><text x="15" y="-4" class="nodelabel cell_out_ft" s:attribute="ref">out_ft</text><s:alias val="$_outputExt_"/><path d="M30,0 L30,20 L15,20 L0,10 L15,0 Z" fill="#ffffff" class="cell_out_ft"/><g s:x="0" s:y="10" s:pid="A"/></g><line x1="42" x2="52" y1="147" y2="147" class="net_2 width_1" style="stroke-width: 1"/><line x1="52" x2="52" y1="147" y2="105.83333333333333" class="net_2 width_1" style="stroke-width: 1"/><circle cx="52" cy="147" r="2" style="fill:#000" class="net_2 width_1"/><line x1="52" x2="96" y1="105.83333333333333" y2="105.83333333333333" class="net_2 width_1" style="stroke-width: 1"/><line x1="42" x2="378" y1="147" y2="147" class="net_2 width_1" style="stroke-width: 1"/><line x1="378" x2="378" y1="147" y2="83" class="net_2 width_1" style="stroke-width: 1"/><circle cx="378" cy="147" r="2" style="fill:#000" class="net_2 width_1"/><line x1="378" x2="422" y1="83" y2="83" class="net_2 width_1" style="stroke-width: 1"/><line x1="42" x2="541" y1="147" y2="147" class="net_2 width_1" style="stroke-width: 1"/><line x1="541" x2="541" y1="147" y2="83.66666666666667" class="net_2 width_1" style="stroke-width: 1"/><line x1="541" x2="585" y1="83.66666666666667" y2="83.66666666666667" class="net_2 width_1" style="stroke-width: 1"/><line x1="42" x2="52" y1="82" y2="82" class="net_3 width_1" style="stroke-width: 1"/><line x1="52" x2="52" y1="82" y2="105.5" class="net_3 width_1" style="stroke-width: 1"/><circle cx="52" cy="82" r="2" style="fill:#000" class="net_3 width_1"/><line x1="52" x2="96" y1="105.5" y2="105.49999999999999" class="net_3 width_1" style="stroke-width: 1"/><line x1="42" x2="259" y1="82" y2="81.99999999999999" class="net_3 width_1" style="stroke-width: 1"/><line x1="98" x2="215" y1="106.16666666666666" y2="106.16666666666666" class="net_6 width_1" style="stroke-width: 1"/><line x1="215" x2="215" y1="106.16666666666666" y2="82.33333333333333" class="net_6 width_1" style="stroke-width: 1"/><line x1="215" x2="259" y1="82.33333333333333" y2="82.33333333333333" class="net_6 width_1" style="stroke-width: 1"/><line x1="261" x2="422" y1="82.66666666666666" y2="82.66666666666666" class="net_7 width_1" style="stroke-width: 1"/><line x1="424" x2="585" y1="83.33333333333333" y2="83.33333333333333" class="net_8 width_1" style="stroke-width: 1"/><line x1="587" x2="729" y1="84" y2="84" class="net_5 width_1" style="stroke-width: 1"/><line x1="42" x2="77" y1="32" y2="32" class="net_4 width_1" style="stroke-width: 1"/></svg>