<svg xmlns="http://www.w3.org/2000/svg" xmlns:xlink="http://www.w3.org/1999/xlink" xmlns:s="https://github.com/nturley/netlistsvg" width="767" height="144">
  <style>svg {
    stroke:#000;
    fill:none;
  }
  text {
    fill:#000;
    stroke:none;
    font-size:10px;
    font-weight: bold;
    font-family: "Courier New", monospace;
  }
  .nodelabel {
    text-anchor: middle;
  }
  .inputPortLabel {
    text-anchor: end;
  }
  .splitjoinBody {
    fill:#000;
  }</style>
  <g s:type="generic" transform="translate(96,66.5)" s:width="30" s:height="40" id="cell_inst_1_0_module2_0">
    <text x="15" y="-4" class="nodelabel cell_inst_1_0_module2_0" s:attribute="ref">inst_1_0_module2_0</text>
    <rect width="30" height="40" s:generic="body" class="cell_inst_1_0_module2_0"/>
    <g transform="translate(0,10)" s:x="0" s:y="10" s:pid="in0" id="port_inst_1_0_module2_0~in0">
      <text x="-3" y="-4" class="inputPortLabel cell_inst_1_0_module2_0">in0</text>
    </g>
    <g transform="translate(0,30)" s:x="0" s:y="10" s:pid="in0" id="port_inst_1_0_module2_0~in1">
      <text x="-3" y="-4" class="inputPortLabel cell_inst_1_0_module2_0">in1</text>
    </g>
    <g transform="translate(30,10)" s:x="30" s:y="10" s:pid="out0" id="port_inst_1_0_module2_0~out">
      <text x="5" y="-4" style="fill:#000; stroke:none" class="cell_inst_1_0_module2_0">out</text>
    </g>
  </g>
  <g s:type="generic" transform="translate(258,46.5)" s:width="30" s:height="40" id="cell_inst_1_0_module2_1">
    <text x="15" y="-4" class="nodelabel cell_inst_1_0_module2_1" s:attribute="ref">inst_1_0_module2_1</text>
    <rect width="30" height="40" s:generic="body" class="cell_inst_1_0_module2_1"/>
    <g transform="translate(0,10)" s:x="0" s:y="10" s:pid="in0" id="port_inst_1_0_module2_1~in0">
      <text x="-3" y="-4" class="inputPortLabel cell_inst_1_0_module2_1">in0</text>
    </g>
    <g transform="translate(0,30)" s:x="0" s:y="10" s:pid="in0" id="port_inst_1_0_module2_1~in1">
      <text x="-3" y="-4" class="inputPortLabel cell_inst_1_0_module2_1">in1</text>
    </g>
    <g transform="translate(30,10)" s:x="30" s:y="10" s:pid="out0" id="port_inst_1_0_module2_1~out">
      <text x="5" y="-4" style="fill:#000; stroke:none" class="cell_inst_1_0_module2_1">out</text>
    </g>
  </g>
  <g s:type="generic" transform="translate(420,89)" s:width="30" s:height="40" id="cell_inst_1_1_module2_0">
    <text x="15" y="-4" class="nodelabel cell_inst_1_1_module2_0" s:attribute="ref">inst_1_1_module2_0</text>
    <rect width="30" height="40" s:generic="body" class="cell_inst_1_1_module2_0"/>
    <g transform="translate(0,10)" s:x="0" s:y="10" s:pid="in0" id="port_inst_1_1_module2_0~in0">
      <text x="-3" y="-4" class="inputPortLabel cell_inst_1_1_module2_0">in0</text>
    </g>
    <g transform="translate(0,30)" s:x="0" s:y="10" s:pid="in0" id="port_inst_1_1_module2_0~in1">
      <text x="-3" y="-4" class="inputPortLabel cell_inst_1_1_module2_0">in1</text>
    </g>
    <g transform="translate(30,10)" s:x="30" s:y="10" s:pid="out0" id="port_inst_1_1_module2_0~out">
      <text x="5" y="-4" style="fill:#000; stroke:none" class="cell_inst_1_1_module2_0">out</text>
    </g>
  </g>
  <g s:type="generic" transform="translate(582,69)" s:width="30" s:height="40" id="cell_inst_1_1_module2_1">
    <text x="15" y="-4" class="nodelabel cell_inst_1_1_module2_1" s:attribute="ref">inst_1_1_module2_1</text>
    <rect width="30" height="40" s:generic="body" class="cell_inst_1_1_module2_1"/>
    <g transform="translate(0,10)" s:x="0" s:y="10" s:pid="in0" id="port_inst_1_1_module2_1~in0">
      <text x="-3" y="-4" class="inputPortLabel cell_inst_1_1_module2_1">in0</text>
    </g>
    <g transform="translate(0,30)" s:x="0" s:y="10" s:pid="in0" id="port_inst_1_1_module2_1~in1">
      <text x="-3" y="-4" class="inputPortLabel cell_inst_1_1_module2_1">in1</text>
    </g>
    <g transform="translate(30,10)" s:x="30" s:y="10" s:pid="out0" id="port_inst_1_1_module2_1~out">
      <text x="5" y="-4" style="fill:#000; stroke:none" class="cell_inst_1_1_module2_1">out</text>
    </g>
  </g>
  <g s:type="inputExt" transform="translate(12,22)" s:width="30" s:height="20" id="cell_in0">
    <text x="15" y="-4" class="nodelabel cell_in0" s:attribute="ref">in0</text>
    <s:alias val="$_inputExt_"/>
    <path d="M0,0 L0,20 L15,20 L30,10 L15,0 Z" class="cell_in0"/>
    <g s:x="28" s:y="10" s:pid="Y"/>
  </g>
  <g s:type="inputExt" transform="translate(12,87)" s:width="30" s:height="20" id="cell_in1">
    <text x="15" y="-4" class="nodelabel cell_in1" s:attribute="ref">in1</text>
    <s:alias val="$_inputExt_"/>
    <path d="M0,0 L0,20 L15,20 L30,10 L15,0 Z" class="cell_in1"/>
    <g s:x="28" s:y="10" s:pid="Y"/>
  </g>
  <g s:type="outputExt" transform="translate(725,69.5)" s:width="30" s:height="20" id="cell_out0">
    <text x="15" y="-4" class="nodelabel cell_out0" s:attribute="ref">out0</text>
    <s:alias val="$_outputExt_"/>
    <path d="M30,0 L30,20 L15,20 L0,10 L15,0 Z" class="cell_out0"/>
    <g s:x="0" s:y="10" s:pid="A"/>
  </g>
  <line x1="40" x2="62" y1="32" y2="32" class="net_2"/>
  <line x1="62" x2="62" y1="32" y2="77" class="net_2"/>
  <circle cx="62" cy="32" r="2" style="fill:#000" class="net_2"/>
  <circle cx="62" cy="77" r="2" style="fill:#000" class="net_2"/>
  <line x1="62" x2="96" y1="77" y2="77" class="net_2"/>
  <line x1="40" x2="62" y1="32" y2="32" class="net_2"/>
  <line x1="62" x2="62" y1="32" y2="119.5" class="net_2"/>
  <line x1="62" x2="420" y1="119.5" y2="119.5" class="net_2"/>
  <line x1="40" x2="62" y1="32" y2="32" class="net_2"/>
  <line x1="62" x2="62" y1="32" y2="25.5" class="net_2"/>
  <line x1="62" x2="538" y1="25.5" y2="25.5" class="net_2"/>
  <line x1="538" x2="538" y1="25.5" y2="79.5" class="net_2"/>
  <line x1="538" x2="582" y1="79.5" y2="79.5" class="net_2"/>
  <line x1="40" x2="96" y1="97" y2="97" class="net_3"/>
  <line x1="40" x2="52" y1="97" y2="97" class="net_3"/>
  <line x1="52" x2="52" y1="97" y2="45.5" class="net_3"/>
  <line x1="52" x2="214" y1="45.5" y2="45.5" class="net_3"/>
  <line x1="214" x2="214" y1="45.5" y2="57" class="net_3"/>
  <circle cx="52" cy="97" r="2" style="fill:#000" class="net_3"/>
  <line x1="214" x2="258" y1="57" y2="57" class="net_3"/>
  <line x1="127" x2="258" y1="77" y2="77" class="net_5"/>
  <line x1="289" x2="376" y1="57" y2="57" class="net_6"/>
  <line x1="376" x2="376" y1="57" y2="99.5" class="net_6"/>
  <line x1="376" x2="420" y1="99.5" y2="99.5" class="net_6"/>
  <line x1="451" x2="582" y1="99.5" y2="99.5" class="net_7"/>
  <line x1="613" x2="725" y1="79.5" y2="79.5" class="net_4"/>
</svg>
