<svg xmlns="http://www.w3.org/2000/svg" xmlns:xlink="http://www.w3.org/1999/xlink" xmlns:s="https://github.com/nturley/netlistsvg" width="595" height="250"><style>svg {
  stroke:#000;
  fill:none;
}
text {
  fill:#000;
  stroke:none;
  font-size:10px;
  font-weight: bold;
  font-family: "Courier New", monospace;
}
line {
    stroke-linecap: round;
}
.nodelabel {
  text-anchor: middle;
}
.inputPortLabel {
  text-anchor: end;
}
.splitjoinBody {
  fill:#000;
}</style><g s:type="generic" transform="translate(351,22)" s:width="30" s:height="40" id="cell_inst_1_0"><text x="15" y="-4" class="nodelabel cell_inst_1_0" s:attribute="ref">inst_1_0</text><rect width="30" height="40" s:generic="body" fill="#ffffff" rx="0" class="cell_inst_1_0"/><g transform="translate(0,10)" s:x="0" s:y="10" s:pid="in0" id="port_inst_1_0~in0"><text x="-3" y="-4" class="inputPortLabel cell_inst_1_0">in0</text></g><g transform="translate(0,30)" s:x="0" s:y="10" s:pid="in0" id="port_inst_1_0~in1"><text x="-3" y="-4" class="inputPortLabel cell_inst_1_0">in1</text></g><g transform="translate(30,10)" s:x="30" s:y="10" s:pid="out0" id="port_inst_1_0~out"><text x="5" y="-4" style="fill:#000; stroke:none" class="cell_inst_1_0">out</text></g></g><g s:type="generic" transform="translate(456,89.5)" s:width="30" s:height="40" id="cell_inst_1_1"><text x="15" y="-4" class="nodelabel cell_inst_1_1" s:attribute="ref">inst_1_1</text><rect width="30" height="40" s:generic="body" fill="#ffffff" rx="0" class="cell_inst_1_1"/><g transform="translate(0,10)" s:x="0" s:y="10" s:pid="in0" id="port_inst_1_1~in0"><text x="-3" y="-4" class="inputPortLabel cell_inst_1_1">in0</text></g><g transform="translate(0,30)" s:x="0" s:y="10" s:pid="in0" id="port_inst_1_1~in1"><text x="-3" y="-4" class="inputPortLabel cell_inst_1_1">in1</text></g><g transform="translate(30,10)" s:x="30" s:y="10" s:pid="out0" id="port_inst_1_1~out"><text x="5" y="-4" style="fill:#000; stroke:none" class="cell_inst_1_1">out</text></g></g><g s:type="generic" transform="translate(207,195)" s:width="30" s:height="40" id="cell_inst_2_0"><text x="15" y="-4" class="nodelabel cell_inst_2_0" s:attribute="ref">inst_2_0</text><rect width="30" height="40" s:generic="body" fill="#ffffff" rx="0" class="cell_inst_2_0"/><g transform="translate(0,10)" s:x="0" s:y="10" s:pid="in0" id="port_inst_2_0~in0"><text x="-3" y="-4" class="inputPortLabel cell_inst_2_0">in0</text></g><g transform="translate(0,30)" s:x="0" s:y="10" s:pid="in0" id="port_inst_2_0~in1"><text x="-3" y="-4" class="inputPortLabel cell_inst_2_0">in1</text></g><g transform="translate(30,10)" s:x="30" s:y="10" s:pid="out0" id="port_inst_2_0~out"><text x="5" y="-4" style="fill:#000; stroke:none" class="cell_inst_2_0">out</text></g></g><g s:type="generic" transform="translate(351,175)" s:width="30" s:height="40" id="cell_inst_2_1"><text x="15" y="-4" class="nodelabel cell_inst_2_1" s:attribute="ref">inst_2_1</text><rect width="30" height="40" s:generic="body" fill="#ffffff" rx="0" class="cell_inst_2_1"/><g transform="translate(0,10)" s:x="0" s:y="10" s:pid="in0" id="port_inst_2_1~in0"><text x="-3" y="-4" class="inputPortLabel cell_inst_2_1">in0</text></g><g transform="translate(0,30)" s:x="0" s:y="10" s:pid="in0" id="port_inst_2_1~in1"><text x="-3" y="-4" class="inputPortLabel cell_inst_2_1">in1</text></g><g transform="translate(30,10)" s:x="30" s:y="10" s:pid="out0" id="port_inst_2_1~out"><text x="5" y="-4" style="fill:#000; stroke:none" class="cell_inst_2_1">out</text></g></g><g s:type="inputExt" transform="translate(12,22.5)" s:width="30" s:height="20" id="cell_in0"><text x="15" y="-4" class="nodelabel cell_in0" s:attribute="ref">in0</text><s:alias val="$_inputExt_"/><path d="M0,0 L0,20 L15,20 L30,10 L15,0 Z" fill="#ffffff" class="cell_in0"/><g s:x="30" s:y="10" s:pid="Y"/></g><g s:type="inputExt" transform="translate(12,131)" s:width="30" s:height="20" id="cell_in1"><text x="15" y="-4" class="nodelabel cell_in1" s:attribute="ref">in1</text><s:alias val="$_inputExt_"/><path d="M0,0 L0,20 L15,20 L30,10 L15,0 Z" fill="#ffffff" class="cell_in1"/><g s:x="30" s:y="10" s:pid="Y"/></g><g s:type="inputExt" transform="translate(351,110)" s:width="30" s:height="20" id="cell_in3"><text x="15" y="-4" class="nodelabel cell_in3" s:attribute="ref">in3</text><s:alias val="$_inputExt_"/><path d="M0,0 L0,20 L15,20 L30,10 L15,0 Z" fill="#ffffff" class="cell_in3"/><g s:x="30" s:y="10" s:pid="Y"/></g><g s:type="inputExt" transform="translate(77,215.5)" s:width="30" s:height="20" id="cell_bus_in"><text x="15" y="-4" class="nodelabel cell_bus_in" s:attribute="ref">bus_in</text><s:alias val="$_inputExt_"/><path d="M0,0 L0,20 L15,20 L30,10 L15,0 Z" fill="#ffffff" class="cell_bus_in"/><g s:x="30" s:y="10" s:pid="Y"/></g><g s:type="outputExt" transform="translate(541,90)" s:width="30" s:height="20" id="cell_out0"><text x="15" y="-4" class="nodelabel cell_out0" s:attribute="ref">out0</text><s:alias val="$_outputExt_"/><path d="M30,0 L30,20 L15,20 L0,10 L15,0 Z" fill="#ffffff" class="cell_out0"/><g s:x="0" s:y="10" s:pid="A"/></g><g s:type="outputExt" transform="translate(541,175.5)" s:width="30" s:height="20" id="cell_bus_out"><text x="15" y="-4" class="nodelabel cell_bus_out" s:attribute="ref">bus_out</text><s:alias val="$_outputExt_"/><path d="M30,0 L30,20 L15,20 L0,10 L15,0 Z" fill="#ffffff" class="cell_bus_out"/><g s:x="0" s:y="10" s:pid="A"/></g><g s:type="join" transform="translate(90,130.5)" s:width="5" s:height="40" id="cell_$join$,3,2,"><rect width="5" height="40" class="splitjoinBody" s:generic="body"/><s:alias val="$_join_"/><g s:x="5" s:y="20" s:pid="out"/><g transform="translate(-1,10)" s:x="-1" s:y="10" s:pid="in0"><text x="-3" y="-4" class="inputPortLabel">0</text></g><g transform="translate(-1,30)" s:x="-1" s:y="10" s:pid="in0"><text x="-3" y="-4" class="inputPortLabel">1</text></g></g><line x1="42" x2="351" y1="32.5" y2="32.5" class="net_2 width_1" style="stroke-width: 1"/><line x1="42" x2="52" y1="32.5" y2="32.5" class="net_2 width_1" style="stroke-width: 1"/><line x1="52" x2="52" y1="32.5" y2="161" class="net_2 width_1" style="stroke-width: 1"/><circle cx="52" cy="32.5" r="2" style="fill:#000" class="net_2 width_1"/><line x1="52" x2="89" y1="161" y2="161" class="net_2 width_1" style="stroke-width: 1"/><line x1="42" x2="62" y1="141" y2="141" class="net_3 width_1" style="stroke-width: 1"/><line x1="62" x2="62" y1="141" y2="52.5" class="net_3 width_1" style="stroke-width: 1"/><circle cx="62" cy="141" r="2" style="fill:#000" class="net_3 width_1"/><line x1="62" x2="350" y1="52.5" y2="52.5" class="net_3 width_1" style="stroke-width: 1"/><line x1="42" x2="89" y1="141" y2="141" class="net_3 width_1" style="stroke-width: 1"/><line x1="382" x2="411" y1="32.5" y2="32.5" class="net_10 width_1" style="stroke-width: 1"/><line x1="411" x2="411" y1="32.5" y2="100" class="net_10 width_1" style="stroke-width: 1"/><line x1="411" x2="456" y1="100" y2="100" class="net_10 width_1" style="stroke-width: 1"/><line x1="381" x2="455" y1="120" y2="120" class="net_4 width_1" style="stroke-width: 1"/><line x1="96" x2="162" y1="151" y2="151" class="net_3,2 width_2" style="stroke-width: 2"/><line x1="162" x2="162" y1="151" y2="205.5" class="net_3,2 width_2" style="stroke-width: 2"/><line x1="162" x2="207" y1="205.5" y2="205.5" class="net_3,2 width_2" style="stroke-width: 2"/><line x1="107" x2="206" y1="225.5" y2="225.5" class="net_5,6 width_2" style="stroke-width: 2"/><line x1="238" x2="267" y1="205.5" y2="205.5" class="net_11,12 width_2" style="stroke-width: 2"/><line x1="267" x2="267" y1="205.5" y2="185.5" class="net_11,12 width_2" style="stroke-width: 2"/><circle cx="267" cy="205.5" r="3" style="fill:#000" class="net_11,12 width_2"/><line x1="267" x2="351" y1="185.5" y2="185.5" class="net_11,12 width_2" style="stroke-width: 2"/><line x1="238" x2="350" y1="205.5" y2="205.5" class="net_11,12 width_2" style="stroke-width: 2"/><line x1="487" x2="541" y1="100" y2="100" class="net_7 width_1" style="stroke-width: 1"/><line x1="382" x2="541" y1="185.5" y2="185.5" class="net_8,9 width_2" style="stroke-width: 2"/><rect x="149" y="146" width="16" height="9" class="net_3,2 width_2 busLabel_2" style="fill: white; stroke: none"/><text x="148" y="154" class="net_3,2 width_2 busLabel_2">/2/</text><rect x="149" y="220.5" width="16" height="9" class="net_5,6 width_2 busLabel_2" style="fill: white; stroke: none"/><text x="148" y="228.5" class="net_5,6 width_2 busLabel_2">/2/</text><rect x="293" y="200.5" width="16" height="9" class="net_11,12 width_2 busLabel_2" style="fill: white; stroke: none"/><text x="292" y="208.5" class="net_11,12 width_2 busLabel_2">/2/</text><rect x="293" y="200.5" width="16" height="9" class="net_11,12 width_2 busLabel_2" style="fill: white; stroke: none"/><text x="292" y="208.5" class="net_11,12 width_2 busLabel_2">/2/</text><rect x="470" y="180.5" width="16" height="9" class="net_8,9 width_2 busLabel_2" style="fill: white; stroke: none"/><text x="469" y="188.5" class="net_8,9 width_2 busLabel_2">/2/</text></svg>