<svg xmlns="http://www.w3.org/2000/svg" xmlns:xlink="http://www.w3.org/1999/xlink" xmlns:s="https://github.com/nturley/netlistsvg" width="327" height="121.5">
  <style>svg {
    stroke:#000;
    fill:none;
  }
  text {
    fill:#000;
    stroke:none;
    font-size:10px;
    font-weight: bold;
    font-family: "Courier New", monospace;
  }
  .nodelabel {
    text-anchor: middle;
  }
  .inputPortLabel {
    text-anchor: end;
  }
  .splitjoinBody {
    fill:#000;
  }</style>
  <g s:type="generic" transform="translate(96,66.5)" s:width="30" s:height="40" id="cell_inst_1_0">
    <text x="15" y="-4" class="nodelabel cell_inst_1_0" s:attribute="ref">inst_1_0</text>
    <rect width="30" height="40" s:generic="body" class="cell_inst_1_0"/>
    <g transform="translate(0,10)" s:x="0" s:y="10" s:pid="in0" id="port_inst_1_0~in0">
      <text x="-3" y="-4" class="inputPortLabel cell_inst_1_0">in0</text>
    </g>
    <g transform="translate(0,30)" s:x="0" s:y="10" s:pid="in0" id="port_inst_1_0~in1">
      <text x="-3" y="-4" class="inputPortLabel cell_inst_1_0">in1</text>
    </g>
    <g transform="translate(30,10)" s:x="30" s:y="10" s:pid="out0" id="port_inst_1_0~out">
      <text x="5" y="-4" style="fill:#000; stroke:none" class="cell_inst_1_0">out</text>
    </g>
  </g>
  <g s:type="generic" transform="translate(200,66.5)" s:width="30" s:height="40" id="cell_inst_1_1">
    <text x="15" y="-4" class="nodelabel cell_inst_1_1" s:attribute="ref">inst_1_1</text>
    <rect width="30" height="40" s:generic="body" class="cell_inst_1_1"/>
    <g transform="translate(0,10)" s:x="0" s:y="10" s:pid="in0" id="port_inst_1_1~in0">
      <text x="-3" y="-4" class="inputPortLabel cell_inst_1_1">in0</text>
    </g>
    <g transform="translate(0,30)" s:x="0" s:y="10" s:pid="in0" id="port_inst_1_1~in1">
      <text x="-3" y="-4" class="inputPortLabel cell_inst_1_1">in1</text>
    </g>
    <g transform="translate(30,10)" s:x="30" s:y="10" s:pid="out0" id="port_inst_1_1~out">
      <text x="5" y="-4" style="fill:#000; stroke:none" class="cell_inst_1_1">out</text>
    </g>
  </g>
  <g s:type="inputExt" transform="translate(12,22)" s:width="30" s:height="20" id="cell_in0">
    <text x="15" y="-4" class="nodelabel cell_in0" s:attribute="ref">in0</text>
    <s:alias val="$_inputExt_"/>
    <path d="M0,0 L0,20 L15,20 L30,10 L15,0 Z" class="cell_in0"/>
    <g s:x="28" s:y="10" s:pid="Y"/>
  </g>
  <g s:type="inputExt" transform="translate(12,87)" s:width="30" s:height="20" id="cell_in1">
    <text x="15" y="-4" class="nodelabel cell_in1" s:attribute="ref">in1</text>
    <s:alias val="$_inputExt_"/>
    <path d="M0,0 L0,20 L15,20 L30,10 L15,0 Z" class="cell_in1"/>
    <g s:x="28" s:y="10" s:pid="Y"/>
  </g>
  <g s:type="outputExt" transform="translate(285,67)" s:width="30" s:height="20" id="cell_out0">
    <text x="15" y="-4" class="nodelabel cell_out0" s:attribute="ref">out0</text>
    <s:alias val="$_outputExt_"/>
    <path d="M30,0 L30,20 L15,20 L0,10 L15,0 Z" class="cell_out0"/>
    <g s:x="0" s:y="10" s:pid="A"/>
  </g>
  <line x1="40" x2="52" y1="32" y2="32" class="net_2"/>
  <line x1="52" x2="52" y1="32" y2="77" class="net_2"/>
  <circle cx="52" cy="32" r="2" style="fill:#000" class="net_2"/>
  <line x1="52" x2="96" y1="77" y2="77" class="net_2"/>
  <line x1="40" x2="156" y1="32" y2="32" class="net_2"/>
  <line x1="156" x2="156" y1="32" y2="97" class="net_2"/>
  <line x1="156" x2="200" y1="97" y2="97" class="net_2"/>
  <line x1="40" x2="96" y1="97" y2="97" class="net_3"/>
  <line x1="127" x2="200" y1="77" y2="77" class="net_5"/>
  <line x1="231" x2="285" y1="77" y2="77" class="net_4"/>
</svg>
