<svg xmlns="http://www.w3.org/2000/svg" xmlns:xlink="http://www.w3.org/1999/xlink" xmlns:s="https://github.com/nturley/netlistsvg" width="958" height="596"><style>    svg {
    stroke:green;
    fill:none;
    }
    text {
    fill:blue;
    stroke:none;
    font-size:10px;
    font-weight: bold;
    font-family: "Courier New", monospace;
    }
    line {
    stroke-linecap: round;
    }
    .nodelabel {
    text-anchor: middle;
    }
    .inputPortLabel {
    text-anchor: end;
    }
    .splitjoinBody {
    fill:green;
    }</style><g s:type="generic" transform="translate(556,202)" s:width="30" s:height="40" id="cell_mux2_1_2_OOOOOOO_inst"><text x="15" y="-4" class="nodelabel cell_mux2_1_2_OOOOOOO_inst" s:attribute="ref">mux2_1_2_OOOOOOO_inst</text><rect width="30" height="60" s:generic="body" fill="#ffffff" rx="0" class="cell_mux2_1_2_OOOOOOO_inst"/><g transform="translate(0,10)" s:x="0" s:y="10" s:pid="in0" id="port_mux2_1_2_OOOOOOO_inst~IN0"><text x="-3" y="-4" class="inputPortLabel cell_mux2_1_2_OOOOOOO_inst">IN0</text></g><g transform="translate(0,30)" s:x="0" s:y="10" s:pid="in0" id="port_mux2_1_2_OOOOOOO_inst~IN1"><text x="-3" y="-4" class="inputPortLabel cell_mux2_1_2_OOOOOOO_inst">IN1</text></g><g transform="translate(0,50)" s:x="0" s:y="10" s:pid="in0" id="port_mux2_1_2_OOOOOOO_inst~SEL"><text x="-3" y="-4" class="inputPortLabel cell_mux2_1_2_OOOOOOO_inst">SEL</text></g><g transform="translate(30,10)" s:x="30" s:y="10" s:pid="out0" id="port_mux2_1_2_OOOOOOO_inst~OUT"><text x="5" y="-4" style="stroke:none" class="cell_mux2_1_2_OOOOOOO_inst">OUT</text></g></g><g s:type="generic" transform="translate(556,381.5)" s:width="30" s:height="40" id="cell_mux2_3_0_OOOOOOO_inst"><text x="15" y="-4" class="nodelabel cell_mux2_3_0_OOOOOOO_inst" s:attribute="ref">mux2_3_0_OOOOOOO_inst</text><rect width="30" height="60" s:generic="body" fill="#ffffff" rx="0" class="cell_mux2_3_0_OOOOOOO_inst"/><g transform="translate(0,10)" s:x="0" s:y="10" s:pid="in0" id="port_mux2_3_0_OOOOOOO_inst~IN0"><text x="-3" y="-4" class="inputPortLabel cell_mux2_3_0_OOOOOOO_inst">IN0</text></g><g transform="translate(0,30)" s:x="0" s:y="10" s:pid="in0" id="port_mux2_3_0_OOOOOOO_inst~IN1"><text x="-3" y="-4" class="inputPortLabel cell_mux2_3_0_OOOOOOO_inst">IN1</text></g><g transform="translate(0,50)" s:x="0" s:y="10" s:pid="in0" id="port_mux2_3_0_OOOOOOO_inst~SEL"><text x="-3" y="-4" class="inputPortLabel cell_mux2_3_0_OOOOOOO_inst">SEL</text></g><g transform="translate(30,10)" s:x="30" s:y="10" s:pid="out0" id="port_mux2_3_0_OOOOOOO_inst~OUT"><text x="5" y="-4" style="stroke:none" class="cell_mux2_3_0_OOOOOOO_inst">OUT</text></g></g><g s:type="generic" transform="translate(737,381.5)" s:width="30" s:height="40" id="cell_mux2_4_0_OOOOOOO_inst"><text x="15" y="-4" class="nodelabel cell_mux2_4_0_OOOOOOO_inst" s:attribute="ref">mux2_4_0_OOOOOOO_inst</text><rect width="30" height="60" s:generic="body" fill="#ffffff" rx="0" class="cell_mux2_4_0_OOOOOOO_inst"/><g transform="translate(0,10)" s:x="0" s:y="10" s:pid="in0" id="port_mux2_4_0_OOOOOOO_inst~IN0"><text x="-3" y="-4" class="inputPortLabel cell_mux2_4_0_OOOOOOO_inst">IN0</text></g><g transform="translate(0,30)" s:x="0" s:y="10" s:pid="in0" id="port_mux2_4_0_OOOOOOO_inst~IN1"><text x="-3" y="-4" class="inputPortLabel cell_mux2_4_0_OOOOOOO_inst">IN1</text></g><g transform="translate(0,50)" s:x="0" s:y="10" s:pid="in0" id="port_mux2_4_0_OOOOOOO_inst~SEL"><text x="-3" y="-4" class="inputPortLabel cell_mux2_4_0_OOOOOOO_inst">SEL</text></g><g transform="translate(30,10)" s:x="30" s:y="10" s:pid="out0" id="port_mux2_4_0_OOOOOOO_inst~OUT"><text x="5" y="-4" style="stroke:none" class="cell_mux2_4_0_OOOOOOO_inst">OUT</text></g></g><g s:type="generic" transform="translate(109,66.5)" s:width="30" s:height="40" id="cell_mux2to1"><text x="15" y="-4" class="nodelabel cell_mux2to1" s:attribute="ref">mux2to1</text><rect width="30" height="60" s:generic="body" fill="#ffffff" rx="0" class="cell_mux2to1"/><g transform="translate(0,10)" s:x="0" s:y="10" s:pid="in0" id="port_mux2to1~IN0"><text x="-3" y="-4" class="inputPortLabel cell_mux2to1">IN0</text></g><g transform="translate(0,30)" s:x="0" s:y="10" s:pid="in0" id="port_mux2to1~IN1"><text x="-3" y="-4" class="inputPortLabel cell_mux2to1">IN1</text></g><g transform="translate(0,50)" s:x="0" s:y="10" s:pid="in0" id="port_mux2to1~SEL"><text x="-3" y="-4" class="inputPortLabel cell_mux2to1">SEL</text></g><g transform="translate(30,10)" s:x="30" s:y="10" s:pid="out0" id="port_mux2to1~OUT"><text x="5" y="-4" style="stroke:none" class="cell_mux2to1">OUT</text></g></g><g s:type="generic" transform="translate(375,253.5)" s:width="30" s:height="40" id="cell_mux4_1_0_OOOOOOO_inst"><text x="15" y="-4" class="nodelabel cell_mux4_1_0_OOOOOOO_inst" s:attribute="ref">mux4_1_0_OOOOOOO_inst</text><rect width="30" height="100" s:generic="body" fill="#ffffff" rx="0" class="cell_mux4_1_0_OOOOOOO_inst"/><g transform="translate(0,10)" s:x="0" s:y="10" s:pid="in0" id="port_mux4_1_0_OOOOOOO_inst~IN0"><text x="-3" y="-4" class="inputPortLabel cell_mux4_1_0_OOOOOOO_inst">IN0</text></g><g transform="translate(0,30)" s:x="0" s:y="10" s:pid="in0" id="port_mux4_1_0_OOOOOOO_inst~IN1"><text x="-3" y="-4" class="inputPortLabel cell_mux4_1_0_OOOOOOO_inst">IN1</text></g><g transform="translate(0,50)" s:x="0" s:y="10" s:pid="in0" id="port_mux4_1_0_OOOOOOO_inst~IN2"><text x="-3" y="-4" class="inputPortLabel cell_mux4_1_0_OOOOOOO_inst">IN2</text></g><g transform="translate(0,70)" s:x="0" s:y="10" s:pid="in0" id="port_mux4_1_0_OOOOOOO_inst~IN3"><text x="-3" y="-4" class="inputPortLabel cell_mux4_1_0_OOOOOOO_inst">IN3</text></g><g transform="translate(0,90)" s:x="0" s:y="10" s:pid="in0" id="port_mux4_1_0_OOOOOOO_inst~SEL"><text x="-3" y="-4" class="inputPortLabel cell_mux4_1_0_OOOOOOO_inst">SEL</text></g><g transform="translate(30,10)" s:x="30" s:y="10" s:pid="out0" id="port_mux4_1_0_OOOOOOO_inst~OUT"><text x="5" y="-4" style="stroke:none" class="cell_mux4_1_0_OOOOOOO_inst">OUT</text></g></g><g s:type="generic" transform="translate(375,401.5)" s:width="30" s:height="40" id="cell_mux4_1_1_OOOOOOO_inst"><text x="15" y="-4" class="nodelabel cell_mux4_1_1_OOOOOOO_inst" s:attribute="ref">mux4_1_1_OOOOOOO_inst</text><rect width="30" height="100" s:generic="body" fill="#ffffff" rx="0" class="cell_mux4_1_1_OOOOOOO_inst"/><g transform="translate(0,10)" s:x="0" s:y="10" s:pid="in0" id="port_mux4_1_1_OOOOOOO_inst~IN0"><text x="-3" y="-4" class="inputPortLabel cell_mux4_1_1_OOOOOOO_inst">IN0</text></g><g transform="translate(0,30)" s:x="0" s:y="10" s:pid="in0" id="port_mux4_1_1_OOOOOOO_inst~IN1"><text x="-3" y="-4" class="inputPortLabel cell_mux4_1_1_OOOOOOO_inst">IN1</text></g><g transform="translate(0,50)" s:x="0" s:y="10" s:pid="in0" id="port_mux4_1_1_OOOOOOO_inst~IN2"><text x="-3" y="-4" class="inputPortLabel cell_mux4_1_1_OOOOOOO_inst">IN2</text></g><g transform="translate(0,70)" s:x="0" s:y="10" s:pid="in0" id="port_mux4_1_1_OOOOOOO_inst~IN3"><text x="-3" y="-4" class="inputPortLabel cell_mux4_1_1_OOOOOOO_inst">IN3</text></g><g transform="translate(0,90)" s:x="0" s:y="10" s:pid="in0" id="port_mux4_1_1_OOOOOOO_inst~SEL"><text x="-3" y="-4" class="inputPortLabel cell_mux4_1_1_OOOOOOO_inst">SEL</text></g><g transform="translate(30,10)" s:x="30" s:y="10" s:pid="out0" id="port_mux4_1_1_OOOOOOO_inst~OUT"><text x="5" y="-4" style="stroke:none" class="cell_mux4_1_1_OOOOOOO_inst">OUT</text></g></g><g s:type="inputExt" transform="translate(12,22)" s:width="30" s:height="20" id="cell_top_in0"><text x="15" y="-4" class="nodelabel cell_top_in0" s:attribute="ref">top_in0</text><s:alias val="$_inputExt_"/><path d="M0,0 L0,20 L15,20 L30,10 L15,0 Z" fill="#ffffff" class="cell_top_in0"/><g s:x="30" s:y="10" s:pid="Y"/></g><g s:type="inputExt" transform="translate(12,87)" s:width="30" s:height="20" id="cell_top_in1"><text x="15" y="-4" class="nodelabel cell_top_in1" s:attribute="ref">top_in1</text><s:alias val="$_inputExt_"/><path d="M0,0 L0,20 L15,20 L30,10 L15,0 Z" fill="#ffffff" class="cell_top_in1"/><g s:x="30" s:y="10" s:pid="Y"/></g><g s:type="inputExt" transform="translate(12,152)" s:width="30" s:height="20" id="cell_top_sel"><text x="15" y="-4" class="nodelabel cell_top_sel" s:attribute="ref">top_sel</text><s:alias val="$_inputExt_"/><path d="M0,0 L0,20 L15,20 L30,10 L15,0 Z" fill="#ffffff" class="cell_top_sel"/><g s:x="30" s:y="10" s:pid="Y"/></g><g s:type="outputExt" transform="translate(194,67)" s:width="30" s:height="20" id="cell_top_out"><text x="15" y="-4" class="nodelabel cell_top_out" s:attribute="ref">top_out</text><s:alias val="$_outputExt_"/><path d="M30,0 L30,20 L15,20 L0,10 L15,0 Z" fill="#ffffff" class="cell_top_out"/><g s:x="0" s:y="10" s:pid="A"/></g><g s:type="inputExt" transform="translate(113,372)" s:width="30" s:height="20" id="cell_input_bus"><text x="15" y="-4" class="nodelabel cell_input_bus" s:attribute="ref">input_bus</text><s:alias val="$_inputExt_"/><path d="M0,0 L0,20 L15,20 L30,10 L15,0 Z" fill="#ffffff" class="cell_input_bus"/><g s:x="30" s:y="10" s:pid="Y"/></g><g s:type="outputExt" transform="translate(898,382)" s:width="30" s:height="20" id="cell_top_out2"><text x="15" y="-4" class="nodelabel cell_top_out2" s:attribute="ref">top_out2</text><s:alias val="$_outputExt_"/><path d="M30,0 L30,20 L15,20 L0,10 L15,0 Z" fill="#ffffff" class="cell_top_out2"/><g s:x="0" s:y="10" s:pid="A"/></g><g s:type="inputExt" transform="translate(12,534.5)" s:width="30" s:height="20" id="cell_top_select2"><text x="15" y="-4" class="nodelabel cell_top_select2" s:attribute="ref">top_select2</text><s:alias val="$_inputExt_"/><path d="M0,0 L0,20 L15,20 L30,10 L15,0 Z" fill="#ffffff" class="cell_top_select2"/><g s:x="30" s:y="10" s:pid="Y"/></g><g s:type="split" transform="translate(252,281.5)" s:width="5" s:height="40" id="cell_$split$,6,7,8,9,10,11,12,13,14,15,"><rect width="5" height="200" class="splitjoinBody" s:generic="body"/><s:alias val="$_split_"/><g s:x="-1" s:y="20" s:pid="in"/><g transform="translate(5,10)" s:x="5" s:y="10" s:pid="out0"><text x="5" y="-4">8</text></g><g transform="translate(5,30)" s:x="5" s:y="10" s:pid="out0"><text x="5" y="-4">9</text></g><g transform="translate(5,50)" s:x="5" s:y="10" s:pid="out0"><text x="5" y="-4">0</text></g><g transform="translate(5,70)" s:x="5" s:y="10" s:pid="out0"><text x="5" y="-4">1</text></g><g transform="translate(5,90)" s:x="5" s:y="10" s:pid="out0"><text x="5" y="-4">2</text></g><g transform="translate(5,110)" s:x="5" s:y="10" s:pid="out0"><text x="5" y="-4">3</text></g><g transform="translate(5,130)" s:x="5" s:y="10" s:pid="out0"><text x="5" y="-4">4</text></g><g transform="translate(5,150)" s:x="5" s:y="10" s:pid="out0"><text x="5" y="-4">5</text></g><g transform="translate(5,170)" s:x="5" s:y="10" s:pid="out0"><text x="5" y="-4">6</text></g><g transform="translate(5,190)" s:x="5" s:y="10" s:pid="out0"><text x="5" y="-4">7</text></g></g><g s:type="split" transform="translate(203,504)" s:width="5" s:height="40" id="cell_$split$,17,18,19,20,"><rect width="5" height="80" class="splitjoinBody" s:generic="body"/><s:alias val="$_split_"/><g s:x="-1" s:y="20" s:pid="in"/><g transform="translate(5,10)" s:x="5" s:y="10" s:pid="out0"><text x="5" y="-4">0</text></g><g transform="translate(5,30)" s:x="5" s:y="10" s:pid="out0"><text x="5" y="-4">2</text></g><g transform="translate(5,50)" s:x="5" s:y="10" s:pid="out0"><text x="5" y="-4">3</text></g><g transform="translate(5,70)" s:x="5" s:y="10" s:pid="out0"><text x="5" y="-4">0:1</text></g></g><line x1="258" x2="275" y1="292" y2="292" class="net_14 width_1" style="stroke-width: 1"/><line x1="275" x2="275" y1="292" y2="221.5" class="net_14 width_1" style="stroke-width: 1"/><line x1="275" x2="511" y1="221.5" y2="221.5" class="net_14 width_1" style="stroke-width: 1"/><line x1="511" x2="511" y1="221.5" y2="212.5" class="net_14 width_1" style="stroke-width: 1"/><line x1="511" x2="556" y1="212.5" y2="212.5" class="net_14 width_1" style="stroke-width: 1"/><line x1="258" x2="285" y1="312" y2="312" class="net_15 width_1" style="stroke-width: 1"/><line x1="285" x2="285" y1="312" y2="232.5" class="net_15 width_1" style="stroke-width: 1"/><line x1="285" x2="555" y1="232.5" y2="232.5" class="net_15 width_1" style="stroke-width: 1"/><line x1="209" x2="511" y1="514.5" y2="514.5" class="net_17 width_1" style="stroke-width: 1"/><line x1="511" x2="511" y1="514.5" y2="252.5" class="net_17 width_1" style="stroke-width: 1"/><line x1="511" x2="555" y1="252.5" y2="252.5" class="net_17 width_1" style="stroke-width: 1"/><line x1="406" x2="521" y1="264" y2="264" class="net_22 width_1" style="stroke-width: 1"/><line x1="521" x2="521" y1="264" y2="392" class="net_22 width_1" style="stroke-width: 1"/><line x1="521" x2="556" y1="392" y2="392" class="net_22 width_1" style="stroke-width: 1"/><line x1="406" x2="555" y1="412" y2="412" class="net_23 width_1" style="stroke-width: 1"/><line x1="209" x2="226" y1="534.5" y2="534.5" class="net_19 width_1" style="stroke-width: 1"/><line x1="226" x2="226" y1="534.5" y2="528.5" class="net_19 width_1" style="stroke-width: 1"/><line x1="226" x2="521" y1="528.5" y2="528.5" class="net_19 width_1" style="stroke-width: 1"/><line x1="521" x2="521" y1="528.5" y2="432" class="net_19 width_1" style="stroke-width: 1"/><line x1="521" x2="555" y1="432" y2="432" class="net_19 width_1" style="stroke-width: 1"/><line x1="587" x2="737" y1="392" y2="392" class="net_24 width_1" style="stroke-width: 1"/><line x1="587" x2="692" y1="212.5" y2="212.5" class="net_21 width_1" style="stroke-width: 1"/><line x1="692" x2="692" y1="212.5" y2="412" class="net_21 width_1" style="stroke-width: 1"/><line x1="692" x2="736" y1="412" y2="412" class="net_21 width_1" style="stroke-width: 1"/><line x1="209" x2="226" y1="554.5" y2="554.5" class="net_20 width_1" style="stroke-width: 1"/><line x1="226" x2="226" y1="554.5" y2="539.5" class="net_20 width_1" style="stroke-width: 1"/><line x1="226" x2="692" y1="539.5" y2="539.5" class="net_20 width_1" style="stroke-width: 1"/><line x1="692" x2="692" y1="539.5" y2="432" class="net_20 width_1" style="stroke-width: 1"/><line x1="692" x2="736" y1="432" y2="432" class="net_20 width_1" style="stroke-width: 1"/><line x1="42" x2="64" y1="32" y2="32" class="net_2 width_1" style="stroke-width: 1"/><line x1="64" x2="64" y1="32" y2="77" class="net_2 width_1" style="stroke-width: 1"/><line x1="64" x2="109" y1="77" y2="77" class="net_2 width_1" style="stroke-width: 1"/><line x1="42" x2="108" y1="97" y2="97" class="net_3 width_1" style="stroke-width: 1"/><line x1="42" x2="64" y1="162" y2="162" class="net_4 width_1" style="stroke-width: 1"/><line x1="64" x2="64" y1="162" y2="117" class="net_4 width_1" style="stroke-width: 1"/><line x1="64" x2="108" y1="117" y2="117" class="net_4 width_1" style="stroke-width: 1"/><line x1="258" x2="295" y1="332" y2="332" class="net_6 width_1" style="stroke-width: 1"/><line x1="295" x2="295" y1="332" y2="264" class="net_6 width_1" style="stroke-width: 1"/><line x1="295" x2="375" y1="264" y2="264" class="net_6 width_1" style="stroke-width: 1"/><line x1="258" x2="305" y1="352" y2="352" class="net_7 width_1" style="stroke-width: 1"/><line x1="305" x2="305" y1="352" y2="284" class="net_7 width_1" style="stroke-width: 1"/><line x1="305" x2="374" y1="284" y2="284" class="net_7 width_1" style="stroke-width: 1"/><line x1="258" x2="315" y1="372" y2="372" class="net_8 width_1" style="stroke-width: 1"/><line x1="315" x2="315" y1="372" y2="304" class="net_8 width_1" style="stroke-width: 1"/><line x1="315" x2="374" y1="304" y2="304" class="net_8 width_1" style="stroke-width: 1"/><line x1="258" x2="325" y1="392" y2="392" class="net_9 width_1" style="stroke-width: 1"/><line x1="325" x2="325" y1="392" y2="324" class="net_9 width_1" style="stroke-width: 1"/><line x1="325" x2="374" y1="324" y2="324" class="net_9 width_1" style="stroke-width: 1"/><line x1="209" x2="236" y1="574.5" y2="574.5" class="net_17,18 width_2" style="stroke-width: 2"/><line x1="236" x2="236" y1="574.5" y2="554.5" class="net_17,18 width_2" style="stroke-width: 2"/><line x1="236" x2="335" y1="554.5" y2="554.5" class="net_17,18 width_2" style="stroke-width: 2"/><line x1="335" x2="335" y1="554.5" y2="344" class="net_17,18 width_2" style="stroke-width: 2"/><circle cx="236" cy="574.5" r="3" style="fill:#000" class="net_17,18 width_2"/><line x1="335" x2="374" y1="344" y2="344" class="net_17,18 width_2" style="stroke-width: 2"/><line x1="209" x2="345" y1="574.5" y2="574.5" class="net_17,18 width_2" style="stroke-width: 2"/><line x1="345" x2="345" y1="574.5" y2="492" class="net_17,18 width_2" style="stroke-width: 2"/><line x1="345" x2="374" y1="492" y2="492" class="net_17,18 width_2" style="stroke-width: 2"/><line x1="258" x2="375" y1="412" y2="412" class="net_10 width_1" style="stroke-width: 1"/><line x1="258" x2="374" y1="432" y2="432" class="net_11 width_1" style="stroke-width: 1"/><line x1="258" x2="374" y1="452" y2="452" class="net_12 width_1" style="stroke-width: 1"/><line x1="258" x2="374" y1="472" y2="472" class="net_13 width_1" style="stroke-width: 1"/><line x1="140" x2="194" y1="77" y2="77" class="net_5 width_1" style="stroke-width: 1"/><line x1="768" x2="898" y1="392" y2="392" class="net_16 width_1" style="stroke-width: 1"/><line x1="143" x2="251" y1="382" y2="382" class="net_6,7,8,9,10,11,12,13,14,15 width_10" style="stroke-width: 2"/><line x1="42" x2="202" y1="544.5" y2="544.5" class="net_17,18,19,20 width_4" style="stroke-width: 2"/><rect x="257" y="569.5" width="16" height="9" class="net_17,18 width_2 busLabel_2" style="fill: white; stroke: none"/><text x="256" y="577.5" class="net_17,18 width_2 busLabel_2">/2/</text><rect x="257" y="569.5" width="16" height="9" class="net_17,18 width_2 busLabel_2" style="fill: white; stroke: none"/><text x="256" y="577.5" class="net_17,18 width_2 busLabel_2">/2/</text><rect x="208" y="377" width="22" height="9" class="net_6,7,8,9,10,11,12,13,14,15 width_10 busLabel_10" style="fill: white; stroke: none"/><text x="207" y="385" class="net_6,7,8,9,10,11,12,13,14,15 width_10 busLabel_10">/10/</text><rect x="139" y="539.5" width="16" height="9" class="net_17,18,19,20 width_4 busLabel_4" style="fill: white; stroke: none"/><text x="138" y="547.5" class="net_17,18,19,20 width_4 busLabel_4">/4/</text></svg>