<?xml version="1.0" encoding="utf-8" ?>
<svg xmlns="http://www.w3.org/2000/svg" xmlns:ev="http://www.w3.org/2001/xml-events" xmlns:xlink="http://www.w3.org/1999/xlink" baseProfile="full" height="1200" style="background:#F0F0F0" version="1.1" viewBox="-50,-1150,1200,1200" width="1200">
    <defs>
        <style type="text/css"><![CDATA[
            .origin{fill:black}
            .grid_boundary{stroke-width: 1; stroke: grey; fill:lightgrey}
            ]]></style>
    </defs>
    <g id="background" transform="scale(1,-1)">
        <rect class="grid_boundary" height="1000" transform="scale(1,-1)" width="1000" x="50" y="50"/>
        <rect class="origin" height="10" width="10" x="0" y="0"/>
    </g>
    <g id="mainShapes" transform="scale(1,-1)">
        <line class="marker" stroke="red" stroke-width="1" x1="50" x2="1050" y1="50" y2="50"/>
        <line class="marker" stroke="red" stroke-width="1" x1="50" x2="1050" y1="250" y2="250"/>
        <line class="marker" stroke="red" stroke-width="1" x1="50" x2="1050" y1="350" y2="350"/>
        <line class="marker" stroke="red" stroke-width="1" x1="50" x2="1050" y1="450" y2="450"/>
        <line class="marker" stroke="red" stroke-width="1" x1="50" x2="1050" y1="550" y2="550"/>
        <line class="marker" stroke="red" stroke-width="1" x1="50" x2="1050" y1="650" y2="650"/>
        <line class="marker" stroke="red" stroke-width="1" x1="50" x2="1050" y1="750" y2="750"/>
        <line class="marker" stroke="red" stroke-width="1" x1="50" x2="1050" y1="850" y2="850"/>
        <line class="marker" stroke="red" stroke-width="1" x1="50" x2="1050" y1="1050" y2="1050"/>
        <line class="marker" stroke="red" stroke-width="1" x1="50" x2="50" y1="50" y2="1050"/>
        <line class="marker" stroke="red" stroke-width="1" x1="250" x2="250" y1="50" y2="1050"/>
        <line class="marker" stroke="red" stroke-width="1" x1="350" x2="350" y1="50" y2="1050"/>
        <line class="marker" stroke="red" stroke-width="1" x1="450" x2="450" y1="50" y2="1050"/>
        <line class="marker" stroke="red" stroke-width="1" x1="550" x2="550" y1="50" y2="1050"/>
        <line class="marker" stroke="red" stroke-width="1" x1="650" x2="650" y1="50" y2="1050"/>
        <line class="marker" stroke="red" stroke-width="1" x1="750" x2="750" y1="50" y2="1050"/>
        <line class="marker" stroke="red" stroke-width="1" x1="850" x2="850" y1="50" y2="1050"/>
        <line class="marker" stroke="red" stroke-width="1" x1="1050" x2="1050" y1="50" y2="1050"/>
    </g>
</svg>
