<svg xmlns="http://www.w3.org/2000/svg" xmlns:xlink="http://www.w3.org/1999/xlink" xmlns:s="https://github.com/nturley/netlistsvg" width="918" height="556.1666666666667"><style>    svg {
    stroke:green;
    fill:none;
    }
    text {
    fill:blue;
    stroke:none;
    font-size:10px;
    font-weight: bold;
    font-family: "Courier New", monospace;
    }
    line {
    stroke-linecap: round;
    }
    .nodelabel {
    text-anchor: middle;
    }
    .inputPortLabel {
    text-anchor: end;
    }
    .splitjoinBody {
    fill:green;
    }</style><g s:type="sub_odd" transform="translate(516,224.75)" s:width="30" s:height="40" id="cell_mux2_1_2_OOOOOOO_inst"><text x="0" y="-4" class="nodelabel cell_mux2_1_2_OOOOOOO_inst" s:attribute="ref">mux2_1_2_OOOOOOO_inst</text><rect width="0" height="0" s:generic="body" fill="#e9e9e9" rx="4" class="cell_mux2_1_2_OOOOOOO_inst"/><g transform="translate(-1,-0.5)" s:x="0" s:y="10" s:pid="in0" id="port_mux2_1_2_OOOOOOO_inst~IN0"><text x="-3" y="-4" class="inputPortLabel cell_mux2_1_2_OOOOOOO_inst">IN0</text></g><g transform="translate(-1,-0.25)" s:x="0" s:y="10" s:pid="in0" id="port_mux2_1_2_OOOOOOO_inst~IN1"><text x="-3" y="-4" class="inputPortLabel cell_mux2_1_2_OOOOOOO_inst">IN1</text></g><g transform="translate(-1,-0.75)" s:x="0" s:y="10" s:pid="in0" id="port_mux2_1_2_OOOOOOO_inst~SEL"><text x="-3" y="-4" class="inputPortLabel cell_mux2_1_2_OOOOOOO_inst">SEL</text></g><g transform="translate(0,0)" s:x="30" s:y="10" s:pid="out0" id="port_mux2_1_2_OOOOOOO_inst~OUT"><text x="5" y="-4" style="stroke:none" class="cell_mux2_1_2_OOOOOOO_inst">OUT</text></g></g><g s:type="sub_odd" transform="translate(516,530.9166666666667)" s:width="30" s:height="40" id="cell_mux2_3_0_OOOOOOO_inst"><text x="0" y="-4" class="nodelabel cell_mux2_3_0_OOOOOOO_inst" s:attribute="ref">mux2_3_0_OOOOOOO_inst</text><rect width="0" height="0" s:generic="body" fill="#e9e9e9" rx="4" class="cell_mux2_3_0_OOOOOOO_inst"/><g transform="translate(-1,-0.5)" s:x="0" s:y="10" s:pid="in0" id="port_mux2_3_0_OOOOOOO_inst~IN0"><text x="-3" y="-4" class="inputPortLabel cell_mux2_3_0_OOOOOOO_inst">IN0</text></g><g transform="translate(-1,-0.25)" s:x="0" s:y="10" s:pid="in0" id="port_mux2_3_0_OOOOOOO_inst~IN1"><text x="-3" y="-4" class="inputPortLabel cell_mux2_3_0_OOOOOOO_inst">IN1</text></g><g transform="translate(-1,-0.75)" s:x="0" s:y="10" s:pid="in0" id="port_mux2_3_0_OOOOOOO_inst~SEL"><text x="-3" y="-4" class="inputPortLabel cell_mux2_3_0_OOOOOOO_inst">SEL</text></g><g transform="translate(0,0)" s:x="30" s:y="10" s:pid="out0" id="port_mux2_3_0_OOOOOOO_inst~OUT"><text x="5" y="-4" style="stroke:none" class="cell_mux2_3_0_OOOOOOO_inst">OUT</text></g></g><g s:type="sub_odd" transform="translate(697,531.1666666666667)" s:width="30" s:height="40" id="cell_mux2_4_0_OOOOOOO_inst"><text x="0" y="-4" class="nodelabel cell_mux2_4_0_OOOOOOO_inst" s:attribute="ref">mux2_4_0_OOOOOOO_inst</text><rect width="0" height="0" s:generic="body" fill="#e9e9e9" rx="4" class="cell_mux2_4_0_OOOOOOO_inst"/><g transform="translate(-1,-0.25)" s:x="0" s:y="10" s:pid="in0" id="port_mux2_4_0_OOOOOOO_inst~IN0"><text x="-3" y="-4" class="inputPortLabel cell_mux2_4_0_OOOOOOO_inst">IN0</text></g><g transform="translate(-1,-0.5)" s:x="0" s:y="10" s:pid="in0" id="port_mux2_4_0_OOOOOOO_inst~IN1"><text x="-3" y="-4" class="inputPortLabel cell_mux2_4_0_OOOOOOO_inst">IN1</text></g><g transform="translate(-1,-0.75)" s:x="0" s:y="10" s:pid="in0" id="port_mux2_4_0_OOOOOOO_inst~SEL"><text x="-3" y="-4" class="inputPortLabel cell_mux2_4_0_OOOOOOO_inst">SEL</text></g><g transform="translate(0,0)" s:x="30" s:y="10" s:pid="out0" id="port_mux2_4_0_OOOOOOO_inst~OUT"><text x="5" y="-4" style="stroke:none" class="cell_mux2_4_0_OOOOOOO_inst">OUT</text></g></g><g s:type="sub_odd" transform="translate(109,97)" s:width="30" s:height="40" id="cell_mux2to1"><text x="0" y="-4" class="nodelabel cell_mux2to1" s:attribute="ref">mux2to1</text><rect width="0" height="0" s:generic="body" fill="#e9e9e9" rx="4" class="cell_mux2to1"/><g transform="translate(-1,-0.75)" s:x="0" s:y="10" s:pid="in0" id="port_mux2to1~IN0"><text x="-3" y="-4" class="inputPortLabel cell_mux2to1">IN0</text></g><g transform="translate(-1,-0.25)" s:x="0" s:y="10" s:pid="in0" id="port_mux2to1~IN1"><text x="-3" y="-4" class="inputPortLabel cell_mux2to1">IN1</text></g><g transform="translate(-1,-0.5)" s:x="0" s:y="10" s:pid="in0" id="port_mux2to1~SEL"><text x="-3" y="-4" class="inputPortLabel cell_mux2to1">SEL</text></g><g transform="translate(0,0)" s:x="30" s:y="10" s:pid="out0" id="port_mux2to1~OUT"><text x="5" y="-4" style="stroke:none" class="cell_mux2to1">OUT</text></g></g><g s:type="sub_odd" transform="translate(335,402.1666666666667)" s:width="30" s:height="40" id="cell_mux4_1_0_OOOOOOO_inst"><text x="0" y="-4" class="nodelabel cell_mux4_1_0_OOOOOOO_inst" s:attribute="ref">mux4_1_0_OOOOOOO_inst</text><rect width="0" height="0" s:generic="body" fill="#e9e9e9" rx="4" class="cell_mux4_1_0_OOOOOOO_inst"/><g transform="translate(-1,-0.6666666666666679)" s:x="0" s:y="10" s:pid="in0" id="port_mux4_1_0_OOOOOOO_inst~IN0"><text x="-3" y="-4" class="inputPortLabel cell_mux4_1_0_OOOOOOO_inst">IN0</text></g><g transform="translate(-1,-0.5000000000000018)" s:x="0" s:y="10" s:pid="in0" id="port_mux4_1_0_OOOOOOO_inst~IN1"><text x="-3" y="-4" class="inputPortLabel cell_mux4_1_0_OOOOOOO_inst">IN1</text></g><g transform="translate(-1,-0.3333333333333357)" s:x="0" s:y="10" s:pid="in0" id="port_mux4_1_0_OOOOOOO_inst~IN2"><text x="-3" y="-4" class="inputPortLabel cell_mux4_1_0_OOOOOOO_inst">IN2</text></g><g transform="translate(-1,-0.16666666666666963)" s:x="0" s:y="10" s:pid="in0" id="port_mux4_1_0_OOOOOOO_inst~IN3"><text x="-3" y="-4" class="inputPortLabel cell_mux4_1_0_OOOOOOO_inst">IN3</text></g><g transform="translate(-1,-0.8333333333333339)" s:x="0" s:y="10" s:pid="in0" id="port_mux4_1_0_OOOOOOO_inst~SEL"><text x="-3" y="-4" class="inputPortLabel cell_mux4_1_0_OOOOOOO_inst">SEL</text></g><g transform="translate(0,0)" s:x="30" s:y="10" s:pid="out0" id="port_mux4_1_0_OOOOOOO_inst~OUT"><text x="5" y="-4" style="stroke:none" class="cell_mux4_1_0_OOOOOOO_inst">OUT</text></g></g><g s:type="sub_odd" transform="translate(335,530.6666666666667)" s:width="30" s:height="40" id="cell_mux4_1_1_OOOOOOO_inst"><text x="0" y="-4" class="nodelabel cell_mux4_1_1_OOOOOOO_inst" s:attribute="ref">mux4_1_1_OOOOOOO_inst</text><rect width="0" height="0" s:generic="body" fill="#e9e9e9" rx="4" class="cell_mux4_1_1_OOOOOOO_inst"/><g transform="translate(-1,-0.8333333333333339)" s:x="0" s:y="10" s:pid="in0" id="port_mux4_1_1_OOOOOOO_inst~IN0"><text x="-3" y="-4" class="inputPortLabel cell_mux4_1_1_OOOOOOO_inst">IN0</text></g><g transform="translate(-1,-0.6666666666666679)" s:x="0" s:y="10" s:pid="in0" id="port_mux4_1_1_OOOOOOO_inst~IN1"><text x="-3" y="-4" class="inputPortLabel cell_mux4_1_1_OOOOOOO_inst">IN1</text></g><g transform="translate(-1,-0.5000000000000018)" s:x="0" s:y="10" s:pid="in0" id="port_mux4_1_1_OOOOOOO_inst~IN2"><text x="-3" y="-4" class="inputPortLabel cell_mux4_1_1_OOOOOOO_inst">IN2</text></g><g transform="translate(-1,-0.3333333333333357)" s:x="0" s:y="10" s:pid="in0" id="port_mux4_1_1_OOOOOOO_inst~IN3"><text x="-3" y="-4" class="inputPortLabel cell_mux4_1_1_OOOOOOO_inst">IN3</text></g><g transform="translate(-1,-0.16666666666666963)" s:x="0" s:y="10" s:pid="in0" id="port_mux4_1_1_OOOOOOO_inst~SEL"><text x="-3" y="-4" class="inputPortLabel cell_mux4_1_1_OOOOOOO_inst">SEL</text></g><g transform="translate(0,0)" s:x="30" s:y="10" s:pid="out0" id="port_mux4_1_1_OOOOOOO_inst~OUT"><text x="5" y="-4" style="stroke:none" class="cell_mux4_1_1_OOOOOOO_inst">OUT</text></g></g><g s:type="inputExt" transform="translate(12,22)" s:width="30" s:height="20" id="cell_top_in0"><text x="15" y="-4" class="nodelabel cell_top_in0" s:attribute="ref">top_in0</text><s:alias val="$_inputExt_"/><path d="M0,0 L0,20 L15,20 L30,10 L15,0 Z" fill="#ffffff" class="cell_top_in0"/><g s:x="30" s:y="10" s:pid="Y"/></g><g s:type="inputExt" transform="translate(12,152)" s:width="30" s:height="20" id="cell_top_in1"><text x="15" y="-4" class="nodelabel cell_top_in1" s:attribute="ref">top_in1</text><s:alias val="$_inputExt_"/><path d="M0,0 L0,20 L15,20 L30,10 L15,0 Z" fill="#ffffff" class="cell_top_in1"/><g s:x="30" s:y="10" s:pid="Y"/></g><g s:type="inputExt" transform="translate(12,87)" s:width="30" s:height="20" id="cell_top_sel"><text x="15" y="-4" class="nodelabel cell_top_sel" s:attribute="ref">top_sel</text><s:alias val="$_inputExt_"/><path d="M0,0 L0,20 L15,20 L30,10 L15,0 Z" fill="#ffffff" class="cell_top_sel"/><g s:x="30" s:y="10" s:pid="Y"/></g><g s:type="outputExt" transform="translate(186,87.5)" s:width="30" s:height="20" id="cell_top_out"><text x="15" y="-4" class="nodelabel cell_top_out" s:attribute="ref">top_out</text><s:alias val="$_outputExt_"/><path d="M30,0 L30,20 L15,20 L0,10 L15,0 Z" fill="#ffffff" class="cell_top_out"/><g s:x="0" s:y="10" s:pid="A"/></g><g s:type="inputExt" transform="translate(113,382.5)" s:width="30" s:height="20" id="cell_input_bus"><text x="15" y="-4" class="nodelabel cell_input_bus" s:attribute="ref">input_bus</text><s:alias val="$_inputExt_"/><path d="M0,0 L0,20 L15,20 L30,10 L15,0 Z" fill="#ffffff" class="cell_input_bus"/><g s:x="30" s:y="10" s:pid="Y"/></g><g s:type="outputExt" transform="translate(858,521.6666666666667)" s:width="30" s:height="20" id="cell_top_out2"><text x="15" y="-4" class="nodelabel cell_top_out2" s:attribute="ref">top_out2</text><s:alias val="$_outputExt_"/><path d="M30,0 L30,20 L15,20 L0,10 L15,0 Z" fill="#ffffff" class="cell_top_out2"/><g s:x="0" s:y="10" s:pid="A"/></g><g s:type="inputExt" transform="translate(12,236)" s:width="30" s:height="20" id="cell_top_select2"><text x="15" y="-4" class="nodelabel cell_top_select2" s:attribute="ref">top_select2</text><s:alias val="$_inputExt_"/><path d="M0,0 L0,20 L15,20 L30,10 L15,0 Z" fill="#ffffff" class="cell_top_select2"/><g s:x="30" s:y="10" s:pid="Y"/></g><g s:type="split" transform="translate(252,292)" s:width="5" s:height="40" id="cell_$split$,6,7,8,9,10,11,12,13,14,15,"><rect width="5" height="200" class="splitjoinBody" s:generic="body"/><s:alias val="$_split_"/><g s:x="-1" s:y="20" s:pid="in"/><g transform="translate(5,10)" s:x="5" s:y="10" s:pid="out0"><text x="5" y="-4">8</text></g><g transform="translate(5,30)" s:x="5" s:y="10" s:pid="out0"><text x="5" y="-4">9</text></g><g transform="translate(5,50)" s:x="5" s:y="10" s:pid="out0"><text x="5" y="-4">0</text></g><g transform="translate(5,70)" s:x="5" s:y="10" s:pid="out0"><text x="5" y="-4">1</text></g><g transform="translate(5,90)" s:x="5" s:y="10" s:pid="out0"><text x="5" y="-4">2</text></g><g transform="translate(5,110)" s:x="5" s:y="10" s:pid="out0"><text x="5" y="-4">3</text></g><g transform="translate(5,130)" s:x="5" s:y="10" s:pid="out0"><text x="5" y="-4">4</text></g><g transform="translate(5,150)" s:x="5" s:y="10" s:pid="out0"><text x="5" y="-4">5</text></g><g transform="translate(5,170)" s:x="5" s:y="10" s:pid="out0"><text x="5" y="-4">6</text></g><g transform="translate(5,190)" s:x="5" s:y="10" s:pid="out0"><text x="5" y="-4">7</text></g></g><g s:type="split" transform="translate(203,205.5)" s:width="5" s:height="40" id="cell_$split$,17,18,19,20,"><rect width="5" height="80" class="splitjoinBody" s:generic="body"/><s:alias val="$_split_"/><g s:x="-1" s:y="20" s:pid="in"/><g transform="translate(5,10)" s:x="5" s:y="10" s:pid="out0"><text x="5" y="-4">0</text></g><g transform="translate(5,30)" s:x="5" s:y="10" s:pid="out0"><text x="5" y="-4">2</text></g><g transform="translate(5,50)" s:x="5" s:y="10" s:pid="out0"><text x="5" y="-4">3</text></g><g transform="translate(5,70)" s:x="5" s:y="10" s:pid="out0"><text x="5" y="-4">0:1</text></g></g><line x1="258" x2="275" y1="302.5" y2="302.5" class="net_14 width_1" style="stroke-width: 1"/><line x1="275" x2="275" y1="302.5" y2="214" class="net_14 width_1" style="stroke-width: 1"/><line x1="275" x2="471" y1="214" y2="214" class="net_14 width_1" style="stroke-width: 1"/><line x1="471" x2="471" y1="214" y2="224.75" class="net_14 width_1" style="stroke-width: 1"/><line x1="471" x2="515" y1="224.75" y2="224.75" class="net_14 width_1" style="stroke-width: 1"/><line x1="258" x2="285" y1="322.5" y2="322.5" class="net_15 width_1" style="stroke-width: 1"/><line x1="285" x2="285" y1="322.5" y2="225" class="net_15 width_1" style="stroke-width: 1"/><line x1="285" x2="515" y1="225" y2="225" class="net_15 width_1" style="stroke-width: 1"/><line x1="209" x2="236" y1="216" y2="216" class="net_17 width_1" style="stroke-width: 1"/><line x1="236" x2="236" y1="216" y2="203" class="net_17 width_1" style="stroke-width: 1"/><line x1="236" x2="481" y1="203" y2="203" class="net_17 width_1" style="stroke-width: 1"/><line x1="481" x2="481" y1="203" y2="224.5" class="net_17 width_1" style="stroke-width: 1"/><line x1="481" x2="515" y1="224.5" y2="224.5" class="net_17 width_1" style="stroke-width: 1"/><line x1="336" x2="471" y1="402.6666666666667" y2="402.6666666666667" class="net_22 width_1" style="stroke-width: 1"/><line x1="471" x2="471" y1="402.6666666666667" y2="530.9166666666667" class="net_22 width_1" style="stroke-width: 1"/><line x1="471" x2="515" y1="530.9166666666667" y2="530.9166666666667" class="net_22 width_1" style="stroke-width: 1"/><line x1="336" x2="515" y1="531.1666666666667" y2="531.1666666666667" class="net_23 width_1" style="stroke-width: 1"/><line x1="209" x2="481" y1="236" y2="236" class="net_19 width_1" style="stroke-width: 1"/><line x1="481" x2="481" y1="236" y2="530.6666666666667" class="net_19 width_1" style="stroke-width: 1"/><line x1="481" x2="515" y1="530.6666666666667" y2="530.6666666666667" class="net_19 width_1" style="stroke-width: 1"/><line x1="517" x2="696" y1="531.4166666666667" y2="531.4166666666667" class="net_24 width_1" style="stroke-width: 1"/><line x1="517" x2="652" y1="225.25" y2="225.25" class="net_21 width_1" style="stroke-width: 1"/><line x1="652" x2="652" y1="225.25" y2="531.1666666666667" class="net_21 width_1" style="stroke-width: 1"/><line x1="652" x2="696" y1="531.1666666666667" y2="531.1666666666667" class="net_21 width_1" style="stroke-width: 1"/><line x1="209" x2="226" y1="256" y2="256" class="net_20 width_1" style="stroke-width: 1"/><line x1="226" x2="226" y1="256" y2="192" class="net_20 width_1" style="stroke-width: 1"/><line x1="226" x2="662" y1="192" y2="192" class="net_20 width_1" style="stroke-width: 1"/><line x1="662" x2="662" y1="192" y2="530.9166666666667" class="net_20 width_1" style="stroke-width: 1"/><line x1="662" x2="696" y1="530.9166666666667" y2="530.9166666666667" class="net_20 width_1" style="stroke-width: 1"/><line x1="42" x2="64" y1="32" y2="32" class="net_2 width_1" style="stroke-width: 1"/><line x1="64" x2="64" y1="32" y2="96.75" class="net_2 width_1" style="stroke-width: 1"/><line x1="64" x2="108" y1="96.75" y2="96.75" class="net_2 width_1" style="stroke-width: 1"/><line x1="42" x2="64" y1="162" y2="162" class="net_3 width_1" style="stroke-width: 1"/><line x1="64" x2="64" y1="162" y2="97.25" class="net_3 width_1" style="stroke-width: 1"/><line x1="64" x2="108" y1="97.25" y2="97.25" class="net_3 width_1" style="stroke-width: 1"/><line x1="42" x2="108" y1="97" y2="97" class="net_4 width_1" style="stroke-width: 1"/><line x1="258" x2="295" y1="342.5" y2="342.5" class="net_6 width_1" style="stroke-width: 1"/><line x1="295" x2="295" y1="342.5" y2="402" class="net_6 width_1" style="stroke-width: 1"/><line x1="295" x2="334" y1="402" y2="402" class="net_6 width_1" style="stroke-width: 1"/><line x1="258" x2="285" y1="362.5" y2="362.5" class="net_7 width_1" style="stroke-width: 1"/><line x1="285" x2="285" y1="362.5" y2="402.1666666666667" class="net_7 width_1" style="stroke-width: 1"/><line x1="285" x2="334" y1="402.1666666666667" y2="402.1666666666667" class="net_7 width_1" style="stroke-width: 1"/><line x1="258" x2="275" y1="382.5" y2="382.5" class="net_8 width_1" style="stroke-width: 1"/><line x1="275" x2="275" y1="382.5" y2="402.33333333333337" class="net_8 width_1" style="stroke-width: 1"/><line x1="275" x2="334" y1="402.33333333333337" y2="402.33333333333337" class="net_8 width_1" style="stroke-width: 1"/><line x1="258" x2="334" y1="402.5" y2="402.5" class="net_9 width_1" style="stroke-width: 1"/><line x1="209" x2="236" y1="276" y2="276" class="net_17,18 width_2" style="stroke-width: 2"/><line x1="236" x2="236" y1="276" y2="251" class="net_17,18 width_2" style="stroke-width: 2"/><line x1="236" x2="305" y1="251" y2="251" class="net_17,18 width_2" style="stroke-width: 2"/><line x1="305" x2="305" y1="251" y2="401.83333333333337" class="net_17,18 width_2" style="stroke-width: 2"/><circle cx="236" cy="276" r="3" style="fill:#000" class="net_17,18 width_2"/><line x1="305" x2="334" y1="401.83333333333337" y2="401.83333333333337" class="net_17,18 width_2" style="stroke-width: 2"/><line x1="209" x2="236" y1="276" y2="276" class="net_17,18 width_2" style="stroke-width: 2"/><line x1="236" x2="236" y1="276" y2="531" class="net_17,18 width_2" style="stroke-width: 2"/><line x1="236" x2="334" y1="531" y2="531.0000000000001" class="net_17,18 width_2" style="stroke-width: 2"/><line x1="258" x2="305" y1="422.5" y2="422.5" class="net_10 width_1" style="stroke-width: 1"/><line x1="305" x2="305" y1="422.5" y2="530.3333333333334" class="net_10 width_1" style="stroke-width: 1"/><line x1="305" x2="334" y1="530.3333333333334" y2="530.3333333333334" class="net_10 width_1" style="stroke-width: 1"/><line x1="258" x2="295" y1="442.5" y2="442.5" class="net_11 width_1" style="stroke-width: 1"/><line x1="295" x2="295" y1="442.5" y2="530.5" class="net_11 width_1" style="stroke-width: 1"/><line x1="295" x2="334" y1="530.5" y2="530.5000000000001" class="net_11 width_1" style="stroke-width: 1"/><line x1="258" x2="285" y1="462.5" y2="462.5" class="net_12 width_1" style="stroke-width: 1"/><line x1="285" x2="285" y1="462.5" y2="530.6666666666667" class="net_12 width_1" style="stroke-width: 1"/><line x1="285" x2="334" y1="530.6666666666667" y2="530.6666666666667" class="net_12 width_1" style="stroke-width: 1"/><line x1="258" x2="275" y1="482.5" y2="482.5" class="net_13 width_1" style="stroke-width: 1"/><line x1="275" x2="275" y1="482.5" y2="530.8333333333334" class="net_13 width_1" style="stroke-width: 1"/><line x1="275" x2="334" y1="530.8333333333334" y2="530.8333333333334" class="net_13 width_1" style="stroke-width: 1"/><line x1="110" x2="186" y1="97.5" y2="97.5" class="net_5 width_1" style="stroke-width: 1"/><line x1="698" x2="858" y1="531.6666666666667" y2="531.6666666666667" class="net_16 width_1" style="stroke-width: 1"/><line x1="143" x2="251" y1="392.5" y2="392.5" class="net_6,7,8,9,10,11,12,13,14,15 width_10" style="stroke-width: 2"/><line x1="42" x2="202" y1="246" y2="246" class="net_17,18,19,20 width_4" style="stroke-width: 2"/><rect x="257" y="526" width="16" height="9" class="net_17,18 width_2 busLabel_2" style="fill: white; stroke: none"/><text x="256" y="534" class="net_17,18 width_2 busLabel_2">/2/</text><rect x="257" y="526" width="16" height="9" class="net_17,18 width_2 busLabel_2" style="fill: white; stroke: none"/><text x="256" y="534" class="net_17,18 width_2 busLabel_2">/2/</text><rect x="208" y="387.5" width="22" height="9" class="net_6,7,8,9,10,11,12,13,14,15 width_10 busLabel_10" style="fill: white; stroke: none"/><text x="207" y="395.5" class="net_6,7,8,9,10,11,12,13,14,15 width_10 busLabel_10">/10/</text><rect x="139" y="241" width="16" height="9" class="net_17,18,19,20 width_4 busLabel_4" style="fill: white; stroke: none"/><text x="138" y="249" class="net_17,18,19,20 width_4 busLabel_4">/4/</text></svg>