<svg xmlns="http://www.w3.org/2000/svg" xmlns:xlink="http://www.w3.org/1999/xlink" xmlns:s="https://github.com/nturley/netlistsvg" width="740" height="261"><style>svg {
  stroke:#000;
  fill:none;
}
text {
  fill:#000;
  stroke:none;
  font-size:10px;
  font-weight: bold;
  font-family: "Courier New", monospace;
}
line {
    stroke-linecap: round;
}
.nodelabel {
  text-anchor: middle;
}
.inputPortLabel {
  text-anchor: end;
}
.splitjoinBody {
  fill:#000;
}</style><g s:type="generic" transform="translate(189,22)" s:width="30" s:height="40" id="cell_inst_1_11"><text x="15" y="-4" class="nodelabel cell_inst_1_11" s:attribute="ref">inst_1_11</text><rect width="30" height="20" s:generic="body" fill="#ffffff" rx="0" class="cell_inst_1_11"/><g transform="translate(0,10)" s:x="0" s:y="10" s:pid="in0" id="port_inst_1_11~in0"><text x="-3" y="-4" class="inputPortLabel cell_inst_1_11">in0</text></g><g transform="translate(30,10)" s:x="30" s:y="10" s:pid="out0" id="port_inst_1_11~out0"><text x="5" y="-4" style="fill:#000; stroke:none" class="cell_inst_1_11">out0</text></g></g><g s:type="generic" transform="translate(189,90)" s:width="30" s:height="40" id="cell_inst_1_12"><text x="15" y="-4" class="nodelabel cell_inst_1_12" s:attribute="ref">inst_1_12</text><rect width="30" height="20" s:generic="body" fill="#ffffff" rx="0" class="cell_inst_1_12"/><g transform="translate(0,10)" s:x="0" s:y="10" s:pid="in0" id="port_inst_1_12~in0"><text x="-3" y="-4" class="inputPortLabel cell_inst_1_12">in0</text></g><g transform="translate(30,10)" s:x="30" s:y="10" s:pid="out0" id="port_inst_1_12~out0"><text x="5" y="-4" style="fill:#000; stroke:none" class="cell_inst_1_12">out0</text></g></g><g s:type="generic" transform="translate(189,158)" s:width="30" s:height="40" id="cell_inst_1_13"><text x="15" y="-4" class="nodelabel cell_inst_1_13" s:attribute="ref">inst_1_13</text><rect width="30" height="20" s:generic="body" fill="#ffffff" rx="0" class="cell_inst_1_13"/><g transform="translate(0,10)" s:x="0" s:y="10" s:pid="in0" id="port_inst_1_13~in0"><text x="-3" y="-4" class="inputPortLabel cell_inst_1_13">in0</text></g><g transform="translate(30,10)" s:x="30" s:y="10" s:pid="out0" id="port_inst_1_13~out0"><text x="5" y="-4" style="fill:#000; stroke:none" class="cell_inst_1_13">out0</text></g></g><g s:type="generic" transform="translate(189,226)" s:width="30" s:height="40" id="cell_inst_1_14"><text x="15" y="-4" class="nodelabel cell_inst_1_14" s:attribute="ref">inst_1_14</text><rect width="30" height="20" s:generic="body" fill="#ffffff" rx="0" class="cell_inst_1_14"/><g transform="translate(0,10)" s:x="0" s:y="10" s:pid="in0" id="port_inst_1_14~in0"><text x="-3" y="-4" class="inputPortLabel cell_inst_1_14">in0</text></g><g transform="translate(30,10)" s:x="30" s:y="10" s:pid="out0" id="port_inst_1_14~out0"><text x="5" y="-4" style="fill:#000; stroke:none" class="cell_inst_1_14">out0</text></g></g><g s:type="generic" transform="translate(299,22)" s:width="30" s:height="40" id="cell_inst_1_21"><text x="15" y="-4" class="nodelabel cell_inst_1_21" s:attribute="ref">inst_1_21</text><rect width="30" height="20" s:generic="body" fill="#ffffff" rx="0" class="cell_inst_1_21"/><g transform="translate(0,10)" s:x="0" s:y="10" s:pid="in0" id="port_inst_1_21~in0"><text x="-3" y="-4" class="inputPortLabel cell_inst_1_21">in0</text></g><g transform="translate(30,10)" s:x="30" s:y="10" s:pid="out0" id="port_inst_1_21~out0"><text x="5" y="-4" style="fill:#000; stroke:none" class="cell_inst_1_21">out0</text></g></g><g s:type="generic" transform="translate(299,90)" s:width="30" s:height="40" id="cell_inst_1_22"><text x="15" y="-4" class="nodelabel cell_inst_1_22" s:attribute="ref">inst_1_22</text><rect width="30" height="20" s:generic="body" fill="#ffffff" rx="0" class="cell_inst_1_22"/><g transform="translate(0,10)" s:x="0" s:y="10" s:pid="in0" id="port_inst_1_22~in0"><text x="-3" y="-4" class="inputPortLabel cell_inst_1_22">in0</text></g><g transform="translate(30,10)" s:x="30" s:y="10" s:pid="out0" id="port_inst_1_22~out0"><text x="5" y="-4" style="fill:#000; stroke:none" class="cell_inst_1_22">out0</text></g></g><g s:type="generic" transform="translate(299,158)" s:width="30" s:height="40" id="cell_inst_1_23"><text x="15" y="-4" class="nodelabel cell_inst_1_23" s:attribute="ref">inst_1_23</text><rect width="30" height="20" s:generic="body" fill="#ffffff" rx="0" class="cell_inst_1_23"/><g transform="translate(0,10)" s:x="0" s:y="10" s:pid="in0" id="port_inst_1_23~in0"><text x="-3" y="-4" class="inputPortLabel cell_inst_1_23">in0</text></g><g transform="translate(30,10)" s:x="30" s:y="10" s:pid="out0" id="port_inst_1_23~out0"><text x="5" y="-4" style="fill:#000; stroke:none" class="cell_inst_1_23">out0</text></g></g><g s:type="generic" transform="translate(299,226)" s:width="30" s:height="40" id="cell_inst_1_24"><text x="15" y="-4" class="nodelabel cell_inst_1_24" s:attribute="ref">inst_1_24</text><rect width="30" height="20" s:generic="body" fill="#ffffff" rx="0" class="cell_inst_1_24"/><g transform="translate(0,10)" s:x="0" s:y="10" s:pid="in0" id="port_inst_1_24~in0"><text x="-3" y="-4" class="inputPortLabel cell_inst_1_24">in0</text></g><g transform="translate(30,10)" s:x="30" s:y="10" s:pid="out0" id="port_inst_1_24~out0"><text x="5" y="-4" style="fill:#000; stroke:none" class="cell_inst_1_24">out0</text></g></g><g s:type="generic" transform="translate(409,22)" s:width="30" s:height="40" id="cell_inst_1_31"><text x="15" y="-4" class="nodelabel cell_inst_1_31" s:attribute="ref">inst_1_31</text><rect width="30" height="20" s:generic="body" fill="#ffffff" rx="0" class="cell_inst_1_31"/><g transform="translate(0,10)" s:x="0" s:y="10" s:pid="in0" id="port_inst_1_31~in0"><text x="-3" y="-4" class="inputPortLabel cell_inst_1_31">in0</text></g><g transform="translate(30,10)" s:x="30" s:y="10" s:pid="out0" id="port_inst_1_31~out0"><text x="5" y="-4" style="fill:#000; stroke:none" class="cell_inst_1_31">out0</text></g></g><g s:type="generic" transform="translate(409,90)" s:width="30" s:height="40" id="cell_inst_1_32"><text x="15" y="-4" class="nodelabel cell_inst_1_32" s:attribute="ref">inst_1_32</text><rect width="30" height="20" s:generic="body" fill="#ffffff" rx="0" class="cell_inst_1_32"/><g transform="translate(0,10)" s:x="0" s:y="10" s:pid="in0" id="port_inst_1_32~in0"><text x="-3" y="-4" class="inputPortLabel cell_inst_1_32">in0</text></g><g transform="translate(30,10)" s:x="30" s:y="10" s:pid="out0" id="port_inst_1_32~out0"><text x="5" y="-4" style="fill:#000; stroke:none" class="cell_inst_1_32">out0</text></g></g><g s:type="generic" transform="translate(409,158)" s:width="30" s:height="40" id="cell_inst_1_33"><text x="15" y="-4" class="nodelabel cell_inst_1_33" s:attribute="ref">inst_1_33</text><rect width="30" height="20" s:generic="body" fill="#ffffff" rx="0" class="cell_inst_1_33"/><g transform="translate(0,10)" s:x="0" s:y="10" s:pid="in0" id="port_inst_1_33~in0"><text x="-3" y="-4" class="inputPortLabel cell_inst_1_33">in0</text></g><g transform="translate(30,10)" s:x="30" s:y="10" s:pid="out0" id="port_inst_1_33~out0"><text x="5" y="-4" style="fill:#000; stroke:none" class="cell_inst_1_33">out0</text></g></g><g s:type="generic" transform="translate(409,226)" s:width="30" s:height="40" id="cell_inst_1_34"><text x="15" y="-4" class="nodelabel cell_inst_1_34" s:attribute="ref">inst_1_34</text><rect width="30" height="20" s:generic="body" fill="#ffffff" rx="0" class="cell_inst_1_34"/><g transform="translate(0,10)" s:x="0" s:y="10" s:pid="in0" id="port_inst_1_34~in0"><text x="-3" y="-4" class="inputPortLabel cell_inst_1_34">in0</text></g><g transform="translate(30,10)" s:x="30" s:y="10" s:pid="out0" id="port_inst_1_34~out0"><text x="5" y="-4" style="fill:#000; stroke:none" class="cell_inst_1_34">out0</text></g></g><g s:type="generic" transform="translate(519,22)" s:width="30" s:height="40" id="cell_inst_1_41"><text x="15" y="-4" class="nodelabel cell_inst_1_41" s:attribute="ref">inst_1_41</text><rect width="30" height="20" s:generic="body" fill="#ffffff" rx="0" class="cell_inst_1_41"/><g transform="translate(0,10)" s:x="0" s:y="10" s:pid="in0" id="port_inst_1_41~in0"><text x="-3" y="-4" class="inputPortLabel cell_inst_1_41">in0</text></g><g transform="translate(30,10)" s:x="30" s:y="10" s:pid="out0" id="port_inst_1_41~out0"><text x="5" y="-4" style="fill:#000; stroke:none" class="cell_inst_1_41">out0</text></g></g><g s:type="generic" transform="translate(519,90)" s:width="30" s:height="40" id="cell_inst_1_42"><text x="15" y="-4" class="nodelabel cell_inst_1_42" s:attribute="ref">inst_1_42</text><rect width="30" height="20" s:generic="body" fill="#ffffff" rx="0" class="cell_inst_1_42"/><g transform="translate(0,10)" s:x="0" s:y="10" s:pid="in0" id="port_inst_1_42~in0"><text x="-3" y="-4" class="inputPortLabel cell_inst_1_42">in0</text></g><g transform="translate(30,10)" s:x="30" s:y="10" s:pid="out0" id="port_inst_1_42~out0"><text x="5" y="-4" style="fill:#000; stroke:none" class="cell_inst_1_42">out0</text></g></g><g s:type="generic" transform="translate(519,158)" s:width="30" s:height="40" id="cell_inst_1_43"><text x="15" y="-4" class="nodelabel cell_inst_1_43" s:attribute="ref">inst_1_43</text><rect width="30" height="20" s:generic="body" fill="#ffffff" rx="0" class="cell_inst_1_43"/><g transform="translate(0,10)" s:x="0" s:y="10" s:pid="in0" id="port_inst_1_43~in0"><text x="-3" y="-4" class="inputPortLabel cell_inst_1_43">in0</text></g><g transform="translate(30,10)" s:x="30" s:y="10" s:pid="out0" id="port_inst_1_43~out0"><text x="5" y="-4" style="fill:#000; stroke:none" class="cell_inst_1_43">out0</text></g></g><g s:type="generic" transform="translate(519,226)" s:width="30" s:height="40" id="cell_inst_1_44"><text x="15" y="-4" class="nodelabel cell_inst_1_44" s:attribute="ref">inst_1_44</text><rect width="30" height="20" s:generic="body" fill="#ffffff" rx="0" class="cell_inst_1_44"/><g transform="translate(0,10)" s:x="0" s:y="10" s:pid="in0" id="port_inst_1_44~in0"><text x="-3" y="-4" class="inputPortLabel cell_inst_1_44">in0</text></g><g transform="translate(30,10)" s:x="30" s:y="10" s:pid="out0" id="port_inst_1_44~out0"><text x="5" y="-4" style="fill:#000; stroke:none" class="cell_inst_1_44">out0</text></g></g><g s:type="inputExt" transform="translate(12,52.5)" s:width="30" s:height="20" id="cell_in"><text x="15" y="-4" class="nodelabel cell_in" s:attribute="ref">in</text><s:alias val="$_inputExt_"/><path d="M0,0 L0,20 L15,20 L30,10 L15,0 Z" fill="#ffffff" class="cell_in"/><g s:x="30" s:y="10" s:pid="Y"/></g><g s:type="outputExt" transform="translate(698,100.5)" s:width="30" s:height="20" id="cell_out"><text x="15" y="-4" class="nodelabel cell_out" s:attribute="ref">out</text><s:alias val="$_outputExt_"/><path d="M30,0 L30,20 L15,20 L0,10 L15,0 Z" fill="#ffffff" class="cell_out"/><g s:x="0" s:y="10" s:pid="A"/></g><g s:type="join" transform="translate(618,70)" s:width="5" s:height="40" id="cell_$join$,6,7,8,9,"><rect width="5" height="80" class="splitjoinBody" s:generic="body"/><s:alias val="$_join_"/><g s:x="5" s:y="20" s:pid="out"/><g transform="translate(-1,10)" s:x="-1" s:y="10" s:pid="in0"><text x="-3" y="-4" class="inputPortLabel">0</text></g><g transform="translate(-1,30)" s:x="-1" s:y="10" s:pid="in0"><text x="-3" y="-4" class="inputPortLabel">1</text></g><g transform="translate(-1,50)" s:x="-1" s:y="10" s:pid="in0"><text x="-3" y="-4" class="inputPortLabel">2</text></g><g transform="translate(-1,70)" s:x="-1" s:y="10" s:pid="in0"><text x="-3" y="-4" class="inputPortLabel">3</text></g></g><g s:type="split" transform="translate(117,22)" s:width="5" s:height="40" id="cell_$split$,2,3,4,5,"><rect width="5" height="80" class="splitjoinBody" s:generic="body"/><s:alias val="$_split_"/><g s:x="-1" s:y="20" s:pid="in"/><g transform="translate(5,10)" s:x="5" s:y="10" s:pid="out0"><text x="5" y="-4">0</text></g><g transform="translate(5,30)" s:x="5" s:y="10" s:pid="out0"><text x="5" y="-4">1</text></g><g transform="translate(5,50)" s:x="5" s:y="10" s:pid="out0"><text x="5" y="-4">2</text></g><g transform="translate(5,70)" s:x="5" s:y="10" s:pid="out0"><text x="5" y="-4">3</text></g></g><line x1="123" x2="189" y1="32.5" y2="32.5" class="net_2 width_1" style="stroke-width: 1"/><line x1="123" x2="160" y1="52.5" y2="52.5" class="net_3 width_1" style="stroke-width: 1"/><line x1="160" x2="160" y1="52.5" y2="100.5" class="net_3 width_1" style="stroke-width: 1"/><line x1="160" x2="189" y1="100.5" y2="100.5" class="net_3 width_1" style="stroke-width: 1"/><line x1="123" x2="150" y1="72.5" y2="72.5" class="net_4 width_1" style="stroke-width: 1"/><line x1="150" x2="150" y1="72.5" y2="168.5" class="net_4 width_1" style="stroke-width: 1"/><line x1="150" x2="189" y1="168.5" y2="168.5" class="net_4 width_1" style="stroke-width: 1"/><line x1="123" x2="140" y1="92.5" y2="92.5" class="net_5 width_1" style="stroke-width: 1"/><line x1="140" x2="140" y1="92.5" y2="236.5" class="net_5 width_1" style="stroke-width: 1"/><line x1="140" x2="189" y1="236.5" y2="236.5" class="net_5 width_1" style="stroke-width: 1"/><line x1="220" x2="299" y1="32.5" y2="32.5" class="net_10 width_1" style="stroke-width: 1"/><line x1="220" x2="299" y1="100.5" y2="100.5" class="net_11 width_1" style="stroke-width: 1"/><line x1="220" x2="299" y1="168.5" y2="168.5" class="net_12 width_1" style="stroke-width: 1"/><line x1="220" x2="299" y1="236.5" y2="236.5" class="net_13 width_1" style="stroke-width: 1"/><line x1="330" x2="409" y1="32.5" y2="32.5" class="net_14 width_1" style="stroke-width: 1"/><line x1="330" x2="409" y1="100.5" y2="100.5" class="net_15 width_1" style="stroke-width: 1"/><line x1="330" x2="409" y1="168.5" y2="168.5" class="net_16 width_1" style="stroke-width: 1"/><line x1="330" x2="409" y1="236.5" y2="236.5" class="net_17 width_1" style="stroke-width: 1"/><line x1="440" x2="519" y1="32.5" y2="32.5" class="net_18 width_1" style="stroke-width: 1"/><line x1="440" x2="519" y1="100.5" y2="100.5" class="net_19 width_1" style="stroke-width: 1"/><line x1="440" x2="519" y1="168.5" y2="168.5" class="net_20 width_1" style="stroke-width: 1"/><line x1="440" x2="519" y1="236.5" y2="236.5" class="net_21 width_1" style="stroke-width: 1"/><line x1="624" x2="698" y1="110.5" y2="110.5" class="net_6,7,8,9 width_4" style="stroke-width: 2"/><line x1="550" x2="585" y1="32.5" y2="32.5" class="net_6 width_1" style="stroke-width: 1"/><line x1="585" x2="585" y1="32.5" y2="80.5" class="net_6 width_1" style="stroke-width: 1"/><line x1="585" x2="617" y1="80.5" y2="80.5" class="net_6 width_1" style="stroke-width: 1"/><line x1="550" x2="617" y1="100.5" y2="100.5" class="net_7 width_1" style="stroke-width: 1"/><line x1="550" x2="585" y1="168.5" y2="168.5" class="net_8 width_1" style="stroke-width: 1"/><line x1="585" x2="585" y1="168.5" y2="120.5" class="net_8 width_1" style="stroke-width: 1"/><line x1="585" x2="617" y1="120.5" y2="120.5" class="net_8 width_1" style="stroke-width: 1"/><line x1="550" x2="595" y1="236.5" y2="236.5" class="net_9 width_1" style="stroke-width: 1"/><line x1="595" x2="595" y1="236.5" y2="140.5" class="net_9 width_1" style="stroke-width: 1"/><line x1="595" x2="617" y1="140.5" y2="140.5" class="net_9 width_1" style="stroke-width: 1"/><line x1="42" x2="116" y1="62.5" y2="62.5" class="net_2,3,4,5 width_4" style="stroke-width: 2"/><rect x="660" y="105.5" width="16" height="9" class="net_6,7,8,9 width_4 busLabel_4" style="fill: white; stroke: none"/><text x="659" y="113.5" class="net_6,7,8,9 width_4 busLabel_4">/4/</text><rect x="78" y="57.5" width="16" height="9" class="net_2,3,4,5 width_4 busLabel_4" style="fill: white; stroke: none"/><text x="77" y="65.5" class="net_2,3,4,5 width_4 busLabel_4">/4/</text></svg>