<svg xmlns="http://www.w3.org/2000/svg" xmlns:xlink="http://www.w3.org/1999/xlink" xmlns:s="https://github.com/nturley/netlistsvg" width="777" height="225"><style>svg {
  stroke:#000;
  fill:none;
}
text {
  fill:#000;
  stroke:none;
  font-size:10px;
  font-weight: bold;
  font-family: "Courier New", monospace;
}
line {
    stroke-linecap: round;
}
.nodelabel {
  text-anchor: middle;
}
.inputPortLabel {
  text-anchor: end;
}
.splitjoinBody {
  fill:#000;
}</style><g s:type="generic" transform="translate(413,42)" s:width="30" s:height="40" id="cell_inst_1_0"><text x="15" y="-4" class="nodelabel cell_inst_1_0" s:attribute="ref">inst_1_0</text><rect width="30" height="60" s:generic="body" fill="#ffffff" rx="0" class="cell_inst_1_0"/><g transform="translate(0,10)" s:x="0" s:y="10" s:pid="in0" id="port_inst_1_0~in0"><text x="-3" y="-4" class="inputPortLabel cell_inst_1_0">in0</text></g><g transform="translate(0,30)" s:x="0" s:y="10" s:pid="in0" id="port_inst_1_0~in1"><text x="-3" y="-4" class="inputPortLabel cell_inst_1_0">in1</text></g><g transform="translate(0,50)" s:x="0" s:y="10" s:pid="in0" id="port_inst_1_0~in3_ft_in"><text x="-3" y="-4" class="inputPortLabel cell_inst_1_0">in3_ft_in</text></g><g transform="translate(30,10)" s:x="30" s:y="10" s:pid="out0" id="port_inst_1_0~in3_ft_out"><text x="5" y="-4" style="fill:#000; stroke:none" class="cell_inst_1_0">in3_ft_out</text></g><g transform="translate(30,30)" s:x="30" s:y="10" s:pid="out0" id="port_inst_1_0~out"><text x="5" y="-4" style="fill:#000; stroke:none" class="cell_inst_1_0">out</text></g></g><g s:type="generic" transform="translate(596,22)" s:width="30" s:height="40" id="cell_inst_1_1"><text x="15" y="-4" class="nodelabel cell_inst_1_1" s:attribute="ref">inst_1_1</text><rect width="30" height="60" s:generic="body" fill="#ffffff" rx="0" class="cell_inst_1_1"/><g transform="translate(0,10)" s:x="0" s:y="10" s:pid="in0" id="port_inst_1_1~in0"><text x="-3" y="-4" class="inputPortLabel cell_inst_1_1">in0</text></g><g transform="translate(0,30)" s:x="0" s:y="10" s:pid="in0" id="port_inst_1_1~in1"><text x="-3" y="-4" class="inputPortLabel cell_inst_1_1">in1</text></g><g transform="translate(0,50)" s:x="0" s:y="10" s:pid="in0" id="port_inst_1_1~in3_ft_in"><text x="-3" y="-4" class="inputPortLabel cell_inst_1_1">in3_ft_in</text></g><g transform="translate(30,10)" s:x="30" s:y="10" s:pid="out0" id="port_inst_1_1~in3_ft_out"><text x="5" y="-4" style="fill:#000; stroke:none" class="cell_inst_1_1">in3_ft_out</text></g><g transform="translate(30,30)" s:x="30" s:y="10" s:pid="out0" id="port_inst_1_1~out"><text x="5" y="-4" style="fill:#000; stroke:none" class="cell_inst_1_1">out</text></g></g><g s:type="generic" transform="translate(207,170)" s:width="30" s:height="40" id="cell_inst_2_0"><text x="15" y="-4" class="nodelabel cell_inst_2_0" s:attribute="ref">inst_2_0</text><rect width="30" height="40" s:generic="body" fill="#ffffff" rx="0" class="cell_inst_2_0"/><g transform="translate(0,10)" s:x="0" s:y="10" s:pid="in0" id="port_inst_2_0~in0"><text x="-3" y="-4" class="inputPortLabel cell_inst_2_0">in0</text></g><g transform="translate(0,30)" s:x="0" s:y="10" s:pid="in0" id="port_inst_2_0~in1"><text x="-3" y="-4" class="inputPortLabel cell_inst_2_0">in1</text></g><g transform="translate(30,10)" s:x="30" s:y="10" s:pid="out0" id="port_inst_2_0~out"><text x="5" y="-4" style="fill:#000; stroke:none" class="cell_inst_2_0">out</text></g></g><g s:type="generic" transform="translate(415,150)" s:width="30" s:height="40" id="cell_inst_2_1"><text x="15" y="-4" class="nodelabel cell_inst_2_1" s:attribute="ref">inst_2_1</text><rect width="30" height="40" s:generic="body" fill="#ffffff" rx="0" class="cell_inst_2_1"/><g transform="translate(0,10)" s:x="0" s:y="10" s:pid="in0" id="port_inst_2_1~in0"><text x="-3" y="-4" class="inputPortLabel cell_inst_2_1">in0</text></g><g transform="translate(0,30)" s:x="0" s:y="10" s:pid="in0" id="port_inst_2_1~in1"><text x="-3" y="-4" class="inputPortLabel cell_inst_2_1">in1</text></g><g transform="translate(30,10)" s:x="30" s:y="10" s:pid="out0" id="port_inst_2_1~out"><text x="5" y="-4" style="fill:#000; stroke:none" class="cell_inst_2_1">out</text></g></g><g s:type="inputExt" transform="translate(12,41)" s:width="30" s:height="20" id="cell_in0"><text x="15" y="-4" class="nodelabel cell_in0" s:attribute="ref">in0</text><s:alias val="$_inputExt_"/><path d="M0,0 L0,20 L15,20 L30,10 L15,0 Z" fill="#ffffff" class="cell_in0"/><g s:x="30" s:y="10" s:pid="Y"/></g><g s:type="inputExt" transform="translate(12,106)" s:width="30" s:height="20" id="cell_in1"><text x="15" y="-4" class="nodelabel cell_in1" s:attribute="ref">in1</text><s:alias val="$_inputExt_"/><path d="M0,0 L0,20 L15,20 L30,10 L15,0 Z" fill="#ffffff" class="cell_in1"/><g s:x="30" s:y="10" s:pid="Y"/></g><g s:type="inputExt" transform="translate(292,93.5)" s:width="30" s:height="20" id="cell_in3"><text x="15" y="-4" class="nodelabel cell_in3" s:attribute="ref">in3</text><s:alias val="$_inputExt_"/><path d="M0,0 L0,20 L15,20 L30,10 L15,0 Z" fill="#ffffff" class="cell_in3"/><g s:x="30" s:y="10" s:pid="Y"/></g><g s:type="inputExt" transform="translate(77,190.5)" s:width="30" s:height="20" id="cell_bus_in"><text x="15" y="-4" class="nodelabel cell_bus_in" s:attribute="ref">bus_in</text><s:alias val="$_inputExt_"/><path d="M0,0 L0,20 L15,20 L30,10 L15,0 Z" fill="#ffffff" class="cell_bus_in"/><g s:x="30" s:y="10" s:pid="Y"/></g><g s:type="outputExt" transform="translate(723,42.5)" s:width="30" s:height="20" id="cell_out0"><text x="15" y="-4" class="nodelabel cell_out0" s:attribute="ref">out0</text><s:alias val="$_outputExt_"/><path d="M30,0 L30,20 L15,20 L0,10 L15,0 Z" fill="#ffffff" class="cell_out0"/><g s:x="0" s:y="10" s:pid="A"/></g><g s:type="outputExt" transform="translate(723,150.5)" s:width="30" s:height="20" id="cell_bus_out"><text x="15" y="-4" class="nodelabel cell_bus_out" s:attribute="ref">bus_out</text><s:alias val="$_outputExt_"/><path d="M30,0 L30,20 L15,20 L0,10 L15,0 Z" fill="#ffffff" class="cell_bus_out"/><g s:x="0" s:y="10" s:pid="A"/></g><g s:type="join" transform="translate(90,105.5)" s:width="5" s:height="40" id="cell_$join$,3,2,"><rect width="5" height="40" class="splitjoinBody" s:generic="body"/><s:alias val="$_join_"/><g s:x="5" s:y="20" s:pid="out"/><g transform="translate(-1,10)" s:x="-1" s:y="10" s:pid="in0"><text x="-3" y="-4" class="inputPortLabel">0</text></g><g transform="translate(-1,30)" s:x="-1" s:y="10" s:pid="in0"><text x="-3" y="-4" class="inputPortLabel">1</text></g></g><line x1="42" x2="332" y1="51" y2="51" class="net_2 width_1" style="stroke-width: 1"/><line x1="332" x2="332" y1="51" y2="52.5" class="net_2 width_1" style="stroke-width: 1"/><line x1="332" x2="413" y1="52.5" y2="52.5" class="net_2 width_1" style="stroke-width: 1"/><line x1="42" x2="52" y1="51" y2="51" class="net_2 width_1" style="stroke-width: 1"/><line x1="52" x2="52" y1="51" y2="136" class="net_2 width_1" style="stroke-width: 1"/><circle cx="52" cy="51" r="2" style="fill:#000" class="net_2 width_1"/><line x1="52" x2="89" y1="136" y2="136" class="net_2 width_1" style="stroke-width: 1"/><line x1="42" x2="62" y1="116" y2="116" class="net_3 width_1" style="stroke-width: 1"/><line x1="62" x2="62" y1="116" y2="72.5" class="net_3 width_1" style="stroke-width: 1"/><circle cx="62" cy="116" r="2" style="fill:#000" class="net_3 width_1"/><line x1="62" x2="412" y1="72.5" y2="72.5" class="net_3 width_1" style="stroke-width: 1"/><line x1="42" x2="89" y1="116" y2="116" class="net_3 width_1" style="stroke-width: 1"/><line x1="322" x2="332" y1="103.5" y2="103.5" class="net_4 width_1" style="stroke-width: 1"/><line x1="332" x2="332" y1="103.5" y2="92.5" class="net_4 width_1" style="stroke-width: 1"/><line x1="332" x2="412" y1="92.5" y2="92.5" class="net_4 width_1" style="stroke-width: 1"/><line x1="444" x2="515" y1="72.5" y2="72.5" class="net_11 width_1" style="stroke-width: 1"/><line x1="515" x2="515" y1="72.5" y2="32.5" class="net_11 width_1" style="stroke-width: 1"/><line x1="515" x2="596" y1="32.5" y2="32.5" class="net_11 width_1" style="stroke-width: 1"/><line x1="444" x2="595" y1="52.5" y2="52.5" class="net_10 width_1" style="stroke-width: 1"/><line x1="96" x2="162" y1="126" y2="126" class="net_3,2 width_2" style="stroke-width: 2"/><line x1="162" x2="162" y1="126" y2="180.5" class="net_3,2 width_2" style="stroke-width: 2"/><line x1="162" x2="207" y1="180.5" y2="180.5" class="net_3,2 width_2" style="stroke-width: 2"/><line x1="107" x2="206" y1="200.5" y2="200.5" class="net_5,6 width_2" style="stroke-width: 2"/><line x1="238" x2="267" y1="180.5" y2="180.5" class="net_14,15 width_2" style="stroke-width: 2"/><line x1="267" x2="267" y1="180.5" y2="160.5" class="net_14,15 width_2" style="stroke-width: 2"/><circle cx="267" cy="180.5" r="3" style="fill:#000" class="net_14,15 width_2"/><line x1="267" x2="415" y1="160.5" y2="160.5" class="net_14,15 width_2" style="stroke-width: 2"/><line x1="238" x2="414" y1="180.5" y2="180.5" class="net_14,15 width_2" style="stroke-width: 2"/><line x1="627" x2="723" y1="52.5" y2="52.5" class="net_7 width_1" style="stroke-width: 1"/><line x1="446" x2="723" y1="160.5" y2="160.5" class="net_8,9 width_2" style="stroke-width: 2"/><rect x="149" y="121" width="16" height="9" class="net_3,2 width_2 busLabel_2" style="fill: white; stroke: none"/><text x="148" y="129" class="net_3,2 width_2 busLabel_2">/2/</text><rect x="149" y="195.5" width="16" height="9" class="net_5,6 width_2 busLabel_2" style="fill: white; stroke: none"/><text x="148" y="203.5" class="net_5,6 width_2 busLabel_2">/2/</text><rect x="306" y="175.5" width="16" height="9" class="net_14,15 width_2 busLabel_2" style="fill: white; stroke: none"/><text x="305" y="183.5" class="net_14,15 width_2 busLabel_2">/2/</text><rect x="306" y="175.5" width="16" height="9" class="net_14,15 width_2 busLabel_2" style="fill: white; stroke: none"/><text x="305" y="183.5" class="net_14,15 width_2 busLabel_2">/2/</text><rect x="613" y="155.5" width="16" height="9" class="net_8,9 width_2 busLabel_2" style="fill: white; stroke: none"/><text x="612" y="163.5" class="net_8,9 width_2 busLabel_2">/2/</text></svg>