<svg xmlns="http://www.w3.org/2000/svg" xmlns:xlink="http://www.w3.org/1999/xlink" xmlns:s="https://github.com/nturley/netlistsvg" width="718" height="222">
  <style>svg {
    stroke:#000;
    fill:none;
  }
  text {
    fill:#000;
    stroke:none;
    font-size:10px;
    font-weight: bold;
    font-family: "Courier New", monospace;
  }
  .nodelabel {
    text-anchor: middle;
  }
  .inputPortLabel {
    text-anchor: end;
  }
  .splitjoinBody {
    fill:#000;
  }</style>
  <g s:type="generic" transform="translate(217.33333333333334,144.5)" s:width="30" s:height="40" id="cell_inst_1_0">
    <text x="15" y="-4" class="nodelabel cell_inst_1_0" s:attribute="ref">module1</text>
    <rect width="30" height="40" s:generic="body" class="cell_inst_1_0"/>
    <g transform="translate(0,10)" s:x="0" s:y="10" s:pid="in0" id="port_inst_1_0~in0">
      <text x="-3" y="-4" class="inputPortLabel cell_inst_1_0">in0</text>
    </g>
    <g transform="translate(0,30)" s:x="0" s:y="10" s:pid="in0" id="port_inst_1_0~in1">
      <text x="-3" y="-4" class="inputPortLabel cell_inst_1_0">in1</text>
    </g>
    <g transform="translate(30,10)" s:x="30" s:y="10" s:pid="out0" id="port_inst_1_0~out">
      <text x="5" y="-4" style="fill:#000; stroke:none" class="cell_inst_1_0">out</text>
    </g>
  </g>
  <g s:type="generic" transform="translate(579,167)" s:width="30" s:height="40" id="cell_inst_1_1">
    <text x="15" y="-4" class="nodelabel cell_inst_1_1" s:attribute="ref">module1</text>
    <rect width="30" height="40" s:generic="body" class="cell_inst_1_1"/>
    <g transform="translate(0,10)" s:x="0" s:y="10" s:pid="in0" id="port_inst_1_1~in0">
      <text x="-3" y="-4" class="inputPortLabel cell_inst_1_1">in0</text>
    </g>
    <g transform="translate(0,30)" s:x="0" s:y="10" s:pid="in0" id="port_inst_1_1~in1">
      <text x="-3" y="-4" class="inputPortLabel cell_inst_1_1">in1</text>
    </g>
    <g transform="translate(30,10)" s:x="30" s:y="10" s:pid="out0" id="port_inst_1_1~out">
      <text x="5" y="-4" style="fill:#000; stroke:none" class="cell_inst_1_1">out</text>
    </g>
  </g>
  <g s:type="generic" transform="translate(215,22)" s:width="30" s:height="40" id="cell_inst_2_0">
    <text x="15" y="-4" class="nodelabel cell_inst_2_0" s:attribute="ref">module2</text>
    <rect width="30" height="60" s:generic="body" class="cell_inst_2_0"/>
    <g transform="translate(0,10)" s:x="0" s:y="10" s:pid="in0" id="port_inst_2_0~in0">
      <text x="-3" y="-4" class="inputPortLabel cell_inst_2_0">in0</text>
    </g>
    <g transform="translate(0,30)" s:x="0" s:y="10" s:pid="in0" id="port_inst_2_0~in1">
      <text x="-3" y="-4" class="inputPortLabel cell_inst_2_0">in1</text>
    </g>
    <g transform="translate(0,50)" s:x="0" s:y="10" s:pid="in0" id="port_inst_2_0~wire0_ft_in">
      <text x="-3" y="-4" class="inputPortLabel cell_inst_2_0">wire0_ft_in</text>
    </g>
    <g transform="translate(30,10)" s:x="30" s:y="10" s:pid="out0" id="port_inst_2_0~out">
      <text x="5" y="-4" style="fill:#000; stroke:none" class="cell_inst_2_0">out</text>
    </g>
    <g transform="translate(30,30)" s:x="30" s:y="10" s:pid="out0" id="port_inst_2_0~wire0_ft_out">
      <text x="5" y="-4" style="fill:#000; stroke:none" class="cell_inst_2_0">wire0_ft_out</text>
    </g>
  </g>
  <g s:type="generic" transform="translate(421,22)" s:width="30" s:height="40" id="cell_inst_2_1">
    <text x="15" y="-4" class="nodelabel cell_inst_2_1" s:attribute="ref">module2</text>
    <rect width="30" height="60" s:generic="body" class="cell_inst_2_1"/>
    <g transform="translate(0,10)" s:x="0" s:y="10" s:pid="in0" id="port_inst_2_1~in0">
      <text x="-3" y="-4" class="inputPortLabel cell_inst_2_1">in0</text>
    </g>
    <g transform="translate(0,30)" s:x="0" s:y="10" s:pid="in0" id="port_inst_2_1~in1">
      <text x="-3" y="-4" class="inputPortLabel cell_inst_2_1">in1</text>
    </g>
    <g transform="translate(0,50)" s:x="0" s:y="10" s:pid="in0" id="port_inst_2_1~wire0_ft_in">
      <text x="-3" y="-4" class="inputPortLabel cell_inst_2_1">wire0_ft_in</text>
    </g>
    <g transform="translate(30,10)" s:x="30" s:y="10" s:pid="out0" id="port_inst_2_1~out">
      <text x="5" y="-4" style="fill:#000; stroke:none" class="cell_inst_2_1">out</text>
    </g>
    <g transform="translate(30,30)" s:x="30" s:y="10" s:pid="out0" id="port_inst_2_1~wire0_ft_out">
      <text x="5" y="-4" style="fill:#000; stroke:none" class="cell_inst_2_1">wire0_ft_out</text>
    </g>
  </g>
  <g s:type="inputExt" transform="translate(12,145)" s:width="30" s:height="20" id="cell_in0">
    <text x="15" y="-4" class="nodelabel cell_in0" s:attribute="ref">in0</text>
    <s:alias val="$_inputExt_"/>
    <path d="M0,0 L0,20 L15,20 L30,10 L15,0 Z" class="cell_in0"/>
    <g s:x="28" s:y="10" s:pid="Y"/>
  </g>
  <g s:type="inputExt" transform="translate(12,80)" s:width="30" s:height="20" id="cell_in1">
    <text x="15" y="-4" class="nodelabel cell_in1" s:attribute="ref">in1</text>
    <s:alias val="$_inputExt_"/>
    <path d="M0,0 L0,20 L15,20 L30,10 L15,0 Z" class="cell_in1"/>
    <g s:x="28" s:y="10" s:pid="Y"/>
  </g>
  <g s:type="inputExt" transform="translate(77,22.5)" s:width="30" s:height="20" id="cell_bus_in">
    <text x="15" y="-4" class="nodelabel cell_bus_in" s:attribute="ref">bus_in</text>
    <s:alias val="$_inputExt_"/>
    <path d="M0,0 L0,20 L15,20 L30,10 L15,0 Z" class="cell_bus_in"/>
    <g s:x="28" s:y="10" s:pid="Y"/>
  </g>
  <g s:type="outputExt" transform="translate(664,167.5)" s:width="30" s:height="20" id="cell_out0">
    <text x="15" y="-4" class="nodelabel cell_out0" s:attribute="ref">out0</text>
    <s:alias val="$_outputExt_"/>
    <path d="M30,0 L30,20 L15,20 L0,10 L15,0 Z" class="cell_out0"/>
    <g s:x="0" s:y="10" s:pid="A"/>
  </g>
  <g s:type="outputExt" transform="translate(664,22.5)" s:width="30" s:height="20" id="cell_bus_out">
    <text x="15" y="-4" class="nodelabel cell_bus_out" s:attribute="ref">bus_out</text>
    <s:alias val="$_outputExt_"/>
    <path d="M30,0 L30,20 L15,20 L0,10 L15,0 Z" class="cell_bus_out"/>
    <g s:x="0" s:y="10" s:pid="A"/>
  </g>
  <g s:type="join" transform="translate(90,79.5)" s:width="4" s:height="40" id="cell_$join$,3,2,">
    <rect width="5" height="40" class="splitjoinBody" s:generic="body"/>
    <s:alias val="$_join_"/>
    <g s:x="5" s:y="20" s:pid="out"/>
    <g transform="translate(0,10)" s:x="0" s:y="10" s:pid="in0">
      <text x="-3" y="-4" class="inputPortLabel">0</text>
    </g>
    <g transform="translate(0,30)" s:x="0" s:y="10" s:pid="in0">
      <text x="-3" y="-4" class="inputPortLabel">1</text>
    </g>
  </g>
  <line x1="40" x2="217.33333333333334" y1="155" y2="155" class="net_2"/>
  <line x1="40" x2="52" y1="155" y2="155" class="net_2"/>
  <line x1="52" x2="52" y1="155" y2="197.5" class="net_2"/>
  <circle cx="52" cy="155" r="2" style="fill:#000" class="net_2"/>
  <line x1="52" x2="579" y1="197.5" y2="197.5" class="net_2"/>
  <line x1="40" x2="52" y1="155" y2="155" class="net_2"/>
  <line x1="52" x2="52" y1="155" y2="110" class="net_2"/>
  <line x1="52" x2="90" y1="110" y2="110" class="net_2"/>
  <line x1="40" x2="62" y1="90" y2="90" class="net_3"/>
  <line x1="62" x2="62" y1="90" y2="166" class="net_3"/>
  <line x1="62" x2="123" y1="166" y2="166" class="net_3"/>
  <line x1="123" x2="123" y1="166" y2="175" class="net_3"/>
  <circle cx="62" cy="90" r="2" style="fill:#000" class="net_3"/>
  <line x1="123" x2="217.33333333333334" y1="175" y2="175" class="net_3"/>
  <line x1="40" x2="90" y1="90" y2="90" class="net_3"/>
  <line x1="452" x2="535" y1="52.5" y2="52.5" class="net_10"/>
  <line x1="535" x2="535" y1="52.5" y2="177.5" class="net_10"/>
  <line x1="535" x2="579" y1="177.5" y2="177.5" class="net_10"/>
  <line x1="105" x2="215" y1="32.5" y2="32.5" class="net_4,5"/>
  <line x1="96" x2="123" y1="100" y2="100" class="net_3,2"/>
  <line x1="123" x2="123" y1="100" y2="52.5" class="net_3,2"/>
  <line x1="123" x2="215" y1="52.5" y2="52.5" class="net_3,2"/>
  <line x1="246" x2="329" y1="52.5" y2="52.5" class="net_"/>
  <line x1="329" x2="329" y1="52.5" y2="95" class="net_"/>
  <line x1="329" x2="133" y1="95" y2="95" class="net_"/>
  <line x1="133" x2="133" y1="95" y2="72.5" class="net_"/>
  <line x1="133" x2="215" y1="72.5" y2="72.5" class="net_"/>
  <line x1="246" x2="421" y1="32.5" y2="32.5" class="net_11,12"/>
  <line x1="246" x2="339" y1="32.5" y2="32.5" class="net_11,12"/>
  <line x1="339" x2="339" y1="32.5" y2="52.5" class="net_11,12"/>
  <circle cx="339" cy="32.5" r="2" style="fill:#000" class="net_11,12"/>
  <line x1="339" x2="421" y1="52.5" y2="52.5" class="net_11,12"/>
  <line x1="248.33333333333334" x2="339" y1="155" y2="155" class="net_9"/>
  <line x1="339" x2="339" y1="155" y2="72.5" class="net_9"/>
  <line x1="339" x2="421" y1="72.5" y2="72.5" class="net_9"/>
  <line x1="610" x2="664" y1="177.5" y2="177.5" class="net_6"/>
  <line x1="452" x2="664" y1="32.5" y2="32.5" class="net_7,8"/>
</svg>
